<?xml version="1.0" encoding="UTF-8" standalone="no"?>
<!-- Generator: Adobe Illustrator 13.0.0, SVG Export Plug-In . SVG Version: 6.00 Build 14948)  -->

<svg
   xmlns:ns0="&amp;#38;#38;#38;#38;ns_sfw;"
   xmlns:dc="http://purl.org/dc/elements/1.1/"
   xmlns:cc="http://creativecommons.org/ns#"
   xmlns:rdf="http://www.w3.org/1999/02/22-rdf-syntax-ns#"
   xmlns:svg="http://www.w3.org/2000/svg"
   xmlns="http://www.w3.org/2000/svg"
   xmlns:xlink="http://www.w3.org/1999/xlink"
   xmlns:sodipodi="http://sodipodi.sourceforge.net/DTD/sodipodi-0.dtd"
   xmlns:inkscape="http://www.inkscape.org/namespaces/inkscape"
   version="1.1"
   id="Ebene_1"
   x="0px"
   y="0px"
   width="719.89832"
   height="131.05827"
   viewBox="0 0 719.8983 131.05828"
   enable-background="new 0 0 566.924 121.752"
   xml:space="preserve"
   inkscape:version="0.91 r13725"
   sodipodi:docname="logoconsole.svg"><defs
     id="defs39"><linearGradient
       inkscape:collect="always"
       id="SVGID_1_"><stop
         style="stop-color:#f9d308;stop-opacity:1"
         offset="0"
         id="stop5855" /><stop
         id="stop5861"
         offset="0.24261759"
         style="stop-color:#fc7822;stop-opacity:1" /><stop
         style="stop-color:#ed3c4e;stop-opacity:1"
         offset="0.34981441"
         id="stop5863" /><stop
         id="stop5865"
         offset="0.41610214"
         style="stop-color:#8b3ba3;stop-opacity:1" /><stop
         style="stop-color:#115cbf;stop-opacity:1"
         offset="0.58605444"
         id="stop5867" /><stop
         id="stop5871"
         offset="0.74835026"
         style="stop-color:#0173cd;stop-opacity:1" /><stop
         id="stop5869"
         offset="0.82745236"
         style="stop-color:#38b043;stop-opacity:1" /><stop
         style="stop-color:#d1d404;stop-opacity:1"
         offset="1"
         id="stop5857" /></linearGradient><color-profile
       name="Adobe-RGB--1998-"
       xlink:href="C:\WINDOWS\system32\spool\drivers\color\AdobeRGB1998.icc"
       id="color-profile4978" /><linearGradient
       inkscape:collect="always"
       xlink:href="#SVGID_1_"
       id="linearGradient5859"
       x1="191.19229"
       y1="157.5741"
       x2="714.46893"
       y2="158.94075"
       gradientUnits="userSpaceOnUse"
       gradientTransform="matrix(1.0024417,0,0,0.77949711,-1.9918248,-7.6780839)" /></defs><sodipodi:namedview
     pagecolor="#ffffff"
     bordercolor="#666666"
     borderopacity="1"
     objecttolerance="10"
     gridtolerance="10"
     guidetolerance="10"
     inkscape:pageopacity="0"
     inkscape:pageshadow="2"
     inkscape:window-width="1680"
     inkscape:window-height="975"
     id="namedview37"
     showgrid="false"
     inkscape:zoom="3.2380176"
     inkscape:cx="308.26646"
     inkscape:cy="19.653978"
     inkscape:window-x="-9"
     inkscape:window-y="-9"
     inkscape:window-maximized="1"
     inkscape:current-layer="g5"
     showguides="true"
     inkscape:guide-bbox="true"
     fit-margin-top="0"
     fit-margin-left="0"
     fit-margin-right="0"
     fit-margin-bottom="0"><sodipodi:guide
       position="713.87923,26.883897"
       orientation="0,1"
       id="guide5873" /></sodipodi:namedview><metadata
     id="metadata3"><ns0:sfw><ns0:slices /><ns0:sliceSourceBounds
         x="677.038"
         y="478.623"
         width="566.925"
         height="121.753"
         bottomLeftOrigin="true" /></ns0:sfw><rdf:RDF><cc:Work
         rdf:about=""><dc:format>image/svg+xml</dc:format><dc:type
           rdf:resource="http://purl.org/dc/dcmitype/StillImage" /><dc:title /></cc:Work></rdf:RDF></metadata><g
     id="g5"
     transform="translate(1.000949,3.1001421)"><path
       d="m 206.23376,2.672515 c 3.0562,-3.909531 9.38145,-4.577833 13.13118,-1.297786 1.53328,1.291317 2.60786,3.073022 3.15713,4.991235 6.94179,23.88547 13.91464,47.759294 20.84673,71.647351 -4.0965,0.0039 -8.19494,-0.0077 -12.29144,0.0039 -1.93245,-6.585972 -3.81895,-13.182942 -5.72682,-19.773443 -7.92258,-0.01488 -15.84062,-0.0039 -23.76255,-0.0077 -1.93956,6.588559 -3.85453,13.184236 -5.75852,19.785088 -4.0745,-0.01359 -8.149,-0.0039 -12.22416,-0.0077 6.59503,-22.786298 13.19783,-45.570008 19.82456,-68.347895 0.78799,-2.382078 1.08558,-5.045579 2.80389,-6.992905 m 7.23227,14.63729 c -2.90481,9.895132 -5.75075,19.809025 -8.6394,29.709331 5.75788,0.02782 11.51316,0.01035 17.26845,0.01035 -2.88088,-9.906776 -5.74752,-19.812906 -8.62905,-29.719682 z"
       id="path7"
       inkscape:connector-curvature="0"
       style="fill:#cccccc;fill-opacity:1;stroke:none;stroke-width:2;stroke-miterlimit:4;stroke-dasharray:none;stroke-opacity:0.28160921" /><path
       d="m 292.53522,3.1868419 c 2.13494,-3.09695941 6.2625,-4.599182 9.89513,-3.64298693 3.32727,0.76599121 5.87174,3.63263573 6.75029,6.86027943 6.93598,23.8680016 13.89589,47.7269456 20.82863,71.5955946 -4.10297,0.0317 -8.20335,0 -12.30503,0.01553 -1.90786,-6.591147 -3.79437,-13.18941 -5.71711,-19.780558 -7.90964,0.0039 -15.8154,-0.01359 -23.72438,0.0064 -1.8904,6.595676 -3.84031,13.176472 -5.72876,19.772795 -4.07127,0.0039 -8.13866,-0.0039 -12.20993,0.0039 6.59115,-22.91116 13.25993,-45.802264 19.90477,-68.6985434 0.69613,-2.0663647 0.96591,-4.3455768 2.30639,-6.1324583 M 291.53697,47.02944 c 5.73393,0.0084 11.46464,0.0045 17.19857,0.0045 -2.85305,-9.928773 -5.7527,-19.842666 -8.59476,-29.769499 -2.8634,9.922951 -5.75334,19.836844 -8.60381,29.76497 z"
       id="path9"
       inkscape:connector-curvature="0"
       style="fill:#cccccc;fill-opacity:1;stroke:none;stroke-width:2;stroke-miterlimit:4;stroke-dasharray:none;stroke-opacity:0.28160921" /><path
       d="m 234.19696,-0.57583116 c 14.82167,0 29.64011,0 44.4579,0 0,3.99945756 0,7.99309246 0,11.98996216 -5.45898,0.0039 -10.91149,-0.0064 -16.36594,0.0039 0,22.198865 0.003,44.398377 -0.003,66.595949 -3.90694,0 -7.81712,0 -11.72471,0 0,-22.198866 -0.003,-44.397084 0.003,-66.595949 -5.45769,-0.01035 -10.9115,0 -16.36854,-0.0039 6.5e-4,-3.9968697 -0.003,-7.9905046 6.5e-4,-11.98996216 z"
       id="path11"
       inkscape:connector-curvature="0"
       style="fill:#cccccc;fill-opacity:1;stroke:none;stroke-width:2;stroke-miterlimit:4;stroke-dasharray:none;stroke-opacity:0.28160921" /><path
       d="m 343.03824,-0.08802933 c 1.12569,-0.38946512 2.32902,-0.52209029 3.51812,-0.49427135 4.67293,0.0161738 9.34651,0.003882 14.01816,0.006469 7.86952,0.14556422 15.37934,5.02746428 18.78554,12.11029568 2.35815,4.599182 2.60075,9.948181 2.00685,14.99376 -0.41082,5.281717 -2.62598,10.563434 -6.68561,14.065385 -2.14335,1.909802 -4.81396,3.068494 -7.11129,4.771271 -1.25961,0.958136 -1.32431,2.823299 -0.67153,4.158608 6.20168,9.57489 12.6492,18.999041 18.98027,28.491121 -4.63023,0.0084 -9.26111,-0.011 -13.89394,0.0084 -6.06129,-9.105203 -12.06113,-18.256987 -18.09848,-27.374482 -1.77524,-2.596218 -2.25787,-6.032181 -1.19557,-8.99328 0.82875,-2.272742 2.81553,-3.933469 5.02682,-4.791327 4.22071,-1.61091 8.38385,-4.140493 10.72128,-8.12507 1.77912,-2.993448 1.68531,-6.686897 0.88633,-9.963062 -0.93808,-4.253063 -5.08116,-7.599099 -9.46168,-7.452887 -3.02967,0.02005 -6.05417,-0.01359 -9.07802,0.01359 -1.36961,-0.0317 -2.65704,1.158691 -2.63957,2.545109 -0.0149,21.379825 0.006,42.760942 -0.007,64.139473 -3.93864,-0.0084 -7.87211,0 -11.8114,-0.0045 -0.008,-23.015319 0.009,-46.032579 -0.008,-69.0485449 0.0252,-4.0356866 2.89446,-7.8320012 6.71859,-9.05603453 z"
       id="path13"
       inkscape:connector-curvature="0"
       style="fill:#cccccc;fill-opacity:1;stroke:none;stroke-width:2;stroke-miterlimit:4;stroke-dasharray:none;stroke-opacity:0.28160921" /><path
       d="m 392.06879,-0.57583116 c 4.14179,0 8.28357,0 12.4286,0 -0.003,26.19897016 0.009,52.39405816 -0.008,78.59238016 -4.1379,-0.01229 -8.27904,0 -12.42083,-0.0039 0,-26.19897 0,-52.393411 0,-78.58849909 z"
       id="path15"
       inkscape:connector-curvature="0"
       style="fill:#cccccc;fill-opacity:1;stroke:none;stroke-width:2;stroke-miterlimit:4;stroke-dasharray:none;stroke-opacity:0.28160921" /><path
       d="m 54.173,0.008 c -0.01,3.588 0.02,7.18 -0.016,10.77 -0.245,10.596 -0.904,21.201 -2.489,31.684 -1.264,8.248 -3.124,16.484 -6.597,24.109 -2.95,6.635 -6.837,12.879 -11.714,18.271 -4.722,5.229 -10.333,9.658 -16.566,12.953 -5.253,2.764 -10.908,4.85 -16.791,5.73 0.005,6.065 0.005,12.138 0,18.203 4.887,-0.688 9.686,-1.929 14.35,-3.532 8.244,-2.849 16.082,-7.056 22.649,-12.835 7.341,-6.233 13.871,-13.646 18.027,-22.405 2.547,-5.437 4.601,-11.162 5.592,-17.099 1.443,-8.61 1.989,-17.339 2.4,-26.05 C 63.268,33.776 63.439,27.739 63.407,21.7 63.402,14.469 63.415,7.234 63.402,0 60.325,0.008 57.249,-0.002 54.173,0.008"
       id="path23"
       style="fill:#cccccc;stroke:none;stroke-width:2;stroke-miterlimit:4;stroke-dasharray:none;stroke-opacity:0.28160921"
       inkscape:connector-curvature="0" /><path
       d="m 67.116,0.02 c 0.02,27.641 0.002,55.275 0.01,82.917 0.02,12.938 -0.042,25.879 0.03,38.815 5.65,-0.051 11.302,-0.012 16.953,-0.021 0.002,-40.574 0.002,-81.15 0,-121.729 -5.665,0.012 -11.331,-0.02 -16.993,0.018"
       id="path25"
       style="fill:#cccccc;stroke:none;stroke-width:2;stroke-miterlimit:4;stroke-dasharray:none;stroke-opacity:0.28160921"
       inkscape:connector-curvature="0" /><path
       d="m 87.888,0.004 c -0.002,6.648 0,13.301 0,19.949 -0.076,11.754 0.322,23.521 1.386,35.23 0.55,5.418 1.155,10.863 2.573,16.134 1.547,5.244 3.522,10.388 6.23,15.146 3.46,6.108 8.07,11.509 13.219,16.256 3.124,2.871 6.376,5.623 9.952,7.923 4.898,3.188 10.231,5.672 15.745,7.59 4.63,1.574 9.388,2.824 14.24,3.481 -0.006,-6.063 -0.003,-12.127 0,-18.19 -2.47,-0.358 -4.899,-0.955 -7.274,-1.715 -8.513,-2.729 -16.35,-7.47 -22.815,-13.636 C 114.373,81.726 109.177,73.728 105.572,65.121 101.77,56.226 100.068,46.609 98.861,37.06 97.386,24.771 96.965,12.376 97.064,0.005 94.007,-0.004 90.948,0.002 87.888,0.004"
       id="path27"
       style="fill:#cccccc;stroke:none;stroke-width:2;stroke-miterlimit:4;stroke-dasharray:none;stroke-opacity:0.28160921"
       inkscape:connector-curvature="0" /><path
       d="m 474.9239,8.298483 -4.78846,15.802809 5.40197,-0.312291 c 14.87701,0 24.66212,12.7397 24.66212,26.901321 0,16.208118 -12.6356,27.313315 -28.43398,27.313315 -9.48169,0 -18.96337,-4.992225 -23.44175,-13.452915 l 7.13839,-6.726434 c 2.34329,6.522676 10.19043,11.415264 17.01654,11.415264 10.39199,0 18.5492,-8.560349 18.5492,-18.857091 0,-9.889215 -8.44958,-18.241338 -18.33436,-18.241338 -5.39976,0 -11.01213,2.547054 -14.36982,6.830535 l -1.83609,0 11.82275,-39.44833 30.76842,0 0,8.764081 -24.15493,0 0,0.01108 z"
       id="path29"
       inkscape:connector-curvature="0"
       style="fill:#cccccc;fill-opacity:1;stroke:none;stroke-width:2;stroke-miterlimit:4;stroke-dasharray:none;stroke-opacity:0.28160921" /><path
       d="m 550.84162,67.616052 0,8.759685 -49.62991,0 33.63663,-41.277815 c 3.15834,-3.867094 6.82609,-8.659986 6.82609,-13.756308 0,-8.053121 -7.13618,-14.6732456 -15.08299,-14.6732456 -7.85156,0 -14.26792,6.3211236 -14.78176,14.0641676 l -9.57693,0 c 1.5238,-13.6566389 10.39199,-22.8326781 24.35869,-22.8326781 13.04535,0 24.25018,9.6810202 24.25018,23.0297971 0,5.705402 -2.14397,11.410803 -5.70098,15.800596 l -25.27562,30.874725 30.9766,0 0,0.01113 z"
       id="path31"
       inkscape:connector-curvature="0"
       style="fill:#cccccc;fill-opacity:1;stroke:none;stroke-width:2;stroke-miterlimit:4;stroke-dasharray:none;stroke-opacity:0.28160921" /><path
       d="m 592.82372,-2.0957125 c -22.00655,0 -39.90681,18.0420025 -39.90681,40.2257355 0,22.006548 17.90026,39.906841 39.90681,39.906841 22.64663,0 40.3852,-17.594647 40.3852,-40.066308 0,-22.471662 -17.73857,-40.0662685 -40.3852,-40.0662685 z m 30.95225,40.2257355 c 0,17.359836 -13.80727,30.956713 -31.43952,30.956713 -16.5337,0 -29.98215,-13.887021 -29.98215,-30.956713 0,-17.246879 13.44402,-31.2800378 29.98215,-31.2800378 17.9202,0 31.43952,13.4462278 31.43952,31.2800378 z"
       id="path33"
       inkscape:connector-curvature="0"
       style="fill:#cccccc;fill-opacity:1;stroke:none;stroke-width:2;stroke-miterlimit:4;stroke-dasharray:none;stroke-opacity:0.28160921" /><path
       d="m 677.51216,-2.0957125 c -22.00655,0 -39.9068,18.0420025 -39.9068,40.2257355 0,22.006548 17.90025,39.906841 39.9068,39.906841 22.64442,0 40.3852,-17.599077 40.3852,-40.066308 0,-22.467233 -17.74078,-40.0662685 -40.3852,-40.0662685 z m 30.95003,40.2257355 c 0,17.359836 -13.80726,30.956713 -31.43951,30.956713 -16.5337,0 -29.98658,-13.887021 -29.98658,-30.956713 0,-17.246879 13.45288,-31.2800378 29.98658,-31.2800378 17.92683,0 31.43951,13.4462278 31.43951,31.2800378 z"
       id="path35"
       inkscape:connector-curvature="0"
       style="fill:#cccccc;fill-opacity:1;stroke:none;stroke-width:2;stroke-miterlimit:4;stroke-dasharray:none;stroke-opacity:0.28160921" /><rect
       style="fill:#cccccc;fill-opacity:1;stroke:none;stroke-width:2;stroke-miterlimit:4;stroke-dasharray:none;stroke-opacity:0.28160921"
       id="rect4501"
       width="534.44635"
       height="30.716198"
       x="183.34904"
       y="96.241936" /><path
       style="fill:url(#linearGradient5859);fill-opacity:1;stroke:none;stroke-opacity:1"
       d="M 189.22656 104.19531 L 189.22656 125.11914 L 713.64844 125.11914 L 713.64844 104.19531 L 189.22656 104.19531 z "
       transform="translate(-1.000949,-3.1001421)"
       id="rect5311" /><path
       style="color:#000000;font-style:normal;font-variant:normal;font-weight:normal;font-stretch:normal;font-size:medium;line-height:normal;font-family:sans-serif;text-indent:0;text-align:start;text-decoration:none;text-decoration-line:none;text-decoration-style:solid;text-decoration-color:#000000;letter-spacing:normal;word-spacing:normal;text-transform:none;direction:ltr;block-progression:tb;writing-mode:lr-tb;baseline-shift:baseline;text-anchor:start;white-space:normal;clip-rule:nonzero;display:inline;overflow:visible;visibility:visible;opacity:1;isolation:auto;mix-blend-mode:normal;color-interpolation:sRGB;color-interpolation-filters:linearRGB;solid-color:#000000;solid-opacity:1;fill:#000000;fill-opacity:0.28160921;fill-rule:nonzero;stroke:none;stroke-width:2;stroke-linecap:butt;stroke-linejoin:miter;stroke-miterlimit:4;stroke-dasharray:none;stroke-dashoffset:0;stroke-opacity:1;color-rendering:auto;image-rendering:auto;shape-rendering:auto;text-rendering:auto;enable-background:accumulate"
       d="m 677.51172,-3.0957031 c -22.55312,0 -40.90625,18.5048901 -40.90625,41.2265621 0,22.548819 18.35743,40.90625 40.90625,40.90625 23.16255,0 41.38476,-18.072755 41.38476,-41.066406 0,-22.993652 -18.22221,-41.0664061 -41.38476,-41.0664061 z m 0,2 c 22.12629,0 39.38476,17.1255921 39.38476,39.0664061 0,21.940812 -17.25847,39.066406 -39.38476,39.066406 -21.46428,0 -38.90625,-17.441972 -38.90625,-38.90625 0,-21.645793 17.44626,-39.2265621 38.90625,-39.2265621 z m -0.48828,6.9453125 c -17.09954,0 -30.98828,14.5143586 -30.98828,32.2812496 0,17.595102 13.89463,31.955079 30.98828,31.955079 18.14634,0 32.43945,-14.065005 32.43945,-31.955079 0,-18.338943 -14.01258,-32.2812496 -32.43945,-32.2812496 z m 0,2 c 17.42679,0 30.43945,12.9525736 30.43945,30.2812496 0,16.829599 -13.32129,29.955079 -30.43945,29.955079 -15.97375,0 -28.98828,-13.410797 -28.98828,-29.955079 0,-16.726866 13.02042,-30.2812496 28.98828,-30.2812496 z"
       id="path4162"
       inkscape:connector-curvature="0" /><path
       style="color:#000000;font-style:normal;font-variant:normal;font-weight:normal;font-stretch:normal;font-size:medium;line-height:normal;font-family:sans-serif;text-indent:0;text-align:start;text-decoration:none;text-decoration-line:none;text-decoration-style:solid;text-decoration-color:#000000;letter-spacing:normal;word-spacing:normal;text-transform:none;direction:ltr;block-progression:tb;writing-mode:lr-tb;baseline-shift:baseline;text-anchor:start;white-space:normal;clip-rule:nonzero;display:inline;overflow:visible;visibility:visible;opacity:1;isolation:auto;mix-blend-mode:normal;color-interpolation:sRGB;color-interpolation-filters:linearRGB;solid-color:#000000;solid-opacity:1;fill:#000000;fill-opacity:0.28160921;fill-rule:nonzero;stroke:none;stroke-width:2;stroke-linecap:butt;stroke-linejoin:miter;stroke-miterlimit:4;stroke-dasharray:none;stroke-dashoffset:0;stroke-opacity:1;color-rendering:auto;image-rendering:auto;shape-rendering:auto;text-rendering:auto;enable-background:accumulate"
       d="m 592.82422,-3.095703 c -22.55312,0 -40.9082,18.50489 -40.9082,41.226562 0,22.548819 18.35938,40.90625 40.9082,40.90625 23.16458,0 41.38476,-18.068495 41.38476,-41.066406 0,-22.997912 -18.22018,-41.066406 -41.38476,-41.066406 z m 0,2 c 22.12868,0 39.38476,17.120994 39.38476,39.066406 0,21.945411 -17.25608,39.066406 -39.38476,39.066406 -21.46428,0 -38.9082,-17.441972 -38.9082,-38.90625 0,-21.645793 17.44821,-39.226562 38.9082,-39.226562 z m -0.48828,6.945312 c -17.10382,0 -30.98242,14.514702 -30.98242,32.28125 0,17.594929 13.88877,31.955079 30.98242,31.955079 18.14634,0 32.43945,-14.065005 32.43945,-31.955079 0,-18.339191 -14.01903,-32.28125 -32.43945,-32.28125 z m 0,2 c 17.41997,0 30.43945,12.952822 30.43945,30.28125 0,16.829598 -13.32129,29.955079 -30.43945,29.955079 -15.97375,0 -28.98242,-13.410624 -28.98242,-29.955079 0,-16.727209 13.00998,-30.28125 28.98242,-30.28125 z"
       id="path4167"
       inkscape:connector-curvature="0" /><path
       style="color:#000000;font-style:normal;font-variant:normal;font-weight:normal;font-stretch:normal;font-size:medium;line-height:normal;font-family:sans-serif;text-indent:0;text-align:start;text-decoration:none;text-decoration-line:none;text-decoration-style:solid;text-decoration-color:#000000;letter-spacing:normal;word-spacing:normal;text-transform:none;direction:ltr;block-progression:tb;writing-mode:lr-tb;baseline-shift:baseline;text-anchor:start;white-space:normal;clip-rule:nonzero;display:inline;overflow:visible;visibility:visible;opacity:1;isolation:auto;mix-blend-mode:normal;color-interpolation:sRGB;color-interpolation-filters:linearRGB;solid-color:#000000;solid-opacity:1;fill:#000000;fill-opacity:0.28160921;fill-rule:nonzero;stroke:none;stroke-width:2;stroke-linecap:butt;stroke-linejoin:miter;stroke-miterlimit:4;stroke-dasharray:none;stroke-dashoffset:0;stroke-opacity:1;color-rendering:auto;image-rendering:auto;shape-rendering:auto;text-rendering:auto;enable-background:accumulate"
       d="m 526.5918,-3.099609 c -7.20235,0 -13.19352,2.387987 -17.53907,6.574218 -4.34554,4.186232 -7.03158,10.13022 -7.81445,17.146485 l -0.12305,1.111328 11.63086,0 0.0606,-0.933594 c 0.4798,-7.230112 6.47032,-13.130859 13.78516,-13.130859 7.39144,0 14.08203,6.211466 14.08203,13.673828 0,4.616531 -3.45741,9.275713 -6.59961,13.123047 l -34.9668,42.910156 52.73438,0 0,-9.759766 0,-1.009765 -29.86719,0 23.94141,-29.244141 0.002,-0.002 c 3.70009,-4.566371 5.92383,-10.473766 5.92383,-16.429687 0,-13.908371 -11.70992,-24.029297 -25.25,-24.029297 z m 0,2 c 12.55061,0 23.25,9.240113 23.25,22.029297 0,5.454882 -2.06459,10.95866 -5.47852,15.171874 l -26.60937,32.503907 32.08789,0 0,6.769531 -46.52539,0 32.30664,-39.644531 c 3.17448,-3.886855 7.05078,-8.81256 7.05078,-14.388672 0,-8.64388 -7.57985,-15.673828 -16.08203,-15.673828 -8.06343,0 -14.63842,6.24846 -15.62696,14.064453 l -7.53125,0 c 0.89143,-6.122081 3.27622,-11.223498 7.00586,-14.816406 3.96117,-3.815948 9.38799,-6.015625 16.15235,-6.015625 z"
       id="path4171"
       inkscape:connector-curvature="0" /><path
       style="color:#000000;font-style:normal;font-variant:normal;font-weight:normal;font-stretch:normal;font-size:medium;line-height:normal;font-family:sans-serif;text-indent:0;text-align:start;text-decoration:none;text-decoration-line:none;text-decoration-style:solid;text-decoration-color:#000000;letter-spacing:normal;word-spacing:normal;text-transform:none;direction:ltr;block-progression:tb;writing-mode:lr-tb;baseline-shift:baseline;text-anchor:start;white-space:normal;clip-rule:nonzero;display:inline;overflow:visible;visibility:visible;opacity:1;isolation:auto;mix-blend-mode:normal;color-interpolation:sRGB;color-interpolation-filters:linearRGB;solid-color:#000000;solid-opacity:1;fill:#000000;fill-opacity:0.28160921;fill-rule:nonzero;stroke:none;stroke-width:2;stroke-linecap:butt;stroke-linejoin:miter;stroke-miterlimit:4;stroke-dasharray:none;stroke-dashoffset:0;stroke-opacity:1;color-rendering:auto;image-rendering:auto;shape-rendering:auto;text-rendering:auto;enable-background:accumulate"
       d="m 467.56641,-1.476562 -12.42188,41.447265 3.66602,0 0.30078,-0.382812 c 3.14265,-4.009147 8.49673,-6.447266 13.58203,-6.447266 9.32148,0 17.33398,7.922588 17.33398,17.242187 0,9.768601 -7.706,17.857422 -17.54882,17.857422 -6.34828,0 -13.91926,-4.750012 -16.07618,-10.753906 l -0.51562,-1.4375 -8.80274,8.296875 0.35547,0.671875 c 4.67532,8.832743 14.49348,13.986328 24.32617,13.986328 16.26701,0 29.4336,-11.586612 29.4336,-28.314453 0,-14.622261 -10.21421,-27.90039 -25.66211,-27.900391 l -0.0293,0 -4,0.232422 4.16211,-13.734375 24.4082,0 0,-10.763671 -32.51171,0 z m 1.48828,2 29.02343,0 0,6.763671 -24.15429,0 0,0.863282 -5.16016,17.03125 6.78125,-0.392579 c 14.30156,0.0046 23.6543,12.201991 23.6543,25.900391 0,15.688395 -12.10384,26.314453 -27.4336,26.314453 -8.87991,0 -17.73806,-4.597699 -22.1582,-12.289062 l 5.54102,-5.220703 c 3.0232,6.322401 10.50464,10.746093 17.33008,10.746093 10.94115,0 19.54882,-9.032538 19.54882,-19.857422 0,-10.45883 -8.8859,-19.242187 -19.33398,-19.242187 -5.53423,0 -11.17154,2.532604 -14.76953,6.830078 l -0.0918,0 11.22266,-37.447265 z"
       id="path4175"
       inkscape:connector-curvature="0" /><path
       style="color:#000000;font-style:normal;font-variant:normal;font-weight:normal;font-stretch:normal;font-size:medium;line-height:normal;font-family:sans-serif;text-indent:0;text-align:start;text-decoration:none;text-decoration-line:none;text-decoration-style:solid;text-decoration-color:#000000;letter-spacing:normal;word-spacing:normal;text-transform:none;direction:ltr;block-progression:tb;writing-mode:lr-tb;baseline-shift:baseline;text-anchor:start;white-space:normal;clip-rule:nonzero;display:inline;overflow:visible;visibility:visible;opacity:1;isolation:auto;mix-blend-mode:normal;color-interpolation:sRGB;color-interpolation-filters:linearRGB;solid-color:#000000;solid-opacity:1;fill:#000000;fill-opacity:0.28160921;fill-rule:nonzero;stroke:none;stroke-width:2;stroke-linecap:butt;stroke-linejoin:miter;stroke-miterlimit:4;stroke-dasharray:none;stroke-dashoffset:0;stroke-opacity:1;color-rendering:auto;image-rendering:auto;shape-rendering:auto;text-rendering:auto;enable-background:accumulate"
       d="m 391.06836,-1.662109 0,80.673828 1,0 c 4.1444,0.0039 8.28403,-0.0084 12.41797,0.0039 l 1.00195,0.0039 0.002,-1.001953 c 0.017,-26.19906 0.005,-52.395161 0.008,-78.59375 l 0,-1 -13.39453,0 -1.03516,-0.08594 z m 2,2.085937 10.42969,0 c -0.003,25.532523 0.008,51.060953 -0.008,76.591797 -3.47497,-0.0072 -6.94878,-0.0026 -10.42187,-0.0039 l 0,-76.587891 z"
       id="path4179"
       inkscape:connector-curvature="0" /><path
       style="color:#000000;font-style:normal;font-variant:normal;font-weight:normal;font-stretch:normal;font-size:medium;line-height:normal;font-family:sans-serif;text-indent:0;text-align:start;text-decoration:none;text-decoration-line:none;text-decoration-style:solid;text-decoration-color:#000000;letter-spacing:normal;word-spacing:normal;text-transform:none;direction:ltr;block-progression:tb;writing-mode:lr-tb;baseline-shift:baseline;text-anchor:start;white-space:normal;clip-rule:nonzero;display:inline;overflow:visible;visibility:visible;opacity:1;isolation:auto;mix-blend-mode:normal;color-interpolation:sRGB;color-interpolation-filters:linearRGB;solid-color:#000000;solid-opacity:1;fill:#000000;fill-opacity:0.28160921;fill-rule:nonzero;stroke:none;stroke-width:2;stroke-linecap:butt;stroke-linejoin:miter;stroke-miterlimit:4;stroke-dasharray:none;stroke-dashoffset:0;stroke-opacity:1;color-rendering:auto;image-rendering:auto;shape-rendering:auto;text-rendering:auto;enable-background:accumulate"
       d="m 346.58008,-1.582031 c -1.27655,-0.02987 -2.59621,0.110465 -3.86133,0.546875 -4.25025,1.367439 -7.37033,5.495419 -7.39844,9.996093 l 0,0.0039 0,0.0039 c 0.017,23.014981 -1.9e-4,46.032785 0.008,69.048828 l 0,0.998047 0.99805,0 c 3.94147,0.0045 7.87475,-0.0025 11.81055,0.0059 l 1.00195,0.002 0,-1.001954 c 0.013,-21.379588 -0.007,-42.759963 0.008,-64.138672 l 0,-0.0078 0,-0.0059 c -0.01,-0.760286 0.83909,-1.551167 1.61524,-1.533203 l 0.0176,0 0.0156,0 c 3.01044,-0.02706 6.0347,0.0065 9.07617,-0.01367 l 0.0117,0 0.0137,0 c 3.85113,-0.128543 7.62468,2.911938 8.45313,6.667967 l 0.002,0.01172 0.002,0.01172 c 0.76225,3.125592 0.81321,6.545223 -0.77344,9.214843 l -0.002,0.002 -0.002,0.002 c -2.16868,3.696917 -6.11529,6.132598 -10.21484,7.697266 l -0.002,0 -0.004,0.002 c -2.42871,0.942206 -4.65226,2.772156 -5.60352,5.380859 l -0.002,0.002 0,0.0039 c -1.17784,3.283149 -0.64906,7.028678 1.31055,9.894532 6.03304,9.111063 12.03051,18.260035 18.09179,27.365234 l 0.29883,0.447266 0.53711,-0.002 c 4.62725,-0.01938 9.25835,-0.0014 13.89258,-0.0098 l 1.86523,-0.002 -1.03515,-1.552734 C 380.39376,67.987729 373.9691,58.594901 367.79297,49.0625 c -0.23362,-0.488016 -0.34847,-1.104695 -0.2832,-1.638672 0.066,-0.539988 0.27791,-0.967006 0.66406,-1.261719 2.17187,-1.607848 4.87165,-2.773228 7.16992,-4.820312 4.28752,-3.704328 6.58326,-9.219118 7.01563,-14.714844 0.60409,-5.14885 0.37633,-10.689226 -2.10352,-15.535156 -3.5795,-7.432832 -11.39482,-12.515047 -19.66211,-12.667969 l -0.01,0 -0.01,0 c -4.66726,-0.0026 -9.33177,0.0102 -13.99414,-0.0059 z m -3.71485,0.509765 -0.0684,0.01172 -0.0645,0.01953 c -0.003,0.0011 -0.006,0.0028 -0.01,0.0039 l 0.14257,-0.03516 z m 3.66797,1.490235 0.01,0 0.01,0 c 4.67113,0.01617 9.34023,0.0033 14.00391,0.0059 7.46792,0.138136 14.66717,4.817716 17.90234,11.544922 l 0.006,0.0098 0.006,0.01172 c 2.22723,4.343843 2.48296,9.489187 1.90235,14.421875 l -0.002,0.01953 -0.002,0.01953 c -0.39326,5.056021 -2.52249,10.090124 -6.3418,13.384766 l -0.006,0.0059 -0.006,0.0059 c -1.9853,1.768976 -4.62018,2.918576 -7.04101,4.712891 l -0.006,0.0039 -0.004,0.0039 c -0.87209,0.663369 -1.32151,1.648327 -1.43945,2.613282 -0.11794,0.964955 0.0618,1.93684 0.47461,2.78125 l 0.0273,0.05469 0.0312,0.04883 c 5.87214,9.066097 11.95974,17.986308 17.95313,26.949219 -3.8264,0.0018 -7.65542,-0.0058 -11.49024,0.0078 -5.95825,-8.954823 -11.8601,-17.956232 -17.80084,-26.92783 l -0.004,-0.0059 -0.006,-0.0059 c -1.58971,-2.324881 -2.02413,-5.448108 -1.08008,-8.085937 l 0,-0.002 c 0.7066,-1.936041 2.45587,-3.425912 4.44922,-4.199219 4.34001,-1.657273 8.71561,-4.282353 11.2207,-8.552734 1.96535,-3.31136 1.83006,-7.267998 0.99805,-10.689453 -1.05023,-4.747119 -5.56095,-8.394281 -10.46875,-8.230469 l 0.0273,-0.002 c -3.00748,0.0199 -6.0221,-0.01312 -9.04883,0.01367 -1.96306,-0.04544 -3.68747,1.546044 -3.66211,3.558593 -0.0147,21.04368 0.004,42.086575 -0.008,63.126953 -3.27247,-0.0048 -6.54109,-0.0038 -9.81055,-0.0059 -0.007,-22.678761 0.009,-45.360012 -0.008,-68.041016 0.0223,-3.564188 2.63086,-7.020621 6.01953,-8.107421 l 0.0254,-0.0098 c 0.98389,-0.340403 2.06894,-0.465165 3.16797,-0.439454 z"
       id="path4183"
       inkscape:connector-curvature="0" /><path
       style="color:#000000;font-style:normal;font-variant:normal;font-weight:normal;font-stretch:normal;font-size:medium;line-height:normal;font-family:sans-serif;text-indent:0;text-align:start;text-decoration:none;text-decoration-line:none;text-decoration-style:solid;text-decoration-color:#000000;letter-spacing:normal;word-spacing:normal;text-transform:none;direction:ltr;block-progression:tb;writing-mode:lr-tb;baseline-shift:baseline;text-anchor:start;white-space:normal;clip-rule:nonzero;display:inline;overflow:visible;visibility:visible;opacity:1;isolation:auto;mix-blend-mode:normal;color-interpolation:sRGB;color-interpolation-filters:linearRGB;solid-color:#000000;solid-opacity:1;fill:#000000;fill-opacity:0.28160921;fill-rule:nonzero;stroke:none;stroke-width:2;stroke-linecap:butt;stroke-linejoin:miter;stroke-miterlimit:4;stroke-dasharray:none;stroke-dashoffset:0;stroke-opacity:1;color-rendering:auto;image-rendering:auto;shape-rendering:auto;text-rendering:auto;enable-background:accumulate"
       d="m 299.59375,-1.730469 c -3.08373,0.172918 -6.05969,1.738946 -7.85547,4.320313 l -0.004,-0.0039 c -0.004,0.0055 -0.004,0.01209 -0.008,0.01758 -0.004,0.0062 -0.0114,0.0095 -0.0156,0.01563 l 0.006,0.0039 c -1.52336,2.054212 -1.78907,4.458309 -2.43543,6.376953 l -0.008,0.01953 -0.006,0.02148 c -6.64432,22.895624 -13.3122,45.787859 -19.90397,68.701173 l -0.36914,1.277343 1.33203,-0.002 c 4.06872,-0.0078 8.1358,-4e-6 12.20899,-0.0039 l 0.75195,0 0.20898,-0.72461 c 1.81781,-6.349557 3.69272,-12.690093 5.51953,-19.048828 7.4046,-0.01655 14.80923,-0.0034 22.21876,-0.0059 1.84951,6.349047 3.67063,12.704896 5.50976,19.058594 l 0.20898,0.724609 0.75586,-0.002 c 4.09401,-0.0155 8.19533,0.01615 12.3086,-0.01563 l 1.32031,-0.0098 -0.36914,-1.269531 C 324.03619,53.85269 317.07797,29.994877 310.14258,6.128908 c -0.96968,-3.546822 -3.7378,-6.688832 -7.47852,-7.554687 -1.00891,-0.26313 -2.04514,-0.362174 -3.07031,-0.304688 z m 0.11719,2.009766 c 0.82997,-0.05163 1.6641,0.02165 2.46484,0.232422 l 0.0156,0.0039 0.0137,0.002 c 2.90433,0.668623 5.22032,3.248138 6.00976,6.148437 l 0.004,0.0098 0.002,0.0078 c 6.81244,23.442861 13.64724,46.876546 20.45703,70.318359 -3.40242,0.01602 -6.80858,0.0052 -10.22265,0.01367 -1.83638,-6.349599 -3.65418,-12.706298 -5.50781,-19.060547 l -0.21094,-0.720703 -0.75,0 c -7.90784,0.0039 -15.81443,-0.01414 -23.72656,0.0059 l -0.75196,0.002 -0.20703,0.722656 c -1.81957,6.348541 -3.69456,12.689913 -5.51953,19.048828 -3.37406,0.0021 -6.74812,-8e-6 -10.125,0.0039 6.47078,-22.482279 13.01175,-44.948816 19.5332,-67.419921 l -0.0137,0.04102 c 0.7422,-2.203122 1.02598,-4.339689 2.16016,-5.851563 l -0.80089,-0.59969 0.82422,0.566406 c 1.40914,-2.044118 3.86165,-3.319722 6.35156,-3.474609 z m 0.43359,13.365234 -0.96484,3.341797 c -2.8629,9.921214 -5.7523,19.836855 -8.60352,29.767578 l -0.0391,0.134766 0,1.138672 0.99805,0.002 c 5.73536,0.0084 11.46769,0.0039 17.20117,0.0039 l 1.32617,0 -0.36523,-1.275391 c -2.85393,-9.931805 -5.75469,-19.846355 -8.59571,-29.769531 l -0.95703,-3.34375 z m -0.004,7.222657 c 2.41289,8.391485 4.85139,16.776554 7.26563,25.166015 -4.8475,4.28e-4 -9.69291,0.0017 -14.53906,-0.0039 2.41195,-8.390176 4.8481,-16.773681 7.27343,-25.162109 z"
       id="path4187"
       inkscape:connector-curvature="0" /><path
       style="color:#000000;font-style:normal;font-variant:normal;font-weight:normal;font-stretch:normal;font-size:medium;line-height:normal;font-family:sans-serif;text-indent:0;text-align:start;text-decoration:none;text-decoration-line:none;text-decoration-style:solid;text-decoration-color:#000000;letter-spacing:normal;word-spacing:normal;text-transform:none;direction:ltr;block-progression:tb;writing-mode:lr-tb;baseline-shift:baseline;text-anchor:start;white-space:normal;clip-rule:nonzero;display:inline;overflow:visible;visibility:visible;opacity:1;isolation:auto;mix-blend-mode:normal;color-interpolation:sRGB;color-interpolation-filters:linearRGB;solid-color:#000000;solid-opacity:1;fill:#000000;fill-opacity:0.28160921;fill-rule:nonzero;stroke:none;stroke-width:2;stroke-linecap:butt;stroke-linejoin:miter;stroke-miterlimit:4;stroke-dasharray:none;stroke-dashoffset:0;stroke-opacity:1;color-rendering:auto;image-rendering:auto;shape-rendering:auto;text-rendering:auto;enable-background:accumulate"
       d="m 233.19727,-1.5761719 0,1.00000002 c -0.004,4.00067348 -0.001,7.99408178 -0.002,11.99023388 l 0,1 1,0 c 5.12591,0.0037 10.2468,-0.0036 15.36914,0.0039 -0.006,21.865769 -0.004,43.730263 -0.004,65.595703 l 0,1 13.72461,0 0,-1 c 0.006,-21.86452 0.004,-43.730241 0.004,-65.595703 5.1195,-0.0074 10.2395,-2.43e-4 15.36719,-0.0039 l 0.99805,0 0,-13.9902339 -45.45703,0 -1,0 z m 2,2.00000002 42.45703,0 0,9.99023388 c -5.12335,0.0022 -10.24363,-0.0058 -15.36719,0.0039 l -0.99805,0.002 0,0.998047 c 0,21.865616 0.002,43.731653 -0.004,65.595703 l -9.72461,0 c -9e-5,-21.865593 -0.002,-43.730442 0.004,-65.595703 l 0,-0.998047 -0.99804,-0.002 c -5.12731,-0.0097 -10.24852,-0.0018 -15.3711,-0.0039 1e-5,-3.3307901 -1.4e-4,-6.6589876 0.002,-9.99023388 z"
       id="path4191"
       inkscape:connector-curvature="0" /><path
       style="color:#000000;font-style:normal;font-variant:normal;font-weight:normal;font-stretch:normal;font-size:medium;line-height:normal;font-family:sans-serif;text-indent:0;text-align:start;text-decoration:none;text-decoration-line:none;text-decoration-style:solid;text-decoration-color:#000000;letter-spacing:normal;word-spacing:normal;text-transform:none;direction:ltr;block-progression:tb;writing-mode:lr-tb;baseline-shift:baseline;text-anchor:start;white-space:normal;clip-rule:nonzero;display:inline;overflow:visible;visibility:visible;opacity:1;isolation:auto;mix-blend-mode:normal;color-interpolation:sRGB;color-interpolation-filters:linearRGB;solid-color:#000000;solid-opacity:1;fill:#000000;fill-opacity:0.28160921;fill-rule:nonzero;stroke:none;stroke-width:2;stroke-linecap:butt;stroke-linejoin:miter;stroke-miterlimit:4;stroke-dasharray:none;stroke-dashoffset:0;stroke-opacity:1;color-rendering:auto;image-rendering:auto;shape-rendering:auto;text-rendering:auto;enable-background:accumulate"
       d="m 212.43945,-1.6933594 c -2.66742,0.2688486 -5.22997,1.54431321 -6.94726,3.7109375 l -0.008,-0.00586 c -0.008,0.00921 -0.0115,0.02007 -0.0195,0.029297 -0.005,0.00673 -0.0143,0.00888 -0.0195,0.015625 l 0.006,0.00391 c -1.94299,2.2364345 -2.23404,5.0641145 -2.9707,7.2910156 l -0.006,0.017578 -0.006,0.017578 C 195.84183,32.16527 189.23963,54.949809 182.64453,77.736328 l -0.36914,1.275391 1.32813,0.002 c 4.07736,0.0038 8.15196,-0.0058 12.22265,0.0078 l 0.75586,0.002 0.20899,-0.72461 c 1.8345,-6.359948 3.68015,-12.715079 5.54687,-19.0625 7.42269,0.0027 14.84146,-0.0046 22.26172,0.0078 1.83623,6.348364 3.65449,12.705103 5.51758,19.054687 l 0.21289,0.720703 0.75,-0.002 c 4.09272,-0.01159 8.19004,-4e-6 12.28906,-0.0039 l 1.33008,-0.002 -0.36914,-1.277344 C 237.39807,53.846584 230.42552,29.973086 223.48438,6.0898438 l -0.002,-0.00391 c -0.59853,-2.087415 -1.76675,-4.0354052 -3.46484,-5.46875 -2.10927,-1.8421463 -4.89288,-2.581192 -7.57813,-2.3105469 z m 0.19922,2.04101565 c 2.17654,-0.22064353 4.42856,0.34488983 6.06836,1.77929685 l 0.006,0.00586 0.008,0.00586 c 1.36271,1.1476597 2.34048,2.7580254 2.83985,4.5019531 l 0,0.00195 0.002,0.00195 c 6.81806,23.4597508 13.66326,46.9092318 20.47266,70.3691408 -3.40017,8.24e-4 -6.80265,-0.0035 -10.20704,0.0039 -1.85786,-6.343218 -3.6785,-12.699881 -5.51757,-19.052734 l -0.20899,-0.71875 -0.75,-0.002 c -7.92475,-0.01488 -15.84298,-0.004 -23.76367,-0.0078 l -0.74805,0 -0.21093,0.716797 c -1.8694,6.350223 -3.71327,12.707834 -5.54883,19.068359 -3.38287,-0.009 -6.76342,-0.0067 -10.14258,-0.0078 6.47198,-22.360061 12.95045,-44.716883 19.45312,-67.0683595 l -0.0117,0.035156 c 0.83421,-2.5218245 1.14857,-4.9954124 2.60547,-6.6464844 l -0.74219,-0.6542969 0.77929,0.609375 c 1.33897,-1.7128252 3.44065,-2.72076272 5.61719,-2.94140625 z m 0.83203,13.39648475 -0.96484,3.283203 c -2.90594,9.898963 -5.75083,19.813412 -8.63867,29.710937 l -0.37305,1.275391 1.32813,0.0059 c 5.76312,0.02785 11.52017,0.0098 17.27343,0.0098 l 1.33203,0 L 223.05469,46.75 c -2.88064,-9.905939 -5.74712,-19.811098 -8.62891,-29.71875 l -0.95508,-3.287109 z m -0.006,7.15039 c 2.43443,8.378092 4.86309,16.755385 7.29883,25.134766 -4.87036,0.002 -9.73845,0.0082 -14.60547,-0.0098 2.44078,-8.376362 4.86064,-16.755492 7.30664,-25.125 z"
       id="path4195"
       inkscape:connector-curvature="0" /><path
       style="color:#000000;font-style:normal;font-variant:normal;font-weight:normal;font-stretch:normal;font-size:medium;line-height:normal;font-family:sans-serif;text-indent:0;text-align:start;text-decoration:none;text-decoration-line:none;text-decoration-style:solid;text-decoration-color:#000000;letter-spacing:normal;word-spacing:normal;text-transform:none;direction:ltr;block-progression:tb;writing-mode:lr-tb;baseline-shift:baseline;text-anchor:start;white-space:normal;clip-rule:nonzero;display:inline;overflow:visible;visibility:visible;opacity:1;isolation:auto;mix-blend-mode:normal;color-interpolation:sRGB;color-interpolation-filters:linearRGB;solid-color:#000000;solid-opacity:1;fill:#000000;fill-opacity:0.28160921;fill-rule:nonzero;stroke:none;stroke-width:2;stroke-linecap:butt;stroke-linejoin:miter;stroke-miterlimit:4;stroke-dasharray:none;stroke-dashoffset:0;stroke-opacity:1;color-rendering:auto;image-rendering:auto;shape-rendering:auto;text-rendering:auto;enable-background:accumulate"
       d="m 87.88672,-0.99609375 0,1 -0.99805,0 c -0.002,6.64840125 0,13.30141975 0,19.94921875 -0.076,11.778941 0.32142,23.575508 1.38867,35.320313 l 0.002,0.0059 0,0.0039 c 0.55065,5.424332 1.15722,10.924042 2.60157,16.292969 l 0.004,0.01172 0.004,0.01172 c 1.56214,5.295319 3.56048,10.511795 6.31836,15.357422 3.52305,6.218897 8.20427,11.696809 13.4121,16.498051 3.14416,2.88952 6.43864,5.68023 10.08789,8.02734 4.97609,3.23833 10.38033,5.75355 15.95703,7.69336 l 0.004,0.002 0.004,0.002 c 4.67491,1.58927 9.49474,2.85547 14.42773,3.52343 l 1.13477,0.1543 -0.002,-1.14453 c -0.006,-6.06201 -0.003,-12.12645 0,-18.18945 l 0.002,-0.86524 -0.85743,-0.125 c -2.40592,-0.34871 -4.782,-0.93172 -7.11328,-1.67773 -8.36228,-2.680689 -16.0715,-7.34213 -22.42969,-13.406253 l 0,-0.002 C 115.17713,81.109934 110.05214,73.22917 106.49414,64.734375 l -0.002,-0.0039 0,-0.002 c -3.74126,-8.752889 -5.43591,-18.27318 -6.63867,-27.78711 l 0,-0.0059 C 98.38588,24.705082 97.96569,12.354692 98.06445,0.01367188 l 0.008,-1.00585938 -1.00586,-0.001953 c -3.06027,-0.00901 -6.12056,-0.003953 -9.17968,-0.001953 z m 1.00195,1.99999995 c 2.40006,-0.00208 4.7977,-0.00276 7.19336,0.00195 -0.0687,12.0646058 0.34356,24.1631018 1.78516,36.1738288 l 0.002,0.002 0,0.0039 c 1.21119,9.582161 2.92121,19.292773 6.7832,28.328125 3.65191,8.71706 8.91908,16.82956 15.80274,23.382812 6.57161,6.267377 14.53598,11.086119 23.19922,13.863288 2.13987,0.68475 4.34685,1.17707 6.57812,1.55078 -0.003,5.39653 -0.004,10.79405 0,16.1914 -4.37562,-0.67867 -8.69415,-1.78195 -12.91015,-3.21484 l -0.008,-0.002 c -5.44724,-1.89536 -10.7048,-4.3454 -15.52148,-7.48047 l -0.002,-0.002 -0.002,-0.002 c -3.50199,-2.2524 -6.71124,-4.96461 -9.81445,-7.8164 l -0.002,-0.002 C 106.8837,97.290477 102.34367,91.966429 98.94727,85.970703 l 0,-0.002 -0.002,0 c -2.65677,-4.668015 -4.60516,-9.737695 -6.13668,-14.927687 -7.5e-4,-0.0026 -10e-4,-0.0052 -0.002,-0.0078 C 91.41943,65.867228 90.81807,60.485594 90.26953,55.082031 89.20962,43.413982 88.81287,31.682846 88.88867,19.958984 l 0,-0.002 0,-0.0039 c 0,-6.314944 -0.002,-12.6343651 0,-18.9492188 z"
       id="path4199"
       inkscape:connector-curvature="0" /><path
       style="color:#000000;font-style:normal;font-variant:normal;font-weight:normal;font-stretch:normal;font-size:medium;line-height:normal;font-family:sans-serif;text-indent:0;text-align:start;text-decoration:none;text-decoration-line:none;text-decoration-style:solid;text-decoration-color:#000000;letter-spacing:normal;word-spacing:normal;text-transform:none;direction:ltr;block-progression:tb;writing-mode:lr-tb;baseline-shift:baseline;text-anchor:start;white-space:normal;clip-rule:nonzero;display:inline;overflow:visible;visibility:visible;opacity:1;isolation:auto;mix-blend-mode:normal;color-interpolation:sRGB;color-interpolation-filters:linearRGB;solid-color:#000000;solid-opacity:1;fill:#000000;fill-opacity:0.28160921;fill-rule:nonzero;stroke:none;stroke-width:2;stroke-linecap:butt;stroke-linejoin:miter;stroke-miterlimit:4;stroke-dasharray:none;stroke-dashoffset:0;stroke-opacity:1;color-rendering:auto;image-rendering:auto;shape-rendering:auto;text-rendering:auto;enable-background:accumulate"
       d="m 85.10938,-1 -1.00196,0.001953 c -5.65982,0.011989 -11.3278,-0.0204772 -16.99804,0.0175781 l 0.008,1 -1.00196,0.0019531 c 0.02,27.6400838 0.004,55.2733888 0.0117,82.9160158 l 0,0.002 c 0.02,12.933775 -0.0427,25.87546 0.0293,38.81836 l 0.006,1.00391 1.00195,-0.01 c 5.63938,-0.0509 11.29061,-0.0125 16.94727,-0.0215 l 0.99805,-0.002 0,-0.99805 c 0.002,-40.574037 0.002,-81.149487 0,-121.72852005 L 85.10938,-1 Z m -2,2.0039062 c 0.002,39.9122058 0.002,79.8211468 0,119.7285138 -4.97799,0.003 -9.96326,-0.0184 -14.95313,0.0176 -0.0636,-12.59713 -0.01,-25.203095 -0.0293,-37.8125 -0.008,-27.308666 0.007,-54.610902 -0.0117,-81.9199219 4.99119,-0.0266249 9.99016,-0.0073 14.99414,-0.013672 z"
       id="path4203"
       inkscape:connector-curvature="0" /><path
       style="color:#000000;font-style:normal;font-variant:normal;font-weight:normal;font-stretch:normal;font-size:medium;line-height:normal;font-family:sans-serif;text-indent:0;text-align:start;text-decoration:none;text-decoration-line:none;text-decoration-style:solid;text-decoration-color:#000000;letter-spacing:normal;word-spacing:normal;text-transform:none;direction:ltr;block-progression:tb;writing-mode:lr-tb;baseline-shift:baseline;text-anchor:start;white-space:normal;clip-rule:nonzero;display:inline;overflow:visible;visibility:visible;opacity:1;isolation:auto;mix-blend-mode:normal;color-interpolation:sRGB;color-interpolation-filters:linearRGB;solid-color:#000000;solid-opacity:1;fill:#000000;fill-opacity:0.28160921;fill-rule:nonzero;stroke:none;stroke-width:2;stroke-linecap:butt;stroke-linejoin:miter;stroke-miterlimit:4;stroke-dasharray:none;stroke-dashoffset:0;stroke-opacity:1;color-rendering:auto;image-rendering:auto;shape-rendering:auto;text-rendering:auto;enable-background:accumulate"
       d="M 64.400391,-1.0019531 63.398438,-1 c -3.073101,0.00799 -6.148182,-0.0022 -9.228516,0.007813 l 0.0039,1 -1,-0.00195312 c -0.01002,3.59543412 0.0183,7.18397692 -0.01758,10.76171812 l 0.002,-0.01172 C 52.913805,21.325846 52.255909,31.88756 50.679688,42.3125 49.422845,50.513191 47.576127,58.656457 44.160156,66.15625 l -0.002,0.0039 0,0.0039 C 41.246067,72.713896 37.411921,78.86866 32.615238,84.171863 27.969081,89.316876 22.449113,93.672295 16.324222,96.910144 11.149916,99.632558 5.598037,101.67557 -0.148435,102.53515 L -1,102.66406 l 0,0.86133 c 0.005,6.06445 0.005,12.13672 0,18.20117 l 0,1.15235 1.138672,-0.16016 c 4.961891,-0.69854 9.823735,-1.9562 14.537109,-3.57617 l 0,-0.002 c 8.340662,-2.8824 16.290946,-7.14304 22.970703,-13.01757 l 0.0078,-0.006 C 45.067481,99.821648 51.694861,92.309896 55.929688,83.384766 l 0,-0.002 0.002,-0.002 c 2.573783,-5.494174 4.661119,-11.304017 5.671875,-17.359375 1.454414,-8.678108 2.002579,-17.446736 2.414062,-26.167968 l 0,-0.002 0,-0.0039 c 0.250308,-6.038438 0.420696,-12.088337 0.388672,-18.148437 l 0,-0.0039 c -0.005,-7.228041 0.0091,-14.4621714 -0.0039,-21.69726513 l -0.002,-0.99999997 z M 62.402344,1 c 0.0102,6.8992446 -8.65e-4,13.801175 0.0039,20.701172 l 0,0.002 0,0.002 c 0.03188,6.016592 -0.137081,12.038285 -0.386719,18.060547 C 61.60904,48.464532 61.062118,57.151523 59.630853,65.6915 58.659609,71.510143 56.641304,77.151519 54.121088,82.531344 50.045223,91.119541 43.616275,98.431472 36.351556,104.5997 l -0.0059,0.004 -0.0078,0.006 c -6.451445,5.67731 -14.172754,9.82697 -22.314453,12.64062 -4.246983,1.45958 -8.605923,2.5632 -13.023438,3.26562 0.0039,-5.40333 0.0041,-10.81181 0,-16.21484 5.703814,-0.96856 11.182199,-2.95146 16.255859,-5.621088 l 0.002,0 c 6.341097,-3.352475 12.043941,-7.855306 16.841785,-13.168293 4.954477,-5.477936 8.893722,-11.809257 11.88086,-18.525391 l 0.0039,-0.0098 c 3.52694,-7.746904 5.401248,-16.07204 6.671875,-24.363281 l 0,-0.002 c 1.593778,-10.54106 2.254399,-21.188533 2.5,-31.810547 l 0,-0.0059 0,-0.0078 c 0.03278,-3.2692593 0.01246,-6.5274465 0.01563,-9.7792965 2.407323,-0.00468 4.81746,-0.00414 7.23046,-0.0077 z"
       id="path4207"
       inkscape:connector-curvature="0" /><path
       style="color:#000000;font-style:normal;font-variant:normal;font-weight:normal;font-stretch:normal;font-size:medium;line-height:normal;font-family:sans-serif;text-indent:0;text-align:start;text-decoration:none;text-decoration-line:none;text-decoration-style:solid;text-decoration-color:#000000;letter-spacing:normal;word-spacing:normal;text-transform:none;direction:ltr;block-progression:tb;writing-mode:lr-tb;baseline-shift:baseline;text-anchor:start;white-space:normal;clip-rule:nonzero;display:inline;overflow:visible;visibility:visible;opacity:1;isolation:auto;mix-blend-mode:normal;color-interpolation:sRGB;color-interpolation-filters:linearRGB;solid-color:#000000;solid-opacity:1;fill:#000000;fill-opacity:0.28160921;fill-rule:nonzero;stroke:none;stroke-width:2;stroke-linecap:butt;stroke-linejoin:miter;stroke-miterlimit:4;stroke-dasharray:none;stroke-dashoffset:0;stroke-opacity:1;color-rendering:auto;image-rendering:auto;shape-rendering:auto;text-rendering:auto;enable-background:accumulate"
       d="m 182.34961,95.24219 0,1 0,31.71679 536.44531,0 0,-32.71679 -536.44531,0 z m 2,2 532.44531,0 0,28.71679 -532.44531,0 0,-28.71679 z"
       id="rect4213"
       inkscape:connector-curvature="0" /></g></svg>