<?xml version="1.0" encoding="UTF-8" standalone="no"?>
<!-- Generator: Adobe Illustrator 16.0.3, SVG Export Plug-In . SVG Version: 6.00 Build 0)  -->

<svg
   xmlns:dc="http://purl.org/dc/elements/1.1/"
   xmlns:cc="http://creativecommons.org/ns#"
   xmlns:rdf="http://www.w3.org/1999/02/22-rdf-syntax-ns#"
   xmlns:svg="http://www.w3.org/2000/svg"
   xmlns="http://www.w3.org/2000/svg"
   xmlns:sodipodi="http://sodipodi.sourceforge.net/DTD/sodipodi-0.dtd"
   xmlns:inkscape="http://www.inkscape.org/namespaces/inkscape"
   version="1.1"
   id="TEXT"
   x="0px"
   y="0px"
   width="566.929px"
   height="157.78px"
   viewBox="0 -0.001 566.929 157.78"
   enable-background="new 0 -0.001 566.929 157.78"
   xml:space="preserve"
   inkscape:version="0.91 r13725"
   sodipodi:docname="logo.svg"><metadata
     id="metadata8247"><rdf:RDF><cc:Work
         rdf:about=""><dc:format>image/svg+xml</dc:format><dc:type
           rdf:resource="http://purl.org/dc/dcmitype/StillImage" /><dc:title /></cc:Work></rdf:RDF></metadata><defs
     id="defs8245" /><sodipodi:namedview
     pagecolor="#ffffff"
     bordercolor="#666666"
     borderopacity="1"
     objecttolerance="10"
     gridtolerance="10"
     guidetolerance="10"
     inkscape:pageopacity="0"
     inkscape:pageshadow="2"
     inkscape:window-width="1680"
     inkscape:window-height="975"
     id="namedview8243"
     showgrid="false"
     inkscape:zoom="2.3731132"
     inkscape:cx="244.32528"
     inkscape:cy="0.86247727"
     inkscape:window-x="-9"
     inkscape:window-y="-9"
     inkscape:window-maximized="1"
     inkscape:current-layer="layer4" /><linearGradient
     id="SVGID_1_"
     gradientUnits="userSpaceOnUse"
     x1="558.1284"
     y1="955.5977"
     x2="11.77"
     y2="955.5977"
     gradientTransform="translate(-0.1797,-875.4102)"><stop
       offset="0"
       style="stop-color:#013A67"
       id="stop7912" /><stop
       offset="1"
       style="stop-color:#6CD1FF"
       id="stop7914" /></linearGradient><linearGradient
     id="SVGID_2_"
     gradientUnits="userSpaceOnUse"
     x1="64.7095"
     y1="938.7891"
     x2="60.765"
     y2="934.8448"
     gradientTransform="translate(-0.1797,-875.4102)"><stop
       offset="0"
       style="stop-color:#08406F"
       id="stop7919" /><stop
       offset="1"
       style="stop-color:#60C5F5"
       id="stop7921" /></linearGradient><linearGradient
     id="SVGID_3_"
     gradientUnits="userSpaceOnUse"
     x1="123.2954"
     y1="1013.9102"
     x2="119.6701"
     y2="1010.2849"
     gradientTransform="translate(-0.1797,-875.4102)"><stop
       offset="0"
       style="stop-color:#08406F"
       id="stop7926" /><stop
       offset="1"
       style="stop-color:#60C5F5"
       id="stop7928" /></linearGradient><linearGradient
     id="SVGID_4_"
     gradientUnits="userSpaceOnUse"
     x1="25.7236"
     y1="994.0508"
     x2="25.7236"
     y2="989.7383"
     gradientTransform="translate(-0.1797,-875.4102)"><stop
       offset="0"
       style="stop-color:#08406F"
       id="stop7933" /><stop
       offset="1"
       style="stop-color:#60C5F5"
       id="stop7935" /></linearGradient><linearGradient
     id="SVGID_5_"
     gradientUnits="userSpaceOnUse"
     x1="121.1855"
     y1="1033.1816"
     x2="121.1855"
     y2="1028.7246"
     gradientTransform="translate(-0.1797,-875.4102)"><stop
       offset="0"
       style="stop-color:#08406F"
       id="stop7940" /><stop
       offset="1"
       style="stop-color:#60C5F5"
       id="stop7942" /></linearGradient><linearGradient
     id="SVGID_6_"
     gradientUnits="userSpaceOnUse"
     x1="427.6938"
     y1="994.0234"
     x2="427.6938"
     y2="989.5566"
     gradientTransform="translate(-0.1797,-875.4102)"><stop
       offset="0"
       style="stop-color:#08406F"
       id="stop7947" /><stop
       offset="1"
       style="stop-color:#60C5F5"
       id="stop7949" /></linearGradient><linearGradient
     id="SVGID_7_"
     gradientUnits="userSpaceOnUse"
     x1="251.0645"
     y1="994.8945"
     x2="251.0645"
     y2="990.416"
     gradientTransform="translate(-0.1797,-875.4102)"><stop
       offset="0"
       style="stop-color:#08406F"
       id="stop7954" /><stop
       offset="1"
       style="stop-color:#60C5F5"
       id="stop7956" /></linearGradient><linearGradient
     id="SVGID_8_"
     gradientUnits="userSpaceOnUse"
     x1="522.2808"
     y1="882.1875"
     x2="522.2808"
     y2="877.3242"
     gradientTransform="translate(-0.1797,-875.4102)"><stop
       offset="0"
       style="stop-color:#08406F"
       id="stop7961" /><stop
       offset="1"
       style="stop-color:#60C5F5"
       id="stop7963" /></linearGradient><linearGradient
     id="SVGID_9_"
     gradientUnits="userSpaceOnUse"
     x1="515.0132"
     y1="906.7148"
     x2="515.0132"
     y2="902.5049"
     gradientTransform="translate(-0.1797,-875.4102)"><stop
       offset="0"
       style="stop-color:#08406F"
       id="stop7968" /><stop
       offset="1"
       style="stop-color:#60C5F5"
       id="stop7970" /></linearGradient><linearGradient
     id="SVGID_10_"
     gradientUnits="userSpaceOnUse"
     x1="459.3696"
     y1="950.2305"
     x2="459.3696"
     y2="946.5117"
     gradientTransform="translate(-0.1797,-875.4102)"><stop
       offset="0"
       style="stop-color:#08406F"
       id="stop7975" /><stop
       offset="1"
       style="stop-color:#60C5F5"
       id="stop7977" /></linearGradient><linearGradient
     id="SVGID_11_"
     gradientUnits="userSpaceOnUse"
     x1="490.1606"
     y1="925.1113"
     x2="490.1606"
     y2="919.5566"
     gradientTransform="translate(-0.1797,-875.4102)"><stop
       offset="0"
       style="stop-color:#08406F"
       id="stop7982" /><stop
       offset="1"
       style="stop-color:#60C5F5"
       id="stop7984" /></linearGradient><linearGradient
     id="SVGID_12_"
     gradientUnits="userSpaceOnUse"
     x1="74.3892"
     y1="968.8252"
     x2="70.846"
     y2="965.282"
     gradientTransform="translate(-0.1797,-875.4102)"><stop
       offset="0"
       style="stop-color:#08406F"
       id="stop7989" /><stop
       offset="1"
       style="stop-color:#60C5F5"
       id="stop7991" /></linearGradient><linearGradient
     id="SVGID_13_"
     gradientUnits="userSpaceOnUse"
     x1="120.2554"
     y1="904.3691"
     x2="114.8892"
     y2="904.3691"
     gradientTransform="translate(-0.1797,-875.4102)"><stop
       offset="0"
       style="stop-color:#08406F"
       id="stop7996" /><stop
       offset="1"
       style="stop-color:#60C5F5"
       id="stop7998" /></linearGradient><linearGradient
     id="SVGID_14_"
     gradientUnits="userSpaceOnUse"
     x1="173.0811"
     y1="919.9609"
     x2="166.4209"
     y2="919.9609"
     gradientTransform="translate(-0.1797,-875.4102)"><stop
       offset="0"
       style="stop-color:#08406F"
       id="stop8003" /><stop
       offset="1"
       style="stop-color:#60C5F5"
       id="stop8005" /></linearGradient><linearGradient
     id="SVGID_15_"
     gradientUnits="userSpaceOnUse"
     x1="255.9883"
     y1="925.2158"
     x2="249.9951"
     y2="925.2158"
     gradientTransform="translate(-0.1797,-875.4102)"><stop
       offset="0"
       style="stop-color:#08406F"
       id="stop8010" /><stop
       offset="1"
       style="stop-color:#60C5F5"
       id="stop8012" /></linearGradient><linearGradient
     id="SVGID_16_"
     gradientUnits="userSpaceOnUse"
     x1="349.2769"
     y1="904.625"
     x2="343.5757"
     y2="904.625"
     gradientTransform="translate(-0.1797,-875.4102)"><stop
       offset="0"
       style="stop-color:#08406F"
       id="stop8017" /><stop
       offset="1"
       style="stop-color:#60C5F5"
       id="stop8019" /></linearGradient><linearGradient
     id="SVGID_17_"
     gradientUnits="userSpaceOnUse"
     x1="400.9604"
     y1="918.4463"
     x2="395.1636"
     y2="918.4463"
     gradientTransform="translate(-0.1797,-875.4102)"><stop
       offset="0"
       style="stop-color:#08406F"
       id="stop8024" /><stop
       offset="1"
       style="stop-color:#60C5F5"
       id="stop8026" /></linearGradient><linearGradient
     id="SVGID_18_"
     gradientUnits="userSpaceOnUse"
     x1="101.7651"
     y1="968.9385"
     x2="96.6543"
     y2="968.9385"
     gradientTransform="translate(-0.1797,-875.4102)"><stop
       offset="0"
       style="stop-color:#08406F"
       id="stop8031" /><stop
       offset="1"
       style="stop-color:#60C5F5"
       id="stop8033" /></linearGradient><linearGradient
     id="SVGID_19_"
     gradientUnits="userSpaceOnUse"
     x1="121.2485"
     y1="973.8379"
     x2="117.6964"
     y2="970.2858"
     gradientTransform="translate(-0.1797,-875.4102)"><stop
       offset="0"
       style="stop-color:#08406F"
       id="stop8038" /><stop
       offset="1"
       style="stop-color:#60C5F5"
       id="stop8040" /></linearGradient><linearGradient
     id="SVGID_20_"
     gradientUnits="userSpaceOnUse"
     x1="553.436"
     y1="892.5"
     x2="549.7673"
     y2="888.8311"
     gradientTransform="translate(-0.1797,-875.4102)"><stop
       offset="0"
       style="stop-color:#08406F"
       id="stop8045" /><stop
       offset="1"
       style="stop-color:#60C5F5"
       id="stop8047" /></linearGradient><linearGradient
     id="SVGID_21_"
     gradientUnits="userSpaceOnUse"
     x1="145.9941"
     y1="969.8789"
     x2="140.5957"
     y2="969.8789"
     gradientTransform="translate(-0.1797,-875.4102)"><stop
       offset="0"
       style="stop-color:#08406F"
       id="stop8052" /><stop
       offset="1"
       style="stop-color:#60C5F5"
       id="stop8054" /></linearGradient><linearGradient
     id="SVGID_22_"
     gradientUnits="userSpaceOnUse"
     x1="148.7769"
     y1="907.0098"
     x2="144.2891"
     y2="902.522"
     gradientTransform="translate(-0.1797,-875.4102)"><stop
       offset="0"
       style="stop-color:#08406F"
       id="stop8059" /><stop
       offset="1"
       style="stop-color:#60C5F5"
       id="stop8061" /></linearGradient><linearGradient
     id="SVGID_23_"
     gradientUnits="userSpaceOnUse"
     x1="215.8457"
     y1="922.3213"
     x2="211.688"
     y2="918.1636"
     gradientTransform="translate(-0.1797,-875.4102)"><stop
       offset="0"
       style="stop-color:#08406F"
       id="stop8066" /><stop
       offset="1"
       style="stop-color:#60C5F5"
       id="stop8068" /></linearGradient><linearGradient
     id="SVGID_24_"
     gradientUnits="userSpaceOnUse"
     x1="304.3159"
     y1="927.8105"
     x2="299.9317"
     y2="923.4263"
     gradientTransform="translate(-0.1797,-875.4102)"><stop
       offset="0"
       style="stop-color:#08406F"
       id="stop8073" /><stop
       offset="1"
       style="stop-color:#60C5F5"
       id="stop8075" /></linearGradient><linearGradient
     id="SVGID_25_"
     gradientUnits="userSpaceOnUse"
     x1="376.9712"
     y1="906.8613"
     x2="372.7633"
     y2="902.653"
     gradientTransform="translate(-0.1797,-875.4102)"><stop
       offset="0"
       style="stop-color:#08406F"
       id="stop8080" /><stop
       offset="1"
       style="stop-color:#60C5F5"
       id="stop8082" /></linearGradient><linearGradient
     id="SVGID_26_"
     gradientUnits="userSpaceOnUse"
     x1="488.7378"
     y1="935.2646"
     x2="485.2816"
     y2="931.8086"
     gradientTransform="translate(-0.1797,-875.4102)"><stop
       offset="0"
       style="stop-color:#08406F"
       id="stop8087" /><stop
       offset="1"
       style="stop-color:#60C5F5"
       id="stop8089" /></linearGradient><linearGradient
     id="SVGID_27_"
     gradientUnits="userSpaceOnUse"
     x1="499.8081"
     y1="979.377"
     x2="495.8485"
     y2="975.4175"
     gradientTransform="translate(-0.1797,-875.4102)"><stop
       offset="0"
       style="stop-color:#08406F"
       id="stop8094" /><stop
       offset="1"
       style="stop-color:#60C5F5"
       id="stop8096" /></linearGradient><linearGradient
     id="SVGID_28_"
     gradientUnits="userSpaceOnUse"
     x1="441.8374"
     y1="921.6133"
     x2="437.5547"
     y2="917.3306"
     gradientTransform="translate(-0.1797,-875.4102)"><stop
       offset="0"
       style="stop-color:#08406F"
       id="stop8101" /><stop
       offset="1"
       style="stop-color:#60C5F5"
       id="stop8103" /></linearGradient><linearGradient
     id="SVGID_29_"
     gradientUnits="userSpaceOnUse"
     x1="486.8589"
     y1="916.6494"
     x2="481.7448"
     y2="911.5353"
     gradientTransform="translate(-0.1797,-875.4102)"><stop
       offset="0"
       style="stop-color:#08406F"
       id="stop8108" /><stop
       offset="1"
       style="stop-color:#60C5F5"
       id="stop8110" /></linearGradient><linearGradient
     id="SVGID_30_"
     gradientUnits="userSpaceOnUse"
     x1="185.9771"
     y1="992.3301"
     x2="182.3352"
     y2="988.6882"
     gradientTransform="translate(-0.1797,-875.4102)"><stop
       offset="0"
       style="stop-color:#08406F"
       id="stop8115" /><stop
       offset="1"
       style="stop-color:#60C5F5"
       id="stop8117" /></linearGradient><linearGradient
     id="SVGID_31_"
     gradientUnits="userSpaceOnUse"
     x1="303.0278"
     y1="969.1396"
     x2="299.3873"
     y2="965.4991"
     gradientTransform="translate(-0.1797,-875.4102)"><stop
       offset="0"
       style="stop-color:#08406F"
       id="stop8122" /><stop
       offset="1"
       style="stop-color:#60C5F5"
       id="stop8124" /></linearGradient><linearGradient
     id="SVGID_32_"
     gradientUnits="userSpaceOnUse"
     x1="349.8892"
     y1="973.085"
     x2="346.3799"
     y2="969.5756"
     gradientTransform="translate(-0.1797,-875.4102)"><stop
       offset="0"
       style="stop-color:#08406F"
       id="stop8129" /><stop
       offset="1"
       style="stop-color:#60C5F5"
       id="stop8131" /></linearGradient><linearGradient
     id="SVGID_33_"
     gradientUnits="userSpaceOnUse"
     x1="370.8042"
     y1="993.6396"
     x2="366.3813"
     y2="989.2169"
     gradientTransform="translate(-0.1797,-875.4102)"><stop
       offset="0"
       style="stop-color:#08406F"
       id="stop8136" /><stop
       offset="1"
       style="stop-color:#60C5F5"
       id="stop8138" /></linearGradient><linearGradient
     id="SVGID_34_"
     gradientUnits="userSpaceOnUse"
     x1="229.457"
     y1="971.7686"
     x2="223.4189"
     y2="971.7686"
     gradientTransform="translate(-0.1797,-875.4102)"><stop
       offset="0"
       style="stop-color:#08406F"
       id="stop8143" /><stop
       offset="1"
       style="stop-color:#60C5F5"
       id="stop8145" /></linearGradient><linearGradient
     id="SVGID_35_"
     gradientUnits="userSpaceOnUse"
     x1="330.3042"
     y1="968.5186"
     x2="325.0923"
     y2="968.5186"
     gradientTransform="translate(-0.1797,-875.4102)"><stop
       offset="0"
       style="stop-color:#08406F"
       id="stop8150" /><stop
       offset="1"
       style="stop-color:#60C5F5"
       id="stop8152" /></linearGradient><linearGradient
     id="SVGID_36_"
     gradientUnits="userSpaceOnUse"
     x1="374.9702"
     y1="967.8066"
     x2="368.7251"
     y2="967.8066"
     gradientTransform="translate(-0.1797,-875.4102)"><stop
       offset="0"
       style="stop-color:#08406F"
       id="stop8157" /><stop
       offset="1"
       style="stop-color:#60C5F5"
       id="stop8159" /></linearGradient><linearGradient
     id="SVGID_37_"
     gradientUnits="userSpaceOnUse"
     x1="440.6372"
     y1="959.6748"
     x2="436.2191"
     y2="955.2568"
     gradientTransform="translate(-0.1797,-875.4102)"><stop
       offset="0"
       style="stop-color:#08406F"
       id="stop8164" /><stop
       offset="1"
       style="stop-color:#60C5F5"
       id="stop8166" /></linearGradient><linearGradient
     id="SVGID_38_"
     gradientUnits="userSpaceOnUse"
     x1="472.9204"
     y1="969.5098"
     x2="472.9204"
     y2="963.708"
     gradientTransform="translate(-0.1797,-875.4102)"><stop
       offset="0"
       style="stop-color:#08406F"
       id="stop8171" /><stop
       offset="1"
       style="stop-color:#60C5F5"
       id="stop8173" /></linearGradient><g
     inkscape:groupmode="layer"
     id="layer4"
     inkscape:label="Layer 2"><rect
       style="opacity:1;fill:#6bcffd;fill-opacity:1;stroke:none;stroke-width:0.90613544;stroke-linecap:round;stroke-linejoin:bevel;stroke-miterlimit:4;stroke-dasharray:none;stroke-opacity:1"
       id="rect9189"
       width="488.72177"
       height="22.86231"
       x="0.0081634065"
       y="127.96512"
       ry="11.431155" /></g><g
     inkscape:groupmode="layer"
     id="layer3"
     inkscape:label="Layer 1"><polygon
       style="fill:url(#SVGID_1_)"
       points="406.662,79.217 396.4,79.784 396.686,9.001 355.481,51.055 345.625,52.224 345.625,9.374 261.264,92.842 250.775,93.958 251.667,8.077 177.937,82.94 168.255,82.987 167.12,11.089 127.342,51.15 116.278,51.717 116.697,8.939 11.591,114.895 46.209,114.328 91.598,70.276 100.303,70.276 99.883,114.54 136.035,77.543 144.679,77.543 144.679,115.23 104.892,154.73 143.019,154.165 218.036,78.299 228.14,78.299 228.14,115.57 274.897,115.854 320.115,70.353 328.843,69.786 328.708,112.799 364.839,76.667 373.375,76.667 373.941,113.102 373.203,114.998 482.378,114.998 503.279,93.815 435.398,92.661 434.781,82.809 445.357,71.67 470.968,71.667 493.216,49.133 479.769,48.565 479.769,39.082 491.191,27.662 536.777,27.946 557.949,5.927 479.951,5.642 "
       id="polygon7916" /><path
       inkscape:connector-curvature="0"
       style="fill:url(#SVGID_2_)"
       d="M 114.692,13.213 13.577,114.328 2.106,118.641 c 0,0 -0.604,0.039 -0.271,-0.445 0,0 117.26,-117.292 117.472,-117.471 0.212,-0.181 0.467,-0.028 0.467,-0.028 l -5.082,12.516 z"
       id="path7923" /><path
       inkscape:connector-curvature="0"
       style="fill:url(#SVGID_3_)"
       d="m 145.814,115.797 -37.518,37.521 -11.065,4.457 c 0,0 -0.576,0.065 -0.236,-0.407 l 43.929,-43.749 4.89,2.178 z"
       id="path7930" /><polygon
       style="fill:url(#SVGID_4_)"
       points="48.982,118.641 2.106,118.641 13.603,114.328 46.209,114.328 "
       id="polygon7937" /><polygon
       style="fill:url(#SVGID_5_)"
       points="144.781,157.771 97.23,157.771 108.296,153.314 142.168,153.314 "
       id="polygon7944" /><polygon
       style="fill:url(#SVGID_6_)"
       points="484.787,118.613 370.242,118.584 374.052,114.148 481.529,114.146 "
       id="polygon7951" /><path
       inkscape:connector-curvature="0"
       style="fill:url(#SVGID_7_)"
       d="m 277.053,119.484 -51.527,-0.029 c -0.333,0.005 -0.81,-0.335 -0.81,-0.335 l 4.561,-4.115 45.054,0 2.722,4.479 z"
       id="path7958" /><path
       inkscape:connector-curvature="0"
       style="fill:url(#SVGID_8_)"
       d="m 477.382,1.913 88.652,0 c 0.785,0 0.785,0.313 0.785,0.313 l -10.572,4.55 -75.164,0 -3.701,-4.863 z"
       id="path7965" /><polygon
       style="fill:url(#SVGID_9_)"
       points="539.042,31.304 492.697,31.304 490.625,27.094 535.927,27.094 "
       id="polygon7972" /><polygon
       style="fill:url(#SVGID_10_)"
       points="473.589,74.82 448.91,74.82 444.791,71.102 470.402,71.1 "
       id="polygon7979" /><path
       inkscape:connector-curvature="0"
       style="fill:url(#SVGID_11_)"
       d="m 491.8,49.7 -13.58,0 -1.193,-5.548 25.467,0 c 0.346,-0.043 0.441,0.146 0.441,0.146 L 491.8,49.7 Z"
       id="path7986" /><path
       inkscape:connector-curvature="0"
       style="fill:url(#SVGID_12_)"
       d="M 96.872,70.634 48.982,118.643 46.209,114.33 92.81,67.965 c 2,-2.313 4.675,-1.731 4.675,-1.731 l -0.613,4.4 z"
       id="path7993" /><path
       inkscape:connector-curvature="0"
       style="fill:url(#SVGID_13_)"
       d="m 114.71,51.669 0,-38.476 5.063,-12.499 c 0,0 0.303,0.075 0.303,0.571 0,0.493 0,53.647 0,53.647 l -0.315,2.311 c 0,10e-4 -4.496,0.025 -5.051,-5.554 z"
       id="path8000" /><path
       inkscape:connector-curvature="0"
       style="fill:url(#SVGID_14_)"
       d="m 172.902,88.843 c 0,0 -6.539,1.95 -6.621,-5.625 -0.08,-7.313 -0.013,-69.291 -0.013,-69.291 l 5.214,-13.896 c 0,0 0.182,-0.027 0.182,0.725 l -0.017,81.793 1.255,6.294 z"
       id="path8007" /><path
       inkscape:connector-curvature="0"
       style="fill:url(#SVGID_15_)"
       d="m 255.809,98.91 c 0,0 -5.889,0.577 -5.96,-6.088 l -0.033,-80.063 4.651,-12.071 c 0,0 0.583,0.153 0.583,0.907 l -0.016,91.14 0.775,6.175 z"
       id="path8014" /><path
       inkscape:connector-curvature="0"
       style="fill:url(#SVGID_16_)"
       d="m 349.097,57.425 c 0,0 -4.868,0.452 -5.701,-4.563 l 0,-39.723 4.393,-12.147 c 0,0 0.563,0.134 0.563,0.886 l 0,49.667 0.745,5.88 z"
       id="path8021" /><path
       inkscape:connector-curvature="0"
       style="fill:url(#SVGID_17_)"
       d="m 400.781,85.333 c 0,0 -4.938,0.643 -5.797,-4.373 l 0,-67.706 4.85,-12.544 c 0,0 0.268,0.221 0.268,1.708 l 0,77.226 0.679,5.689 z"
       id="path8028" /><path
       inkscape:connector-curvature="0"
       style="fill:url(#SVGID_18_)"
       d="m 97.759,120.82 c 0,0 -0.833,-0.069 -0.809,-1.149 -0.001,-0.917 -0.078,-49.036 -0.078,-49.036 0,0 -1.218,-1.577 0.613,-4.4 0.547,0.131 3.495,0.727 4.101,4.256 l 0,40.37 -3.827,9.959 z"
       id="path8035" /><path
       inkscape:connector-curvature="0"
       style="fill:url(#SVGID_19_)"
       d="m 140.843,78.598 c 0,0 -41.489,41.548 -41.883,41.938 -0.346,0.379 -1.202,0.282 -1.202,0.282 l 3.827,-9.963 36.059,-36.088 c 0,0 1.34,-1.727 3.831,-1.637 l -0.632,5.468 z"
       id="path8042" /><path
       inkscape:connector-curvature="0"
       style="fill:url(#SVGID_20_)"
       d="M 566.609,3.639 539.043,31.304 535.928,27.093 556.24,6.769 566.822,2.227 c 0,0.001 0.349,0.847 -0.213,1.412 z"
       id="path8049" /><path
       inkscape:connector-curvature="0"
       style="fill:url(#SVGID_21_)"
       d="m 140.924,113.616 -0.079,-35.025 c 0,0 -1.301,-2.633 0.631,-5.456 0.593,-0.007 3.7,0.421 4.339,4.146 l -0.001,38.52 -4.89,-2.185 z"
       id="path8056" /><path
       inkscape:connector-curvature="0"
       style="fill:url(#SVGID_22_)"
       d="m 166.269,13.926 -41.462,41.463 c -1.987,1.986 -5.045,1.836 -5.045,1.836 -1.795,-3.531 0.315,-6.065 0.315,-6.065 0,0 50.503,-50.49 50.867,-50.87 0.331,-0.417 0.541,-0.264 0.541,-0.264 l -5.216,13.9 z"
       id="path8063" /><path
       inkscape:connector-curvature="0"
       style="fill:url(#SVGID_23_)"
       d="m 249.815,12.762 -74.376,74.375 c -1.55,1.551 -2.537,1.703 -2.537,1.703 -3.781,-1.878 -1.213,-6.255 -1.213,-6.255 0,0 80.652,-80.635 81.016,-81.015 0.943,-1.093 1.761,-0.883 1.761,-0.883 l -4.651,12.075 z"
       id="path8070" /><path
       inkscape:connector-curvature="0"
       style="fill:url(#SVGID_24_)"
       d="M 343.396,13.139 259.233,97.3 c -1.429,1.432 -3.424,1.608 -3.424,1.608 -3.115,-1.556 -0.776,-6.175 -0.776,-6.175 0,0 90.61,-90.5 90.974,-90.881 0.941,-1.098 1.781,-0.862 1.781,-0.862 l -4.392,12.149 z"
       id="path8077" /><path
       inkscape:connector-curvature="0"
       style="fill:url(#SVGID_25_)"
       d="m 394.984,13.254 -42.513,42.514 c -1.429,1.432 -3.374,1.657 -3.374,1.657 -2.932,-1.908 -0.588,-5.983 -0.588,-5.983 0,0 49.584,-49.69 49.947,-50.07 1.047,-1.033 1.377,-0.66 1.377,-0.66 l -4.849,12.542 z"
       id="path8084" /><path
       inkscape:connector-curvature="0"
       style="fill:url(#SVGID_26_)"
       d="M 502.958,45.453 473.589,74.82 470.401,71.098 491.8,49.7 502.935,44.299 c 0,0 0.414,0.294 0.023,1.154 z"
       id="path8091" /><path
       inkscape:connector-curvature="0"
       style="fill:url(#SVGID_27_)"
       d="m 513.634,89.96 -28.848,28.651 -3.258,-4.465 20.049,-20.049 12.289,-5.38 c 10e-4,0.003 0.397,0.435 -0.232,1.243 z"
       id="path8098" /><path
       inkscape:connector-curvature="0"
       style="fill:url(#SVGID_28_)"
       d="M 481.083,6.777 404.171,83.69 c -1.43,1.432 -3.395,1.644 -3.395,1.644 -2.449,-3.092 -0.686,-5.979 -0.686,-5.979 l 77.289,-77.44 3.704,4.862 z"
       id="path8105" /><path
       inkscape:connector-curvature="0"
       style="fill:url(#SVGID_29_)"
       d="M 492.697,31.304 480.021,44.09 c -2.771,2.282 -1.801,5.608 -1.801,5.608 -2.25,-0.21 -3.125,-2.065 -3.412,-3.695 -0.285,-1.63 0.303,-3.422 1.348,-4.467 l 14.469,-14.44 2.072,4.208 z"
       id="path8112" /><path
       inkscape:connector-curvature="0"
       style="fill:url(#SVGID_30_)"
       d="m 142.17,153.316 77.913,-77.943 c 0,0 1.437,-1.873 4.267,-1.771 l -0.456,5.223 c 0,0 -78.666,78.506 -79.113,78.948 l -2.611,-4.457 z"
       id="path8119" /><path
       inkscape:connector-curvature="0"
       style="fill:url(#SVGID_31_)"
       d="m 274.33,115.004 47.643,-47.659 c 0,0 1.437,-1.871 4.267,-1.771 l -0.857,5.621 -48.325,48.29 -2.728,-4.481 z"
       id="path8126" /><path
       inkscape:connector-curvature="0"
       style="fill:url(#SVGID_32_)"
       d="m 330.125,110.25 36.779,-36.789 c 0.842,-0.843 1.779,-1.771 3.396,-1.771 l -0.107,5.501 -43.081,43.043 c -0.569,0.563 -1.019,0.399 -1.019,0.399 l 4.032,-10.383 z"
       id="path8133" /><path
       inkscape:connector-curvature="0"
       style="fill:url(#SVGID_33_)"
       d="m 361.984,118.057 7.25,-7.281 5.557,2.326 -0.734,1.047 -3.813,4.437 -0.272,0.3 -7.72,0 c -0.34,0.014 -0.521,-0.271 -0.521,-0.271 0,0 -0.155,-0.147 0.253,-0.558 z"
       id="path8140" /><path
       inkscape:connector-curvature="0"
       style="fill:url(#SVGID_34_)"
       d="m 223.983,117.338 -0.09,-38.515 c 0,0 -1.738,-2.016 0.457,-5.223 0.673,-0.01 4.202,0.478 4.928,4.707 l -0.001,36.694 -4.561,4.115 c 0,0.003 -0.73,-0.475 -0.733,-1.778 z"
       id="path8147" /><path
       inkscape:connector-curvature="0"
       style="fill:url(#SVGID_35_)"
       d="m 325.449,119.945 -0.08,-48.75 c 0,0 -1.472,-2.681 0.871,-5.621 0.596,-0.009 3.243,0.472 3.885,4.702 l 0,39.975 -4.028,10.39 c -0.004,-0.002 -0.605,-0.143 -0.648,-0.696 z"
       id="path8154" /><path
       inkscape:connector-curvature="0"
       style="fill:url(#SVGID_36_)"
       d="m 369.234,110.775 0,-32.629 c 0,0 -2.113,-3.379 1.064,-6.456 0.693,-0.008 4.132,0.24 4.492,4.323 l 0,37.088 -5.556,-2.326 z"
       id="path8161" /><path
       inkscape:connector-curvature="0"
       style="fill:url(#SVGID_37_)"
       d="m 448.91,74.82 -13.451,13.479 -3.844,4.809 c -3.896,-2.458 -1.953,-6.874 -0.912,-7.925 l 14.088,-14.079 4.119,3.716 z"
       id="path8168" /><path
       inkscape:connector-curvature="0"
       style="fill:url(#SVGID_38_)"
       d="m 501.58,94.098 -66.391,0 c -2.502,-0.196 -3.574,-0.992 -3.574,-0.992 -0.012,-3.571 3.844,-4.809 3.844,-4.809 l 77.746,0.001 c 0.543,-0.001 0.662,0.422 0.662,0.422 l -12.287,5.378 z"
       id="path8175" /><g
       id="g5955"><path
         inkscape:connector-curvature="0"
         d="m 7.3965572,144.17827 0,-9.84253 2.9742428,0 1.78589,6.71387 1.765747,-6.71387 2.980957,0 0,9.84253 -1.846314,0 0,-7.7478 -1.953735,7.7478 -1.913453,0 -1.9470213,-7.7478 0,7.7478 -1.8463135,0 z"
         style="font-style:normal;font-variant:normal;font-weight:bold;font-stretch:normal;font-size:13.75px;line-height:125%;font-family:Arial;-inkscape-font-specification:'Arial Bold';letter-spacing:4.26000023px;word-spacing:0px;fill:#000000;fill-opacity:1;stroke:none;stroke-width:1px;stroke-linecap:butt;stroke-linejoin:miter;stroke-opacity:1"
         id="path10173" /><path
         inkscape:connector-curvature="0"
         d="m 23.137271,134.33574 1.987305,0 0,5.33081 q 0,1.26892 0.07385,1.6449 0.127564,0.60425 0.604248,0.97351 0.483399,0.36255 1.315918,0.36255 0.845947,0 1.275635,-0.34241 0.429687,-0.34912 0.516968,-0.85266 0.08728,-0.50354 0.08728,-1.67175 l 0,-5.44495 1.987305,0 0,5.16968 q 0,1.77246 -0.161133,2.50427 -0.161133,0.73181 -0.597534,1.23535 -0.429688,0.50354 -1.154785,0.80566 -0.725098,0.29542 -1.893311,0.29542 -1.409912,0 -2.141724,-0.32227 -0.725097,-0.32898 -1.148071,-0.84595 -0.422974,-0.52368 -0.557251,-1.09436 -0.194702,-0.84595 -0.194702,-2.49756 l 0,-5.25024 z"
         style="font-style:normal;font-variant:normal;font-weight:bold;font-stretch:normal;font-size:13.75px;line-height:125%;font-family:Arial;-inkscape-font-specification:'Arial Bold';letter-spacing:4.26000023px;word-spacing:0px;fill:#000000;fill-opacity:1;stroke:none;stroke-width:1px;stroke-linecap:butt;stroke-linejoin:miter;stroke-opacity:1"
         id="path10175" /><path
         inkscape:connector-curvature="0"
         d="m 37.400933,144.17827 0,-9.76196 1.987305,0 0,8.10363 4.941406,0 0,1.65833 -6.928711,0 z"
         style="font-style:normal;font-variant:normal;font-weight:bold;font-stretch:normal;font-size:13.75px;line-height:125%;font-family:Arial;-inkscape-font-specification:'Arial Bold';letter-spacing:4.26000023px;word-spacing:0px;fill:#000000;fill-opacity:1;stroke:none;stroke-width:1px;stroke-linecap:butt;stroke-linejoin:miter;stroke-opacity:1"
         id="path10177" /><path
         inkscape:connector-curvature="0"
         d="m 51.208051,144.17827 0,-8.17749 -2.920533,0 0,-1.66504 7.821656,0 0,1.66504 -2.913819,0 0,8.17749 -1.987304,0 z"
         style="font-style:normal;font-variant:normal;font-weight:bold;font-stretch:normal;font-size:13.75px;line-height:125%;font-family:Arial;-inkscape-font-specification:'Arial Bold';letter-spacing:4.26000023px;word-spacing:0px;fill:#000000;fill-opacity:1;stroke:none;stroke-width:1px;stroke-linecap:butt;stroke-linejoin:miter;stroke-opacity:1"
         id="path10179" /><path
         inkscape:connector-curvature="0"
         d="m 61.570958,144.17827 0,-9.84253 1.987305,0 0,9.84253 -1.987305,0 z"
         style="font-style:normal;font-variant:normal;font-weight:bold;font-stretch:normal;font-size:13.75px;line-height:125%;font-family:Arial;-inkscape-font-specification:'Arial Bold';letter-spacing:4.26000023px;word-spacing:0px;fill:#000000;fill-opacity:1;stroke:none;stroke-width:1px;stroke-linecap:butt;stroke-linejoin:miter;stroke-opacity:1"
         id="path10181" /><path
         inkscape:connector-curvature="0"
         d="m 69.704862,144.17827 0,-9.84253 3.189087,0 q 1.812744,0 2.363281,0.1477 0.845947,0.22156 1.416626,0.9668 0.570678,0.73853 0.570678,1.91345 0,0.90638 -0.328979,1.52405 -0.32898,0.61768 -0.839233,0.97351 -0.50354,0.34912 -1.027222,0.46326 -0.71167,0.14099 -2.061157,0.14099 l -1.295777,0 0,3.71277 -1.987304,0 z m 1.987304,-8.17749 0,2.79297 1.087647,0 q 1.174927,0 1.571045,-0.15442 0.396118,-0.15442 0.617675,-0.4834 0.228272,-0.32898 0.228272,-0.76538 0,-0.53711 -0.315552,-0.88623 -0.315552,-0.34912 -0.79895,-0.4364 -0.355835,-0.0671 -1.430054,-0.0671 l -0.960083,0 z"
         style="font-style:normal;font-variant:normal;font-weight:bold;font-stretch:normal;font-size:13.75px;line-height:125%;font-family:Arial;-inkscape-font-specification:'Arial Bold';letter-spacing:4.26000023px;word-spacing:0px;fill:#000000;fill-opacity:1;stroke:none;stroke-width:1px;stroke-linecap:butt;stroke-linejoin:miter;stroke-opacity:1"
         id="path10183" /><path
         inkscape:connector-curvature="0"
         d="m 83.203137,144.17827 0,-9.76196 1.987305,0 0,8.10363 4.941406,0 0,1.65833 -6.928711,0 z"
         style="font-style:normal;font-variant:normal;font-weight:bold;font-stretch:normal;font-size:13.75px;line-height:125%;font-family:Arial;-inkscape-font-specification:'Arial Bold';letter-spacing:4.26000023px;word-spacing:0px;fill:#000000;fill-opacity:1;stroke:none;stroke-width:1px;stroke-linecap:butt;stroke-linejoin:miter;stroke-opacity:1"
         id="path10185" /><path
         inkscape:connector-curvature="0"
         d="m 95.81519,144.17827 0,-9.84253 7.298,0 0,1.66504 -5.310695,0 0,2.18201 4.941435,0 0,1.65832 -4.941435,0 0,2.67883 5.498685,0 0,1.65833 -7.48599,0 z"
         style="font-style:normal;font-variant:normal;font-weight:bold;font-stretch:normal;font-size:13.75px;line-height:125%;font-family:Arial;-inkscape-font-specification:'Arial Bold';letter-spacing:4.26000023px;word-spacing:0px;fill:#000000;fill-opacity:1;stroke:none;stroke-width:1px;stroke-linecap:butt;stroke-linejoin:miter;stroke-opacity:1"
         id="path10187" /><path
         inkscape:connector-curvature="0"
         d="m 188.49873,144.17827 -2.16186,0 -0.85938,-2.23572 -3.93433,0 -0.81237,2.23572 -2.10816,0 3.83362,-9.84253 2.10144,0 3.94104,9.84253 z m -3.65906,-3.89404 -1.3562,-3.65235 -1.32934,3.65235 2.68554,0 z"
         style="font-style:normal;font-variant:normal;font-weight:bold;font-stretch:normal;font-size:13.75px;line-height:125%;font-family:Arial;-inkscape-font-specification:'Arial Bold';letter-spacing:4.26000023px;word-spacing:0px;fill:#000000;fill-opacity:1;stroke:none;stroke-width:1px;stroke-linecap:butt;stroke-linejoin:miter;stroke-opacity:1"
         id="path10189" /><path
         inkscape:connector-curvature="0"
         d="m 193.8531,144.17827 0,-9.84253 4.18274,0 q 1.57776,0 2.28943,0.26855 0.71838,0.26184 1.14807,0.93995 0.42969,0.6781 0.42969,1.5509 0,1.10779 -0.65125,1.83288 -0.65124,0.71839 -1.94702,0.90638 0.64453,0.37597 1.06079,0.8258 0.42298,0.44983 1.13465,1.5979 l 1.20178,1.92017 -2.37671,0 -1.43677,-2.14173 q -0.76538,-1.14807 -1.04736,-1.44348 -0.28198,-0.30212 -0.59754,-0.40954 -0.31555,-0.11414 -1.00036,-0.11414 l -0.40283,0 0,4.10889 -1.98731,0 z m 1.98731,-5.67993 1.47033,0 q 1.43006,0 1.78589,-0.12085 0.35584,-0.12085 0.55725,-0.41626 0.20142,-0.29541 0.20142,-0.73853 0,-0.49682 -0.26856,-0.79895 -0.26184,-0.30884 -0.74524,-0.3894 -0.2417,-0.0336 -1.45019,-0.0336 l -1.5509,0 0,2.49756 z"
         style="font-style:normal;font-variant:normal;font-weight:bold;font-stretch:normal;font-size:13.75px;line-height:125%;font-family:Arial;-inkscape-font-specification:'Arial Bold';letter-spacing:4.26000023px;word-spacing:0px;fill:#000000;fill-opacity:1;stroke:none;stroke-width:1px;stroke-linecap:butt;stroke-linejoin:miter;stroke-opacity:1"
         id="path10191" /><path
         inkscape:connector-curvature="0"
         d="m 214.34051,140.55949 1.92688,0.61097 q -0.44311,1.61132 -1.47705,2.39685 -1.02722,0.77881 -2.61169,0.77881 -1.96045,0 -3.22266,-1.33606 -1.26221,-1.34278 -1.26221,-3.66578 0,-2.45727 1.26892,-3.81347 1.26893,-1.36292 3.3368,-1.36292 1.80603,0 2.93396,1.06751 0.67138,0.6311 1.00708,1.81274 l -1.96717,0.46997 q -0.17456,-0.76538 -0.73181,-1.20849 -0.55054,-0.44312 -1.34277,-0.44312 -1.09436,0 -1.77918,0.78552 -0.6781,0.78553 -0.6781,2.54456 0,1.86645 0.67139,2.65869 0.67139,0.79224 1.74561,0.79224 0.79223,0 1.36291,-0.50354 0.57068,-0.50354 0.81909,-1.58448 z"
         style="font-style:normal;font-variant:normal;font-weight:bold;font-stretch:normal;font-size:13.75px;line-height:125%;font-family:Arial;-inkscape-font-specification:'Arial Bold';letter-spacing:4.26000023px;word-spacing:0px;fill:#000000;fill-opacity:1;stroke:none;stroke-width:1px;stroke-linecap:butt;stroke-linejoin:miter;stroke-opacity:1"
         id="path10193" /><path
         inkscape:connector-curvature="0"
         d="m 231.11517,144.17827 -2.16186,0 -0.85938,-2.23572 -3.93433,0 -0.81237,2.23572 -2.10816,0 3.83362,-9.84253 2.10144,0 3.94104,9.84253 z m -3.65906,-3.89404 -1.3562,-3.65235 -1.32934,3.65235 2.68554,0 z"
         style="font-style:normal;font-variant:normal;font-weight:bold;font-stretch:normal;font-size:13.75px;line-height:125%;font-family:Arial;-inkscape-font-specification:'Arial Bold';letter-spacing:4.26000023px;word-spacing:0px;fill:#000000;fill-opacity:1;stroke:none;stroke-width:1px;stroke-linecap:butt;stroke-linejoin:miter;stroke-opacity:1"
         id="path10195" /><path
         inkscape:connector-curvature="0"
         d="m 236.4561,134.33574 3.6322,0 q 1.22864,0 1.87317,0.18799 0.86609,0.25512 1.48376,0.90637 0.61768,0.65124 0.93994,1.5979 0.32227,0.93994 0.32227,2.323 0,1.21521 -0.30212,2.09472 -0.36927,1.07422 -1.05408,1.7389 -0.51697,0.50354 -1.39649,0.78552 -0.65795,0.20813 -1.75903,0.20813 l -3.73962,0 0,-9.84253 z m 1.9873,1.66504 0,6.51916 1.48377,0 q 0.83252,0 1.20178,-0.094 0.4834,-0.12085 0.79895,-0.40955 0.32226,-0.28869 0.52368,-0.94665 0.20142,-0.66467 0.20142,-1.80603 0,-1.14136 -0.20142,-1.75232 -0.20142,-0.61096 -0.56396,-0.95337 -0.36255,-0.34241 -0.9198,-0.46326 -0.41626,-0.094 -1.63147,-0.094 l -0.89295,0 z"
         style="font-style:normal;font-variant:normal;font-weight:bold;font-stretch:normal;font-size:13.75px;line-height:125%;font-family:Arial;-inkscape-font-specification:'Arial Bold';letter-spacing:4.26000023px;word-spacing:0px;fill:#000000;fill-opacity:1;stroke:none;stroke-width:1px;stroke-linecap:butt;stroke-linejoin:miter;stroke-opacity:1"
         id="path10197" /><path
         inkscape:connector-curvature="0"
         d="m 250.65933,144.17827 0,-9.84253 7.29797,0 0,1.66504 -5.31067,0 0,2.18201 4.94141,0 0,1.65832 -4.94141,0 0,2.67883 5.49866,0 0,1.65833 -7.48596,0 z"
         style="font-style:normal;font-variant:normal;font-weight:bold;font-stretch:normal;font-size:13.75px;line-height:125%;font-family:Arial;-inkscape-font-specification:'Arial Bold';letter-spacing:4.26000023px;word-spacing:0px;fill:#000000;fill-opacity:1;stroke:none;stroke-width:1px;stroke-linecap:butt;stroke-linejoin:miter;stroke-opacity:1"
         id="path10199" /><path
         inkscape:connector-curvature="0"
         d="m 272.15051,144.17827 0,-9.84253 2.97424,0 1.78589,6.71387 1.76575,-6.71387 2.98096,0 0,9.84253 -1.84632,0 0,-7.7478 -1.95373,7.7478 -1.91346,0 -1.94702,-7.7478 0,7.7478 -1.84631,0 z"
         style="font-style:normal;font-variant:normal;font-weight:bold;font-stretch:normal;font-size:13.75px;line-height:125%;font-family:Arial;-inkscape-font-specification:'Arial Bold';letter-spacing:4.26000023px;word-spacing:0px;fill:#000000;fill-opacity:1;stroke:none;stroke-width:1px;stroke-linecap:butt;stroke-linejoin:miter;stroke-opacity:1"
         id="path10201" /><path
         inkscape:connector-curvature="0"
         d="m 296.78039,144.17827 -2.16186,0 -0.85938,-2.23572 -3.93432,0 -0.81238,2.23572 -2.10816,0 3.83362,-9.84253 2.10144,0 3.94104,9.84253 z m -3.65905,-3.89404 -1.35621,-3.65235 -1.32934,3.65235 2.68555,0 z"
         style="font-style:normal;font-variant:normal;font-weight:bold;font-stretch:normal;font-size:13.75px;line-height:125%;font-family:Arial;-inkscape-font-specification:'Arial Bold';letter-spacing:4.26000023px;word-spacing:0px;fill:#000000;fill-opacity:1;stroke:none;stroke-width:1px;stroke-linecap:butt;stroke-linejoin:miter;stroke-opacity:1"
         id="path10203" /><path
         inkscape:connector-curvature="0"
         d="m 308.42566,140.55949 1.92688,0.61097 q -0.44312,1.61132 -1.47705,2.39685 -1.02723,0.77881 -2.6117,0.77881 -1.96045,0 -3.22266,-1.33606 -1.2622,-1.34278 -1.2622,-3.66578 0,-2.45727 1.26892,-3.81347 1.26892,-1.36292 3.33679,-1.36292 1.80603,0 2.93396,1.06751 0.67139,0.6311 1.00708,1.81274 l -1.96716,0.46997 q -0.17456,-0.76538 -0.73181,-1.20849 -0.55054,-0.44312 -1.34278,-0.44312 -1.09436,0 -1.77917,0.78552 -0.6781,0.78553 -0.6781,2.54456 0,1.86645 0.67138,2.65869 0.67139,0.79224 1.74561,0.79224 0.79224,0 1.36291,-0.50354 0.57068,-0.50354 0.8191,-1.58448 z"
         style="font-style:normal;font-variant:normal;font-weight:bold;font-stretch:normal;font-size:13.75px;line-height:125%;font-family:Arial;-inkscape-font-specification:'Arial Bold';letter-spacing:4.26000023px;word-spacing:0px;fill:#000000;fill-opacity:1;stroke:none;stroke-width:1px;stroke-linecap:butt;stroke-linejoin:miter;stroke-opacity:1"
         id="path10205" /><path
         inkscape:connector-curvature="0"
         d="m 316.3313,144.17827 0,-9.84253 1.9873,0 0,3.8739 3.89404,0 0,-3.8739 1.98731,0 0,9.84253 -1.98731,0 0,-4.30359 -3.89404,0 0,4.30359 -1.9873,0 z"
         style="font-style:normal;font-variant:normal;font-weight:bold;font-stretch:normal;font-size:13.75px;line-height:125%;font-family:Arial;-inkscape-font-specification:'Arial Bold';letter-spacing:4.26000023px;word-spacing:0px;fill:#000000;fill-opacity:1;stroke:none;stroke-width:1px;stroke-linecap:butt;stroke-linejoin:miter;stroke-opacity:1"
         id="path10207" /><path
         inkscape:connector-curvature="0"
         d="m 330.46066,144.17827 0,-9.84253 1.9873,0 0,9.84253 -1.9873,0 z"
         style="font-style:normal;font-variant:normal;font-weight:bold;font-stretch:normal;font-size:13.75px;line-height:125%;font-family:Arial;-inkscape-font-specification:'Arial Bold';letter-spacing:4.26000023px;word-spacing:0px;fill:#000000;fill-opacity:1;stroke:none;stroke-width:1px;stroke-linecap:butt;stroke-linejoin:miter;stroke-opacity:1"
         id="path10209" /><path
         inkscape:connector-curvature="0"
         d="m 338.61471,144.17827 0,-9.84253 1.9336,0 4.02832,6.57288 0,-6.57288 1.84631,0 0,9.84253 -1.99402,0 -3.96789,-6.41846 0,6.41846 -1.84632,0 z"
         style="font-style:normal;font-variant:normal;font-weight:bold;font-stretch:normal;font-size:13.75px;line-height:125%;font-family:Arial;-inkscape-font-specification:'Arial Bold';letter-spacing:4.26000023px;word-spacing:0px;fill:#000000;fill-opacity:1;stroke:none;stroke-width:1px;stroke-linecap:butt;stroke-linejoin:miter;stroke-opacity:1"
         id="path10211" /><path
         inkscape:connector-curvature="0"
         d="m 352.7911,144.17827 0,-9.84253 7.29798,0 0,1.66504 -5.31067,0 0,2.18201 4.94141,0 0,1.65832 -4.94141,0 0,2.67883 5.49866,0 0,1.65833 -7.48597,0 z"
         style="font-style:normal;font-variant:normal;font-weight:bold;font-stretch:normal;font-size:13.75px;line-height:125%;font-family:Arial;-inkscape-font-specification:'Arial Bold';letter-spacing:4.26000023px;word-spacing:0px;fill:#000000;fill-opacity:1;stroke:none;stroke-width:1px;stroke-linecap:butt;stroke-linejoin:miter;stroke-opacity:1"
         id="path10213" /><path
         inkscape:connector-curvature="0"
         d="m 374.30914,144.17827 0,-9.84253 7.29797,0 0,1.66504 -5.31067,0 0,2.18201 4.94141,0 0,1.65832 -4.94141,0 0,2.67883 5.49866,0 0,1.65833 -7.48596,0 z"
         style="font-style:normal;font-variant:normal;font-weight:bold;font-stretch:normal;font-size:13.75px;line-height:125%;font-family:Arial;-inkscape-font-specification:'Arial Bold';letter-spacing:4.26000023px;word-spacing:0px;fill:#000000;fill-opacity:1;stroke:none;stroke-width:1px;stroke-linecap:butt;stroke-linejoin:miter;stroke-opacity:1"
         id="path10215" /><path
         inkscape:connector-curvature="0"
         d="m 387.72686,144.17827 0,-9.84253 2.97425,0 1.78589,6.71387 1.76574,-6.71387 2.98096,0 0,9.84253 -1.84631,0 0,-7.7478 -1.95374,7.7478 -1.91345,0 -1.94702,-7.7478 0,7.7478 -1.84632,0 z"
         style="font-style:normal;font-variant:normal;font-weight:bold;font-stretch:normal;font-size:13.75px;line-height:125%;font-family:Arial;-inkscape-font-specification:'Arial Bold';letter-spacing:4.26000023px;word-spacing:0px;fill:#000000;fill-opacity:1;stroke:none;stroke-width:1px;stroke-linecap:butt;stroke-linejoin:miter;stroke-opacity:1"
         id="path10217" /><path
         inkscape:connector-curvature="0"
         d="m 403.46756,134.33574 1.9873,0 0,5.33081 q 0,1.26892 0.0738,1.6449 0.12757,0.60425 0.60425,0.97351 0.4834,0.36255 1.31592,0.36255 0.84595,0 1.27563,-0.34241 0.42969,-0.34912 0.51697,-0.85266 0.0873,-0.50354 0.0873,-1.67175 l 0,-5.44495 1.98731,0 0,5.16968 q 0,1.77246 -0.16114,2.50427 -0.16113,0.73181 -0.59753,1.23535 -0.42969,0.50354 -1.15478,0.80566 -0.7251,0.29542 -1.89331,0.29542 -1.40992,0 -2.14173,-0.32227 -0.7251,-0.32898 -1.14807,-0.84595 -0.42297,-0.52368 -0.55725,-1.09436 -0.1947,-0.84595 -0.1947,-2.49756 l 0,-5.25024 z"
         style="font-style:normal;font-variant:normal;font-weight:bold;font-stretch:normal;font-size:13.75px;line-height:125%;font-family:Arial;-inkscape-font-specification:'Arial Bold';letter-spacing:4.26000023px;word-spacing:0px;fill:#000000;fill-opacity:1;stroke:none;stroke-width:1px;stroke-linecap:butt;stroke-linejoin:miter;stroke-opacity:1"
         id="path10219" /><path
         inkscape:connector-curvature="0"
         d="m 417.73123,144.17827 0,-9.76196 1.9873,0 0,8.10363 4.94141,0 0,1.65833 -6.92871,0 z"
         style="font-style:normal;font-variant:normal;font-weight:bold;font-stretch:normal;font-size:13.75px;line-height:125%;font-family:Arial;-inkscape-font-specification:'Arial Bold';letter-spacing:4.26000023px;word-spacing:0px;fill:#000000;fill-opacity:1;stroke:none;stroke-width:1px;stroke-linecap:butt;stroke-linejoin:miter;stroke-opacity:1"
         id="path10221" /><path
         inkscape:connector-curvature="0"
         d="m 439.21902,144.17827 -2.16186,0 -0.85938,-2.23572 -3.93432,0 -0.81238,2.23572 -2.10816,0 3.83362,-9.84253 2.10144,0 3.94104,9.84253 z m -3.65906,-3.89404 -1.3562,-3.65235 -1.32934,3.65235 2.68554,0 z"
         style="font-style:normal;font-variant:normal;font-weight:bold;font-stretch:normal;font-size:13.75px;line-height:125%;font-family:Arial;-inkscape-font-specification:'Arial Bold';letter-spacing:4.26000023px;word-spacing:0px;fill:#000000;fill-opacity:1;stroke:none;stroke-width:1px;stroke-linecap:butt;stroke-linejoin:miter;stroke-opacity:1"
         id="path10223" /><path
         inkscape:connector-curvature="0"
         d="m 445.76172,144.17827 0,-8.17749 -2.92054,0 0,-1.66504 7.82166,0 0,1.66504 -2.91382,0 0,8.17749 -1.9873,0 z"
         style="font-style:normal;font-variant:normal;font-weight:bold;font-stretch:normal;font-size:13.75px;line-height:125%;font-family:Arial;-inkscape-font-specification:'Arial Bold';letter-spacing:4.26000023px;word-spacing:0px;fill:#000000;fill-opacity:1;stroke:none;stroke-width:1px;stroke-linecap:butt;stroke-linejoin:miter;stroke-opacity:1"
         id="path10225" /><path
         inkscape:connector-curvature="0"
         d="m 455.54052,139.31743 q 0,-1.50391 0.44983,-2.52442 0.3357,-0.75195 0.91309,-1.34948 0.58411,-0.59754 1.27563,-0.88623 0.9198,-0.38941 2.12159,-0.38941 2.17529,0 3.47778,1.34949 1.3092,1.34949 1.3092,3.75305 0,2.38342 -1.29577,3.73291 -1.29578,1.34278 -3.46436,1.34278 -2.19543,0 -3.49121,-1.33606 -1.29578,-1.34278 -1.29578,-3.69263 z m 2.04773,-0.0671 q 0,1.67175 0.7721,2.53784 0.77209,0.85938 1.96045,0.85938 1.18835,0 1.94702,-0.85266 0.76538,-0.85938 0.76538,-2.57142 0,-1.69189 -0.74524,-2.52441 -0.73852,-0.83252 -1.96716,-0.83252 -1.22864,0 -1.98059,0.84595 -0.75196,0.83923 -0.75196,2.53784 z"
         style="font-style:normal;font-variant:normal;font-weight:bold;font-stretch:normal;font-size:13.75px;line-height:125%;font-family:Arial;-inkscape-font-specification:'Arial Bold';letter-spacing:4.26000023px;word-spacing:0px;fill:#000000;fill-opacity:1;stroke:none;stroke-width:1px;stroke-linecap:butt;stroke-linejoin:miter;stroke-opacity:1"
         id="path10227" /><path
         inkscape:connector-curvature="0"
         d="m 470.89856,144.17827 0,-9.84253 4.18274,0 q 1.57775,0 2.28942,0.26855 0.71839,0.26184 1.14808,0.93995 0.42968,0.6781 0.42968,1.5509 0,1.10779 -0.65124,1.83288 -0.65125,0.71839 -1.94702,0.90638 0.64453,0.37597 1.06079,0.8258 0.42297,0.44983 1.13464,1.5979 l 1.20178,1.92017 -2.37671,0 -1.43676,-2.14173 q -0.76538,-1.14807 -1.04737,-1.44348 -0.28198,-0.30212 -0.59753,-0.40954 -0.31555,-0.11414 -1.00037,-0.11414 l -0.40283,0 0,4.10889 -1.9873,0 z m 1.9873,-5.67993 1.47034,0 q 1.43005,0 1.78589,-0.12085 0.35583,-0.12085 0.55725,-0.41626 0.20141,-0.29541 0.20141,-0.73853 0,-0.49682 -0.26855,-0.79895 -0.26184,-0.30884 -0.74524,-0.3894 -0.2417,-0.0336 -1.4502,-0.0336 l -1.5509,0 0,2.49756 z"
         style="font-style:normal;font-variant:normal;font-weight:bold;font-stretch:normal;font-size:13.75px;line-height:125%;font-family:Arial;-inkscape-font-specification:'Arial Bold';letter-spacing:4.26000023px;word-spacing:0px;fill:#000000;fill-opacity:1;stroke:none;stroke-width:1px;stroke-linecap:butt;stroke-linejoin:miter;stroke-opacity:1"
         id="path10229" /></g></g></svg>