<?xml version="1.0" encoding="UTF-8" standalone="no"?>
<!-- Generator: Adobe Illustrator 16.0.3, SVG Export Plug-In . SVG Version: 6.00 Build 0)  -->

<svg
   xmlns:dc="http://purl.org/dc/elements/1.1/"
   xmlns:cc="http://creativecommons.org/ns#"
   xmlns:rdf="http://www.w3.org/1999/02/22-rdf-syntax-ns#"
   xmlns:svg="http://www.w3.org/2000/svg"
   xmlns="http://www.w3.org/2000/svg"
   xmlns:sodipodi="http://sodipodi.sourceforge.net/DTD/sodipodi-0.dtd"
   xmlns:inkscape="http://www.inkscape.org/namespaces/inkscape"
   version="1.1"
   id="Ebene_1"
   x="0px"
   y="0px"
   width="408.27701"
   height="84.586998"
   viewBox="0 0 408.27702 84.586995"
   enable-background="new 0 0 566.93 124.23"
   xml:space="preserve"
   inkscape:version="0.91 r13725"
   sodipodi:docname="logoconsole.svg"><metadata
     id="metadata163"><rdf:RDF><cc:Work
         rdf:about=""><dc:format>image/svg+xml</dc:format><dc:type
           rdf:resource="http://purl.org/dc/dcmitype/StillImage" /><dc:title></dc:title></cc:Work></rdf:RDF></metadata><defs
     id="defs161" /><sodipodi:namedview
     pagecolor="#ffffff"
     bordercolor="#666666"
     borderopacity="1"
     objecttolerance="10"
     gridtolerance="10"
     guidetolerance="10"
     inkscape:pageopacity="0"
     inkscape:pageshadow="2"
     inkscape:window-width="1680"
     inkscape:window-height="975"
     id="namedview159"
     showgrid="false"
     showguides="true"
     inkscape:guide-bbox="true"
     fit-margin-top="0"
     fit-margin-left="0"
     fit-margin-right="0"
     fit-margin-bottom="0"
     inkscape:zoom="1.691279"
     inkscape:cx="231.51573"
     inkscape:cy="126.4632"
     inkscape:window-x="1671"
     inkscape:window-y="-9"
     inkscape:window-maximized="1"
     inkscape:current-layer="Ebene_1"><sodipodi:guide
       position="28.924908,-307.83416"
       orientation="1,0"
       id="guide4302" /><sodipodi:guide
       position="223.45225,-255.21127"
       orientation="1,0"
       id="guide4304" /><sodipodi:guide
       position="66.7661,102.50617"
       orientation="1,0"
       id="guide4405" /><sodipodi:guide
       position="362.40035,114.33154"
       orientation="1,0"
       id="guide4407" /></sodipodi:namedview><g
     id="underneath_1_"
     transform="translate(-136.039,-16.209)" /><g
     id="BOTTOM_LEFT_LINE"
     transform="translate(-136.039,-16.209)" /><g
     id="g136"
     transform="translate(-136.039,-16.209)"
     style="fill:#8b8a83;fill-opacity:1"><path
       inkscape:connector-curvature="0"
       d="m 373.52,21.158 0,-4.949 -14.143,0 c -1.816,0 -3.533,0.404 -5.054,1.11 -1.513,0.71 -2.726,1.718 -3.634,2.932 -0.908,1.209 -1.314,2.529 -1.416,4.04 l 0,15.252 c 0.1,1.417 0.508,2.729 1.313,3.944 0.912,1.21 2.121,2.116 3.537,2.924 1.516,0.71 3.127,1.115 5.053,1.115 l 14.34,0 0,-4.949 -13.739,0 c -1.11,0 -2.118,-0.306 -3.022,-0.911 -0.815,-0.604 -1.318,-1.312 -1.318,-2.319 l 0,-5.657 18.082,0 0,-5.053 -18.082,0 0,-4.142 c 0,-1.013 0.503,-1.817 1.318,-2.427 0.904,-0.606 1.912,-0.91 3.022,-0.91 l 13.739,0"
       id="path23497"
       style="fill:#8b8a83;fill-opacity:1" /><path
       inkscape:connector-curvature="0"
       d="m 457.952,16.21 0,31.317 15.102,0 c 1.916,-0.098 3.625,-0.405 5.139,-1.107 1.609,-0.804 2.818,-1.712 3.723,-2.921 0.908,-1.203 1.307,-2.615 1.408,-4.127 l 0,-15.106 c -0.102,-1.507 -0.5,-2.821 -1.408,-4.028 -0.904,-1.208 -2.111,-2.213 -3.723,-2.921 -1.514,-0.705 -3.225,-1.107 -5.139,-1.107 l -15.102,0 0,0 z m 17.826,5.842 c 0.898,0.604 1.303,1.407 1.404,2.418 l 0,14.803 c -0.104,1.006 -0.506,1.812 -1.404,2.416 -0.809,0.703 -1.82,1.005 -2.928,1.005 l -8.758,0 0,-21.648 8.758,0 c 1.108,0 2.119,0.301 2.928,1.006"
       id="path23501"
       style="fill:#8b8a83;fill-opacity:1" /><path
       inkscape:connector-curvature="0"
       d="m 531.958,17.302 c -1.488,-0.692 -3.172,-0.993 -5.053,-1.093 l -5.453,0 c -1.885,0.099 -3.566,0.4 -5.057,1.093 -1.584,0.794 -2.775,1.68 -3.666,2.874 -0.895,1.186 -1.389,2.576 -1.389,4.063 l 0,15.359 c 0,1.486 0.494,2.777 1.389,3.967 0.891,1.19 2.082,2.179 3.666,2.874 1.49,0.693 3.172,1.089 5.057,1.089 l 5.453,0 c 1.881,0 3.563,-0.396 5.053,-1.089 1.584,-0.694 2.773,-1.684 3.666,-2.874 0.893,-1.191 1.387,-2.577 1.387,-3.967 l 0,-15.36 c -0.096,-1.487 -0.494,-2.877 -1.387,-4.063 -0.893,-1.194 -2.082,-2.08 -3.666,-2.873 z m -2.379,4.656 c 0.891,0.694 1.387,1.484 1.387,2.382 l 0,15.059 c 0,0.892 -0.496,1.686 -1.387,2.379 -0.793,0.597 -1.787,0.994 -2.873,0.994 l -5.055,0 c -1.094,0 -2.084,-0.396 -2.977,-0.994 -0.789,-0.694 -1.285,-1.487 -1.285,-2.379 l 0,-15.059 c 0,-0.897 0.496,-1.688 1.285,-2.382 0.893,-0.596 1.883,-0.893 2.977,-0.992 l 5.055,0 c 1.087,0.101 2.08,0.397 2.873,0.992"
       id="path23503"
       style="fill:#8b8a83;fill-opacity:1" /><path
       inkscape:connector-curvature="0"
       d="m 169.301,16.21 -6.163,0 0,20.003 -10.504,-20.003 -8.385,0 0,31.317 6.163,0 0,-24.444 12.828,24.444 6.061,0 0,-31.317"
       id="path23515"
       style="fill:#8b8a83;fill-opacity:1" /><path
       inkscape:connector-curvature="0"
       d="m 269.711,16.21 -6.163,0 0,20.003 -10.505,-20.003 -8.385,0 0,31.317 6.163,0 0,-24.444 12.828,24.444 6.062,0 0,-31.317"
       id="path23515_1_"
       style="fill:#8b8a83;fill-opacity:1" /><path
       inkscape:connector-curvature="0"
       d="m 428.299,16.21 -6.162,0 0,20.003 -10.504,-20.003 -8.387,0 0,31.317 6.163,0 0,-24.444 12.828,24.444 6.062,0 0,-31.317"
       id="path23515_2_"
       style="fill:#8b8a83;fill-opacity:1" /><path
       inkscape:connector-curvature="0"
       d="m 210.526,47.527 0,-31.317 -7.07,0 0,31.317 7.07,0 0,0"
       id="path23517"
       style="fill:#8b8a83;fill-opacity:1" /><path
       inkscape:connector-curvature="0"
       d="m 296.922,16.21 0,4.949 10.401,0 0,26.369 6.671,0 0,-26.37 10.504,0 0,-4.949 -27.578,0 0,0"
       id="path23521"
       style="fill:#8b8a83;fill-opacity:1" /></g><g
     id="g146"
     transform="translate(-136.039,-16.209)"
     style="fill:#d4d4d2;fill-opacity:1"><path
       inkscape:connector-curvature="0"
       d="m 543.92,69.03 0,-8.463 -42.717,0 0,40.229 43.113,0 0,-9.062 -31.855,0 0,-7.57 18.316,0 0,-8.457 -18.316,0 0,-6.677 31.459,0 0,0"
       id="path23505"
       style="fill:#d4d4d2;fill-opacity:1" /><path
       inkscape:connector-curvature="0"
       d="m 496.374,68.755 c 0.096,-2.785 -0.697,-4.977 -2.393,-6.274 -1.596,-1.394 -4.08,-2.09 -7.467,-2.09 l -35.148,0 0,40.325 32.658,0 c 8.563,-0.099 12.744,-2.887 12.744,-8.562 l 0,-4.883 c 0,-3.382 -1.492,-5.87 -4.582,-7.262 2.789,-1.298 4.188,-3.487 4.188,-6.576 l 0,-4.678 0,0 z m -10.854,0.2 c 0.398,0.399 0.602,0.8 0.496,1.396 l 0,3.685 c 0.104,0.495 -0.098,0.995 -0.496,1.293 l -2.795,0.495 -20.107,0 0,-7.266 20.107,0 c 1.502,0 2.496,0.199 2.795,0.397 l 0,0 z m -22.902,22.9 0,-7.867 20.211,0 c 1.496,0 2.393,0.201 2.889,0.5 0.402,0.401 0.596,0.998 0.596,1.993 l 0,2.886 c 0,0.897 -0.191,1.594 -0.596,1.891 -0.496,0.4 -1.393,0.597 -2.889,0.597 l -20.211,0"
       id="path23507"
       style="fill:#d4d4d2;fill-opacity:1" /><path
       inkscape:connector-curvature="0"
       d="m 446.614,60.458 -11.25,0 0,31.167 -24.396,0 0,-31.167 -11.248,0 0,30.271 c -0.106,2.486 0.295,4.484 0.99,5.975 0.6,1.395 1.797,2.49 3.389,3.089 1.597,0.695 3.684,0.993 6.47,0.896 l 25.093,0 c 2.789,0.097 4.977,-0.201 6.57,-0.896 1.59,-0.599 2.689,-1.694 3.389,-3.089 0.695,-1.491 0.996,-3.487 0.996,-5.975 l 0,-30.271"
       id="path23509"
       style="fill:#d4d4d2;fill-opacity:1" /><path
       inkscape:connector-curvature="0"
       d="m 394.09,64.607 c -0.705,-1.489 -1.896,-2.488 -3.388,-3.186 -1.596,-0.602 -3.784,-0.898 -6.473,-0.898 l -24.591,0 c -2.789,0 -4.881,0.298 -6.478,0.898 -1.591,0.697 -2.786,1.696 -3.382,3.186 -0.697,1.494 -1.096,3.484 -0.993,5.974 l 0,20.214 c -0.103,2.484 0.296,4.48 0.993,5.971 0.596,1.396 1.791,2.491 3.382,3.093 1.597,0.693 3.688,0.991 6.478,0.893 l 24.592,0 c 2.688,0.098 4.877,-0.199 6.473,-0.893 1.492,-0.602 2.684,-1.697 3.387,-3.093 0.597,-1.489 0.996,-3.485 0.996,-5.971 l 0,-7.371 -11.256,0.105 0,8.162 -23.893,0 0,-22.301 23.893,0 0,7.165 11.256,0 0,-5.974 c 0,-2.585 -0.399,-4.574 -0.996,-5.974"
       id="path23511"
       style="fill:#d4d4d2;fill-opacity:1" /><path
       inkscape:connector-curvature="0"
       d="m 340.461,69.03 0,-8.463 -42.718,0 0,40.229 43.116,0 0,-9.062 -31.861,0 0,-7.57 18.321,0 0,-8.457 -18.321,0 0,-6.677 31.463,0 0,0"
       id="path23513"
       style="fill:#d4d4d2;fill-opacity:1" /><path
       inkscape:connector-curvature="0"
       d="m 282.411,60.458 -17.127,28.48 -17.025,-28.48 -10.254,0 0,33.159 -20.016,-33.159 -10.056,0 -23.994,40.228 30.068,0 0,-9.061 -13.442,0 12.447,-20.013 16.828,29.072 18.519,0 0,-21.505 12.842,21.505 8.266,0 12.942,-21.505 0,21.505 10.354,0 0,-40.227 -10.354,0 0,0"
       id="path23523"
       style="fill:#d4d4d2;fill-opacity:1" /><path
       inkscape:connector-curvature="0"
       d="m 184.83,69.307 0,-8.77 -37.938,0 c -2.685,0 -4.879,0.3 -6.474,0.899 -1.59,0.696 -2.686,1.698 -3.381,3.187 -0.7,1.493 -0.998,3.483 -0.998,5.975 l 0,20.21 c 0,2.486 0.298,4.483 0.998,5.975 0.696,1.395 1.792,2.49 3.381,3.091 1.594,0.692 3.789,0.991 6.474,0.895 l 27.584,0 c 3.978,0.097 6.768,-0.599 8.458,-2.091 1.595,-1.595 2.391,-4.183 2.294,-7.868 l 0,-14.24 -26.088,0 0,8.47 15.135,0 0,6.667 -26.985,0 0,-22.4 37.54,0"
       id="path23525"
       style="fill:#d4d4d2;fill-opacity:1" /></g></svg>