<?xml version="1.0" encoding="UTF-8" standalone="no"?>
<!-- Created with Inkscape (http://www.inkscape.org/) -->

<svg
   xmlns:dc="http://purl.org/dc/elements/1.1/"
   xmlns:cc="http://creativecommons.org/ns#"
   xmlns:rdf="http://www.w3.org/1999/02/22-rdf-syntax-ns#"
   xmlns:svg="http://www.w3.org/2000/svg"
   xmlns="http://www.w3.org/2000/svg"
   xmlns:xlink="http://www.w3.org/1999/xlink"
   xmlns:sodipodi="http://sodipodi.sourceforge.net/DTD/sodipodi-0.dtd"
   xmlns:inkscape="http://www.inkscape.org/namespaces/inkscape"
   version="1.1"
   width="423.72995"
   height="154.74831"
   viewBox="0.000244 0 423.72995 154.74831"
   id="Layer_1"
   xml:space="preserve"
   inkscape:version="0.91 r13725"
   sodipodi:docname="logo.svg"><sodipodi:namedview
     pagecolor="#ffffff"
     bordercolor="#666666"
     borderopacity="1"
     objecttolerance="10"
     gridtolerance="10"
     guidetolerance="10"
     inkscape:pageopacity="0"
     inkscape:pageshadow="2"
     inkscape:window-width="1680"
     inkscape:window-height="975"
     id="namedview48"
     showgrid="false"
     inkscape:zoom="2.0400677"
     inkscape:cx="259.09104"
     inkscape:cy="116.4619"
     inkscape:window-x="1671"
     inkscape:window-y="-9"
     inkscape:window-maximized="1"
     inkscape:current-layer="layer1"
     fit-margin-top="0"
     fit-margin-left="0"
     fit-margin-right="0"
     fit-margin-bottom="0" /><metadata
     id="metadata923"><rdf:RDF><cc:Work
         rdf:about=""><dc:format>image/svg+xml</dc:format><dc:type
           rdf:resource="http://purl.org/dc/dcmitype/StillImage" /><dc:title></dc:title></cc:Work></rdf:RDF></metadata><defs
     id="defs921"><inkscape:perspective
       sodipodi:type="inkscape:persp3d"
       inkscape:vp_x="0 : 33.634675 : 1"
       inkscape:vp_y="0 : 1000 : 0"
       inkscape:vp_z="320.42954 : 33.634675 : 1"
       inkscape:persp3d-origin="160.21476 : 22.423116 : 1"
       id="perspective7246" /><linearGradient
       id="linearGradient6232"><stop
         id="stop6234"
         style="stop-color:#279e64;stop-opacity:1"
         offset="0" /><stop
         id="stop6236"
         style="stop-color:#146daf;stop-opacity:1"
         offset="1" /></linearGradient><linearGradient
       id="linearGradient6224"><stop
         id="stop6226"
         style="stop-color:#e5e975;stop-opacity:1"
         offset="0" /><stop
         id="stop6228"
         style="stop-color:#e13e28;stop-opacity:1"
         offset="1" /></linearGradient><linearGradient
       x1="766.43481"
       y1="19.913881"
       x2="766.43481"
       y2="-108.08125"
       id="linearGradient6230"
       xlink:href="#linearGradient6224"
       gradientUnits="userSpaceOnUse" /><linearGradient
       x1="699.17328"
       y1="16.676712"
       x2="699.17328"
       y2="-27.783451"
       id="linearGradient6238"
       xlink:href="#linearGradient6232"
       gradientUnits="userSpaceOnUse" /><linearGradient
       x1="699.17328"
       y1="16.676712"
       x2="699.17328"
       y2="-27.783451"
       id="linearGradient6246"
       xlink:href="#linearGradient6232"
       gradientUnits="userSpaceOnUse" /><linearGradient
       x1="766.43481"
       y1="19.913881"
       x2="766.43481"
       y2="-108.08125"
       id="linearGradient6248"
       xlink:href="#linearGradient6224"
       gradientUnits="userSpaceOnUse" /><linearGradient
       x1="699.17328"
       y1="16.676712"
       x2="699.17328"
       y2="-27.783451"
       id="linearGradient6260"
       xlink:href="#linearGradient6232"
       gradientUnits="userSpaceOnUse" /><linearGradient
       x1="766.43481"
       y1="19.913881"
       x2="766.43481"
       y2="-108.08125"
       id="linearGradient6262"
       xlink:href="#linearGradient6224"
       gradientUnits="userSpaceOnUse" /><linearGradient
       x1="699.17328"
       y1="16.676712"
       x2="699.17328"
       y2="-27.783451"
       id="linearGradient6421"
       xlink:href="#linearGradient6232"
       gradientUnits="userSpaceOnUse" /><linearGradient
       x1="766.43481"
       y1="19.913881"
       x2="766.43481"
       y2="-108.08125"
       id="linearGradient6423"
       xlink:href="#linearGradient6224"
       gradientUnits="userSpaceOnUse" /><linearGradient
       x1="699.17328"
       y1="16.676712"
       x2="699.17328"
       y2="-27.783451"
       id="linearGradient6425"
       xlink:href="#linearGradient6232"
       gradientUnits="userSpaceOnUse" /><linearGradient
       x1="766.43481"
       y1="19.913881"
       x2="766.43481"
       y2="-108.08125"
       id="linearGradient6427"
       xlink:href="#linearGradient6224"
       gradientUnits="userSpaceOnUse" /></defs><g
     inkscape:groupmode="layer"
     id="layer1"
     inkscape:label="Layer 1"
     transform="translate(-3.9358817,-13.34235)"><g
       style="fill:#e2001a;fill-opacity:1"
       id="g4242"
       transform="matrix(1.2969568,0,0,1.2969568,-132.39276,-16.814932)"><path
         d="m 178.75963,138.97858 c -0.01,-0.77748 -0.2265,-1.30105 -0.6496,-1.57072 -0.4232,-0.26965 -0.9941,-0.43893 -1.7124,-0.50782 -2.429,-0.3976 -3.8777,-1.32665 -4.3461,-2.78715 -0.4685,-1.46049 -0.6889,-3.33432 -0.6613,-5.62152 l -2.4565,-47.145201 c 0.01,-1.6986 -0.1496,-3.119726 -0.4724,-4.263382 -0.3229,-1.143528 -1.4251,-1.73796 -3.3068,-1.783297 -1.7144,0.04534 -2.9623,0.54529 -3.7437,1.49986 -0.7815,0.954699 -1.5806,2.092387 -2.3974,3.413067 l -30.2334,42.515713 -5.1019,7.18043 c -0.9999,1.53136 -2.0943,2.95642 -3.2832,4.27519 -1.1888,1.31878 -2.7084,2.12973 -4.5586,2.43284 -1.053,0.0866 -2.0411,0.29132 -2.9643,0.61412 -0.9231,0.32281 -1.4152,1.09439 -1.4762,2.31475 0.026,0.73222 0.2814,1.20461 0.7676,1.41719 0.4862,0.21258 1.0491,0.30706 1.6888,0.28344 1.7499,-0.0236 3.5174,-0.1181 5.3027,-0.28344 1.7853,-0.16534 3.5764,-0.25982 5.3735,-0.28344 1.6061,0.0197 3.2123,0.0984 4.8184,0.2362 1.6062,0.13778 3.2123,0.21651 4.8185,0.2362 0.746,0.01 1.427,-0.15157 2.0431,-0.48421 0.6161,-0.33265 0.9428,-0.89558 0.9802,-1.68882 -0.1015,-1.16699 -0.8118,-1.84584 -2.131,-2.03655 -1.3192,-0.19071 -2.6384,-0.44966 -3.9576,-0.77684 -1.3193,-0.32717 -2.0296,-1.27896 -2.1311,-2.85537 0.2362,-1.69078 1.3464,-4.09607 3.3304,-7.21587 1.9841,-3.11976 3.4249,-5.31247 4.3225,-6.57812 l 18.8958,0 c 0.1023,1.98802 0.2047,3.98783 0.3071,5.99944 0.1023,2.01164 0.1574,4.01145 0.1653,5.99944 -0.1038,2.77257 -0.8305,4.39737 -2.18,4.87443 -1.3496,0.47707 -2.6991,0.74418 -4.0486,0.80133 -1.3496,0.0572 -2.0763,0.84215 -2.18,2.35499 0.016,0.64954 0.2204,1.09832 0.6141,1.34633 0.3936,0.24801 0.8818,0.36611 1.4644,0.3543 2.6021,-0.0236 5.216,-0.1181 7.8418,-0.28344 2.6257,-0.16534 5.2396,-0.25982 7.8418,-0.28344 1.7478,0.0157 3.4957,0.0787 5.2436,0.18896 1.7478,0.11022 3.4957,0.17321 5.2436,0.18896 0.7833,0.0256 1.4604,-0.0965 2.0313,-0.36611 0.5707,-0.26966 0.8699,-0.84047 0.8976,-1.71244 z m -23.3364,-24.09224 -15.7781,0 15.0222,-21.91921 z"
         id="path6187"
         style="font-style:italic;font-variant:normal;font-weight:bold;font-stretch:normal;font-size:94.48057556px;line-height:0%;font-family:'Garamond Book ITC';-inkscape-font-specification:'Garamond Book ITC Bold Italic';letter-spacing:0px;word-spacing:0px;fill:#e2001a;fill-opacity:1;stroke:none"
         inkscape:connector-curvature="0" /><path
         d="m 315.49275,78.984164 c -0.014,-0.566814 -0.1988,-0.991971 -0.5551,-1.275473 -0.3563,-0.283375 -0.8011,-0.425094 -1.3345,-0.425155 -0.8464,0.004 -1.681,0.04337 -2.5037,0.118099 -0.8228,0.07486 -1.6573,0.161466 -2.5037,0.259818 -2.0845,0.226419 -4.1984,0.3642 -6.3419,0.413345 -2.1435,0.04927 -4.2811,0.06895 -6.4128,0.05905 -1.5589,-0.01568 -3.1178,-0.07867 -4.6767,-0.188959 -1.559,-0.110164 -3.1179,-0.17315 -4.6768,-0.188959 -0.742,0.002 -1.4073,0.210675 -1.9958,0.625928 -0.5886,0.415378 -0.8996,1.025556 -0.933,1.830536 0.2677,1.425122 1.3384,2.09435 3.2123,2.007686 1.8738,-0.08655 2.9446,0.7244 3.2123,2.432844 -0.01,0.476387 -0.065,0.964529 -0.1772,1.464428 -0.1122,0.500009 -0.2421,0.988152 -0.3897,1.464432 l -11.9044,41.287476 c -0.4547,1.927 -0.9625,3.60007 -1.5235,5.01922 -0.5609,1.41917 -1.8482,2.36002 -3.8618,2.82257 -0.9232,0.13582 -2.0057,0.36021 -3.2477,0.67317 -1.2421,0.31297 -1.9231,1.03337 -2.0432,2.16122 0.028,0.65348 0.2795,1.118 0.7559,1.39357 0.4763,0.27556 1.0117,0.40941 1.6061,0.40153 2.0333,-0.0315 4.0843,-0.15746 6.153,-0.37791 2.0687,-0.22046 4.1433,-0.34643 6.2238,-0.37792 2.2242,0.0197 4.4602,0.0984 6.7081,0.2362 2.2478,0.13778 4.4838,0.21651 6.708,0.2362 0.9152,0.0669 1.9663,0.0276 3.1532,-0.11811 1.1869,-0.14565 1.8364,-0.79913 1.9487,-1.96044 -0.087,-1.21073 -0.6999,-1.85459 -1.8371,-1.93158 -1.1373,-0.077 -2.2746,-0.25894 -3.4118,-0.54589 -1.1373,-0.28693 -1.7496,-1.3507 -1.8371,-3.1913 0.01,-0.75976 0.1083,-1.53134 0.2953,-2.31474 0.1869,-0.78338 0.4035,-1.55496 0.6495,-2.31475 l 11.9044,-41.476432 c 0.4369,-1.706478 0.9566,-2.946519 1.5589,-3.720127 0.6023,-0.773492 1.7833,-1.328557 3.543,-1.665196 0.8916,-0.112135 1.8482,-0.360143 2.8698,-0.744026 1.0215,-0.383763 1.5766,-1.080547 1.6652,-2.090355 z"
         id="path4766"
         style="font-style:normal;font-variant:normal;font-weight:normal;font-stretch:normal;font-size:94.48057556px;line-height:0%;font-family:Flanker;-inkscape-font-specification:Flanker;letter-spacing:0px;word-spacing:0px;fill:#e2001a;fill-opacity:1;stroke:none"
         inkscape:connector-curvature="0" /><path
         d="m 377.64625,79.456561 c -0.1336,-1.0188 -1.1683,-1.741976 -3.1038,-2.169528 -1.9358,-0.427426 -3.9712,-0.681703 -6.1062,-0.762834 -2.1352,-0.081 -3.5687,-0.111327 -4.3006,-0.09098 -7.8943,0.01814 -16.156,1.619625 -24.7851,4.804449 -8.6291,3.184944 -15.988,7.844755 -22.0766,13.979447 -6.0887,6.134785 -9.2695,13.635975 -9.5424,22.503585 0.1148,5.63087 1.7432,10.28368 4.8849,13.95845 3.1417,3.67478 7.1075,6.41002 11.8974,8.20571 4.7898,1.79569 9.7144,2.69033 14.7738,2.68392 3.0823,-0.002 6.1765,-0.187 9.2826,-0.55507 3.1059,-0.36808 6.1529,-0.9074 9.1408,-1.61796 1.1396,-0.23029 2.1199,-0.52554 2.9407,-0.88575 0.8207,-0.3602 1.4467,-1.10422 1.8778,-2.23207 0.8325,-2.36789 1.5765,-4.7653 2.2321,-7.19225 0.6553,-2.42692 1.3285,-4.84795 2.0195,-7.26309 1.136,-3.4374 2.4855,-5.45412 4.0486,-6.05018 1.5629,-0.59602 2.9474,-0.87712 4.1536,-0.84332 1.206,0.0339 1.8417,-0.72315 1.907,-2.271 -0.028,-0.65346 -0.2795,-1.11798 -0.7558,-1.39357 -0.4764,-0.27554 -1.0118,-0.40939 -1.6061,-0.40154 -2.3601,0.0276 -4.726,0.13781 -7.0978,0.33068 -2.3719,0.19292 -4.7614,0.30314 -7.1686,0.33067 -2.2676,-0.0236 -4.5351,-0.11806 -6.8025,-0.28343 -2.2676,-0.16531 -4.5351,-0.25979 -6.8025,-0.28344 -0.7579,-0.0216 -1.4862,0.11616 -2.1849,0.41335 -0.6988,0.29724 -1.0728,0.8838 -1.1219,1.75967 0.09,1.06788 0.7184,1.66158 1.8861,1.78111 1.1675,0.11958 2.3351,0.34937 3.5027,0.68935 1.1675,0.34004 1.7962,1.37464 1.8861,3.10383 -0.1044,1.7715 -0.6516,4.20434 -1.6416,7.29853 -0.9901,3.09421 -1.7971,5.57429 -2.421,7.44025 -0.3681,1.44672 -0.8602,2.47418 -1.4763,3.08239 -0.6161,0.60821 -1.6987,0.90346 -3.2477,0.88574 -5.5369,-0.12006 -9.7216,-1.91123 -12.5539,-5.37351 -2.8325,-3.46227 -4.2536,-7.87524 -4.2634,-13.23892 0.043,-4.93653 1.0668,-9.73135 3.0706,-14.38449 2.0037,-4.65307 4.7278,-8.739295 8.1724,-12.258694 3.4032,-3.416953 7.6036,-6.337938 12.6012,-8.762962 4.9975,-2.424911 9.9301,-3.692508 14.7978,-3.802793 2.3127,-0.02356 3.7339,0.425217 4.2634,1.346331 0.5294,0.921232 0.7459,2.45652 0.6496,4.605869 -0.01,0.56693 -0.039,1.133805 -0.094,1.700628 -0.055,0.566928 -0.087,1.133804 -0.094,1.700629 -0.03,0.942874 0.1239,1.797124 0.4606,2.562752 0.3365,0.765724 1.0333,1.171198 2.0903,1.216422 1.1554,-0.08853 2.0096,-0.667212 2.5628,-1.736059 0.553,-1.068749 0.9585,-2.09621 1.2164,-3.082388 0.246,-0.724289 0.7696,-2.322564 1.5707,-4.794828 0.8011,-2.47215 1.2538,-4.023185 1.3582,-4.653108 z"
         id="path4768"
         style="font-style:italic;font-variant:normal;font-weight:bold;font-stretch:normal;font-size:94.48057556px;line-height:0%;font-family:'Garamond Book ITC';-inkscape-font-specification:'Garamond Book ITC Bold Italic';letter-spacing:0px;word-spacing:0px;fill:#e2001a;fill-opacity:1;stroke:none"
         inkscape:connector-curvature="0" /><path
         d="m 431.82535,138.97856 c -0.01,-0.77748 -0.2265,-1.30105 -0.6496,-1.57072 -0.4232,-0.26966 -0.9941,-0.43893 -1.7124,-0.50782 -2.429,-0.39761 -3.8777,-1.32665 -4.3461,-2.78715 -0.4685,-1.46049 -0.6889,-3.33433 -0.6613,-5.62152 l -2.4565,-47.145202 c 0.01,-1.6986 -0.1496,-3.119726 -0.4724,-4.263382 -0.3229,-1.143528 -1.4251,-1.73796 -3.3068,-1.783297 -1.7144,0.04534 -2.9623,0.54529 -3.7437,1.49986 -0.7815,0.954699 -1.5806,2.092387 -2.3974,3.413067 l -30.2334,42.515714 -5.1019,7.18043 c -0.9999,1.53136 -2.0943,2.95642 -3.2832,4.27519 -1.1888,1.31878 -2.7084,2.12973 -4.5586,2.43284 -1.053,0.0866 -2.0411,0.29132 -2.9643,0.61412 -0.9231,0.32281 -1.4152,1.09439 -1.4762,2.31475 0.026,0.73221 0.2814,1.20461 0.7676,1.41719 0.4862,0.21258 1.0491,0.30705 1.6888,0.28344 1.7499,-0.0236 3.5174,-0.1181 5.3027,-0.28344 1.7853,-0.16534 3.5764,-0.25982 5.3735,-0.28344 1.6061,0.0197 3.2123,0.0984 4.8184,0.2362 1.6062,0.13778 3.2123,0.21651 4.8185,0.2362 0.746,0.01 1.427,-0.15157 2.0431,-0.48421 0.6161,-0.33265 0.9428,-0.89559 0.9802,-1.68882 -0.1015,-1.16699 -0.8118,-1.84584 -2.131,-2.03655 -1.3192,-0.19071 -2.6384,-0.44966 -3.9576,-0.77684 -1.3193,-0.32717 -2.0296,-1.27896 -2.1311,-2.85537 0.2362,-1.69078 1.3464,-4.09607 3.3304,-7.21587 1.9841,-3.11977 3.4249,-5.31247 4.3225,-6.57812 l 18.8958,0 c 0.1023,1.98802 0.2047,3.98783 0.3071,5.99944 0.1023,2.01163 0.1574,4.01145 0.1653,5.99944 -0.1038,2.77256 -0.8305,4.39737 -2.18,4.87443 -1.3496,0.47707 -2.6991,0.74418 -4.0486,0.80133 -1.3496,0.0572 -2.0763,0.84215 -2.18,2.35499 0.016,0.64954 0.2204,1.09832 0.6141,1.34633 0.3936,0.24801 0.8818,0.36611 1.4644,0.3543 2.6021,-0.0236 5.216,-0.1181 7.8418,-0.28344 2.6257,-0.16534 5.2396,-0.25982 7.8418,-0.28344 1.7478,0.0157 3.4957,0.0787 5.2436,0.18896 1.7478,0.11022 3.4957,0.17321 5.2436,0.18896 0.7833,0.0256 1.4604,-0.0964 2.0313,-0.36611 0.5707,-0.26966 0.8699,-0.84047 0.8976,-1.71244 z m -23.3364,-24.09224 -15.7781,0 15.0222,-21.919211 z"
         id="path4770"
         style="font-style:italic;font-variant:normal;font-weight:bold;font-stretch:normal;font-size:94.48057556px;line-height:0%;font-family:'Garamond Book ITC';-inkscape-font-specification:'Garamond Book ITC Bold Italic';letter-spacing:0px;word-spacing:0px;fill:#e2001a;fill-opacity:1;stroke:none"
         inkscape:connector-curvature="0" /><path
         d="m 275.45105,79.362081 c -0.012,-0.608149 -0.2008,-1.045115 -0.5669,-1.310901 -0.3662,-0.265661 -0.8386,-0.395569 -1.4172,-0.389727 -1.988,0.01187 -3.9879,0.05911 -5.9994,0.141718 -2.0117,0.08273 -4.0115,0.129972 -5.9994,0.14172 -1.0532,-0.05308 -2.6318,-0.112131 -4.7358,-0.177148 -2.1042,-0.06489 -3.5175,0.183117 -4.2398,0.744024 -0.1378,0.196896 -0.2638,0.417347 -0.3779,0.661356 -0.1142,0.244132 -0.2402,0.464583 -0.3779,0.661355 l -25.9818,39.303412 -1.0393,-38.642056 c 0.049,-0.734123 0.022,-1.367921 -0.083,-1.901398 -0.1043,-0.533352 -0.5807,-0.812853 -1.429,-0.838504 -2.177,0.01581 -4.3657,0.05518 -6.5663,0.1181 -2.2006,0.06305 -4.3894,0.05517 -6.5663,-0.02362 -1.2302,-0.05702 -2.4545,-0.131817 -3.6729,-0.224391 -1.2184,-0.09245 -2.4191,-0.143623 -3.602,-0.153527 -0.807,-0.03143 -1.5786,0.0788 -2.3148,0.330677 -0.7361,0.252007 -1.12979,0.834629 -1.18095,1.747869 0.29915,1.495982 1.49595,2.236069 3.59025,2.220264 2.0942,-0.01569 3.291,0.7244 3.5902,2.220266 -0.034,1.055074 -0.25,2.133712 -0.6496,3.235917 -0.3996,1.102311 -0.7814,2.133711 -1.1455,3.0942 -2.301,6.383306 -4.5961,12.772463 -6.88521,19.167503 -2.28917,6.3951 -4.65509,12.76064 -7.09776,19.09664 -0.91922,2.70251 -1.82071,4.59603 -2.70448,5.68057 -0.88378,1.08455 -2.75368,1.86794 -5.60971,2.35017 -0.78732,0.1181 -1.48017,0.35431 -2.07854,0.7086 -0.59837,0.3543 -0.9133,0.96842 -0.9448,1.84235 0.0276,0.77749 0.30313,1.27744 0.8267,1.49986 0.52358,0.22242 1.12982,0.32084 1.81873,0.29525 1.65732,-0.0118 3.32646,-0.059 5.0074,-0.14172 1.68094,-0.0827 3.35007,-0.12991 5.00741,-0.14172 1.55693,0.0197 3.09615,0.0984 4.61768,0.2362 1.52149,0.13778 3.03708,0.21651 4.54678,0.2362 0.7047,0.006 1.3739,-0.17125 2.0077,-0.53145 0.6338,-0.3602 0.9724,-0.93889 1.0157,-1.73606 -0.105,-1.32504 -0.8399,-2.03421 -2.2045,-2.12754 -1.3648,-0.0933 -2.72947,-0.31259 -4.09415,-0.65786 -1.36472,-0.34525 -2.09955,-1.55832 -2.20452,-3.6392 0.13529,-2.979 1.1874,-7.4032 3.15631,-13.2726 1.96886,-5.86936 4.04276,-11.56027 6.22166,-17.07277 2.1788,-5.512419 3.6508,-9.222771 4.416,-11.131067 l 1.0393,44.972177 c -0.026,1.38767 0.12,2.48599 0.437,3.29497 0.3168,0.80898 1.2419,1.22233 2.7753,1.24004 1.5608,-0.061 2.7851,-0.60034 3.6729,-1.61796 0.8877,-1.01762 1.7104,-2.14744 2.4682,-3.38945 l 30.2334,-44.499777 -10.0148,37.602787 c -0.3051,1.61797 -0.7578,3.24774 -1.3581,4.88931 -0.6004,1.64158 -1.7853,2.65723 -3.5548,3.04695 -1.0137,0.0709 -2.1514,0.23621 -3.4131,0.49602 -1.2617,0.25983 -1.9506,1.03928 -2.0667,2.33837 0.022,0.69875 0.2617,1.19083 0.7204,1.47624 0.4586,0.2854 1.0058,0.42319 1.6416,0.41335 2.1769,-0.0315 4.3657,-0.15747 6.5663,-0.37792 2.2005,-0.22045 4.3893,-0.34643 6.5663,-0.37792 2.2675,0.0315 4.535,0.15747 6.8025,0.37792 2.2675,0.22045 4.535,0.34642 6.8025,0.37792 0.8404,0.0236 1.5923,-0.1181 2.2557,-0.42516 0.6633,-0.30706 1.0136,-0.92118 1.0511,-1.84235 -0.082,-1.13608 -0.6532,-1.79277 -1.7146,-1.97007 -1.0615,-0.17729 -2.123,-0.42808 -3.1843,-0.75234 -1.0615,-0.32426 -1.6331,-1.27488 -1.7146,-2.85188 0.016,-1.14358 0.1495,-2.30489 0.4015,-3.48392 0.2519,-1.17901 0.5274,-2.3167 0.8267,-3.41307 l 9.6369,-38.642056 c 0.3365,-1.698605 0.7735,-3.025251 1.3109,-3.979943 0.5373,-0.954577 1.7064,-1.549009 3.5075,-1.783298 0.9625,-0.05506 1.8954,-0.251889 2.799,-0.590499 0.9034,-0.338491 1.3876,-1.054958 1.4526,-2.149403 z"
         id="path4764"
         style="font-style:italic;font-variant:normal;font-weight:bold;font-stretch:normal;font-size:94.48057556px;line-height:0%;font-family:'Garamond Book ITC';-inkscape-font-specification:'Garamond Book ITC Bold Italic';letter-spacing:0px;word-spacing:0px;fill:#e2001a;fill-opacity:1;stroke:none"
         inkscape:connector-curvature="0" /></g><path
       inkscape:connector-curvature="0"
       style="color:#000000;display:inline;overflow:visible;visibility:visible;fill:#009ee0;fill-opacity:1;fill-rule:nonzero;stroke:none;stroke-width:3;marker:none;enable-background:accumulate"
       d="m 37.491943,13.34235 c -18.526203,0 -33.5558173,15.029614 -33.5558173,33.555818 0,18.526204 15.0296143,33.535891 33.5558173,33.535891 3.562732,0 7.001277,-0.565657 10.22217,-1.5941 l 0,-16.738057 c -2.781444,1.617203 -6.036489,2.550561 -9.524751,2.550561 -10.194426,0 -18.451714,-7.948255 -18.451714,-17.754295 0,-9.806046 8.257288,-17.754296 18.451714,-17.754296 3.488262,0 6.743307,0.933359 9.524751,2.550561 l 0,-16.757982 C 44.49322,13.906815 41.054675,13.34235 37.491943,13.34235 Z"
       id="path3002" /><polygon
       points="245.459,134.853 179.959,134.853 179.959,78.103 179.959,78.103 298.459,78.103 "
       transform="matrix(0.21090078,0,0,0.20512504,10.056624,18.115699)"
       style="fill:#009ee0;fill-opacity:1"
       id="polygon9367" /><polygon
       points="245.459,146.353 179.959,146.353 179.959,203.103 179.959,203.103 298.459,203.103 "
       transform="matrix(0.21090078,0,0,0.20512504,10.056624,18.115699)"
       style="fill:#e2001a;fill-opacity:1"
       id="polygon9369" /><path
       style="font-style:normal;font-weight:normal;font-size:87.37689209px;line-height:125%;font-family:'Frutiger LT Std 55 Roman';-inkscape-font-specification:'Frutiger LT Std 55 Roman';letter-spacing:-1.24000001px;word-spacing:0px;fill:#009ee0;fill-opacity:1;stroke:none"
       d="M 98.167969 11.1875 C 92.764949 11.1875 87.310671 12.168303 83.275391 14.142578 C 75.361988 18.014234 71.163411 26.893588 72.666016 36.578125 C 73.422379 41.452981 74.678699 44.240864 77.490234 47.291016 C 80.33233 50.374319 83.59944 52.304566 87.986328 53.488281 C 90.668262 54.211971 92.498362 54.433594 98.070312 54.433594 C 102.42346 54.433594 106.00989 53.738461 107.65625 53.349609 L 106.87109 44.574219 L 104.17188 45.273438 C 98.412685 46.767353 91.995626 45.774946 88.447266 42.839844 C 82.701267 38.086931 82.609599 26.763487 88.28125 22.4375 C 90.661867 20.621717 94.247484 19.633458 98.035156 19.611328 C 99.914416 19.600335 101.8429 19.827068 103.69922 20.308594 C 105.63249 20.810079 106.3418 20.962891 106.3418 20.962891 L 107.27734 12.277344 C 104.44723 11.738079 101.5471 11.1875 98.167969 11.1875 z M 314.64062 11.402344 L 314.64062 27.892578 L 314.5293 27.892578 C 313.2432 26.246707 311.76199 25.096446 310.08594 24.439453 C 308.40985 23.782518 306.56699 23.466681 304.55664 23.492188 C 300.52895 23.657036 297.4554 25.207949 295.33594 28.144531 C 293.21648 31.081158 292.14905 34.41401 292.13281 38.144531 C 292.14551 42.552933 293.27514 46.245006 295.52344 49.21875 C 297.77174 52.192506 301.06194 53.737078 305.39258 53.855469 C 307.75113 53.813709 309.83136 53.242935 311.63281 52.142578 C 313.43422 51.042222 314.67806 49.66336 315.36523 48.005859 L 315.47656 48.005859 L 315.47656 53.1875 L 324.72461 53.1875 L 324.72461 11.402344 L 314.64062 11.402344 z M 126.31445 23.492188 C 121.41855 23.523558 117.40625 24.853431 114.2793 27.482422 C 111.15232 30.111464 109.53806 33.850559 109.43359 38.701172 C 109.53806 43.525111 111.15232 47.249833 114.2793 49.873047 C 117.40625 52.496261 121.41854 53.822969 126.31445 53.855469 C 131.21032 53.822949 135.22067 52.496261 138.34766 49.873047 C 141.4746 47.249833 143.09081 43.525105 143.19531 38.701172 C 143.09081 33.850559 141.4746 30.111464 138.34766 27.482422 C 135.22067 24.853431 131.21032 23.523552 126.31445 23.492188 z M 167.08594 23.492188 C 164.77145 23.481797 162.68684 23.962104 160.83203 24.933594 C 158.9772 25.905141 157.53302 27.430951 156.5 29.509766 L 156.38867 29.509766 L 156.38867 24.160156 L 147.25 24.160156 L 147.25 53.1875 L 157.2793 53.1875 L 157.2793 40.929688 C 157.2932 37.821306 157.79426 35.527599 158.7832 34.048828 C 159.77212 32.570095 161.16608 31.838023 162.96289 31.849609 C 164.37313 31.883279 165.39595 32.428936 166.0332 33.486328 C 166.67041 34.543759 166.98503 35.910674 166.97461 37.587891 L 166.97461 53.1875 L 177.00195 53.1875 L 177.00195 40.929688 C 177.01585 37.821306 177.5169 35.527599 178.50586 34.048828 C 179.49475 32.570095 180.88873 31.838023 182.68555 31.849609 C 184.09578 31.883279 185.11858 32.428936 185.75586 33.486328 C 186.39304 34.543759 186.70768 35.910674 186.69727 37.587891 L 186.69727 53.1875 L 196.72461 53.1875 L 196.72461 36.083984 C 196.81971 32.122484 196.15541 29.041375 194.73242 26.841797 C 193.30934 24.642269 190.55795 23.52588 186.47461 23.492188 C 184.3876 23.480587 182.44677 23.92073 180.65234 24.814453 C 178.85784 25.708227 177.36152 27.124131 176.16602 29.0625 C 175.36277 27.172879 174.16912 25.772092 172.58594 24.857422 C 171.00269 23.942804 169.17055 23.487577 167.08594 23.492188 z M 222.00977 23.492188 C 219.69529 23.481797 217.61066 23.962104 215.75586 24.933594 C 213.90102 25.905141 212.45685 27.430951 211.42383 29.509766 L 211.3125 29.509766 L 211.3125 24.160156 L 202.17578 24.160156 L 202.17578 53.1875 L 212.20312 53.1875 L 212.20312 40.929688 C 212.21703 37.821306 212.71809 35.527599 213.70703 34.048828 C 214.69594 32.570095 216.08992 31.838023 217.88672 31.849609 C 219.29697 31.883279 220.31978 32.428936 220.95703 33.486328 C 221.59425 34.543759 221.90886 35.910674 221.89844 37.587891 L 221.89844 53.1875 L 231.92578 53.1875 L 231.92578 40.929688 C 231.93968 37.821306 232.44268 35.527599 233.43164 34.048828 C 234.42053 32.570095 235.81256 31.838023 237.60938 31.849609 C 239.01961 31.883279 240.04437 32.428936 240.68164 33.486328 C 241.31883 34.543759 241.63149 35.910674 241.62109 37.587891 L 241.62109 53.1875 L 251.65039 53.1875 L 251.65039 36.083984 C 251.74549 32.122484 251.08119 29.041375 249.6582 26.841797 C 248.23512 24.642269 245.48179 23.52588 241.39844 23.492188 C 239.31143 23.480587 237.37059 23.92073 235.57617 24.814453 C 233.78166 25.708227 232.2873 27.124131 231.0918 29.0625 C 230.28856 27.172879 229.0949 25.772092 227.51172 24.857422 C 225.92847 23.942804 224.09439 23.487577 222.00977 23.492188 z M 272.58789 23.492188 C 267.69198 23.523558 263.68165 24.853431 260.55469 27.482422 C 257.42772 30.111464 255.8115 33.850559 255.70703 38.701172 C 255.8115 43.525111 257.42773 47.249833 260.55469 49.873047 C 263.68164 52.496261 267.69198 53.822969 272.58789 53.855469 C 277.48376 53.822949 281.49606 52.496261 284.62305 49.873047 C 287.74998 47.249833 289.36424 43.525105 289.46875 38.701172 C 289.36424 33.850559 287.74998 30.111464 284.62305 27.482422 C 281.49606 24.853431 277.48376 23.523552 272.58789 23.492188 z M 345.43945 23.492188 C 340.54354 23.523558 336.53125 24.853431 333.4043 27.482422 C 330.27733 30.111464 328.66111 33.850559 328.55664 38.701172 C 328.66111 43.525111 330.27733 47.249833 333.4043 49.873047 C 336.53125 52.496261 340.54354 53.822969 345.43945 53.855469 C 350.33532 53.822949 354.34568 52.496261 357.47266 49.873047 C 360.59959 47.249833 362.21581 43.525105 362.32031 38.701172 C 362.21581 33.850559 360.5996 30.111464 357.47266 27.482422 C 354.34567 24.853431 350.33531 23.523552 345.43945 23.492188 z M 384.20312 23.492188 C 382.0523 23.513107 380.29546 24.055591 378.93164 25.121094 C 377.56779 26.186661 376.46456 27.65033 375.62305 29.509766 L 375.51172 29.509766 L 375.51172 24.160156 L 366.375 24.160156 L 366.375 53.1875 L 376.4043 53.1875 L 376.4043 40.929688 C 376.4159 38.065058 377.04756 35.841042 378.29883 34.257812 C 379.55006 32.674616 381.35149 31.872844 383.70312 31.849609 C 384.28694 31.842709 384.85891 31.855855 385.42188 31.890625 C 385.9848 31.925435 386.54555 32.023438 387.10156 32.183594 L 387.60156 23.826172 C 387.0943 23.739142 386.54866 23.661897 385.96484 23.595703 C 385.38098 23.529573 384.79392 23.4957 384.20312 23.492188 z M 404.4375 23.492188 C 399.84106 23.524707 396.12267 24.851421 393.28125 27.474609 C 390.43982 30.097842 388.97615 33.822569 388.89258 38.646484 C 388.99704 43.472744 390.61327 47.20429 393.74023 49.84375 C 396.86719 52.483218 400.87948 53.820648 405.77539 53.855469 C 407.64992 53.858669 409.48523 53.713948 411.2832 53.417969 C 413.08111 53.121989 414.79215 52.654817 416.41602 52.017578 L 416.41602 44.941406 C 414.90125 45.741147 413.39056 46.315061 411.88281 46.662109 C 410.37502 47.00917 408.93402 47.178052 407.55859 47.169922 C 405.09321 47.188472 403.12851 46.761537 401.66602 45.888672 C 400.20351 45.015825 399.32569 43.586757 399.0332 41.599609 L 419.08984 41.599609 L 419.08984 39.759766 C 419.15134 35.303796 418.05444 31.51254 415.79688 28.386719 C 413.53927 25.260943 409.75239 23.630345 404.4375 23.492188 z M 404.49414 29.84375 C 406.48127 29.88788 407.91032 30.482516 408.7832 31.626953 C 409.65603 32.771441 410.08299 34.200496 410.06445 35.916016 L 398.92188 35.916016 C 399.02517 34.200496 399.52938 32.771441 400.43359 31.626953 C 401.33777 30.48251 402.69154 29.887881 404.49414 29.84375 z M 126.31445 30.511719 C 128.60917 30.581379 130.27243 31.40265 131.30664 32.976562 C 132.34082 34.550506 132.84941 36.458687 132.83203 38.701172 C 132.84943 40.916984 132.34082 42.808836 131.30664 44.376953 C 130.27243 45.945088 128.60917 46.765141 126.31445 46.835938 C 124.01971 46.765138 122.35449 45.945088 121.32031 44.376953 C 120.2861 42.808836 119.77749 40.916984 119.79492 38.701172 C 119.77752 36.458687 120.2861 34.550513 121.32031 32.976562 C 122.35449 31.402656 124.01971 30.581381 126.31445 30.511719 z M 272.58789 30.511719 C 274.8826 30.581379 276.54782 31.40265 277.58203 32.976562 C 278.6162 34.550506 279.1248 36.458687 279.10742 38.701172 C 279.12482 40.916984 278.61621 42.808836 277.58203 44.376953 C 276.54782 45.945088 274.8826 46.765141 272.58789 46.835938 C 270.29314 46.765138 268.62792 45.945088 267.59375 44.376953 C 266.55953 42.808836 266.05288 40.916984 266.07031 38.701172 C 266.05291 36.458687 266.55953 34.550513 267.59375 32.976562 C 268.62793 31.402656 270.29314 30.581381 272.58789 30.511719 z M 345.43945 30.511719 C 347.73416 30.581379 349.39742 31.40265 350.43164 32.976562 C 351.46581 34.550506 351.97441 36.458687 351.95703 38.701172 C 351.97443 40.916984 351.46581 42.808836 350.43164 44.376953 C 349.39742 45.945088 347.73416 46.765141 345.43945 46.835938 C 343.1447 46.765138 341.47949 45.945088 340.44531 44.376953 C 339.4111 42.808836 338.9025 40.916984 338.91992 38.701172 C 338.90252 36.458687 339.4111 34.550513 340.44531 32.976562 C 341.47949 31.402656 343.1447 30.581381 345.43945 30.511719 z M 308.56836 31.179688 C 310.43245 31.220368 311.91366 31.933646 313.01172 33.318359 C 314.10973 34.703109 314.66975 36.516489 314.69531 38.757812 C 314.64891 40.919075 314.04546 42.68347 312.88477 44.050781 C 311.72404 45.418111 310.2862 46.12387 308.56836 46.167969 C 306.65782 46.132009 305.17221 45.409907 304.11133 44.001953 C 303.05042 42.594012 302.51038 40.71533 302.49414 38.367188 C 302.50314 36.385868 303.02834 34.707497 304.06836 33.332031 C 305.10834 31.956609 306.60906 31.238906 308.56836 31.179688 z "
       transform="translate(3.9361257,13.34235)"
       id="path3067" /></g><g
     inkscape:groupmode="layer"
     id="layer2"
     inkscape:label="Layer 2"
     transform="translate(-3.9358817,-13.34235)" /></svg>