<?xml version="1.0" encoding="UTF-8" standalone="no"?>
<!-- Created with Inkscape (http://www.inkscape.org/) -->

<svg
   xmlns:dc="http://purl.org/dc/elements/1.1/"
   xmlns:cc="http://creativecommons.org/ns#"
   xmlns:rdf="http://www.w3.org/1999/02/22-rdf-syntax-ns#"
   xmlns:svg="http://www.w3.org/2000/svg"
   xmlns="http://www.w3.org/2000/svg"
   xmlns:xlink="http://www.w3.org/1999/xlink"
   xmlns:sodipodi="http://sodipodi.sourceforge.net/DTD/sodipodi-0.dtd"
   xmlns:inkscape="http://www.inkscape.org/namespaces/inkscape"
   version="1.1"
   width="321.51544"
   height="68.723221"
   viewBox="0.000244 0 321.51544 68.723222"
   id="Layer_1"
   xml:space="preserve"
   inkscape:version="0.91 r13725"
   sodipodi:docname="logoconsoleINNERSHADOW.svg"><sodipodi:namedview
     pagecolor="#ffffff"
     bordercolor="#666666"
     borderopacity="1"
     objecttolerance="10"
     gridtolerance="10"
     guidetolerance="10"
     inkscape:pageopacity="0"
     inkscape:pageshadow="2"
     inkscape:window-width="1680"
     inkscape:window-height="975"
     id="namedview48"
     showgrid="false"
     inkscape:zoom="8.1602708"
     inkscape:cx="264.3559"
     inkscape:cy="26.098218"
     inkscape:window-x="1671"
     inkscape:window-y="-9"
     inkscape:window-maximized="1"
     inkscape:current-layer="layer2"
     fit-margin-top="0"
     fit-margin-left="0"
     fit-margin-right="0"
     fit-margin-bottom="0" /><metadata
     id="metadata923"><rdf:RDF><cc:Work
         rdf:about=""><dc:format>image/svg+xml</dc:format><dc:type
           rdf:resource="http://purl.org/dc/dcmitype/StillImage" /><dc:title /></cc:Work></rdf:RDF></metadata><defs
     id="defs921"><inkscape:perspective
       sodipodi:type="inkscape:persp3d"
       inkscape:vp_x="0 : 33.634675 : 1"
       inkscape:vp_y="0 : 1000 : 0"
       inkscape:vp_z="320.42953 : 33.634675 : 1"
       inkscape:persp3d-origin="160.21476 : 22.423116 : 1"
       id="perspective7246" /><linearGradient
       id="linearGradient6232"><stop
         id="stop6234"
         style="stop-color:#279e64;stop-opacity:1"
         offset="0" /><stop
         id="stop6236"
         style="stop-color:#146daf;stop-opacity:1"
         offset="1" /></linearGradient><linearGradient
       id="linearGradient6224"><stop
         id="stop6226"
         style="stop-color:#e5e975;stop-opacity:1"
         offset="0" /><stop
         id="stop6228"
         style="stop-color:#e13e28;stop-opacity:1"
         offset="1" /></linearGradient><linearGradient
       x1="766.43481"
       y1="19.913881"
       x2="766.43481"
       y2="-108.08125"
       id="linearGradient6230"
       xlink:href="#linearGradient6224"
       gradientUnits="userSpaceOnUse" /><linearGradient
       x1="699.17328"
       y1="16.676712"
       x2="699.17328"
       y2="-27.783451"
       id="linearGradient6238"
       xlink:href="#linearGradient6232"
       gradientUnits="userSpaceOnUse" /><linearGradient
       x1="699.17328"
       y1="16.676712"
       x2="699.17328"
       y2="-27.783451"
       id="linearGradient6246"
       xlink:href="#linearGradient6232"
       gradientUnits="userSpaceOnUse" /><linearGradient
       x1="766.43481"
       y1="19.913881"
       x2="766.43481"
       y2="-108.08125"
       id="linearGradient6248"
       xlink:href="#linearGradient6224"
       gradientUnits="userSpaceOnUse" /><linearGradient
       x1="699.17328"
       y1="16.676712"
       x2="699.17328"
       y2="-27.783451"
       id="linearGradient6260"
       xlink:href="#linearGradient6232"
       gradientUnits="userSpaceOnUse" /><linearGradient
       x1="766.43481"
       y1="19.913881"
       x2="766.43481"
       y2="-108.08125"
       id="linearGradient6262"
       xlink:href="#linearGradient6224"
       gradientUnits="userSpaceOnUse" /><linearGradient
       x1="699.17328"
       y1="16.676712"
       x2="699.17328"
       y2="-27.783451"
       id="linearGradient6421"
       xlink:href="#linearGradient6232"
       gradientUnits="userSpaceOnUse" /><linearGradient
       x1="766.43481"
       y1="19.913881"
       x2="766.43481"
       y2="-108.08125"
       id="linearGradient6423"
       xlink:href="#linearGradient6224"
       gradientUnits="userSpaceOnUse" /><linearGradient
       x1="699.17328"
       y1="16.676712"
       x2="699.17328"
       y2="-27.783451"
       id="linearGradient6425"
       xlink:href="#linearGradient6232"
       gradientUnits="userSpaceOnUse" /><linearGradient
       x1="766.43481"
       y1="19.913881"
       x2="766.43481"
       y2="-108.08125"
       id="linearGradient6427"
       xlink:href="#linearGradient6224"
       gradientUnits="userSpaceOnUse" /><filter
       style="color-interpolation-filters:sRGB"
       inkscape:label="Drop Shadow"
       id="filter10942"><feFlood
         flood-opacity="0.498039"
         flood-color="rgb(0,0,0)"
         result="flood"
         id="feFlood10944" /><feComposite
         in="flood"
         in2="SourceGraphic"
         operator="out"
         result="composite1"
         id="feComposite10946" /><feGaussianBlur
         in="composite1"
         stdDeviation="0.2"
         result="blur"
         id="feGaussianBlur10948" /><feOffset
         dx="-1.1"
         dy="0.7"
         result="offset"
         id="feOffset10950" /><feComposite
         in="offset"
         in2="SourceGraphic"
         operator="atop"
         result="composite2"
         id="feComposite10952" /></filter></defs><g
     inkscape:groupmode="layer"
     id="layer2"
     inkscape:label="Layer 2"
     transform="translate(-76.003801,-92.267994)"
     style="display:inline;opacity:1"><path
       d="m 144.52947,157.53654 c -0.01,-0.77748 -0.2265,-1.30105 -0.6496,-1.57072 -0.4232,-0.26965 -0.9941,-0.43893 -1.7124,-0.50782 -2.429,-0.3976 -3.8777,-1.32665 -4.3461,-2.78715 -0.4685,-1.46049 -0.6889,-3.33432 -0.6613,-5.62152 l -2.4565,-47.145202 c 0.01,-1.6986 -0.1496,-3.119726 -0.4724,-4.263382 -0.3229,-1.143528 -1.4251,-1.73796 -3.3068,-1.783297 -1.7144,0.04534 -2.9623,0.54529 -3.7437,1.49986 -0.7815,0.954699 -1.5806,2.092387 -2.3974,3.413067 l -30.2334,42.515714 -5.1019,7.18043 c -0.9999,1.53136 -2.0943,2.95642 -3.2832,4.27519 -1.1888,1.31878 -2.7084,2.12973 -4.5586,2.43284 -1.053,0.0866 -2.0411,0.29132 -2.9643,0.61412 -0.9231,0.32281 -1.4152,1.09439 -1.4762,2.31475 0.026,0.73222 0.2814,1.20461 0.7676,1.41719 0.4862,0.21258 1.0491,0.30706 1.6888,0.28344 1.7499,-0.0236 3.5174,-0.1181 5.3027,-0.28344 1.7853,-0.16534 3.5764,-0.25982 5.3735,-0.28344 1.6061,0.0197 3.2123,0.0984 4.8184,0.2362 1.6062,0.13778 3.2123,0.21651 4.8185,0.2362 0.746,0.01 1.427,-0.15157 2.0431,-0.48421 0.6161,-0.33265 0.9428,-0.89558 0.9802,-1.68882 -0.1015,-1.16699 -0.8118,-1.84584 -2.131,-2.03655 -1.3192,-0.19071 -2.6384,-0.44966 -3.9576,-0.77684 -1.3193,-0.32717 -2.0296,-1.27896 -2.1311,-2.85537 0.2362,-1.69078 1.3464,-4.09607 3.3304,-7.21587 1.9841,-3.11976 3.4249,-5.31247 4.3225,-6.57812 l 18.8958,0 c 0.1023,1.98802 0.2047,3.98783 0.3071,5.99944 0.1023,2.01164 0.1574,4.01145 0.1653,5.99944 -0.1038,2.77257 -0.8305,4.39737 -2.18,4.87443 -1.3496,0.47707 -2.6991,0.74418 -4.0486,0.80133 -1.3496,0.0572 -2.0763,0.84215 -2.18,2.35499 0.016,0.64954 0.2204,1.09832 0.6141,1.34633 0.3936,0.24801 0.8818,0.36611 1.4644,0.3543 2.6021,-0.0236 5.216,-0.1181 7.8418,-0.28344 2.6257,-0.16534 5.2396,-0.25982 7.8418,-0.28344 1.7478,0.0157 3.4957,0.0787 5.2436,0.18896 1.7478,0.11022 3.4957,0.17321 5.2436,0.18896 0.7833,0.0256 1.4604,-0.0965 2.0313,-0.36611 0.5707,-0.26966 0.8699,-0.84047 0.8976,-1.71244 z m -23.3364,-24.09224 -15.7781,0 15.0222,-21.91921 z"
       id="path4820"
       style="font-style:italic;font-variant:normal;font-weight:bold;font-stretch:normal;font-size:94.48057556px;line-height:0%;font-family:'Garamond Book ITC';-inkscape-font-specification:'Garamond Book ITC Bold Italic';letter-spacing:0px;word-spacing:0px;fill:#d0ccbe;fill-opacity:1;stroke:none;filter:url(#filter10942)"
       inkscape:connector-curvature="0" /><path
       d="m 281.26259,97.542123 c -0.014,-0.566814 -0.1988,-0.991971 -0.5551,-1.275473 -0.3563,-0.283375 -0.8011,-0.425094 -1.3345,-0.425155 -0.8464,0.004 -1.681,0.04337 -2.5037,0.118099 -0.8228,0.07486 -1.6573,0.161466 -2.5037,0.259818 -2.0845,0.226419 -4.1984,0.3642 -6.3419,0.413345 -2.1435,0.04927 -4.2811,0.06895 -6.4128,0.05905 -1.5589,-0.01568 -3.1178,-0.07867 -4.6767,-0.188959 -1.559,-0.110164 -3.1179,-0.17315 -4.6768,-0.188959 -0.742,0.002 -1.4073,0.210675 -1.9958,0.625928 -0.5886,0.415378 -0.8996,1.025556 -0.933,1.830536 0.2677,1.425127 1.3384,2.094347 3.2123,2.007687 1.8738,-0.0866 2.9446,0.7244 3.2123,2.43284 -0.01,0.47639 -0.065,0.96453 -0.1772,1.46443 -0.1122,0.50001 -0.2421,0.98815 -0.3897,1.46443 l -11.9044,41.28748 c -0.4547,1.927 -0.9625,3.60007 -1.5235,5.01922 -0.5609,1.41917 -1.8482,2.36002 -3.8618,2.82257 -0.9232,0.13582 -2.0057,0.36021 -3.2477,0.67317 -1.2421,0.31297 -1.9231,1.03337 -2.0432,2.16122 0.028,0.65348 0.2795,1.118 0.7559,1.39357 0.4763,0.27556 1.0117,0.40941 1.6061,0.40153 2.0333,-0.0315 4.0843,-0.15746 6.153,-0.37791 2.0687,-0.22046 4.1433,-0.34643 6.2238,-0.37792 2.2242,0.0197 4.4602,0.0984 6.7081,0.2362 2.2478,0.13778 4.4838,0.21651 6.708,0.2362 0.9152,0.0669 1.9663,0.0276 3.1532,-0.11811 1.1869,-0.14565 1.8364,-0.79913 1.9487,-1.96044 -0.087,-1.21073 -0.6999,-1.85459 -1.8371,-1.93158 -1.1373,-0.077 -2.2746,-0.25894 -3.4118,-0.54589 -1.1373,-0.28693 -1.7496,-1.3507 -1.8371,-3.1913 0.01,-0.75976 0.1083,-1.53134 0.2953,-2.31474 0.1869,-0.78338 0.4035,-1.55496 0.6495,-2.31475 l 11.9044,-41.47643 c 0.4369,-1.70648 0.9566,-2.94652 1.5589,-3.72013 0.6023,-0.77349 1.7833,-1.32856 3.543,-1.6652 0.8916,-0.11213 1.8482,-0.36014 2.8698,-0.744022 1.0215,-0.383763 1.5766,-1.080547 1.6652,-2.090355 z"
       id="path4822"
       style="font-style:normal;font-variant:normal;font-weight:normal;font-stretch:normal;font-size:94.48057556px;line-height:0%;font-family:Flanker;-inkscape-font-specification:Flanker;letter-spacing:0px;word-spacing:0px;fill:#d0ccbe;fill-opacity:1;stroke:none;filter:url(#filter10942)"
       inkscape:connector-curvature="0" /><path
       style="font-style:italic;font-variant:normal;font-weight:bold;font-stretch:normal;font-size:94.48057556px;line-height:0%;font-family:'Garamond Book ITC';-inkscape-font-specification:'Garamond Book ITC Bold Italic';letter-spacing:0px;word-spacing:0px;fill:#d0ccbe;fill-opacity:1;stroke:none;filter:url(#filter10942)"
       d="M 253.90234 2.7226562 C 246.00804 2.7407963 237.74629 4.3425197 229.11719 7.5273438 C 220.48809 10.712287 213.12766 15.373122 207.03906 21.507812 C 200.95036 27.642602 197.77095 35.142156 197.49805 44.009766 C 197.61285 49.640636 199.24111 54.29398 202.38281 57.96875 C 205.52451 61.64353 209.4894 64.380091 214.2793 66.175781 C 219.0691 67.971471 223.99333 68.865785 229.05273 68.859375 C 232.13503 68.857375 235.22984 68.670804 238.33594 68.302734 C 241.44184 67.934654 244.48866 67.396107 247.47656 66.685547 C 248.61616 66.455257 249.59717 66.160991 250.41797 65.800781 C 251.23867 65.440581 251.86382 64.696209 252.29492 63.568359 C 253.12742 61.200469 253.87174 58.80195 254.52734 56.375 C 255.18264 53.94808 255.85588 51.528421 256.54688 49.113281 C 257.68288 45.675881 259.0326 43.65856 260.5957 43.0625 C 262.1586 42.46648 263.5438 42.18495 264.75 42.21875 C 265.956 42.25265 266.59095 41.495116 266.65625 39.947266 C 266.62825 39.293806 266.37669 38.830278 265.90039 38.554688 C 265.42399 38.279147 264.88922 38.144494 264.29492 38.152344 C 261.93482 38.179944 259.56907 38.291505 257.19727 38.484375 C 254.82537 38.677295 252.43454 38.786923 250.02734 38.814453 C 247.75974 38.790853 245.49201 38.69662 243.22461 38.53125 C 240.95701 38.36594 238.68927 38.271697 236.42188 38.248047 C 235.66397 38.226447 234.93698 38.362966 234.23828 38.660156 C 233.53948 38.957396 233.16433 39.544052 233.11523 40.419922 C 233.20523 41.487802 233.83425 42.081642 235.00195 42.201172 C 236.16945 42.320752 237.33631 42.550645 238.50391 42.890625 C 239.67141 43.230665 240.30072 44.264951 240.39062 45.994141 C 240.28623 47.765641 239.74 50.198779 238.75 53.292969 C 237.7599 56.387179 236.95202 58.868415 236.32812 60.734375 C 235.96002 62.181095 235.46766 63.208196 234.85156 63.816406 C 234.23546 64.424616 233.15252 64.718892 231.60352 64.701172 C 226.06662 64.581112 221.88308 62.790405 219.05078 59.328125 C 216.21828 55.865855 214.79691 51.453524 214.78711 46.089844 C 214.83011 41.153314 215.85362 36.358218 217.85742 31.705078 C 219.86112 27.052008 222.5847 22.964713 226.0293 19.445312 C 229.4325 16.028363 233.63326 13.108624 238.63086 10.683594 C 243.62836 8.2586838 248.56199 6.9911444 253.42969 6.8808594 C 255.74239 6.8572994 257.16386 7.3054495 257.69336 8.2265625 C 258.22276 9.1477925 258.4381 10.682681 258.3418 12.832031 C 258.3318 13.398961 258.30305 13.966373 258.24805 14.533203 C 258.19305 15.100133 258.1613 15.667545 258.1543 16.234375 C 258.1243 17.177245 258.27853 18.031245 258.61523 18.796875 C 258.95173 19.562595 259.64808 19.968452 260.70508 20.013672 C 261.86048 19.925172 262.71438 19.346194 263.26758 18.277344 C 263.82058 17.208594 264.22647 16.181493 264.48438 15.195312 C 264.73037 14.471023 265.25359 12.872651 266.05469 10.400391 C 266.85579 7.9282406 267.30771 6.3760167 267.41211 5.7460938 C 267.27851 4.7272938 266.24409 4.0037239 264.30859 3.5761719 C 262.37279 3.1487459 260.33617 2.8955841 258.20117 2.8144531 C 256.06597 2.7334531 254.63424 2.7023092 253.90234 2.7226562 z "
       transform="translate(76.004045,92.267994)"
       id="path4824" /><path
       d="m 397.59519,157.53652 c -0.01,-0.77748 -0.2265,-1.30105 -0.6496,-1.57072 -0.4232,-0.26966 -0.9941,-0.43893 -1.7124,-0.50782 -2.429,-0.39761 -3.8777,-1.32665 -4.3461,-2.78715 -0.4685,-1.46049 -0.6889,-3.33433 -0.6613,-5.62152 l -2.4565,-47.145203 c 0.01,-1.6986 -0.1496,-3.119726 -0.4724,-4.263382 -0.3229,-1.143528 -1.4251,-1.73796 -3.3068,-1.783297 -1.7144,0.04534 -2.9623,0.54529 -3.7437,1.49986 -0.7815,0.954699 -1.5806,2.092387 -2.3974,3.413067 l -30.2334,42.515715 -5.1019,7.18043 c -0.9999,1.53136 -2.0943,2.95642 -3.2832,4.27519 -1.1888,1.31878 -2.7084,2.12973 -4.5586,2.43284 -1.053,0.0866 -2.0411,0.29132 -2.9643,0.61412 -0.9231,0.32281 -1.4152,1.09439 -1.4762,2.31475 0.026,0.73221 0.2814,1.20461 0.7676,1.41719 0.4862,0.21258 1.0491,0.30705 1.6888,0.28344 1.7499,-0.0236 3.5174,-0.1181 5.3027,-0.28344 1.7853,-0.16534 3.5764,-0.25982 5.3735,-0.28344 1.6061,0.0197 3.2123,0.0984 4.8184,0.2362 1.6062,0.13778 3.2123,0.21651 4.8185,0.2362 0.746,0.01 1.427,-0.15157 2.0431,-0.48421 0.6161,-0.33265 0.9428,-0.89559 0.9802,-1.68882 -0.1015,-1.16699 -0.8118,-1.84584 -2.131,-2.03655 -1.3192,-0.19071 -2.6384,-0.44966 -3.9576,-0.77684 -1.3193,-0.32717 -2.0296,-1.27896 -2.1311,-2.85537 0.2362,-1.69078 1.3464,-4.09607 3.3304,-7.21587 1.9841,-3.11977 3.4249,-5.31247 4.3225,-6.57812 l 18.8958,0 c 0.1023,1.98802 0.2047,3.98783 0.3071,5.99944 0.1023,2.01163 0.1574,4.01145 0.1653,5.99944 -0.1038,2.77256 -0.8305,4.39737 -2.18,4.87443 -1.3496,0.47707 -2.6991,0.74418 -4.0486,0.80133 -1.3496,0.0572 -2.0763,0.84215 -2.18,2.35499 0.016,0.64954 0.2204,1.09832 0.6141,1.34633 0.3936,0.24801 0.8818,0.36611 1.4644,0.3543 2.6021,-0.0236 5.216,-0.1181 7.8418,-0.28344 2.6257,-0.16534 5.2396,-0.25982 7.8418,-0.28344 1.7478,0.0157 3.4957,0.0787 5.2436,0.18896 1.7478,0.11022 3.4957,0.17321 5.2436,0.18896 0.7833,0.0256 1.4604,-0.0964 2.0313,-0.36611 0.5707,-0.26966 0.8699,-0.84047 0.8976,-1.71244 z m -23.3364,-24.09224 -15.7781,0 15.0222,-21.91921 z"
       id="path4826"
       style="font-style:italic;font-variant:normal;font-weight:bold;font-stretch:normal;font-size:94.48057556px;line-height:0%;font-family:'Garamond Book ITC';-inkscape-font-specification:'Garamond Book ITC Bold Italic';letter-spacing:0px;word-spacing:0px;fill:#d0ccbe;fill-opacity:1;stroke:none;filter:url(#filter10942)"
       inkscape:connector-curvature="0" /><path
       d="m 241.22089,97.92004 c -0.012,-0.608149 -0.2008,-1.045115 -0.5669,-1.310901 -0.3662,-0.265661 -0.8386,-0.395569 -1.4172,-0.389727 -1.988,0.01187 -3.9879,0.05911 -5.9994,0.141718 -2.0117,0.08273 -4.0115,0.129972 -5.9994,0.14172 -1.0532,-0.05308 -2.6318,-0.112131 -4.7358,-0.177148 -2.1042,-0.06489 -3.5175,0.183117 -4.2398,0.744024 -0.1378,0.196896 -0.2638,0.417347 -0.3779,0.661356 -0.1142,0.244132 -0.2402,0.464583 -0.3779,0.661355 l -25.9818,39.303413 -1.0393,-38.642057 c 0.049,-0.734123 0.022,-1.367921 -0.083,-1.901398 -0.1043,-0.533352 -0.5807,-0.812853 -1.429,-0.838504 -2.177,0.01581 -4.3657,0.05518 -6.5663,0.1181 -2.2006,0.06305 -4.3894,0.05517 -6.5663,-0.02362 -1.2302,-0.05702 -2.4545,-0.131817 -3.6729,-0.224391 -1.2184,-0.09245 -2.4191,-0.143623 -3.602,-0.153527 -0.807,-0.03143 -1.5786,0.0788 -2.3148,0.330677 -0.7361,0.252007 -1.12979,0.834629 -1.18095,1.747869 0.29915,1.495982 1.49595,2.236071 3.59025,2.220261 2.0942,-0.0157 3.291,0.7244 3.5902,2.22027 -0.034,1.05507 -0.25,2.13371 -0.6496,3.23592 -0.3996,1.10231 -0.7814,2.13371 -1.1455,3.0942 -2.301,6.3833 -4.5961,12.77246 -6.88521,19.1675 -2.28917,6.3951 -4.65509,12.76064 -7.09776,19.09664 -0.91922,2.70251 -1.82071,4.59603 -2.70448,5.68057 -0.88378,1.08455 -2.75368,1.86794 -5.60971,2.35017 -0.78732,0.1181 -1.48017,0.35431 -2.07854,0.7086 -0.59837,0.3543 -0.9133,0.96842 -0.9448,1.84235 0.0276,0.77749 0.30313,1.27744 0.8267,1.49986 0.52358,0.22242 1.12982,0.32084 1.81873,0.29525 1.65732,-0.0118 3.32646,-0.059 5.0074,-0.14172 1.68094,-0.0827 3.35007,-0.12991 5.00741,-0.14172 1.55693,0.0197 3.09615,0.0984 4.61768,0.2362 1.52149,0.13778 3.03708,0.21651 4.54678,0.2362 0.7047,0.006 1.3739,-0.17125 2.0077,-0.53145 0.6338,-0.3602 0.9724,-0.93889 1.0157,-1.73606 -0.105,-1.32504 -0.8399,-2.03421 -2.2045,-2.12754 -1.3648,-0.0933 -2.72947,-0.31259 -4.09415,-0.65786 -1.36472,-0.34525 -2.09955,-1.55832 -2.20452,-3.6392 0.13529,-2.979 1.1874,-7.4032 3.15631,-13.2726 1.96886,-5.86936 4.04276,-11.56027 6.22166,-17.07277 2.1788,-5.51242 3.6508,-9.22277 4.416,-11.13107 l 1.0393,44.97218 c -0.026,1.38767 0.12,2.48599 0.437,3.29497 0.3168,0.80898 1.2419,1.22233 2.7753,1.24004 1.5608,-0.061 2.7851,-0.60034 3.6729,-1.61796 0.8877,-1.01762 1.7104,-2.14744 2.4682,-3.38945 l 30.2334,-44.49978 -10.0148,37.60279 c -0.3051,1.61797 -0.7578,3.24774 -1.3581,4.88931 -0.6004,1.64158 -1.7853,2.65723 -3.5548,3.04695 -1.0137,0.0709 -2.1514,0.23621 -3.4131,0.49602 -1.2617,0.25983 -1.9506,1.03928 -2.0667,2.33837 0.022,0.69875 0.2617,1.19083 0.7204,1.47624 0.4586,0.2854 1.0058,0.42319 1.6416,0.41335 2.1769,-0.0315 4.3657,-0.15747 6.5663,-0.37792 2.2005,-0.22045 4.3893,-0.34643 6.5663,-0.37792 2.2675,0.0315 4.535,0.15747 6.8025,0.37792 2.2675,0.22045 4.535,0.34642 6.8025,0.37792 0.8404,0.0236 1.5923,-0.1181 2.2557,-0.42516 0.6633,-0.30706 1.0136,-0.92118 1.0511,-1.84235 -0.082,-1.13608 -0.6532,-1.79277 -1.7146,-1.97007 -1.0615,-0.17729 -2.123,-0.42808 -3.1843,-0.75234 -1.0615,-0.32426 -1.6331,-1.27488 -1.7146,-2.85188 0.016,-1.14358 0.1495,-2.30489 0.4015,-3.48392 0.2519,-1.17901 0.5274,-2.3167 0.8267,-3.41307 l 9.6369,-38.64206 c 0.3365,-1.6986 0.7735,-3.02525 1.3109,-3.97994 0.5373,-0.95458 1.7064,-1.54901 3.5075,-1.7833 0.9625,-0.0551 1.8954,-0.25189 2.799,-0.5905 0.9034,-0.338488 1.3876,-1.054955 1.4526,-2.1494 z"
       id="path4828"
       style="font-style:italic;font-variant:normal;font-weight:bold;font-stretch:normal;font-size:94.48057556px;line-height:0%;font-family:'Garamond Book ITC';-inkscape-font-specification:'Garamond Book ITC Bold Italic';letter-spacing:0px;word-spacing:0px;fill:#d0ccbe;fill-opacity:1;stroke:none;filter:url(#filter10942)"
       inkscape:connector-curvature="0" /></g></svg>