<?xml version="1.0" encoding="UTF-8" standalone="no"?>
<!-- Created with Inkscape (http://www.inkscape.org/) -->

<svg
   xmlns:dc="http://purl.org/dc/elements/1.1/"
   xmlns:cc="http://creativecommons.org/ns#"
   xmlns:rdf="http://www.w3.org/1999/02/22-rdf-syntax-ns#"
   xmlns:svg="http://www.w3.org/2000/svg"
   xmlns="http://www.w3.org/2000/svg"
   xmlns:sodipodi="http://sodipodi.sourceforge.net/DTD/sodipodi-0.dtd"
   xmlns:inkscape="http://www.inkscape.org/namespaces/inkscape"
   id="svg4147"
   version="1.1"
   inkscape:version="0.91 r13725"
   width="429.35214"
   height="419.29074"
   viewBox="0 0 429.35214 419.29074"
   sodipodi:docname="logoconsole.svg">
  <metadata
     id="metadata4153">
    <rdf:RDF>
      <cc:Work
         rdf:about="">
        <dc:format>image/svg+xml</dc:format>
        <dc:type
           rdf:resource="http://purl.org/dc/dcmitype/StillImage" />
        <dc:title />
      </cc:Work>
    </rdf:RDF>
  </metadata>
  <defs
     id="defs4151" />
  <sodipodi:namedview
     pagecolor="#ffffff"
     bordercolor="#666666"
     borderopacity="1"
     objecttolerance="10"
     gridtolerance="10"
     guidetolerance="10"
     inkscape:pageopacity="0"
     inkscape:pageshadow="2"
     inkscape:window-width="1680"
     inkscape:window-height="975"
     id="namedview4149"
     showgrid="false"
     fit-margin-top="0"
     fit-margin-left="0"
     fit-margin-right="0"
     fit-margin-bottom="0"
     inkscape:zoom="0.60835894"
     inkscape:cx="456.97461"
     inkscape:cy="-41.275126"
     inkscape:window-x="1671"
     inkscape:window-y="-9"
     inkscape:window-maximized="1"
     inkscape:current-layer="svg4147"
     showguides="true"
     inkscape:guide-bbox="true">
    <sodipodi:guide
       position="335.72892,0.21017882"
       orientation="0,1"
       id="guide4140" />
    <sodipodi:guide
       position="344.57359,114.82236"
       orientation="0,1"
       id="guide4142" />
  </sodipodi:namedview>
  <g
     inkscape:groupmode="layer"
     id="layer1"
     inkscape:label="Layer 1"
     transform="translate(0,-0.03732856)" />
  <g
     inkscape:groupmode="layer"
     id="layer2"
     inkscape:label="Layer 2"
     transform="translate(0,-0.03732856)" />
  <path
     sodipodi:nodetypes="ssssssss"
     inkscape:connector-curvature="0"
     id="path4729"
     d="m 166.6836,149.29816 c -7.7589,-2.35683 -12.96926,-10.657 -12.98737,-20.68909 -0.014,-7.78061 5.11753,-23.55399 11.89228,-36.554393 19.55516,-37.525372 55.80126,-72.361029 90.84582,-87.3107609 18.1194,-7.729592 30.99167,-5.982256 36.93528,5.013747 5.18595,9.5943079 1.58114,28.8804519 -9.25915,49.5374139 -15.64723,29.81693 -50.01578,65.310603 -78.00325,80.556813 -15.15946,8.25814 -30.91037,12.0322 -39.42361,9.44627 z"
     style="fill:#00cc99;fill-opacity:1" />
  <path
     sodipodi:nodetypes="ssssssss"
     inkscape:connector-curvature="0"
     id="path4727"
     d="m 25.464208,148.23952 c -5.58754,-3.40728 -8.02495,-9.51569 -8.02495,-20.11141 0,-38.315223 52.44544,-104.074235 98.887152,-123.9902049 7.56756,-3.24526995 10.97629,-3.98005995 18.85261,-4.06391995 9.26985,-0.0987 9.7697,0.0477 13.93378,4.08056995 8.03007,7.7770899 8.85983,19.5856699 2.6576,37.8210099 -14.59868,42.921882 -64.955092,95.683625 -101.745522,106.605505 -9.29831,2.76037 -19.71135,2.61556 -24.56067,-0.34155 z"
     style="fill:#ff0000;fill-opacity:1" />
  <path
     inkscape:connector-curvature="0"
     id="path4723"
     d="m 334.33463,417.68142 c -0.31382,-0.85938 3.31645,-29.06675 8.29246,-58.62925 l 9.0473,-53.75 21.87501,-0.3525 c 12.75042,-0.20547 19.43168,0.0319 22.70973,1.65231 10.00973,4.94802 19.20377,13.1811 18.26917,29.47119 -0.6685,11.65181 -4.3364,17.67348 -14.1738,27.09387 l -6.22914,5.96508 c 1.19885,0.77757 2.47242,3.15695 3.25769,4.81475 3.13048,6.60878 13.31111,43.84392 13.00661,44.35955 -1.0494,1.77719 -20.23819,0.82147 -20.80684,-0.31286 -0.7961,-0.95916 -3.50463,-17.73571 -7.60363,-28.25058 -4.0989,-10.51486 -3.83833,-11.54465 -8.03106,-13.81886 -2.5241,-1.60267 -11.22054,-3.89408 -12.81424,-1.97384 -0.8093,0.97522 -2.9183,10.39709 -4.6867,20.9375 -1.7683,10.54042 -3.66254,22.8944 -4.43474,23.3995 -2.4602,1.60939 -17.05152,1.1093 -17.67782,-0.60586 z m 46.76324,-94.97855 c -11.4418,0 -11.64421,-1.85904 -14.90412,16.06126 -1.0442,5.73994 -1.33851,10.4495 -0.95571,11.06893 1.1549,1.86878 14.1066,2.05495 18.0484,0.0166 11.23274,-5.0849 11.66465,-27.17378 -2.18857,-27.14677 z M 31.134297,296.64744 C 12.642757,292.52298 1.5880476,279.0177 0.15386759,254.50719 -1.6060124,224.43091 11.888068,196.30316 32.560018,186.95816 c 6.62406,-2.99447 9.54002,-3.56115 18.48935,-3.5931 14.29475,-0.051 22.38572,2.777 30.14553,10.5368 6.35387,6.35388 8.214735,14.57248 8.214735,14.57248 l -20.067709,6.49658 c -1.88644,-9.20672 -7.276076,-10.29767 -17.667556,-10.34326 -15.01396,-0.0659 -26.0808,13.38518 -29.59144,35.96656 -2.54981,16.401 1.55259,29.82927 10.7843,35.29993 4.74109,2.80955 14.89538,2.84869 20.25318,0.078 7.39451,-3.82385 14.801382,-13.92485 12.076412,-17.20855 -0.80162,-0.96598 -3.609623,-0.67288 -8.795633,-0.67288 -4.61374,0 -8.966929,-0.28179 -9.311329,-0.62619 -0.3444,-0.3444 -0.004,-7.38791 0.75636,-12.02789 l 1.38256,-8.43631 20.3478,-0.34376 c 0,0 16.430064,0.49642 17.678949,0.99065 1.127688,0.44626 2.459489,0.64431 1.840771,3.38435 -7.067717,31.29989 -12.592831,42.85852 -30.239871,51.74542 -10.272619,4.05956 -19.127768,5.68861 -27.72213,3.87045 z m 47.988921,-0.58455 c -0.63929,-1.67123 39.154652,-99.82153 43.397732,-107.3716 2.80753,-4.99568 5.7678,-5.71558 11.86309,-5.27895 3.11102,0.22286 7.89311,1.63023 9.7505,6.09267 2.13456,5.12833 13.71047,104.97624 12.60421,106.76623 -0.46124,0.74629 -4.46493,1.35415 -8.91909,1.35415 -7.52552,0 -8.16613,-0.22084 -9.30123,-3.20638 -0.67049,-1.7635 -1.21906,-5.87475 -1.21906,-9.13608 0,-9.78113 -0.91359,-10.30115 -17.37276,-9.88877 l -14.21737,0.35623 -3.77921,10 c -2.078572,5.5 -4.392672,10.41326 -5.142452,10.91836 -2.38897,1.60938 -17.0088,1.10794 -17.66436,-0.60586 z m 52.544282,-45.63524 -3.58453,-27.80193 -10.28064,27.89559 c 7.48323,-0.0596 7.54976,-0.0937 13.86517,-0.0937 z m 136.30959,45.29597 c -0.98501,-1.59379 16.78724,-107.81958 18.3657,-109.77279 1.59684,-1.97598 52.25963,-2.25946 54.2157,-0.30338 1.352,1.35198 -0.5275,16.79239 -2.39538,19.67838 -0.72897,1.12632 -5.85235,1.5625 -18.35327,1.5625 -19.5232,0 -17.48625,-1.1824 -20.02588,11.6246 -2.09421,10.56074 -1.61916,10.8754 16.41847,10.8754 8.16583,0 14.84695,0.3758 14.84695,0.83511 0,3.99575 -3.1348,17.48585 -4.23119,18.20825 -0.7666,0.5051 -7.9834,0.92698 -16.03734,0.9375 -12.66386,0.0165 -14.7986,0.31486 -15.79067,2.20664 -1.67476,3.19359 -4.28766,19.99 -3.34658,21.51271 0.49132,0.79495 7.30034,1.29979 17.53078,1.29979 10.23044,0 17.03946,0.50484 17.53078,1.29979 1.15071,1.8619 -1.94337,19.14688 -3.62368,20.24357 -2.08601,1.36145 -54.25611,1.16447 -55.10439,-0.20807 z"
     style="fill:#f4f4f4;fill-opacity:1"
     sodipodi:nodetypes="cscsssscsccsccscccssccccsssccsssssssccccssccssscsssscsssssccssssssssscscssssss" />
  <path
     style="fill:#f4f4f4;fill-opacity:1;fill-rule:evenodd;stroke:none;stroke-width:1px;stroke-linecap:butt;stroke-linejoin:miter;stroke-opacity:1"
     d="m 178.17419,199.79908 c 0,0 -0.0623,-15.57039 15.45851,-16.31858 10.89468,-0.52519 13.55606,7.47526 13.55606,7.47526 l 0.92644,3.06897 8.45722,52.70447 23.6,-48.03924 c 0,0 6.40457,-16.77697 18.53406,-14.67423 12.12943,2.10279 12.73642,13.06233 12.73642,13.06233 0,0 0.33189,2.59356 0.38174,6.08282 0.13983,5.50014 -12.03372,82.88191 -13.63988,93.17394 -0.11148,0.71435 -0.50442,0.91028 -0.50442,0.91028 l -1.24465,0.15386 -19.07307,-0.093 c 0,0 -0.42459,-0.0191 -0.72997,-0.41182 -0.0654,-0.58895 -0.10475,-1.20466 -0.10475,-1.20466 l 6.57474,-43.00587 -16.26618,34.71539 c -1.91341,3.45284 -3.25389,9.72789 -13.45191,9.94445 -10.27161,-0.0597 -10.81482,-4.90706 -11.71206,-9.49294 l -6.75803,-37.89715 -8.65298,45.83631 c 0,0 -0.39977,1.59665 -1.35079,1.74296 0,0 -18.63655,-0.44225 -19.41228,-0.51277 -0.38081,-0.25387 -0.40692,-0.22414 -0.49154,-0.60495 0,-0.78983 0.0661,-1.77326 0.0661,-1.77326 z"
     id="path4787"
     inkscape:connector-curvature="0"
     sodipodi:nodetypes="csccccsccscccccccccccccccc" />
  <path
     sodipodi:nodetypes="cssssccsssssssccccssccsssscsssscsssscccssssssssscscsssss"
     style="fill:#f4f4f4;fill-opacity:1"
     d="m 129.61464,418.00357 c -18.49154,-4.12446 -29.31178,-17.56666 -30.745962,-42.07717 -1.759882,-30.07628 11.734192,-58.20403 32.406142,-67.54903 6.62406,-2.99447 9.54002,-3.56115 18.48935,-3.5931 14.29475,-0.051 22.38572,2.777 30.14553,10.5368 6.35387,6.35388 8.21473,14.57248 8.21473,14.57248 l -20.06771,6.49658 c -1.88644,-9.20672 -7.27607,-10.29767 -17.66755,-10.34326 -15.01396,-0.0659 -26.0808,13.38518 -29.59144,35.96656 -2.54981,16.401 1.55259,29.82927 10.7843,35.29993 4.74109,2.80955 14.89538,2.84869 20.25318,0.078 7.39451,-3.82385 14.80138,-13.92485 12.07641,-17.20855 -0.80162,-0.96598 -3.60962,-0.67288 -8.79563,-0.67288 -4.61374,0 -8.96693,-0.28179 -9.31133,-0.62619 -0.3444,-0.3444 -0.004,-7.38791 0.75636,-12.02789 l 1.38256,-8.43631 20.3478,-0.34376 c 0,0 16.8264,-0.0472 17.67895,0.99065 0.68574,1.24176 1.84077,3.38435 1.84077,3.38435 -5.54632,31.60497 -12.82729,42.79544 -30.47433,51.68234 -9.83643,4.95355 -17.84989,6.07234 -27.72213,3.87039 z m 120.22338,-0.52147 c -0.63929,-1.67123 39.15465,-99.82153 43.39773,-107.3716 2.80753,-4.99568 5.7678,-5.71558 11.86309,-5.27895 3.11102,0.22286 7.89311,1.63023 9.7505,6.09267 2.13456,5.12833 13.71047,104.97624 12.60421,106.76623 -0.46124,0.74629 -4.46493,1.35415 -8.91909,1.35415 -7.52552,0 -8.16613,-0.22084 -9.30123,-3.20638 -0.67049,-1.7635 -1.21906,-5.87475 -1.21906,-9.13608 0,-9.78113 -0.91359,-10.30117 -17.37276,-9.88877 l -14.21737,0.35623 -3.77921,10 c -2.07857,5.5 -4.39267,10.41326 -5.14245,10.91836 -2.38897,1.60938 -17.0088,1.10794 -17.66436,-0.60586 z m 52.54428,-45.63524 -3.58453,-27.80193 -10.28064,27.89559 c 7.48323,-0.0596 7.54976,-0.0937 13.86517,-0.0937 z m -114.73231,46.03303 c -0.98501,-1.59379 16.78724,-107.81958 18.3657,-109.77279 1.59684,-1.97598 52.25963,-2.25946 54.2157,-0.30338 1.352,1.35198 -0.5275,16.79239 -2.39538,19.67838 -0.72897,1.12632 -5.85235,1.5625 -18.35327,1.5625 -19.5232,0 -17.48625,-1.1824 -20.02588,11.6246 -2.09421,10.56074 -1.61916,10.8754 16.41847,10.8754 8.16583,0 14.84695,0.3758 14.84695,0.83511 0,3.99575 -3.1348,17.48585 -4.23119,18.20825 -0.7666,0.5051 -7.9834,0.92698 -16.03734,0.9375 -12.66386,0.0165 -14.7986,0.31486 -15.79067,2.20664 -1.67476,3.19359 -4.28766,19.99 -3.34658,21.51271 0.49132,0.79495 7.30034,1.29979 17.53078,1.29979 10.23044,0 17.03946,0.50484 17.53078,1.29979 1.15071,1.8619 -1.94337,19.14688 -3.62368,20.24357 -2.08601,1.36145 -54.25611,1.16447 -55.10439,-0.20807 z"
     id="path4789"
     inkscape:connector-curvature="0" />
  <path
     style="fill:#0099ff;fill-opacity:1"
     d="m 300.33004,149.29816 c -7.7589,-2.35683 -12.96926,-10.657 -12.98737,-20.68909 -0.014,-7.78061 5.11753,-23.55399 11.89228,-36.554393 19.55516,-37.525372 55.80126,-72.361029 90.84582,-87.3107609 18.1194,-7.729592 30.99167,-5.982256 36.93528,5.013747 5.18595,9.5943079 1.58114,28.8804519 -9.25915,49.5374139 -15.64723,29.81693 -50.01578,65.310603 -78.00325,80.556813 -15.15946,8.25814 -30.91037,12.0322 -39.42361,9.44627 z"
     id="path4791"
     inkscape:connector-curvature="0"
     sodipodi:nodetypes="ssssssss" />
</svg>
