<?xml version="1.0" encoding="UTF-8" standalone="no"?>
<!-- Generator: Adobe Illustrator 13.0.0, SVG Export Plug-In . SVG Version: 6.00 Build 14948)  -->

<svg
   xmlns:dc="http://purl.org/dc/elements/1.1/"
   xmlns:cc="http://creativecommons.org/ns#"
   xmlns:rdf="http://www.w3.org/1999/02/22-rdf-syntax-ns#"
   xmlns:svg="http://www.w3.org/2000/svg"
   xmlns="http://www.w3.org/2000/svg"
   xmlns:sodipodi="http://sodipodi.sourceforge.net/DTD/sodipodi-0.dtd"
   xmlns:inkscape="http://www.inkscape.org/namespaces/inkscape"
   id="Layer_1"
   xml:space="preserve"
   height="308.50784"
   viewBox="0.001 -1 865.49434 308.50783"
   width="865.50043"
   version="1.2"
   y="0px"
   x="0px"
   inkscape:version="0.91 r13725"
   sodipodi:docname="logo.svg"><defs
     id="defs8122" /><sodipodi:namedview
     pagecolor="#ffffff"
     bordercolor="#666666"
     borderopacity="1"
     objecttolerance="10"
     gridtolerance="10"
     guidetolerance="10"
     inkscape:pageopacity="0"
     inkscape:pageshadow="2"
     inkscape:window-width="1680"
     inkscape:window-height="975"
     id="namedview8120"
     showgrid="false"
     showguides="true"
     inkscape:guide-bbox="true"
     inkscape:zoom="1.0226352"
     inkscape:cx="388.43691"
     inkscape:cy="111.54388"
     inkscape:window-x="1671"
     inkscape:window-y="-9"
     inkscape:window-maximized="1"
     inkscape:current-layer="layer1"
     fit-margin-top="0"
     fit-margin-left="0"
     fit-margin-right="0"
     fit-margin-bottom="0"><sodipodi:guide
       position="621.00062,386.58426"
       orientation="0,1"
       id="guide9256" /></sodipodi:namedview><metadata
     id="metadata22"><rdf:RDF><cc:Work
         rdf:about=""><dc:format>image/svg+xml</dc:format><dc:type
           rdf:resource="http://purl.org/dc/dcmitype/StillImage" /><dc:title></dc:title></cc:Work></rdf:RDF></metadata><g
     inkscape:groupmode="layer"
     id="layer1"
     inkscape:label="Layer 1"
     transform="translate(210.38496,-420.80135)"><g
       id="g7086"><path
         sodipodi:nodetypes="cccccccccccccsssscccc"
         inkscape:connector-curvature="0"
         id="path5930"
         d="m 63.054411,423.60135 c -1.506517,1.9e-4 -2.843124,0.96638 -3.315733,2.39685 l -0.783472,2.36976 -28.003819,84.63244 -234.045557,0.002 c -1.92829,3.9e-4 -3.49138,1.56348 -3.49177,3.49177 l 0,204.52324 c 3.9e-4,1.92829 1.56348,3.49139 3.49177,3.49177 l 850.9169,0 c 1.92829,-3.8e-4 3.49138,-1.56348 3.49177,-3.49177 l 0,-204.52324 c -3.9e-4,-1.92829 -1.56348,-3.49138 -3.49177,-3.49177 l -245.21912,-0.002 c -0.70636,-2.2196 -6.5328,-20.5315 -13.18168,-41.35187 -3.52009,-11.02283 -7.07097,-22.12089 -9.80405,-30.6212 -1.36653,-4.25015 -2.52865,-7.84983 -3.3815,-10.46951 -0.42643,-1.30984 -0.77431,-2.37509 -1.03496,-3.15904 -0.26065,-0.78396 -0.35876,-1.11064 -0.5552,-1.60177 -0.53023,-1.32589 -1.81424,-2.19543 -3.24222,-2.19566 l -305.395607,0 z"
         style="opacity:1;fill:#e80000;fill-opacity:1;fill-rule:evenodd;stroke:none;stroke-width:9;stroke-linecap:round;stroke-linejoin:round;stroke-miterlimit:4;stroke-dasharray:none;stroke-opacity:1" /><path
         inkscape:connector-curvature="0"
         id="path7082"
         d="m 63.054688,419.10156 c -3.430203,4.4e-4 -6.5118,2.22732 -7.587891,5.48438 L 54.683594,426.95508 27.701172,508.5 -203.09375,508.502 a 4.50045,4.50045 0 0 0 -0.002,0 c -4.35963,8.8e-4 -7.98936,3.63256 -7.99024,7.99219 l 0,204.52344 c 8.8e-4,4.35962 3.63058,7.99133 7.99024,7.99219 a 4.50045,4.50045 0 0 0 0.002,0 l 850.91602,0 a 4.50045,4.50045 0 0 0 0.002,0 c 4.35965,-8.6e-4 7.98935,-3.63257 7.99023,-7.99219 l 0,-204.52344 c -8.8e-4,-4.35963 -3.63061,-7.99131 -7.99023,-7.99219 a 4.50045,4.50045 0 0 0 -0.002,0 L 405.89258,508.5 c -1.3475,-4.23432 -6.03821,-18.97699 -12.1836,-38.2207 -3.52059,-11.02442 -7.07185,-22.12329 -9.80664,-30.62891 -1.36745,-4.25303 -2.53073,-7.85702 -3.38672,-10.48633 -0.42712,-1.31196 -0.77742,-2.381 -1.04492,-3.18554 -0.24899,-0.74891 -0.38685,-1.20225 -0.64648,-1.85157 l 0,-0.002 c -1.20879,-3.02079 -4.16616,-5.02291 -7.41992,-5.02344 l -305.396488,0 -2.953124,0 z m 0.728515,9 2.224609,0 304.677738,0 c 0.0671,0.19822 0.10158,0.28214 0.24609,0.7168 0.2538,0.76336 0.59965,1.8251 1.02539,3.13281 0.84972,2.61006 2.01135,6.20586 3.37695,10.45313 2.73138,8.49499 6.2812,19.59204 9.80079,30.61328 6.64803,20.81771 12.47487,39.12678 13.18164,41.34765 a 4.50045,4.50045 0 0 0 4.28711,3.13477 l 244.21093,0.002 0,202.50782 -848.90039,0 0,-202.50782 233.037112,-0.002 a 4.50045,4.50045 0 0 0 4.271484,-3.08594 l 28.003906,-84.63281 a 4.50045,4.50045 0 0 0 0.002,0 l 0.554687,-1.67969 z"
         style="color:#000000;font-style:normal;font-variant:normal;font-weight:normal;font-stretch:normal;font-size:medium;line-height:normal;font-family:sans-serif;text-indent:0;text-align:start;text-decoration:none;text-decoration-line:none;text-decoration-style:solid;text-decoration-color:#000000;letter-spacing:normal;word-spacing:normal;text-transform:none;direction:ltr;block-progression:tb;writing-mode:lr-tb;baseline-shift:baseline;text-anchor:start;white-space:normal;clip-rule:nonzero;display:inline;overflow:visible;visibility:visible;opacity:1;isolation:auto;mix-blend-mode:normal;color-interpolation:sRGB;color-interpolation-filters:linearRGB;solid-color:#000000;solid-opacity:1;fill:#ffb100;fill-opacity:1;fill-rule:evenodd;stroke:none;stroke-width:9;stroke-linecap:round;stroke-linejoin:round;stroke-miterlimit:4;stroke-dasharray:none;stroke-dashoffset:0;stroke-opacity:1;color-rendering:auto;image-rendering:auto;shape-rendering:auto;text-rendering:auto;enable-background:accumulate" /></g></g><g
     inkscape:groupmode="layer"
     id="layer2"
     inkscape:label="Layer 2"
     transform="translate(210.38496,-420.80135)"><path
       style="fill:#ffffff;fill-opacity:1"
       d="m -149.93928,697.09276 c -15.53866,-1.18302 -24.07935,-9.63937 -27.55765,-27.2855 -1.38088,-7.00549 -1.64883,-15.81816 -1.79173,-58.92879 -0.0963,-29.04873 0.007,-31.95116 1.33011,-37.30572 0.61717,-2.49802 2.06446,-6.1943 3.67327,-9.38128 3.37434,-6.68443 11.08561,-13.65788 17.94613,-16.22904 0.91483,-0.34285 2.09103,-0.80909 2.61378,-1.03609 5.50399,-2.38997 17.78067,-3.3644 27.08823,-2.15005 6.48592,0.84621 6.27321,0.80556 9.63026,1.84035 13.54422,4.17491 21.644571,12.88963 24.166701,25.99962 0.71178,3.69984 1.07767,24.1288 0.45033,25.14385 -0.2233,0.36133 -4.95178,0.44163 -15.831031,0.26886 -8.53194,-0.13549 -15.58925,-0.32297 -15.68291,-0.41664 -0.0937,-0.0937 -0.23442,-4.10807 -0.3128,-8.92093 -0.17686,-10.86001 -0.76532,-13.09221 -4.17985,-15.85546 -1.80945,-1.46431 -6.03312,-2.18533 -9.07984,-1.55 -4.05227,0.84502 -6.64296,4.1703 -7.70055,9.88404 -0.22927,1.23866 -0.27977,24.59208 -0.0985,45.55558 -0.18419,11.16749 -0.0827,15.315 0.0635,25.11597 0.0918,6.68892 0.37661,12.01514 0.69693,13.03169 1.47199,4.67146 4.56763,6.84165 9.6547,6.7684 4.5466,-0.0654 7.32825,-1.52178 8.92582,-4.67307 1.1495,-2.26746 1.19592,-2.69217 1.14284,-10.4551 -0.0304,-4.45041 -0.0839,-9.52858 -0.11881,-11.28483 l -0.0635,-3.19319 -5.8216,-0.13343 -5.82159,-0.13344 -0.1261,-13.66292 -0.12609,-13.66293 2.26463,-0.01 c 24.04661,-0.10616 41.762691,0.1113 42.169021,0.51763 0.58697,0.58697 0.66275,4.31311 0.69953,34.39817 0.0175,14.3222 0.19803,23.0891 0.4697,22.81114 0.42739,-0.43728 1.95605,-8.04339 4.57975,-22.78738 0.69768,-3.92066 1.34654,-7.71975 1.44192,-8.44241 0.0954,-0.72266 0.8454,-4.57204 1.66674,-8.55417 0.82133,-3.98214 1.54485,-7.77489 1.60782,-8.42834 0.063,-0.65344 0.26242,-2.04349 0.44323,-3.089 0.18082,-1.04552 0.75767,-4.36026 1.28191,-7.3661 0.52424,-3.00585 1.25152,-7.17601 1.61617,-9.26703 2.27613,-13.05171 3.79262,-21.48687 5.93798,-33.02863 1.94054,-10.43991 4.2696,-25.22554 4.2696,-25.61632 0,-0.61865 44.54473,-0.522 44.92759,0.0975 0.17153,0.27754 1.04879,6.18082 1.94947,10.93481 2.70992,14.30354 6.82125,36.417 7.57098,40.72177 1.03965,5.96943 3.96898,21.29867 4.5407,23.7616 0.27303,1.1762 0.67991,3.20782 0.90418,4.51471 0.76546,4.46057 5.65587,29.92156 7.30239,38.01857 0.90357997,4.44342 1.77972997,8.82744 1.94701997,9.74226 0.1673,0.91482 0.42152003,2.19795 0.56493703,2.85139 0.73211,3.33562 0.989415,-2.00567 0.812714,-16.87074 C 1.624242,619.43413 1.553965,546.92929 1.98807,546.11815 c 0.437394,-0.81728 1.707619,-0.84459 26.448836,-0.56866 14.294155,0.15942 26.122046,-0.24268 26.284209,-0.0622 0.162159,0.18053 0.776577,6.29602 1.365366,10.73944 0.588793,4.44342 1.13657,8.44128 1.217283,8.88414 0.08072,0.44286 0.285059,2.26062 0.454094,4.03947 0.169035,1.77886 0.405145,3.84867 0.524689,4.5996 0.11954,0.75093 1.383525,10.16052 2.808855,20.91022 3.102444,23.39835 3.538474,26.17057 4.034175,25.64868 0.209492,-0.22055 0.831575,-4.03653 1.382402,-8.47995 0.550833,-4.44342 1.538199,-12.24911 2.194147,-17.34598 0.65595,-5.09686 1.38833,-11.08479 1.627514,-13.3065 0.364119,-3.38227 1.466001,-12.00376 3.806619,-29.78433 0.212405,-1.61354 0.53466,-5.31184 0.716123,-5.60546 0.238395,-0.38572 4.768427,-0.46649 16.327299,-0.2911 8.798552,0.13351 20.537269,-0.028 26.086039,-0.003 5.54877,0.0254 10.17584,-0.0981 10.28237,0.0819 0.33682,0.56904 0.81918,146.49389 0.48978,148.13126 l -0.41159,1.17425 -15.16443,0.15427 c -9.43851,0.096 -15.628908,-0.22326 -15.904628,-0.51531 -0.52678,-0.55799 -0.986325,-33.34344 -1.079114,-76.98761 -0.03555,-16.72817 -0.202558,-31.59105 -0.371095,-33.02863 l -0.306429,-2.61378 -0.810628,4.27709 c -0.445843,2.3524 -1.237899,6.95027 -1.760117,10.21749 -1.933377,12.09592 -3.341181,20.86622 -4.500757,28.0387 -1.849105,11.43751 -3.840137,23.9308 -5.718122,35.88002 -0.944823,6.01169 -2.144309,13.4966 -2.66552,16.63313 -0.521215,3.13653 -1.362942,8.25215 -1.870499,11.36804 -0.507557,3.11589 -1.089417,5.82869 -1.293026,6.02845 -0.203604,0.19976 -4.326499,0.39485 -9.161987,0.43353 -13.221343,0.10576 -12.356036,0.19003 -12.356036,-1.20335 0,-0.65699 -0.204653,-1.56587 -0.454787,-2.01973 -0.250134,-0.45387 -1.007488,-4.13995 -1.683002,-8.19131 -0.675514,-4.05135 -1.539828,-8.86308 -1.920698,-10.69272 -0.38087,-1.82964 -0.918182,-4.82361 -1.194025,-6.65325 -0.275844,-1.82964 -0.689639,-4.18204 -0.919542,-5.22755 -0.229898,-1.04552 -0.873396,-4.57411 -1.429987,-7.84133 -0.556597,-3.26723 -1.413763,-8.29281 -1.904825,-11.16796 -0.491058,-2.87515 -1.341186,-7.90073 -1.889176,-11.16795 -0.547986,-3.26723 -1.205227,-7.00968 -1.460541,-8.31657 -0.255309,-1.30689 -0.763118,-4.30085 -1.128466,-6.65325 -0.365349,-2.3524 -1.752191,-10.65116 -3.081871,-18.44168 -1.329676,-7.79053 -2.417596,-14.36655 -2.417596,-14.61339 0,-0.24684 -0.237783,-0.44879 -0.528406,-0.44879 -0.386682,0 -0.436401,15.1047 -0.185379,56.31501 l 0.343032,56.315 -14.428014,0.0603 c -7.935403,0.0332 -22.544818,0.0866 -32.465348,0.11881 l -18.03733,0.0585 -0.57406,-3.56424 c -1.20129,-7.45865 -1.8942,-12.54489 -2.3631,-17.34597 -0.53188,-5.44594 0.58184,-5.0256 -12.92842,-4.87939 l -11.74086,0.12706 -1.58356,12.35604 c -1.16452,9.08647 -1.77556,12.50568 -2.30915,12.92154 -0.85456,0.66601 -58.248691,0.65633 -58.917041,-0.01 -0.21787,-0.21719 -0.46905,-2.62305 -0.55819,-5.34636 -0.0891,-2.7233 -0.32446,-4.95146 -0.52296,-4.95146 -0.19849,0 -0.87405,0.67302 -1.50124,1.49559 -1.58158,2.07426 -5.8157,6.06973 -7.54995,7.12439 -4.94878,3.00953 -12.64419,4.6753 -19.26871,4.17094 z m 112.408171,-55.1044 c 0,-0.79394 -0.41362,-4.91064 -0.91915,-9.14822 -0.50554,-4.23759 -1.03974,-8.77398 -1.18711,-10.08087 -0.14737,-1.30688 -0.4793,-4.19392 -0.73762,-6.41563 -0.25832,-2.22171 -0.57611,-5.00182 -0.70621,-6.17802 -0.1301,-1.1762 -0.56076,-5.02558 -0.95703,-8.55417 -0.39627,-3.5286 -1.03716,-9.51653 -1.42421,-13.3065 -1.1548,-11.308 -1.67528,-15.297 -2.09343,-16.04419 -0.44472,-0.79468 -1.07734,2.93191 -2.23957,13.19279 -1.36768,12.07477 -2.11666,18.77475 -2.78909,24.94969 -0.37001,3.39791 -0.90565,7.88885 -1.19029,9.97987 -0.28464,2.09103 -0.63202,4.97806 -0.77195,6.41564 -0.30864,3.17083 -1.00226,9.32582 -1.42915,12.68189 -0.52198,4.10366 -0.84413,3.95123 8.35095,3.95123 l 8.09386,0 z m 306.201339,53.88089 c -7.36487,-1.49223 -14.48727,-7.04475 -17.88586,-13.94357 -2.17507,-4.41519 -3.93274,-11.23829 -4.62214,-17.94267 -0.35539,-3.45611 -0.46414,-17.77533 -0.33653,-44.31274 0.21681,-45.08502 0.0589,-43.32309 4.72512,-52.73151 2.12259,-4.27976 3.06375,-5.57022 6.77098,-9.28397 3.6125,-3.61884 5.03258,-4.67311 8.82042,-6.54828 8.39872,-4.15778 13.47266,-6.86349 23.99923,-6.89554 11.65079,-0.0355 17.70178,2.6661 24.94969,6.19699 4.40944,2.14813 8.34117,5.28945 10.80188,8.63033 2.81323,3.81954 3.66912,5.56973 5.17385,10.57941 1.18024,3.92926 1.27386,4.94653 1.49061,16.19228 l 0.2313,11.99961 -9.20525,0.0578 c -5.06288,0.0317 -12.19921,0.0852 -15.85849,0.11881 l -6.65325,0.061 -0.2524,-9.02941 c -0.28443,-10.17474 -0.74749,-12.3104 -3.20126,-14.76419 -2.00058,-2.00058 -4.66374,-2.76022 -8.58488,-2.44876 -3.69393,0.29341 -5.80963,1.79101 -7.92121,5.60704 l -1.4257,2.5765 0,42.29566 0,42.29566 1.12685,2.28871 c 2.07554,4.21558 6.81862,6.00021 12.29119,4.62467 3.31308,-0.83275 5.11521,-2.41919 6.27781,-5.52647 0.91825,-2.4543 0.98459,-3.48228 0.86678,-13.42791 l -0.12765,-10.77014 -5.82159,-0.13344 -5.82159,-0.13343 0,-13.29187 0,-13.29188 18.89047,-0.0667 c 10.38977,-0.0367 19.95975,-0.10219 21.26664,-0.14557 1.30689,-0.0434 2.7516,0.0119 3.21053,0.12282 0.7886,0.19064 0.82766,2.39242 0.71285,40.18387 l -0.12152,39.98218 -9.30258,0.0506 c -5.11644,0.0279 -11.74593,-0.0791 -14.73219,-0.23761 l -5.42962,-0.28825 -0.1344,-5.34636 c -0.0739,-2.9405 -0.30039,-5.34637 -0.50337,-5.34637 -0.20297,0 -1.37674,1.16722 -2.60835,2.59382 -3.06368,3.54864 -7.08282,6.52707 -10.77323,7.98367 -5.66074,2.23427 -13.64182,2.81079 -20.28314,1.46516 z M 136.18111,689.0046 c -0.17954,-3.23996 -0.36326,-36.25405 -0.40827,-73.36464 l -0.0818,-70.2224 7.60371,-0.11894 c 4.1818,-0.0654 20.89218,0.0323 37.13362,0.0491 28.53417,0.0295 29.53781,0.0608 29.76457,0.92789 0.12906,0.49355 0.26441,9.82205 0.30077,17.03467 l 0.0661,13.11385 -4.16814,0.0336 c -2.29248,0.0185 -8.44523,0.10843 -13.67278,0.19992 -5.22755,0.0915 -12.66209,0.18332 -16.52118,0.20405 l -7.01655,0.0377 0.12568,14.61339 0.12567,14.61339 17.94002,0.12453 c 9.86701,0.0685 17.95037,0.17541 17.96304,0.23761 0.0126,0.0622 0.14773,6.15039 0.30015,13.52932 0.23065,11.16588 0.167,13.45678 -0.37945,13.65805 -0.36112,0.133 -8.35753,0.30664 -17.76981,0.38586 -9.41229,0.0792 -17.38454,0.3117 -17.71613,0.51663 -0.47729,0.29498 -0.54032,3.65661 -0.30259,16.13754 0.16515,8.67072 0.3978,15.92533 0.517,16.12137 0.11919,0.19603 9.79325,0.35642 21.49789,0.35642 l 21.28118,0 0.31927,13.14266 c 0.17559,7.22846 0.26336,14.36192 0.19503,14.42685 -0.32262,0.30656 -11.07055,0.24823 -39.05432,0.19892 l -37.71622,-0.0665 -0.32644,-5.89085 z m 204.0815,-56.34803 c -0.0209,-82.6222 -0.01,-86.64073 0.41065,-87.06138 0.19984,-0.19981 17.03375,-0.21373 37.40875,-0.27969 l 37.04549,-0.11993 0.12622,15.2771 c 0.0625,7.56286 -0.0447,13.92154 -0.25372,14.13053 -0.20901,0.20899 -9.03383,0.40893 -19.61074,0.44431 -10.57696,0.0354 -19.76543,0.20908 -20.41888,0.386 l -1.18808,0.32169 -0.0934,13.52216 c -0.0514,7.43719 0.0157,14.16373 0.14927,14.94786 l 0.24261,1.4257 18.0284,-0.16303 18.02836,-0.16302 0,14.06356 0,14.06357 -1.30689,0.009 c -6.38222,0.0456 -34.60103,0.60453 -34.69755,0.68727 -0.13197,0.11313 -0.25748,21.85284 -0.16685,28.90688 l 0.0536,4.17856 21.14065,-0.22413 c 11.63321,-0.12333 21.25471,-0.0396 21.39424,0.1862 0.13948,0.22568 0.32311,4.16898 0.40808,8.76289 0.085,4.59391 0.27426,8.47237 0.42073,8.61881 0.31346,0.31347 1.35831,-4.14234 2.68354,-11.44393 0.52185,-2.87515 2.14805,-11.75011 3.61376,-19.72213 1.46576,-7.97202 3.51329,-19.19938 4.55011,-24.94969 1.03681,-5.75031 2.1931,-12.05901 2.56953,-14.01935 1.1216,-5.84081 6.45194,-36.4716 7.19487,-41.34519 0.37853,-2.48309 0.87153,-5.2632 1.09565,-6.17802 0.22407,-0.91482 1.11404,-5.78155 1.97773,-10.81494 0.86364,-5.0334 1.81173,-10.62593 1.95667,-10.84909 0.14495,-0.22315 10.31432,-0.11481 22.59948,-0.13266 l 22.18325,-0.0322 0.60474,3.05725 c 0.26091,1.31905 2.40691,12.32039 4.64597,24.47446 2.23905,12.15406 4.81058,25.94767 5.71457,30.65247 0.90399,4.7048 2.387,12.61741 3.29564,17.58359 5.55119,30.34064 10.7009,56.46988 11.23696,57.01541 0.28951,0.29464 0.35999,-18.93526 0.19404,-52.92554 -0.38159,-18.03946 -0.0183,-34.89506 0.15724,-52.5471 -0.0457,-6.72995 -0.19819,-26.69943 0.19391,-27.09166 0.0911,-0.0911 10.51288,-0.0642 23.43137,-0.0557 26.08369,0.0171 33.96903,0.0189 41.73522,1.9875 6.75243,1.71166 9.71579,3.24801 13.71748,7.11183 4.1475,4.00458 6.93316,9.9769 7.85635,16.84353 0.19328,1.43758 0.34844,6.89087 0.34473,12.11842 -0.005,7.25394 -0.20311,10.40492 -0.83622,13.3065 -1.84627,8.46185 -6.01525,13.80077 -13.61887,17.44079 -2.34802,1.12405 -4.21583,2.23112 -4.15067,2.46016 0.0651,0.22905 1.39252,0.88038 2.94981,1.44741 6.97161,2.53853 12.06638,7.75053 14.21034,14.5374 1.30081,4.11772 1.27044,2.87883 1.22587,50.07595 l 0.0858,12.31139 -16.25952,0.0271 c -9.05076,0.0151 -16.91824,-0.0526 -17.12948,-0.26883 -0.21129,-0.21622 -0.48112,-13.64204 -0.59969,-28.40987 -0.15488,-19.29813 -0.37929,-27.38229 -0.79777,-28.74083 -0.75448,-2.44923 -3.5584,-5.22939 -5.95376,-5.90332 -2.46992,-0.69489 -9.73755,-1.21908 -11.33681,-0.81769 l -1.25204,0.31424 0.0223,13.15227 c 0.0151,8.92214 -0.0486,9.09932 -0.1094,13.01723 0.0223,7.67162 0.0965,13.43949 0.0933,19.16823 l 0,17.26253 -0.19467,0.97601 c -0.11701,0.5866 -15.17121,0.059 -32.88197,0.12603 -26.16633,0.099 -33.31468,0.10218 -33.50706,-0.40243 -0.13016,-0.34178 -1.12447,-6.86187 -1.97205,-13.65769 l -1.54099,-12.35604 -11.72298,0 c -6.44761,0 -11.87011,0.14744 -12.05003,0.32764 -0.29507,0.2956 -1.66935,9.5407 -3.14299,21.14374 l -0.55413,5.04327 -3.98896,-0.0427 c -2.24737,0.0834 -24.58272,0.0358 -52.48491,0.0152 l -53.16047,-0.0393 -0.0157,-62.17283 z m 133.55311,8.25652 c 0,-0.83638 -0.43569,-5.04929 -0.96467,-9.36202 -0.52898,-4.31273 -1.17173,-9.55217 -1.42826,-11.64319 -0.25658,-2.09102 -0.77596,-6.58196 -1.15425,-9.97987 -0.37823,-3.39791 -1.33773,-11.82372 -2.13217,-18.72402 -0.79445,-6.90029 -1.56998,-13.79599 -1.72339,-15.32378 -0.1534,-1.52779 -0.44681,-3.367 -0.65206,-4.08713 l -0.37311,-1.30934 -0.28081,1.18808 c -0.15445,0.65344 -0.52157,3.43355 -0.81583,6.17802 -0.76703,7.15343 -1.23014,11.25576 -2.0924,18.53405 -0.41802,3.5286 -1.17311,9.94423 -1.678,14.25697 -0.50489,4.31273 -1.36662,11.58378 -1.91495,16.15789 -0.54832,4.57411 -1.12159,9.95689 -1.2739,11.96174 l -0.27702,3.64518 1.37224,0.15668 c 0.75471,0.0862 4.52653,0.0925 8.38186,0.0141 l 7.00967,-0.14263 -0.005,-1.52069 z m 87.98191,-36.84807 c 4.09736,-1.99941 5.58047,-6.43012 5.58047,-16.67143 0,-3.31824 0.0477,-6.23495 0.10607,-6.48157 0.0584,-0.24662 -0.0185,-0.76919 -0.17085,-1.16125 -0.15231,-0.39207 -0.51924,-1.50144 -0.81535,-2.46528 -0.7417,-2.41425 -2.12044,-4.03307 -4.44984,-5.22479 -1.62739,-0.83256 -2.9308,-1.02739 -7.40873,-1.10743 -2.98868,-0.0534 -5.82226,0.004 -6.29682,0.12852 -0.81317,0.21264 -0.86293,1.19272 -0.86293,17.00136 0,12.959 0.13516,16.83746 0.59404,17.04711 0.32672,0.14927 3.08084,0.19876 6.12023,0.10997 4.45003,-0.13 5.9308,-0.35886 7.60371,-1.17521 z M 605.162,560.04787 c -0.14642,-0.38149 -0.30011,-3.10814 -0.34155,-6.05921 l -0.0753,-5.3656 -1.97083,-0.14374 c -1.489,-0.1086 -2.03053,-0.37206 -2.21506,-1.07763 -0.45741,-1.74918 0.64442,-2.13746 5.79736,-2.04299 5.84664,0.10719 6.18229,0.21004 5.8781,1.80121 -0.20388,1.06662 -0.47357,1.22554 -2.07981,1.22554 -2.08969,0 -1.89575,-0.66619 -2.07505,7.12848 -0.0511,2.22171 -0.12727,4.30679 -0.16928,4.63351 -0.10674,0.82984 -2.42416,0.74588 -2.74855,-0.0996 z m 8.7964,-0.34409 c -0.20273,-4.1529 -0.23966,-12.21419 -0.06,-13.10045 0.18833,-0.92915 0.51387,-1.06928 2.48375,-1.06928 2.50367,0 2.25403,-0.31126 4.09759,5.10875 0.46673,1.37223 0.99429,2.49497 1.17231,2.49497 0.37348,0 1.09161,-1.73762 1.91737,-4.63916 0.74364,-2.61301 1.3325,-3.05469 3.83289,-2.87479 l 2.05485,0.14785 0.13687,6.41563 c 0.16467,7.71955 0.0124,8.55418 -1.56256,8.55418 -1.43634,0 -1.62278,-0.67109 -1.78222,-6.41563 l -0.11871,-4.27709 -1.37946,4.27709 c -1.76672,5.47772 -2.19904,6.41563 -2.95718,6.41563 -0.74811,0 -1.33259,-1.03181 -2.32355,-4.10165 -0.41084,-1.27269 -1.11195,-3.27633 -1.55809,-4.45253 l -0.81113,-2.13854 -0.23762,5.22755 -0.23761,5.22756 -1.30689,0.15037 c -1.08111,0.12439 -1.31616,-0.0398 -1.36064,-0.95046 z"
       id="path9254"
       inkscape:connector-curvature="0"
       sodipodi:nodetypes="csscsscssscscssssccscssscccccssssscscssssscssssscsssscscssscsssscsscscsssscssssssssssssssssssssssscsscssscssccsssccsssssssssssssscscsssssssssssccccsssscccsscscccccsccsccscsssscccscsscscssscccscscssscscssscccccscscsccscccccccsccscscssssscscscssssccccsssscsscssccscsssscscccsscscscsccsccccsccssccssssscccccccssccssscsssscscscscsscccccscssscssscsssccccscc" /><path
       style="opacity:1;fill:#ffffff;fill-opacity:1;fill-rule:evenodd;stroke:none;stroke-width:1;stroke-linecap:round;stroke-linejoin:round;stroke-miterlimit:4;stroke-dasharray:none;stroke-opacity:1"
       d="m 80.264075,453.48732 59.826515,-9.59619 -0.0226,14.85416 -11.29977,8.15698 -27.12959,0.0942 -5.065198,3.71833 28.488678,15.61239 5.98096,14.87 -1.38833,17.08162 -57.667368,8.99643 0.01491,-9.90574 -0.01311,-3.04588 0.08411,-1.8387 40.293038,-7.07371 3.99208,-4.72526 -33.573001,-11.52123 z"
       id="rect4744"
       inkscape:connector-curvature="0"
       sodipodi:nodetypes="ccccccccccccccccc" /><path
       style="opacity:1;fill:#ffffff;fill-opacity:1;fill-rule:evenodd;stroke:none;stroke-width:1;stroke-linecap:round;stroke-linejoin:round;stroke-miterlimit:4;stroke-dasharray:none;stroke-opacity:1"
       d="m 155.20216,450.41 56,0 0,16.25 -42.625,2.5 3.48334,12.98963 29.98627,0.92921 -0.0101,5.56644 -29.2335,1.59678 -5.35105,12.91794 43.75,10 0,6.5 -56,0 z"
       id="rect4753"
       inkscape:connector-curvature="0"
       sodipodi:nodetypes="ccccccccccccc" /><path
       style="opacity:1;fill:#ffffff;fill-opacity:1;fill-rule:evenodd;stroke:none;stroke-width:1;stroke-linecap:round;stroke-linejoin:round;stroke-miterlimit:4;stroke-dasharray:none;stroke-opacity:1"
       d="m 227.32334,452.15015 54.015,0 0,15.6538 -38.58118,0.39369 0.17515,35.82204 14.40828,-2.34654 -10.53519,-12.66364 0.002,-5.79619 23.74459,-1.35553 10.78682,37.08954 -54.015,0 z"
       id="rect4757"
       inkscape:connector-curvature="0"
       sodipodi:nodetypes="cccccccccccc" /><path
       style="opacity:1;fill:#ffffff;fill-opacity:1;fill-rule:evenodd;stroke:none;stroke-width:1;stroke-linecap:round;stroke-linejoin:round;stroke-miterlimit:4;stroke-dasharray:none;stroke-opacity:1"
       d="m 314.66564,448.17932 25.63624,5.5862 12.59627,75.88231 -34.96403,-10.34347 -0.0111,-4.60877 10.38165,-12.81809 -4.98012,-16.29905 -5.24683,16.65953 -11.07245,27.40985 -17.16722,0 z"
       id="rect4760"
       inkscape:connector-curvature="0"
       sodipodi:nodetypes="ccccccccccc" /><path
       style="fill:#25359b;fill-opacity:1"
       inkscape:connector-curvature="0"
       d="m 303.97375,454.53666 -24.65793,75.12526 12.17509,0 24.7098,-72.54224 c 0.89904,-3.31607 3.60653,-5.73657 6.78775,-5.73657 3.21927,0 5.9233,2.4205 6.8258,5.73657 l 20.88888,61.36301 -32.77696,0 0,11.17578 48.77298,0 -24.6614,-75.12526 c -2.36516,-8.28501 -10.00355,-14.33624 -19.05275,-14.33624 -9.01462,-0.003 -16.63917,6.04777 -19.01126,14.33969 z m 14.4469,46.65332 4.3154,-12.81479 4.49866,12.81479 -8.81406,0 z m -1.78771,-36.78461 -22.08529,65.25655 14.23598,0 9.13909,-27.0473 0,12.78368 28.68287,0 -17.03337,-50.99293 c -0.86447,-2.83889 -3.44403,-11.00287 -6.47655,-11.00287 -3.04638,0 -5.62592,8.16052 -6.46273,11.00287 l 0,0 z m -77.97107,-9.97589 42.68371,0 0,-12.20621 -43.70377,0 c -11.78436,0 -21.34185,9.58169 -21.34185,21.36951 l 0,44.73075 c 0,11.78782 9.55749,21.34185 21.34185,21.34185 l 43.70377,0 0,-56.95079 -34.55084,0 0,11.18268 22.34117,0 0,33.54806 -30.47404,0 c -5.62592,0 -10.15225,-4.54707 -10.15225,-10.15916 l 0,-42.70444 c -0.007,-5.59827 4.52633,-10.15225 10.15225,-10.15225 z m 8.12941,32.52454 0,12.20966 7.10588,0 0,3.04983 -7.10588,0 c -1.68052,0 -3.05329,-1.36931 -3.05329,-3.04983 l 0,-26.44563 c 0,-1.68052 1.36932,-3.05328 3.05329,-3.05328 l 34.55085,0 0,-12.18547 -39.63043,0 c -5.62593,0 -10.18338,4.55053 -10.18338,10.15917 l 0,36.60134 c 0,5.60863 4.55745,10.15916 10.18338,10.15916 l 24.39512,0 0,-27.44841 -19.31554,0.003 0,0 z m -78.25461,-32.52454 42.6837,0 0,-12.20621 -43.71068,0 c -11.78435,0 -21.33495,9.58169 -21.33495,21.36951 l 0,44.23283 c 0,11.78434 9.5506,21.36605 21.33495,21.36605 l 43.71068,0 0,-12.20967 -42.6837,0 c -5.60518,0 -10.15915,-4.54362 -10.15915,-10.15917 l 0,-42.23418 c 0,-5.60518 4.55397,-10.15916 10.15915,-10.15916 l 0,0 z m 33.52385,29.47126 0,-11.18269 -28.44772,0 c 0,-1.68052 1.36584,-3.05328 3.05329,-3.05328 l 34.55082,0 0,-12.18547 -39.63042,0 c -5.60517,0 -10.15225,4.55053 -10.15225,10.15917 l 0,16.26227 40.62628,0 0,0 z m 0,4.0768 0,11.18268 -28.44772,0 c 0,1.67706 1.36584,3.04984 3.05329,3.04984 l 34.55082,0 0,12.17853 -39.63042,0 c -5.60517,0 -10.15225,-4.5436 -10.15225,-10.15915 l 0,-16.26228 40.62628,0.0103 0,0 z m -104.437469,15.23874 -25.629586,0 0,11.17923 39.122115,0 0.50139,0 c 7.34102,-0.26279 13.20899,-6.31748 13.20899,-13.71383 0,-7.56923 -6.13077,-13.73457 -13.71038,-13.73457 l -15.418553,0 c -6.234504,-2.37209 -11.528473,-8.55473 -11.528473,-15.76435 0,-9.26358 8.530517,-16.76366 17.790636,-16.76366 l 38.12972,0 0,-12.1993 -39.65809,0 c -15.702094,0 -28.440813,12.75946 -28.440813,28.46848 0,15.73321 13.758785,28.47194 29.464343,28.47194 l 0,-0.13139 0.0795,0.13139 9.07686,0 c 1.10651,0 2.0263,0.89559 2.0263,2.02631 0,1.12726 -0.9267,2.02629 -2.0263,2.02629 l -12.987679,0 0,0.003 z m 16.812069,-34.55429 25.65725,0 0,-11.18269 -39.12904,0 -0.52559,0 c -7.341016,0.26279 -13.202072,6.31749 -13.202072,13.71383 0,7.60035 6.151515,13.73803 13.738042,13.73803 l 15.41855,0 c 6.23451,2.39284 11.50081,8.55128 11.50081,15.7609 0,9.26703 -8.5236,16.76711 -17.7941,16.76711 l -38.098589,0 0,12.20621 39.623509,0 c 15.71593,0 28.47194,-12.73526 28.47194,-28.46502 0,-15.70902 -13.75879,-28.47193 -29.47126,-28.47193 l 0,0.15904 -0.10028,-0.15558 -9.05611,0 c -1.13418,0 -2.026299,-0.89559 -2.026299,-2.02631 0,-1.10305 0.892119,-2.0263 2.026299,-2.0263 l 12.96694,-0.0173 0,0 z"
       id="path16" /><path
       style="fill:#ffffff;fill-opacity:1"
       d="m 350.61801,449.95217 c -0.0941,-0.24528 -0.19295,-1.99836 -0.2196,-3.89574 l -0.0484,-3.44979 -1.26714,-0.0924 c -0.95734,-0.0698 -1.30552,-0.23922 -1.42416,-0.69286 -0.29409,-1.12463 0.41433,-1.37427 3.72739,-1.31353 3.75907,0.0689 3.97487,0.13504 3.77929,1.15808 -0.13108,0.68578 -0.30448,0.78795 -1.3372,0.78795 -1.34356,0 -1.21886,-0.42832 -1.33414,4.58323 -0.0329,1.42843 -0.0818,2.76902 -0.10884,2.97909 -0.0686,0.53354 -1.5586,0.47956 -1.76717,-0.064 z m 5.6556,-0.22123 c -0.13034,-2.67009 -0.15408,-7.85306 -0.0386,-8.42287 0.12108,-0.59739 0.33039,-0.68749 1.59691,-0.68749 1.60972,0 1.44922,-0.20012 2.63453,3.28465 0.30008,0.88226 0.63927,1.60412 0.75373,1.60412 0.24013,0 0.70184,-1.11719 1.23276,-2.98272 0.47812,-1.68002 0.85673,-1.964 2.46431,-1.84833 l 1.32119,0.0951 0.088,4.12489 c 0.10583,4.96325 0.008,5.49987 -1.00466,5.49987 -0.92347,0 -1.04338,-0.43147 -1.14586,-4.1249 l -0.0763,-2.74993 -0.88694,2.74993 c -1.1359,3.52188 -1.41386,4.1249 -1.9013,4.1249 -0.48099,0 -0.85678,-0.66339 -1.49391,-2.63713 -0.26415,-0.81827 -0.71493,-2.1065 -1.00177,-2.86274 l -0.52151,-1.37496 -0.15278,3.36103 -0.15277,3.36103 -0.84026,0.0967 c -0.69509,0.08 -0.84622,-0.0256 -0.87482,-0.61109 z"
       id="path9254-9"
       inkscape:connector-curvature="0"
       sodipodi:nodetypes="cscscscsscccccscssscssscsssccccscc" /></g></svg>