<?xml version="1.0" encoding="UTF-8" standalone="no"?>
<!-- Created with Inkscape (http://www.inkscape.org/) -->

<svg
   xmlns:dc="http://purl.org/dc/elements/1.1/"
   xmlns:cc="http://creativecommons.org/ns#"
   xmlns:rdf="http://www.w3.org/1999/02/22-rdf-syntax-ns#"
   xmlns:svg="http://www.w3.org/2000/svg"
   xmlns="http://www.w3.org/2000/svg"
   xmlns:sodipodi="http://sodipodi.sourceforge.net/DTD/sodipodi-0.dtd"
   xmlns:inkscape="http://www.inkscape.org/namespaces/inkscape"
   version="1.1"
   width="283.01526"
   height="101.19863"
   id="svg2"
   inkscape:version="0.91 r13725"
   sodipodi:docname="logo.svg">
  <metadata
     id="metadata541">
    <rdf:RDF>
      <cc:Work
         rdf:about="">
        <dc:format>image/svg+xml</dc:format>
        <dc:type
           rdf:resource="http://purl.org/dc/dcmitype/StillImage" />
        <dc:title />
      </cc:Work>
    </rdf:RDF>
  </metadata>
  <sodipodi:namedview
     pagecolor="#ffffff"
     bordercolor="#666666"
     borderopacity="1"
     objecttolerance="10"
     gridtolerance="10"
     guidetolerance="10"
     inkscape:pageopacity="0"
     inkscape:pageshadow="2"
     inkscape:window-width="1680"
     inkscape:window-height="975"
     id="namedview539"
     showgrid="false"
     inkscape:zoom="7.849108"
     inkscape:cx="207.92139"
     inkscape:cy="23.119387"
     inkscape:window-x="-9"
     inkscape:window-y="-9"
     inkscape:window-maximized="1"
     inkscape:current-layer="svg2"
     fit-margin-top="0"
     fit-margin-left="0"
     fit-margin-right="0"
     fit-margin-bottom="0" />
  <defs
     id="defs4">
    <inkscape:perspective
       sodipodi:type="inkscape:persp3d"
       inkscape:vp_x="0 : 525 : 1"
       inkscape:vp_y="0 : 1000 : 0"
       inkscape:vp_z="550 : 525 : 1"
       inkscape:persp3d-origin="275 : 350 : 1"
       id="perspective543" />
    <inkscape:perspective
       id="perspective3434"
       inkscape:persp3d-origin="0.5 : 0.33333333 : 1"
       inkscape:vp_z="1 : 0.5 : 1"
       inkscape:vp_y="0 : 1000 : 0"
       inkscape:vp_x="0 : 0.5 : 1"
       sodipodi:type="inkscape:persp3d" />
    <inkscape:perspective
       id="perspective2907"
       inkscape:persp3d-origin="0.5 : 0.33333333 : 1"
       inkscape:vp_z="1 : 0.5 : 1"
       inkscape:vp_y="0 : 1000 : 0"
       inkscape:vp_x="0 : 0.5 : 1"
       sodipodi:type="inkscape:persp3d" />
    <inkscape:perspective
       id="perspective2966"
       inkscape:persp3d-origin="0.5 : 0.33333333 : 1"
       inkscape:vp_z="1 : 0.5 : 1"
       inkscape:vp_y="0 : 1000 : 0"
       inkscape:vp_x="0 : 0.5 : 1"
       sodipodi:type="inkscape:persp3d" />
    <inkscape:perspective
       id="perspective3027"
       inkscape:persp3d-origin="0.5 : 0.33333333 : 1"
       inkscape:vp_z="1 : 0.5 : 1"
       inkscape:vp_y="0 : 1000 : 0"
       inkscape:vp_x="0 : 0.5 : 1"
       sodipodi:type="inkscape:persp3d" />
    <inkscape:perspective
       id="perspective3898"
       inkscape:persp3d-origin="0.5 : 0.33333333 : 1"
       inkscape:vp_z="1 : 0.5 : 1"
       inkscape:vp_y="0 : 1000 : 0"
       inkscape:vp_x="0 : 0.5 : 1"
       sodipodi:type="inkscape:persp3d" />
  </defs>
  <g
     id="g4375">
    <path
       id="path4010"
       d="M 88.599609 4.0273438 L 76.380859 16.433594 L 88.412109 27.402344 L 85.287109 31.433594 L 80.568359 31.433594 L 76.724609 37.839844 L 77.099609 39.808594 L 97.537109 41.152344 L 105.38086 28.214844 L 91.193359 14.464844 L 99.849609 14.214844 L 101.09961 4.7460938 L 88.599609 4.0273438 z M 181.47461 5.5585938 L 182.00586 40.027344 L 194.09961 40.152344 L 193.84961 30.183594 L 203.06836 40.402344 L 213.16211 34.714844 L 205.22461 28.277344 L 210.75586 23.871094 L 212.03711 16.558594 L 200.03711 5.8085938 L 181.47461 5.5585938 z M 148.47461 5.7148438 L 130.63086 6.2460938 L 131.16211 39.433594 L 141.88086 39.433594 L 141.16211 33.183594 L 147.41211 33.183594 L 155.69336 25.996094 L 156.75586 40.902344 L 181.47461 37.371094 L 181.34961 25.746094 L 165.72461 31.308594 L 165.72461 28.152344 L 175.16211 26.277344 L 174.66211 18.308594 L 166.72461 20.589844 L 166.72461 17.683594 L 174.28711 15.652344 L 174.41211 6.7148438 L 155.78711 11.714844 L 148.47461 5.7148438 z M 106.09961 6.8085938 L 106.25586 35.996094 L 114.47461 40.714844 L 124.91211 38.652344 L 129.28711 33.652344 L 128.56836 10.089844 L 119.13086 10.371094 L 114.84961 7.1835938 L 106.09961 6.8085938 z M 186.03711 52.371094 L 169.63086 52.652344 L 177.69336 99.339844 L 191.06836 98.839844 L 196.38086 87.714844 L 202.19336 97.058594 L 209.50586 96.808594 L 212.19336 87.839844 L 214.40234 86.765625 L 235.36328 90.556641 L 239.53711 95.683594 L 247.72461 87.652344 L 240.44336 96.980469 L 240.48633 97.433594 L 261.63086 97.433594 L 261.13086 84.433594 L 271.72461 99.714844 L 281.97461 90.871094 L 282.00781 89.464844 L 273.10156 79.277344 L 278.16406 76.496094 L 278.16406 59.089844 L 269.82031 53.152344 L 246.72656 52.527344 L 252.84375 65.865234 L 243.0625 58.708984 L 219.38281 56.558594 L 207.72461 52.902344 C 207.72461 52.902344 202.70057 79.383113 201.94336 78.121094 C 201.18615 76.859073 196.38086 65.496094 196.38086 65.496094 L 191.84961 79.152344 L 186.03711 52.371094 z M 23.974609 52.527344 L 12.005859 52.652344 L 4.6933594 98.589844 L 22.224609 99.089844 L 21.974609 76.371094 L 28.912109 95.871094 L 36.412109 75.683594 L 39.224609 84.089844 L 34.568359 91.746094 L 42.005859 92.277344 L 43.880859 97.871094 L 58.568359 91.246094 L 57.662109 88.964844 L 69.537109 91.027344 L 70.599609 98.871094 L 86.662109 98.871094 L 86.632812 98.777344 L 97.568359 98.339844 L 96.474609 84.402344 L 106.13086 99.214844 L 117.00586 89.589844 L 108.09961 78.714844 L 113.97461 75.496094 L 113.78711 59.433594 L 104.88086 53.371094 L 83.287109 53.183594 L 84.193359 91.933594 L 72.037109 57.808594 L 56.318359 56.027344 L 49.318359 67.496094 L 43.943359 53.652344 L 30.943359 53.027344 L 27.912109 61.214844 L 23.974609 52.527344 z M 127.34961 53.902344 L 116.47461 54.246094 L 117.38086 96.371094 L 132.88086 95.839844 L 132.03711 89.402344 L 138.81836 95.808594 L 158.00586 95.558594 L 167.06836 85.933594 L 165.63086 64.589844 L 155.13086 56.214844 L 138.25586 56.121094 L 130.56836 63.621094 L 130.00586 74.058594 L 127.34961 53.902344 z M 147.63086 68.277344 L 155.19336 75.058594 L 147.97461 81.558594 L 141.72461 75.121094 L 147.63086 68.277344 z "
       style="fill:#000000;fill-opacity:1;stroke:#000000;stroke-width:2;stroke-linejoin:miter;stroke-miterlimit:4.0999999;stroke-dasharray:none;stroke-opacity:1" />
    <path
       inkscape:connector-curvature="0"
       sodipodi:nodetypes="ccccccccccccc"
       id="path2972-8"
       d="m 73.573172,36.808681 20.43556,1.33857 7.852968,-12.93954 -14.188878,-13.74269 8.65611,-0.26768 1.24933,-9.4592595 -12.49335,-0.7139 -12.22564,12.4041195 12.04716,10.9763 -3.12334,4.01572 -4.72962,0 -3.83725,6.425151 0.35695,1.963209 z"
       style="fill:#f73738;fill-opacity:1;stroke:#000000;stroke-width:2;stroke-linejoin:miter;stroke-miterlimit:4.0999999;stroke-dasharray:none;stroke-opacity:1" />
    <path
       inkscape:connector-curvature="0"
       sodipodi:nodetypes="ccccccccccc"
       id="path3033-6"
       d="m 121.40488,35.648581 4.37267,-4.99734 -0.71391,-23.5588895 -9.45925,0.26771 0.28344,16.5983195 -3.67449,-0.35696 -0.89239,-19.4171785 -8.74534,-0.39371 0.17849,29.1809095 8.20991,4.729619 10.44087,-2.05248 z"
       style="fill:#04d8f7;fill-opacity:1;stroke:#000000;stroke-width:2;stroke-linejoin:miter;stroke-miterlimit:4.0999999;stroke-dasharray:none;stroke-opacity:1" />
    <path
       inkscape:connector-curvature="0"
       id="path3954"
       d="m 144.96114,2.7056415 -17.84375,0.53125 0.53125,33.1874995 10.71875,0 -0.71875,-6.25 6.25,0 9.28125,-8.03125 -0.1875,-12.8437495 -8.03125,-6.59375 z m -0.4375,10.9687495 0.625,2.75 -5.40625,4.8125 -3.15625,0.125 -0.625,-7.4375 8.5625,-0.25 z"
       style="fill:#f6c729;fill-opacity:1;stroke:#000000;stroke-width:2;stroke-linecap:butt;stroke-linejoin:miter;stroke-miterlimit:4.0999999;stroke-dasharray:none;stroke-dashoffset:0;stroke-opacity:1" />
    <path
       inkscape:connector-curvature="0"
       sodipodi:nodetypes="ccccccccccccc"
       id="path3958"
       d="m 153.23758,37.891951 24.73557,-3.53366 -0.1262,-11.61057 -15.64904,5.55288 0,-3.15505 9.46515,-1.89303 -0.50481,-7.95072 -7.95073,2.27164 1e-5,-2.90265 7.57211,-2.01923 0.1262,-8.9603295 -19.6875,5.30048 2.01924,28.9002395 z"
       style="fill:#04d8f7;fill-opacity:1;stroke:#000000;stroke-width:2;stroke-linecap:butt;stroke-linejoin:miter;stroke-miterlimit:4.0999999;stroke-dasharray:none;stroke-dashoffset:0;stroke-opacity:1" />
    <path
       inkscape:connector-curvature="0"
       sodipodi:nodetypes="ccccccccccccccccc"
       id="path3960"
       d="m 177.96114,2.5493915 0.53125,34.4687495 12.09375,0.125 -0.25,-9.96875 9.21875,10.21875 10.09375,-5.6875 -7.9375,-6.4375 5.53125,-4.40625 1.28125,-7.3125 -12,-10.7499995 -18.5625,-0.25 z m 12.25361,11.3761995 7.05288,0.0595 -0.001,2.375 -4.64664,3.99219 -2.53125,0.25 0.12621,-6.67669 z"
       style="fill:#03c802;fill-opacity:1;stroke:#000000;stroke-width:2;stroke-linecap:butt;stroke-linejoin:miter;stroke-miterlimit:4.0999999;stroke-dasharray:none;stroke-dashoffset:0;stroke-opacity:1" />
    <path
       inkscape:connector-curvature="0"
       id="path3973"
       d="m 243.21114,49.518141 1.28125,44.906252 13.625,0 -0.5,-12.999999 10.59375,15.281249 10.96875,-9.468749 -9.59375,-10.96875 5.0625,-2.78125 0,-17.40625 -8.34375,-5.937503 -23.09375,-0.625 z m 14.15625,12.593753 8.4375,0.25 0,2.53125 -6.1875,5.0625 -2,-0.125 -0.25,-7.71875 z"
       style="fill:#03c802;fill-opacity:1;stroke:#000000;stroke-width:2;stroke-linecap:butt;stroke-linejoin:miter;stroke-miterlimit:4.0999999;stroke-dasharray:none;stroke-dashoffset:0;stroke-opacity:1" />
    <path
       inkscape:connector-curvature="0"
       style="fill:#04d8f7;fill-opacity:1;stroke:#000000;stroke-width:2;stroke-linecap:butt;stroke-linejoin:miter;stroke-miterlimit:4.0999999;stroke-dasharray:none;stroke-dashoffset:0;stroke-opacity:1"
       d="m 222.58964,53.73205 -21.75,35.71875 9.4375,0.6875 4.125,-5.15625 21.40625,3.75 1.0625,7.84374 16.0625,0 -14.625,-41.06249 -15.71875,-1.78125 z m 10.375,17 0.46875,8.625 -9.59375,-0.375 5.71875,-8.125 3.40625,-0.125 z"
       id="path4156" />
    <path
       inkscape:connector-curvature="0"
       id="path3983"
       d="m 174.1895,96.323443 13.3774,-0.50481 5.30048,-11.105769 5.80529,9.338939 7.31971,-0.2524 11.86298,-39.627409 -13.6298,-4.290863 c 0,0 -5.04808,26.502403 -5.80529,25.240383 -0.75721,-1.26202 -5.55289,-12.62019 -5.55289,-12.62019 l -4.54327,13.62981 -5.80528,-26.754813 -16.40625,0.25241 8.07692,46.694712 z"
       style="fill:#f6c729;fill-opacity:1;stroke:#000000;stroke-width:2;stroke-linecap:butt;stroke-linejoin:miter;stroke-miterlimit:4.0999999;stroke-dasharray:none;stroke-dashoffset:0;stroke-opacity:1" />
    <path
       inkscape:connector-curvature="0"
       id="path3985"
       d="m 134.74239,53.111891 -7.6875,7.500004 -1.25,23.21875 9.5,8.968748 19.1875,-0.25 9.0625,-9.624998 -1.4375,-21.34375 -10.5,-8.375 -16.875,-0.0937 z m 9.375,12.156253 7.5625,6.78125 -7.21875,6.5 -6.25,-6.4375 5.90625,-6.84375 z"
       style="fill:#03c802;fill-opacity:1;stroke:#000000;stroke-width:2;stroke-linecap:butt;stroke-linejoin:miter;stroke-miterlimit:4.0999999;stroke-dasharray:none;stroke-dashoffset:0;stroke-opacity:1" />
    <path
       inkscape:connector-curvature="0"
       id="path3990"
       d="m 112.9624,51.243101 0.89238,42.120452 15.52746,-0.53543 -5.53278,-41.941972 -10.88706,0.35695 z"
       style="fill:#f73738;fill-opacity:1;stroke:#000000;stroke-width:2;stroke-linecap:butt;stroke-linejoin:miter;stroke-miterlimit:4.0999999;stroke-dasharray:none;stroke-dashoffset:0;stroke-opacity:1" />
    <path
       inkscape:connector-curvature="0"
       id="path3992"
       d="m 79.773642,50.174391 1.0625,45.687502 13.21875,-0.53125 -1.09375,-13.937499 9.656248,14.812499 10.875,-9.624999 -8.90625,-10.875 5.875,-3.21875 -0.1875,-16.0625 -8.90625,-6.062503 -21.593748,-0.1875 z m 20.437498,12.125003 0.0937,2.5 -5.374998,4.90625 -2.59375,0 -0.15625,-7.21875 8.031248,-0.1875 z"
       style="fill:#f6c729;fill-opacity:1;stroke:#000000;stroke-width:2;stroke-linecap:butt;stroke-linejoin:miter;stroke-miterlimit:4.0999999;stroke-dasharray:none;stroke-dashoffset:0;stroke-opacity:1" />
    <path
       inkscape:connector-curvature="0"
       id="path3997"
       d="m 52.804895,53.018141 -21.75,35.718753 9.4375,0.6875 4.125,-5.15625 21.40625,3.75 1.0625,7.843749 16.062497,0 -14.624997,-41.062499 -15.71875,-1.781253 z m 10.375,17.000003 0.46875,8.625 -9.59375,-0.375 5.71875,-8.125 3.40625,-0.125 z"
       style="fill:#04d8f7;fill-opacity:1;stroke:#000000;stroke-width:2;stroke-linecap:butt;stroke-linejoin:miter;stroke-miterlimit:4.0999999;stroke-dasharray:none;stroke-dashoffset:0;stroke-opacity:1" />
    <path
       inkscape:connector-curvature="0"
       sodipodi:nodetypes="ccccccccccccc"
       id="path4002"
       d="m 1.166672,95.566223 17.542063,0.50482 -0.2524,-22.716348 6.941111,19.498198 7.50901,-20.192308 7.44591,22.211538 14.702529,-6.625608 -14.63943,-37.608173 -12.99879,-0.63101 -3.02885,8.203133 -3.91226,-8.707944 -11.989182,0.1262 -7.31971,45.937502 z"
       style="fill:#03c802;fill-opacity:1;stroke:#000000;stroke-width:2;stroke-linecap:butt;stroke-linejoin:miter;stroke-miterlimit:4.0999999;stroke-dasharray:none;stroke-dashoffset:0;stroke-opacity:1" />
  </g>
</svg>
