<?xml version="1.0" encoding="UTF-8" standalone="no"?>
<!-- Generator: Adobe Illustrator 13.0.0, SVG Export Plug-In . SVG Version: 6.00 Build 14948)  -->

<svg
   xmlns:dc="http://purl.org/dc/elements/1.1/"
   xmlns:cc="http://creativecommons.org/ns#"
   xmlns:rdf="http://www.w3.org/1999/02/22-rdf-syntax-ns#"
   xmlns:svg="http://www.w3.org/2000/svg"
   xmlns="http://www.w3.org/2000/svg"
   xmlns:sodipodi="http://sodipodi.sourceforge.net/DTD/sodipodi-0.dtd"
   xmlns:inkscape="http://www.inkscape.org/namespaces/inkscape"
   version="1.2"
   id="Ebene_1"
   x="0px"
   y="0px"
   width="566.92902"
   height="142.31474"
   viewBox="0 -13.883 566.929 142.31475"
   xml:space="preserve"
   inkscape:version="0.91 r13725"
   sodipodi:docname="logo.svg"><metadata
     id="metadata4155"><rdf:RDF><cc:Work
         rdf:about=""><dc:format>image/svg+xml</dc:format><dc:type
           rdf:resource="http://purl.org/dc/dcmitype/StillImage" /><dc:title></dc:title></cc:Work></rdf:RDF></metadata><defs
     id="defs4153" /><sodipodi:namedview
     pagecolor="#ffffff"
     bordercolor="#666666"
     borderopacity="1"
     objecttolerance="10"
     gridtolerance="10"
     guidetolerance="10"
     inkscape:pageopacity="0"
     inkscape:pageshadow="2"
     inkscape:window-width="1680"
     inkscape:window-height="975"
     id="namedview4151"
     showgrid="false"
     fit-margin-top="0"
     fit-margin-left="0"
     fit-margin-right="0"
     fit-margin-bottom="0"
     inkscape:zoom="1.5191603"
     inkscape:cx="355.7648"
     inkscape:cy="-75.436653"
     inkscape:window-x="1671"
     inkscape:window-y="-9"
     inkscape:window-maximized="1"
     inkscape:current-layer="Ebene_1" /><path
     d="m 240.575,63.379 c -14.877,14.885 -14.877,39.008 0,53.895 14.885,14.877 39.008,14.877 53.893,0 12.871,-12.871 14.605,-32.656 5.219,-47.393 l -20.5,20.5 c -0.016,2.971 -1.151,5.934 -3.414,8.193 -4.557,4.551 -11.945,4.551 -16.502,0 -4.55,-4.557 -4.55,-11.941 0,-16.5 4.557,-4.551 11.945,-4.551 16.502,0 l 0.35,0.371 18.705,-18.703 -0.355,-0.364 C 279.583,48.502 255.46,48.502 240.575,63.379 Z"
     id="path4137"
     inkscape:connector-curvature="0"
     style="fill:#5b5b5b" /><path
     d="m 92.1,128.278 92.101,-104.84 -38.433,0 -58.87,59.936 c -1.797,1.828 -4.713,1.828 -6.509,0 -1.796,-1.825 -1.796,-4.797 0,-6.633 L 132.75,23.439 0,23.439 92.1,128.278 Z"
     id="path4139"
     inkscape:connector-curvature="0"
     style="fill:#494949" /><path
     d="m 503.134,90.155 -31.893,37.5 26.061,0 24.832,-25.281 c 1.439,-1.463 3.771,-1.463 5.211,0 1.438,1.461 1.438,3.834 0,5.306 l -19.621,19.979 59.205,0 -31.893,-37.502 31.893,-37.499 -26.061,0 -24.832,25.282 c -1.439,1.471 -3.771,1.471 -5.211,0 -1.439,-1.462 -1.439,-3.832 0,-5.304 l 19.621,-19.979 -59.205,0 31.893,37.498 z"
     id="path4141"
     inkscape:connector-curvature="0"
     style="fill:#5b5b5b" /><path
     d="m 356.339,52.656 0,75 23.938,0 0,-48.746 18.15,0 22.326,-26.254 -26.061,0 -24.84,25.282 c -1.432,1.471 -3.766,1.471 -5.201,0 -1.439,-1.462 -1.439,-3.833 0,-5.304 l 19.619,-19.979 -27.931,10e-4 0,0 z"
     id="path4143"
     inkscape:connector-curvature="0"
     style="fill:#5b5b5b" /><path
     d="m 338.494,52.974 14.465,0 23.893,-24.691 -38.354,0 0,-42.166 -58.351,66.857 25.519,0 17.473,-16.23 c 1.439,-1.462 3.773,-1.462 5.203,0 1.438,1.472 1.438,3.842 0,5.306 l -13.782,14.036 0,71.571 23.938,0 0,-74.683 -0.004,0 z"
     id="path4145"
     inkscape:connector-curvature="0"
     style="fill:#5b5b5b" /><path
     d="m 158.919,63.379 c -14.877,14.885 -14.877,39.008 0,53.895 14.885,14.877 39.008,14.877 53.893,0 12.871,-12.871 14.605,-32.656 5.218,-47.393 l -20.5,20.5 -6.37616,6.05366 c -3.741,3.733 -6.41684,6.54034 -10.83384,4.15734 l 34.747,-34.747 c -0.599,-0.715 -4.425,-4.512 -5.576,-5.42 -14.954,-11.852 -36.753,-10.865 -50.572,2.954 z m 16.175,31.442 c -1.765,-4.229 -0.925,-9.301 2.52,-12.744 3.445,-3.444 8.516,-4.287 12.746,-2.521 z"
     id="path4147"
     inkscape:connector-curvature="0"
     style="fill:#5b5b5b"
     sodipodi:nodetypes="cccccccccccccc" /><path
     sodipodi:nodetypes="cccccccccccccc"
     style="fill:#5b5b5b"
     inkscape:connector-curvature="0"
     id="path4190"
     d="m 418.45354,63.379 c -14.877,14.885 -14.877,39.008 0,53.895 14.885,14.877 39.008,14.877 53.893,0 12.871,-12.871 14.605,-32.656 5.218,-47.393 l -20.5,20.5 -6.37616,6.05366 c -3.741,3.733 -6.41684,6.54034 -10.83384,4.15734 l 34.747,-34.747 c -0.599,-0.715 -4.425,-4.512 -5.576,-5.42 -14.954,-11.852 -36.753,-10.865 -50.572,2.954 z m 16.175,31.442 c -1.765,-4.229 -0.925,-9.301 2.52,-12.744 3.445,-3.444 8.516,-4.287 12.746,-2.521 z" /></svg>