<?xml version="1.0" encoding="UTF-8" standalone="no"?>
<!-- Generator: Adobe Illustrator 13.0.0, SVG Export Plug-In . SVG Version: 6.00 Build 14948)  -->

<svg
   xmlns:dc="http://purl.org/dc/elements/1.1/"
   xmlns:cc="http://creativecommons.org/ns#"
   xmlns:rdf="http://www.w3.org/1999/02/22-rdf-syntax-ns#"
   xmlns:svg="http://www.w3.org/2000/svg"
   xmlns="http://www.w3.org/2000/svg"
   xmlns:sodipodi="http://sodipodi.sourceforge.net/DTD/sodipodi-0.dtd"
   xmlns:inkscape="http://www.inkscape.org/namespaces/inkscape"
   version="1.1"
   id="Layer_2"
   x="0px"
   y="0px"
   width="659.41498"
   height="160.834"
   viewBox="0 0 659.41498 160.834"
   enable-background="new 0 0 685 182"
   xml:space="preserve"
   inkscape:version="0.91 r13725"
   sodipodi:docname="logo.svg"><metadata
     id="metadata5559"><rdf:RDF><cc:Work
         rdf:about=""><dc:format>image/svg+xml</dc:format><dc:type
           rdf:resource="http://purl.org/dc/dcmitype/StillImage" /><dc:title></dc:title></cc:Work></rdf:RDF></metadata><defs
     id="defs5557" /><sodipodi:namedview
     pagecolor="#ffffff"
     bordercolor="#666666"
     borderopacity="1"
     objecttolerance="10"
     gridtolerance="10"
     guidetolerance="10"
     inkscape:pageopacity="0"
     inkscape:pageshadow="2"
     inkscape:window-width="1680"
     inkscape:window-height="975"
     id="namedview5555"
     showgrid="false"
     inkscape:zoom="1.2573081"
     inkscape:cx="282.59238"
     inkscape:cy="136.60397"
     inkscape:window-x="1671"
     inkscape:window-y="-9"
     inkscape:window-maximized="1"
     inkscape:current-layer="Layer_2"
     fit-margin-top="0"
     fit-margin-left="0"
     fit-margin-right="0"
     fit-margin-bottom="0" /><g
     id="g5386"
     transform="translate(-13.419,-12.999)"><linearGradient
       id="SVGID_1_"
       gradientUnits="userSpaceOnUse"
       x1="-115.667"
       y1="311.5"
       x2="-115.667"
       y2="238"
       gradientTransform="matrix(1,0,0,-1,654,325)"><stop
         offset="0"
         style="stop-color:#7ED3F7"
         id="stop5389" /><stop
         offset="1"
         style="stop-color:#003D7E"
         id="stop5391" /></linearGradient><path
       d="m 503.083,14.5 c -3.728,0 -6.75,3.855 -6.75,7.583 l 0,58.834 c 0,3.728 3.022,6.915 6.75,6.915 l 77.25,0 0,-20.5 -61,0 0,-32.665 61,0 0,-20.167 -77.25,0 z"
       id="path5393"
       inkscape:connector-curvature="0"
       style="fill:url(#SVGID_1_)" /><path
       d="m 503.083,88.834 c -4.317,-0.017 -7.745,-3.648 -7.751,-7.917 l 0,0 0,-58.833 c 0.031,-4.223 3.293,-8.512 7.751,-8.584 l 0,0 0,1 0,1 c -1.508,-0.002 -2.937,0.785 -4.014,2.043 l 0,0 c -1.074,1.252 -1.742,2.948 -1.738,4.541 l 0,0 0,58.833 c 0.006,3.188 2.611,5.908 5.751,5.915 l 0,0 76.249,0 0,-18.501 -61,0 0,-34.665 61,0 0,-18.166 -76.249,0 0,-1 0,-1 78.249,0 0,22.166 -61,0 0,30.666 61,0 0,22.503 -78.248,-10e-4 0,0 z"
       id="path5395"
       inkscape:connector-curvature="0" /></g><g
     id="g5397"
     transform="translate(-13.419,-12.999)"><linearGradient
       id="SVGID_2_"
       gradientUnits="userSpaceOnUse"
       x1="-374.1665"
       y1="224.5"
       x2="-374.1665"
       y2="151.5"
       gradientTransform="matrix(1,0,0,-1,654,325)"><stop
         offset="0"
         style="stop-color:#7ED3F7"
         id="stop5400" /><stop
         offset="1"
         style="stop-color:#003D7E"
         id="stop5402" /></linearGradient><path
       d="m 235,107.084 c 0,-3.729 3.022,-7.584 6.75,-7.584 l 83.584,0 0,73.333 -23.5,0 0,-53.167 -10.167,0 0,53.167 -23.667,0 0,-53.167 -10.5,0 0,53.167 -23.167,0 0.667,-65.749 z"
       id="path5404"
       inkscape:connector-curvature="0"
       style="fill:url(#SVGID_2_)" /><path
       d="m 267,173.833 0,-53.17 -8.501,0 0,53.17 -25.177,0 0.678,-66.75 -0.002,0 c 0.031,-4.224 3.294,-8.513 7.752,-8.585 l 0,0 84.583,0 0,75.333 -25.502,0 0,-53.166 -8.166,0 0,53.168 -25.665,0 0,0 z m 35.834,-55.168 -0.002,53.167 21.501,0 0,-71.332 -82.582,0 c -1.509,-0.004 -2.937,0.784 -4.014,2.043 l 0,0 c -1.075,1.251 -1.743,2.947 -1.736,4.54 l 0,0 -1,0 0.998,0.011 -0.656,64.738 21.157,0 0,-53.167 12.5,0 0,53.167 21.666,0 0,-53.167 12.168,0 0,0 z"
       id="path5406"
       inkscape:connector-curvature="0" /></g><g
     id="g5408"
     transform="translate(-13.419,-12.999)"><linearGradient
       id="SVGID_3_"
       gradientUnits="userSpaceOnUse"
       x1="-177.166"
       y1="224.5"
       x2="-177.166"
       y2="151.5"
       gradientTransform="matrix(1,0,0,-1,654,325)"><stop
         offset="0"
         style="stop-color:#7ED3F7"
         id="stop5411" /><stop
         offset="1"
         style="stop-color:#003D7E"
         id="stop5413" /></linearGradient><path
       d="m 432,107.084 c 0,-3.729 3.021,-7.584 6.75,-7.584 l 83.584,0 0,73.333 -23.5,0 0,-53.167 -10.167,0 0,53.167 -23.667,0 0,-53.167 -10.5,0 0,53.167 -23.166,0 0.666,-65.749 z"
       id="path5415"
       inkscape:connector-curvature="0"
       style="fill:url(#SVGID_3_)" /><path
       d="m 463.999,173.833 0,-53.17 -8.499,0 0,53.17 -25.177,0 0.677,-66.761 0,0 c 0.036,-4.219 3.297,-8.502 7.75,-8.574 l 0,0 84.584,0 0,75.333 -25.5,0 0,-53.166 -8.167,0 0,53.168 -25.668,0 0,0 z m 35.834,-55.168 0,53.167 21.501,0 0,-71.332 -82.584,0 c -1.507,-0.004 -2.936,0.784 -4.014,2.043 l 0,0 c -1.073,1.251 -1.741,2.947 -1.736,4.54 l 0,0 -1,0 1,0.011 -0.656,64.738 21.156,0 0,-53.167 12.5,0 -0.002,53.167 21.668,0 0,-53.167 12.167,0 0,0 z"
       id="path5417"
       inkscape:connector-curvature="0" /></g><g
     id="g5419"
     transform="translate(-13.419,-12.999)"><linearGradient
       id="SVGID_4_"
       gradientUnits="userSpaceOnUse"
       x1="-626.74951"
       y1="311.5"
       x2="-626.74951"
       y2="238"
       gradientTransform="matrix(1,0,0,-1,654,325)"><stop
         offset="0"
         style="stop-color:#7ED3F7"
         id="stop5422" /><stop
         offset="1"
         style="stop-color:#003D7E"
         id="stop5424" /></linearGradient><rect
       x="15.167"
       y="14.5"
       width="24.167"
       height="24.834"
       id="rect5426"
       style="fill:url(#SVGID_4_)" /><path
       d="m 14.166,40.334 0,-26.834 26.167,0 0,25.834 0,1 -26.167,0 0,0 z m 25.167,-1 0,-1 0,1 0,0 z m -23.167,-1 22.168,0 0,-22.835 -22.168,0 0,22.835 0,0 z"
       id="path5428"
       inkscape:connector-curvature="0" /></g><g
     id="g5430"
     transform="translate(-13.419,-12.999)"><linearGradient
       id="SVGID_5_"
       gradientUnits="userSpaceOnUse"
       x1="-270.74951"
       y1="311.5"
       x2="-270.74951"
       y2="238"
       gradientTransform="matrix(1,0,0,-1,654,325)"><stop
         offset="0"
         style="stop-color:#7ED3F7"
         id="stop5433" /><stop
         offset="1"
         style="stop-color:#003D7E"
         id="stop5435" /></linearGradient><rect
       x="371.16699"
       y="14.5"
       width="24.167"
       height="24.834"
       id="rect5437"
       style="fill:url(#SVGID_5_)" /><path
       d="m 370.166,40.334 0,-26.834 26.167,0 0,25.834 0,1 -26.167,0 0,0 z m 25.167,-1 0,-1 0,1 0,0 z m -23.166,-1 22.166,0 0,-22.835 -22.166,0 0,22.835 0,0 z"
       id="path5439"
       inkscape:connector-curvature="0" /></g><g
     id="g5441"
     transform="translate(-13.419,-12.999)"><linearGradient
       id="SVGID_6_"
       gradientUnits="userSpaceOnUse"
       x1="-308.75"
       y1="224.5"
       x2="-308.75"
       y2="151.5"
       gradientTransform="matrix(1,0,0,-1,654,325)"><stop
         offset="0"
         style="stop-color:#7ED3F7"
         id="stop5444" /><stop
         offset="1"
         style="stop-color:#003D7E"
         id="stop5446" /></linearGradient><rect
       x="333.16599"
       y="99.5"
       width="24.167999"
       height="24.834"
       id="rect5448"
       style="fill:url(#SVGID_6_)" /><path
       d="m 332.166,125.334 0,-26.835 26.167,0 0,25.835 0,1 -26.167,0 0,0 z m 25.169,-1 0,-1.002 0,1.002 0,0 z m -23.17,-1.002 22.17,0 0,-22.832 -22.17,0 0,22.832 0,0 z"
       id="path5450"
       inkscape:connector-curvature="0" /></g><g
     id="g5452"
     transform="translate(-13.419,-12.999)"><linearGradient
       id="SVGID_7_"
       gradientUnits="userSpaceOnUse"
       x1="-593.4165"
       y1="311.5"
       x2="-593.4165"
       y2="238"
       gradientTransform="matrix(1,0,0,-1,654,325)"><stop
         offset="0"
         style="stop-color:#7ED3F7"
         id="stop5455" /><stop
         offset="1"
         style="stop-color:#003D7E"
         id="stop5457" /></linearGradient><polygon
       points="105.667,87.833 54.667,87.833 69.5,68.5 81.667,68.5 81.667,39.333 43,87.833 15.5,87.833 74.167,14.5 105.667,14.5 "
       id="polygon5459"
       style="fill:url(#SVGID_7_)" /><path
       d="m 52.636,88.832 16.37,-21.334 11.66,0 0,-25.308 -37.184,46.642 -27.983,0 0,-0.999 0.781,0.623 -0.781,-0.623 0,0.999 -2.08,0 60.267,-75.333 32.98,0 0,75.333 -54.03,0 0,0 z m -10.119,-1.999 40.149,-50.357 0,33.024 -12.675,-0.003 -13.298,17.334 47.973,0 0,-71.332 -30.02,0 -57.067,71.334 24.938,0 0,0 z"
       id="path5461"
       inkscape:connector-curvature="0" /></g><g
     id="g5463"
     transform="translate(-13.419,-12.999)"><linearGradient
       id="SVGID_8_"
       gradientUnits="userSpaceOnUse"
       x1="-274.91699"
       y1="224.5"
       x2="-274.91699"
       y2="151.5"
       gradientTransform="matrix(1,0,0,-1,654,325)"><stop
         offset="0"
         style="stop-color:#7ED3F7"
         id="stop5466" /><stop
         offset="1"
         style="stop-color:#003D7E"
         id="stop5468" /></linearGradient><polygon
       points="424.166,172.833 373.166,172.833 388,153.5 400.166,153.5 400.166,124.334 361.5,172.833 334,172.833 392.666,99.5 424.166,99.5 "
       id="polygon5470"
       style="fill:url(#SVGID_8_)" /><path
       d="m 371.136,173.832 16.371,-21.334 11.657,0 0,-25.307 -37.183,46.641 -27.981,0 0,-1 0.781,0.624 -0.781,-0.624 0,1 -2.081,0 60.265,-75.333 32.981,0 0,75.333 -54.029,0 0,0 z m -10.118,-1.999 40.148,-50.356 0,33.023 -12.674,-0.002 -13.3,17.332 47.973,0 0,-71.331 -30.019,0 -57.067,71.334 24.939,0 0,0 z"
       id="path5472"
       inkscape:connector-curvature="0" /></g><g
     id="g5474"
     transform="translate(-13.419,-12.999)"><linearGradient
       id="SVGID_9_"
       gradientUnits="userSpaceOnUse"
       x1="-303.91699"
       y1="311.5"
       x2="-303.91699"
       y2="238"
       gradientTransform="matrix(1,0,0,-1,654,325)"><stop
         offset="0"
         style="stop-color:#7ED3F7"
         id="stop5477" /><stop
         offset="1"
         style="stop-color:#003D7E"
         id="stop5479" /></linearGradient><polygon
       points="305,87.833 356,87.833 341.166,68.5 329,68.5 329,39.333 367.666,87.833 395.166,87.833 336.5,14.5 305,14.5 "
       id="polygon5481"
       style="fill:url(#SVGID_9_)" /><path
       d="m 367.183,88.832 -37.185,-46.64 0,25.306 11.66,0 16.37,21.334 -54.03,0 0,-75.333 32.98,0 58.967,73.708 -0.781,0.626 0,-1 0,1 0.781,-0.626 1.302,1.625 -30.064,0 0,0 z m 0.963,-1.999 24.938,0 -57.067,-71.334 -30.02,0 0,71.332 47.973,0 -13.297,-17.331 -12.675,0 0,-33.026 40.148,50.359 0,0 z"
       id="path5483"
       inkscape:connector-curvature="0" /></g><g
     id="g5485"
     transform="translate(-13.419,-12.999)"><g
       id="g5487"><linearGradient
         id="SVGID_10_"
         gradientUnits="userSpaceOnUse"
         x1="-498.50049"
         y1="311.84671"
         x2="-498.50049"
         y2="236.83659"
         gradientTransform="matrix(1,0,0,-1,654,325)"><stop
           offset="0"
           style="stop-color:#7ED3F7"
           id="stop5490" /><stop
           offset="1"
           style="stop-color:#003D7E"
           id="stop5492" /></linearGradient><path
         d="m 190.083,13.999 -76.416,0 0,47.667 23.666,0 0,-26.166 36.333,0 0,33.166 -59.999,0.002 0,19.665 76.416,0 c 4.022,-0.007 7.247,-3.417 7.249,-7.414 l 0,-58.835 c -0.015,-3.977 -3.157,-8.048 -7.249,-8.085 z"
         id="path5494"
         inkscape:connector-curvature="0"
         style="fill:url(#SVGID_10_)" /></g><g
       id="g5496"><path
         d="m 112.667,89.332 0,-21.664 59.999,-0.002 0,-31.167 -34.333,0 0,26.167 -25.666,0 0,-49.667 77.416,0 0,0.999 0.01,-0.999 c 4.793,0.101 8.201,4.625 8.238,9.085 l 0,0 0,58.835 c -0.006,4.534 -3.64,8.395 -8.249,8.413 l 0,0 -77.415,0 0,0 z m 2,-2 75.414,0 c 3.439,-0.004 6.254,-2.954 6.252,-6.413 l 0,0 0,-58.831 c 0.006,-3.498 -2.871,-7.095 -6.258,-7.089 l 0,0 -75.408,0 0,45.667 21.666,0 0,-26.167 38.333,0 0,35.167 -59.999,0 0,17.666 0,0 z"
         id="path5498"
         inkscape:connector-curvature="0" /></g></g><g
     id="g5500"
     transform="translate(-13.419,-12.999)"><linearGradient
       id="SVGID_11_"
       gradientUnits="userSpaceOnUse"
       x1="-403"
       y1="311.5"
       x2="-403"
       y2="238"
       gradientTransform="matrix(1,0,0,-1,654,325)"><stop
         offset="0"
         style="stop-color:#7ED3F7"
         id="stop5503" /><stop
         offset="1"
         style="stop-color:#003D7E"
         id="stop5505" /></linearGradient><polygon
       points="296,14.5 268.667,14.5 229.167,62.334 229.167,14.5 206,14.5 206,87.833 238.833,87.833 "
       id="polygon5507"
       style="fill:url(#SVGID_11_)" /><path
       d="m 204.999,88.834 0,-74.334 0,-1 25.169,0 0,46.049 38.027,-46.049 29.853,0 -58.726,75.334 -34.323,0 0,0 z m 2,-2.002 31.346,0 55.606,-71.332 -24.813,0 -40.972,49.614 0,-49.614 -21.166,0 -0.001,71.332 0,0 z M 206,15.5 l 0,-1 0,1 0,0 z"
       id="path5509"
       inkscape:connector-curvature="0" /></g><g
     id="g5511"
     transform="translate(-13.419,-12.999)"><linearGradient
       id="SVGID_12_"
       gradientUnits="userSpaceOnUse"
       x1="-369.74951"
       y1="311.5"
       x2="-369.74951"
       y2="238"
       gradientTransform="matrix(1,0,0,-1,654,325)"><stop
         offset="0"
         style="stop-color:#7ED3F7"
         id="stop5514" /><stop
         offset="1"
         style="stop-color:#003D7E"
         id="stop5516" /></linearGradient><rect
       x="272.16699"
       y="62.667"
       width="24.167"
       height="25.166"
       id="rect5518"
       style="fill:url(#SVGID_12_)" /><path
       d="m 271.166,88.834 0,-27.169 26.167,0 0,26.167 0,1.002 -26.167,0 0,0 z m 25.167,-1.002 0,-1 0,1 0,0 z m -23.167,-1 22.167,0 0,-23.166 -22.167,0 0,23.166 0,0 z"
       id="path5520"
       inkscape:connector-curvature="0" /></g><g
     id="g5522"
     transform="translate(-13.419,-12.999)"><linearGradient
       id="SVGID_13_"
       gradientUnits="userSpaceOnUse"
       x1="-208.3335"
       y1="311.5"
       x2="-208.3335"
       y2="238"
       gradientTransform="matrix(1,0,0,-1,654,325)"><stop
         offset="0"
         style="stop-color:#7ED3F7"
         id="stop5525" /><stop
         offset="1"
         style="stop-color:#003D7E"
         id="stop5527" /></linearGradient><polygon
       points="463.833,53.667 463.833,14.5 487.5,14.5 487.5,87.833 462.167,87.833 427,45.167 427,87.833 403.833,87.833 403.833,14.5 431.667,14.5 "
       id="polygon5529"
       style="fill:url(#SVGID_13_)" /><path
       d="M 461.695,88.834 428,47.953 l 0,40.881 -24.167,0 0,-1.002 1,0 -1,0 0,1.002 -1,0 0,-75.334 29.305,0 30.695,37.372 0,-37.372 25.667,0 0,75.334 -26.805,0 0,0 z M 404.833,86.832 426,86.829 l 0,-44.45 36.639,44.45 23.859,0 0,-71.329 -21.665,0 0,40.961 -33.639,-40.961 -26.361,0 0,71.332 0,0 z"
       id="path5531"
       inkscape:connector-curvature="0" /></g><g
     id="g5533"
     transform="translate(-13.419,-12.999)"><linearGradient
       id="SVGID_14_"
       gradientUnits="userSpaceOnUse"
       x1="-24"
       y1="311.5"
       x2="-24"
       y2="238"
       gradientTransform="matrix(1,0,0,-1,654,325)"><stop
         offset="0"
         style="stop-color:#7ED3F7"
         id="stop5536" /><stop
         offset="1"
         style="stop-color:#003D7E"
         id="stop5538" /></linearGradient><polygon
       points="671.833,68.167 611.667,68.167 611.667,60.667 671.833,60.667 671.833,40.5 611.5,40.5 611.5,34.833 671.833,34.833 671.833,14.5 588.167,14.5 588.167,87.833 671.833,87.833 "
       id="polygon5540"
       style="fill:url(#SVGID_14_)" /><path
       d="m 587.167,88.834 0,-74.334 0,-1 85.667,0 0,22.333 -60.335,0 0,3.667 60.335,0 0,22.167 -60.168,0 0,5.499 60.168,0 0,21.668 -85.667,0 0,0 z m 2,-2.005 81.666,0 0,-17.663 -60.166,0 0,-9.501 60.166,0 0,-18.165 -60.333,0 0,-7.667 60.333,0 0,-18.333 -81.666,0 0,71.329 0,0 z m -1,-71.329 0,-1 0,1 0,0 z"
       id="path5542"
       inkscape:connector-curvature="0" /></g><g
     id="g5544"
     transform="translate(-13.419,-12.999)"><linearGradient
       id="SVGID_15_"
       gradientUnits="userSpaceOnUse"
       x1="-82"
       y1="224.5"
       x2="-82"
       y2="151.5"
       gradientTransform="matrix(1,0,0,-1,654,325)"><stop
         offset="0"
         style="stop-color:#7ED3F7"
         id="stop5547" /><stop
         offset="1"
         style="stop-color:#003D7E"
         id="stop5549" /></linearGradient><polygon
       points="613.834,153.167 553.666,153.167 553.666,145.667 613.834,145.667 613.834,125.5 553.5,125.5 553.5,119.834 613.834,119.834 613.834,99.5 530.166,99.5 530.166,172.833 613.834,172.833 "
       id="polygon5551"
       style="fill:url(#SVGID_15_)" /><path
       d="m 529.165,173.833 0,-74.333 0,-1.002 85.669,0 0,22.336 -60.334,-0.002 0,3.667 60.334,0 0,22.167 -60.169,-0.003 0,5.502 60.169,0 0,21.668 -85.669,0 0,0 z m 2,-2.001 81.668,0 0,-17.667 -60.167,0 0,-9.499 60.167,0 0,-18.167 -60.333,0 0,-7.667 60.332,0 0,-18.332 -81.668,0 10e-4,71.332 0,0 z m -1,-71.332 0,-1 0,1 0,0 z"
       id="path5553"
       inkscape:connector-curvature="0" /></g></svg>