<?xml version="1.0" encoding="UTF-8" standalone="no"?>
<!-- Generator: Adobe Illustrator 17.0.0, SVG Export Plug-In . SVG Version: 6.00 Build 0)  -->

<svg
   xmlns:ns="&amp;ns_sfw;"
   xmlns:dc="http://purl.org/dc/elements/1.1/"
   xmlns:cc="http://creativecommons.org/ns#"
   xmlns:rdf="http://www.w3.org/1999/02/22-rdf-syntax-ns#"
   xmlns:svg="http://www.w3.org/2000/svg"
   xmlns="http://www.w3.org/2000/svg"
   xmlns:sodipodi="http://sodipodi.sourceforge.net/DTD/sodipodi-0.dtd"
   xmlns:inkscape="http://www.inkscape.org/namespaces/inkscape"
   version="1.1"
   id="Layer_1"
   x="0px"
   y="0px"
   width="2801.6372"
   height="686.94"
   viewBox="0 0 2801.6372 686.94"
   enable-background="new 0 0 612 792"
   xml:space="preserve"
   inkscape:version="0.91 r13725"
   sodipodi:docname="logo.svg"><defs
     id="defs4770" /><sodipodi:namedview
     pagecolor="#ffffff"
     bordercolor="#666666"
     borderopacity="1"
     objecttolerance="10"
     gridtolerance="10"
     guidetolerance="10"
     inkscape:pageopacity="0"
     inkscape:pageshadow="2"
     inkscape:window-width="1680"
     inkscape:window-height="975"
     id="namedview4768"
     showgrid="false"
     inkscape:zoom="0.34445702"
     inkscape:cx="1304"
     inkscape:cy="208.26"
     inkscape:window-x="1671"
     inkscape:window-y="-9"
     inkscape:window-maximized="1"
     inkscape:current-layer="g4773"
     fit-margin-top="0"
     fit-margin-left="0"
     fit-margin-right="0"
     fit-margin-bottom="0"
     showguides="true"
     inkscape:guide-bbox="true"><sodipodi:guide
       position="484.02996,0.014665782"
       orientation="0,1"
       id="guide5470" /></sodipodi:namedview><metadata
     id="metadata4710"><ns:sfw><ns:slices /><ns:sliceSourceBounds
         width="479.96"
         height="686.94"
         x="0"
         y="0"
         bottomLeftOrigin="true" /></ns:sfw><rdf:RDF><cc:Work
         rdf:about=""><dc:format>image/svg+xml</dc:format><dc:type
           rdf:resource="http://purl.org/dc/dcmitype/StillImage" /><dc:title></dc:title></cc:Work></rdf:RDF></metadata><rect
     x="10.000001"
     y="10"
     width="459.95999"
     height="666.94"
     id="rect4712" /><polygon
     points="162.99,100.56 103,100.56 103,118.55 124,118.55 124,382.53 141.99,382.53 141.99,118.55 162.99,118.55 "
     id="polygon4714"
     style="fill:#d5e14d;fill-opacity:1"
     transform="translate(-67,-52.56)" /><path
     d="m 92.99,623.95 -24,0 0,-242.98 24,0 0,56.989 18.56,0 -0.02,-61.489 c 0,-9.11 -7.39,-16.5 -16.5,-16.5 l -27.54,0 c -9.1,0 -16.49,7.39 -16.49,16.5 l 0,251.98 c 0,9.11 7.39,16.5 16.49,16.5 l 44.09,-0.02 -0.02,-158.971 -30.57,0 0,18 12,0 0,119.991 z"
     id="path4716"
     style="fill:#d5e14d;fill-opacity:1"
     inkscape:connector-curvature="0" /><path
     d="m 368.97,64.49 0.05,249.03 c 0,9.1 7.391,16.5 16.5,16.5 l 27.18,0 c 9.11,0 16.86,-7.4 16.86,-16.5 L 429.5,64.49 C 429.5,55.39 422.11,48 413,48 l -27.53,0 c -9.11,0 -16.5,7.39 -16.5,16.49 z m 18,4.5 23.99,0 0,239.98 -23.99,0 0,-239.98 z"
     id="path4718"
     style="fill:#d5e14d;fill-opacity:1"
     inkscape:connector-curvature="0" /><path
     d="m 113.99,48 0.31,190.29 c 0,9.11 7.39,16.5 16.5,16.5 l 26.91,0 c 9.11,0 16.4,-7.39 16.4,-16.5 L 174.52,48 l -18.53,0 0,185.98 -24,0 0,-185.98 -18,0 z"
     id="path4720"
     style="fill:#d5e14d;fill-opacity:1"
     inkscape:connector-curvature="0" /><path
     d="m 281.98,254.98 43.729,0.27 c 9.109,0 16.8,-8.16 16.8,-17.27 l 0,-84.99 c 0,-2.21 -3.44,-5.83 -4.23,-7.76 0.79,-1.93 4.23,-5.53 4.23,-7.74 l 0,-73 c 0,-9.1 -7.39,-16.49 -16.5,-16.49 l -44.029,0 0,206.98 z m 17.99,-185.99 24,0 0,66 -24,0 0,-66 z m 0,87 24,0 0,77.99 -24,0 0,-77.99 z"
     id="path4722"
     style="fill:#d5e14d;fill-opacity:1"
     inkscape:connector-curvature="0" /><path
     d="m 212.98,156.03 9,-0.04 21,98.99 21,0 -21,-98.99 c 8.55,-0.64 15.589,-7.77 15.589,-16.46 l -0.05,-75.04 c 0,-9.1 -7.399,-16.49 -16.5,-16.49 l -47.039,0 0,206.98 18,0 0,-98.95 z m 0,-87.04 24,0 0,66 -24,0 0,-66 z"
     id="path4724"
     style="fill:#d5e14d;fill-opacity:1"
     inkscape:connector-curvature="0" /><path
     d="m 282.52,644.94 -0.01,-190.48 c 0,-9.109 -7.39,-16.5 -16.49,-16.5 l -30.54,0 c -9.11,0 -16.5,7.391 -16.5,16.5 l 0,190.48 18.54,0 0,-98.99 26.461,0 0,98.99 18.539,0 z m -18.54,-185.98 0,65.99 -26.46,0 0,-65.99 26.46,0 z"
     id="path4726"
     style="fill:#d5e14d;fill-opacity:1"
     inkscape:connector-curvature="0" /><path
     d="m 353.97,437.99 -31.5,-0.03 c -9.1,0 -16.5,7.391 -16.5,16.5 l 0,190.48 18.54,0 0,-98.99 26.46,0 0,-21 -26.46,0 0,-65.99 29.46,0 0,-20.97 z"
     id="path4728"
     style="fill:#d5e14d;fill-opacity:1"
     inkscape:connector-curvature="0" /><path
     d="m 149.99,546 9,-0.051 20.99,98.99 21,0 -21,-98.99 c 8.56,-0.64 15.6,-7.77 15.6,-16.449 l -0.06,-75.041 c 0,-9.109 -7.39,-16.5 -16.5,-16.5 l -47.03,0 0,206.981 18,0 0,-98.94 z m 0,-87.04 23.99,0 0,65.99 -23.99,0 0,-65.99 z"
     id="path4730"
     style="fill:#d5e14d;fill-opacity:1"
     inkscape:connector-curvature="0" /><path
     d="m 368.97,554.56 0,90.38 18,0 0,-90.38 c 0.03,-2.13 0.31,-12.57 3,-17.61 1.38,-2.59 5.96,-10.47 10.49,-18.191 4.54,7.721 9.12,15.601 10.5,18.191 2.69,5.04 2.97,15.48 3,17.61 l 0,90.38 18,0 0,-90.38 c -0.021,-2.689 -0.26,-18.47 -3,-23.61 -2.55,-4.779 -13.771,-23.1 -17.08,-28.49 3.31,-5.39 14.53,-23.72 17.08,-28.5 2.74,-5.14 2.979,-20.909 3,-23.609 l 0,-90.38 -18,0 0,90.38 c -0.03,2.13 -0.31,12.57 -3,17.609 -1.38,2.601 -5.96,10.471 -10.5,18.19 -4.53,-7.72 -9.11,-15.59 -10.49,-18.19 -2.69,-5.039 -2.97,-15.48 -3,-17.609 l 0,-90.38 -18,0 0,90.38 c 0.021,2.7 0.261,18.47 3,23.609 2.55,4.78 13.771,23.11 17.08,28.5 -3.31,5.391 -14.53,23.711 -17.08,28.49 -2.74,5.14 -2.98,20.921 -3,23.61 z"
     id="path4732"
     style="fill:#d5e14d;fill-opacity:1"
     inkscape:connector-curvature="0" /><path
     d="m 0,0 0,686.94 479.96,0 L 479.96,0 0,0 Z m 18,21 441.96,0 0,647.94 L 18,668.94 18,21 Z"
     id="path4734"
     style="fill:#d5e14d;fill-opacity:1"
     inkscape:connector-curvature="0" /><path
     d="m 119.99,349.47 c 0,38.909 31.58,70.489 70.49,70.489 l 93,0 c 38.909,0 70.489,-31.58 70.489,-70.489 0,-38.91 -31.58,-70.49 -70.489,-70.49 l -93,0 c -38.91,0 -70.49,31.58 -70.49,70.49 z m 10,-0.13 c 0,-34.15 27.71,-61.86 61.86,-61.86 l 90.039,0 c 34.15,0 61.86,27.71 61.86,61.86 0,34.149 -27.71,61.859 -61.86,61.859 l -90.039,0 C 157.7,411.2 129.99,383.49 129.99,349.34 Z"
     id="path4736"
     style="fill:#f79226;fill-opacity:1"
     inkscape:connector-curvature="0" /><polygon
     points="255.98,360.03 234.99,360.03 234.99,369.03 246.98,369.03 246.98,435.03 234.99,435.03 234.99,444.03 267.98,444.03 267.98,435.03 255.98,435.03 "
     id="polygon4738"
     style="fill:#f79226;fill-opacity:0.94117647"
     transform="translate(-67,-52.56)" /><path
     d="m 293.97,376.33 0,3.141 -3.13,0 -62.72,0 -3.14,0 0,-3.141 0,-14.86 0,-5.86 c 0,-3.05 0.09,-3.14 3.14,-3.14 l 62.72,0 c 3.04,0 3.13,0.09 3.13,3.14 l 0,20.72 z m -68.99,-32.86 0,-23.86 c 0,-3.04 0.09,-3.14 3.14,-3.14 l 62.72,0 c 3.04,0 3.13,0.1 3.13,3.14 l 0,8.86 9,0 0,-6.3 c 0,-8.11 -6.58,-14.7 -14.69,-14.7 l -57.61,0 c -8.11,0 -14.69,6.59 -14.69,14.7 l 0,54.6 c 0,8.109 6.58,14.7 14.69,14.7 l 57.609,0 c 8.11,0 14.69,-6.591 14.69,-14.7 l 0,-21.609 c 0,-8.11 -3.58,-11.691 -11.69,-11.691 l -66.299,0 z"
     id="path4740"
     style="fill:#f79226;fill-opacity:1"
     inkscape:connector-curvature="0" /><g
     id="g4742"
     transform="translate(-67,-52.56)"><path
       d="m 196.99,402.4 c 0,-34.15 27.71,-61.871 61.86,-61.871 l 90.039,0 c 34.15,0 61.86,27.72 61.86,61.871 0,34.149 -27.71,61.859 -61.86,61.859 l -90.039,0 C 224.7,464.26 196.99,436.55 196.99,402.4 Z"
       id="path4744"
       inkscape:connector-curvature="0"
       style="fill:none;stroke:#fffae6;stroke-width:2.99970007;stroke-linecap:round;stroke-linejoin:round" /></g><polygon
     points="162.99,109.56 117,109.56 117,118.55 132.99,118.55 132.99,382.53 141.99,382.53 141.99,118.55 162.99,118.55 "
     id="polygon4746"
     style="fill:#ffffe6"
     transform="translate(-67,-52.56)" /><path
     d="m 101.99,633.94 -33,0 0,-252.97 33,0 0,56.989 9.56,0 -0.02,-51.489 c 0,-9.11 -7.39,-16.5 -16.5,-16.5 l -18.54,0 c -9.1,0 -16.5,7.39 -16.5,16.5 l 0,241.98 c 0,9.11 7.4,16.5 16.5,16.5 l 35.09,-0.02 -0.02,-149.971 -23.57,0 0,9 14,0 0,129.981 z"
     id="path4748"
     inkscape:connector-curvature="0"
     style="fill:#ffffe6" /><path
     d="m 377.97,73.49 0.05,240.03 c 0,9.1 7.391,16.5 16.5,16.5 l 18.18,0 c 9.11,0 16.86,-7.4 16.86,-16.5 L 429.5,73.49 C 429.5,64.39 422.11,57 413,57 l -18.53,0 c -9.11,0 -16.5,7.39 -16.5,16.49 z m 9,-4.5 33.99,0 0,249.98 -33.99,0 0,-249.98 z"
     id="path4750"
     inkscape:connector-curvature="0"
     style="fill:#ffffe6" /><path
     d="m 122.99,57 0.31,181.29 c 0,9.11 0.39,16.5 9.5,16.5 l 24.91,0 c 9.11,0 16.4,-7.39 16.4,-16.5 L 174.52,57 l -9.53,0 0,186.98 -33,0 0,-186.98 -9,0 z"
     id="path4752"
     inkscape:connector-curvature="0"
     style="fill:#ffffe6" /><path
     d="m 290.97,254.98 34.74,0.27 c 9.109,0 16.8,-8.16 16.8,-17.27 l 0,-84.99 c 0,-2.21 -3.44,-5.83 -4.23,-7.76 0.79,-1.93 4.23,-5.53 4.23,-7.74 l 0,-64 c 0,-9.1 -7.39,-16.49 -16.5,-16.49 l -35.04,0 0,197.98 z m 9,-185.99 33,0 0,76 -33,0 0,-76 z m 0,87 33,0 0,87.99 -33,0 0,-87.99 z"
     id="path4754"
     inkscape:connector-curvature="0"
     style="fill:#ffffe6" /><path
     d="m 212.98,156.03 19,-0.04 21,98.99 11,0 -21,-98.99 c 8.55,-0.64 15.589,-7.77 15.589,-16.46 l -0.05,-66.04 c 0,-9.1 -7.399,-16.49 -16.5,-16.49 l -38.039,0 0,197.98 9,0 0,-98.95 z m 0,-87.04 34,0 0,76 -34,0 0,-76 z"
     id="path4756"
     inkscape:connector-curvature="0"
     style="fill:#ffffe6" /><path
     d="m 282.52,644.94 -0.01,-179.48 c 0,-9.109 -7.39,-16.5 -16.49,-16.5 l -21.54,0 c -9.11,0 -16.5,7.391 -16.5,16.5 l 0,179.48 9.54,0 0,-98.99 35.461,0 0,98.99 9.539,0 z m -9.54,-185.98 0,75.99 -35.46,0 0,-75.99 35.46,0 z"
     id="path4758"
     inkscape:connector-curvature="0"
     style="fill:#ffffe6" /><path
     d="m 353.97,448.99 -22.5,-0.03 c -9.1,0 -16.5,7.391 -16.5,16.5 l 0,179.48 9.54,0 0,-98.99 26.46,0 0,-11 -26.46,0 0,-75.99 29.46,0 0,-9.97 z"
     id="path4760"
     inkscape:connector-curvature="0"
     style="fill:#ffffe6" /><path
     d="m 378.97,554.56 0,90.38 8,0 0,-90.38 c 0.03,-2.13 0.31,-12.57 3,-17.61 1.38,-2.59 10.96,-17.47 15.49,-25.191 4.54,7.721 14.12,22.601 15.5,25.191 2.69,5.04 2.97,15.48 3,17.61 l 0,90.38 8,0 0,-90.38 c -0.021,-2.689 -0.26,-18.47 -3,-23.61 -2.55,-4.779 -13.771,-23.1 -17.08,-28.49 3.31,-5.39 14.53,-23.72 17.08,-28.5 2.74,-5.14 2.979,-20.909 3,-23.609 l 0,-80.38 -8,0 0,80.38 c -0.03,2.13 -0.31,12.57 -3,17.609 -1.38,2.601 -10.96,18.471 -15.5,26.19 -4.53,-7.72 -14.11,-23.59 -15.49,-26.19 -2.69,-5.039 -2.97,-15.48 -3,-17.609 l 0,-80.38 -8,0 0,80.38 c 0.021,2.7 0.261,18.47 3,23.609 2.55,4.78 13.771,23.11 17.08,28.5 -3.31,5.391 -14.53,23.711 -17.08,28.49 -2.74,5.14 -2.98,20.921 -3,23.61 z"
     id="path4762"
     inkscape:connector-curvature="0"
     style="fill:#ffffe6" /><path
     d="m 18,21 441.96,0 0,647.94 L 18,668.94 18,21 Z m -8,-11 0,666.94 459.96,0 L 469.96,10 10,10 Z"
     id="path4764"
     inkscape:connector-curvature="0"
     style="fill:#ffffe6" /><path
     d="m 149.99,546 19,-0.051 20.99,98.99 11,0 -21,-98.99 c 8.56,-0.64 15.6,-7.77 15.6,-16.449 l -0.06,-64.041 c 0,-9.109 -7.39,-16.5 -16.5,-16.5 l -38.03,0 0,195.981 9,0 0,-98.94 z m 0,-87.04 33.99,0 0,75.99 -33.99,0 0,-75.99 z"
     id="path4766"
     inkscape:connector-curvature="0"
     style="fill:#ffffe6" /><g
     id="g4773"
     transform="matrix(3.9300224,0,0,3.9300224,573.60138,114.17062)"
     style="fill:#000000;fill-opacity:1"><polygon
       style="fill:#000000;fill-opacity:1"
       points="19.862,120.425 9.929,120.425 9.929,8.264 0,8.264 0,0 28.081,0 28.081,8.264 19.862,8.264 "
       id="polygon4775"
       transform="translate(0,-1.4774063)" /><path
       style="fill:#000000;fill-opacity:1"
       inkscape:connector-curvature="0"
       d="m 53.519,110.7386 10.961,0 0,-78.582006 9.587,0 0,78.582006 c 0,5.085 -4.622,8.688 -9.36,8.688 l -11.188,0 c -5.007,0 -9.474,-4.075 -9.474,-8.791 l 0,-78.479006 9.474,0 0,78.582006 z"
       id="path4777" /><path
       style="fill:#000000;fill-opacity:1"
       inkscape:connector-curvature="0"
       d="m 259.674,51.349594 14.642,0 0,68.155006 -20.632,0 c -4.412,0 -9.846,-3.377 -9.846,-8.5 l 0,-103.0250062 c 0,-4.328 4.535,-8.93700006 9.629,-8.93700006 l 11.259,0 c 4.994,0 9.525,4.56700006 9.525,8.83600006 l 0,24.4070002 -9.868,0 0,-24.0670002 -11.213,0 0,102.8620062 11.472,0 0,-51.390006 -4.968,0 0,-8.341 z"
       id="path4779" /><path
       style="fill:#000000;fill-opacity:1"
       inkscape:connector-curvature="0"
       d="m 401.255,77.676594 0,41.310006 -9.244,0 0,-79.119006 c 0,-3.574 3.552,-7.468 8.047,-7.468 l 15.24,0 0,7.626 -14.043,0 0,29.232 11.56,0 0,8.458 -11.56,-0.039 z"
       id="path4781" /><path
       style="fill:#000000;fill-opacity:1"
       inkscape:connector-curvature="0"
       d="m 434.045,32.421594 9.703,0 0,31.512 5.479,5.509 5.363,-5.356 0,-31.665 9.586,0 0,29.982 c 0,3.661 -9.47,13.306 -9.47,13.306 0,0 9.586,9.639 9.586,13.546 l 0,29.905006 -9.017,0 0,-31.134006 -5.822,-5.887 -5.821,5.81 0,31.212006 -9.587,0 0,-29.834006 c 0,-3.668 10.155,-13.694 10.155,-13.694 0,0 -10.155,-9.538 -10.155,-13.381 l 0,-29.831 z"
       id="path4783" /><path
       style="fill:#000000;fill-opacity:1"
       inkscape:connector-curvature="0"
       d="m 115.616,77.871594 c 3.253,0 7.578,-3.888 7.578,-9.092 l 0,-28.437 c 0,-4.092 -4.667,-7.902 -9.975,-7.902 l -19.691,0 0,86.894006 9.076,0 0,-40.824006 3.425,0 10.101,40.670006 8.904,0 -9.418,-41.309006 z m -1.796,-8.497 -10.874,0 0,-28.515 10.874,0 0,28.515 z"
       id="path4785" /><path
       style="fill:#000000;fill-opacity:1"
       inkscape:connector-curvature="0"
       d="m 316.457,77.644594 c 3.254,0 7.581,-3.895 7.581,-9.095 l 0,-28.437 c 0,-4.091 -4.67,-7.905 -9.975,-7.905 l -19.69,0 0,86.900006 9.069,0 0,-40.830006 3.428,0 10.104,40.669006 8.901,0 -9.418,-41.302006 z m -1.928,-8.594 -10.867,0 0,-28.514 10.867,0 0,28.514 z"
       id="path4787" /><path
       style="fill:#000000;fill-opacity:1"
       inkscape:connector-curvature="0"
       d="m 171.712,79.920594 c -0.042,-3.894 -4.107,-6.358 -4.107,-6.358 0,0 4.107,-2.658 4.107,-6.353 l 0,-26.527 c 0,-5.007 -4.408,-8.264 -8.901,-8.264 l -20.719,0 0,86.743006 20.719,0 c 4.195,0 8.901,-2.62 8.901,-8.261 0,0 0.046,-27.091006 0,-30.980006 z m -9.331,30.741006 -10.871,0 0,-32.331006 10.871,0 0,32.331006 z m 0,-41.307006 -10.871,0 0,-28.514 10.871,0 0,28.514 z"
       id="path4789" /><path
       style="fill:#000000;fill-opacity:1"
       inkscape:connector-curvature="0"
       d="m 211.392,31.777594 -5.479,0 -5.308,0 c -5.437,0 -9.396,4.648 -9.396,8.183 l 0,70.447006 c 0,4.554 5.072,8.682 9.354,8.682 l 11.728,0 c 4.58,0 9.16,-4.729 9.16,-8.5 l 0,-70.868006 c 0,-3.176 -4.325,-7.944 -10.059,-7.944 z m 0.342,78.359006 -10.502,0 0,-69.778006 10.502,0 0,69.778006 z"
       id="path4791" /><path
       style="fill:#000000;fill-opacity:1"
       inkscape:connector-curvature="0"
       d="m 363.691,32.398594 -11.979,0 c -5.396,0 -8.564,4.447 -8.564,7.944 l 0,78.644006 9.075,0 0,-41.310006 11.469,0 0,41.310006 9.076,0 0,-78.169006 c -10e-4,-5.188 -3.591,-8.419 -9.077,-8.419 z m -0.259,36.7 -10.867,0 0,-27.96 10.867,0 0,27.96 z"
       id="path4793" /><g
       id="g4795"
       style="fill:#000000;fill-opacity:1"
       transform="translate(0,-1.4774063)"><g
         id="g4797"
         style="fill:#000000;fill-opacity:1"><rect
           style="fill:#000000;fill-opacity:1"
           x="518.90198"
           y="79.943001"
           width="28.094"
           height="10.479"
           id="rect4799" /><path
           style="fill:#000000;fill-opacity:1"
           inkscape:connector-curvature="0"
           d="m 522.37,32.673 c -24.607,0 -44.551,19.946 -44.551,44.553 0,24.607 19.943,44.557 44.551,44.557 24.606,0 44.557,-19.949 44.557,-44.557 C 566.926,52.62 546.976,32.673 522.37,32.673 Z m -15.163,62.86 -14.128,0 0,-4.949 4.554,0 0,-26.146 -4.47,0 0,-5.113 9.58,0 0,31.175 4.464,0 0,5.033 z m 44.66,-26.709 -4.541,0 0,-4.548 -28.67,0 0,10.88 30.617,0 2.594,2.601 0,14.374 -3.247,3.247 -31.341,0 -3.248,-3.247 0,-29.64 3.008,-3.005 32.072,0 2.756,2.759 0,6.579 z"
           id="path4801" /></g></g></g></svg>