<?xml version="1.0" encoding="UTF-8" standalone="no"?>
<!-- Generator: Adobe Illustrator 13.0.0, SVG Export Plug-In . SVG Version: 6.00 Build 14948)  -->

<svg
   xmlns:dc="http://purl.org/dc/elements/1.1/"
   xmlns:cc="http://creativecommons.org/ns#"
   xmlns:rdf="http://www.w3.org/1999/02/22-rdf-syntax-ns#"
   xmlns:svg="http://www.w3.org/2000/svg"
   xmlns="http://www.w3.org/2000/svg"
   xmlns:sodipodi="http://sodipodi.sourceforge.net/DTD/sodipodi-0.dtd"
   xmlns:inkscape="http://www.inkscape.org/namespaces/inkscape"
   version="1.2"
   id="Ebene_1"
   x="0px"
   y="0px"
   width="373.60962"
   height="105.80149"
   viewBox="0 0 373.60961 105.80149"
   xml:space="preserve"
   inkscape:version="0.91 r13725"
   sodipodi:docname="logo.svg"><metadata
     id="metadata55"><rdf:RDF><cc:Work
         rdf:about=""><dc:format>image/svg+xml</dc:format><dc:type
           rdf:resource="http://purl.org/dc/dcmitype/StillImage" /><dc:title></dc:title></cc:Work></rdf:RDF></metadata><defs
     id="defs53" /><sodipodi:namedview
     pagecolor="#ffffff"
     bordercolor="#666666"
     borderopacity="1"
     objecttolerance="10"
     gridtolerance="10"
     guidetolerance="10"
     inkscape:pageopacity="0"
     inkscape:pageshadow="2"
     inkscape:window-width="1497"
     inkscape:window-height="895"
     id="namedview51"
     showgrid="false"
     fit-margin-top="0"
     fit-margin-left="0"
     fit-margin-right="0"
     fit-margin-bottom="0"
     inkscape:zoom="2.3642481"
     inkscape:cx="194.97722"
     inkscape:cy="59.157022"
     inkscape:window-x="1753"
     inkscape:window-y="14"
     inkscape:window-maximized="0"
     inkscape:current-layer="Ebene_1" /><path
     style="fill:#aaaaaa;fill-opacity:1;fill-rule:evenodd;stroke:none;stroke-width:0"
     d="M 107.80859 46.333984 C 105.71429 46.333984 103.72991 46.604234 101.85742 47.148438 C 99.979765 47.690058 98.355806 48.504152 96.978516 49.605469 C 95.596071 50.69648 94.502524 52.081825 93.6875 53.740234 C 92.872475 55.40639 92.466797 57.333714 92.466797 59.523438 C 92.466797 61.437196 92.752892 63.077014 93.320312 64.441406 C 93.879998 65.81094 94.62072 66.991466 95.523438 67.992188 C 96.43647 68.998074 97.46757 69.860484 98.623047 70.580078 C 99.773366 71.299672 100.95981 71.938439 102.1875 72.505859 C 103.41262 73.07328 104.60234 73.60972 105.75781 74.115234 C 106.91845 74.62333 107.94181 75.162506 108.85742 75.740234 C 109.76014 76.323148 110.49891 76.978521 111.05859 77.71875 C 111.62601 78.461562 111.91211 79.358961 111.91211 80.390625 C 111.91211 81.288192 111.74741 82.103455 111.41211 82.835938 C 111.08197 83.571025 110.604 84.188386 109.98242 84.683594 C 109.35567 85.178802 108.59552 85.559279 107.70312 85.830078 C 106.80814 86.103595 105.79562 86.240234 104.6582 86.240234 C 102.9353 86.240234 101.42937 86.047044 100.11914 85.660156 C 98.808911 85.270708 97.684218 84.837224 96.740234 84.365234 C 95.79625 83.895804 95.0222 83.468202 94.423828 83.076172 C 93.820296 82.691866 93.354903 82.498047 93.027344 82.498047 C 92.795218 82.498047 92.583594 82.56501 92.408203 82.691406 C 92.232819 82.825525 92.087553 83.042615 91.984375 83.341797 C 91.878638 83.651307 91.804222 84.056203 91.757812 84.548828 C 91.706213 85.044036 91.685547 85.652284 91.685547 86.384766 C 91.685547 87.465448 91.752533 88.295992 91.878906 88.878906 C 92.010445 89.451469 92.230185 89.89229 92.537109 90.199219 C 92.838875 90.508729 93.335569 90.860618 94.037109 91.257812 C 94.73349 91.657588 95.595353 92.041973 96.634766 92.408203 C 97.674181 92.769291 98.871858 93.081305 100.22852 93.341797 C 101.57743 93.599798 103.04528 93.728516 104.62891 93.728516 C 106.96565 93.728516 109.15791 93.421821 111.21094 92.810547 C 113.25624 92.194131 115.05062 91.283161 116.58008 90.068359 C 118.1147 88.858722 119.33026 87.337231 120.22266 85.521484 C 121.12021 83.705738 121.57031 81.599049 121.57031 79.1875 C 121.57031 77.35626 121.28422 75.756363 120.7168 74.394531 C 120.14938 73.045632 119.40717 71.867215 118.49414 70.861328 C 117.56821 69.860606 116.52368 68.998891 115.33984 68.279297 C 114.16372 67.559704 112.95363 66.915772 111.72852 66.353516 C 110.5034 65.786095 109.2933 65.248331 108.11719 64.740234 C 106.93334 64.234697 105.8861 63.691727 104.94727 63.119141 C 104.01876 62.541414 103.27586 61.879531 102.71875 61.136719 C 102.16423 60.393908 101.88672 59.511681 101.88672 58.498047 C 101.88672 57.81456 102.01286 57.16531 102.26562 56.556641 C 102.50806 55.940202 102.8851 55.4144 103.39062 54.978516 C 103.89873 54.537469 104.53077 54.198775 105.28906 53.951172 C 106.04218 53.70359 106.92005 53.578125 107.94141 53.578125 C 109.23875 53.578125 110.43111 53.740101 111.51953 54.0625 C 112.59764 54.382317 113.55747 54.735617 114.38281 55.132812 C 115.20557 55.519677 115.90454 55.886045 116.4668 56.21875 C 117.03422 56.548919 117.45239 56.716797 117.71289 56.716797 C 117.97081 56.716797 118.17596 56.644402 118.32812 56.507812 C 118.48289 56.363387 118.59914 56.139655 118.68164 55.837891 C 118.76673 55.530963 118.81872 55.136075 118.85742 54.664062 C 118.89622 54.194655 118.91211 53.618405 118.91211 52.9375 C 118.91211 52.321061 118.9008 51.810475 118.875 51.400391 C 118.85437 50.987703 118.80811 50.644498 118.75391 50.371094 C 118.69459 50.100273 118.62232 49.881161 118.54492 49.71875 C 118.45723 49.556271 118.29784 49.356438 118.06055 49.119141 C 117.82585 48.884426 117.34382 48.576019 116.61133 48.222656 C 115.884 47.869314 115.05079 47.5448 114.10938 47.263672 C 113.16024 46.974797 112.15225 46.749114 111.06641 46.583984 C 109.97799 46.418968 108.89443 46.333984 107.80859 46.333984 z M 39.994141 46.935547 C 38.645224 46.935547 37.603584 46.965504 36.871094 47.027344 C 36.141183 47.081504 35.640583 47.235535 35.367188 47.488281 C 35.096362 47.735885 35.035957 48.112369 35.185547 48.623047 C 35.345458 49.128584 35.634278 49.804489 36.054688 50.658203 L 46.257812 69.458984 L 35.302734 89.462891 C 34.856533 90.293386 34.558577 90.948217 34.421875 91.451172 C 34.277445 91.946379 34.323888 92.320215 34.558594 92.578125 C 34.79588 92.841223 35.248081 93.008585 35.923828 93.078125 C 36.594418 93.150388 37.541209 93.183594 38.771484 93.183594 C 39.839267 93.183594 40.687308 93.160258 41.339844 93.111328 C 41.984642 93.059818 42.492504 92.988596 42.861328 92.882812 C 43.224994 92.779657 43.490559 92.627149 43.658203 92.441406 C 43.823272 92.245403 43.978532 92.009709 44.115234 91.736328 L 52.6875 75.191406 L 61.320312 91.736328 C 61.436377 92.009709 61.581032 92.245471 61.746094 92.441406 C 61.908582 92.627126 62.174772 92.779522 62.541016 92.882812 C 62.907261 92.98846 63.405207 93.059678 64.037109 93.111328 C 64.681908 93.160258 65.550402 93.183594 66.654297 93.183594 C 67.974843 93.183594 69.004537 93.150385 69.742188 93.078125 C 70.484995 93.008495 71.001445 92.841223 71.285156 92.578125 C 71.563722 92.320215 71.639438 91.946379 71.515625 91.451172 C 71.381507 90.948217 71.102051 90.293386 70.681641 89.462891 L 59.783203 69.351562 L 69.986328 50.658203 C 70.386103 49.804489 70.649083 49.133857 70.783203 48.638672 C 70.91216 48.140882 70.851669 47.761839 70.59375 47.503906 C 70.33067 47.246041 69.86052 47.081484 69.171875 47.027344 C 68.49097 46.965274 67.560877 46.935547 66.384766 46.935547 C 65.322138 46.935547 64.491577 46.961373 63.890625 47.007812 C 63.292251 47.056739 62.819595 47.130545 62.476562 47.236328 C 62.13611 47.344648 61.891712 47.491453 61.734375 47.679688 C 61.582204 47.873131 61.432253 48.108173 61.292969 48.386719 L 53.478516 63.546875 L 45.414062 48.386719 C 45.274785 48.108173 45.126154 47.873131 44.976562 47.679688 C 44.816654 47.491408 44.549138 47.344602 44.177734 47.236328 C 43.796013 47.130545 43.284019 47.056742 42.628906 47.007812 C 41.976369 46.961373 41.108354 46.935547 39.994141 46.935547 z M 2.4023438 47.181641 C 2.1212119 47.181641 1.8782848 47.234822 1.6796875 47.353516 C 1.4810899 47.472165 1.3080203 47.679876 1.1816406 47.96875 C 1.0501027 48.267932 0.9551796 48.649887 0.8984375 49.134766 C 0.8365354 49.617085 0.81054688 50.206752 0.81054688 50.916016 C 0.81054687 51.573726 0.8365377 52.136061 0.8984375 52.605469 C 0.9551798 53.074876 1.0501009 53.450664 1.1816406 53.734375 C 1.308021 54.010361 1.4810903 54.217465 1.6796875 54.351562 C 1.8782852 54.477956 2.1212118 54.544922 2.4023438 54.544922 L 20.072266 54.544922 L 2.2890625 82.699219 C 1.8867087 83.351741 1.5462055 83.922541 1.2753906 84.394531 C 1.0019965 84.866521 0.8000583 85.305302 0.65820312 85.705078 C 0.51376852 86.104855 0.41158397 86.500548 0.35742188 86.892578 C 0.29552198 87.279466 0.265625 87.71551 0.265625 88.1875 L 0.265625 89.748047 C 0.265625 90.787458 0.52181956 91.584771 1.0273438 92.128906 C 1.5354444 92.67055 2.2578889 92.943359 3.2070312 92.943359 L 30.216797 92.943359 C 30.43087 92.943359 30.629297 92.883015 30.804688 92.769531 C 30.977495 92.64574 31.130657 92.441153 31.244141 92.144531 C 31.362792 91.850514 31.453653 91.463548 31.507812 90.994141 C 31.569703 90.514404 31.597656 89.934811 31.597656 89.253906 C 31.597656 87.861132 31.481427 86.872107 31.244141 86.304688 C 31.009435 85.742431 30.670735 85.455078 30.216797 85.455078 L 11.070312 85.455078 L 28.556641 57.6875 C 28.956416 57.055591 29.287003 56.508558 29.544922 56.046875 C 29.805419 55.587797 30.011261 55.142849 30.166016 54.699219 C 30.320756 54.265918 30.430215 53.817847 30.484375 53.361328 C 30.543705 52.904809 30.574219 52.360425 30.574219 51.728516 L 30.574219 49.998047 C 30.574219 49.103062 30.341283 48.411918 29.884766 47.921875 C 29.417934 47.426668 28.708684 47.181641 27.736328 47.181641 L 2.4023438 47.181641 z M 239.72656 50.441406 C 238.88057 50.441406 238.16109 50.46941 237.58594 50.53125 C 237.00819 50.585387 236.54873 50.678292 236.20312 50.804688 C 235.86782 50.938807 235.63019 51.094204 235.49609 51.285156 C 235.36694 51.476018 235.30469 51.689113 235.30469 51.923828 L 235.30469 58.953125 L 231.53711 58.953125 C 231.29208 58.953125 231.09134 59.012931 230.91602 59.128906 C 230.73288 59.244973 230.58549 59.439487 230.4668 59.712891 C 230.35073 59.986273 230.25723 60.358155 230.20312 60.837891 C 230.14102 61.307299 230.11328 61.885567 230.11328 62.574219 C 230.11328 63.881869 230.23469 64.804214 230.4668 65.361328 C 230.70409 65.91842 231.04928 66.197266 231.49805 66.197266 L 235.30469 66.197266 L 235.30469 82.375 C 235.30469 84.311955 235.5007 85.98505 235.9082 87.398438 C 236.3054 88.819573 236.92559 89.987595 237.7793 90.923828 C 238.62527 91.854919 239.69812 92.544111 240.99805 92.998047 C 242.28765 93.441587 243.82507 93.666016 245.5918 93.666016 C 246.25209 93.666016 246.90667 93.630854 247.55664 93.558594 C 248.19885 93.494105 248.80424 93.387464 249.36133 93.255859 C 249.9107 93.132045 250.39334 92.968941 250.80859 92.798828 C 251.21867 92.623437 251.53453 92.417836 251.74609 92.193359 C 251.95759 91.968973 252.12176 91.576622 252.25586 91.019531 C 252.38471 90.467581 252.44922 89.67474 252.44922 88.625 L 252.44922 88.623047 C 252.44922 87.96536 252.42118 87.424883 252.35938 86.994141 C 252.30502 86.573752 252.24027 86.233932 252.16797 85.986328 C 252.09576 85.743866 251.99488 85.570194 251.86328 85.490234 C 251.73949 85.407778 251.60546 85.363281 251.46094 85.363281 C 251.29586 85.363281 251.11652 85.407784 250.91016 85.490234 C 250.70897 85.570171 250.46715 85.671562 250.16797 85.777344 C 249.87909 85.880432 249.53936 85.976144 249.16797 86.058594 C 248.78625 86.141049 248.36457 86.179688 247.89258 86.179688 C 246.49725 86.179688 245.53062 85.752692 244.99414 84.888672 C 244.45252 84.029794 244.17773 82.735334 244.17773 81.017578 L 244.17773 66.197266 L 251.07422 66.197266 C 251.52043 66.197266 251.85842 65.91842 252.0957 65.361328 C 252.32788 64.804214 252.44922 63.881869 252.44922 62.574219 C 252.44922 61.885567 252.42118 61.307299 252.35938 60.837891 C 252.30515 60.358155 252.21439 59.986273 252.0957 59.712891 C 251.97705 59.439487 251.83287 59.244882 251.65234 59.128906 C 251.47953 59.012934 251.27246 58.953125 251.03516 58.953125 L 244.17773 58.953125 L 244.17773 51.923828 C 244.17773 51.689113 244.10534 51.476108 243.96875 51.285156 C 243.82432 51.094317 243.59061 50.938784 243.26562 50.804688 C 242.93033 50.678291 242.47619 50.58539 241.89844 50.53125 C 241.32586 50.46918 240.60349 50.441406 239.72656 50.441406 z M 147.04102 58.166016 C 145.93713 58.166016 144.90002 58.284209 143.91992 58.521484 C 142.94499 58.756199 141.99624 59.115989 141.07031 59.595703 C 140.15469 60.080604 139.25123 60.685962 138.36914 61.400391 C 137.4819 62.122567 136.58421 62.948599 135.66602 63.892578 L 135.66602 60.183594 C 135.66602 59.951484 135.60888 59.745635 135.49023 59.570312 C 135.37159 59.387198 135.16575 59.24239 134.86914 59.128906 C 134.5777 59.007765 134.1809 58.914921 133.70117 58.863281 C 133.21886 58.801441 132.62069 58.769531 131.90625 58.769531 C 131.17376 58.769531 130.56434 58.801441 130.08203 58.863281 C 129.59714 58.914881 129.20481 59.00772 128.9082 59.128906 C 128.61675 59.24239 128.41029 59.38978 128.28906 59.570312 C 128.17298 59.745703 128.11133 59.950225 128.11133 60.1875 L 128.11133 104.2832 C 128.11133 104.51533 128.18431 104.72583 128.32617 104.91406 C 128.47319 105.10748 128.70969 105.26487 129.05273 105.39648 C 129.39318 105.52283 129.85249 105.62821 130.41992 105.69531 C 130.98992 105.76759 131.7051 105.80078 132.58203 105.80078 C 133.45638 105.80078 134.17735 105.76761 134.74219 105.69531 C 135.30962 105.62826 135.76955 105.52223 136.10742 105.39062 C 136.45046 105.26426 136.69541 105.10229 136.83984 104.91406 C 136.97655 104.72578 137.04883 104.51527 137.04883 104.27539 L 137.04883 89.378906 C 137.80196 90.108828 138.53352 90.74093 139.24023 91.285156 C 139.94692 91.829359 140.65932 92.283443 141.37891 92.644531 C 142.09335 93.015926 142.8368 93.288106 143.59766 93.460938 C 144.36884 93.638796 145.20946 93.728516 146.13281 93.728516 C 148.34318 93.728516 150.3064 93.306209 152.0293 92.455078 C 153.74962 91.609111 155.18499 90.396136 156.33789 88.8125 C 157.49079 87.239193 158.36717 85.321943 158.9707 83.070312 C 159.56907 80.816101 159.86914 78.288649 159.86914 75.490234 C 159.86914 73.109627 159.63801 70.870941 159.16602 68.771484 C 158.69403 66.672027 157.94448 64.842078 156.91797 63.255859 C 155.89661 61.679992 154.57083 60.439057 152.94336 59.523438 C 151.32105 58.620728 149.35456 58.166016 147.04102 58.166016 z M 181.16797 58.166016 C 178.66615 58.166016 176.42277 58.573172 174.43164 59.40625 C 172.43535 60.231581 170.7476 61.427234 169.35742 62.990234 C 167.96208 64.563541 166.91022 66.471655 166.17773 68.720703 C 165.44524 70.964608 165.08008 73.497897 165.08008 76.306641 C 165.08008 79.249505 165.42729 81.814183 166.12109 84.003906 C 166.82005 86.196234 167.8698 88.00682 169.2832 89.451172 C 170.6966 90.885195 172.45663 91.956751 174.56641 92.666016 C 176.67361 93.370138 179.12736 93.728516 181.92578 93.728516 C 183.48361 93.728516 184.94358 93.630295 186.31055 93.431641 C 187.67753 93.233032 188.88981 93.005803 189.94727 92.732422 C 191.0099 92.464182 191.87965 92.193237 192.56055 91.912109 C 193.24404 91.628398 193.66424 91.410458 193.81641 91.248047 C 193.97115 91.07782 194.0947 90.905792 194.1875 90.730469 C 194.28037 90.552519 194.3527 90.333388 194.4043 90.070312 C 194.4456 89.817567 194.47875 89.501625 194.50195 89.132812 C 194.53025 88.766559 194.54102 88.324977 194.54102 87.798828 C 194.54102 87.208189 194.52243 86.718831 194.48633 86.324219 C 194.45022 85.932189 194.38837 85.632026 194.29297 85.417969 C 194.19753 85.209054 194.08007 85.057939 193.94336 84.980469 C 193.79893 84.892585 193.62228 84.855469 193.4082 84.855469 C 193.05485 84.855469 192.59485 84.964438 192.03516 85.191406 C 191.47032 85.415792 190.75473 85.670584 189.89844 85.941406 C 189.04215 86.212205 188.02181 86.465741 186.8457 86.6875 C 185.66701 86.911977 184.3001 87.027344 182.75 87.027344 C 181.22054 87.027344 179.90413 86.828769 178.81055 86.423828 C 177.72213 86.024051 176.82013 85.435299 176.12891 84.671875 C 175.43253 83.905845 174.93177 82.973106 174.60938 81.876953 C 174.29214 80.780801 174.13477 79.557254 174.13477 78.210938 L 193.32617 78.210938 C 194.17988 78.210938 194.84065 77.953277 195.32812 77.429688 C 195.81043 76.913868 196.05078 76.117725 196.05078 75.029297 L 196.05078 73.615234 C 196.05078 71.397129 195.76601 69.350221 195.20117 67.464844 C 194.63632 65.584609 193.7501 63.946269 192.55078 62.566406 C 191.34629 61.191707 189.80679 60.110319 187.93945 59.333984 C 186.06438 58.552483 183.80906 58.166016 181.16797 58.166016 z M 274.91602 58.166016 C 274.25575 58.166016 273.59584 58.259347 272.93555 58.429688 C 272.27528 58.610219 271.61019 58.922951 270.95508 59.369141 C 270.2974 59.823077 269.59516 60.425443 268.86523 61.199219 C 268.13275 61.962643 267.35793 62.937169 266.53516 64.113281 L 266.53516 60.1875 C 266.53516 59.950202 266.47742 59.745635 266.35352 59.570312 C 266.24004 59.389757 266.03838 59.24239 265.76758 59.128906 C 265.49675 59.007765 265.11888 58.914921 264.62109 58.863281 C 264.12074 58.801441 263.49912 58.769531 262.73828 58.769531 C 262.00577 58.769531 261.39573 58.801441 260.91602 58.863281 C 260.43112 58.914881 260.03215 59.00772 259.72266 59.128906 C 259.41573 59.24239 259.20712 59.38978 259.08594 59.570312 C 258.9697 59.745681 258.9082 59.950202 258.9082 60.1875 L 258.9082 91.763672 C 258.9082 92.008693 258.9793 92.212584 259.12109 92.390625 C 259.26812 92.563433 259.50658 92.712688 259.84961 92.826172 C 260.19007 92.949895 260.64938 93.03961 261.2168 93.09375 C 261.7868 93.1531 262.50002 93.183594 263.37695 93.183594 C 264.2513 93.183594 264.97422 93.1531 265.53906 93.09375 C 266.10648 93.039568 266.56447 92.949849 266.90234 92.826172 C 267.24537 92.712688 267.49025 92.563456 267.63477 92.390625 C 267.77132 92.212674 267.84375 92.008693 267.84375 91.763672 L 267.84375 72.083984 C 268.50402 71.036826 269.12345 70.164972 269.70117 69.453125 C 270.27892 68.736113 270.83329 68.173558 271.36719 67.740234 C 271.89592 67.312098 272.40909 66.999435 272.9043 66.800781 C 273.39434 66.5995 273.8876 66.498047 274.38281 66.498047 C 274.81353 66.498047 275.19744 66.544503 275.55078 66.626953 C 275.90673 66.704286 276.23012 66.795802 276.5293 66.888672 C 276.82073 66.978916 277.08887 67.072384 277.32617 67.152344 C 277.56086 67.2348 277.76999 67.279297 277.96094 67.279297 C 278.19307 67.279297 278.38631 67.217 278.54102 67.103516 C 278.69587 66.979725 278.82171 66.769819 278.91211 66.462891 C 279.00747 66.153381 279.07469 65.731791 279.12109 65.195312 C 279.17299 64.65111 279.19336 63.957295 279.19336 63.111328 C 279.19336 62.26278 279.18326 61.590911 279.16016 61.095703 C 279.13709 60.600496 279.10054 60.231979 279.05664 59.984375 C 279.00772 59.736771 278.95633 59.542839 278.89453 59.40625 C 278.83267 59.261824 278.73968 59.135396 278.61328 59.011719 C 278.48691 58.898121 278.28041 58.779721 277.99414 58.681641 C 277.70784 58.570693 277.37789 58.481654 277.00391 58.396484 C 276.62219 58.314031 276.26154 58.259433 275.9082 58.220703 C 275.55225 58.186953 275.22553 58.166016 274.91602 58.166016 z M 341.69727 58.166016 C 339.81189 58.166016 337.99829 58.634839 336.27539 59.583984 C 334.5396 60.527963 332.80345 61.945397 331.0625 63.835938 L 331.0625 60.1875 C 331.0625 59.950225 331.00347 59.745635 330.88477 59.570312 C 330.77129 59.389757 330.56963 59.24239 330.29883 59.128906 C 330.02801 59.007765 329.64755 58.914921 329.15234 58.863281 C 328.652 58.801441 328.031 58.769531 327.26758 58.769531 C 326.53765 58.769531 325.92824 58.801441 325.44336 58.863281 C 324.95846 58.914881 324.56082 59.00772 324.25391 59.128906 C 323.9444 59.24239 323.73588 59.38978 323.61719 59.570312 C 323.50095 59.745702 323.43945 59.950225 323.43945 60.1875 L 323.43945 91.763672 C 323.43945 92.008716 323.51055 92.212584 323.65234 92.390625 C 323.79679 92.563433 324.03782 92.712688 324.38086 92.826172 C 324.72131 92.949895 325.18063 93.03961 325.74805 93.09375 C 326.31547 93.1531 327.03127 93.183594 327.9082 93.183594 C 328.78255 93.183594 329.50289 93.1531 330.07031 93.09375 C 330.63773 93.039568 331.09572 92.949849 331.43359 92.826172 C 331.77662 92.712688 332.01954 92.563456 332.16406 92.390625 C 332.30092 92.212674 332.37695 92.000969 332.37695 91.763672 L 332.37695 70.748047 C 333.62012 69.166993 334.78524 67.958773 335.87109 67.130859 C 336.95177 66.305506 338.03516 65.894531 339.11328 65.894531 C 339.95667 65.894531 340.69889 66.064539 341.33594 66.410156 C 341.96785 66.753191 342.49211 67.233953 342.88672 67.863281 C 343.28908 68.492608 343.58845 69.241514 343.78711 70.113281 C 343.98819 70.982465 344.08594 71.960114 344.08594 73.017578 L 344.08594 91.763672 C 344.08594 92.000969 344.15703 92.212584 344.29883 92.390625 C 344.44325 92.563433 344.68299 92.712688 345.02344 92.826172 C 345.36904 92.949895 345.82445 93.03961 346.38672 93.09375 C 346.94898 93.1531 347.67121 93.183594 348.54297 93.183594 C 349.38894 93.183594 350.09985 93.1531 350.66211 93.09375 C 351.22953 93.039568 351.6843 92.949849 352.02734 92.826172 C 352.36521 92.712688 352.60743 92.563456 352.75195 92.390625 C 352.89121 92.212674 352.96289 92.000969 352.96289 91.763672 L 352.96289 70.748047 C 354.23702 69.166993 355.41354 67.958773 356.50195 67.130859 C 357.58005 66.305506 358.65798 65.894531 359.71289 65.894531 C 360.58724 65.894531 361.33482 66.064539 361.95898 66.410156 C 362.58831 66.753191 363.10491 67.233953 363.51758 67.863281 C 363.92508 68.492608 364.2344 69.241514 364.43555 70.113281 C 364.63418 70.982465 364.73438 71.960114 364.73438 73.017578 L 364.73438 91.763672 C 364.73437 92.000969 364.8008 92.212584 364.92969 92.390625 C 365.05867 92.563433 365.29627 92.712688 365.63672 92.826172 C 365.98234 92.949895 366.43258 93.03961 367 93.09375 C 367.56228 93.1531 368.29901 93.183594 369.19141 93.183594 C 370.0606 93.183594 370.78282 93.1531 371.34766 93.09375 C 371.91508 93.039568 372.36063 92.949849 372.69336 92.826172 C 373.01834 92.712688 373.25588 92.563456 373.40039 92.390625 C 373.53694 92.212674 373.60938 92.008716 373.60938 91.763672 L 373.60938 71.552734 C 373.60938 69.734405 373.42407 68.008348 373.04492 66.380859 C 372.66837 64.75081 372.03382 63.326847 371.1543 62.117188 C 370.27479 60.902386 369.10911 59.932639 367.66992 59.228516 C 366.23331 58.521811 364.46148 58.166016 362.36719 58.166016 C 361.45415 58.166016 360.54874 58.282686 359.66406 58.501953 C 358.77682 58.728921 357.89707 59.074102 357.01758 59.533203 C 356.12517 59.98714 355.23335 60.585854 354.32031 61.318359 C 353.41761 62.050842 352.4922 62.921937 351.55078 63.935547 C 351.14844 63.068945 350.65765 62.276929 350.06445 61.5625 C 349.48156 60.858377 348.77533 60.249655 347.96289 59.744141 C 347.14787 59.233463 346.22628 58.843065 345.18945 58.572266 C 344.15521 58.301422 342.98945 58.166016 341.69727 58.166016 z M 217.41016 58.228516 C 215.09921 58.228516 212.98064 58.594296 211.04883 59.324219 C 209.11185 60.056701 207.43684 61.174147 206.02344 62.685547 C 204.61005 64.191806 203.50665 66.091953 202.71484 68.392578 C 201.92561 70.693225 201.5332 73.417364 201.5332 76.582031 C 201.5332 79.310838 201.85911 81.741865 202.50391 83.859375 C 203.15386 85.97949 204.11581 87.781194 205.38477 89.253906 C 206.65632 90.726617 208.23493 91.844538 210.10742 92.597656 C 211.98507 93.350796 214.1322 93.728516 216.55664 93.728516 C 217.64248 93.728516 218.70262 93.62964 219.72656 93.441406 C 220.74792 93.247962 221.70308 93.006687 222.57227 92.689453 C 223.44918 92.379942 224.22016 92.02812 224.90625 91.638672 C 225.59231 91.246642 226.07628 90.907541 226.35742 90.636719 C 226.64371 90.365897 226.8258 90.133231 226.9082 89.962891 C 226.98816 89.782359 227.05984 89.554565 227.11914 89.273438 C 227.18095 88.984563 227.22181 88.642506 227.25781 88.232422 C 227.29651 87.817174 227.31445 87.311729 227.31445 86.695312 C 227.31445 85.913812 227.28609 85.282317 227.24219 84.787109 C 227.19077 84.291901 227.13207 83.885617 227.04688 83.568359 C 226.96433 83.251125 226.85349 83.03471 226.70898 82.916016 C 226.57227 82.797323 226.39244 82.736328 226.18359 82.736328 C 225.87666 82.736328 225.49311 82.919599 225.04688 83.291016 C 224.60067 83.659828 224.04699 84.067547 223.38672 84.521484 C 222.72387 84.972838 221.95303 85.382489 221.06836 85.753906 C 220.18112 86.120249 219.12613 86.302734 217.89844 86.302734 C 216.69912 86.302734 215.64226 86.086274 214.73438 85.650391 C 213.82392 85.217089 213.07103 84.557314 212.47266 83.685547 C 211.86655 82.818923 211.41692 81.739356 211.10742 80.439453 C 210.79791 79.149856 210.64844 77.6471 210.64844 75.962891 C 210.64844 72.522237 211.26511 69.911824 212.49023 68.134766 C 213.71276 66.360291 215.48592 65.472656 217.79688 65.472656 C 218.97299 65.472656 219.98933 65.636674 220.83789 65.966797 C 221.68386 66.299525 222.41677 66.669907 223.0332 67.072266 C 223.64705 67.477207 224.17363 67.845635 224.625 68.175781 C 225.07122 68.508578 225.49483 68.671875 225.90234 68.671875 C 226.27376 68.671875 226.58232 68.392401 226.81445 67.837891 C 227.05177 67.285941 227.17383 66.316734 227.17383 64.939453 C 227.17383 64.351397 227.15264 63.844935 227.11914 63.429688 C 227.08041 63.019605 227.03641 62.6698 226.97461 62.388672 C 226.91796 62.102379 226.83484 61.872477 226.72656 61.689453 C 226.62597 61.519227 226.4441 61.292459 226.18359 61.037109 C 225.92308 60.776616 225.47769 60.467252 224.85352 60.111328 C 224.2242 59.755405 223.52033 59.436055 222.72852 59.152344 C 221.94444 58.868634 221.09475 58.644183 220.18945 58.476562 C 219.27384 58.314129 218.35157 58.228516 217.41016 58.228516 z M 288.84375 58.769531 C 288.00036 58.769531 287.28155 58.801441 286.70898 58.863281 C 286.12607 58.914881 285.67176 59.00772 285.32617 59.128906 C 284.98572 59.24239 284.75075 59.387287 284.61914 59.570312 C 284.49271 59.745702 284.42383 59.951484 284.42383 60.183594 L 284.42383 79.482422 C 284.42383 81.886247 284.61969 83.890652 285.01172 85.507812 C 285.40119 87.119786 286.05048 88.542447 286.96094 89.767578 C 287.87398 90.995268 289.06058 91.956729 290.54102 92.666016 C 292.02147 93.370139 293.8433 93.728516 296.01758 93.728516 C 297.95453 93.728516 299.82747 93.259216 301.64062 92.328125 C 303.44349 91.391869 305.22717 89.989047 306.9707 88.119141 L 306.9707 91.763672 C 306.9707 92.008716 307.02866 92.212584 307.15234 92.390625 C 307.26582 92.563433 307.46629 92.712688 307.75 92.826172 C 308.03371 92.949895 308.41479 93.03961 308.89453 93.09375 C 309.37427 93.1531 310.00614 93.183594 310.77734 93.183594 C 311.50982 93.183594 312.11338 93.1531 312.5957 93.09375 C 313.07799 93.039568 313.46512 92.949849 313.76172 92.826172 C 314.05318 92.712688 314.25772 92.563456 314.37891 92.390625 C 314.49243 92.212674 314.55273 92.008716 314.55273 91.763672 L 314.55469 60.1875 C 314.55469 59.950225 314.48111 59.745635 314.3418 59.570312 C 314.20252 59.389757 313.96621 59.24239 313.63867 59.128906 C 313.31111 59.007765 312.8617 58.914921 312.29688 58.863281 C 311.73201 58.801441 311.01434 58.769531 310.14258 58.769531 C 309.27339 58.769531 308.55898 58.801441 307.99414 58.863281 C 307.4267 58.914881 306.97264 59.00772 306.63477 59.128906 C 306.29174 59.24239 306.06574 59.38978 305.93164 59.570312 C 305.8052 59.745703 305.73828 59.950225 305.73828 60.1875 L 305.73828 81.177734 C 304.43577 82.753623 303.20765 83.948018 302.0625 84.765625 C 300.90702 85.588374 299.76376 85.996094 298.62891 85.996094 C 297.73135 85.996094 296.94334 85.831316 296.26758 85.488281 C 295.597 85.145246 295.03487 84.660014 294.60156 84.041016 C 294.16054 83.406524 293.8319 82.660201 293.62305 81.791016 C 293.40893 80.916667 293.30078 79.658497 293.30078 78.007812 L 293.30078 60.183594 C 293.30078 59.951484 293.22914 59.745635 293.08984 59.570312 C 292.94541 59.387198 292.7031 59.24239 292.36523 59.128906 C 292.02219 59.007765 291.56742 58.914921 291 58.863281 C 290.43774 58.801441 289.72068 58.769531 288.84375 58.769531 z M 180.95117 64.443359 C 183.19248 64.443359 184.8437 65.156362 185.91406 66.580078 C 186.98958 68.011519 187.48626 69.974748 187.41406 72.476562 L 174.13477 72.476562 C 174.18377 71.364917 174.35442 70.32963 174.64844 69.341797 C 174.94247 68.364293 175.36923 67.517793 175.91602 66.800781 C 176.47312 66.073463 177.16568 65.511426 178.00391 65.078125 C 178.83957 64.657713 179.82148 64.443359 180.95117 64.443359 z M 144.41016 65.771484 C 145.58885 65.771484 146.56554 66.062875 147.34961 66.640625 C 148.13884 67.21577 148.77542 67.991092 149.25 68.953125 C 149.73488 69.922905 150.07287 71.025653 150.27148 72.263672 C 150.47007 73.499109 150.57031 74.791639 150.57031 76.132812 C 150.57031 77.339868 150.44947 78.544811 150.20703 79.744141 C 149.95426 80.946031 149.57763 82.028742 149.05664 82.980469 C 148.5408 83.932195 147.88151 84.705607 147.07422 85.298828 C 146.2592 85.886884 145.2786 86.179688 144.13086 86.179688 C 142.90575 86.179688 141.73257 85.752714 140.60547 84.888672 C 139.48352 84.02207 138.292 82.79848 137.04883 81.214844 L 137.04883 70.820312 C 137.75553 69.878916 138.42607 69.094712 139.06055 68.455078 C 139.69503 67.823169 140.30788 67.301491 140.90625 66.904297 C 141.50463 66.50452 142.09086 66.21515 142.66602 66.037109 C 143.24376 65.864322 143.82469 65.771484 144.41016 65.771484 z "
     id="dp_path018" /><path
     style="fill:#aaaaaa;fill-opacity:1;fill-rule:evenodd;stroke:none;stroke-width:0"
     d="M 52.820312 0 L 52.820312 7.2910156 L 60.410156 7.2910156 L 60.410156 0 L 52.820312 0 z M 169.29102 0 L 169.29102 8.6015625 L 169.29102 38.490234 L 176.88086 38.490234 L 176.88086 8.6015625 L 176.88086 0 L 169.29102 0 z M 232.94141 0 L 232.94141 7.2910156 L 240.5293 7.2910156 L 240.5293 0 L 232.94141 0 z M 63.648438 8.453125 L 63.648438 8.6015625 L 63.648438 38.490234 L 71.238281 38.490234 L 71.238281 16.042969 L 105.64258 16.042969 L 105.64258 38.490234 L 113.23047 38.490234 L 113.23047 8.6015625 L 113.23047 8.453125 L 63.648438 8.453125 z M 116.4707 8.453125 L 116.4707 8.6015625 L 116.4707 30.902344 L 116.4707 38.490234 L 166.05078 38.490234 L 166.05078 30.902344 L 124.05859 30.902344 L 124.05859 16.042969 L 166.05078 16.042969 L 166.05078 8.453125 L 116.4707 8.453125 z M 243.76953 8.453125 L 243.76953 8.6015625 L 243.76953 38.490234 L 251.35938 38.490234 L 251.35938 16.042969 L 293.35156 16.042969 L 293.35156 8.453125 L 243.76953 8.453125 z M 0 8.5898438 L 0 9.9160156 L 0 19.744141 L 0 27.333984 L 41.992188 27.333984 L 41.992188 30.902344 L 0 30.902344 L 0 38.490234 L 49.582031 38.490234 L 49.582031 30.902344 L 49.582031 22.900391 L 49.582031 19.744141 L 7.5878906 19.744141 L 7.5878906 16.179688 L 49.582031 16.179688 L 49.582031 8.5898438 L 0 8.5898438 z M 180.12109 8.5898438 L 180.12109 16.179688 L 222.11328 16.179688 L 222.11328 19.744141 L 180.12109 19.744141 L 180.12109 21.890625 L 180.12109 30.902344 L 180.12109 38.490234 L 229.70117 38.490234 L 229.70117 30.902344 L 229.70117 27.333984 L 229.70117 19.744141 L 229.70117 13.962891 L 229.70117 8.5898438 L 180.12109 8.5898438 z M 52.820312 8.6015625 L 52.820312 38.490234 L 60.410156 38.490234 L 60.410156 8.6015625 L 52.820312 8.6015625 z M 232.94141 8.6015625 L 232.94141 38.490234 L 240.5293 38.490234 L 240.5293 8.6015625 L 232.94141 8.6015625 z M 187.70898 27.333984 L 222.11328 27.333984 L 222.11328 30.902344 L 187.70898 30.902344 L 187.70898 27.333984 z "
     id="dp_path010" /></svg>