<?xml version="1.0" encoding="UTF-8" standalone="no"?>
<!-- Generator: Adobe Illustrator 13.0.0, SVG Export Plug-In . SVG Version: 6.00 Build 14948)  -->

<svg
   xmlns:dc="http://purl.org/dc/elements/1.1/"
   xmlns:cc="http://creativecommons.org/ns#"
   xmlns:rdf="http://www.w3.org/1999/02/22-rdf-syntax-ns#"
   xmlns:svg="http://www.w3.org/2000/svg"
   xmlns="http://www.w3.org/2000/svg"
   xmlns:sodipodi="http://sodipodi.sourceforge.net/DTD/sodipodi-0.dtd"
   xmlns:inkscape="http://www.inkscape.org/namespaces/inkscape"
   version="1.2"
   id="Ebene_1"
   x="0px"
   y="0px"
   width="293.35156"
   height="64.428986"
   viewBox="0 0 293.35156 64.428985"
   xml:space="preserve"
   inkscape:version="0.91 r13725"
   sodipodi:docname="logoconsole.svg"><metadata
     id="metadata55"><rdf:RDF><cc:Work
         rdf:about=""><dc:format>image/svg+xml</dc:format><dc:type
           rdf:resource="http://purl.org/dc/dcmitype/StillImage" /><dc:title></dc:title></cc:Work></rdf:RDF></metadata><defs
     id="defs53" /><sodipodi:namedview
     pagecolor="#ffffff"
     bordercolor="#666666"
     borderopacity="1"
     objecttolerance="10"
     gridtolerance="10"
     guidetolerance="10"
     inkscape:pageopacity="0"
     inkscape:pageshadow="2"
     inkscape:window-width="1680"
     inkscape:window-height="975"
     id="namedview51"
     showgrid="false"
     fit-margin-top="0"
     fit-margin-left="0"
     fit-margin-right="0"
     fit-margin-bottom="0"
     inkscape:zoom="7.4803106"
     inkscape:cx="120.85718"
     inkscape:cy="38.867177"
     inkscape:window-x="1671"
     inkscape:window-y="-9"
     inkscape:window-maximized="1"
     inkscape:current-layer="layer1" /><path
     style="fill:#ffffff;fill-opacity:1;fill-rule:evenodd;stroke:none;stroke-width:0"
     d="m 32.989596,46.333984 c -0.63727,0 -1.241091,0.08223 -1.810866,0.247828 -0.571347,0.164808 -1.065498,0.412527 -1.48459,0.747644 -0.42066,0.331981 -0.753413,0.753524 -1.001415,1.258157 -0.248002,0.50699 -0.371444,1.09345 -0.371444,1.759756 0,0.582332 0.08705,1.081308 0.259714,1.496475 0.170305,0.416732 0.395698,0.775952 0.670383,1.080458 0.277824,0.306079 0.591575,0.5685 0.943173,0.787463 0.350027,0.218964 0.711047,0.413332 1.084617,0.585991 0.372789,0.172659 0.734806,0.335891 1.086401,0.489712 0.353168,0.154608 0.664564,0.318672 0.943173,0.494468 0.274686,0.177373 0.499484,0.376795 0.669788,0.602037 0.172658,0.226028 0.259715,0.499095 0.259715,0.813018 0,0.273118 -0.05012,0.521193 -0.152144,0.744078 -0.100457,0.223678 -0.245897,0.411533 -0.435037,0.562219 -0.190712,0.150685 -0.422015,0.26646 -0.693562,0.34886 -0.272331,0.08323 -0.580428,0.124805 -0.926531,0.124805 -0.524256,0 -0.982492,-0.05879 -1.381179,-0.17651 -0.398685,-0.118504 -0.740915,-0.250408 -1.028158,-0.394028 -0.287242,-0.142842 -0.522776,-0.272956 -0.704853,-0.392246 -0.183647,-0.116939 -0.325261,-0.175916 -0.424933,-0.175916 -0.07063,0 -0.135027,0.02038 -0.188396,0.05884 -0.05337,0.04081 -0.09757,0.106869 -0.128966,0.197906 -0.03217,0.09418 -0.05482,0.217385 -0.06894,0.367285 -0.0157,0.150685 -0.02199,0.335767 -0.02199,0.558652 0,0.328838 0.02038,0.581563 0.05884,0.758936 0.04003,0.174223 0.10689,0.30836 0.200283,0.401754 0.09182,0.09418 0.242961,0.201256 0.456431,0.322117 0.2119,0.121647 0.474154,0.23861 0.790434,0.35005 0.316281,0.109874 0.680719,0.204816 1.093534,0.28408 0.410457,0.07851 0.857105,0.117674 1.338984,0.117674 0.71104,0 1.378117,-0.09332 2.002828,-0.279327 0.62236,-0.187567 1.168367,-0.464763 1.633762,-0.834412 0.466965,-0.368078 0.836845,-0.831048 1.108392,-1.383557 0.273113,-0.552509 0.410073,-1.193548 0.410073,-1.927352 0,-0.557223 -0.08705,-1.044052 -0.259713,-1.45844 C 36.744745,54.462006 36.5189,54.103428 36.241077,53.79735 35.959327,53.492843 35.64149,53.230634 35.281263,53.01167 34.923385,52.792707 34.555169,52.596767 34.182384,52.42568 33.809595,52.25302 33.441377,52.089385 33.083501,51.934778 32.723271,51.780949 32.404609,51.61573 32.118935,51.4415 c -0.282534,-0.175795 -0.508589,-0.377198 -0.678111,-0.603227 -0.168733,-0.226027 -0.253177,-0.494478 -0.253177,-0.802914 0,-0.207977 0.03838,-0.405535 0.115295,-0.590746 0.07378,-0.187574 0.1885,-0.347569 0.342324,-0.480203 0.154611,-0.134205 0.346933,-0.237265 0.577671,-0.312608 0.229165,-0.07534 0.496289,-0.113513 0.807076,-0.113513 0.394765,0 0.757585,0.04928 1.088777,0.147389 0.328056,0.09732 0.62012,0.204821 0.87126,0.325683 0.250356,0.117717 0.463044,0.229199 0.634132,0.330437 0.172659,0.100466 0.299903,0.151549 0.37917,0.151549 0.07848,0 0.140906,-0.02203 0.187207,-0.06359 0.04709,-0.04394 0.08247,-0.112026 0.107572,-0.203849 0.02589,-0.09339 0.04171,-0.213554 0.05349,-0.357181 0.0118,-0.142835 0.01664,-0.31818 0.01664,-0.525371 0,-0.187575 -0.0034,-0.34294 -0.01129,-0.467723 -0.0063,-0.125576 -0.02035,-0.230009 -0.03684,-0.313202 -0.01805,-0.08241 -0.04004,-0.149081 -0.06359,-0.198501 -0.02668,-0.04944 -0.07518,-0.110247 -0.147387,-0.182453 -0.07141,-0.07142 -0.218093,-0.165265 -0.44098,-0.272789 -0.221317,-0.107518 -0.474852,-0.206263 -0.761312,-0.291807 -0.288811,-0.0879 -0.59553,-0.156574 -0.925938,-0.206821 -0.331192,-0.05021 -0.660905,-0.07607 -0.991313,-0.07607 z m -20.635083,0.183048 c -0.410459,0 -0.727417,0.0091 -0.950305,0.02793 -0.222103,0.01648 -0.374429,0.06335 -0.457619,0.140257 -0.08241,0.07534 -0.10079,0.189902 -0.05527,0.345295 0.04866,0.153828 0.136543,0.359498 0.264469,0.619273 l 3.104681,5.720841 -3.333491,6.086936 c -0.135774,0.25271 -0.226438,0.451966 -0.268035,0.605009 -0.04395,0.150686 -0.02982,0.26444 0.0416,0.342918 0.0722,0.08006 0.209802,0.130983 0.415424,0.152143 0.204052,0.02199 0.492148,0.0321 0.866506,0.0321 0.324913,0 0.582961,-0.0071 0.781519,-0.02199 0.196204,-0.01567 0.35074,-0.03735 0.462969,-0.06953 0.110658,-0.03139 0.191467,-0.0778 0.242479,-0.134314 0.05023,-0.05964 0.09747,-0.13136 0.139068,-0.214547 l 2.608433,-5.034411 2.626856,5.034411 c 0.03532,0.08319 0.07933,0.154926 0.12956,0.214547 0.04944,0.05651 0.130442,0.102884 0.241885,0.134314 0.111444,0.03215 0.262963,0.05382 0.455243,0.06953 0.196204,0.01489 0.460475,0.02199 0.796376,0.02199 0.401826,0 0.715149,-0.0101 0.939607,-0.0321 0.226027,-0.02118 0.383176,-0.07209 0.469506,-0.152143 0.08476,-0.07848 0.107803,-0.192232 0.07013,-0.342918 -0.04081,-0.153043 -0.125846,-0.352299 -0.253771,-0.605009 l -3.316258,-6.119624 3.104683,-5.688153 c 0.121647,-0.259775 0.201668,-0.46384 0.242479,-0.614519 0.03924,-0.151471 0.02083,-0.266809 -0.05765,-0.345294 -0.08005,-0.07847 -0.223113,-0.128538 -0.432659,-0.145012 -0.20719,-0.01889 -0.490206,-0.02793 -0.848082,-0.02793 -0.323344,0 -0.576073,0.0079 -0.758935,0.02199 -0.182078,0.01489 -0.325901,0.03735 -0.430282,0.06953 -0.103595,0.03296 -0.177963,0.07763 -0.225838,0.134909 -0.04631,0.05886 -0.09193,0.130382 -0.134315,0.21514 l -2.377839,4.613045 -2.453912,-4.613045 c -0.04238,-0.08476 -0.08761,-0.156278 -0.133126,-0.21514 -0.04866,-0.05729 -0.13006,-0.101963 -0.243073,-0.134909 -0.116153,-0.03219 -0.271946,-0.05465 -0.471289,-0.06953 -0.198559,-0.01413 -0.462684,-0.02199 -0.801725,-0.02199 z m -11.43871138,0.07488 c -0.0855449,0 -0.15946454,0.01618 -0.2198952,0.0523 -0.0604307,0.0361 -0.11309365,0.09931 -0.1515494,0.187208 -0.0400253,0.09104 -0.0689093,0.207262 -0.0861751,0.354804 -0.018836,0.146764 -0.026744,0.326192 -0.026744,0.542012 0,0.200133 0.007909,0.371244 0.026744,0.51408 0.017266,0.142834 0.0461492,0.257182 0.0861751,0.343512 0.038456,0.08398 0.0911188,0.146998 0.1515494,0.187802 0.0604308,0.03846 0.13435032,0.05884 0.2198952,0.05884 l 5.37673488,0 -5.41120492,8.566999 c -0.12243122,0.198552 -0.22604205,0.372239 -0.30844762,0.515859 -0.0831904,0.143621 -0.14463763,0.277136 -0.18780238,0.398783 -0.0439496,0.121647 -0.0750431,0.242051 -0.0915239,0.361342 -0.0188354,0.117725 -0.0279326,0.250407 -0.0279326,0.394028 l 0,0.474855 c 0,0.31628 0.0779568,0.558892 0.23178144,0.724465 0.15460862,0.164816 0.37443942,0.247828 0.66325148,0.247828 l 8.2187316,0 c 0.065144,0 0.1255184,-0.01836 0.1788879,-0.05289 0.052583,-0.03767 0.099189,-0.09992 0.1337198,-0.190179 0.036107,-0.08947 0.063755,-0.207215 0.080232,-0.350049 0.01883,-0.145978 0.027335,-0.322341 0.027335,-0.529532 0,-0.423803 -0.035365,-0.724751 -0.1075702,-0.897409 -0.07142,-0.171092 -0.1744801,-0.25853 -0.3126076,-0.25853 l -5.8260342,0 5.3208694,-8.449325 c 0.1216471,-0.192281 0.2222401,-0.358737 0.3007215,-0.499222 0.079267,-0.139691 0.1419017,-0.275083 0.1889915,-0.410074 0.047086,-0.131848 0.080393,-0.26819 0.096872,-0.407104 0.018057,-0.138912 0.027335,-0.304561 0.027335,-0.496844 l 0,-0.526559 c 0,-0.272333 -0.070878,-0.48264 -0.2097922,-0.631753 C 9.136299,46.666474 8.9204834,46.591915 8.6246072,46.591915 l -7.70881226,0 z M 73.130573,47.583821 c -0.257424,0 -0.476353,0.0085 -0.651363,0.02734 -0.175803,0.01648 -0.315611,0.04474 -0.420776,0.0832 -0.102027,0.04081 -0.174335,0.0881 -0.21514,0.1462 -0.0393,0.05808 -0.05824,0.122919 -0.05824,0.19434 l 0,2.138927 -1.146428,0 c -0.07456,0 -0.135642,0.0182 -0.18899,0.05349 -0.05573,0.03532 -0.100576,0.0945 -0.136691,0.177699 -0.03532,0.08319 -0.06377,0.196346 -0.08024,0.342324 -0.0189,0.142834 -0.02734,0.318794 -0.02734,0.528342 0,0.397902 0.03695,0.67856 0.107572,0.848082 0.07221,0.169516 0.177241,0.254366 0.313796,0.254366 l 1.158313,0 0,4.922681 c 0,0.589391 0.05965,1.098492 0.183641,1.528569 0.120862,0.432433 0.309578,0.787848 0.569351,1.072731 0.257419,0.28332 0.583873,0.493032 0.979426,0.631159 0.392409,0.134964 0.860227,0.203255 1.397822,0.203255 0.200912,0 0.400094,-0.0107 0.597873,-0.03268 0.195416,-0.01962 0.37963,-0.05207 0.549145,-0.09212 0.167167,-0.03768 0.314026,-0.08731 0.440384,-0.139069 0.124783,-0.05337 0.220894,-0.115931 0.285265,-0.184237 0.06433,-0.06828 0.114317,-0.187665 0.155119,-0.357181 0.03922,-0.167951 0.05883,-0.409203 0.05883,-0.728626 l 0,-5.94e-4 c 0,-0.200125 -0.0085,-0.364586 -0.02733,-0.495655 -0.01656,-0.12792 -0.03625,-0.231322 -0.05824,-0.306665 -0.02199,-0.07377 -0.05266,-0.126624 -0.09272,-0.150955 -0.03766,-0.02509 -0.07845,-0.03863 -0.122428,-0.03863 -0.05021,0 -0.104802,0.01354 -0.167591,0.03863 -0.06121,0.02433 -0.134803,0.05517 -0.225841,0.08736 -0.0879,0.03137 -0.191279,0.06049 -0.304289,0.08558 -0.116151,0.02509 -0.244463,0.03685 -0.388083,0.03685 -0.424585,0 -0.718712,-0.12993 -0.881957,-0.39284 C 74.56862,57.804356 74.48501,57.410468 74.48501,56.887777 l 0,-4.509634 2.098509,0 c 0.135777,0 0.238625,-0.08485 0.310825,-0.254366 0.07064,-0.169523 0.107573,-0.45018 0.107573,-0.848082 0,-0.209548 -0.0085,-0.385508 -0.02734,-0.528343 -0.01649,-0.145977 -0.04412,-0.259136 -0.08024,-0.342323 -0.0361,-0.08319 -0.07998,-0.142409 -0.134907,-0.1777 -0.05259,-0.03529 -0.115595,-0.05349 -0.187803,-0.05349 l -2.086624,0 0,-2.138927 c 0,-0.07142 -0.02206,-0.136235 -0.06358,-0.194339 -0.04397,-0.05807 -0.115066,-0.105397 -0.213956,-0.146201 -0.102025,-0.03846 -0.240214,-0.06673 -0.416015,-0.0832 -0.174229,-0.01889 -0.394038,-0.02734 -0.660876,-0.02734 z M 44.92753,49.934323 c -0.3359,0 -0.65148,0.03597 -0.949711,0.108164 -0.296659,0.07142 -0.585352,0.1809 -0.867101,0.326871 -0.278612,0.147549 -0.553523,0.331752 -0.821932,0.549144 -0.269976,0.219749 -0.543132,0.4711 -0.822525,0.758341 l 0,-1.128597 c 0,-0.07063 -0.01739,-0.133265 -0.05349,-0.186614 -0.0361,-0.05572 -0.09874,-0.09978 -0.188991,-0.134315 -0.08868,-0.03686 -0.209422,-0.06511 -0.355398,-0.08083 -0.146761,-0.01881 -0.328776,-0.02852 -0.546172,-0.02852 -0.222887,0 -0.408326,0.0097 -0.555087,0.02852 -0.147546,0.0157 -0.266926,0.04395 -0.357181,0.08083 -0.08868,0.03453 -0.151508,0.07938 -0.188397,0.134315 -0.03532,0.05337 -0.05408,0.115603 -0.05408,0.187802 l 0,13.417767 c 0,0.07063 0.02221,0.134687 0.06537,0.191963 0.04474,0.05885 0.1167,0.106747 0.221083,0.146794 0.103594,0.03845 0.243357,0.07051 0.416019,0.09093 0.173444,0.02199 0.391063,0.0321 0.657903,0.0321 0.266053,0 0.485435,-0.01009 0.657309,-0.0321 0.172661,-0.02041 0.312613,-0.05266 0.415422,-0.09271 0.104383,-0.03845 0.178918,-0.08773 0.222866,-0.145011 0.0416,-0.05729 0.06359,-0.121347 0.06359,-0.194339 l 0,-4.532813 c 0.229168,0.222106 0.451772,0.414446 0.666816,0.580048 0.215036,0.165594 0.43181,0.303766 0.650773,0.41364 0.217395,0.113012 0.443617,0.195832 0.675137,0.248423 0.234661,0.05412 0.490451,0.08142 0.771414,0.08142 0.672588,0 1.269972,-0.128502 1.794228,-0.387491 0.523472,-0.257417 0.960237,-0.62651 1.31105,-1.10839 0.350813,-0.478738 0.617484,-1.062133 0.801131,-1.747276 0.182076,-0.685928 0.273384,-1.454999 0.273384,-2.306522 0,-0.724389 -0.07033,-1.405593 -0.213951,-2.044431 -0.14362,-0.638839 -0.371699,-1.195669 -0.684053,-1.678336 -0.310787,-0.479516 -0.714205,-0.857117 -1.209424,-1.135728 -0.493648,-0.274683 -1.092026,-0.413046 -1.796008,-0.413046 z m 10.384402,0 c -0.761273,0 -1.443905,0.123892 -2.049781,0.377387 -0.607446,0.251138 -1.121007,0.61496 -1.544021,1.090561 -0.424585,0.478738 -0.744652,1.059353 -0.96754,1.74371 -0.222888,0.682792 -0.334001,1.45364 -0.334001,2.308305 0,0.895477 0.105651,1.675876 0.316766,2.342181 0.212685,0.667098 0.53211,1.218037 0.962191,1.657535 0.430079,0.436354 0.965634,0.762416 1.607614,0.978236 0.641194,0.214255 1.387839,0.323305 2.239363,0.323305 0.474029,0 0.918279,-0.02989 1.334231,-0.09034 0.415954,-0.06043 0.784836,-0.129577 1.106608,-0.212763 0.323345,-0.08162 0.587999,-0.164068 0.795188,-0.249612 0.207977,-0.08633 0.335839,-0.152645 0.382142,-0.202065 0.04709,-0.0518 0.08468,-0.104144 0.112918,-0.157493 0.02826,-0.05415 0.05027,-0.120827 0.06597,-0.200877 0.01257,-0.07691 0.02266,-0.173044 0.02971,-0.285269 0.0086,-0.111447 0.01188,-0.245815 0.01188,-0.405915 0,-0.179724 -0.0056,-0.328629 -0.01664,-0.448705 -0.01099,-0.11929 -0.02981,-0.210626 -0.05884,-0.275761 -0.02904,-0.06357 -0.06478,-0.109552 -0.106382,-0.133125 -0.04395,-0.02674 -0.0977,-0.03804 -0.162842,-0.03804 -0.10752,0 -0.247493,0.03316 -0.417799,0.102221 -0.171874,0.06828 -0.389618,0.145808 -0.650177,0.228216 -0.260559,0.0824 -0.571035,0.159549 -0.928911,0.227027 -0.35866,0.06831 -0.774593,0.10341 -1.246269,0.10341 -0.465396,0 -0.865963,-0.06043 -1.198725,-0.183642 -0.331193,-0.121647 -0.60566,-0.300797 -0.81599,-0.533097 -0.211899,-0.233093 -0.364275,-0.516915 -0.462373,-0.85046 -0.09653,-0.333545 -0.144419,-0.705855 -0.144419,-1.115522 l 5.839702,0 c 0.259773,0 0.460837,-0.0784 0.609168,-0.237725 0.146761,-0.156957 0.219897,-0.399214 0.219897,-0.730409 l 0,-0.430281 c 0,-0.674942 -0.08665,-1.29779 -0.258526,-1.871486 -0.171877,-0.572132 -0.441542,-1.070658 -0.80648,-1.490533 -0.366512,-0.418304 -0.834962,-0.747357 -1.40317,-0.983586 -0.57056,-0.237801 -1.256826,-0.355397 -2.060476,-0.355397 z m 28.526353,0 c -0.200913,0 -0.401714,0.0284 -0.602634,0.08023 -0.200913,0.05493 -0.403289,0.150093 -0.602635,0.285863 -0.200118,0.138127 -0.413807,0.32142 -0.635912,0.55687 -0.222884,0.2323 -0.458649,0.528836 -0.70901,0.886712 l 0,-1.194566 c 0,-0.07221 -0.01761,-0.134453 -0.05527,-0.187802 -0.03454,-0.05494 -0.09589,-0.09978 -0.178294,-0.134315 -0.08241,-0.03686 -0.197392,-0.06511 -0.348864,-0.08083 -0.152252,-0.01881 -0.341399,-0.02852 -0.572915,-0.02852 -0.222892,0 -0.408518,0.0097 -0.554493,0.02852 -0.147543,0.0157 -0.268946,0.04395 -0.363118,0.08083 -0.0934,0.03453 -0.156873,0.07938 -0.193745,0.134315 -0.03536,0.05336 -0.05408,0.115596 -0.05408,0.187802 l 0,9.608232 c 0,0.07456 0.02161,0.136599 0.06477,0.190774 0.04472,0.05258 0.117303,0.098 0.221682,0.132531 0.103598,0.03765 0.243363,0.06494 0.41602,0.08142 0.173444,0.01806 0.390468,0.02734 0.657305,0.02734 0.266056,0 0.486029,-0.0093 0.657906,-0.02734 0.172656,-0.01649 0.312021,-0.04379 0.414824,-0.08142 0.104386,-0.03453 0.178896,-0.07994 0.22287,-0.132531 0.04152,-0.05415 0.06358,-0.116217 0.06358,-0.190774 l 0,-5.988282 c 0.200913,-0.318636 0.389398,-0.58393 0.56519,-0.800537 0.175798,-0.218177 0.344488,-0.389356 0.506946,-0.52121 0.160891,-0.130277 0.317043,-0.225417 0.467727,-0.285864 0.14911,-0.06124 0.299208,-0.09212 0.449892,-0.09212 0.13106,0 0.24788,0.01413 0.355401,0.03923 0.108308,0.02353 0.206714,0.05138 0.297752,0.07964 0.08867,0.02746 0.170264,0.0559 0.242472,0.08023 0.07138,0.02509 0.135049,0.03863 0.193151,0.03863 0.07064,0 0.12944,-0.01896 0.176511,-0.05349 0.04709,-0.03767 0.08541,-0.101539 0.112921,-0.194933 0.02904,-0.09418 0.04947,-0.222465 0.06358,-0.385709 0.01582,-0.165594 0.02199,-0.376713 0.02199,-0.63413 0,-0.258202 -0.003,-0.462643 -0.0101,-0.613329 -0.0067,-0.150686 -0.01812,-0.26282 -0.03149,-0.338164 -0.01486,-0.07534 -0.03053,-0.134353 -0.04932,-0.175916 -0.01879,-0.04394 -0.04709,-0.08242 -0.08559,-0.12005 -0.03848,-0.03456 -0.101281,-0.0706 -0.188396,-0.100439 -0.08712,-0.03376 -0.187513,-0.06086 -0.30131,-0.08677 -0.116152,-0.02509 -0.225893,-0.0417 -0.333414,-0.05349 -0.108307,-0.01027 -0.207724,-0.01664 -0.301904,-0.01664 z m 20.320695,0 c -0.5737,0 -1.12556,0.142656 -1.64982,0.43147 -0.52817,0.28724 -1.05646,0.718547 -1.58621,1.293815 l 0,-1.110174 c 0,-0.0722 -0.018,-0.134453 -0.0541,-0.187802 -0.0345,-0.05494 -0.0959,-0.09978 -0.17829,-0.134315 -0.0824,-0.03686 -0.19817,-0.06511 -0.34886,-0.08083 -0.15225,-0.01881 -0.34121,-0.02852 -0.573507,-0.02852 -0.222112,0 -0.407545,0.0097 -0.555087,0.02852 -0.14755,0.0157 -0.268545,0.04395 -0.361937,0.08083 -0.09418,0.03453 -0.15763,0.07938 -0.193745,0.134315 -0.03536,0.05337 -0.05408,0.115603 -0.05408,0.187802 l 0,9.608232 c 0,0.07456 0.02162,0.136599 0.06477,0.190774 0.04397,0.05258 0.117296,0.098 0.221682,0.132531 0.103591,0.03765 0.243356,0.06494 0.416013,0.08142 0.172664,0.01806 0.390468,0.02734 0.657312,0.02734 0.266049,0 0.485239,-0.0093 0.657899,-0.02734 0.17265,-0.01649 0.31202,-0.04379 0.41483,-0.08142 0.10438,-0.03453 0.17829,-0.07994 0.22227,-0.132531 0.0417,-0.05415 0.0648,-0.118567 0.0648,-0.190774 l 0,-6.39479 c 0.37828,-0.481095 0.73282,-0.848741 1.06322,-1.100665 0.32884,-0.251145 0.6585,-0.376199 0.98656,-0.376199 0.25664,0 0.48249,0.05173 0.67633,0.156898 0.19228,0.104382 0.35181,0.250671 0.47188,0.442168 0.12243,0.191496 0.21353,0.419379 0.27398,0.684647 0.0612,0.264482 0.0909,0.561968 0.0909,0.883741 l 0,5.7042 c 0,0.07221 0.0216,0.136599 0.0648,0.190774 0.044,0.05258 0.1169,0.098 0.22049,0.132531 0.10517,0.03765 0.24373,0.06494 0.41483,0.08142 0.17109,0.01806 0.39086,0.02734 0.65612,0.02734 0.25741,0 0.47374,-0.0093 0.64483,-0.02734 0.17266,-0.01649 0.31103,-0.04379 0.41542,-0.08142 0.10281,-0.03453 0.17651,-0.07994 0.22049,-0.132531 0.0423,-0.05415 0.0642,-0.118567 0.0642,-0.190774 l 0,-6.39479 c 0.3877,-0.481095 0.7457,-0.848741 1.07689,-1.100665 0.32805,-0.251145 0.65605,-0.376199 0.97705,-0.376199 0.26605,0 0.49353,0.05173 0.68345,0.156898 0.1915,0.104382 0.34869,0.250671 0.47427,0.442168 0.12399,0.191496 0.21812,0.419379 0.27933,0.684647 0.0605,0.264482 0.0909,0.561968 0.0909,0.883741 l 0,5.7042 c 0,0.07221 0.0202,0.136599 0.0594,0.190774 0.0392,0.05258 0.11154,0.098 0.21514,0.132531 0.10517,0.03765 0.24217,0.06494 0.41483,0.08142 0.17109,0.01806 0.39527,0.02734 0.66682,0.02734 0.26448,0 0.48424,-0.0093 0.65611,-0.02734 0.17267,-0.01649 0.30824,-0.04379 0.40948,-0.08142 0.0989,-0.03453 0.17117,-0.07994 0.21514,-0.132531 0.0415,-0.05415 0.0636,-0.11621 0.0636,-0.190774 l 0,-6.149934 c 0,-0.553295 -0.0564,-1.078512 -0.17176,-1.573736 -0.11459,-0.496004 -0.30767,-0.929297 -0.5753,-1.297382 -0.26762,-0.369649 -0.62232,-0.66473 -1.06025,-0.878987 -0.43714,-0.21504 -0.97629,-0.323304 -1.61355,-0.323304 -0.27783,0 -0.55334,0.0355 -0.82253,0.102221 -0.26998,0.06907 -0.53767,0.174098 -0.80529,0.313796 -0.27155,0.138128 -0.54292,0.320308 -0.82075,0.543201 -0.27468,0.222885 -0.55627,0.487949 -0.84273,0.796377 -0.12243,-0.263696 -0.27177,-0.504697 -0.45228,-0.722088 -0.17736,-0.214256 -0.39226,-0.399482 -0.63947,-0.553304 -0.248,-0.155393 -0.52843,-0.274186 -0.84392,-0.356586 -0.31471,-0.08242 -0.66944,-0.123617 -1.06263,-0.123617 z m -37.819007,0.01902 c -0.703192,0 -1.347847,0.111302 -1.935672,0.333409 -0.589399,0.222884 -1.099084,0.56291 -1.529163,1.02281 -0.430077,0.458335 -0.765828,1.036526 -1.006766,1.736577 -0.240152,0.700058 -0.359558,1.528979 -0.359558,2.491948 0,0.830341 0.09917,1.570072 0.295375,2.214404 0.197772,0.645124 0.490481,1.19336 0.87661,1.641488 0.386916,0.448127 0.867267,0.788296 1.437042,1.017461 0.571346,0.229171 1.22469,0.344106 1.962417,0.344106 0.330408,0 0.652995,-0.03008 0.964567,-0.08736 0.310787,-0.05886 0.60143,-0.132279 0.865914,-0.22881 0.266832,-0.09418 0.501432,-0.201235 0.7102,-0.319739 0.208759,-0.11929 0.356026,-0.222474 0.441573,-0.304881 0.08711,-0.08241 0.142522,-0.153206 0.167595,-0.205038 0.02433,-0.05493 0.04614,-0.124248 0.06419,-0.209792 0.01881,-0.0879 0.03124,-0.191984 0.0422,-0.316768 0.01177,-0.126354 0.01723,-0.280155 0.01723,-0.467723 0,-0.237801 -0.0086,-0.429957 -0.02199,-0.580643 -0.01564,-0.150685 -0.03351,-0.274312 -0.05943,-0.37085 -0.02512,-0.09653 -0.05885,-0.162383 -0.102819,-0.1985 -0.0416,-0.03611 -0.09632,-0.05468 -0.159869,-0.05468 -0.0934,0 -0.210105,0.05577 -0.345887,0.168784 -0.135776,0.112225 -0.304254,0.236289 -0.505166,0.374416 -0.201696,0.137341 -0.436253,0.261993 -0.705447,0.37501 -0.269977,0.111474 -0.590997,0.167002 -0.964567,0.167002 -0.364938,0 -0.686527,-0.06586 -0.962784,-0.1985 -0.277041,-0.131848 -0.506136,-0.33261 -0.688212,-0.597877 -0.184432,-0.263703 -0.321249,-0.592202 -0.415426,-0.987746 -0.09418,-0.392408 -0.139662,-0.849678 -0.139662,-1.362161 0,-1.046948 0.187645,-1.841264 0.560434,-2.382 0.372,-0.539951 0.911551,-0.810047 1.614747,-0.810047 0.357875,0 0.667134,0.04991 0.92534,0.150361 0.257419,0.101245 0.480434,0.213948 0.668005,0.336381 0.186787,0.123218 0.347019,0.235326 0.484365,0.335785 0.13578,0.101266 0.264679,0.150955 0.388679,0.150955 0.113019,0 0.206909,-0.08504 0.277544,-0.25377 0.07221,-0.167952 0.109354,-0.462869 0.109354,-0.881958 0,-0.178939 -0.0065,-0.333048 -0.01664,-0.459403 -0.01179,-0.124783 -0.02517,-0.231225 -0.04398,-0.316769 -0.01724,-0.08711 -0.04253,-0.157071 -0.07548,-0.212763 -0.03061,-0.05179 -0.08595,-0.1208 -0.165219,-0.1985 -0.07927,-0.07926 -0.214796,-0.1734 -0.404724,-0.281704 -0.191494,-0.108302 -0.405672,-0.205476 -0.64661,-0.291806 -0.238586,-0.08633 -0.497136,-0.154627 -0.772607,-0.205632 -0.278609,-0.04943 -0.559244,-0.07548 -0.845704,-0.07548 z m 21.73634,0.164624 c -0.25663,0 -0.475356,0.0097 -0.649579,0.02852 -0.177374,0.0157 -0.315617,0.04395 -0.420775,0.08083 -0.103591,0.03453 -0.175093,0.07862 -0.215137,0.134315 -0.03848,0.05337 -0.05942,0.115985 -0.05942,0.186614 l 0,5.87239 c 0,0.731454 0.05957,1.341369 0.178888,1.83345 0.118507,0.490504 0.316077,0.923402 0.593119,1.296194 0.27783,0.373571 0.638898,0.666131 1.089377,0.881958 0.450479,0.214256 1.004839,0.323305 1.666444,0.323305 0.58939,0 1.159304,-0.142802 1.711027,-0.426121 0.548588,-0.284891 1.091338,-0.711752 1.621876,-1.280741 l 0,1.108985 c 0,0.07456 0.0176,0.136598 0.05526,0.190774 0.03454,0.05258 0.09553,0.098 0.18186,0.132531 0.08634,0.03764 0.202295,0.06494 0.34827,0.08142 0.145975,0.01806 0.338249,0.02734 0.572915,0.02734 0.222885,0 0.406542,-0.0093 0.553305,-0.02734 0.146755,-0.01649 0.264556,-0.04379 0.354806,-0.08142 0.08868,-0.03453 0.150922,-0.07994 0.187802,-0.132531 0.03454,-0.05415 0.05289,-0.116211 0.05289,-0.190774 l 6.01e-4,-9.608232 c 0,-0.0722 -0.02236,-0.134453 -0.06477,-0.187802 -0.04241,-0.05494 -0.114287,-0.09978 -0.213956,-0.134315 -0.09967,-0.03686 -0.236419,-0.06511 -0.408288,-0.08083 -0.171884,-0.01882 -0.39026,-0.02852 -0.655529,-0.02852 -0.264482,0 -0.48187,0.0097 -0.653739,0.02852 -0.172664,0.0157 -0.310833,0.04395 -0.413644,0.08083 -0.104378,0.03453 -0.173147,0.07938 -0.213949,0.134315 -0.03848,0.05337 -0.05883,0.115603 -0.05883,0.187802 l 0,6.387064 c -0.396343,0.479523 -0.770039,0.842963 -1.118494,1.09175 -0.351598,0.250353 -0.699481,0.374416 -1.044802,0.374416 -0.273113,0 -0.512896,-0.05014 -0.718518,-0.15452 -0.204055,-0.104382 -0.3751,-0.252032 -0.506954,-0.440385 -0.134195,-0.193068 -0.234198,-0.420165 -0.297745,-0.684646 -0.06514,-0.266054 -0.09806,-0.648899 -0.09806,-1.151182 l 0,-5.423685 c 0,-0.07063 -0.02184,-0.133265 -0.06418,-0.186614 -0.04397,-0.05572 -0.117682,-0.09978 -0.220493,-0.134315 -0.104379,-0.03686 -0.242762,-0.06511 -0.415419,-0.08083 -0.171089,-0.01882 -0.38928,-0.02852 -0.656123,-0.02852 z m -32.830351,1.726474 c 0.682003,0 1.184448,0.216958 1.510145,0.650177 0.327267,0.435569 0.4784,1.032956 0.456431,1.794226 l -4.040721,0 c 0.01491,-0.338259 0.06684,-0.653284 0.156303,-0.953869 0.08947,-0.297442 0.219328,-0.555022 0.385709,-0.7732 0.169518,-0.221313 0.380256,-0.392334 0.635318,-0.524182 0.254282,-0.127926 0.553065,-0.193152 0.896815,-0.193152 z m -11.118969,0.404132 c 0.35866,0 0.655855,0.08867 0.894437,0.264469 0.240153,0.175009 0.433856,0.41093 0.578265,0.703665 0.147543,0.295091 0.250389,0.630644 0.310823,1.007357 0.06043,0.375929 0.09093,0.769229 0.09093,1.177331 0,0.367292 -0.03677,0.733941 -0.110541,1.098882 -0.07691,0.36572 -0.191519,0.695175 -0.35005,0.984774 -0.156963,0.289598 -0.357576,0.524937 -0.603224,0.705447 -0.248001,0.178939 -0.546385,0.268035 -0.895628,0.268035 -0.372786,0 -0.729769,-0.129923 -1.072732,-0.39284 -0.341395,-0.263696 -0.70396,-0.636019 -1.082241,-1.117899 l 0,-3.162926 c 0.21504,-0.286455 0.419077,-0.525078 0.612141,-0.719711 0.193065,-0.192282 0.379547,-0.351022 0.561624,-0.471883 0.182079,-0.121647 0.360462,-0.209699 0.535475,-0.263874 0.1758,-0.05258 0.352569,-0.08083 0.530721,-0.08083 z"
     id="dp_path018"
     inkscape:connector-curvature="0" /><g
     inkscape:groupmode="layer"
     id="layer2"
     inkscape:label="Layer 2"><path
       inkscape:connector-curvature="0"
       id="path6186"
       d="m 50.910197,2.1004077 0,7.291016 7.589844,0 0,-7.291016 -7.589844,0 z m 116.470783,0 0,8.6015613 0,29.88867 7.58984,0 0,-29.88867 0,-8.6015613 -7.58984,0 z m 63.65039,0 0,7.291016 7.58789,0 0,-7.291016 -7.58789,0 z m -169.293047,8.4531243 0,0.148437 0,29.88867 7.589843,0 0,-22.447265 34.404374,0 0,22.447265 7.58789,0 0,-29.88867 0,-0.148437 -49.582107,0 z m 52.822337,0 0,0.148437 0,22.30078 0,7.58789 49.58008,0 0,-7.58789 -41.99219,0 0,-14.859375 41.99219,0 0,-7.589842 -49.58008,0 z m 127.29883,0 0,0.148437 0,29.88867 7.58985,0 0,-22.447265 41.99218,0 0,-7.589842 -49.58203,0 z m -243.7696107,0.136718 0,1.326171 0,9.828125 0,7.589843 41.9921937,0 0,3.56836 -41.9921937,0 0,7.58789 49.5820367,0 0,-7.58789 0,-8.001953 0,-3.15625 -41.9941461,0 0,-3.564453 41.9941461,0 0,-7.589843 -49.5820367,0 z m 180.1211707,0 0,7.589843 41.99219,0 0,3.564453 -41.99219,0 0,2.146484 0,9.011719 0,7.58789 49.58008,0 0,-7.58789 0,-3.56836 0,-7.589843 0,-5.78125 0,-5.373046 -49.58008,0 z m -127.300853,0.01172 0,29.88867 7.589844,0 0,-29.88867 -7.589844,0 z m 180.121173,0 0,29.88867 7.58789,0 0,-29.88867 -7.58789,0 z m -45.23243,18.73242 34.4043,0 0,3.56836 -34.4043,0 0,-3.56836 z"
       style="fill:#141414;fill-opacity:1;fill-rule:evenodd;stroke:none;stroke-width:0" /></g><g
     inkscape:groupmode="layer"
     id="layer1"
     inkscape:label="Layer 1"><path
       style="fill:#3c3c3c;fill-opacity:1;fill-rule:evenodd;stroke:none;stroke-width:0"
       d="m 52.820312,0 0,7.2910156 7.589844,0 0,-7.2910156 -7.589844,0 z m 116.470708,0 0,8.601563 0,29.888671 7.58984,0 0,-29.888671 0,-8.601563 -7.58984,0 z m 63.65039,0 0,7.2910156 7.58789,0 0,-7.2910156 -7.58789,0 z m -169.292972,8.453125 0,0.148438 0,29.888671 7.589843,0 0,-22.447265 34.404299,0 0,22.447265 7.58789,0 0,-29.888671 0,-0.148438 -49.582032,0 z m 52.822262,0 0,0.148438 0,22.300781 0,7.58789 49.58008,0 0,-7.58789 -41.99219,0 0,-14.859375 41.99219,0 0,-7.589844 -49.58008,0 z m 127.29883,0 0,0.148438 0,29.888671 7.58985,0 0,-22.447265 41.99218,0 0,-7.589844 -49.58203,0 z M 0,8.589844 l 0,1.326172 0,9.828125 0,7.589843 41.992188,0 0,3.56836 -41.992188,0 0,7.58789 49.582031,0 0,-7.58789 0,-8.001953 0,-3.15625 -41.9941404,0 0,-3.564453 41.9941404,0 0,-7.589844 -49.582031,0 z m 180.12109,0 0,7.589844 41.99219,0 0,3.564453 -41.99219,0 0,2.146484 0,9.011719 0,7.58789 49.58008,0 0,-7.58789 0,-3.56836 0,-7.589843 0,-5.78125 0,-5.373047 -49.58008,0 z m -127.300778,0.01172 0,29.888671 7.589844,0 0,-29.888671 -7.589844,0 z m 180.121098,0 0,29.888671 7.58789,0 0,-29.888671 -7.58789,0 z m -45.23243,18.732421 34.4043,0 0,3.56836 -34.4043,0 0,-3.56836 z"
       id="dp_path010"
       inkscape:connector-curvature="0" /></g></svg>