<?xml version="1.0" encoding="UTF-8" standalone="no"?>
<svg
   xmlns:dc="http://purl.org/dc/elements/1.1/"
   xmlns:cc="http://creativecommons.org/ns#"
   xmlns:rdf="http://www.w3.org/1999/02/22-rdf-syntax-ns#"
   xmlns:svg="http://www.w3.org/2000/svg"
   xmlns="http://www.w3.org/2000/svg"
   xml:space="preserve"
   enable-background="new 0 0 566.93 65.438"
   viewBox="0 0 342.40001 65.438"
   height="65.438004"
   width="342.39999"
   y="0px"
   x="0px"
   id="Ebene_2"
   version="1.1"><metadata
     id="metadata18"><rdf:RDF><cc:Work
         rdf:about=""><dc:format>image/svg+xml</dc:format><dc:type
           rdf:resource="http://purl.org/dc/dcmitype/StillImage" /><dc:title></dc:title></cc:Work></rdf:RDF></metadata><defs
     id="defs16" /><path
     style="fill:#2e3192"
     d="m 152.788,62.488 -11.956,0 -1.598,-36.012 -15.545,36.012 -7.975,0 -6.642,-32.557 -10.367,32.557 -20.331,0 -3.057,-17.403 -13.822,0 -7.84,17.403 -12.495,0 25.652,-58.2 14.749,0 7.839,47.04 15.285,-47.041 11.823,0 5.848,31.893 13.56,-31.893 14.351,0 2.521,58.201 z m -79.273,-28.707 -2.189,-11.29 -5.049,11.29 7.238,0"
     id="path5266" /><path
     style="fill:#2e3192"
     d="M 187.072,62.488 189.07,50 l -20.866,0 1.654,-10.365 18.148,0 1.994,-12.495 -18.341,0 1.594,-10.366 20.861,0 1.995,-12.486 -33.087,0 -9.305,58.2 33.355,0"
     id="path5268" /><path
     style="fill:#2e3192"
     d="m 342.419,4.287 -13.954,0 -11.827,19 -7.438,-19 -13.688,0 14.084,30.692 -4.339,27.508 11.963,0 3.671,-24.315 21.528,-33.885"
     id="path5270" /><path
     style="fill:#2e3192"
     d="M 253.306,28.382 C 257.02,12.289 270.775,1.728 284.023,4.791 297.279,7.854 305.012,23.377 301.301,39.47 297.587,55.559 283.834,66.122 270.58,63.059 257.327,59.996 249.595,44.469 253.306,28.382 Z m 18.099,23.023 c 6.327,2.83 14.078,-2.721 17.302,-12.398 3.223,-9.685 0.714,-19.828 -5.614,-22.659 -6.328,-2.832 -14.069,2.722 -17.298,12.404 -3.227,9.683 -0.713,19.821 5.61,22.653"
     id="path5272" /><path
     style="fill:#2e3192"
     d="m 224.595,16.877 c 0,0 0.265,0 7.786,0 8.439,0 6.727,10.812 -1.316,10.812 -6.596,0 -8.313,0 -8.313,0 l 1.843,-10.812 z m -3.689,22.679 c 0,0 2.505,0 10.021,0 9.499,0 9.233,11.605 -1.317,11.605 -6.59,0 -10.55,0 -10.55,0 l 1.846,-11.605 0,0 z m -6.595,-34.949 -9.229,57.767 c 0,0 19.122,0 26.903,0 11.076,0 27.276,-16.326 12.531,-29.672 15.162,-15.692 0.126,-27.955 -7.916,-28.095 -6.461,-0.104 -22.416,0 -22.416,0 l 0.127,0"
     id="path5276" /><path
     style="fill:#2e3192"
     d="M 15.648,9.468 C 4.252,16.521 -1.228,27.271 0.231,41.89 1.928,58.847 23.887,69.53 42.49,58.769 c 1.629,-0.94 0.992,-0.792 1.595,-1.331 l 3.723,-23.656 -22.194,0 -1.702,10.897 9.276,0 -1.065,5.85 c -5.314,2.125 -14.352,1.327 -18.204,-5.582 -2.44,-4.376 -4.703,-14.142 5.583,-23.124 8.369,-7.309 22.856,-8.633 31.23,-4.78 0,0 1.062,-6.111 1.857,-11.829 C 36.511,-0.366 24.018,4.287 15.648,9.468"
     id="path5274" /></svg>