<?xml version="1.0" encoding="UTF-8" standalone="no"?>
<svg
   xmlns:dc="http://purl.org/dc/elements/1.1/"
   xmlns:cc="http://creativecommons.org/ns#"
   xmlns:rdf="http://www.w3.org/1999/02/22-rdf-syntax-ns#"
   xmlns:svg="http://www.w3.org/2000/svg"
   xmlns="http://www.w3.org/2000/svg"
   xmlns:sodipodi="http://sodipodi.sourceforge.net/DTD/sodipodi-0.dtd"
   xmlns:inkscape="http://www.inkscape.org/namespaces/inkscape"
   version="1.1"
   id="Ebene_2"
   x="0px"
   y="0px"
   width="569.46936"
   height="55.887096"
   viewBox="0 0 569.46938 55.887093"
   enable-background="new 0 0 566.93 65.438"
   xml:space="preserve"
   inkscape:version="0.91 r13725"
   sodipodi:docname="logoconsole.svg"><sodipodi:namedview
     pagecolor="#ffffff"
     bordercolor="#666666"
     borderopacity="1"
     objecttolerance="10"
     gridtolerance="10"
     guidetolerance="10"
     inkscape:pageopacity="0"
     inkscape:pageshadow="2"
     inkscape:window-width="1680"
     inkscape:window-height="975"
     id="namedview4157"
     showgrid="false"
     showguides="true"
     inkscape:guide-bbox="true"
     fit-margin-top="0"
     fit-margin-left="0"
     fit-margin-right="0"
     fit-margin-bottom="0"
     inkscape:zoom="1.9070193"
     inkscape:cx="264.47986"
     inkscape:cy="-22.166985"
     inkscape:window-x="-9"
     inkscape:window-y="-9"
     inkscape:window-maximized="1"
     inkscape:current-layer="Ebene_2" /><metadata
     id="metadata18"><rdf:RDF><cc:Work
         rdf:about=""><dc:format>image/svg+xml</dc:format><dc:type
           rdf:resource="http://purl.org/dc/dcmitype/StillImage" /><dc:title></dc:title></cc:Work></rdf:RDF></metadata><defs
     id="defs16" /><path
     id="path5"
     d="m 34.713994,53.85956 0,-32.515004 -9.779,0 0,22.735003 -14.423,-22.735003 -10.511994,0 0,32.515004 9.7789968,0 0,-23.469003 15.1549972,23.469003 9.78,0 z"
     style="fill:#2e3192;fill-opacity:1"
     inkscape:connector-curvature="0" /><path
     id="path7"
     d="m 50.604994,53.85956 0,-22.002003 -9.778,0 0,22.002003 9.778,0 z"
     style="fill:#2e3192;fill-opacity:1"
     inkscape:connector-curvature="0" /><path
     id="path9"
     d="m 50.604994,27.211557 0,-5.867001 -9.778,0 0,5.867001 9.778,0 z"
     style="fill:#2e3192;fill-opacity:1"
     inkscape:connector-curvature="0" /><path
     d="m 84.830004,53.85956 0,-15.159002 c 0,-3.178 -6.112,-7.578001 -9.289,-7.578001 l -2.93501,0 c -2.199,0 -4.645,1.956001 -6.845,2.934001 l 0,-2.199001 -9.779,0 0,22.002003 9.779,0 0,-15.159002 c 0,-1.467 3.422,-3.178 4.89,-3.178 1.467,0 4.155,1.711 4.155,3.178 l 0,15.158002 10.02401,0.001 0,0 z"
     id="_x33_162"
     style="fill:#2e3192;fill-opacity:1"
     inkscape:connector-curvature="0" /><path
     d="m 166.65005,54.61656 0,-15.157002 c 0,-3.179 -6.109,-7.578001 -9.293,-7.578001 l -2.932,0 c -2.201,0 -4.646,1.956001 -6.848,2.933001 l 0,-2.199 -9.777,0 0,22.002002 9.777,0 0,-15.158002 c 0,-1.466 3.424,-3.179 4.891,-3.179 1.467,0 4.154,1.713 4.154,3.179 l 0,15.157002 10.028,0 z"
     id="_x33_162_1_"
     style="fill:#2e3192;fill-opacity:1"
     inkscape:connector-curvature="0" /><path
     id="path13"
     d="m 100.72105,53.85956 0,-22.002003 5.134,0 0,-2.934 -5.134,0 0,-4.645001 -10.021056,0 0,4.645001 -5.135,0 0,2.934 5.135,0 0,22.002003 10.021056,0 z"
     style="fill:#2e3192;fill-opacity:1"
     inkscape:connector-curvature="0" /><path
     id="path15"
     d="m 119.54405,31.123557 c -7.822,0 -14.422,5.378001 -14.422,11.979002 0,6.846001 6.6,12.223001 14.422,12.223001 6.846,0 12.469,-3.911 13.936,-9.045001 l -10.021,0 0,2.934001 c 0,2.445 -1.709,3.18 -3.91,3.18 -2.2,0 -3.668,-0.734 -3.668,-3.18 l 0,-6.111001 18.093,0 c -0.004,-6.601001 -6.36,-11.980002 -14.43,-11.980002 z m 0,2.200001 c 2.201,0 3.912,1.467 3.912,3.912 l 0,2.199 -7.578,0 0,-2.199 c 0,-2.445 1.467,-3.912 3.666,-3.912 z"
     style="fill:#2e3192;fill-opacity:1"
     inkscape:connector-curvature="0" /><path
     id="path17"
     d="m 215.87005,31.123557 c -8.069,0 -14.426,5.378001 -14.426,11.979002 0,6.846001 6.354,12.223001 14.426,12.223001 7.818,0 14.422,-5.377 14.422,-12.223001 -0.004,-6.600001 -6.603,-11.979002 -14.422,-11.979002 z m 0,2.200001 c 2.195,0 3.666,1.467 3.666,3.912 l 0,11.978002 c 0,2.444 -1.471,3.179 -3.666,3.179 -2.444,0 -3.914,-0.734 -3.914,-3.179 l 0,-11.978002 c -0.002,-2.445 1.467,-3.912 3.914,-3.912 z"
     style="fill:#2e3192;fill-opacity:1"
     inkscape:connector-curvature="0" /><path
     id="path19"
     d="m 187.75305,21.344556 0,11.979002 c 0,0 -2.936,-2.200001 -6.848,-2.200001 -6.111,0 -11.244,5.378001 -11.244,11.246002 0,6.112 5.135,12.224001 11.244,12.224001 3.912,0 6.848,-1.467 6.848,-1.467 l 0,0.732 9.779,0 0,-32.514004 -9.779,0 z m -3.668,13.446002 c 2.199,0 3.668,1.712 3.668,3.912 l 0,9.045001 c 0,2.201001 -1.469,2.934001 -3.668,2.934001 -2.443,0 -3.912,-0.732 -3.912,-2.934001 l 0,-9.045001 c 0,-2.2 1.469,-3.912 3.912,-3.912 z"
     style="fill:#2e3192;fill-opacity:1"
     inkscape:connector-curvature="0" /><path
     style="fill:#2e3192;fill-opacity:1"
     d="m 496.90124,55.587237 c -2.66655,-0.540362 -5.76032,-1.838677 -7.43976,-3.122137 -6.85504,-5.238775 -8.86264,-13.662302 -6.07718,-25.498766 1.23337,-5.241044 2.04833,-7.495428 5.04862,-13.965763 1.49234,-3.2183088 4.72683,-7.1347428 7.38648,-8.9437738 4.03764,-2.746311 8.14422,-4.01217496 13.1562,-4.05543096 3.08054,-0.02659 4.82023,0.329186 7.45785,1.52514096 1.99149,0.902992 3.09794,1.674377 4.8285,3.366372 2.67719,2.617493 4.26876,5.5247868 5.18749,9.4758258 0.62123,2.671767 0.6165,8.978948 -0.01,12.535671 -0.88403,5.023266 -3.10457,11.610142 -5.34503,15.855217 -3.67256,6.958449 -9.59497,11.628501 -16.26614,12.826481 -2.23275,0.40095 -5.95207,0.401495 -7.92761,8.13e-4 z m 7.44466,-7.716466 c 3.68131,-1.007075 7.02854,-3.756012 9.32892,-7.661428 0.83354,-1.415131 2.61857,-5.191478 2.61857,-5.53974 0,-0.192425 0.0973,-0.454142 0.21617,-0.581594 0.11889,-0.127451 0.46036,-1.054982 0.75883,-2.061178 0.29847,-1.006196 0.68953,-2.323399 0.86899,-2.927117 1.07837,-3.62734 1.40135,-9.700531 0.69721,-13.109524 -0.91309,-4.420541 -3.72341,-7.3119548 -8.11785,-8.3521138 -3.56439,-0.843677 -9.22519,1.091701 -12.25542,4.1900458 -4.51544,4.616909 -8.51198,16.031177 -8.51198,24.31056 0,3.972513 0.55888,5.909248 2.43938,8.453246 2.42105,3.275281 7.18993,4.582987 11.95718,3.278843 z m 35.42541,7.626465 c -1.64346,-0.03765 -2.9881,-0.114824 -2.9881,-0.171472 0,-0.221185 3.41699,-24.254482 3.68153,-25.89379 l 0.28093,-1.741106 -1.8312,-3.503312 c -2.62397,-5.019956 -3.87929,-7.37057 -4.0854,-7.650052 -0.0989,-0.13416 -0.58333,-1.012295 -1.07638,-1.951412 -0.49307,-0.939116 -1.36235,-2.58562 -1.93175,-3.658896 -0.5694,-1.0732758 -1.6686,-3.1459428 -2.4427,-4.6059238 -0.7741,-1.459981 -1.5595,-2.886951 -1.7453,-3.171044 -0.18579,-0.284093 -0.50958,-0.928156 -0.71951,-1.431254 l -0.38167,-0.91472496 4.45493,0.0016 4.45492,0.0016 1.3416,2.49313196 c 0.73788,1.371224 1.90211,3.538535 2.58721,4.816254 0.68506,1.277711 1.75497,3.2561328 2.37755,4.3964888 0.62257,1.140356 1.69909,3.143602 2.39228,4.451657 0.69319,1.308056 1.37955,2.376844 1.52527,2.375087 0.14572,-0.0016 0.48446,-0.322291 0.75278,-0.712296 0.26832,-0.390015 1.52196,-2.062521 2.78586,-3.716684 1.26391,-1.65417 2.54908,-3.33688 2.85594,-3.739359 0.30686,-0.402479 1.93505,-2.5978168 3.61816,-4.8785288 1.68312,-2.280712 3.33889,-4.503491 3.67949,-4.93951 l 0.61928,-0.79276096 4.74615,0 c 2.6104,0 4.74617,0.0674 4.74617,0.149869 0,0.08242 -0.90558,1.36736196 -2.01239,2.85541896 -5.15422,6.9295588 -8.23667,11.0616568 -8.58497,11.5083348 -0.7742,0.992829 -5.91314,7.650841 -7.99052,10.352432 -1.18021,1.534891 -2.14596,2.906977 -2.14611,3.04908 -1.2e-4,0.142104 -0.55015,4.045325 -1.22227,8.673828 -0.67211,4.628504 -1.49829,10.336382 -1.83591,12.684174 -0.87318,6.071784 -0.69775,5.548985 -1.89533,5.647856 -0.56235,0.04643 -2.36709,0.05358 -4.01054,0.01594 z M 258.21924,54.99117 c -3.33937,-0.784142 -5.49992,-1.710998 -7.89323,-3.386097 -4.32614,-3.027916 -7.42184,-7.943976 -8.43924,-13.401797 -1.03939,-5.575784 -0.51889,-12.404236 1.36327,-17.884913 2.92672,-8.522301 11.20507,-15.9700328 20.82943,-18.7394758 3.29171,-0.94719896 5.39449,-1.25437596 9.75106,-1.42441696 5.00747,-0.19545 11.71143,0.712119 11.70588,1.58471696 -0.004,0.609361 -0.96093,6.695894 -1.07002,6.804994 -0.052,0.05196 -1.01188,-0.08276 -2.13315,-0.299379 -4.84434,-0.935889 -10.43019,-0.736341 -15.08872,0.539029 -10.63641,2.9119358 -16.92817,9.5158058 -18.42613,19.3401768 -0.44483,2.917417 -0.44422,3.96883 0.004,6.955009 0.86215,5.743207 2.92535,8.94401 7.22662,11.211208 2.15817,1.137575 4.20885,1.583879 7.29754,1.588213 3.74441,0.0049 7.76447,-1.244447 8.51513,-2.647089 0.20793,-0.388502 0.56878,-2.902489 0.92377,-6.43556 l 0.11642,-1.15865 -3.93477,0 -3.93477,0 0.16432,-1.280614 c 0.0904,-0.704338 0.34112,-2.378283 0.55723,-3.719878 l 0.39292,-2.439264 7.74467,-0.0644 c 6.94516,-0.05773 7.74466,-0.02431 7.74466,0.323658 0,0.213428 -0.21464,1.834034 -0.47698,3.601338 -0.26233,1.767304 -0.81911,5.902572 -1.23728,9.189481 l -0.76032,5.976197 -1.21122,1.155699 c -1.25107,1.193727 -4.68478,3.344759 -5.35167,3.352533 -0.20795,0.0024 -0.48237,0.104457 -0.60982,0.226745 -0.12745,0.122289 -1.3294,0.461062 -2.67099,0.752839 -3.3946,0.738259 -8.58843,0.869158 -11.09865,0.27971 z m 72.72744,0.263172 c -2.95994,-0.05334 -3.71789,-0.134151 -3.62123,-0.386054 0.0672,-0.175229 0.57985,-1.791371 1.13913,-3.591434 0.5593,-1.800064 1.21936,-3.87656 1.46683,-4.614438 0.24747,-0.737877 1.0163,-3.152749 1.7085,-5.366381 0.69222,-2.213632 1.40901,-4.463854 1.59288,-5.000492 0.18388,-0.536638 1.16972,-3.610111 2.19076,-6.829939 1.02105,-3.219829 1.95184,-6.128652 2.06843,-6.46405 0.11658,-0.335399 0.86892,-2.695387 1.67184,-5.244418 1.70937,-5.426639 4.0045,-12.7194208 4.74036,-15.0624568 l 0.51711,-1.646503 3.35837,0 c 2.95045,0 3.3856,0.05187 3.58252,0.426871 0.12329,0.234779 1.23529,4.59398 2.47113,9.6871068 1.23585,5.093135 2.46079,10.087528 2.7221,11.098652 0.45875,1.775118 1.58521,6.559832 2.28443,9.703279 0.18629,0.837521 0.44183,1.70703 0.56787,1.932239 0.19548,0.349302 0.29195,0.286841 0.65651,-0.425107 0.69035,-1.348165 2.12409,-3.985115 2.31054,-4.24954 0.0946,-0.134159 0.91676,-1.670896 1.82705,-3.41497 0.9103,-1.744074 2.01089,-3.829644 2.44577,-4.634602 0.43487,-0.804957 1.20286,-2.231926 1.70663,-3.171043 0.50377,-0.939117 1.21566,-2.256319 1.58198,-2.927117 0.55353,-1.01362 4.07144,-7.8008638 6.57435,-12.6841738 l 0.62511,-1.219632 3.15011,-0.06854 c 1.73256,-0.03773 3.23397,0.01716 3.33647,0.121963 0.10249,0.104799 0.3028,3.428663 0.44513,7.386369 0.14232,3.9577058 0.31102,8.0190808 0.37489,9.0252768 0.0638,1.006197 0.17879,3.915019 0.25539,6.46405 0.0766,2.549031 0.18857,5.622504 0.24881,6.82994 0.10443,2.09297 0.39524,9.786734 0.74451,19.697058 l 0.16119,4.57362 -1.18835,0.03781 c -0.65358,0.02081 -1.84695,0.02569 -2.6519,0.01098 -0.80496,-0.0148 -2.02076,-0.03179 -2.70178,-0.03781 l -1.23822,-0.01098 -0.0587,-3.708568 c -0.0323,-2.03972 -0.0933,-3.768549 -0.13549,-3.841841 -0.0422,-0.07326 -0.15164,-3.261629 -0.24314,-7.085176 -0.0915,-3.823546 -0.20765,-7.39097 -0.25812,-7.927608 -0.0956,-1.016279 -0.44828,-10.45863 -0.41457,-11.098652 0.0106,-0.20124 -0.0399,-0.786094 -0.11223,-1.299681 -0.16118,-1.144535 -0.17485,-1.127761 -2.15295,2.641276 -0.77452,1.475755 -1.59996,3.012491 -1.8343,3.41497 -0.23435,0.402478 -1.11227,2.048982 -1.95093,3.658896 -0.83865,1.609914 -1.93445,3.695485 -2.4351,4.634602 -0.50065,0.939117 -1.46027,2.75027 -2.13249,4.024786 -3.46812,6.575492 -4.19601,7.940032 -5.84143,10.95058 -0.98205,1.796803 -1.78553,3.310423 -1.78553,3.363616 0,0.05318 -0.38003,0.661016 -0.84451,1.350726 -0.56023,0.831895 -0.88779,1.136575 -0.97307,0.905105 -0.15835,-0.429741 -2.24151,-8.9263 -3.28514,-13.398984 -0.4226,-1.811153 -0.92841,-3.896724 -1.12403,-4.634602 -0.19561,-0.737877 -1.06895,-4.305301 -1.94076,-7.927608 -1.7451,-7.250827 -2.50813,-10.236144 -2.80556,-10.976689 -0.15583,-0.387973 -0.22285,-0.412943 -0.32731,-0.121963 -0.34425,0.958818 -2.71775,8.204944 -4.15477,12.684173 -0.88234,2.750271 -2.52204,7.799548 -3.64379,11.220616 -1.12174,3.421068 -2.52474,7.739517 -3.11778,9.596553 -0.61553,1.927458 -1.23528,3.445306 -1.44415,3.536933 -0.20124,0.08828 -2.05046,0.130143 -4.10938,0.09304 z m 60.70031,-0.03822 c -0.67408,-0.109141 -0.8412,-0.240894 -0.79418,-0.626078 0.0328,-0.268319 0.34129,-2.51854 0.68563,-5.000491 0.34433,-2.481952 0.7217,-5.226124 0.83861,-6.098161 0.62276,-4.645465 1.43468,-10.435343 2.326,-16.586996 1.1156,-7.699659 3.52995,-25.3170418 3.52995,-25.7578738 0,-0.05407 6.36648,-0.09833 14.14774,-0.09833 11.57656,0 14.14773,0.0587 14.14773,0.322926 0,0.422286 -0.69922,5.093964 -0.92525,6.18186 l -0.17552,0.844782 -9.9194,-0.02342 c -7.01947,-0.01659 -9.96824,0.05562 -10.08649,0.246927 -0.21574,0.349075 -2.04963,12.9933988 -2.05913,14.1973548 l -0.007,0.914724 8.66704,0 c 7.33257,0 8.68787,0.05423 8.80231,0.35249 0.13945,0.363385 -0.78616,6.856243 -1.03475,7.25847 -0.0841,0.136021 -3.55888,0.163097 -8.7556,0.06822 -8.24152,-0.15047 -8.62678,-0.137558 -8.85927,0.29685 -0.25572,0.477803 -0.35835,1.110337 -1.35769,8.367042 -0.34179,2.481952 -0.73021,5.160142 -0.86314,5.951528 -0.13293,0.791395 -0.17306,1.54995 -0.0892,1.68567 0.10169,0.164537 3.99761,0.192214 11.6908,0.08305 6.34607,-0.09004 12.31099,-0.09191 13.2554,-0.0041 2.03549,0.189181 1.95755,-0.08826 1.22424,4.358249 -0.26551,1.609914 -0.48277,3.01263 -0.4828,3.117152 -6e-5,0.213615 -32.57392,0.163837 -33.90583,-0.05179 z m 52.50516,0.03309 c -1.24383,-0.05927 -1.52484,-0.14908 -1.52615,-0.487853 -0.002,-0.529784 0.45151,-3.945502 0.73533,-5.537683 0.29769,-1.669944 0.91533,-5.71335 1.21096,-7.927608 0.13434,-1.006197 0.5238,-3.695486 0.86548,-5.976198 1.08001,-7.209269 2.80168,-18.923827 3.19059,-21.709451 1.13102,-8.1008528 1.82224,-12.66086276 1.9365,-12.77513376 0.0562,-0.0561 3.15042,-0.113523 6.87616,-0.127516 6.4663,-0.02431 6.8572,5.85e-4 8.60353,0.54767096 3.55433,1.113476 6.35092,3.460357 7.81465,6.558011 0.95893,2.029338 1.19791,3.1810768 1.20282,5.7969678 0.008,4.128943 -0.66485,6.47436 -2.72009,9.485298 -0.55979,0.820089 -1.16293,1.636194 -1.34029,1.813569 -0.52579,0.525791 -0.3744,0.86567 0.64489,1.447695 1.25398,0.716046 3.72185,3.595126 4.60325,5.370252 1.13347,2.282826 1.38192,3.54991 1.37408,7.007607 -0.007,2.828823 -0.0783,3.365046 -0.66616,4.968749 -1.5272,4.166361 -4.13798,7.387149 -7.51538,9.271367 -2.40276,1.340473 -4.39258,1.90752 -7.82361,2.229544 -2.4689,0.231714 -12.97617,0.258611 -17.46656,0.04472 z m 18.27539,-7.642833 c 2.03142,-0.435661 3.29259,-1.084107 4.70325,-2.418254 5.26523,-4.979636 2.60113,-13.535908 -4.69617,-15.082621 -1.43149,-0.303412 -7.81333,-0.370378 -8.25921,-0.08667 -0.15852,0.100864 -0.61845,2.589848 -1.04729,5.667557 -0.42056,3.01824 -0.92453,6.616138 -1.11994,7.995339 -0.43479,3.068741 -0.44491,3.879601 -0.0504,4.038795 0.614,0.247756 9.21973,0.153934 10.46974,-0.114149 z m 0.31764,-26.063822 c 2.70525,-1.312821 4.76237,-4.430371 4.76273,-7.217889 2.5e-4,-2.086961 -0.56209,-3.544966 -1.81157,-4.6966888 -1.28525,-1.18471 -2.58815,-1.505904 -6.10847,-1.505904 l -2.52984,0 -0.13652,0.670797 c -0.43301,2.1275188 -1.85185,12.8858608 -1.73842,13.1814588 0.11118,0.289736 0.69186,0.335407 3.24213,0.254976 2.66333,-0.08398 3.27984,-0.181993 4.31996,-0.68675 z M 283.04046,55.059258 c -0.0773,-0.07732 0.0134,-0.434067 0.20169,-0.792761 0.48453,-0.923213 1.97678,-4.218089 4.65913,-10.287271 1.2748,-2.88443 2.54176,-5.738369 2.81546,-6.342087 0.27371,-0.603718 0.74579,-1.646504 1.04907,-2.317301 1.03984,-2.299861 2.98814,-6.598454 7.62849,-16.830922 2.5553,-5.634701 5.3421,-11.8319848 6.1929,-13.7717448 1.27842,-2.914758 1.65206,-3.556114 2.1529,-3.695559 0.80192,-0.22327396 4.49825,-0.23440496 5.72225,-0.01724 0.92012,0.163252 0.97933,0.227754 1.16249,1.266556 0.10615,0.601994 0.63426,3.67406 1.17358,6.826809 0.53931,3.1527498 1.246,7.2141238 1.57042,9.0252778 0.57939,3.234741 1.76117,10.108799 3.4387,20.001966 0.46635,2.750271 1.07071,6.262811 1.34302,7.805646 1.25921,7.134319 1.43607,8.206522 1.43843,8.720369 0.002,0.546265 -0.0156,0.548835 -3.87826,0.548835 l -3.88078,0 -0.28707,-1.768467 c -0.15788,-0.972656 -0.48626,-2.811253 -0.72973,-4.085767 -0.24345,-1.274516 -0.56991,-3.140553 -0.72543,-4.14675 -0.49213,-3.183792 -0.806,-4.504759 -1.135,-4.776729 -0.26208,-0.216631 -9.17806,-0.29411 -14.31639,-0.124411 -0.57585,0.01903 -0.7639,0.206557 -1.18453,1.181263 -0.27501,0.637257 -0.90788,2.036785 -1.40637,3.110061 -0.49849,1.073277 -1.77661,3.897416 -2.84025,6.275878 l -1.93391,4.324457 -4.04511,0.0049 c -2.22482,0.0033 -4.10838,-0.05806 -4.1857,-0.135355 z m 28.83787,-22.605556 c -0.005,-0.320771 -1.30396,-7.968352 -2.2179,-13.057495 -0.29588,-1.647536 -0.63683,-2.962567 -0.75768,-2.922287 -0.33405,0.111353 -7.26461,15.42437 -7.26461,16.051098 0,0.141421 2.02121,0.233592 5.12246,0.233592 3.93786,0 5.12136,-0.07049 5.11773,-0.304908 z m 239.38982,22.39347 c -0.15109,-0.393754 0.37459,-3.8706 1.0048,-6.645727 l 0.17673,-0.778271 -1.18624,-0.07545 c -0.85828,-0.05464 -1.18624,-0.176635 -1.18624,-0.44136 0,-0.307169 0.52852,-0.36589 3.29301,-0.36589 2.76449,0 3.293,0.05871 3.293,0.36589 0,0.254724 -0.34891,0.406007 -1.1484,0.497927 -0.63163,0.07261 -1.2209,0.204532 -1.3095,0.293142 -0.0886,0.08861 -0.47382,1.717852 -0.85606,3.620552 -0.38221,1.902691 -0.75622,3.520728 -0.83113,3.595638 -0.30561,0.305607 -1.12389,0.262123 -1.24997,-0.06643 z m 5.05591,0.01895 c -0.23102,-0.278353 -0.20924,-0.84453 0.10128,-2.632674 0.21758,-1.252928 0.48997,-2.607362 0.60535,-3.00984 0.11535,-0.402479 0.33108,-1.198289 0.47936,-1.768467 l 0.26964,-1.036687 1.18377,0 c 1.35094,0 1.34733,-0.0057 1.59928,2.683191 0.23366,2.494017 0.37658,3.195265 0.62048,3.044527 0.12467,-0.07708 0.79549,-1.293176 1.49075,-2.702526 0.69524,-1.409358 1.45864,-2.666571 1.69639,-2.793828 0.23778,-0.127248 0.83884,-0.231364 1.33567,-0.231364 l 0.90338,0 -0.16411,1.402577 c -0.13921,1.189719 -0.82608,4.935558 -1.25242,6.82994 -0.0864,0.384094 -0.30083,0.548834 -0.71426,0.548834 -0.32494,0 -0.63714,-0.08233 -0.69378,-0.182945 -0.0978,-0.173724 0.27776,-2.957388 0.68285,-5.061473 0.26622,-1.382762 -0.0331,-0.985926 -1.71315,2.271557 -1.07705,2.088295 -1.60476,2.870363 -1.97275,2.923653 -0.7932,0.114873 -1.05381,-0.446377 -1.49307,-3.215527 -0.22593,-1.424222 -0.48644,-2.589491 -0.57894,-2.589491 -0.15233,0 -0.55703,1.688597 -1.10996,4.631334 -0.21776,1.158959 -0.74622,1.527288 -1.27576,0.889209 z"
     id="path4147"
     inkscape:connector-curvature="0" /></svg>