<?xml version="1.0" encoding="UTF-8" standalone="no"?>
<!-- Generator: Adobe Illustrator 13.0.0, SVG Export Plug-In . SVG Version: 6.00 Build 14948)  -->

<svg
   xmlns:dc="http://purl.org/dc/elements/1.1/"
   xmlns:cc="http://creativecommons.org/ns#"
   xmlns:rdf="http://www.w3.org/1999/02/22-rdf-syntax-ns#"
   xmlns:svg="http://www.w3.org/2000/svg"
   xmlns="http://www.w3.org/2000/svg"
   xmlns:sodipodi="http://sodipodi.sourceforge.net/DTD/sodipodi-0.dtd"
   xmlns:inkscape="http://www.inkscape.org/namespaces/inkscape"
   version="1.1"
   id="svg2"
   x="0px"
   y="0px"
   width="100.46132"
   height="118.863"
   viewBox="0 0 100.46132 118.863"
   enable-background="new 0 0 566.93 118.865"
   xml:space="preserve"
   inkscape:version="0.91 r13725"
   sodipodi:docname="logoconsole.svg"><metadata
     id="metadata45"><rdf:RDF><cc:Work
         rdf:about=""><dc:format>image/svg+xml</dc:format><dc:type
           rdf:resource="http://purl.org/dc/dcmitype/StillImage" /><dc:title></dc:title></cc:Work></rdf:RDF></metadata><defs
     id="defs43" /><sodipodi:namedview
     pagecolor="#ffffff"
     bordercolor="#666666"
     borderopacity="1"
     objecttolerance="10"
     gridtolerance="10"
     guidetolerance="10"
     inkscape:pageopacity="0"
     inkscape:pageshadow="2"
     inkscape:window-width="1680"
     inkscape:window-height="975"
     id="namedview41"
     showgrid="false"
     fit-margin-top="0"
     fit-margin-left="0"
     fit-margin-right="0"
     fit-margin-bottom="0"
     inkscape:zoom="1.6869645"
     inkscape:cx="265.32066"
     inkscape:cy="7.0783527"
     inkscape:window-x="1671"
     inkscape:window-y="-9"
     inkscape:window-maximized="1"
     inkscape:current-layer="svg2" /><g
     id="layer1"
     transform="translate(3.1882674e-4,-0.001)" /><g
     id="layer5"
     transform="translate(3.1882674e-4,-0.001)" /><g
     id="g25"
     transform="translate(3.1882674e-4,-0.001)"><path
       style="fill:#008000"
       inkscape:connector-curvature="0"
       id="path27"
       d="M 66.344,21.192 C 70.774,16.333 73.079,9.51 73.399,0.334 L 73.41,0.001 73.086,0.067 C 57.533,3.249 49.5,12.996 49.213,29.038 l -0.006,0.312 0.307,-0.048 c 7.408,-1.161 12.914,-3.814 16.83,-8.11 z" /><path
       style="fill:#0000ff"
       inkscape:connector-curvature="0"
       id="path29"
       d="m 12.824,103.702 0.285,0.412 c 2.572,3.707 5.52,7.314 8.761,10.725 2.47,2.596 6.403,4.025 11.076,4.025 3.424,0 6.976,-0.809 9.269,-2.104 4.738,-2.681 7.252,-2.687 9.084,-2.688 0.371,0 0.715,-0.002 1.043,-0.021 l 0.303,-0.021 c 0.396,-0.024 0.806,-0.052 1.268,-0.052 1.625,0 4.057,0.318 8.471,2.813 3.082,1.29 6.068,1.944 8.881,1.944 l 0,0 c 7.658,0 14.371,-4.789 20.521,-14.633 l 0.252,-0.402 -79.214,0 0,0.002 z" /><path
       style="fill:#008000"
       inkscape:connector-curvature="0"
       id="path31"
       d="m 92.947,42.269 c 1.023,-1.02 2.126,-2.024 3.313,-3.015 l 0.197,-0.165 -0.164,-0.201 C 90.524,31.77 82.621,27.93 73.441,27.786 l -0.42,-0.003 c -4.651,0 -8.764,0.872 -11.896,2.521 -4.059,2.138 -7.079,2.613 -7.108,2.617 -0.051,0.007 -0.383,0.02 -1.295,0.02 -1.104,0 -2.061,-0.018 -2.176,-0.035 L 50.474,32.898 C 49.173,32.729 45.853,32.184 43.165,30.75 39.509,28.801 35.436,27.771 31.39,27.771 l -0.267,10e-4 C 20.42,27.893 11.471,33.108 5.908,42.269 l 87.039,0 z" /><path
       style="fill:#ffff00"
       inkscape:connector-curvature="0"
       id="path33"
       d="m 83.973,57.487 c 1.052,-5.094 3.895,-10.039 8.531,-14.771 l 0.438,-0.447 -87.033,0 -0.075,0.127 c -2.668,4.426 -4.435,9.545 -5.273,15.09 l 83.412,0.001 0,0 z" /><path
       style="fill:#ff6600"
       inkscape:connector-curvature="0"
       id="path35"
       d="M 86.01,72.521 C 83.906,68.197 82.874,63.202 83.92,57.8 l 0.059,-0.313 -83.41,0 -0.033,0.226 C -0.17,62.521 -0.17,67.495 0.483,72.521 l 85.527,0 0,0 z" /><path
       style="fill:#ff0000"
       inkscape:connector-curvature="0"
       id="path37"
       d="m 4.58,88.291 95.323,0 0.558,-1.206 -0.23,-0.115 C 95.668,84.711 89.553,79.767 86.072,72.667 L 86,72.521 l -85.522,0 0.042,0.297 c 0.58,4.348 1.771,9.632 4.06,15.473 z" /><path
       style="fill:#800080"
       inkscape:connector-curvature="0"
       id="path39"
       d="m 12.827,103.702 79.201,0 c 3.026,-4.898 5.517,-10.297 7.707,-15.039 l 0.172,-0.373 -95.313,0 0.144,0.361 c 2.085,5.205 4.789,10.233 8.089,15.051 z" /></g></svg>