<?xml version="1.0" encoding="UTF-8" standalone="no"?>
<!-- Generator: Adobe Illustrator 13.0.0, SVG Export Plug-In . SVG Version: 6.00 Build 14948)  -->

<svg
   xmlns:dc="http://purl.org/dc/elements/1.1/"
   xmlns:cc="http://creativecommons.org/ns#"
   xmlns:rdf="http://www.w3.org/1999/02/22-rdf-syntax-ns#"
   xmlns:svg="http://www.w3.org/2000/svg"
   xmlns="http://www.w3.org/2000/svg"
   xmlns:sodipodi="http://sodipodi.sourceforge.net/DTD/sodipodi-0.dtd"
   xmlns:inkscape="http://www.inkscape.org/namespaces/inkscape"
   version="1.1"
   id="svg2"
   x="0px"
   y="0px"
   width="1255.7913"
   height="289.3761"
   viewBox="0 0 1255.7913 289.37611"
   enable-background="new 0 0 566.93 118.865"
   xml:space="preserve"
   inkscape:version="0.91 r13725"
   sodipodi:docname="logo.svg"><metadata
     id="metadata4268"><rdf:RDF><cc:Work
         rdf:about=""><dc:format>image/svg+xml</dc:format><dc:type
           rdf:resource="http://purl.org/dc/dcmitype/StillImage" /><dc:title></dc:title></cc:Work></rdf:RDF></metadata><defs
     id="defs4266" /><sodipodi:namedview
     pagecolor="#ffffff"
     bordercolor="#666666"
     borderopacity="1"
     objecttolerance="10"
     gridtolerance="10"
     guidetolerance="10"
     inkscape:pageopacity="0"
     inkscape:pageshadow="2"
     inkscape:window-width="1680"
     inkscape:window-height="975"
     id="namedview4264"
     showgrid="false"
     fit-margin-top="0"
     fit-margin-left="0"
     fit-margin-right="0"
     fit-margin-bottom="0"
     inkscape:zoom="1.5764114"
     inkscape:cx="246.60458"
     inkscape:cy="112.9638"
     inkscape:window-x="-9"
     inkscape:window-y="-9"
     inkscape:window-maximized="1"
     inkscape:current-layer="layer2" /><g
     id="layer1"
     transform="translate(-206.4519,298.64578)" /><g
     id="layer5"
     transform="translate(-206.4519,298.64578)" /><g
     id="g5048"
     transform="matrix(2.1371824,0,0,2.1371824,308.26082,-708.56869)"
     style="fill:#5a5a5c;fill-opacity:1"><path
       d="m 54.066,424.9942 c 0,-1.56 1.428,-1.949 4.808,-2.339 4.161,-0.391 4.418,-2.209 4.418,-8.188 0,-14.037 -0.907,-39.771 -1.428,-53.678 -0.13,-1.949 -0.13,-2.6 -0.65,-2.6 -0.52,0 -0.651,0.781 -1.171,1.95 -2.47,6.5 -6.497,19.235 -16.505,51.208 -3.64,12.086 -3.25,14.557 -5.719,14.557 -1.56,0 -1.949,-1.041 -3.25,-6.5 -4.288,-16.115 -14.296,-48.998 -17.546,-59.135 -0.391,-1.17 -0.649,-1.82 -1.301,-1.82 -0.518,0 -0.518,1.04 -0.777,2.859 -0.91,12.215 -1.688,33.142 -1.688,44.45 0,8.577 -0.133,16.246 4.288,16.896 2.339,0.392 5.719,0.521 5.719,2.34 0,1.039 -0.779,1.819 -2.602,1.819 -2.598,0 -4.676,-0.521 -9.617,-0.521 -4.548,0 -7.146,0.521 -8.966,0.521 -1.302,0 -2.079,-0.26 -2.079,-1.819 0,-1.948 1.949,-1.69 4.158,-2.209 3.77,-0.78 4.289,-3.771 4.678,-10.14 0.78,-13.905 2.209,-44.318 2.209,-55.106 0.13,-7.018 0,-8.317 -4.418,-8.968 -2.209,-0.259 -4.288,-0.519 -4.288,-2.079 0,-1.82 1.688,-1.949 3.509,-1.95 2.729,0 6.368,0.39 9.229,0.39 2.209,0 5.587,-0.39 7.668,-0.389 1.429,0 1.949,0.389 2.6,2.339 4.81,15.855 9.62,31.711 14.298,47.438 1.038,3.771 1.819,6.76 2.729,6.76 0.778,0 1.429,-1.819 2.597,-5.592 4.941,-15.854 9.88,-31.71 14.818,-47.438 0.776,-2.469 1.559,-3.509 2.989,-3.51 1.948,0 5.198,0.39 7.668,0.39 2.6,0 6.366,-0.39 9.097,-0.389 1.432,0 2.729,0.519 2.729,1.819 0,1.69 -1.688,2.081 -5.459,2.339 -2.339,0.26 -2.988,1.95 -2.988,7.798 0,12.867 1.561,43.279 1.95,59.266 0,4.81 1.168,6.629 3.769,6.89 3.25,0.778 4.679,1.041 4.679,2.47 0,1.43 -1.169,1.689 -2.986,1.689 -2.729,0 -5.851,-0.521 -11.828,-0.521 -5.199,0 -9.487,0.521 -12.348,0.521 -1.69,0 -2.988,-0.521 -2.988,-1.689 l 0,-0.127 -0.005,-0.002 0,0 z"
       id="path4230"
       inkscape:connector-curvature="0"
       style="fill:#5a5a5c;fill-opacity:1" /><path
       d="m 116.06,378.3362 c 0,-6.108 -1.432,-8.579 -5.459,-8.579 -6.239,0 -9.097,4.68 -11.179,11.048 -0.91,2.729 -2.469,4.938 -4.418,6.238 -1.431,1.04 -3.25,1.819 -5.198,1.819 -2.47,0 -3.38,-1.041 -3.38,-3.379 0,-7.537 11.179,-19.364 27.294,-19.364 4.81,0 8.579,0.649 10.785,2.6 2.212,1.69 2.732,4.159 2.732,8.188 l 0,37.17 c 0,3.25 1.038,5.589 3.638,5.589 2.081,0 3.25,-1.169 3.9,-2.339 0.521,-1.17 1.038,-2.469 1.817,-2.469 0.78,0 1.041,0.648 1.041,2.209 0,2.857 -4.418,10.525 -11.959,10.525 -5.459,0 -7.018,-4.418 -8.059,-7.019 -0.391,-1.04 -0.777,-1.819 -1.428,-1.819 -1.041,0 -3.12,2.471 -6.37,4.811 -2.989,2.34 -7.019,4.418 -12.217,4.418 -6.108,0 -10.918,-4.157 -10.918,-11.697 0,-6.887 4.81,-11.566 15.336,-18.064 4.161,-2.729 7.277,-4.549 9.619,-6.108 3.509,-2.078 4.419,-3.25 4.419,-6.237 l 0,-7.54 0.004,0 z m -17.679,35.61 c 0,4.811 2.732,7.279 6.5,7.279 2.859,0 5.589,-1.69 8.06,-4.16 2.339,-2.338 3.119,-4.158 3.119,-7.407 l 0,-13.257 c 0,-1.561 -0.261,-1.95 -0.91,-1.95 -0.647,0 -1.299,0.26 -2.989,1.301 -2.729,1.819 -5.329,3.897 -7.538,6.108 -3.638,3.379 -6.24,7.277 -6.24,11.957 l -0.002,0.129 0,0 z"
       id="path4232"
       inkscape:connector-curvature="0"
       style="fill:#5a5a5c;fill-opacity:1" /><path
       d="m 136.203,399.0012 c 0,-18.975 12.347,-32.882 28.074,-32.882 3.51,0 8.188,0.649 11.178,2.469 2.729,1.56 2.988,2.079 3.119,5.199 l 0,4.68 c 0,1.169 -0.131,3.118 -0.392,4.288 -0.261,2.34 -1.171,3.12 -2.858,3.12 -2.34,0 -2.989,-3.378 -5.459,-8.837 -1.818,-4.29 -3.511,-6.499 -7.277,-6.499 -7.537,0 -14.167,9.877 -14.167,23.782 0,18.457 7.021,26.645 15.726,26.645 4.684,0 8.188,-1.949 10.788,-5.719 1.56,-2.339 2.601,-5.587 3.642,-5.587 0.776,0 1.299,0.778 1.299,1.819 0,6.107 -6.497,16.506 -19.624,16.506 -14.428,0 -24.045,-11.827 -24.045,-28.854 l -0.004,-0.13 0,0 z"
       id="path4234"
       inkscape:connector-curvature="0"
       style="fill:#5a5a5c;fill-opacity:1" /><path
       d="m 188.841,382.1042 c 0,-4.158 -0.91,-5.199 -4.94,-5.849 -1.559,-0.26 -2.206,-0.649 -2.206,-1.56 0,-1.17 1.168,-1.689 4.158,-2.598 4.156,-1.172 7.798,-3.121 10.526,-4.681 1.298,-0.778 2.079,-1.3 2.601,-1.3 0.776,0 1.037,0.521 1.037,1.949 l 0,6.109 0,41.852 c 0,4.42 -0.042,6.641 1.637,7.146 2.296,0.696 3.25,0.781 3.25,2.082 0,1.168 -0.521,1.561 -2.078,1.561 -2.729,0 -2.678,-0.521 -8.396,-0.521 -6.238,0 -6.057,0.521 -8.524,0.521 -1.04,0 -1.951,-0.521 -1.951,-1.561 0,-1.301 0.911,-1.695 2.603,-2.082 2.067,-0.471 2.286,-1.56 2.286,-6.759 l -0.003,-34.309 0,0 z m 5.589,-24.173 c -3.382,0 -6.499,-2.731 -6.499,-7.669 0,-4.808 2.859,-7.798 6.63,-7.798 3.639,0 6.497,2.859 6.497,7.668 0,5.068 -2.858,7.799 -6.497,7.799 l -0.131,0 z"
       id="path4236"
       inkscape:connector-curvature="0"
       style="fill:#5a5a5c;fill-opacity:1" /><path
       d="m 215.353,382.1042 c 0,-4.418 -0.521,-4.938 -3.768,-5.328 -2.339,-0.26 -3.12,-0.391 -3.12,-1.431 0,-1.3 1.299,-1.56 4.028,-2.469 4.678,-1.69 8.319,-3.769 10.267,-5.329 1.171,-0.909 1.821,-1.43 2.474,-1.43 0.776,0 1.038,1.04 1.038,2.209 l 0,5.2 c 0,1.819 0.13,2.209 0.521,2.209 1.171,0 3.249,-2.209 6.105,-4.418 2.991,-2.209 7.021,-4.549 11.827,-4.549 4.419,0 8.579,1.43 11.565,4.549 2.731,2.859 4.291,7.019 4.291,12.476 l 0,33.143 c 0,4.549 1.153,5.979 4.146,6.367 0,0 1.924,0.65 1.924,1.95 0,1.169 -0.911,1.562 -2.34,1.562 -1.562,0 -3.339,-0.521 -9.447,-0.521 -5.848,0 -6.474,0.521 -8.551,0.521 -1.433,0 -2.079,-0.391 -2.079,-1.69 0,-0.909 0.928,-1.354 2.209,-1.69 1.2,-0.313 2.962,-1.688 2.962,-5.328 l 0,-33.012 c 0,-3.121 -0.646,-5.85 -2.209,-7.93 -1.818,-2.338 -4.549,-3.639 -7.798,-3.639 -3.382,0 -6.628,1.301 -9.098,3.51 -2.339,2.209 -3.641,4.809 -3.641,7.928 l 0,33.142 c 0,3.379 0.632,4.779 3.771,5.328 0.549,0.096 1.148,0.375 1.148,1.543 0,1.301 -0.91,1.689 -1.951,1.689 -1.56,0 -1.147,-0.375 -8.813,-0.375 -6.63,0 -6.734,0.521 -8.813,0.521 -1.56,0 -2.471,-0.521 -2.471,-1.69 0,-1.169 1.045,-1.784 2.341,-1.95 2.813,-0.354 3.481,-2.078 3.481,-7.277 l 0,-33.791 0.001,0 z"
       id="path4238"
       inkscape:connector-curvature="0"
       style="fill:#5a5a5c;fill-opacity:1" /><path
       d="m 284.209,413.6882 c 0,5.066 1.431,7.275 4.551,7.275 2.47,0 4.028,-1.689 5.068,-3.248 1.169,-1.562 1.948,-3.121 2.989,-3.121 0.776,0 1.299,0.391 1.299,1.301 0,1.949 -3.511,12.088 -13.647,12.088 -3.768,0 -6.627,-1.039 -8.575,-3.119 -2.078,-2.34 -2.858,-5.459 -2.858,-10.398 l 0,-40.03 c 0,-1.431 -0.65,-1.951 -1.563,-2.08 -0.907,-0.131 -2.079,-0.131 -3.116,-0.131 -1.172,0 -2.213,-0.129 -2.213,-1.56 0,-0.91 0.78,-1.819 2.473,-3.379 4.027,-3.12 7.408,-6.628 11.826,-14.426 1.171,-2.209 1.56,-2.99 2.47,-2.99 0.907,0 1.299,0.521 1.299,2.729 l 0,12.348 c 0,1.95 0.649,2.729 2.604,2.729 l 7.018,0 c 2.209,0 2.729,0.52 2.729,2.34 0,2.08 -0.521,2.729 -2.989,2.729 -2.209,0 -4.548,-0.131 -6.757,-0.131 -2.082,0 -2.604,0.521 -2.604,2.859 l -0.004,38.215 0,0 z"
       id="path4240"
       inkscape:connector-curvature="0"
       style="fill:#5a5a5c;fill-opacity:1" /><path
       d="m 322.552,427.9832 c -15.076,0 -25.477,-14.037 -25.477,-30.934 0,-16.637 10.008,-30.933 25.604,-30.933 15.856,0 25.604,14.427 25.604,30.803 0,17.025 -10.397,31.063 -25.604,31.063 l -0.127,0 z m 0.518,-3.638 c 8.97,0 13.127,-13.646 13.127,-25.994 0,-14.428 -4.549,-28.593 -13.776,-28.593 -8.967,0 -13.255,12.997 -13.255,25.995 0,14.425 4.679,28.593 13.774,28.593 l 0.13,0 z"
       id="path4242"
       inkscape:connector-curvature="0"
       style="fill:#5a5a5c;fill-opacity:1" /><path
       d="m 349.314,382.6242 c 0,-10.917 9.487,-16.505 20.665,-16.505 4.157,0 8.84,0.778 11.31,2.079 0.646,0.39 0.911,1.3 1.038,3.119 0.131,1.17 0.131,2.6 0.131,4.55 l 0,3.379 c -0.131,2.08 -0.389,3.25 -1.561,3.25 -1.688,0 -1.947,-2.47 -4.029,-6.89 -1.56,-3.379 -3.77,-5.979 -7.927,-5.979 -5.069,0 -9.103,3.51 -9.103,8.318 0,6.237 6.24,9.228 12.74,12.996 6.368,3.77 12.996,8.317 12.996,17.677 0,12.605 -10.139,19.364 -22.354,19.364 -3.9,0 -7.668,-0.649 -10.27,-1.56 -0.908,-0.261 -1.818,-0.52 -2.472,-1.041 -0.646,-0.39 -1.168,-1.039 -1.298,-3.639 -0.13,-1.82 -0.13,-4.288 -0.13,-7.669 0,-5.199 0.388,-6.627 1.688,-6.627 1.82,0 1.947,2.079 3.899,7.538 1.948,5.068 4.938,9.357 10.27,9.357 5.849,0 10.007,-3.898 10.007,-9.748 0,-7.668 -6.109,-11.049 -12.089,-14.688 -6.497,-3.641 -13.517,-7.798 -13.517,-17.156 l 0,-0.13 0.005,0 0,0.005 z"
       id="path4244"
       inkscape:connector-curvature="0"
       style="fill:#5a5a5c;fill-opacity:1" /><path
       d="m 390.589,349.0922 c 0,-3.769 -0.519,-4.678 -4.028,-5.069 -2.209,-0.521 -2.988,-0.65 -2.988,-1.82 0,-1.3 0.911,-1.43 3.642,-2.209 5.198,-1.56 8.448,-2.729 10.527,-3.899 1.688,-0.781 2.469,-1.17 3.25,-1.17 0.775,0 0.905,0.519 0.905,2.339 l 0,36.912 c 0,0.779 0.263,1.169 0.781,1.169 0.521,0 1.168,-0.391 1.688,-0.91 3.25,-2.988 8.316,-7.668 15.854,-7.668 9.747,0 15.466,6.627 15.727,16.896 l 0,33.271 c 0,4.42 1.173,6.108 4.291,6.498 2.079,0.261 3.117,0.65 3.117,1.82 0,1.17 -0.908,1.561 -1.948,1.561 -1.169,0 -5.068,-0.521 -10.784,-0.521 -6.24,0 -8.579,0.521 -10.4,0.521 -1.429,0 -2.209,-0.521 -2.209,-1.689 0,-1.168 0.91,-1.431 2.339,-1.689 3.25,-0.52 4.291,-1.688 4.291,-5.328 l 0,-33.012 c 0,-3.25 -0.521,-6.108 -2.078,-8.059 -1.82,-2.469 -4.552,-3.641 -8.063,-3.641 -3.377,0 -6.627,1.301 -9.096,3.51 -2.341,2.21 -3.513,4.811 -3.513,8.061 l 0,32.752 c 0,3.377 1.172,5.068 5.069,5.717 1.951,0.394 2.469,0.65 2.469,1.82 0,1.17 -0.907,1.562 -1.947,1.562 -1.56,0 -3.512,-0.521 -11.438,-0.521 -6.367,0 -8.446,0.521 -10.658,0.521 -1.168,0 -2.078,-0.392 -2.078,-1.69 0,-1.169 1.172,-1.818 2.47,-1.949 4.157,-0.39 4.81,-1.949 4.81,-7.277 l -0.002,-66.809 0,0 z"
       id="path4246"
       inkscape:connector-curvature="0"
       style="fill:#5a5a5c;fill-opacity:1" /></g><g
     inkscape:groupmode="layer"
     id="layer2"
     inkscape:label="Layer 1" /><g
     inkscape:groupmode="layer"
     id="layer3"
     inkscape:label="Layer 2"><g
       style=""
       id="g5115"
       transform="translate(-408.28953,-22.680419)"><g
         id="g5167"
         transform="translate(398.07389,81.197079)"><path
           sodipodi:nodetypes="sssssssscsssssssssss"
           inkscape:connector-curvature="0"
           id="path5129"
           d="m 133.72627,207.44798 c 15.60622,-14.42097 16.23303,-14.85197 16.23303,-11.16182 0,3.67384 -17.29538,17.97991 -21.73688,17.97991 -1.37651,0 0.0859,-1.81164 5.50385,-6.81809 z M 132.68255,41.906011 c -10.04554,-1.60722 -11.70606,-3.36912 -3.92762,-4.16743 2.69132,-0.27621 14.54014,-0.68053 26.3307,-0.89848 17.69231,-0.32704 22.33295,-0.69881 26.56372,-2.12802 l 5.12633,-1.73176 0.65962,-9.32061 c 0.36279,-5.126328 0.78222,-16.8702886 0.93206,-26.0976866 0.24022,-14.7927834 0.0717,-17.1450524 -1.42496,-19.8881994 -2.80596,-5.14295 -8.86423,-7.171711 -25.33234,-8.483154 -16.12412,-1.28405 -20.21726,-1.988444 -20.74442,-3.569939 -0.8076,-2.42279 4.69207,-3.209077 17.94823,-2.566057 20.61963,1.000202 26.78704,2.738564 30.38815,8.565289 3.3734,5.458279 3.58174,8.896752 2.13388,35.2178704 -1.5696,28.5343566 -2.05432,30.5116066 -8.21752,33.5201566 -3.21721,1.57046 -6.18939,1.8162 -24.6996,2.04216 -11.57326,0.14127 -23.15457,-0.0811 -25.73623,-0.49414 z"
           style="fill:#f8de35" /><path
           sodipodi:nodetypes="sssscsssssccsssssssscsccssscsssssssssssssssssssssssssscsssssssssssssss"
           inkscape:connector-curvature="0"
           id="path5127"
           d="m 155.69788,226.33412 c 11.10203,-12.91481 11.76156,-14.54095 8.04945,-19.84669 -4.09582,-5.85419 -13.14488,-14.54159 -16.19573,-15.54847 -3.77939,-1.24731 -8.66433,0.63618 -16.8472,6.49581 -4.81943,3.45111 -8.74503,4.84532 -8.68184,3.0834 0.043,-1.19774 4.9286,-6.33169 8.8295,-9.27825 8.2404,-6.2244 12.11614,-7.0947 18.06952,-4.05751 7.02258,3.58266 21.54305,22.28019 21.54305,27.74027 0,3.6653 -5.19594,9.63123 -11.55879,13.27167 -7.0417,4.02886 -7.86167,3.55337 -3.20796,-1.86023 z m 30.25139,-63.38196 c -2.50506,-0.41986 -4.95372,-1.16246 -5.44148,-1.65021 -1.0994,-1.09941 6.2624,-1.6978 37.02589,-3.0096 36.79024,-1.56878 44.27286,-2.5071 44.27286,-5.55181 0,-3.86859 -32.22323,-41.4081 -38.62616,-44.99882 -1.36206,-0.76383 -18.13764,-1.21867 -57.84208,-1.56827 -52.38488,-0.46126 -64.36677,-1.08807 -55.92362,-2.92555 4.97312,-1.0823 111.93188,-0.92795 114.80833,0.16568 1.43902,0.54712 7.73336,6.20158 13.9874,12.56548 24.53948,24.97052 30.10224,35.32749 23.32978,43.43633 l -2.0638,2.47103 -26.09769,1.02916 c -29.18953,1.15106 -40.72689,1.15996 -47.42943,0.0366 z m 27.06154,-75.223939 c -0.37426,-0.60557 -0.94009,-30.1652 -1.25739,-65.68807 -0.43993,-49.25262 -0.31236,-65.08135 0.53733,-66.66902 1.5006,-2.8039 4.78774,-2.79339 4.74493,0.0152 -0.0176,1.15343 -0.42631,30.40847 -0.90828,65.01121 -0.81575,58.56738 -1.35343,70.18357 -3.11659,67.33072 z M 30.570632,81.680471 c -4.31349,-4.47445 -16.14615,-20.96902 -18.22015,-25.39864 -2.8807401,-6.1526 -2.8467001,-11.85157 0.10615,-17.77717 3.857,-7.73998 10.7366,-10.19226 20.72829,-7.38873 5.44872,1.52883 5.91522,1.51687 13.25744,-0.33982 4.46754,-1.12974 8.78908,-1.68859 10.46534,-1.35334 5.52427,1.10486 12.54235,10.4589 11.32879,15.09956 -0.74548,2.85073 -2.18462,2.05653 -4.99848,-2.75848 -1.32527,-2.26778 -3.83,-5.0818 -5.56606,-6.25339 -3.46679,-2.33957 -4.47767,-2.28391 -14.76489,0.81299 -5.58629,1.68172 -6.24989,1.6986 -11.65075,0.29641 -11.49363,-2.98402 -18.14898,0.49273 -17.00259,8.88213 0.31982,2.34048 1.72937,6.03389 3.13233,8.20758 6.04109,9.35982 17.41524,24.47568 18.41709,24.47568 0.59975,0 2.40903,-0.65779 4.02062,-1.46176 2.44999,-1.22221 3.45203,-1.27304 6.11482,-0.31016 2.9397,1.063 3.41193,0.96035 6.13913,-1.33443 3.03452,-2.55338 4.67556,-3.12911 4.67556,-1.64033 0,1.18468 -9.28982,9.41345 -10.58649,9.37734 -0.58535,-0.0163 -1.85235,-0.62638 -2.81557,-1.35572 -1.53626,-1.16325 -2.18976,-1.10238 -5.32221,0.49567 -4.50604,2.29882 -4.99416,2.28079 -7.45837,-0.27539 z m 126.146108,-8.26623 c -1.66606,-0.48106 -3.0292,-1.21992 -3.0292,-1.64191 0,-1.0249 12.73608,-1.96316 26.74173,-1.97004 11.68664,-0.006 14.45379,0.85132 10.97097,3.39802 -2.03296,1.48654 -29.68533,1.6571 -34.6835,0.21393 z M 91.130762,60.808761 c -0.91171,-4.09859 -1.22367,-17.88557 -1.25184,-55.3242196 -0.035,-46.5804604 0.0776,-50.1637304 1.71044,-54.3966204 2.62231,-6.7981 5.80117,-7.89368 26.443538,-9.11372 17.71267,-1.04688 69.68542,-0.30126 78.45181,1.12551 5.46487,0.88943 7.29531,2.43804 5.27294,4.46109 -1.04194,1.04229 -3.71782,1.08287 -15.36432,0.23301 -16.96441,-1.2379 -62.99192,-1.30306 -76.24412,-0.10792 -5.28425,0.47655 -10.810368,1.52663 -12.423218,2.36067 -5.59566,2.89362 -5.54485,2.23029 -4.68144,61.12722 0.43133,29.42312 0.4504,53.856 0.0424,54.29528 -0.40801,0.43928 -1.2883,-1.65785 -1.95619,-4.6603 z"
           style="fill:#5a5a5c;fill-opacity:1" /><path
           sodipodi:nodetypes="sssssssssssssssssssssscss"
           inkscape:connector-curvature="0"
           id="path5125"
           d="m 114.35908,179.28086 c -3.43218,-1.76191 -11.75745,-5.09323 -18.500598,-7.40294 -14.89324,-5.10133 -19.02913,-7.33112 -20.89628,-11.26583 -2.44876,-5.16039 -1.45866,-9.69661 3.84936,-17.6362 1.70904,-2.55633 3.10734,-5.31577 3.10734,-6.13208 0,-2.93167 -9.4643,-6.11796 -30.19522,-10.16567 -10.91849,-2.13183 -14.48926,-3.53988 -18.50494,-7.29699 -3.10023,-2.90062 -3.36273,-7.18907 -0.78718,-12.86027 3.704,-8.155979 19.55552,-15.098879 43.78253,-19.176559 14.18511,-2.38752 42.046958,-2.99715 44.091008,-0.96473 2.14035,2.12816 -0.72363,2.78113 -14.99447,3.4186 -26.813578,1.19774 -40.937668,3.58303 -55.616448,9.39254 -11.40669,4.514489 -18.72949,10.787609 -16.59171,14.213379 1.95698,3.13607 11.00658,6.62247 23.67256,9.11995 14.02905,2.76626 23.56619,6.15369 25.63293,9.10436 2.45767,3.50881 1.7055,8.29308 -2.24161,14.25801 -4.8682,7.3569 -5.22173,8.83654 -2.83598,11.86953 2.45975,3.12706 6.18476,5.02116 18.56943,9.44219 14.538518,5.1899 22.989878,9.87162 25.444958,14.0955 1.0911,1.87718 -0.0466,1.54938 -6.98568,-2.01279 z M 40.480892,26.052451 c -1.39697,-2.26035 5.70977,-9.628619 12.73515,-13.203816 l 4.00326,-2.037245 -3.97125,4.317037 c -6.70716,7.291184 -12.13963,11.939394 -12.76716,10.924024 z"
           style="fill:#f15b5e" /><path
           sodipodi:nodetypes="ssssssssssssssssssscssscss"
           inkscape:connector-curvature="0"
           id="path5123"
           d="m 115.47307,179.31622 c -3.33212,-1.74314 -11.30123,-4.92709 -17.709148,-7.07545 -21.00744,-7.04311 -23.83955,-9.26176 -23.10649,-18.10142 0.32951,-3.97354 1.20818,-6.25148 3.94312,-10.22248 1.93552,-2.81029 3.5788,-5.85218 3.65175,-6.75976 0.23754,-2.95546 -8.85477,-6.48558 -24.56697,-9.53821 -15.20911,-2.95488 -23.24623,-6.04964 -25.78889,-9.93024 -2.1613,-3.29855 -0.19844,-11.31613 3.68766,-15.06281 6.26045,-6.035859 21.871,-11.818269 39.61676,-14.674729 20.94096,-3.37078 44.932508,-3.82989 44.932508,-0.85983 0,1.53342 -3.90521,2.03757 -21.437388,2.7675 -16.81762,0.70019 -25.07622,1.77014 -36.22958,4.69379 -15.64862,4.10199 -29.9467,12.264529 -29.9467,17.096069 0,4.35633 8.48492,8.30339 24.24228,11.27714 18.90687,3.56814 27.02104,7.73576 27.02104,13.87866 0,1.48912 -1.7758,5.33296 -4.17433,9.03561 -2.29588,3.54419 -4.1833,7.20556 -4.19427,8.13637 -0.0568,4.8172 4.50168,7.85997 20.48538,13.674 12.754978,4.63958 20.285338,8.49477 23.839808,12.20484 1.43365,1.49641 2.42331,2.70039 2.19924,2.67552 -0.22406,-0.0249 -3.13367,-1.47143 -6.46578,-3.21457 z M 40.480892,26.052451 c -1.39697,-2.26035 5.70977,-9.628619 12.73515,-13.203816 l 4.00326,-2.037245 -3.97125,4.317037 c -6.70716,7.291184 -12.13963,11.939394 -12.76716,10.924024 z"
           style="fill:#ee262a" /><path
           sodipodi:nodetypes="cccsssssssccsscssssssssscssssccccssccssscscssssssssssss"
           inkscape:connector-curvature="0"
           id="path5121"
           d="m 209.75674,144.3224 -6.84486,-6.48529 -13.19444,-0.0143 c -7.25692,-0.007 -13.76148,-0.3736 -14.45454,-0.81279 -1.28806,-0.81623 1.57828,-1.28574 15.47404,-2.53468 3.71659,-0.33405 6.75744,-0.9726 6.75744,-1.41899 0,-1.41947 -3.60234,-4.47651 -5.80167,-4.92343 -1.16646,-0.23704 -7.79456,-0.64446 -14.7291,-0.90537 -18.00322,-0.67738 -19.06386,-1.8817 -2.14833,-2.43931 7.77551,-0.25632 14.44882,-0.77803 14.82958,-1.15937 0.38076,-0.38133 -0.0691,-1.53475 -0.99988,-2.56316 -1.56331,-1.72744 -2.87017,-1.87093 -17.15974,-1.88411 -8.50714,-0.007 -16.02056,-0.36493 -16.69647,-0.79351 -1.47879,-0.93768 6.90754,-1.59345 38.30302,-2.99509 l 23.09319,-1.031 6.24302,6.84423 c 3.43365,3.76432 9.62729,10.40935 13.76363,14.76673 4.13634,4.35738 8.13156,8.72133 8.87827,9.69765 1.32588,1.73361 1.28428,1.73721 -1.77814,0.15396 -1.72468,-0.89165 -4.8837,-3.23234 -7.02003,-5.20154 -3.88331,-3.57952 -7.99366,-5.35201 -9.80916,-4.22997 -0.57923,0.35798 0.51518,2.76213 2.7432,6.02619 2.0388,2.98683 3.7069,5.69429 3.7069,6.01658 0,1.62933 -2.42695,0.0221 -8.22338,-5.44599 l -6.3942,-6.03197 -4.808,0.56943 c -2.6444,0.31318 -4.80799,0.73909 -4.80799,0.94646 0,0.20737 2.09714,2.897 4.6603,5.97695 2.56317,3.07996 4.66031,5.78786 4.66031,6.01757 0,1.24486 -2.07631,-0.30322 -8.24297,-6.14592 z m 1.14124,-11.69789 c 1.29344,-0.49634 1.29031,-0.77967 -0.0309,-2.79618 -1.22109,-1.86359 -2.24192,-2.24388 -6.02338,-2.24388 -4.94728,0 -5.29323,0.39265 -3.10216,3.52085 1.4487,2.0683 5.83085,2.79537 9.15648,1.51921 z m 15.49027,-1.01873 c 0,-0.35144 -0.91197,-1.60972 -2.02659,-2.79618 -1.52309,-1.62125 -3.04592,-2.15721 -6.12928,-2.15721 l -4.1027,0 2.16803,2.74461 c 1.77326,2.24486 2.88931,2.754 6.12928,2.79618 2.17869,0.0283 3.96126,-0.23597 3.96126,-0.5874 z m -20.50533,-8.47424 c 0,-0.39858 -0.65293,-1.65686 -1.45094,-2.79618 -1.16663,-1.66559 -2.35378,-2.07152 -6.05839,-2.07152 -5.00226,0 -5.35052,0.38847 -3.15651,3.52085 1.16663,1.6656 2.35378,2.07152 6.05839,2.07152 2.5341,0 4.60745,-0.3261 4.60745,-0.72467 z m 12.20047,-1.91515 c -1.6408,-3.06587 -3.58847,-4.0818 -6.56993,-3.42696 -3.22236,0.70775 -3.25123,0.76424 -1.67809,3.28324 0.86204,1.38037 2.1748,1.85148 5.15912,1.85148 3.59187,0 3.90903,-0.17534 3.0889,-1.70776 z"
           style="fill:#2932c3" /><path
           sodipodi:nodetypes="sscss"
           inkscape:connector-curvature="0"
           id="path5119"
           d="m 40.480892,26.052451 c -1.39697,-2.26035 5.70977,-9.628619 12.73515,-13.203816 l 4.00326,-2.037245 -3.97125,4.317037 c -6.70716,7.291184 -12.13963,11.939394 -12.76716,10.924024 z"
           style="fill:#13b651" /><path
           inkscape:connector-curvature="0"
           id="path5117"
           d="m 153.68754,229.48268 c 0.76895,-1.06011 3.82775,-4.81119 6.79734,-8.33574 6.66607,-7.91184 7.16407,-9.60448 4.1609,-14.14257 -3.59093,-5.42626 -11.86659,-14.11557 -14.97403,-15.72249 -3.81586,-1.97325 -8.93243,-1.15329 -13.88447,2.22507 -2.20173,1.50207 -5.63454,3.85136 -7.62845,5.22065 -4.10014,2.81572 -5.22928,3.06851 -5.22928,1.17074 0,-2.93067 15.80865,-14.49625 19.84342,-14.5174 5.60126,-0.0294 14.13547,7.50125 22.56596,19.91229 4.66524,6.868 5.23881,8.20014 4.6618,10.82725 -0.83815,3.8161 -6.07497,9.02545 -12.60911,12.543 -4.4105,2.37432 -4.91264,2.48538 -3.70408,0.8192 z m 30.01165,-67.39936 c -4.79645,-1.13595 -4.65551,-1.87639 0.35798,-1.88075 6.71131,-0.006 61.31283,-2.65337 68.60524,-3.32654 7.43558,-0.68639 9.65765,-1.97993 8.83988,-5.14601 -1.28524,-4.97589 -26.55795,-35.10313 -35.4322,-42.23823 l -3.58037,-2.8787 -56.7765,-0.51859 c -37.07684,-0.33866 -57.11008,-0.85218 -57.73793,-1.48004 -1.67926,-1.67925 99.146,-3.09378 111.84594,-1.56913 4.82261,0.57896 5.51214,1.02139 13.42415,8.61346 12.33596,11.83712 24.24231,25.55751 27.52806,31.7222 3.6264,6.80384 3.84961,11.88616 0.68366,15.56681 l -2.21357,2.57341 -16.66065,0.67269 c -21.73673,0.87765 -54.97454,0.81523 -58.88369,-0.11058 z m 29.37677,-78.668809 c -0.36774,-2.50657 -0.66862,-32.60047 -0.66862,-66.87534 l 0,-62.31796 2.42716,0 2.42716,0 -0.54469,7.22347 c -0.29959,3.97291 -0.8122,31.3405304 -1.13915,60.81694 -0.32695,29.47641 -0.87318,56.31975 -1.21385,59.65187 l -0.61939,6.05839 -0.66862,-4.55737 z M 25.721582,75.156051 c -13.65393,-17.59469 -16.6760101,-24.22059 -14.67377,-32.17217 2.7462,-10.90619 9.4786,-14.11391 23.53075,-11.21148 4.63054,0.95642 6.31391,0.88756 11.39381,-0.46603 7.35685,-1.96033 10.09318,-1.99176 13.64174,-0.15673 3.66568,1.8956 8.32388,8.44434 8.32388,11.70215 0,4.03349 -1.60631,4.07449 -3.63759,0.0928 -2.41218,-4.72824 -7.90127,-9.49827 -10.9301,-9.49827 -1.31233,0 -5.36668,0.90534 -9.00968,2.01187 -5.85394,1.77807 -7.23115,1.88639 -11.85155,0.93206 -13.08653,-2.70298 -18.63058,-0.4433 -18.63058,7.59358 0,2.51467 0.84872,5.69404 2.19684,8.22951 2.19843,4.13467 12.88923,19.0652 17.49031,24.42656 2.39356,2.78906 2.49395,2.81518 4.86053,1.26454 2.83413,-1.857 5.53871,-2.01856 8.00521,-0.47821 1.4825,0.92584 2.32207,0.68374 5.1749,-1.49222 1.87291,-1.42854 3.56466,-2.43799 3.75943,-2.24322 0.54544,0.54545 -0.59055,1.8538 -4.94074,5.69041 -3.93686,3.47207 -4.038,3.50259 -6.59765,1.99056 -2.39805,-1.41656 -2.82498,-1.41896 -5.50918,-0.0309 -5.04992,2.61142 -6.21398,2.03987 -12.59656,-6.18484 z m 136.820538,-1.11099 c -0.51264,-0.2021 -2.60977,-0.65883 -4.66031,-1.01497 -3.40946,-0.59215 -3.54218,-0.71815 -1.55213,-1.4736 2.72278,-1.03361 34.19694,-1.55168 35.18678,-0.57917 0.40002,0.39301 0.21537,1.22651 -0.41032,1.85221 -1.07479,1.07478 -26.20811,2.14432 -28.56402,1.21553 z m -70.377598,-9.6077 c -0.004,-0.38448 -0.45438,-3.42533 -1.00111,-6.75744 -1.23525,-7.52823 -1.79417,-92.45337 -0.65872,-100.08786 1.64727,-11.07577 4.19238,-13.09503 18.461868,-14.64738 10.94306,-1.19048 84.28222,-0.59079 89.45425,0.73146 1.79112,0.45791 3.37457,1.44502 3.51878,2.19359 0.22723,1.17946 -6.30027,1.36103 -48.92754,1.36103 -45.54017,0 -49.51969,0.1273 -53.636878,1.71578 -6.22023,2.39986 -7.57566,5.29154 -7.49664,15.99337 0.0341,4.6137 0.25934,29.0453304 0.50061,54.29252 0.24127,25.24718 0.29327,45.90397 0.11555,45.90397 -0.17772,0 -0.3263,-0.31457 -0.33017,-0.69904 z"
           style="fill:#5a5a5c" /></g></g></g></svg>