<?xml version="1.0" encoding="UTF-8" standalone="no"?>
<!-- Generator: Adobe Illustrator 13.0.0, SVG Export Plug-In . SVG Version: 6.00 Build 14948)  -->

<svg
   xmlns:dc="http://purl.org/dc/elements/1.1/"
   xmlns:cc="http://creativecommons.org/ns#"
   xmlns:rdf="http://www.w3.org/1999/02/22-rdf-syntax-ns#"
   xmlns:svg="http://www.w3.org/2000/svg"
   xmlns="http://www.w3.org/2000/svg"
   xmlns:sodipodi="http://sodipodi.sourceforge.net/DTD/sodipodi-0.dtd"
   xmlns:inkscape="http://www.inkscape.org/namespaces/inkscape"
   version="1.1"
   id="Layer_1"
   x="0px"
   y="0px"
   width="187.08702"
   height="48.787067"
   viewBox="-0.57 -0.5 187.08702 48.787067"
   enable-background="new -0.57 -0.5 568 93.173"
   xml:space="preserve"
   inkscape:version="0.91 r13725"
   sodipodi:docname="logoconsole.svg"><metadata
     id="metadata4191"><rdf:RDF><cc:Work
         rdf:about=""><dc:format>image/svg+xml</dc:format><dc:type
           rdf:resource="http://purl.org/dc/dcmitype/StillImage" /><dc:title></dc:title></cc:Work></rdf:RDF></metadata><defs
     id="defs4189"><linearGradient
       y2="92.500504"
       x2="176.729"
       y1="0.00048828131"
       x1="176.729"
       gradientUnits="userSpaceOnUse"
       id="SVGID_1_"><stop
         id="stop4144"
         style="stop-color:#FFFFFF"
         offset="0" /><stop
         id="stop4146"
         style="stop-color:#CCCCCC"
         offset="1" /></linearGradient></defs><sodipodi:namedview
     pagecolor="#ffffff"
     bordercolor="#666666"
     borderopacity="1"
     objecttolerance="10"
     gridtolerance="10"
     guidetolerance="10"
     inkscape:pageopacity="0"
     inkscape:pageshadow="2"
     inkscape:window-width="1680"
     inkscape:window-height="975"
     id="namedview4187"
     showgrid="false"
     inkscape:zoom="2.3318786"
     inkscape:cx="96.659153"
     inkscape:cy="-64.56928"
     inkscape:window-x="1671"
     inkscape:window-y="-9"
     inkscape:window-maximized="1"
     inkscape:current-layer="layer2"
     fit-margin-top="0"
     fit-margin-left="0"
     fit-margin-right="0"
     fit-margin-bottom="0" /><g
     inkscape:groupmode="layer"
     id="layer1"
     inkscape:label="Layer 1"
     transform="translate(-161.40324,-62.498793)" /><g
     inkscape:groupmode="layer"
     id="layer2"
     inkscape:label="Layer 2"
     transform="translate(-161.40324,-62.498793)"><path
       inkscape:connector-curvature="0"
       id="path4202-8"
       d="m 170.58324,110.76497 0.726,-9.594 3.973,0 0.799,9.594 9.804,0 -6.145,-48.530006 -12.668,0 -6.239,48.530006 9.75,0 0,0 z m 4.125,-17.601996 -2.825,0 1.432,-18.85901 1.393,18.85901 0,0 z m 27.175,-30.92801 -13.658,0 0,48.530006 9.343,0 0,-27.638006 3.865,27.638006 6.066,0 3.712,-27.487006 0,27.487006 9.343,0 0,-48.530006 -13.678,0 -2.541,21.436 -2.452,-21.436 0,0 z m 20.372,5.906 c -0.006,3.345 -0.044,6.688 -0.018,10.033 0.019,0.547 0.051,1.094 0.083,1.487 0.07,0.828 0.136,1.081 0.274,1.618 0.141,0.531 0.381,1.195 0.758,1.783 0.177,0.281 0.375,0.548 0.671,0.871 0.296,0.323 0.688,0.702 1.103,1.055 0.853,0.737 1.782,1.307 2.715,1.799 2.039,1.127 4.063,2.24 6.116,3.382 0.274,0.175 0.567,0.32 0.856,0.603 0.705,0.67801 0.704,1.46501 0.693,2.21801 l 0,0 0.04,1.048 0.015,6.570996 0,0 c 0.006,0.48 -0.039,0.954 -0.271,1.463 -0.079,0.149 -0.187,0.286 -0.317,0.397 -0.414,0.345 -0.935,0.436 -1.451,0.229 -0.159,-0.066 -0.305,-0.163 -0.429,-0.281 -0.519,-0.501 -0.459,-1.211 -0.534,-1.819 l 0,0 -0.004,-9.889006 -10.329,0 0.011,11.073006 0,0 c 0.007,1.359 0.017,2.647 0.311,3.979 0.158,0.686 0.411,1.4 0.794,2.038 0.383,0.64 0.895,1.204 1.496,1.645 0.6,0.44 1.288,0.757 1.832,0.944 0.544,0.188 0.944,0.248 1.345,0.296 0.4,0.048 0.799,0.101 1.2,0.101 l 0,0 10.494,0 0,0 c 0.475,0 0.951,0.021 1.538,-0.141 0.587,-0.161 1.282,-0.446 1.883,-0.828 0.601,-0.383 1.108,-0.86 1.458,-1.373 0.35,-0.512 0.542,-1.059 0.707,-1.553 0.166,-0.492 0.304,-0.933 0.405,-1.52 0.102,-0.587 0.166,-1.32 0.201,-2.055 0.036,-0.734 0.018,-1.469 0.018,-2.203 l 0,0 0,-7.778996 0,0 c 0,-0.146 0,-0.293 -0.003,-0.621 -0.004,-0.329 -0.01,-0.84 -0.033,-1.42401 -0.022,-0.584 -0.062,-1.241 -0.098,-1.665 -0.036,-0.424 -0.067,-0.616 -0.106,-0.806 -0.039,-0.19 -0.086,-0.379 -0.14,-0.566 -0.053,-0.187 -0.113,-0.372 -0.262,-0.694 -0.149,-0.321 -0.389,-0.779 -0.677,-1.204 -0.288,-0.426 -0.625,-0.819 -1.001,-1.169 -0.376,-0.35 -0.792,-0.656 -1.254,-0.973 -0.956,-0.649 -2.023,-1.314 -3.051,-1.884 l 0,0 -4.385,-2.393 0,0 c -0.264,-0.144 -0.525,-0.295 -0.776,-0.46 -0.251,-0.166 -0.495,-0.343 -0.641,-0.454 -0.263,-0.201 -0.264,-0.227 -0.375,-0.344 -0.043,-0.05 -0.085,-0.1 -0.158,-0.219 -0.165,-0.263 -0.364,-0.726 -0.401,-1.117 -0.026,-0.21 -0.004,-0.422 -0.004,-0.634 0.002,-1.527 -0.008,-3.104 0.007,-4.582 -0.009,-0.344 0,-0.737 0.127,-1.104 0.059,-0.181 0.136,-0.355 0.231,-0.503 0.498,-0.665 1.094,-0.762 1.75,-0.486 0.149,0.077 0.286,0.19 0.403,0.321 0.117,0.13 0.212,0.279 0.28,0.439 0.068,0.16 0.109,0.331 0.136,0.568 0.055,0.488 0.061,1.158 0.057,1.748 l 0,0 0,5.771 10.374,0 0,0 c -0.011,-2.98 0.036,-5.958 -0.032,-8.94 -0.03,-0.69 -0.08,-1.38 -0.122,-1.835 -0.042,-0.454 -0.077,-0.673 -0.121,-0.891 -0.044,-0.218 -0.098,-0.433 -0.159,-0.646 -0.061,-0.214 -0.13,-0.426 -0.292,-0.789 -0.162,-0.363 -0.418,-0.877 -0.754,-1.335 -0.335,-0.458 -0.75,-0.861 -1.218,-1.186 -0.468,-0.325 -0.987,-0.574 -1.433,-0.734 -0.878,-0.301 -1.546,-0.352 -2.307,-0.449 -0.374,-0.04 -0.75,-0.077 -1.125,-0.074 l 0,0 -8.979,0.072 0,0 c -1.031,0.033 -2.051,0.161 -3.125,0.462 -0.326,0.1 -0.634,0.226 -0.926,0.38 -0.588,0.321 -1.077,0.672 -1.584,1.295 -0.255,0.317 -0.526,0.722 -0.748,1.151 -0.449,0.878 -0.717,1.837 -0.739,2.782 l 0,0 z m 25.371,-5.906 0,7.828 5.174,0 0,40.702006 10.373,0 0,-40.702006 5.135,0 0,-7.828 -20.682,0 0,0 z m 34.514,0 -11.045,0 0,48.530006 10.357,0 0,-19.344006 0,0 c 0.68,0.025 1.357,-0.058 2.045,0.15501 0.146,0.052 0.281,0.13 0.398,0.23 0.479,0.41 0.441,0.935 0.516,1.431 0.09,0.996 0.02,1.996 0.043,2.993 l 0,0 0,14.533996 10.359,0 -0.01,-15.170996 0,0 c -0.018,-1.495 -0.119,-2.977 -0.445,-4.47301 -0.092,-0.338 -0.213,-0.675 -0.363,-1.009 -0.229,-0.531 -0.539,-1.028 -0.916,-1.467 -0.379,-0.439 -0.824,-0.82 -1.314,-1.126 -0.492,-0.305 -1.031,-0.535 -1.592,-0.68 0.27,-0.067 0.537,-0.151 0.803,-0.255 0.533,-0.203 1.033,-0.491 1.475,-0.853 0.441,-0.361 0.824,-0.794 1.127,-1.278 0.303,-0.484 0.525,-1.016 0.66,-1.57 0.111,-0.397 0.203,-0.796 0.277,-1.197 0.244,-1.635 0.332,-3.274 0.299,-4.917 l 0,0 0,-5.081 0,0 c 0.031,-1.003 -0.018,-2.013 -0.145,-3.017 -0.062,-0.5 -0.145,-0.998 -0.234,-1.411 -0.088,-0.413 -0.184,-0.742 -0.305,-1.061 -0.123,-0.318 -0.273,-0.626 -0.449,-0.919 -0.174,-0.293 -0.375,-0.571 -0.598,-0.831 -0.346,-0.371 -0.738,-0.7 -1.164,-0.976 -0.885,-0.573 -1.877,-0.894 -2.855,-0.977 -2.303,-0.267 -4.616,-0.191 -6.924,-0.26 l 0,0 z m -0.688,7.891 c 0.488,0.004 0.975,0.01 1.465,0.012 0.234,0.021 0.475,0.08 0.707,0.185 0.674,0.444 0.707,1.007 0.768,1.551 0.045,0.611 0.043,1.226 0.062,1.839 -0.008,2.126 0.027,4.251 -0.023,6.377 -0.006,0.379 -0.039,0.758 -0.094,1.136 -0.018,0.177 -0.068,0.351 -0.152,0.508 -0.082,0.158 -0.197,0.299 -0.334,0.412 -0.312,0.283 -0.73,0.297 -1.105,0.342 -0.43,0.04 -0.861,0.045 -1.293,0.015 l 0,0 0,-12.377 -10e-4,0 z m 25.244,40.639006 0.725,-9.594 3.973,0 0.801,9.594 9.803,0 -6.145,-48.530006 -12.668,0 -6.238,48.530006 9.749,0 0,0 z m 4.125,-17.601996 -2.826,0 1.432,-18.85901 1.394,18.85901 0,0 z m 35.844,-27.93301 c -0.355,-0.57 -0.814,-1.077 -1.348,-1.483 -0.534,-0.406 -1.143,-0.712 -1.594,-0.893 -0.453,-0.181 -0.75,-0.239 -1.045,-0.292 -0.297,-0.052 -0.594,-0.099 -0.891,-0.133 -0.297,-0.034 -0.596,-0.057 -1.305,-0.087 -0.711,-0.031 -1.83,-0.101 -2.951,-0.102 l 0,0 -13.43,-0.005 0,48.530006 16.463,-0.026 0,0 c 0.41,-10e-4 0.811,-0.117 1.213,-0.188 0.85,-0.152 1.596,-0.314 2.395,-0.676 0.42,-0.188 0.871,-0.439 1.281,-0.749 0.41,-0.31 0.779,-0.679 1.127,-1.248 0.35,-0.568 0.678,-1.337 0.918,-2.276 0.238,-0.938 0.424,-2.049 0.422,-3.16 l 0,0 -0.072,-33.124006 0,0 c -0.002,-0.756 -0.191,-1.503 -0.385,-2.194 -0.194,-0.691 -0.443,-1.324 -0.798,-1.894 l 0,0 z m -11.553,4.938 c 0.223,0 0.443,-0.017 0.656,0.009 0.215,0.026 0.42,0.076 0.59,0.129 0.168,0.053 0.301,0.111 0.42,0.19 0.119,0.08 0.223,0.181 0.307,0.297 0.357,0.539 0.314,1.304 0.346,1.983 l 0,0 0,27.949006 0,0 c 0,0.206 -0.002,0.413 -0.029,0.613 -0.031,0.201 -0.08,0.395 -0.145,0.564 -0.064,0.169 -0.143,0.313 -0.248,0.437 -0.105,0.122 -0.236,0.224 -0.379,0.305 -0.143,0.081 -0.293,0.179 -0.459,0.179 l 0,0 -1.695,0 0,-32.655006 0.636,0 0,0 z"
       style="clip-rule:evenodd;fill-rule:evenodd;fill:#ced2df;fill-opacity:1" /></g></svg>