<?xml version="1.0" encoding="UTF-8" standalone="no"?>
<!-- Generator: Adobe Illustrator 13.0.0, SVG Export Plug-In . SVG Version: 6.00 Build 14948)  -->

<svg
   xmlns:dc="http://purl.org/dc/elements/1.1/"
   xmlns:cc="http://creativecommons.org/ns#"
   xmlns:rdf="http://www.w3.org/1999/02/22-rdf-syntax-ns#"
   xmlns:svg="http://www.w3.org/2000/svg"
   xmlns="http://www.w3.org/2000/svg"
   xmlns:sodipodi="http://sodipodi.sourceforge.net/DTD/sodipodi-0.dtd"
   xmlns:inkscape="http://www.inkscape.org/namespaces/inkscape"
   version="1.1"
   id="Layer_1"
   x="0px"
   y="0px"
   width="409.44717"
   height="105.72087"
   viewBox="-0.57 -0.5 409.44717 105.72087"
   enable-background="new -0.57 -0.5 568 93.173"
   xml:space="preserve"
   inkscape:version="0.91 r13725"
   sodipodi:docname="logo.svg"><metadata
     id="metadata4191"><rdf:RDF><cc:Work
         rdf:about=""><dc:format>image/svg+xml</dc:format><dc:type
           rdf:resource="http://purl.org/dc/dcmitype/StillImage" /><dc:title /></cc:Work></rdf:RDF></metadata><defs
     id="defs4189"><linearGradient
       y2="92.500504"
       x2="176.729"
       y1="0.00048828131"
       x1="176.729"
       gradientUnits="userSpaceOnUse"
       id="SVGID_1_"><stop
         id="stop4144"
         style="stop-color:#FFFFFF"
         offset="0" /><stop
         id="stop4146"
         style="stop-color:#CCCCCC"
         offset="1" /></linearGradient></defs><sodipodi:namedview
     pagecolor="#ffffff"
     bordercolor="#666666"
     borderopacity="1"
     objecttolerance="10"
     gridtolerance="10"
     guidetolerance="10"
     inkscape:pageopacity="0"
     inkscape:pageshadow="2"
     inkscape:window-width="1680"
     inkscape:window-height="975"
     id="namedview4187"
     showgrid="false"
     inkscape:zoom="2.3318786"
     inkscape:cx="205.52755"
     inkscape:cy="84.288061"
     inkscape:window-x="1671"
     inkscape:window-y="-9"
     inkscape:window-maximized="1"
     inkscape:current-layer="layer2"
     fit-margin-top="0"
     fit-margin-left="0"
     fit-margin-right="0"
     fit-margin-bottom="0" /><g
     inkscape:groupmode="layer"
     id="layer1"
     inkscape:label="Layer 1"
     transform="translate(-52.534839,-154.42233)" /><g
     inkscape:groupmode="layer"
     id="layer2"
     inkscape:label="Layer 2"
     transform="translate(-52.534839,-154.42233)"><path
       style="fill:#000000"
       d="m 380.42511,258.35833 0.18248,-1.28488 1.28488,-0.18249 1.28487,-0.18248 0,-11.09586 0,-11.09588 -1.42764,0 -1.42764,0 0,-1.42765 0,-1.42763 7.62075,0 7.62074,0 0.9451,1.04431 0.94509,1.04432 0,8.00407 0,8.00407 -1.04431,0.94509 -1.04432,0.9451 -4.38071,0 -4.38073,0 0,2.50315 0,2.50315 1.14212,0.29866 1.14212,0.29868 0,1.19557 0,1.19557 -4.32264,0 -4.32264,0 0.18248,-1.28487 z m 13.47711,-16.56063 -0.16034,-6.99544 -3.56911,-0.17001 -3.5691,-0.17001 0,7.16544 0,7.16546 3.72945,0 3.72944,0 -0.16034,-6.99544 z m -340.795276,8.7086 -1.142105,-1.1421 0,-13.09285 0,-13.09284 1.504647,-1.18356 1.504648,-1.18356 7.346717,0 7.346717,0 0,3.99739 0,3.9974 -1.713163,0 -1.713173,0 0,-2.56976 0,-2.56975 -4.784051,0 -4.784051,0 -0.653032,0.78684 -0.653021,0.78686 0.154808,11.63362 0.154808,11.63362 5.282275,0.16419 5.282264,0.16419 0,-2.62911 0,-2.62911 1.570409,0.1807 1.570398,0.18069 0.168865,3.85463 0.168853,3.85463 -7.735348,0 -7.735349,0 -1.142116,-1.14212 z m 19.914126,0.19776 -0.783741,-0.94435 0,-8.23858 0,-8.23857 1.108492,-0.81056 1.108493,-0.81054 5.512908,0 5.512909,0 0.945083,1.04431 0.945094,1.04432 0,8.05178 0,8.0518 -0.89737,0.89737 -0.897382,0.89738 -5.885372,0 -5.885372,0 -0.783742,-0.94436 z m 10.797713,-8.90636 -0.16034,-6.99544 -3.997394,0 -3.997384,0 -0.163167,6.24492 c -0.08975,3.4347 -0.03355,6.58265 0.124847,6.99543 l 0.287993,0.75053 4.032898,0 4.032888,0 -0.160341,-6.99544 z m 5.835746,8.42307 0,-1.42763 1.142116,0 1.142116,0 0,-12.56324 0,-12.56323 -1.142116,0 -1.142116,0 0,-1.42764 0,-1.42764 2.855289,0 2.855279,0 0,13.95116 0,13.95116 1.284869,0.18248 1.284881,0.18248 0.182481,1.28487 0.182481,1.28488 -4.32264,0 -4.32264,0 0,-1.42765 z m 11.348281,0.48329 -0.78374,-0.94435 0,-8.23858 0,-8.23857 1.10849,-0.81056 1.10849,-0.81054 5.51291,0 5.51291,0 0.94509,1.04431 0.9451,1.04432 0,8.05178 0,8.0518 -0.89738,0.89737 -0.89737,0.89738 -5.88538,0 -5.88538,0 -0.78374,-0.94436 z m 10.79772,-8.90636 -0.16034,-6.99544 -3.99739,0 -3.9974,0 -0.16315,6.24492 c -0.0897,3.4347 -0.0335,6.58265 0.12483,6.99543 l 0.28801,0.75053 4.03289,0 4.03289,0 -0.16034,-6.99544 z m 8.80524,9.16545 -0.68527,-0.68527 0,-7.88057 0,-7.88057 -1.42763,0 -1.42765,0 0,-1.42765 0,-1.42763 3.14081,0 3.14081,0 0,8.56583 0,8.56585 3.71186,0 3.71187,0 0,-7.1382 0,-7.1382 -1.14212,0 -1.1421,0 0,-1.42765 0,-1.42763 2.85528,0 2.85527,0 0,8.52612 0,8.52613 1.28488,0.18248 1.28487,0.18248 0.18248,1.28487 0.18249,1.28488 -7.92029,0 -7.92029,0 -0.68527,-0.68527 z m 17.01747,-0.74238 0,-1.42763 1.14212,0 1.1421,0 0,-7.1382 0,-7.1382 -1.1421,0 -1.14212,0 0,-1.42765 0,-1.42763 5.66977,0 5.66977,0 0.89738,0.89737 0.89737,0.89738 0,2.52895 0,2.52897 -1.39146,0 -1.39146,0 -0.17894,-1.85594 -0.17895,-1.85593 -2.14146,-0.17724 -2.14146,-0.17722 0,7.13294 0,7.13297 1.28488,0.18248 1.28488,0.18248 0.18248,1.28487 0.18248,1.28488 -4.32264,0 -4.32264,0 0,-1.42765 z m 25.80057,0.14277 0.18248,-1.28487 1.28488,-0.18248 1.28488,-0.18248 0,-12.52353 0,-12.52351 -1.42765,0 -1.42764,0 0,-1.42764 0,-1.42764 8.5918,0 8.59179,0 1.40169,1.40169 1.40168,1.40167 0,5.1386 0,5.13859 -0.66192,1.45275 -0.66192,1.45276 -2.05059,0.56963 -2.0506,0.56962 -3.85463,0.003 -3.85463,0.003 0,5.42503 0,5.42504 1.42765,0 1.42764,0 0,1.42763 0,1.42765 -4.8937,0 -4.8937,0 0.18249,-1.28488 z m 15.601,-21.27183 0,-5.13951 -4.42569,-0.16679 -4.42569,-0.16678 0,5.47308 0,5.47307 4.42569,-0.16679 4.42569,-0.16678 0,-5.1395 z m 5.92324,21.61235 -0.78374,-0.94435 0,-8.23858 0,-8.23857 1.10849,-0.81056 1.1085,-0.81054 5.03036,0 5.03036,0 1.1421,1.1421 1.14212,1.14212 0,4.56845 0,4.56844 -5.71056,0 -5.71057,0 0,2.85529 0,2.85528 3.95768,0 3.95768,0 0.18248,-1.28488 0.18248,-1.28488 1.42763,0 1.42765,0 0.18681,1.3179 0.18681,1.31789 -0.9138,1.39462 -0.9138,1.39463 -5.62747,0 -5.62747,0 -0.78374,-0.94436 z m 10.24038,-13.18928 -0.17406,-2.71252 -3.71186,0 -3.71187,0 -0.17404,2.71252 -0.17406,2.71251 4.05997,0 4.05996,0 -0.17404,-2.71251 z m 5.82203,12.70599 0,-1.42763 1.14211,0 1.14212,0 0,-7.1382 0,-7.1382 -1.14212,0 -1.14211,0 0,-1.42765 0,-1.42763 5.66977,0 5.66978,0 0.89737,0.89737 0.89737,0.89738 0,2.52895 0,2.52897 -1.39146,0 -1.39146,0 -0.17894,-1.85594 -0.17895,-1.85593 -2.14146,-0.17724 -2.14145,-0.17722 0,7.13294 0,7.13297 1.28487,0.18248 1.28488,0.18248 0.18248,1.28487 0.18248,1.28488 -4.32264,0 -4.32264,0 0,-1.42765 z m 14.2764,-1.42763 0,-2.85528 1.71317,0 1.71317,0 0,1.42763 0,1.42765 3.74316,0 3.74314,0 -0.17404,-2.71251 -0.17406,-2.71253 -3.98454,-0.17181 -3.98452,-0.17181 -1.01221,-0.91605 -1.01221,-0.91604 0,-3.49628 0,-3.4963 0.88896,-1.26918 0.88898,-1.26917 5.99354,0 5.99355,0 -0.17261,2.99804 -0.1726,2.99804 -1.42765,0 -1.42763,0 -0.18333,-1.59768 -0.18333,-1.5977 -3.24301,0.17005 -3.243,0.17005 -0.17406,2.71252 -0.17406,2.71251 4.06623,0 4.06622,0 1.10457,0.59116 1.10458,0.59115 0,4.43413 0,4.43415 -0.68527,0.68527 -0.68527,0.68527 -6.45294,0 -6.45293,0 0,-2.85528 z m 18.77201,1.91092 -0.78374,-0.94435 0,-8.23858 0,-8.23857 1.10849,-0.81056 1.1085,-0.81054 5.51291,0 5.5129,0 0.94509,1.04431 0.94509,1.04432 0,8.05178 0,8.0518 -0.89737,0.89737 -0.89738,0.89738 -5.88537,0 -5.88537,0 -0.78375,-0.94436 z m 10.79772,-8.90636 -0.16034,-6.99544 -3.9974,0 -3.99738,0 -0.16317,6.24492 c -0.0897,3.4347 -0.0335,6.58265 0.12485,6.99543 l 0.288,0.75053 4.03289,0 4.03289,0 -0.16034,-6.99544 z m 5.83575,8.42307 0,-1.42763 1.14211,0 1.14211,0 0,-7.1382 0,-7.1382 -1.14211,0 -1.14211,0 0,-1.42765 0,-1.42763 7.33522,0 7.33522,0 0.94509,1.04431 0.9451,1.04432 0,7.4818 0,7.48182 1.28487,0.18248 1.28488,0.18248 0.18248,1.28487 0.18248,1.28488 -4.32264,0 -4.32264,0 0,-1.42765 0,-1.42763 1.15969,0 1.15969,0 -0.16034,-6.99544 -0.16034,-6.99544 -3.5691,-0.17001 -3.5691,-0.17001 0,7.16544 0,7.16546 1.1421,0 1.14212,0 0,1.42763 0,1.42765 -3.99739,0 -3.99739,0 0,-1.42765 z m 21.81434,0.74238 -0.68527,-0.68527 0,-4.09878 0,-4.09879 0.94379,-0.78375 0.94379,-0.78374 4.79561,-0.20254 4.79562,-0.20256 -0.1716,-2.65272 -0.17162,-2.65274 -3.57788,-0.17023 -3.57787,-0.17024 -0.34814,1.74063 -0.34813,1.74065 -1.35625,0 -1.35626,0 0,-2.24343 0,-2.24343 0.89737,-0.89738 0.89738,-0.89737 4.98956,0 4.98958,0 1.10849,0.80932 1.10849,0.80934 0.18701,7.75651 0.18701,7.75651 1.09786,0 1.09787,0 0,1.42763 0,1.42765 -7.88058,0 -7.88056,0 -0.68527,-0.68527 z m 10.73585,-5.05139 0,-2.88137 -3.85463,0.16886 -3.85463,0.16885 -0.17405,2.71253 -0.17405,2.71251 4.02868,0 4.02868,0 0,-2.88138 z m 6.28162,4.30901 0,-1.42763 1.14211,0 1.14211,0 0,-12.56324 0,-12.56323 -1.14211,0 -1.14211,0 0,-1.42764 0,-1.42764 2.85528,0 2.85528,0 0,13.95116 0,13.95116 1.28488,0.18248 1.28488,0.18248 0.18248,1.28487 0.18247,1.28488 -4.32263,0 -4.32264,0 0,-1.42765 z m 23.98435,0.28553 -1.14211,-1.1421 0,-13.09285 0,-13.09284 1.50466,-1.18356 1.50464,-1.18356 7.34672,0 7.34672,0 0,3.99739 0,3.9974 -1.71318,0 -1.71316,0 0,-2.56976 0,-2.56975 -4.78406,0 -4.78404,0 -0.65303,0.78684 -0.65302,0.78686 0.15481,11.63362 0.1548,11.63362 5.28228,0.16419 5.28226,0.16419 0,-2.62911 0,-2.62911 1.57041,0.1807 1.5704,0.18069 0.16885,3.85463 0.16886,3.85463 -7.73535,0 -7.73534,0 -1.14212,-1.14212 z m 19.91412,0.19776 -0.78374,-0.94435 0,-8.23858 0,-8.23857 1.10849,-0.81056 1.10849,-0.81054 5.51291,0 5.51291,0 0.94509,1.04431 0.9451,1.04432 0,8.05178 0,8.0518 -0.89738,0.89737 -0.89737,0.89738 -5.88538,0 -5.88538,0 -0.78374,-0.94436 z m 10.79772,-8.90636 -0.16034,-6.99544 -3.99739,0 -3.9974,0 -0.16315,6.24492 c -0.0897,3.4347 -0.0335,6.58265 0.12483,6.99543 l 0.28801,0.75053 4.03289,0 4.03289,0 -0.16034,-6.99544 z m 5.83575,8.42307 0,-1.42763 1.14211,0 1.14211,0 0,-7.1382 0,-7.1382 -1.14211,0 -1.14211,0 0,-1.42765 0,-1.42763 12.76025,0 12.76025,0 0.9451,1.04431 0.94509,1.04432 0,7.4818 0,7.48182 1.28488,0.18248 1.28487,0.18248 0.18248,1.28487 0.18248,1.28488 -4.32264,0 -4.32263,0 0,-1.42765 0,-1.42763 1.15968,0 1.1597,0 -0.16034,-6.99544 -0.16035,-6.99544 -3.5691,-0.17001 -3.5691,-0.17001 0,7.12573 0,7.12574 1.28488,0.18248 1.28487,0.18248 0.18248,1.28487 0.18248,1.28488 -4.32262,0 -4.32264,0 0,-1.42765 0,-1.42763 1.1421,0 1.14212,0 0,-7.1382 0,-7.1382 -3.71187,0 -3.71186,0 0,7.09848 0,7.09849 1.28488,0.18248 1.28488,0.18248 0.18248,1.28487 0.18248,1.28488 -4.32264,0 -4.32264,0 0,-1.42765 z m 53.79348,0.74238 -0.68527,-0.68527 0,-7.88057 0,-7.88057 -1.42764,0 -1.42764,0 0,-1.42765 0,-1.42763 3.14081,0 3.1408,0 0,8.56583 0,8.56585 3.71187,0 3.71187,0 0,-7.1382 0,-7.1382 -1.14212,0 -1.14211,0 0,-1.42765 0,-1.42763 2.85528,0 2.85528,0 0,8.52612 0,8.52613 1.28488,0.18248 1.28487,0.18248 0.18248,1.28487 0.18248,1.28488 -7.92028,0 -7.92029,0 -0.68527,-0.68527 z m 19.62801,-0.21211 -0.89737,-0.89737 0,-7.66847 0,-7.66846 -1.14211,0 -1.14212,0 0,-1.42765 0,-1.42763 1.14212,0 1.14211,0 0,-3.14081 0,-3.14081 1.71316,0 1.71318,0 0,3.14081 0,3.14081 1.42763,0 1.42765,0 0,1.42763 0,1.42765 -1.42765,0 -1.42763,0 0,7.10026 0,7.10027 1.5704,0.1807 1.57041,0.1807 0.18248,1.28487 0.18248,1.28488 -2.56868,0 -2.56869,0 -0.89737,-0.89738 z m 8.73774,-0.047 -0.78374,-0.94434 0,-8.23858 0,-8.23858 1.10849,-0.81056 1.10849,-0.81054 5.03036,0 5.03036,0 1.14211,1.14211 1.14212,1.14212 0,4.56844 0,4.56845 -5.71057,0 -5.71056,0 0,2.85528 0,2.85528 3.95768,0 3.95768,0 0.18248,-1.28487 0.18248,-1.28488 1.42764,0 1.42764,0 0.1868,1.3179 0.18681,1.31789 -0.91379,1.39462 -0.9138,1.39462 -5.62747,0 -5.62747,0 -0.78374,-0.94436 z m 10.24037,-13.18928 -0.17405,-2.71251 -3.71186,0 -3.71187,0 -0.17405,2.71251 -0.17405,2.71252 4.05997,0 4.05996,0 -0.17405,-2.71252 z m 5.82204,12.70601 0,-1.42765 1.14212,0 1.1421,0 0,-7.1382 0,-7.1382 -1.1421,0 -1.14212,0 0,-1.42764 0,-1.42764 5.66977,0 5.66977,0 0.89738,0.89738 0.89737,0.89737 0,2.52897 0,2.52895 -1.39146,0 -1.39146,0 -0.17894,-1.85593 -0.17895,-1.85593 -2.14146,-0.17724 -2.14146,-0.17723 0,7.13295 0,7.13296 1.28488,0.18248 1.28487,0.18248 0.18248,1.28488 0.18248,1.28487 -4.32263,0 -4.32264,0 0,-1.42763 z"
       id="path4984"
       inkscape:connector-curvature="0" /><path
       style="color:#000000;font-style:normal;font-variant:normal;font-weight:normal;font-stretch:normal;font-size:medium;line-height:normal;font-family:sans-serif;text-indent:0;text-align:start;text-decoration:none;text-decoration-line:none;text-decoration-style:solid;text-decoration-color:#000000;letter-spacing:normal;word-spacing:normal;text-transform:none;direction:ltr;block-progression:tb;writing-mode:lr-tb;baseline-shift:baseline;text-anchor:start;white-space:normal;clip-rule:evenodd;display:inline;overflow:visible;visibility:visible;opacity:1;isolation:auto;mix-blend-mode:normal;color-interpolation:sRGB;color-interpolation-filters:linearRGB;solid-color:#000000;solid-opacity:1;fill:#000000;fill-opacity:1;fill-rule:evenodd;stroke:none;stroke-width:1.29999995;stroke-linecap:butt;stroke-linejoin:miter;stroke-miterlimit:4;stroke-dasharray:none;stroke-dashoffset:0;stroke-opacity:1;color-rendering:auto;image-rendering:auto;shape-rendering:auto;text-rendering:auto;enable-background:accumulate"
       d="M 186.43359 -0.41796875 L 176.5332 -0.33789062 L 176.53906 0.9609375 C 176.54606 0.96069768 176.55335 0.95921537 176.56055 0.95898438 L 186.44141 0.88085938 L 186.44141 0.8828125 L 186.44336 0.8828125 L 186.44531 0.8828125 C 186.81202 0.8798125 187.20132 0.9173375 187.60938 0.9609375 L 187.61133 0.9609375 C 188.46351 1.0692275 189.12411 1.1188681 190.01367 1.4238281 C 190.45317 1.5822081 190.97912 1.8353738 191.43555 2.1523438 C 191.89275 2.4698437 192.29932 2.8652869 192.625 3.3105469 C 192.95148 3.7555669 193.21887 4.2879425 193.38672 4.6640625 C 193.55497 5.0410625 193.6148 5.2265956 193.67773 5.4472656 C 193.74113 5.6684956 193.79536 5.888905 193.83984 6.109375 C 193.88494 6.332535 193.91984 6.5366775 193.96484 7.0234375 C 194.00994 7.5122575 194.06314 8.267195 194.0957 9.015625 C 194.1649 12.066135 194.12471 15.125272 194.12891 18.195312 L 183.99023 18.195312 L 183.99023 12.486328 C 183.99024 12.485328 183.99022 12.483422 183.99023 12.482422 C 183.99523 11.824912 183.99123 11.078099 183.92383 10.480469 C 183.88963 10.180549 183.83003 9.9171881 183.72656 9.6738281 C 183.6235 9.4313481 183.48104 9.2081188 183.30469 9.0117188 L 183.30273 9.0097656 C 183.12986 8.8166156 182.9234 8.6406787 182.67383 8.5117188 L 182.65039 8.5 L 182.62695 8.4902344 C 182.17529 8.3002044 181.6764 8.2163906 181.1875 8.3378906 C 180.69861 8.4593806 180.26391 8.7822081 179.92383 9.2363281 L 179.91016 9.2539062 L 179.89844 9.2753906 C 179.75674 9.4961506 179.65443 9.73089 179.57617 9.96875 L 179.57617 9.9707031 C 179.39307 10.501143 179.38976 11.010794 179.40039 11.414062 C 179.38369 13.045075 179.39458 14.776419 179.39258 16.449219 L 179.39258 16.451172 C 179.39258 16.635882 179.36229 16.895197 179.40039 17.216797 C 179.45849 17.814867 179.69898 18.346373 179.9375 18.726562 C 180.0321 18.879814 180.11976 18.988575 180.16992 19.046875 L 180.17969 19.058594 L 180.19141 19.070312 C 180.28211 19.165913 180.37075 19.281931 180.68164 19.519531 L 180.68359 19.519531 C 180.85734 19.651631 181.13138 19.851502 181.42383 20.044922 L 181.42578 20.046875 C 181.72329 20.242435 182.02738 20.417991 182.32812 20.582031 L 182.47266 20.660156 L 187.16016 23.21875 C 188.27313 23.83586 189.43559 24.560255 190.47461 25.265625 C 190.97165 25.606775 191.40234 25.924501 191.7793 26.275391 C 192.15811 26.628011 192.4974 27.024585 192.78711 27.453125 C 193.07713 27.881105 193.33092 28.365036 193.48242 28.691406 C 193.63391 29.019036 193.68254 29.169425 193.73633 29.359375 L 193.73633 29.361328 L 193.73633 29.363281 C 193.79143 29.553791 193.83951 29.74552 193.87891 29.9375 C 193.91821 30.12904 193.94592 30.2973 193.98438 30.75 C 194.02267 31.20165 194.06797 31.923871 194.0918 32.556641 C 194.1168 33.190451 194.12295 33.747505 194.12695 34.109375 C 194.12995 34.467295 194.14946 34.627649 194.13086 34.787109 L 194.13086 35.4375 L 194.13086 43.365234 C 194.13086 44.185324 194.14943 44.986052 194.11133 45.763672 C 194.07353 46.557122 194.00315 47.346629 193.89844 47.949219 L 193.89844 47.951172 C 193.79461 48.554602 193.65689 48.994807 193.47656 49.529297 L 193.47656 49.53125 L 193.47461 49.53125 C 193.29498 50.06907 193.10214 50.604041 192.77539 51.082031 L 192.77539 51.083984 C 192.44839 51.563264 191.95169 52.036066 191.35547 52.416016 C 190.76063 52.794096 190.03991 53.0896 189.45508 53.25 C 188.90855 53.40086 188.47466 53.382813 187.93164 53.382812 L 176.35938 53.382812 C 175.97448 53.382812 175.55988 53.328912 175.11328 53.275391 C 174.68388 53.223991 174.3129 53.169609 173.76562 52.980469 L 173.76367 52.980469 C 173.21798 52.792899 172.50667 52.462437 171.91602 52.029297 C 171.3244 51.595177 170.81715 51.0374 170.43945 50.40625 L 170.43945 50.404297 C 170.06327 49.777667 169.80499 49.054443 169.64258 48.351562 L 169.64258 48.349609 C 169.33717 46.964489 169.32244 45.598625 169.31445 44.101562 L 169.30273 32.542969 L 179.39258 32.542969 L 179.39648 43.449219 L 179.46094 43.449219 C 179.50134 44.016979 179.57987 44.688714 180.18359 45.271484 L 180.18555 45.273438 L 180.1875 45.275391 C 180.37999 45.458571 180.60597 45.609634 180.85938 45.714844 L 180.86328 45.716797 L 180.86719 45.716797 C 181.63764 46.025867 182.5056 45.877498 183.125 45.361328 L 183.12695 45.359375 L 183.13281 45.355469 C 183.3418 45.177019 183.51003 44.963826 183.63477 44.728516 L 183.64453 44.710938 L 183.65234 44.693359 C 183.85165 44.256119 183.8452 43.864216 183.88477 43.460938 L 184.00977 43.460938 L 184.00781 42.810547 C 184.00778 42.808547 184.00977 42.805734 184.00977 42.802734 L 184.00781 42.804688 L 183.99219 35.550781 L 183.94922 34.429688 L 183.94922 34.417969 C 183.94937 34.407669 183.94727 34.393223 183.94727 34.382812 C 183.95847 33.549403 183.93117 32.406534 182.98633 31.496094 C 182.59087 31.109644 182.20117 30.91715 181.93945 30.75 L 181.92383 30.738281 L 181.90625 30.728516 C 179.63916 29.467796 177.40791 28.24238 175.16016 27 L 175.1543 26.994141 L 175.14844 26.990234 C 174.1453 26.461244 173.16682 25.858354 172.27734 25.089844 L 172.27539 25.087891 L 172.27344 25.087891 C 171.83682 24.716501 171.41963 24.312649 171.11523 23.980469 C 170.8118 23.649379 170.62296 23.393348 170.44531 23.111328 L 170.43945 23.109375 L 170.43945 23.107422 C 170.07721 22.542452 169.82881 21.867908 169.68555 21.330078 L 169.68555 21.328125 C 169.68523 21.327125 169.68359 21.325219 169.68359 21.324219 C 169.53263 20.736939 169.47524 20.538537 169.40039 19.654297 L 169.40039 19.652344 C 169.36659 19.237324 169.3331 18.64825 169.3125 18.0625 C 169.284 14.38778 169.32493 10.708444 169.33203 7.0214844 L 169.33203 7.0195312 C 169.35363 6.0899612 169.62063 5.1231819 170.07617 4.2324219 C 170.29827 3.8036919 170.57787 3.3877487 170.83008 3.0742188 C 171.33345 2.4566486 171.77494 2.1404669 172.37891 1.8105469 L 172.38086 1.8085938 C 172.66141 1.6612437 172.95766 1.5412094 173.27539 1.4433594 C 174.39177 1.1314609 175.45102 0.99704555 176.53711 0.9609375 L 176.51562 -0.33789062 C 175.33865 -0.30019062 174.15728 -0.1525575 172.91602 0.1953125 L 172.9082 0.19726562 L 172.90039 0.19921875 C 172.50428 0.32072875 172.12507 0.47644563 171.76562 0.66601562 L 171.76172 0.66796875 L 171.75781 0.66992188 C 171.06859 1.0470291 170.43313 1.5047825 169.82031 2.2578125 L 169.82031 2.2597656 L 169.81836 2.2617188 C 169.50865 2.6467287 169.1892 3.1221119 168.92188 3.6386719 L 168.92188 3.640625 L 168.92188 3.6425781 C 168.48851 4.4900281 168.3138 5.4244687 168.20312 6.3554688 L 168.03516 6.3554688 L 168.0332 7.0039062 C 168.03315 7.0293063 168.03325 7.0546781 168.0332 7.0800781 L 168.01953 7.65625 L 168.03125 7.65625 C 168.02115 11.12432 167.98667 14.595049 168.01367 18.074219 L 168.01367 18.083984 L 168.01367 18.091797 C 168.03497 18.705347 168.07112 19.314629 168.10742 19.761719 L 168.10742 19.763672 C 168.18652 20.699862 168.27573 21.06479 168.42773 21.65625 L 168.42773 21.658203 L 168.42969 21.660156 C 168.59765 22.292646 168.87759 23.080457 169.3457 23.810547 C 169.55798 24.147167 169.80599 24.479315 170.1543 24.859375 C 170.50273 25.239595 170.94905 25.672918 171.42773 26.080078 C 172.4184 26.935248 173.48791 27.587238 174.54102 28.142578 C 176.41057 29.175898 178.27168 30.203866 180.14453 31.242188 L 168.00195 31.242188 L 168.01562 44.109375 L 168.01367 44.107422 C 168.01369 44.112422 168.01562 44.117837 168.01562 44.123047 L 168.01562 44.753906 L 168.06445 44.753906 C 168.07715 46.034616 168.07945 47.302464 168.37305 48.632812 L 168.37305 48.634766 L 168.37305 48.638672 C 168.55921 49.446932 168.85867 50.295469 169.32617 51.074219 L 169.32422 51.074219 C 169.79126 51.854639 170.41452 52.539585 171.14844 53.078125 C 171.88062 53.615055 172.68593 53.984074 173.33984 54.208984 C 173.99236 54.434484 174.50393 54.511946 174.95898 54.566406 C 175.3946 54.618606 175.85987 54.681641 176.35938 54.681641 L 187.93164 54.681641 C 188.43627 54.681641 189.05265 54.710441 189.80078 54.503906 C 190.5106 54.309226 191.32203 53.976159 192.05273 53.511719 L 192.05469 53.511719 C 192.78402 53.046949 193.40465 52.468586 193.84961 51.816406 C 194.29424 51.165976 194.52287 50.496644 194.70703 49.945312 C 194.89282 49.394664 195.06076 48.863105 195.17969 48.171875 C 195.29994 47.479805 195.37075 46.653812 195.41016 45.826172 C 195.44056 45.207242 195.42763 44.611905 195.42383 44.015625 L 195.42969 44.015625 L 195.42969 43.365234 L 195.42969 35.4375 L 195.42969 34.787109 C 195.42969 34.626099 195.43073 34.459033 195.42773 34.095703 C 195.42373 33.732393 195.41633 33.161052 195.39062 32.507812 L 195.39062 32.505859 C 195.36593 31.851119 195.32223 31.123625 195.28125 30.640625 C 195.24025 30.158185 195.19905 29.903301 195.15234 29.675781 C 195.10604 29.449951 195.05002 29.226609 194.98633 29.005859 C 194.92343 28.783849 194.83833 28.525341 194.66211 28.144531 L 194.66211 28.142578 C 194.48498 27.760978 194.20846 27.233999 193.86328 26.724609 L 193.86523 26.724609 C 193.51974 26.213589 193.11453 25.743559 192.66406 25.324219 C 192.2127 24.904079 191.72734 24.548406 191.20703 24.191406 L 191.20508 24.189453 C 190.13559 23.463393 188.94341 22.722081 187.78906 22.082031 L 187.47461 23.298828 L 187.78516 22.078125 L 183.05273 19.496094 L 194.13281 19.496094 L 194.78125 19.496094 L 195.43359 19.496094 L 195.43164 18.84375 C 195.41954 15.56589 195.47178 12.277826 195.39648 8.9726562 L 195.39453 8.9648438 L 195.39453 8.9589844 C 195.36093 8.1855744 195.30533 7.4189969 195.25781 6.9042969 C 195.21021 6.3897369 195.16721 6.1092225 195.11523 5.8515625 C 195.06273 5.5912325 194.99891 5.3383936 194.92773 5.0898438 C 194.85603 4.8385038 194.76327 4.5564325 194.57422 4.1328125 C 194.38495 3.7087025 194.08783 3.1076388 193.67383 2.5429688 C 193.26065 1.9780886 192.75078 1.4832944 192.17578 1.0839844 C 191.60251 0.68588434 190.98803 0.39197562 190.44531 0.19726562 L 190.44141 0.1953125 L 190.43359 0.19335938 C 189.39098 -0.16407064 188.58194 -0.22552815 187.76172 -0.33007812 L 187.75586 -0.33203125 L 187.74609 -0.33203125 C 187.3306 -0.37646685 186.89262 -0.42152245 186.43359 -0.41796875 z M 106.72656 -0.15820312 L 99.677734 54.660156 L 111.16992 54.660156 L 111.77148 54.660156 L 111.81836 54.058594 L 112.57227 44.080078 L 115.75391 44.080078 L 116.63477 54.660156 L 128.78125 54.660156 L 121.83984 -0.15820312 L 106.72656 -0.15820312 z M 129.97461 -0.15820312 L 129.97461 54.660156 L 141.57812 54.660156 L 141.57812 32.869141 L 144.625 54.660156 L 152.44727 54.660156 L 155.32422 33.359375 L 155.32422 54.660156 L 166.92578 54.660156 L 166.92578 -0.15820312 L 150.61523 -0.15820312 L 148.40234 18.513672 L 146.33203 0.41796875 L 146.27734 -0.15820312 L 145.6875 -0.15820312 L 129.97461 -0.15820312 z M 196.4707 -0.15820312 L 196.4668 0.4921875 L 196.4668 9.7753906 L 202.17383 9.7753906 L 202.17383 54.660156 L 214.91211 54.660156 L 214.91211 9.7753906 L 220.57422 9.7753906 L 220.57422 -0.15820312 L 196.4707 -0.15820312 z M 222.34766 -0.15820312 L 222.34766 54.660156 L 235.07031 54.660156 L 235.07031 33.375 C 235.56152 33.3758 236.07018 33.347803 236.47266 33.470703 C 236.55246 33.501303 236.62776 33.543203 236.69141 33.597656 C 236.84365 33.728396 236.88895 33.827096 236.93359 34.009766 C 236.97619 34.184196 236.9919 34.438584 237.03516 34.740234 C 237.12786 35.765334 237.05478 36.847762 237.08008 37.982422 C 237.08019 37.987422 237.07997 37.991424 237.08008 37.996094 L 237.08008 54.660156 L 249.80469 54.660156 L 249.79297 37.929688 L 249.80078 37.929688 L 249.79297 37.279297 L 249.79297 37.271484 C 249.77277 35.598764 249.6597 33.916771 249.28711 32.207031 L 249.2832 32.191406 L 249.27734 32.175781 C 249.16761 31.772661 249.0245 31.371612 248.84766 30.976562 L 248.84766 30.974609 C 248.56913 30.329179 248.19105 29.725456 247.73242 29.191406 C 247.27157 28.657596 246.73077 28.194466 246.13477 27.822266 L 246.13281 27.822266 C 245.99792 27.738666 245.83748 27.708926 245.69727 27.634766 C 246.13397 27.418246 246.58013 27.214577 246.95898 26.904297 C 247.49922 26.461857 247.96971 25.932231 248.3418 25.337891 C 248.71306 24.744841 248.98331 24.095592 249.14844 23.419922 C 249.27401 22.968802 249.37888 22.513814 249.46289 22.058594 L 249.46484 22.048828 L 249.46875 22.037109 C 249.71079 20.415219 249.76706 18.792412 249.76367 17.169922 L 249.80273 17.169922 L 249.80273 16.505859 L 249.80273 10.935547 C 249.80293 10.929547 249.80254 10.922516 249.80273 10.916016 C 249.83673 9.7823548 249.78378 8.6429856 249.64062 7.5097656 L 249.64062 7.5078125 C 249.57002 6.9391425 249.47426 6.3752244 249.37109 5.8964844 C 249.26866 5.4155344 249.15531 5.0165225 249.00977 4.6328125 L 249.00586 4.6308594 L 249.00586 4.6289062 C 248.85733 4.2449363 248.67599 3.8726381 248.46289 3.5175781 L 248.46094 3.515625 C 248.24933 3.159625 248.00702 2.8230956 247.73828 2.5097656 L 247.72852 2.4980469 L 247.7207 2.4882812 C 247.30285 2.0402514 246.82935 1.6421937 246.31445 1.3085938 C 245.24672 0.61728365 244.05204 0.23175936 242.87109 0.13085938 C 240.27333 -0.16877064 237.7082 -0.083063135 235.19531 -0.15820312 L 235.19531 -0.15429688 L 235.19922 -0.15429688 L 235.17773 1.140625 C 237.74334 1.216525 240.26843 1.137615 242.73828 1.4238281 L 242.74805 1.4238281 L 242.75977 1.4257812 C 243.73449 1.5084812 244.72647 1.8287406 245.60938 2.4003906 C 246.03208 2.6742606 246.4215 3.0029538 246.76562 3.3710938 C 246.98259 3.6258237 247.17938 3.8963175 247.34766 4.1796875 L 247.34766 4.1816406 L 247.34961 4.1816406 C 247.52411 4.4721206 247.67246 4.7791331 247.79492 5.0957031 C 247.91558 5.4143931 248.01034 5.7377156 248.10156 6.1660156 L 248.10156 6.1679688 C 248.19456 6.5995586 248.28344 7.1325856 248.34961 7.6660156 L 248.34961 7.6679688 L 248.35156 7.6679688 C 248.48737 8.7420085 248.53898 9.8230918 248.50586 10.894531 L 248.50586 10.914062 L 248.48438 11.564453 L 248.50586 11.564453 L 248.50586 16.53125 C 248.54146 18.30534 248.44666 20.069092 248.18555 21.826172 C 248.10755 22.248262 248.01126 22.666494 247.89453 23.083984 L 247.89062 23.095703 L 247.88867 23.105469 C 247.75593 23.650149 247.53843 24.173274 247.24219 24.646484 C 246.94626 25.119204 246.57059 25.542914 246.13867 25.896484 L 246.13867 25.898438 C 245.7064 26.252467 245.21445 26.535175 244.69141 26.734375 L 244.6875 26.734375 L 244.68359 26.736328 C 244.4171 26.840518 244.15066 26.924735 243.87891 26.992188 L 243.87305 28.251953 C 244.42755 28.395273 244.96143 28.622858 245.44727 28.923828 C 245.932 29.226528 246.373 29.604633 246.74805 30.039062 C 247.11977 30.472342 247.42818 30.963971 247.6543 31.488281 L 247.65625 31.496094 L 247.6582 31.5 C 247.80759 31.83263 247.92588 32.16674 248.01758 32.5 C 248.36135 34.08458 248.47264 35.667829 248.49219 37.287109 L 248.50195 37.929688 L 248.49219 37.929688 L 248.50391 53.359375 L 238.38086 53.359375 L 238.38086 38.630859 L 238.39648 38.630859 L 238.38086 37.982422 L 238.38086 37.966797 C 238.35646 36.907717 238.43568 35.790367 238.33008 34.623047 L 238.32617 34.603516 L 238.32422 34.583984 C 238.29032 34.360064 238.28231 34.057112 238.19531 33.701172 C 238.10831 33.345232 237.90986 32.930095 237.53516 32.609375 C 237.3454 32.447195 237.12609 32.320128 236.89062 32.236328 L 236.87891 32.232422 L 236.86523 32.228516 C 235.94583 31.943816 235.12262 32.054367 234.44141 32.029297 L 233.95898 32.185547 L 233.76758 32.677734 L 233.76758 53.361328 L 223.64648 53.361328 L 223.64648 1.1425781 L 235.1582 1.1425781 C 235.1652 1.1427781 235.17113 1.1423881 235.17773 1.1425781 L 235.17773 1.140625 L 235.19531 -0.15429688 L 222.34766 -0.15820312 z M 257.81445 -0.15820312 L 250.76953 54.660156 L 261.55859 54.660156 L 262.25781 54.660156 L 262.86133 54.660156 L 262.90625 54.058594 L 263.66016 44.080078 L 266.8418 44.080078 L 267.72461 54.660156 L 279.87109 54.660156 L 272.92969 -0.15820312 L 257.81445 -0.15820312 z M 280.80273 -0.15820312 L 280.80273 54.660156 L 299.60742 54.630859 L 299.60938 54.630859 C 300.18329 54.629859 300.66187 54.484135 301.05859 54.414062 L 301.06055 54.414062 C 302.01059 54.244172 302.89969 54.051804 303.85156 53.621094 C 304.35326 53.396524 304.8902 53.099063 305.39062 52.720703 C 305.89038 52.342833 306.37012 51.861739 306.79492 51.167969 L 306.79688 51.166016 C 307.22469 50.471226 307.60625 49.566293 307.88477 48.476562 C 308.1087 47.594054 308.22546 46.536522 308.2832 45.482422 L 308.37109 45.482422 L 308.36914 44.830078 L 308.29102 8.3007812 C 308.28902 7.3596613 308.05897 6.4805414 307.8418 5.7070312 C 307.61666 4.9051114 307.32027 4.1472919 306.88672 3.4511719 C 306.88672 3.4511719 306.04492 2.3860349 305.24219 1.6425781 C 304.58903 1.1459781 303.87862 0.79085564 303.33398 0.57226562 L 303.33203 0.57226562 C 302.78599 0.35409563 302.38651 0.27250065 302.05469 0.21289062 L 302.05273 0.21289062 L 302.05078 0.21289062 C 301.71639 0.15439063 301.37548 0.10018689 301.0293 0.060546875 C 300.68575 0.021246885 300.33313 -0.0057625 299.54492 -0.0390625 C 298.77371 -0.0726625 297.52656 -0.15122375 296.26367 -0.15234375 L 280.80273 -0.15820312 z M 107.86914 1.1425781 L 120.69531 1.1425781 L 127.30859 53.361328 L 117.83008 53.361328 L 116.94922 42.78125 L 111.36719 42.78125 L 110.56641 53.361328 L 101.15625 53.361328 L 107.86914 1.1425781 z M 131.27539 1.1425781 L 145.10742 1.1425781 L 147.74414 24.205078 L 149.03516 24.208984 L 151.76953 1.1425781 L 165.62695 1.1425781 L 165.62695 53.361328 L 156.62305 53.361328 L 156.62305 23.699219 L 155.33008 23.611328 L 151.3125 53.361328 L 145.75586 53.361328 L 141.57227 23.441406 L 140.27734 23.53125 L 140.27734 53.361328 L 131.27539 53.361328 L 131.27539 1.1425781 z M 197.76758 1.1425781 L 219.27539 1.1425781 L 219.27539 8.4746094 L 213.61328 8.4746094 L 213.61328 53.361328 L 203.47266 53.361328 L 203.47266 8.4746094 L 197.76758 8.4746094 L 197.76758 1.1425781 z M 258.95898 1.1425781 L 271.7832 1.1425781 L 278.39648 53.361328 L 268.91992 53.361328 L 268.03711 42.78125 L 262.45508 42.78125 L 261.65625 53.361328 L 252.24609 53.361328 L 258.95898 1.1425781 z M 282.10352 1.1425781 L 296.26172 1.1484375 L 296.26367 1.1484375 C 297.4725 1.1494375 298.69181 1.2250355 299.48828 1.2597656 L 299.49023 1.2597656 C 300.26575 1.2924656 300.57132 1.3158625 300.88281 1.3515625 C 301.19169 1.3869625 301.50552 1.4380605 301.82617 1.4941406 L 301.82422 1.4921875 C 302.14305 1.5494875 302.39653 1.5982669 302.84961 1.7792969 C 303.29967 1.9599269 303.93049 2.2788744 304.45508 2.6777344 C 304.97928 3.0762844 305.43317 3.5766919 305.7832 4.1386719 C 306.13262 4.6997319 306.3871 5.3364637 306.58984 6.0585938 C 306.80055 6.8091137 306.98849 7.5783975 306.99023 8.3046875 L 306.99219 8.953125 L 307.06836 44.841797 C 307.06925 45.990407 306.87648 47.16515 306.625 48.15625 C 306.37444 49.13659 306.03311 49.926655 305.68945 50.484375 L 305.6875 50.486328 C 305.34517 51.046048 305.01128 51.378234 304.60742 51.683594 C 304.20355 51.988954 303.74493 52.245477 303.32031 52.435547 L 303.31836 52.435547 C 302.50936 52.802077 301.75354 52.969636 300.83008 53.134766 C 300.34194 53.221066 299.937 53.330961 299.60742 53.332031 L 299.60547 53.332031 L 282.10352 53.357422 L 282.10352 1.1425781 z M 234.17383 8.5429688 L 234.17383 8.5449219 L 233.78906 8.5488281 L 233.77148 9.8398438 L 233.77148 23.494141 L 234.42188 23.494141 L 234.37695 23.492188 C 234.39195 23.493188 234.40688 23.491218 234.42188 23.492188 L 234.42188 23.494141 L 235.07031 23.494141 L 235.07031 23.484375 C 235.3497 23.483375 235.6296 23.500739 235.9082 23.474609 L 235.91602 23.472656 L 235.92383 23.472656 C 236.29414 23.428256 236.94421 23.425156 237.49219 22.935547 C 237.70205 22.758997 237.88113 22.545528 238.00977 22.298828 C 238.14344 22.047668 238.21775 21.778616 238.24609 21.509766 C 238.30849 21.075556 238.34793 20.637396 238.35547 20.197266 L 238.35547 20.191406 C 238.41097 17.830866 238.37186 15.484771 238.38086 13.150391 L 238.38086 13.138672 L 238.38086 13.128906 C 238.36036 12.467796 238.36255 11.779326 238.31055 11.072266 L 238.30859 11.060547 L 238.30859 11.046875 C 238.27629 10.758705 238.2514 10.394651 238.09961 9.9941406 C 237.94786 9.5936306 237.6468 9.1787575 237.17383 8.8671875 L 237.13086 8.8378906 L 237.08398 8.8183594 C 236.75731 8.6704894 236.41999 8.5879237 236.09375 8.5585938 L 236.06641 8.5566406 L 236.03906 8.5566406 C 235.7169 8.5556406 235.39329 8.5518281 235.07031 8.5488281 L 235.07031 8.5429688 L 234.42578 8.5429688 L 234.17383 8.5429688 z M 293.95508 8.5820312 C 294.08854 8.5847013 293.70182 8.5898438 293.5957 8.5898438 L 293.10547 8.5898438 L 292.24414 8.5898438 L 292.24414 8.5917969 L 292.24414 45.902344 L 294.76367 45.902344 C 295.20262 45.902344 295.45826 45.695604 295.58984 45.621094 C 295.80299 45.500344 296.00637 45.343968 296.17969 45.142578 L 296.18164 45.140625 L 296.18359 45.138672 C 296.35491 44.936352 296.47654 44.706883 296.56641 44.470703 C 296.65871 44.230823 296.72336 43.974161 296.76367 43.712891 L 296.76367 43.707031 L 296.76562 43.703125 C 296.77162 43.661425 296.76748 43.628625 296.77148 43.587891 L 296.80273 43.587891 L 296.80273 42.939453 L 296.80273 12.767578 L 296.83398 12.767578 L 296.80273 12.085938 C 296.76983 11.387436 296.87584 10.420803 296.3125 9.5703125 L 296.30469 9.5585938 L 296.29688 9.5488281 C 296.16008 9.3598268 295.99095 9.19425 295.79492 9.0625 L 295.79297 9.0625 L 295.79297 9.0585938 C 295.59804 8.9291835 295.3854 8.8412544 295.16406 8.7714844 L 295.16211 8.7714844 C 294.94423 8.7035844 294.68432 8.6382856 294.39844 8.6035156 L 294.39648 8.6035156 C 294.23577 8.5839656 293.82162 8.5793622 293.95508 8.5820312 z M 181.76172 9.5898438 C 181.85992 9.6032818 181.97044 9.6345969 182.09766 9.6855469 C 182.17176 9.7276469 182.25624 9.7899131 182.33398 9.8769531 L 182.33594 9.8769531 L 182.33594 9.8789062 C 182.41684 9.9687063 182.48273 10.072071 182.5293 10.181641 C 182.5759 10.291181 182.6074 10.404153 182.63281 10.626953 C 182.68671 11.104483 182.69581 11.833723 182.69141 12.476562 L 182.69141 12.482422 L 182.68555 13.132812 L 182.69141 13.132812 L 182.69141 19.287109 C 182.50408 19.180179 182.31508 19.075627 182.14062 18.960938 C 181.88034 18.788788 181.6192 18.599178 181.4707 18.486328 L 181.46875 18.484375 C 181.21663 18.291595 181.27682 18.327203 181.14844 18.189453 C 181.11174 18.147053 181.10374 18.140053 181.04297 18.041016 L 181.04102 18.039062 L 181.03906 18.037109 C 180.91458 17.838709 180.71811 17.349371 180.69336 17.087891 L 180.69141 17.080078 L 180.69141 17.070312 C 180.67491 16.936892 180.69141 16.730742 180.69141 16.451172 C 180.69341 14.763852 180.68222 13.026467 180.69922 11.404297 L 180.70117 11.392578 L 180.69922 11.380859 C 180.69022 11.025949 180.70822 10.670818 180.80469 10.392578 L 180.80664 10.386719 L 180.80859 10.380859 C 180.85669 10.233389 180.919 10.102823 180.98047 10.001953 C 181.18136 9.7408031 181.3486 9.6357665 181.50195 9.5976562 L 181.50195 9.5996094 C 181.50195 9.6776094 181.66353 9.5764107 181.76172 9.5898438 z M 235.16797 9.7226562 C 235.35261 9.6817023 235.75238 9.8559219 235.98242 9.8574219 C 236.14962 9.8730219 236.31975 9.921421 236.48438 9.9882812 C 236.71532 10.150491 236.82021 10.284688 236.88477 10.455078 C 236.95307 10.635439 236.97927 10.880509 237.01367 11.1875 C 237.05957 11.822909 237.05878 12.485082 237.08008 13.169922 C 237.07108 15.515972 237.10929 17.847939 237.05469 20.167969 L 237.05469 20.169922 L 237.05469 20.171875 C 237.04869 20.559775 237.01598 20.949957 236.95898 21.341797 L 236.95703 21.355469 L 236.95508 21.369141 C 236.94308 21.486641 236.91023 21.597903 236.86133 21.689453 L 236.85938 21.693359 L 236.85742 21.695312 C 236.80872 21.789213 236.73644 21.879848 236.65234 21.949219 L 236.64062 21.958984 L 236.62891 21.96875 C 236.49218 22.09277 236.22428 22.126018 235.77734 22.179688 C 235.5421 22.201287 235.30604 22.1865 235.07031 22.1875 L 235.07031 9.8496094 C 235.07031 9.7737307 235.10642 9.7363076 235.16797 9.7226562 z M 293.54297 9.890625 L 293.5957 9.890625 C 293.87474 9.890625 294.09292 9.8782834 294.24023 9.8964844 C 294.42708 9.9190844 294.61722 9.9650813 294.77344 10.013672 C 294.92264 10.060672 295.00474 10.099672 295.07227 10.144531 C 295.13247 10.185331 295.18493 10.237531 295.23047 10.296875 C 295.45017 10.634475 295.4651 11.346116 295.50195 12.134766 L 295.50195 42.939453 C 295.50195 43.160593 295.49796 43.357404 295.47656 43.521484 C 295.47634 43.523484 295.47678 43.525344 295.47656 43.527344 C 295.44836 43.704674 295.40346 43.874166 295.35352 44.003906 L 295.35352 44.005859 C 295.30262 44.140309 295.25032 44.227035 295.19141 44.296875 L 295.19141 44.298828 C 295.13321 44.365428 295.04967 44.433334 294.94922 44.490234 L 294.94922 44.488281 C 294.7654 44.592371 294.69084 44.601562 294.76367 44.601562 L 293.54297 44.601562 L 293.54297 9.890625 z M 113.53516 13.751953 L 111.90234 35.25 L 115.11523 35.25 L 115.71875 35.25 L 116.41797 35.25 L 114.83008 13.753906 L 113.53516 13.751953 z M 264.62305 13.751953 L 262.99023 35.25 L 266.20312 35.25 L 266.80859 35.25 L 267.50781 35.25 L 265.91797 13.753906 L 264.62305 13.751953 z M 265.26172 22.5 L 266.10742 33.949219 L 264.39258 33.949219 L 265.26172 22.5 z M 114.17383 22.507812 L 115.01953 33.949219 L 113.30469 33.949219 L 114.17383 22.507812 z M 180.69141 31.544922 C 180.8771 31.648022 181.06001 31.748063 181.24609 31.851562 C 181.58325 32.066234 181.8393 32.193894 182.07812 32.427734 L 182.08008 32.429688 L 182.08203 32.431641 C 182.67814 33.004901 182.65852 33.574077 182.64648 34.398438 L 182.63672 35.058594 L 182.66992 35.058594 L 182.69141 35.578125 L 182.70703 42.818359 C 182.71303 43.294729 182.66963 43.692199 182.4707 44.136719 C 182.4228 44.221519 182.36009 44.301931 182.28906 44.363281 C 181.99724 44.604981 181.71855 44.657499 181.35352 44.511719 C 181.25882 44.471819 181.16712 44.410607 181.08789 44.335938 C 180.75918 44.018628 180.78769 43.497126 180.69727 42.742188 L 180.69141 31.544922 z "
       transform="translate(51.964839,153.92233)"
       id="path4202" /></g></svg>