<?xml version="1.0" encoding="UTF-8" standalone="no"?>
<svg
   xmlns:dc="http://purl.org/dc/elements/1.1/"
   xmlns:cc="http://creativecommons.org/ns#"
   xmlns:rdf="http://www.w3.org/1999/02/22-rdf-syntax-ns#"
   xmlns:svg="http://www.w3.org/2000/svg"
   xmlns="http://www.w3.org/2000/svg"
   xmlns:sodipodi="http://sodipodi.sourceforge.net/DTD/sodipodi-0.dtd"
   xmlns:inkscape="http://www.inkscape.org/namespaces/inkscape"
   version="1.1"
   id="Ebene_2"
   x="0px"
   y="0px"
   width="582"
   height="65.438004"
   viewBox="0 0 582.00002 65.438"
   enable-background="new 0 0 566.93 65.438"
   xml:space="preserve"
   inkscape:version="0.91 r13725"
   sodipodi:docname="logoconsole.svg"><sodipodi:namedview
     pagecolor="#ffffff"
     bordercolor="#666666"
     borderopacity="1"
     objecttolerance="10"
     gridtolerance="10"
     guidetolerance="10"
     inkscape:pageopacity="0"
     inkscape:pageshadow="2"
     inkscape:window-width="1680"
     inkscape:window-height="975"
     id="namedview6132"
     showgrid="false"
     inkscape:zoom="2.0002126"
     inkscape:cx="228.78176"
     inkscape:cy="33.093416"
     inkscape:window-x="1671"
     inkscape:window-y="-9"
     inkscape:window-maximized="1"
     inkscape:current-layer="Ebene_2" /><metadata
     id="metadata18"><rdf:RDF><cc:Work
         rdf:about=""><dc:format>image/svg+xml</dc:format><dc:type
           rdf:resource="http://purl.org/dc/dcmitype/StillImage" /><dc:title /></cc:Work></rdf:RDF></metadata><defs
     id="defs16" /><path
     d="m 30.977525,35.474379 0,-28.8551798 -8.6783,0 0,20.1759898 -12.7995801,-20.1759898 -9.32877868,0 0,28.8551798 8.67828858,0 0,-20.82737 13.4491802,20.82737 8.67919,0 z"
     id="path4931"
     inkscape:connector-curvature="0"
     style="fill:#d72a1a;fill-opacity:1" /><path
     d="m 45.079875,35.474379 0,-19.52551 -8.67741,0 0,19.52551 8.67741,0 z"
     id="path4933"
     inkscape:connector-curvature="0"
     style="fill:#d72a1a;fill-opacity:1" /><path
     d="m 45.079875,11.825829 0,-5.2066298 -8.67741,0 0,5.2066298 8.67741,0 z"
     id="path4935"
     inkscape:connector-curvature="0"
     style="fill:#d72a1a;fill-opacity:1" /><path
     id="_x33_162-9"
     d="m 75.45258,35.474379 0,-13.45274 c 0,-2.8203 -5.42404,-6.72502 -8.24345,-6.72502 l -2.604645,0 c -1.95148,0 -4.12217,1.73582 -6.07454,2.60373 l 0,-1.95148 -8.6783,0 0,19.52551 8.6783,0 0,-13.45274 c 0,-1.30188 3.03683,-2.8203 4.33959,-2.8203 1.30188,0 3.687325,1.51842 3.687325,2.8203 l 0,13.45185 8.89572,8.9e-4 0,0 z"
     inkscape:connector-curvature="0"
     style="fill:#d72a1a;fill-opacity:1" /><path
     id="_x33_162_1_-5"
     d="m 148.06303,36.146169 0,-13.45096 c 0,-2.82118 -5.42138,-6.72504 -8.247,-6.72504 l -2.60198,0 c -1.95326,0 -4.12306,1.73583 -6.07721,2.60287 l 0,-1.95149 -8.67651,0 0,19.52551 8.67651,0 0,-13.45185 c 0,-1.30099 3.03861,-2.82118 4.34048,-2.82118 1.30188,0 3.68644,1.52019 3.68644,2.82118 l 0,13.45096 8.89927,0 z"
     inkscape:connector-curvature="0"
     style="fill:#d72a1a;fill-opacity:1" /><path
     d="m 89.55487,35.474379 0,-19.52551 4.55613,0 0,-2.60374 -4.55613,0 0,-4.1221698 -8.893,0 0,4.1221698 -4.55702,0 0,2.60374 4.55702,0 0,19.52551 8.893,0 z"
     id="path4939"
     inkscape:connector-curvature="0"
     style="fill:#d72a1a;fill-opacity:1" /><path
     d="m 106.25918,15.297499 c -6.941568,0 -12.79868,4.77265 -12.79868,10.63066 0,6.07543 5.857112,10.84721 12.79868,10.84721 6.07543,0 11.06552,-3.47079 12.3674,-8.02692 l -8.89306,0 0,2.60376 c 0,2.16979 -1.51664,2.82206 -3.4699,2.82206 -1.95237,0 -3.25514,-0.65138 -3.25514,-2.82206 l 0,-5.42316 16.05649,0 c -0.003,-5.85801 -5.64413,-10.63155 -12.80579,-10.63155 z m 0,1.95236 c 1.95326,0 3.47167,1.30188 3.47167,3.47167 l 0,1.9515 -6.72503,0 0,-1.9515 c 0,-2.16979 1.30188,-3.47167 3.25336,-3.47167 z"
     id="path4941"
     inkscape:connector-curvature="0"
     style="fill:#d72a1a;fill-opacity:1" /><path
     d="m 191.74293,15.297499 c -7.16077,0 -12.80224,4.77265 -12.80224,10.63066 0,6.07543 5.63881,10.84721 12.80224,10.84721 6.93802,0 12.79869,-4.77178 12.79869,-10.84721 -0.003,-5.85712 -5.85978,-10.63066 -12.79869,-10.63066 z m 0,1.95236 c 1.94793,0 3.25336,1.30188 3.25336,3.47167 l 0,10.62979 c 0,2.16891 -1.30543,2.82118 -3.25336,2.82118 -2.16891,0 -3.47345,-0.65138 -3.47345,-2.82118 l 0,-10.62979 c -0.002,-2.16979 1.30188,-3.47167 3.47345,-3.47167 z"
     id="path4943"
     inkscape:connector-curvature="0"
     style="fill:#d72a1a;fill-opacity:1" /><path
     d="m 166.79072,6.6191992 0,10.6306598 c 0,0 -2.60553,-1.95236 -6.07721,-1.95236 -5.42315,0 -9.97839,4.77265 -9.97839,9.98017 0,5.42404 4.55701,10.84809 9.97839,10.84809 3.47168,0 6.07721,-1.30188 6.07721,-1.30188 l 0,0.64961 8.67829,0 0,-28.8542898 -8.67829,0 z m -3.25514,11.9325398 c 1.95149,0 3.25514,1.5193 3.25514,3.47168 l 0,8.02691 c 0,1.95326 -1.30365,2.60376 -3.25514,2.60376 -2.16802,0 -3.47167,-0.64961 -3.47167,-2.60376 l 0,-8.02691 c 0,-1.95238 1.30365,-3.47168 3.47167,-3.47168 z"
     id="path4945"
     inkscape:connector-curvature="0"
     style="fill:#d72a1a;fill-opacity:1" /><g
     id="g4947"
     transform="matrix(0.88744213,0,0,0.88744213,-49.076845,-10.283921)"
     style="fill:#d72a1a;fill-opacity:1"><path
       d="m 287.006,29.216 c -2.774,0 -5.036,-2.258 -5.036,-5.035 0,-2.959 2.213,-5.28 5.036,-5.28 2.729,0 5.036,2.417 5.036,5.28 0,2.681 -2.35,5.035 -5.036,5.035 z m 0,-9.533 c -2.427,0 -4.253,1.934 -4.253,4.5 0,2.344 1.908,4.254 4.253,4.254 2.229,0 4.254,-2.028 4.254,-4.254 0,-2.399 -1.984,-4.5 -4.254,-4.5 z m 0.884,6.647 -0.863,-1.515 -1.096,0 0,1.321 -0.779,0 0,-4.546 2.104,0 c 0.979,0 1.488,0.813 1.488,1.613 0,0.615 -0.303,1.238 -0.885,1.492 l 0.711,1.248 -0.68,0.387 z m -1.959,-2.294 1.321,0 c 0.22,0 0.396,-0.079 0.521,-0.235 0.119,-0.149 0.188,-0.368 0.188,-0.597 0,-0.311 -0.151,-0.832 -0.709,-0.832 l -1.321,0 0,1.664 0,0 z"
       id="path4949"
       inkscape:connector-curvature="0"
       style="fill:#d72a1a;fill-opacity:1" /></g><g
     id="g4951"
     transform="matrix(0.88744213,0,0,0.88744213,0.60750621,-23.177951)"
     style="fill:#d72a1a;fill-opacity:1"><path
       id="_x32_399_1_"
       d="m 51.827,99.231 0,-14.18 c 0,-2.688 -2.689,-5.379 -5.378,-5.379 l -20.535,0 0,19.56 6.357,0 0,-13.2 c 0,-0.979 0.732,-1.957 1.711,-1.957 l 9.777,0 c 0.979,0 1.957,0.979 1.957,1.957 l 0,13.199 6.111,0 0,0 z"
       inkscape:connector-curvature="0"
       style="fill:#d72a1a;fill-opacity:1" /><path
       d="m 45.216,99.729 0,-13.697 c 0.002,-0.32 -0.173,-0.704 -0.466,-0.994 l 0,0 c -0.289,-0.291 -0.671,-0.469 -0.991,-0.464 l 0,0 -9.778,0 c -0.616,0.002 -1.21,0.704 -1.21,1.458 l 0,0 0,13.696 -7.357,0 0,-20.558 21.036,0 c 3.011,0.039 5.84,2.868 5.877,5.881 l 0,0 0,14.181 0,0.497 -7.111,0 0,0 z m 6.611,-0.498 0,-0.5 0,0.5 0,0 z M 43.759,83.574 c 1.301,0.037 2.42,1.156 2.457,2.458 l 0,0 0,12.699 5.111,0 0,-13.68 c 0.004,-1.175 -0.601,-2.414 -1.534,-3.345 l 0,0 C 48.862,80.772 47.625,80.167 46.45,80.171 l 0,0 -20.035,0 0,18.559 5.357,0 0,-12.698 c 0.004,-1.206 0.869,-2.429 2.209,-2.458 l 0,0 9.778,0 0,0 z"
       id="path4954"
       inkscape:connector-curvature="0"
       style="fill:#d72a1a;fill-opacity:1" /></g><g
     id="g4956"
     transform="matrix(0.88744213,0,0,0.88744213,0.60750621,-23.177951)"
     style="fill:#d72a1a;fill-opacity:1"><path
       id="_x32_399_2_"
       d="m 221.469,99.231 0,-14.18 c 0,-2.688 -2.688,-5.379 -5.376,-5.379 l -20.535,0 0,19.56 6.354,0 0,-13.2 c 0,-0.979 0.736,-1.957 1.713,-1.957 l 9.779,0 c 0.979,0 1.953,0.979 1.953,1.957 l 0,13.199 6.112,0 0,0 z"
       inkscape:connector-curvature="0"
       style="fill:#d72a1a;fill-opacity:1" /><path
       d="m 214.856,99.73 0,-13.699 c 0.002,-0.319 -0.174,-0.704 -0.464,-0.993 l 0,0 c -0.289,-0.29 -0.67,-0.468 -0.989,-0.464 l 0,0 -9.779,0 c -0.616,0.002 -1.212,0.706 -1.214,1.457 l 0,0 0,13.699 -7.354,0 0,-20.56 21.038,0 c 3.008,0.037 5.836,2.867 5.875,5.88 l 0,0 0,14.18 0,0.5 -7.113,0 0,0 z m 6.612,-0.5 0,-0.499 0,0.499 0,0 z m -8.065,-15.655 c 1.302,0.037 2.415,1.156 2.452,2.456 l 0,0 -0.002,12.7 5.114,0 0,-13.68 c 0.004,-1.176 -0.601,-2.415 -1.533,-3.346 l 0,0 c -0.931,-0.933 -2.168,-1.537 -3.341,-1.533 l 0,0 -20.037,-0.002 0,18.56 5.354,0 0,-12.699 c 0.006,-1.206 0.873,-2.429 2.213,-2.458 l 0,0 9.78,0.002 0,0 z"
       id="path4959"
       inkscape:connector-curvature="0"
       style="fill:#d72a1a;fill-opacity:1" /></g><g
     id="g4961"
     transform="matrix(0.88744213,0,0,0.88744213,0.60750621,-23.177951)"
     style="fill:#d72a1a;fill-opacity:1"><path
       id="_x32_399_3_"
       d="m 314.327,99.231 0,-14.18 c 0,-2.688 -2.688,-5.379 -5.379,-5.379 l -20.535,0 0,19.56 6.354,0 0,-13.2 c 0,-0.979 0.732,-1.957 1.715,-1.957 l 9.775,0 c 0.979,0 1.955,0.979 1.955,1.957 l 0,13.199 6.115,0 0,0 z"
       inkscape:connector-curvature="0"
       style="fill:#d72a1a;fill-opacity:1" /><path
       d="m 307.712,99.73 0,-13.699 c 0.002,-0.32 -0.173,-0.703 -0.466,-0.993 l 0,0 c -0.287,-0.291 -0.67,-0.467 -0.99,-0.463 l 0,0 -9.774,-0.002 c -0.623,0.002 -1.215,0.705 -1.218,1.458 l 0,0 0,13.699 -7.352,0 0,-20.558 21.036,0 c 3.013,0.037 5.84,2.866 5.879,5.878 l 0,0 0,14.18 0,0.5 -7.115,0 0,0 z m 6.615,-0.5 0,-0.5 0,0.5 0,0 z m -8.071,-15.655 c 1.302,0.036 2.419,1.155 2.454,2.456 l 0,0 0,12.699 5.115,0 0,-13.68 c 0.005,-1.176 -0.601,-2.414 -1.533,-3.345 l 0,0 c -0.931,-0.934 -2.17,-1.538 -3.344,-1.533 l 0,0 -20.036,0 0,18.558 5.354,0 0,-12.699 c 0.004,-1.205 0.87,-2.429 2.215,-2.458 l 0,0 9.775,0.002 0,0 z"
       id="path4964"
       inkscape:connector-curvature="0"
       style="fill:#d72a1a;fill-opacity:1" /></g><g
     id="g4966"
     transform="matrix(0.88744213,0,0,0.88744213,0.60750621,-23.177951)"
     style="fill:#d72a1a;fill-opacity:1"><path
       id="_x33_177_1_"
       d="m 258.892,99.231 0,-14.18 c 0,-2.688 -2.688,-5.379 -5.379,-5.379 l -27.625,0 0,19.56 6.357,0 0,-13.2 c 0,-0.979 0.73,-1.957 1.709,-1.957 l 3.668,0 c 0.734,0 1.712,0.979 1.712,1.957 l 0,13.199 6.358,0 0,-13.199 c 0,-0.979 0.73,-1.957 1.709,-1.957 l 3.668,0 c 0.732,0 1.711,0.979 1.711,1.957 l 0,13.199 6.112,0 0,0 z"
       inkscape:connector-curvature="0"
       style="fill:#d72a1a;fill-opacity:1" /><path
       d="m 238.834,99.731 0,-13.7 c 0.003,-0.319 -0.179,-0.715 -0.45,-1.008 l 0,0 c -0.265,-0.301 -0.617,-0.461 -0.763,-0.45 l 0,0 -3.668,0 c -0.615,0.002 -1.208,0.704 -1.21,1.458 l 0,0 0,13.698 -7.356,0 0,-20.557 28.126,0 c 3.014,0.037 5.84,2.867 5.88,5.879 l 0,0 0,14.18 0,0.499 -7.112,0 0,-13.699 c 0.004,-0.319 -0.179,-0.715 -0.451,-1.008 l 0,0 c -0.264,-0.301 -0.617,-0.461 -0.76,-0.45 l 0,0 -3.67,0 c -0.614,0.002 -1.207,0.704 -1.209,1.458 l 0,0 0,13.7 -7.357,0 0,0 z m 20.058,-0.501 0,-0.499 0,0.499 0,0 z m -7.823,-15.655 c 1.128,0.07 2.148,1.16 2.209,2.456 l 0,0 0,12.7 5.112,0 0,-13.68 c 0.004,-1.177 -0.601,-2.415 -1.534,-3.346 l 0,0 c -0.931,-0.934 -2.169,-1.538 -3.344,-1.534 l 0,0 -27.125,-0.002 0,18.563 5.355,0 0,-12.7 c 0.007,-1.203 0.869,-2.429 2.21,-2.456 l 0,0 3.668,0 c 1.13,0.07 2.152,1.16 2.211,2.456 l 0,0 0,12.698 5.359,0 0,-12.699 c 0.005,-1.203 0.867,-2.429 2.209,-2.456 l 0,0 3.67,0 0,0 z"
       id="path4969"
       inkscape:connector-curvature="0"
       style="fill:#d72a1a;fill-opacity:1" /></g><g
     id="g4971"
     transform="matrix(0.88744213,0,0,0.88744213,0.60750621,-23.177951)"
     style="fill:#d72a1a;fill-opacity:1"><path
       id="_x33_181_1_"
       d="m 21.514,99.231 -16.135,0 C 2.691,99.231 0,97.521 0,94.833 l 0,-15.4 21.513,0 0,4.646 -14.424,0 c -0.732,0 -1.711,0.733 -1.711,1.712 0,0.979 0.979,1.712 1.711,1.712 l 13.446,0 0,3.911 -13.446,0 c -0.732,0 -1.711,0.979 -1.711,1.712 0,0.979 0.979,1.955 1.711,1.955 l 14.424,0 10e-4,4.15 0,0 z"
       inkscape:connector-curvature="0"
       style="fill:#d72a1a;fill-opacity:1" /><path
       d="M 5.379,99.73 C 2.511,99.725 -0.473,97.902 -0.502,94.832 l 0,0 0,-15.9 22.515,0 0,5.646 -14.924,0 C 6.887,84.572 6.546,84.702 6.294,84.937 l 0,0 C 6.038,85.17 5.877,85.472 5.877,85.79 l 0,0 c 0,0.316 0.161,0.62 0.417,0.853 l 0,0 c 0.252,0.236 0.593,0.364 0.795,0.359 l 0,0 13.945,0 0,4.911 -13.945,0 C 6.944,91.9 6.579,92.067 6.313,92.347 l 0,0 c -0.281,0.269 -0.448,0.634 -0.436,0.778 l 0,0 c -0.004,0.32 0.177,0.715 0.45,1.006 l 0,0 c 0.265,0.299 0.618,0.463 0.762,0.448 l 0,0 14.922,0 0.002,4.652 0.002,0.5 -16.636,0 0,-10e-4 z m 16.134,-0.5 0,-0.5 0,0.5 0,0 z M 0.5,94.832 c 0.004,2.305 2.369,3.893 4.879,3.898 l 0,0 15.634,0 0,-3.151 -13.924,0 C 5.962,95.509 4.937,94.421 4.878,93.124 l 0,0 c 0.091,-1.123 1.088,-2.118 2.211,-2.212 l 0,0 12.945,0 0,-2.911 -12.945,0 C 6.065,87.972 4.923,87.119 4.878,85.789 l 0,0 c 0.045,-1.33 1.187,-2.183 2.211,-2.212 l 0,0 13.922,-0.002 0,-3.645 -20.511,0 0,14.902 0,0 z"
       id="path4974"
       inkscape:connector-curvature="0"
       style="fill:#d72a1a;fill-opacity:1" /></g><g
     id="g4976"
     transform="matrix(0.88744213,0,0,0.88744213,0.60750621,-23.177951)"
     style="fill:#d72a1a;fill-opacity:1"><path
       id="_x33_181_2_"
       d="m 100.979,99.478 -16.136,0 c -2.688,0 -5.379,-1.711 -5.379,-4.397 l 0,-15.404 21.515,0 0,4.645 -14.426,0 c -0.731,0 -1.71,0.734 -1.71,1.715 0,0.981 0.979,1.711 1.71,1.711 l 13.446,0 0,3.91 -13.446,0 c -0.731,0 -1.71,0.979 -1.71,1.714 0,0.979 0.979,1.954 1.71,1.954 l 14.426,0 0,4.152 0,0 z"
       inkscape:connector-curvature="0"
       style="fill:#d72a1a;fill-opacity:1" /><path
       d="M 84.843,99.978 C 81.975,99.972 78.99,98.149 78.964,95.08 l 0,0 0,-15.905 22.514,0 0,5.646 -14.925,0 c -0.2,-0.006 -0.541,0.124 -0.793,0.359 l 0,0 c -0.256,0.235 -0.419,0.537 -0.417,0.857 l 0,0 c -0.002,0.315 0.159,0.617 0.417,0.851 l 0,0 c 0.25,0.233 0.59,0.363 0.793,0.357 l 0,0 13.945,0 0,4.912 -13.945,-0.002 c -0.145,-0.013 -0.508,0.155 -0.776,0.436 l 0,0 c -0.279,0.269 -0.448,0.635 -0.434,0.779 l 0,0 c -0.006,0.319 0.175,0.714 0.448,1.007 l 0,0 c 0.265,0.298 0.618,0.459 0.762,0.448 l 0,0 14.924,0 0,4.65 0,0.502 -16.634,0 0,10e-4 z m 16.136,-0.502 0,-0.499 0,0.499 0,0 z M 79.963,95.079 c 0.004,2.303 2.371,3.891 4.88,3.897 l 0,0 15.635,0 0,-3.153 -13.925,0 c -1.127,-0.07 -2.15,-1.156 -2.212,-2.453 l 0,0 c 0.093,-1.124 1.09,-2.123 2.212,-2.214 l 0,0 12.946,0 0,-2.91 -12.946,0 c -1.022,-0.028 -2.167,-0.88 -2.212,-2.209 l 0,0 c 0.045,-1.335 1.188,-2.188 2.212,-2.216 l 0,0 13.925,0 0,-3.646 -20.515,0 0,14.904 0,0 z"
       id="path4979"
       inkscape:connector-curvature="0"
       style="fill:#d72a1a;fill-opacity:1" /></g><g
     id="g4981"
     transform="matrix(0.88744213,0,0,0.88744213,0.60750621,-23.177951)"
     style="fill:#d72a1a;fill-opacity:1"><path
       id="_x33_181_3_"
       d="m 284.907,99.231 -16.137,0 c -2.688,0 -5.381,-1.711 -5.381,-4.398 l 0,-15.4 21.516,0 0,4.646 -14.424,0 c -0.732,0 -1.715,0.733 -1.715,1.712 0,0.979 0.979,1.712 1.715,1.712 l 13.442,0 0,3.911 -13.442,0 c -0.732,0 -1.715,0.979 -1.715,1.712 0,0.979 0.979,1.955 1.715,1.955 l 14.424,0 0,4.153 0.002,0 0,-0.003 z"
       inkscape:connector-curvature="0"
       style="fill:#d72a1a;fill-opacity:1" /><path
       d="m 284.907,99.732 -0.504,0 0,-0.002 -15.633,0 c -2.868,-0.006 -5.854,-1.828 -5.881,-4.898 l 0,0 0,-15.9 22.517,0 0,5.646 -14.924,0 c -0.202,-0.005 -0.545,0.125 -0.797,0.36 l 0,0 c -0.259,0.233 -0.421,0.536 -0.419,0.853 l 0,0 c -0.002,0.314 0.16,0.617 0.417,0.853 l 0,0 c 0.252,0.233 0.597,0.363 0.799,0.358 l 0,0 13.94,0 0,4.912 -13.94,-0.002 c -0.145,-0.013 -0.511,0.156 -0.78,0.436 l 0,0 c -0.281,0.269 -0.448,0.634 -0.436,0.777 l 0,0 c -0.004,0.319 0.177,0.713 0.45,1.007 l 0,0 c 0.265,0.299 0.619,0.461 0.766,0.448 l 0,0 14.924,0 0,4.653 0,0.5 -0.499,0 0,-0.001 z m -21.018,-4.9 c 0.005,2.304 2.371,3.892 4.881,3.898 l 0,0 15.634,0 0,-3.152 -13.922,0 c -1.13,-0.069 -2.156,-1.157 -2.215,-2.454 l 0,0 c 0.092,-1.123 1.093,-2.12 2.215,-2.212 l 0,0 12.941,-0.002 0,-2.91 -12.941,0 c -1.026,-0.027 -2.171,-0.88 -2.215,-2.21 l 0,0 c 0.044,-1.332 1.19,-2.185 2.215,-2.214 l 0,0 13.922,0 0,-3.646 -20.515,0 0,14.902 0,0 z"
       id="path4984"
       inkscape:connector-curvature="0"
       style="fill:#d72a1a;fill-opacity:1" /></g><g
     id="g4986"
     transform="matrix(0.88744213,0,0,0.88744213,0.60750621,-23.177951)"
     style="fill:#d72a1a;fill-opacity:1"><path
       id="_x32_391_1_"
       d="m 54.517,79.675 0,4.4 6.355,0 c 1.712,0 1.712,0 1.712,1.957 l 0,13.199 6.111,0 0,-13.199 c 0,-1.957 0,-1.957 1.956,-1.957 l 6.111,0 0,-4.4 -22.245,0 z"
       inkscape:connector-curvature="0"
       style="fill:#d72a1a;fill-opacity:1" /><path
       d="m 62.084,99.73 0,-13.699 c 0,-0.55 -0.004,-0.938 -0.035,-1.163 l 0,0 c -0.033,-0.221 -0.056,-0.217 -0.056,-0.219 l 0,0 c 0,-0.002 -0.054,-0.031 -0.196,-0.048 l 0,0 c -0.186,-0.026 -0.5,-0.028 -0.925,-0.026 l 0,0 -6.855,0 0,-4.9 0,-0.502 23.246,0 0,5.4 -6.612,0.002 c -0.729,-0.007 -1.181,0.017 -1.309,0.072 l 0,0 c -0.081,0.058 -0.045,-0.063 -0.12,0.308 l 0,0 c -0.025,0.227 -0.027,0.589 -0.027,1.076 l 0,0 0,13.699 -7.111,0 0,0 z m -7.068,-16.157 5.856,0 c 0.834,0.027 1.361,-0.082 1.873,0.417 l 0,0 c 0.409,0.546 0.312,1.065 0.339,2.041 l 0,0 0,12.697 5.111,0 0,-12.697 c 0.027,-0.967 -0.079,-1.519 0.39,-2.065 l 0,0 c 0.547,-0.471 1.099,-0.365 2.065,-0.391 l 0,0 5.613,0 0,-3.4 -21.247,0 0,3.398 0,0 z m -0.5,-3.398 0,-0.5 0,0.5 0,0 z"
       id="path4989"
       inkscape:connector-curvature="0"
       style="fill:#d72a1a;fill-opacity:1" /></g><g
     id="g4991"
     transform="matrix(0.88744213,0,0,0.88744213,0.60750621,-23.177951)"
     style="fill:#d72a1a;fill-opacity:1"><path
       id="_x32_391_2_"
       d="m 132.197,79.675 0,4.4 6.355,0 c 1.71,0 1.71,0 1.71,1.957 l 0,13.199 6.112,0 0,-13.199 c 0,-1.957 0,-1.957 1.957,-1.957 l 6.112,0 0,-4.4 -22.246,0 z"
       inkscape:connector-curvature="0"
       style="fill:#d72a1a;fill-opacity:1" /><path
       d="m 139.761,99.73 0,-13.699 c 0,-0.55 -0.002,-0.938 -0.033,-1.163 l 0,0 c -0.035,-0.221 -0.056,-0.217 -0.056,-0.219 l 0,0 c 0,-0.002 -0.054,-0.031 -0.196,-0.048 l 0,0 c -0.186,-0.026 -0.498,-0.028 -0.925,-0.026 l 0,0 -6.856,0 0,-4.9 0,-0.502 23.246,0 0,5.402 -6.61,-0.002 c -0.731,-0.005 -1.183,0.019 -1.311,0.074 l 0,0 c -0.081,0.058 -0.045,-0.063 -0.12,0.308 l 0,0 c -0.024,0.227 -0.026,0.589 -0.026,1.076 l 0,0 0,13.699 -7.113,0 0,0 z m -7.064,-16.157 5.854,0 c 0.834,0.027 1.361,-0.082 1.873,0.417 l 0,0 c 0.409,0.546 0.312,1.065 0.336,2.041 l 0,0 0,12.697 5.113,0 0,-12.697 c 0.027,-0.967 -0.079,-1.519 0.39,-2.065 l 0,0 c 0.549,-0.471 1.101,-0.365 2.067,-0.393 l 0,0 5.611,0 0,-3.398 -21.245,0 0,3.398 0.001,0 z m -0.5,-3.398 0,-0.5 0,0.5 0,0 z"
       id="path4994"
       inkscape:connector-curvature="0"
       style="fill:#d72a1a;fill-opacity:1" /></g><g
     id="g4996"
     transform="matrix(0.88744213,0,0,0.88744213,0.60750621,-23.177951)"
     style="fill:#d72a1a;fill-opacity:1"><path
       id="_x32_391_3_"
       d="m 317.909,79.675 0,4.4 6.354,0 c 1.713,0 1.713,0 1.713,1.957 l 0,13.199 6.11,0 0,-13.199 c 0,-1.957 0,-1.957 1.955,-1.957 l 6.111,0 0,-4.4 -22.243,0 z"
       inkscape:connector-curvature="0"
       style="fill:#d72a1a;fill-opacity:1" /><path
       d="m 325.476,99.731 0,-13.699 c 0,-0.55 -0.002,-0.94 -0.033,-1.165 l 0,0 c -0.034,-0.221 -0.057,-0.216 -0.057,-0.219 l 0,0 c 0,0 -0.053,-0.031 -0.195,-0.048 l 0,0 c -0.187,-0.025 -0.5,-0.027 -0.928,-0.025 l 0,0 -6.854,0 0,-4.9 0,-0.501 23.244,0 0,5.399 -6.611,0 c -0.73,-0.006 -1.184,0.019 -1.31,0.075 l 0,0 c -0.082,0.057 -0.046,-0.064 -0.119,0.307 l 0,0 c -0.025,0.229 -0.027,0.588 -0.027,1.077 l 0,0 0,13.699 -7.11,0 0,0 z m -7.069,-16.157 5.855,0 c 0.835,0.027 1.362,-0.084 1.876,0.416 l 0,0 c 0.409,0.545 0.311,1.067 0.336,2.042 l 0,0 0,12.698 5.112,0 0,-12.698 c 0.025,-0.968 -0.08,-1.52 0.391,-2.067 l 0,0 c 0.548,-0.47 1.098,-0.363 2.064,-0.391 l 0,0 5.609,0 0,-3.399 -21.244,0 0,3.399 10e-4,0 z m -0.499,-3.399 0,-0.5 0,0.5 0,0 z"
       id="path4999"
       inkscape:connector-curvature="0"
       style="fill:#d72a1a;fill-opacity:1" /></g><g
     id="g5001"
     transform="matrix(0.88744213,0,0,0.88744213,0.60750621,-23.177951)"
     style="fill:#d72a1a;fill-opacity:1"><path
       d="m 105.366,79.675 0,19.559 6.356,0 0,-3.42 c 0,-0.979 0.733,-1.959 1.711,-1.959 l 8.068,0 c 0.979,0 1.711,0.979 1.711,1.959 l 0,3.42 5.379,0 0,-5.379 c 0,-0.73 -0.732,-1.709 -0.732,-2.688 0,-0.73 1.711,-2.441 1.711,-4.396 l 0,-1.713 c 0,-1.714 -2.689,-5.381 -4.4,-5.381 l -19.804,-0.002 0,0 z m 8.067,4.4 8.068,0 c 0.979,0 1.71,0.979 1.71,1.957 l 0,1.71 c 0,0.979 -0.732,1.713 -1.71,1.713 l -8.068,0 c -0.978,0 -1.711,-0.733 -1.711,-1.713 l 0,-1.71 c 0.001,-0.976 0.733,-1.957 1.711,-1.957 z"
       id="path5003"
       inkscape:connector-curvature="0"
       style="fill:#d72a1a;fill-opacity:1" /><path
       d="m 122.711,99.732 0,-3.919 c -0.002,-0.756 -0.595,-1.458 -1.21,-1.46 l 0,0 -8.068,0 c -0.615,0.002 -1.21,0.706 -1.212,1.46 l 0,0 0,3.919 -7.355,0 0,-20.057 0,-0.501 20.305,0.002 c 1.2,0.043 2.286,1.069 3.233,2.24 l 0,0 c 0.923,1.197 1.644,2.546 1.665,3.641 l 0,0 0,1.714 c -0.002,1.126 -0.479,2.112 -0.919,2.901 l 0,0 c -0.45,0.756 -0.842,1.464 -0.791,1.495 l 0,0 c -0.035,0.758 0.68,1.669 0.731,2.687 l 0,0 0,5.879 -6.379,0 0,-0.001 z m -16.846,-0.999 5.357,0 0,-2.92 c 0.006,-1.206 0.869,-2.431 2.211,-2.46 l 0,0 8.068,0 c 1.34,0.029 2.206,1.254 2.21,2.46 l 0,0 0,2.918 4.379,0 0,-4.878 c 0.052,-0.441 -0.698,-1.489 -0.731,-2.687 l 0,0 c 0.05,-0.7 0.514,-1.214 0.919,-1.984 l 0,0 c 0.415,-0.739 0.795,-1.584 0.791,-2.412 l 0,0 0,-1.714 c 0.021,-0.619 -0.601,-1.962 -1.452,-3.025 l 0,0 c -0.824,-1.092 -1.937,-1.899 -2.449,-1.854 l 0,0 -19.304,-0.002 0,18.558 10e-4,0 z m -0.5,-18.558 0,-0.5 0,0.5 0,0 z m 8.068,9.78 c -1.239,-0.004 -2.209,-0.975 -2.211,-2.214 l 0,0 0,-1.71 c 0.006,-1.202 0.869,-2.427 2.211,-2.457 l 0,0 0,0.499 0,0.502 c -0.615,0 -1.21,0.706 -1.212,1.456 l 0,0 0,1.71 c 0.014,0.721 0.493,1.199 1.212,1.212 l 0,0 8.068,0 c 0.717,-0.013 1.196,-0.491 1.21,-1.212 l 0,0 0,-1.71 c -0.002,-0.754 -0.595,-1.456 -1.21,-1.456 l 0,0 -8.068,0 0,-0.502 0,-0.499 8.068,0 c 1.34,0.028 2.204,1.253 2.21,2.457 l 0,0 0,1.71 c -0.002,1.237 -0.973,2.21 -2.21,2.214 l 0,0 -8.068,0 0,0 z"
       id="path5005"
       inkscape:connector-curvature="0"
       style="fill:#d72a1a;fill-opacity:1" /></g><g
     id="g5007"
     transform="matrix(0.88744213,0,0,0.88744213,0.60750621,-23.177951)"
     style="fill:#d72a1a;fill-opacity:1"><path
       d="m 161.594,79.675 c -1.712,0 -4.399,3.667 -4.399,5.381 l 0,14.178 6.354,0 0,-5.379 11.489,0 0,5.379 6.355,0 0,-14.178 c 0,-1.714 -2.688,-5.381 -4.646,-5.381 l -15.153,0 z m 3.667,4.4 8.066,0 c 0.73,0 1.711,0.979 1.711,1.957 l 0,3.422 -11.489,0 0,-3.422 c 0,-0.976 0.734,-1.957 1.712,-1.957 z"
       id="path5009"
       inkscape:connector-curvature="0"
       style="fill:#d72a1a;fill-opacity:1" /><path
       d="m 156.694,99.733 0,-14.677 c 0.021,-1.095 0.741,-2.443 1.665,-3.643 l 0,0 c 0.946,-1.171 2.034,-2.195 3.236,-2.24 l 0,0 0,0.501 0,0.5 c -0.512,-0.043 -1.625,0.765 -2.449,1.856 l 0,0 c -0.849,1.062 -1.472,2.403 -1.45,3.025 l 0,0 -0.002,13.675 5.354,0 0,-5.378 12.489,0 -0.002,5.38 5.356,0 0,-13.676 c 0.022,-0.622 -0.599,-1.96 -1.477,-3.02 l 0,0 c -0.859,-1.088 -2.001,-1.896 -2.668,-1.862 l 0,0 -15.153,0 0,-0.5 0,-0.499 15.153,0 c 1.29,0.033 2.47,1.057 3.444,2.232 l 0,0 c 0.958,1.201 1.681,2.554 1.701,3.648 l 0,0 0,14.676 -7.355,0 0,-5.379 -10.49,0 0,5.381 -7.352,0 0,0 z m 6.354,-9.779 0,-3.922 c 0.006,-1.204 0.872,-2.429 2.214,-2.459 l 0,0 0,0.502 0,0.499 c -0.616,0.002 -1.212,0.709 -1.214,1.458 l 0,0 0,2.92 10.49,0 0,-2.92 c 0.004,-0.32 -0.178,-0.715 -0.45,-1.008 l 0,0 c -0.267,-0.301 -0.619,-0.462 -0.76,-0.45 l 0,0 -8.065,0 0,-0.499 0,-0.502 8.065,0.002 c 1.126,0.07 2.149,1.16 2.21,2.457 l 0,0 0,3.922 -12.49,0 0,0 z"
       id="path5011"
       inkscape:connector-curvature="0"
       style="fill:#d72a1a;fill-opacity:1" /></g><g
     id="g5013"
     transform="matrix(0.88744213,0,0,0.88744213,0.60750621,-23.177951)"
     style="fill:#d72a1a;fill-opacity:1"><path
       d="m 191.907,99.231 0,-19.558 -6.11,0 0,19.559 6.11,0 0,-0.001 z"
       id="path5015"
       inkscape:connector-curvature="0"
       style="fill:#d72a1a;fill-opacity:1" /><path
       d="m 185.294,99.73 0,-20.56 7.112,0 0,20.06 0,0.5 -7.112,0 0,0 z m 6.612,-0.5 0,-0.5 0,0.5 0,0 z m -5.61,-0.5 5.108,0 0,-18.557 -5.108,0 0,18.557 0,0 z"
       id="path5017"
       inkscape:connector-curvature="0"
       style="fill:#d72a1a;fill-opacity:1" /></g><g
     id="g5019"
     transform="translate(268.85371,-47.116221)"
     style="fill:#d72a1a;fill-opacity:1"><path
       id="_x33_177_2_"
       d="m 192.39488,111.849 0,-12.583899 c 0,-2.385468 -2.38635,-4.773515 -4.77534,-4.773515 l -24.51382,0 0,17.357414 5.63882,0 0,-11.71514 c 0,-0.868759 0.64958,-1.736705 1.51753,-1.736705 l 3.25423,0 c 0.6514,0 1.52104,0.868826 1.52104,1.736705 l 0,11.71338 5.63882,0 0,-11.71338 c 0,-0.868759 0.64788,-1.736705 1.51671,-1.736705 l 3.25511,0 c 0.64958,0 1.52199,0.868826 1.52199,1.736705 l 0,11.71338 5.42315,0 0.002,0.002 0,0 z"
       inkscape:connector-curvature="0"
       style="fill:#d72a1a;fill-opacity:1" /><path
       d="m 192.20765,112.29008 -5.68147,0 0,-12.15622 c 0.004,-0.283021 -0.15849,-0.633596 -0.40064,-0.895364 l 0,0 c -0.23585,-0.265415 -0.55221,-0.408815 -0.678,-0.398752 l 0,0 -3.25599,0 c -0.54656,0 -1.07204,0.624544 -1.0738,1.293806 l 0,0 0,12.15622 -6.52627,0 0,-12.15622 c 0.004,-0.283026 -0.15598,-0.6336 -0.39749,-0.895368 l 0,0 c -0.23586,-0.265415 -0.55033,-0.408815 -0.67801,-0.398752 l 0,0 -3.25423,0 c -0.54655,0 -1.0738,0.624544 -1.07556,1.29381 l 0,0 0,12.15621 -6.52538,0 0,-18.244039 24.95666,0.0018 c 2.67566,0.03145 5.18711,2.54434 5.22082,5.215539 l 0,0 0,12.58484 -0.0189,0.46165 -0.61071,-0.0189 z m 0.18679,-0.44215 0.31385,-0.31384 -0.31385,0.31384 z m -28.84455,-0.44341 4.75049,0 0,-11.27053 c 0.005,-1.070278 0.77203,-2.155588 1.96213,-2.181375 l 0,0 3.25429,0 c 1.00185,0.0629 1.90797,1.031284 1.96389,2.181375 l 0,0 -0.002,11.26871 4.75307,0 0,-11.26871 c 0.004,-1.068454 0.77033,-2.155588 1.96043,-2.181375 l 0,0 3.25599,0 c 1.00015,0.06352 1.91068,1.02946 1.96395,2.181375 l 0,0 0,11.26871 4.53835,0 0,-12.139297 c 0.003,-1.04097 -0.53335,-2.140494 -1.36135,-2.96586 l 0,0 c -0.82625,-0.829707 -1.92578,-1.365695 -2.97115,-1.362173 l 0,0 -24.06833,0 0,16.46915 z"
       id="path5022"
       inkscape:connector-curvature="0"
       style="fill:#d72a1a;fill-opacity:1"
       sodipodi:nodetypes="cccccccscccccccccscccccccccccccccccccccccccccccccccccccccccc" /></g><g
     id="g5024"
     transform="matrix(0.88744213,0,0,0.88744213,238.62487,-47.103221)"
     style="fill:#d72a1a;fill-opacity:1"><path
       id="_x33_181_4_"
       d="m 213.479,126.021 -16.137,0 c -2.688,0 -5.377,-1.713 -5.377,-4.397 l 0,-15.404 21.512,0 0,4.646 -14.422,0 c -0.732,0 -1.713,0.732 -1.713,1.711 0,0.979 0.979,1.712 1.713,1.712 l 13.443,0 0,3.911 -13.443,0 c -0.732,0 -1.713,0.979 -1.713,1.713 0,0.979 0.979,1.954 1.713,1.954 l 14.422,0 0.002,4.154 0,0 z"
       inkscape:connector-curvature="0"
       style="fill:#d72a1a;fill-opacity:1" /><path
       d="m 197.344,126.519 c -2.868,-0.004 -5.854,-1.829 -5.878,-4.896 l 0,0 0,-15.904 22.51,0 0,5.646 -14.921,0 c -0.201,-0.005 -0.543,0.126 -0.796,0.36 l 0,0 c -0.257,0.234 -0.418,0.536 -0.418,0.852 l 0,0 c 0,0.316 0.161,0.619 0.418,0.854 l 0,0 c 0.251,0.233 0.593,0.364 0.796,0.358 l 0,0 13.942,0 0,4.912 -13.942,-0.002 c -0.144,-0.013 -0.51,0.155 -0.777,0.437 l 0,0 c -0.281,0.268 -0.449,0.632 -0.437,0.777 l 0,0 c -0.005,0.318 0.178,0.713 0.451,1.005 l 0,0 c 0.264,0.3 0.617,0.462 0.763,0.449 l 0,0 14.921,0 0.002,4.653 0.002,0.501 -16.636,-0.002 0,0 z m 16.135,-0.499 0,-0.499 0,0.499 0,0 z m -21.014,-4.397 c 0.004,2.3 2.369,3.891 4.879,3.897 l 0,0 15.635,0 -0.002,-3.155 -13.922,0 c -1.129,-0.068 -2.152,-1.156 -2.213,-2.453 l 0,0 c 0.092,-1.123 1.092,-2.122 2.213,-2.213 l 0,0 12.944,-0.002 0,-2.909 -12.944,0 c -1.025,-0.028 -2.169,-0.882 -2.213,-2.212 l 0,0 c 0.046,-1.33 1.189,-2.182 2.213,-2.211 l 0,0 13.922,0 0,-3.646 -20.512,0 0,14.904 0,0 z"
       id="path5027"
       inkscape:connector-curvature="0"
       style="fill:#d72a1a;fill-opacity:1" /></g><g
     id="g5029"
     transform="matrix(0.88744213,0,0,0.88744213,238.62487,-47.103221)"
     style="fill:#d72a1a;fill-opacity:1"><path
       id="_x32_391_4_"
       d="m 167.017,106.462 0,4.398 6.355,0 c 1.711,0 1.711,0 1.711,1.957 l 0,13.199 6.111,0 0,-13.199 c 0,-1.957 0,-1.957 1.959,-1.957 l 6.109,0 0,-4.398 -22.245,0 z"
       inkscape:connector-curvature="0"
       style="fill:#d72a1a;fill-opacity:1" /><path
       d="m 174.583,126.516 0,-13.698 c 0,-0.551 -0.004,-0.94 -0.035,-1.164 l 0,0 c -0.033,-0.222 -0.057,-0.218 -0.057,-0.22 l 0,0 c 0,0 -0.052,-0.031 -0.194,-0.048 l 0,0 c -0.187,-0.024 -0.499,-0.026 -0.926,-0.026 l 0,0 -6.855,0 0,-4.897 0,-0.502 23.245,0 0,5.399 -6.607,0 c -0.731,-0.006 -1.185,0.017 -1.312,0.074 l 0,0 c -0.082,0.057 -0.047,-0.064 -0.12,0.307 l 0,0 c -0.026,0.229 -0.028,0.587 -0.028,1.077 l 0,0 0,13.698 -7.111,0 0,0 z m -7.066,-16.158 5.854,0.002 c 0.835,0.025 1.361,-0.085 1.873,0.415 l 0,0 c 0.41,0.545 0.313,1.066 0.337,2.042 l 0,0 0,12.698 5.113,0 0,-12.698 c 0.025,-0.967 -0.079,-1.519 0.39,-2.067 l 0,0 c 0.549,-0.47 1.1,-0.364 2.069,-0.39 l 0,0 5.608,-0.002 0,-3.397 -21.245,0 0,3.397 0.001,0 z m -0.5,-3.397 0,-0.499 0,0.499 0,0 z"
       id="path5032"
       inkscape:connector-curvature="0"
       style="fill:#d72a1a;fill-opacity:1" /></g><g
     id="g5034"
     transform="matrix(0.88744213,0,0,0.88744213,238.62487,-47.103221)"
     style="fill:#d72a1a;fill-opacity:1"><path
       id="_x33_187_1_"
       d="m 94.611,106.565 c -1.712,0 -5.379,2.689 -5.379,4.397 l 0,2.69 c 0,1.713 3.667,4.4 5.379,4.4 l 10.756,0 c 0.978,0 1.956,0.979 1.956,1.711 0,0.978 -0.979,1.954 -1.956,1.954 l -16.135,0 0,4.399 18.09,0 c 1.712,0 5.134,-2.688 5.134,-4.399 l 0,-2.688 c 0,-1.957 -3.422,-4.646 -5.134,-4.646 l -10.756,0 c -0.979,0 -1.955,-0.733 -1.955,-1.713 0,-0.978 0.977,-1.713 1.955,-1.713 l 15.89,0 0,-4.397 -17.845,0 0,0.005 z"
       inkscape:connector-curvature="0"
       style="fill:#d72a1a;fill-opacity:1" /><path
       d="m 88.732,126.618 0,-5.401 16.634,0 c 0.319,0.005 0.702,-0.172 0.992,-0.464 l 0,0 c 0.292,-0.288 0.468,-0.671 0.464,-0.988 l 0,0 c 0.012,-0.145 -0.149,-0.497 -0.45,-0.762 l 0,0 c -0.292,-0.273 -0.688,-0.454 -1.007,-0.45 l 0,0 -10.756,0 c -1.092,-0.021 -2.44,-0.741 -3.64,-1.665 l 0,0 c -1.168,-0.947 -2.194,-2.033 -2.238,-3.234 l 0,0 0,-2.691 c 0.043,-1.199 1.069,-2.285 2.238,-3.233 l 0,0 c 1.022,-0.786 2.153,-1.426 3.141,-1.61 l 0,0 0,-0.058 18.845,0 0,5.396 -16.39,0.002 c -0.75,0 -1.455,0.595 -1.455,1.212 l 0,0 c 0,0.618 0.703,1.212 1.455,1.212 l 0,0 10.756,0 c 1.098,0.021 2.393,0.753 3.535,1.71 l 0,0 c 1.114,0.978 2.071,2.169 2.099,3.438 l 0,0 0,2.688 c -0.038,1.177 -0.995,2.278 -2.105,3.226 l 0,0 c -1.138,0.924 -2.432,1.651 -3.528,1.674 l 0,0 -18.59,0 0,-0.002 z m 1.001,-1.001 17.589,0 c 0.615,0.021 1.89,-0.597 2.89,-1.443 l 0,0 c 1.027,-0.822 1.782,-1.923 1.745,-2.455 l 0,0 0,-2.688 c 0.027,-0.689 -0.728,-1.82 -1.751,-2.679 l 0,0 c -0.999,-0.874 -2.271,-1.489 -2.884,-1.469 l 0,0 -10.757,0 c -1.206,-0.006 -2.426,-0.872 -2.455,-2.213 l 0,0 c 0.029,-1.338 1.249,-2.206 2.455,-2.212 l 0,0 15.389,-0.002 0,-3.396 -16.843,0 0,0.005 -0.501,0 c -0.617,-0.021 -1.959,0.601 -3.022,1.45 l 0,0 c -1.092,0.826 -1.9,1.938 -1.856,2.446 l 0,0 0,2.691 c -0.043,0.51 0.765,1.624 1.856,2.449 l 0,0 c 1.063,0.849 2.405,1.471 3.022,1.45 l 0,0 10.757,0 c 1.297,0.062 2.387,1.083 2.457,2.212 l 0,0 c -0.038,1.299 -1.156,2.416 -2.457,2.453 l 0,0 -15.634,0 0,3.401 0,0 z m 4.876,-19.052 0,-0.501 0,0.501 0,0 z"
       id="path5037"
       inkscape:connector-curvature="0"
       style="fill:#d72a1a;fill-opacity:1" /></g><g
     id="g5039"
     transform="matrix(0.88744213,0,0,0.88744213,238.62487,-47.103221)"
     style="fill:#d72a1a;fill-opacity:1"><path
       id="_x33_187_2_"
       d="m 146.397,106.565 c -1.713,0 -5.38,2.689 -5.38,4.397 l 0,2.69 c 0,1.713 3.667,4.4 5.38,4.4 l 10.756,0 c 0.978,0 1.956,0.979 1.956,1.711 0,0.978 -0.979,1.954 -1.956,1.954 l -16.136,0 0,4.399 18.091,0 c 1.712,0 5.134,-2.688 5.134,-4.399 l 0,-2.688 c 0,-1.957 -3.422,-4.646 -5.134,-4.646 l -10.757,0 c -0.978,0 -1.955,-0.733 -1.955,-1.713 0,-0.978 0.978,-1.713 1.955,-1.713 l 15.891,0 0,-4.397 -17.845,0 0,0.005 0,0 z"
       inkscape:connector-curvature="0"
       style="fill:#d72a1a;fill-opacity:1" /><path
       d="m 140.515,126.618 0,-5.401 16.638,0 c 0.317,0.005 0.701,-0.172 0.991,-0.464 l 0,0 c 0.292,-0.288 0.468,-0.671 0.464,-0.988 l 0,0 c 0.012,-0.145 -0.149,-0.497 -0.447,-0.762 l 0,0 c -0.294,-0.273 -0.69,-0.454 -1.007,-0.45 l 0,0 -10.756,0 c -1.094,-0.021 -2.442,-0.741 -3.642,-1.665 l 0,0 c -1.168,-0.947 -2.194,-2.033 -2.237,-3.234 l 0,0 -0.002,-2.691 c 0.046,-1.199 1.071,-2.285 2.242,-3.233 l 0,0 c 1.021,-0.786 2.152,-1.426 3.141,-1.61 l 0,0 0,-0.058 18.844,0 0,5.396 -16.392,0.002 c -0.75,0 -1.454,0.597 -1.457,1.212 l 0,0 c 0.002,0.618 0.705,1.212 1.457,1.212 l 0,0 10.757,0 c 1.098,0.021 2.395,0.753 3.534,1.71 l 0,0 c 1.115,0.978 2.074,2.169 2.101,3.438 l 0,0 0,2.688 c -0.037,1.177 -0.997,2.278 -2.107,3.226 l 0,0 c -1.137,0.924 -2.43,1.651 -3.528,1.674 l 0,0 -18.594,0 0,-0.002 z m 1.003,-1.001 17.589,0 c 0.615,0.021 1.889,-0.597 2.89,-1.443 l 0,0 c 1.028,-0.822 1.782,-1.923 1.745,-2.455 l 0,0 0,-2.688 c 0.027,-0.689 -0.727,-1.82 -1.75,-2.679 l 0,0 c -0.999,-0.874 -2.271,-1.489 -2.884,-1.469 l 0,0 -10.757,0 c -1.206,-0.006 -2.426,-0.872 -2.455,-2.213 l 0,0 c 0.029,-1.34 1.251,-2.206 2.455,-2.212 l 0,0 15.391,0 -0.002,-3.398 -16.843,0 0,0.003 -0.5,0 c -0.62,-0.02 -1.962,0.603 -3.025,1.452 l 0,0 c -1.092,0.826 -1.899,1.938 -1.856,2.446 l 0,0 0,2.691 c -0.043,0.51 0.764,1.624 1.856,2.449 l 0,0 c 1.063,0.849 2.405,1.471 3.025,1.45 l 0,0 10.756,0 c 1.295,0.062 2.385,1.083 2.455,2.212 l 0,0 c -0.037,1.299 -1.156,2.416 -2.455,2.453 l 0,0 -15.637,0 0.002,3.401 0,0 z m 4.879,-19.052 0,-0.501 0,0.501 0,0 z"
       id="path5042"
       inkscape:connector-curvature="0"
       style="fill:#d72a1a;fill-opacity:1" /></g><g
     id="g5044"
     transform="matrix(0.88744213,0,0,0.88744213,238.62487,-47.103221)"
     style="fill:#d72a1a;fill-opacity:1"><path
       d="m 114.412,106.565 0,8.804 c 0,1.71 2.688,4.399 4.4,4.399 l 4.398,0 0,6.354 6.357,0 0,-6.354 4.4,0 c 1.71,0 4.4,-2.689 4.4,-4.399 l 0,-8.804 -6.112,0 0,7.092 c 0,0.732 -0.978,1.712 -1.956,1.712 l -7.822,0 c -0.979,0 -1.956,-0.979 -1.956,-1.712 l 0,-7.092 -6.109,0 z"
       id="path5046"
       inkscape:connector-curvature="0"
       style="fill:#d72a1a;fill-opacity:1" /><path
       d="m 122.709,126.621 0,-6.354 -3.897,0 c -1.112,-0.021 -2.246,-0.771 -3.196,-1.705 l 0,0 c -0.935,-0.951 -1.685,-2.084 -1.705,-3.195 l 0,0 0,-8.803 0,-0.499 7.11,0 0,7.591 c -0.012,0.144 0.149,0.497 0.448,0.763 l 0,0 c 0.294,0.271 0.688,0.453 1.009,0.449 l 0,0 7.821,0 c 0.319,0.004 0.713,-0.178 1.007,-0.449 l 0,0 c 0.301,-0.266 0.462,-0.619 0.45,-0.763 l 0,0 0,-7.591 7.112,0 0,9.302 c -0.023,1.111 -0.772,2.244 -1.705,3.195 l 0,0 c -0.953,0.935 -2.086,1.685 -3.194,1.705 l 0,0 -3.901,0 0,6.354 -7.359,0 0,0 z m 0.999,-7.354 0,6.354 5.357,0 0,-6.354 4.902,0 c 0.599,0.022 1.666,-0.574 2.486,-1.411 l 0,0 c 0.839,-0.82 1.434,-1.887 1.413,-2.488 l 0,0 0,-8.303 -5.113,0 0,6.592 c -0.07,1.129 -1.16,2.15 -2.455,2.211 l 0,0 -7.821,0.002 c -1.297,-0.063 -2.387,-1.086 -2.457,-2.213 l 0,0 0,-6.592 -5.109,0 0,8.303 c -0.021,0.602 0.574,1.668 1.411,2.488 l 0,0 c 0.821,0.837 1.888,1.434 2.49,1.411 l 0,0 4.896,0 0,0 z m -9.296,-12.203 0,-0.5 0,0.5 0,0 z"
       id="path5048"
       inkscape:connector-curvature="0"
       style="fill:#d72a1a;fill-opacity:1" /></g></svg>