<?xml version="1.0" encoding="UTF-8" standalone="no"?>
<!-- Generator: Adobe Illustrator 13.0.0, SVG Export Plug-In . SVG Version: 6.00 Build 14948)  -->

<svg
   xmlns:ns0="&amp;#38;#38;#38;#38;ns_sfw;"
   xmlns:dc="http://purl.org/dc/elements/1.1/"
   xmlns:cc="http://creativecommons.org/ns#"
   xmlns:rdf="http://www.w3.org/1999/02/22-rdf-syntax-ns#"
   xmlns:svg="http://www.w3.org/2000/svg"
   xmlns="http://www.w3.org/2000/svg"
   xmlns:sodipodi="http://sodipodi.sourceforge.net/DTD/sodipodi-0.dtd"
   xmlns:inkscape="http://www.inkscape.org/namespaces/inkscape"
   version="1.1"
   id="Ebene_1"
   x="0px"
   y="0px"
   width="333.3457"
   height="167.5955"
   viewBox="23.577 0 333.3457 167.59548"
   enable-background="new 23.577 0 290.5 85.789"
   xml:space="preserve"
   inkscape:version="0.91 r13725"
   sodipodi:docname="logo.svg"><defs
     id="defs5564" /><sodipodi:namedview
     pagecolor="#ffffff"
     bordercolor="#666666"
     borderopacity="1"
     objecttolerance="10"
     gridtolerance="10"
     guidetolerance="10"
     inkscape:pageopacity="0"
     inkscape:pageshadow="2"
     inkscape:window-width="1680"
     inkscape:window-height="975"
     id="namedview5562"
     showgrid="false"
     inkscape:zoom="1.9405848"
     inkscape:cx="146.79988"
     inkscape:cy="-19.169541"
     inkscape:window-x="1671"
     inkscape:window-y="-9"
     inkscape:window-maximized="1"
     inkscape:current-layer="Ebene_1"
     showguides="true"
     inkscape:guide-bbox="true"
     fit-margin-top="0"
     fit-margin-left="0"
     fit-margin-right="0"
     fit-margin-bottom="0"><sodipodi:guide
       position="-3.3569335e-007,28.67546"
       orientation="1,0"
       id="guide4161" /><sodipodi:guide
       position="332.88934,9.6090456"
       orientation="1,0"
       id="guide4163" /></sodipodi:namedview><metadata
     id="metadata5496"><ns0:sfw><ns0:slices /><ns0:sliceSourceBounds
         x="816.781"
         y="517.325"
         width="285.603"
         height="85.789"
         bottomLeftOrigin="true" /></ns0:sfw><rdf:RDF><cc:Work
         rdf:about=""><dc:format>image/svg+xml</dc:format><dc:type
           rdf:resource="http://purl.org/dc/dcmitype/StillImage" /><dc:title></dc:title></cc:Work></rdf:RDF></metadata><g
     id="g4293"
     transform="matrix(1.0041629,0,0,1.0041629,-337.64057,220.81023)"
     style="fill:#f8b436;fill-opacity:1"><g
       transform="matrix(1.8003144,0,0,1.8003144,304.57623,-238.34734)"
       style="fill:#f8b436;fill-opacity:1"
       id="g4207"><path
         style="fill:#f8b436;fill-opacity:1"
         inkscape:connector-curvature="0"
         id="path5524"
         d="m 48.071,85.789 -9.103,0 c -2.601,0 -3.901,-1.301 -3.901,-3.901 l 0,-7.803 13.004,0 0,2.602 -10.404,0 0,1.95 10.403,0 0,2.601 -10.403,0 0,0.65 c 0,0.867 0.434,1.301 1.301,1.301 l 9.103,0 0,2.6 z" /><path
         style="fill:#f8b436;fill-opacity:1"
         inkscape:connector-curvature="0"
         id="path5526"
         d="m 49.372,85.789 0,-11.704 9.103,0 c 2.601,0 3.901,1.301 3.901,3.901 l 0,7.803 -2.601,0 0,-7.803 c 0,-0.866 -0.434,-1.3 -1.3,-1.3 l -6.502,0 0,9.103 -2.601,0 z" /><path
         style="fill:#f8b436;fill-opacity:1"
         inkscape:connector-curvature="0"
         id="path5528"
         d="m 63.676,74.085 13.004,0 0,2.602 -5.202,0 0,9.103 -2.601,0 0,-9.103 -5.202,0 0,-2.602 z" /><path
         style="fill:#f8b436;fill-opacity:1"
         inkscape:connector-curvature="0"
         id="path5530"
         d="m 90.984,85.789 -9.103,0 c -2.601,0 -3.901,-1.301 -3.901,-3.901 l 0,-7.803 13.004,0 0,2.602 -10.403,0 0,1.95 10.403,0 0,2.601 -10.403,0 0,0.65 c 0,0.867 0.434,1.301 1.301,1.301 l 9.103,0 0,2.6 z" /><path
         style="fill:#f8b436;fill-opacity:1"
         inkscape:connector-curvature="0"
         id="path5532"
         d="m 94.886,81.238 0,4.552 -2.601,0 0,-11.705 9.103,0 c 2.601,0 3.901,1.188 3.901,3.563 0,1.127 -0.187,1.955 -0.559,2.483 0.373,0.616 0.559,1.418 0.559,2.406 l 0,3.251 -2.601,0 0,-3.251 c 0,-0.867 -0.434,-1.301 -1.3,-1.301 l -6.502,0 z m 0,-2.601 7.803,0 0,-1.95 -7.803,0 0,1.95 z" /><path
         style="fill:#f8b436;fill-opacity:1"
         inkscape:connector-curvature="0"
         id="path5534"
         d="m 106.589,74.085 13.004,0 0,2.602 -5.202,0 0,9.103 -2.601,0 0,-9.103 -5.202,0 0,-2.602 z" /><path
         style="fill:#f8b436;fill-opacity:1"
         inkscape:connector-curvature="0"
         id="path5536"
         d="m 123.495,82.538 0,3.251 -2.601,0 0,-7.803 c 0,-2.601 1.3,-3.901 3.901,-3.901 l 5.202,0 c 2.601,0 3.901,1.301 3.901,3.901 l 0,7.803 -2.601,0 0,-3.251 -7.802,0 z m 7.802,-2.6 0,-1.951 c 0,-0.866 -0.434,-1.3 -1.3,-1.3 l -5.202,0 c -0.867,0 -1.301,0.434 -1.301,1.3 l 0,1.951 7.803,0 z" /><path
         style="fill:#f8b436;fill-opacity:1"
         inkscape:connector-curvature="0"
         id="path5538"
         d="m 135.199,85.789 0,-11.704 2.601,0 0,11.704 -2.601,0 z" /><path
         style="fill:#f8b436;fill-opacity:1"
         inkscape:connector-curvature="0"
         id="path5540"
         d="m 139.1,85.789 0,-11.704 9.103,0 c 2.601,0 3.901,1.301 3.901,3.901 l 0,7.803 -2.601,0 0,-7.803 c 0,-0.866 -0.434,-1.3 -1.3,-1.3 l -6.502,0 0,9.103 -2.601,0 z" /><path
         style="fill:#f8b436;fill-opacity:1"
         inkscape:connector-curvature="0"
         id="path5542"
         d="m 153.404,85.789 0,-11.704 10.403,0 c 2.602,0 3.901,1.301 3.901,3.901 l 0,7.803 -2.601,0 0,-7.803 c 0,-0.866 -0.434,-1.3 -1.301,-1.3 l -1.95,0 0,9.103 -2.601,0 0,-9.103 -3.251,0 0,9.103 -2.6,0 z" /><path
         style="fill:#f8b436;fill-opacity:1"
         inkscape:connector-curvature="0"
         id="path5544"
         d="m 182.013,85.789 -9.103,0 c -2.601,0 -3.901,-1.301 -3.901,-3.901 l 0,-7.803 13.004,0 0,2.602 -10.403,0 0,1.95 10.403,0 0,2.601 -10.403,0 0,0.65 c 0,0.867 0.434,1.301 1.301,1.301 l 9.103,0 0,2.6 z" /><path
         style="fill:#f8b436;fill-opacity:1"
         inkscape:connector-curvature="0"
         id="path5546"
         d="m 183.314,85.789 0,-11.704 9.103,0 c 2.602,0 3.901,1.301 3.901,3.901 l 0,7.803 -2.601,0 0,-7.803 c 0,-0.866 -0.434,-1.3 -1.301,-1.3 l -6.502,0 0,9.103 -2.6,0 z" /><path
         style="fill:#f8b436;fill-opacity:1"
         inkscape:connector-curvature="0"
         id="path5548"
         d="m 197.619,74.085 13.004,0 0,2.602 -5.201,0 0,9.103 -2.602,0 0,-9.103 -5.201,0 0,-2.602 z" /></g><g
       style="fill:#f8b436;fill-opacity:1"
       transform="matrix(2.0136788,0,0,2.0136788,-106.93057,-253.52023)"
       id="g4224"><g
         style="fill:#f8b436;fill-opacity:1"
         transform="matrix(0.89383664,0,0,0.89383664,88.475205,22.899729)"
         id="g4283"><path
           d="m 217.125,83.189 10.403,0 0,-1.951 -6.502,0 c -2.601,0 -3.901,-1.175 -3.901,-3.523 0,-2.419 1.301,-3.629 3.901,-3.629 l 9.103,0 0,2.602 -10.403,0 0,1.95 6.502,0 c 2.602,0 3.901,1.192 3.901,3.576 0,2.384 -1.3,3.576 -3.901,3.576 l -9.103,0 0,-2.601 z"
           id="path5550"
           inkscape:connector-curvature="0"
           style="fill:#f8b436;fill-opacity:1" /><path
           d="m 236.63,81.238 -1.3,0 c -2.601,0 -3.901,-1.3 -3.901,-3.901 l 0,-3.251 2.601,0 0,3.251 c 0,0.867 0.434,1.301 1.301,1.301 l 5.201,0 c 0.867,0 1.301,-0.434 1.301,-1.301 l 0,-3.251 2.601,0 0,3.251 c 0,2.602 -1.3,3.901 -3.901,3.901 l -1.3,0 0,4.552 -2.602,0 0,-4.552 z"
           id="path5552"
           inkscape:connector-curvature="0"
           style="fill:#f8b436;fill-opacity:1" /><path
           d="m 245.734,83.189 10.403,0 0,-1.951 -6.502,0 c -2.601,0 -3.901,-1.175 -3.901,-3.523 0,-2.419 1.301,-3.629 3.901,-3.629 l 9.103,0 0,2.602 -10.403,0 0,1.95 6.502,0 c 2.602,0 3.901,1.192 3.901,3.576 0,2.384 -1.3,3.576 -3.901,3.576 l -9.103,0 0,-2.601 z"
           id="path5554"
           inkscape:connector-curvature="0"
           style="fill:#f8b436;fill-opacity:1" /><path
           d="m 260.039,74.085 13.004,0 0,2.602 -5.201,0 0,9.103 -2.602,0 0,-9.103 -5.201,0 0,-2.602 z"
           id="path5556"
           inkscape:connector-curvature="0"
           style="fill:#f8b436;fill-opacity:1" /><path
           d="m 287.346,85.789 -9.103,0 c -2.601,0 -3.901,-1.301 -3.901,-3.901 l 0,-7.803 13.004,0 0,2.602 -10.403,0 0,1.95 10.403,0 0,2.601 -10.403,0 0,0.65 c 0,0.867 0.434,1.301 1.301,1.301 l 9.103,0 0,2.6 z"
           id="path5558"
           inkscape:connector-curvature="0"
           style="fill:#f8b436;fill-opacity:1" /><path
           d="m 288.647,85.789 0,-11.704 10.403,0 c 2.601,0 3.901,1.301 3.901,3.901 l 0,7.803 -2.601,0 0,-7.803 c 0,-0.866 -0.434,-1.3 -1.301,-1.3 l -1.95,0 0,9.103 -2.602,0 0,-9.103 -3.251,0 0,9.103 -2.599,0 z"
           id="path5560"
           inkscape:connector-curvature="0"
           style="fill:#f8b436;fill-opacity:1" /></g></g></g><g
     inkscape:groupmode="layer"
     id="layer1"
     inkscape:label="Layer 1"
     transform="translate(-3.3569336e-7,59.999993)" /><g
     inkscape:groupmode="layer"
     id="layer2"
     inkscape:label="Layer 2"
     transform="translate(-3.3569336e-7,59.999993)"><g
       id="g4231"
       transform="translate(0,-60)"><path
         sodipodi:nodetypes="sssssssss"
         inkscape:connector-curvature="0"
         id="path4226"
         d="m 353.33926,51.887261 c 0,11.488235 -9.00114,32.070356 -39.32009,39.486763 -29.16424,7.133951 -81.70357,4.967374 -125.56105,4.967374 -40.98708,0 -96.906926,2.726667 -124.938186,-5.173416 C 30.374953,81.826693 27.220771,60.81934 27.220771,48.607857 c 0,-14.024618 8.764344,-36.963897 51.527274,-44.3100823 25.961295,-4.45985564 80.291405,-1.2371905 114.082615,-1.2371905 48.16742,0 99.44025,-0.8965189 129.10823,7.5128118 25.42823,7.207585 31.40037,30.911599 31.40037,41.313865 z"
         style="opacity:1;fill:#fafafa;fill-opacity:1;fill-rule:evenodd;stroke:none;stroke-width:1.29999995;stroke-linecap:round;stroke-linejoin:round;stroke-miterlimit:4;stroke-dasharray:none;stroke-dashoffset:0;stroke-opacity:1" /><path
         id="path5500"
         d="m 72.098494,1e-5 c -0.608758,-6e-4 -1.222797,0.0255 -1.839844,0.0625 -0.0047,2.8e-4 -0.01089,-2.8e-4 -0.01563,0 -20.448399,1.24061 -45.027435,21.60414 -46.58789,48.24414 0,0 0,0.002 0,0.002 -0.05179,0.88486 -0.07813,1.77409 -0.07813,2.66993 l 0,0.002 0,0.002 c 0,13.75438 6.266942,26.26936 15.15039,35.58203 0.338728,0.36102 0.68263,0.71478 1.029297,1.0664 0.06241,0.0623 0.122888,0.1255 0.185547,0.1875 7.508509,7.54882 16.80186,10.93239 26.150391,12.6543 0.01614,0.003 0.03269,0.007 0.04883,0.01 0.586711,0.10728 1.173135,0.20266 1.759765,0.28125 0.272663,0.0375 0.542941,0.067 0.814454,0.0977 0.394329,0.0438 0.789807,0.0868 1.183593,0.11719 0.297702,0.0229 0.592751,0.0364 0.888672,0.0508 0.283079,0.0145 0.567034,0.0414 0.849609,0.0488 l 0.63086,0 209.695302,0 26.26759,0 c 21.46017,0 48.69141,-21.40955 48.69141,-50.09571 0,-28.68766 -27.23406,-51.00516 -48.69531,-50.98242 l -235.955086,0 -0.173828,0 z m -0.193359,10.76367 234.935545,0 1.7539,0 c 16.38154,0 36.55078,18.31803 36.55078,40.22071 0,21.90267 -20.17146,39.72265 -36.55078,39.72265 l -7.73632,0 -228.945313,0 -0.0078,0 c -0.5092,0 -1.023251,-0.0168 -1.539063,-0.0508 -0.0026,-1.7e-4 -0.0051,1.8e-4 -0.0078,0 -0.515896,-0.0342 -1.035581,-0.0869 -1.556641,-0.15429 -9.429899,-1.22285 -19.585446,-7.81188 -26.201172,-17.32227 0,0 0,-0.002 0,-0.002 -1.10229,-1.58471 -2.106177,-3.25075 -2.992187,-4.98633 0,0 0,-0.002 0,-0.002 -0.295134,-0.57818 -0.579445,-1.16455 -0.847657,-1.75781 0,0 0,-0.002 0,-0.002 -0.536609,-1.18706 -1.017441,-2.40217 -1.4375,-3.64453 0,0 0,-0.002 0,-0.002 -0.2099,-0.62089 -0.405384,-1.24741 -0.583984,-1.88086 0,0 0,-0.002 0,-0.002 -0.893697,-3.17029 -1.386719,-6.49419 -1.386719,-9.91602 0,-4.10666 0.710308,-8.06811 1.970703,-11.79687 0,0 0,-0.002 0,-0.002 0.05471,-0.16181 0.120969,-0.31955 0.177735,-0.48047 1.033197,-2.92888 2.394765,-5.71355 4.029297,-8.30078 0,0 0.002,-0.002 0.002,-0.002 5.519909,-8.73609 14.025805,-15.77052 22.517578,-18.38672 1.592207,-0.49055 3.184284,-0.84312 4.755859,-1.04688 1.04421,-0.13501 2.004607,-0.18072 3.09961,-0.20508 z m 6.11914,8.66993 c -18.885129,0 -32.61914,14.27737 -32.61914,31.83008 0,17.5527 13.732066,30.67187 32.61914,30.67187 l 224.667965,0 c 18.88902,0 32.40039,-13.11812 32.40039,-30.66992 0,-17.55271 -13.51236,-31.83203 -32.40234,-31.83203 l -224.666015,0 z"
         style="fill:#b4b4b4;fill-opacity:1"
         inkscape:connector-curvature="0" /><path
         id="path5502"
         d="m 69.315291,31.40626 0,39.74024 10.5,0 0,-28.6836 16.271484,28.6836 10.501955,0 0,-39.74024 -10.500002,0 0,27.78711 -15.486328,-27.78711 -11.287109,0 z m 43.837889,0 0,7.16992 10.49804,0 0,-7.16992 -10.49804,0 z m 157.75781,0 0,14.64063 c 0,0 -3.15309,-2.6875 -7.35352,-2.6875 -6.56047,0 -12.07226,6.57225 -12.07226,13.74414 0,7.46889 5.51393,14.9414 12.07226,14.9414 4.20043,0 7.35352,-1.79296 7.35352,-1.79296 l 0,0.89257 10.5,0 0,-39.73828 -10.5,0 z m -104.20898,3.58399 0,5.67968 -5.51368,0 0,3.58594 5.51368,0 0,26.89063 10.75976,0 0,-26.89063 5.51367,0 0,-3.58593 -5.51367,0 0,-5.67969 -10.75976,0 z m -18.12305,8.27734 c -0.39728,-0.003 -0.70381,0.0231 -1.30469,0.0898 -2.34668,0.26074 -4.98936,2.39062 -7.35156,3.58594 l 0,-2.6875 -10.49805,0 0,26.89062 10.49805,0 0,-18.52734 c 0,-1.79297 3.67463,-3.88477 5.25195,-3.88477 1.57515,0 4.46094,2.0918 4.46094,3.88477 l 0,18.52539 10.76367,0.002 0,-18.52734 c 0,-3.88417 -6.56863,-9.0725 -9.97461,-9.26172 -0.96141,-0.0534 -1.44843,-0.0865 -1.8457,-0.0898 z m 87.85742,0 c -0.39727,-0.003 -0.70576,0.0231 -1.30664,0.0898 -2.34668,0.26074 -4.98741,2.39062 -7.34961,3.58594 l 0,-2.6875 -10.5,0 0,26.89062 10.5,0 0,-18.52734 c 0,-1.79297 3.67463,-3.88477 5.25195,-3.88477 1.57515,0 4.45899,2.0918 4.45899,3.88477 l 0,18.52539 10.76367,0.002 0,-18.52734 c 0,-3.88417 -6.56668,-9.0725 -9.97266,-9.26172 -0.96141,-0.0534 -1.44842,-0.0865 -1.8457,-0.0898 z m -38.76172,0.0898 c -8.39977,0 -15.48633,6.57286 -15.48633,14.64063 0,8.3672 7.08656,14.93945 15.48633,14.93945 7.35074,0 13.38773,-4.77867 14.96289,-11.05469 l -10.75976,0 0,3.58789 c 0,2.98707 -1.83595,3.88672 -4.19922,3.88672 -2.36112,0 -3.9375,-0.89721 -3.9375,-3.88672 l 0,-7.46875 19.42773,0 c -0.005,-8.06899 -6.82915,-14.64453 -15.49414,-14.64453 z m 103.42774,0 c -8.66498,0 -15.49219,6.57286 -15.49219,14.64063 0,8.3672 6.82399,14.93945 15.49219,14.93945 8.39333,0 15.48437,-6.57225 15.48437,-14.93945 -0.004,-8.06655 -7.08889,-14.64063 -15.48437,-14.64063 z m -187.94922,0.89844 0,26.89062 10.49804,0 0,-26.89062 -10.49804,0 z m 84.52148,1.79101 c 2.36328,0 4.19922,1.79419 4.19922,4.78125 l 0,2.6875 -8.13672,0 0,-2.6875 c 0,-2.98828 1.57637,-4.78125 3.9375,-4.78125 z m 103.42774,0 c 2.35576,0 3.93554,1.79419 3.93554,4.78125 l 0,14.64063 c 0,2.98584 -1.57978,3.88477 -3.93554,3.88477 -2.62526,0 -4.20313,-0.89648 -4.20313,-3.88477 l 0,-14.64063 c -0.002,-2.98828 1.57571,-4.78125 4.20313,-4.78125 z m -34.12891,1.79297 c 2.36006,0 3.9375,2.0924 3.9375,4.78125 l 0,11.05469 c 0,2.68885 -1.57744,3.58594 -3.9375,3.58594 -2.62311,0 -4.20117,-0.89465 -4.20117,-3.58594 l 0,-11.05469 c 0,-2.68885 1.57806,-4.78125 4.20117,-4.78125 z"
         style="fill:#fafafa;fill-opacity:1"
         inkscape:connector-curvature="0" /></g></g></svg>