<?xml version="1.0" encoding="UTF-8" standalone="no"?>
<!-- Generator: Adobe Illustrator 13.0.0, SVG Export Plug-In . SVG Version: 6.00 Build 14948)  -->

<svg
   xmlns:ns0="&amp;#38;#38;#38;#38;#38;ns_sfw;"
   xmlns:dc="http://purl.org/dc/elements/1.1/"
   xmlns:cc="http://creativecommons.org/ns#"
   xmlns:rdf="http://www.w3.org/1999/02/22-rdf-syntax-ns#"
   xmlns:svg="http://www.w3.org/2000/svg"
   xmlns="http://www.w3.org/2000/svg"
   xmlns:xlink="http://www.w3.org/1999/xlink"
   xmlns:sodipodi="http://sodipodi.sourceforge.net/DTD/sodipodi-0.dtd"
   xmlns:inkscape="http://www.inkscape.org/namespaces/inkscape"
   version="1.1"
   id="Ebene_1"
   x="0px"
   y="0px"
   width="527.16962"
   height="176.22702"
   viewBox="0 0 527.16961 176.22702"
   enable-background="new 0 0 566.924 121.752"
   xml:space="preserve"
   inkscape:version="0.91 r13725"
   sodipodi:docname="logoconsole.svg"><defs
     id="defs39"><linearGradient
       inkscape:collect="always"
       id="linearGradient7750"><stop
         style="stop-color:#000000;stop-opacity:1;"
         offset="0"
         id="stop7752" /><stop
         style="stop-color:#000000;stop-opacity:0;"
         offset="1"
         id="stop7754" /></linearGradient><linearGradient
       inkscape:collect="always"
       id="linearGradient5683"><stop
         style="stop-color:#f2c20e;stop-opacity:1"
         offset="0"
         id="stop5685" /><stop
         style="stop-color:#f37e00;stop-opacity:1"
         offset="0.08655605"
         id="stop5693" /><stop
         id="stop5695"
         offset="0.31761673"
         style="stop-color:#f94600;stop-opacity:1" /><stop
         style="stop-color:#f94500;stop-opacity:1"
         offset="0.42617854"
         id="stop5697" /><stop
         id="stop5699"
         offset="0.62643111"
         style="stop-color:#6c3f4f;stop-opacity:1" /><stop
         style="stop-color:#5d5773;stop-opacity:1"
         offset="0.71885544"
         id="stop5701" /><stop
         id="stop5703"
         offset="0.77093571"
         style="stop-color:#577294;stop-opacity:1" /><stop
         style="stop-color:#5285a0;stop-opacity:1"
         offset="0.8347525"
         id="stop5705" /><stop
         style="stop-color:#51bd7d;stop-opacity:1"
         offset="1"
         id="stop5687" /></linearGradient><color-profile
       name="Adobe-RGB--1998-"
       xlink:href="C:\WINDOWS\system32\spool\drivers\color\AdobeRGB1998.icc"
       id="color-profile4978" /><linearGradient
       inkscape:collect="always"
       xlink:href="#linearGradient5683"
       id="linearGradient5689"
       x1="-1"
       y1="152.6721"
       x2="526.04285"
       y2="152.6721"
       gradientUnits="userSpaceOnUse"
       gradientTransform="matrix(1.0001758,0,0,1,1.0001758,1.7475496)" /><linearGradient
       inkscape:collect="always"
       xlink:href="#linearGradient7750"
       id="linearGradient7756"
       x1="-1"
       y1="152.6721"
       x2="526.1355"
       y2="152.6721"
       gradientUnits="userSpaceOnUse"
       gradientTransform="translate(1,1.7475496)" /></defs><sodipodi:namedview
     pagecolor="#ffffff"
     bordercolor="#666666"
     borderopacity="1"
     objecttolerance="10"
     gridtolerance="10"
     guidetolerance="10"
     inkscape:pageopacity="0"
     inkscape:pageshadow="2"
     inkscape:window-width="1680"
     inkscape:window-height="975"
     id="namedview37"
     showgrid="false"
     inkscape:zoom="2.2005665"
     inkscape:cx="356.66116"
     inkscape:cy="6.0689516"
     inkscape:window-x="-9"
     inkscape:window-y="-9"
     inkscape:window-maximized="1"
     inkscape:current-layer="layer2"
     showguides="true"
     inkscape:guide-bbox="true"
     fit-margin-top="0"
     fit-margin-left="0"
     fit-margin-right="0"
     fit-margin-bottom="0"><sodipodi:guide
       position="541.37257,176.24574"
       orientation="0,1"
       id="guide7195" /><sodipodi:guide
       position="544.22536,52.039461"
       orientation="0,1"
       id="guide7197" /><sodipodi:guide
       position="527.15849,43.692775"
       orientation="1,0"
       id="guide4240" /></sodipodi:namedview><metadata
     id="metadata3"><ns0:sfw><ns0:slices /><ns0:sliceSourceBounds
         x="677.038"
         y="478.623"
         width="566.925"
         height="121.753"
         bottomLeftOrigin="true" /></ns0:sfw><rdf:RDF><cc:Work
         rdf:about=""><dc:format>image/svg+xml</dc:format><dc:type
           rdf:resource="http://purl.org/dc/dcmitype/StillImage" /><dc:title></dc:title></cc:Work></rdf:RDF></metadata><path
     inkscape:connector-curvature="0"
     style="fill:#cccccc;stroke:none;stroke-width:2;stroke-miterlimit:4;stroke-dasharray:none;stroke-opacity:0.28160921"
     id="path23"
     d="m 55.173,1.7555496 c -0.01,3.588 0.02,7.18 -0.016,10.7700004 -0.245,10.596 -0.904,21.201 -2.489,31.684 -1.264,8.248 -3.124,16.484 -6.597,24.109 -2.95,6.635 -6.837,12.879 -11.714,18.271 -4.722,5.229 -10.333,9.658 -16.566,12.953 -5.253,2.764 -10.908,4.85 -16.791,5.73 0.005,6.065 0.005,12.138 0,18.203 4.887,-0.688 9.686,-1.929 14.35,-3.532 8.244,-2.849 16.082,-7.056 22.649,-12.835 7.341,-6.233 13.871,-13.646 18.027,-22.405 2.547,-5.437 4.601,-11.162 5.592,-17.099 1.443,-8.61 1.989,-17.339 2.4,-26.05 0.25,-6.031 0.421,-12.068 0.389,-18.107 -0.005,-7.231 0.008,-14.4660004 -0.005,-21.7000004 -3.077,0.008 -6.153,-0.002 -9.229,0.008" /><path
     inkscape:connector-curvature="0"
     style="fill:#cccccc;stroke:none;stroke-width:2;stroke-miterlimit:4;stroke-dasharray:none;stroke-opacity:0.28160921"
     id="path25"
     d="m 68.116,1.7675496 c 0.02,27.6410004 0.002,55.2750004 0.01,82.9170004 0.02,12.938 -0.042,25.879 0.03,38.815 5.65,-0.051 11.302,-0.012 16.953,-0.021 0.002,-40.574 0.002,-81.15 0,-121.7290004 -5.665,0.012 -11.331,-0.02 -16.993,0.018" /><path
     inkscape:connector-curvature="0"
     style="fill:#cccccc;stroke:none;stroke-width:2;stroke-miterlimit:4;stroke-dasharray:none;stroke-opacity:0.28160921"
     id="path27"
     d="m 88.888,1.7515496 c -0.002,6.648 0,13.3010004 0,19.9490004 -0.076,11.754 0.322,23.521 1.386,35.23 0.55,5.418 1.155,10.863 2.573,16.134 1.547,5.244 3.522,10.388 6.23,15.146 3.46,6.108 8.07,11.509 13.219,16.256 3.124,2.871 6.376,5.623 9.952,7.923 4.898,3.188 10.231,5.672 15.745,7.59 4.63,1.574 9.388,2.824 14.24,3.481 -0.006,-6.063 -0.003,-12.127 0,-18.19 -2.47,-0.358 -4.899,-0.955 -7.274,-1.715 -8.513,-2.729 -16.35,-7.47 -22.815,-13.636 -6.771,-6.446 -11.967,-14.444 -15.572,-23.051 -3.802,-8.895 -5.504,-18.512 -6.711,-28.061 -1.475,-12.289 -1.896,-24.684 -1.797,-37.0550004 -3.057,-0.009 -6.116,-0.003 -9.176,-0.001" /><g
     transform="matrix(1.5405776,0,0,1.5405776,-97.533992,2.6922358)"
     id="g5942"><path
       d="m 206.23376,2.672515 c 3.0562,-3.909531 9.38145,-4.577833 13.13118,-1.297786 1.53328,1.291317 2.60786,3.073022 3.15713,4.991235 6.94179,23.88547 13.91464,47.759294 20.84673,71.647351 -4.0965,0.0039 -8.19494,-0.0077 -12.29144,0.0039 -1.93245,-6.585972 -3.81895,-13.182942 -5.72682,-19.773443 -7.92258,-0.01488 -15.84062,-0.0039 -23.76255,-0.0077 -1.93956,6.588559 -3.85453,13.184236 -5.75852,19.785088 -4.0745,-0.01359 -8.149,-0.0039 -12.22416,-0.0077 6.59503,-22.786298 13.19783,-45.570008 19.82456,-68.347895 0.78799,-2.382078 1.08558,-5.045579 2.80389,-6.992905 m 7.23227,14.63729 c -2.90481,9.895132 -5.75075,19.809025 -8.6394,29.709331 5.75788,0.02782 11.51316,0.01035 17.26845,0.01035 -2.88088,-9.906776 -5.74752,-19.812906 -8.62905,-29.719682 z"
       id="path7"
       inkscape:connector-curvature="0"
       style="fill:#cccccc;fill-opacity:1;stroke:none;stroke-width:2;stroke-miterlimit:4;stroke-dasharray:none;stroke-opacity:0.28160921" /><path
       d="m 292.53522,3.1868419 c 2.13494,-3.09695941 6.2625,-4.599182 9.89513,-3.64298693 3.32727,0.76599121 5.87174,3.63263573 6.75029,6.86027943 6.93598,23.8680016 13.89589,47.7269456 20.82863,71.5955946 -4.10297,0.0317 -8.20335,0 -12.30503,0.01553 -1.90786,-6.591147 -3.79437,-13.18941 -5.71711,-19.780558 -7.90964,0.0039 -15.8154,-0.01359 -23.72438,0.0064 -1.8904,6.595676 -3.84031,13.176472 -5.72876,19.772795 -4.07127,0.0039 -8.13866,-0.0039 -12.20993,0.0039 6.59115,-22.91116 13.25993,-45.802264 19.90477,-68.6985434 0.69613,-2.0663647 0.96591,-4.3455768 2.30639,-6.1324583 M 291.53697,47.02944 c 5.73393,0.0084 11.46464,0.0045 17.19857,0.0045 -2.85305,-9.928773 -5.7527,-19.842666 -8.59476,-29.769499 -2.8634,9.922951 -5.75334,19.836844 -8.60381,29.76497 z"
       id="path9"
       inkscape:connector-curvature="0"
       style="fill:#cccccc;fill-opacity:1;stroke:none;stroke-width:2;stroke-miterlimit:4;stroke-dasharray:none;stroke-opacity:0.28160921" /><path
       d="m 234.19696,-0.57583116 c 14.82167,0 29.64011,0 44.4579,0 0,3.99945756 0,7.99309246 0,11.98996216 -5.45898,0.0039 -10.91149,-0.0064 -16.36594,0.0039 0,22.198865 0.003,44.398377 -0.003,66.595949 -3.90694,0 -7.81712,0 -11.72471,0 0,-22.198866 -0.003,-44.397084 0.003,-66.595949 -5.45769,-0.01035 -10.9115,0 -16.36854,-0.0039 6.5e-4,-3.9968697 -0.003,-7.9905046 6.5e-4,-11.98996216 z"
       id="path11"
       inkscape:connector-curvature="0"
       style="fill:#cccccc;fill-opacity:1;stroke:none;stroke-width:2;stroke-miterlimit:4;stroke-dasharray:none;stroke-opacity:0.28160921" /><path
       d="m 343.03824,-0.08802933 c 1.12569,-0.38946512 2.32902,-0.52209029 3.51812,-0.49427135 4.67293,0.0161738 9.34651,0.003882 14.01816,0.006469 7.86952,0.14556422 15.37934,5.02746428 18.78554,12.11029568 2.35815,4.599182 2.60075,9.948181 2.00685,14.99376 -0.41082,5.281717 -2.62598,10.563434 -6.68561,14.065385 -2.14335,1.909802 -4.81396,3.068494 -7.11129,4.771271 -1.25961,0.958136 -1.32431,2.823299 -0.67153,4.158608 6.20168,9.57489 12.6492,18.999041 18.98027,28.491121 -4.63023,0.0084 -9.26111,-0.011 -13.89394,0.0084 -6.06129,-9.105203 -12.06113,-18.256987 -18.09848,-27.374482 -1.77524,-2.596218 -2.25787,-6.032181 -1.19557,-8.99328 0.82875,-2.272742 2.81553,-3.933469 5.02682,-4.791327 4.22071,-1.61091 8.38385,-4.140493 10.72128,-8.12507 1.77912,-2.993448 1.68531,-6.686897 0.88633,-9.963062 -0.93808,-4.253063 -5.08116,-7.599099 -9.46168,-7.452887 -3.02967,0.02005 -6.05417,-0.01359 -9.07802,0.01359 -1.36961,-0.0317 -2.65704,1.158691 -2.63957,2.545109 -0.0149,21.379825 0.006,42.760942 -0.007,64.139473 -3.93864,-0.0084 -7.87211,0 -11.8114,-0.0045 -0.008,-23.015319 0.009,-46.032579 -0.008,-69.0485449 0.0252,-4.0356866 2.89446,-7.8320012 6.71859,-9.05603453 z"
       id="path13"
       inkscape:connector-curvature="0"
       style="fill:#cccccc;fill-opacity:1;stroke:none;stroke-width:2;stroke-miterlimit:4;stroke-dasharray:none;stroke-opacity:0.28160921" /><path
       d="m 392.06879,-0.57583116 c 4.14179,0 8.28357,0 12.4286,0 -0.003,26.19897016 0.009,52.39405816 -0.008,78.59238016 -4.1379,-0.01229 -8.27904,0 -12.42083,-0.0039 0,-26.19897 0,-52.393411 0,-78.58849909 z"
       id="path15"
       inkscape:connector-curvature="0"
       style="fill:#cccccc;fill-opacity:1;stroke:none;stroke-width:2;stroke-miterlimit:4;stroke-dasharray:none;stroke-opacity:0.28160921" /><path
       style="color:#000000;font-style:normal;font-variant:normal;font-weight:normal;font-stretch:normal;font-size:medium;line-height:normal;font-family:sans-serif;text-indent:0;text-align:start;text-decoration:none;text-decoration-line:none;text-decoration-style:solid;text-decoration-color:#000000;letter-spacing:normal;word-spacing:normal;text-transform:none;direction:ltr;block-progression:tb;writing-mode:lr-tb;baseline-shift:baseline;text-anchor:start;white-space:normal;clip-rule:nonzero;display:inline;overflow:visible;visibility:visible;opacity:1;isolation:auto;mix-blend-mode:normal;color-interpolation:sRGB;color-interpolation-filters:linearRGB;solid-color:#000000;solid-opacity:1;fill:#000000;fill-opacity:0.28160921;fill-rule:nonzero;stroke:none;stroke-width:2;stroke-linecap:butt;stroke-linejoin:miter;stroke-miterlimit:4;stroke-dasharray:none;stroke-dashoffset:0;stroke-opacity:1;color-rendering:auto;image-rendering:auto;shape-rendering:auto;text-rendering:auto;enable-background:accumulate"
       d="m 391.06836,-1.662109 0,80.673828 1,0 c 4.1444,0.0039 8.28403,-0.0084 12.41797,0.0039 l 1.00195,0.0039 0.002,-1.001953 c 0.017,-26.19906 0.005,-52.395161 0.008,-78.59375 l 0,-1 -13.39453,0 -1.03516,-0.08594 z m 2,2.085937 10.42969,0 c -0.003,25.532523 0.008,51.060953 -0.008,76.591797 -3.47497,-0.0072 -6.94878,-0.0026 -10.42187,-0.0039 l 0,-76.587891 z"
       id="path4179"
       inkscape:connector-curvature="0" /><path
       style="color:#000000;font-style:normal;font-variant:normal;font-weight:normal;font-stretch:normal;font-size:medium;line-height:normal;font-family:sans-serif;text-indent:0;text-align:start;text-decoration:none;text-decoration-line:none;text-decoration-style:solid;text-decoration-color:#000000;letter-spacing:normal;word-spacing:normal;text-transform:none;direction:ltr;block-progression:tb;writing-mode:lr-tb;baseline-shift:baseline;text-anchor:start;white-space:normal;clip-rule:nonzero;display:inline;overflow:visible;visibility:visible;opacity:1;isolation:auto;mix-blend-mode:normal;color-interpolation:sRGB;color-interpolation-filters:linearRGB;solid-color:#000000;solid-opacity:1;fill:#000000;fill-opacity:0.28160921;fill-rule:nonzero;stroke:none;stroke-width:2;stroke-linecap:butt;stroke-linejoin:miter;stroke-miterlimit:4;stroke-dasharray:none;stroke-dashoffset:0;stroke-opacity:1;color-rendering:auto;image-rendering:auto;shape-rendering:auto;text-rendering:auto;enable-background:accumulate"
       d="m 346.58008,-1.582031 c -1.27655,-0.02987 -2.59621,0.110465 -3.86133,0.546875 -4.25025,1.367439 -7.37033,5.495419 -7.39844,9.996093 l 0,0.0039 0,0.0039 c 0.017,23.014981 -1.9e-4,46.032785 0.008,69.048828 l 0,0.998047 0.99805,0 c 3.94147,0.0045 7.87475,-0.0025 11.81055,0.0059 l 1.00195,0.002 0,-1.001954 c 0.013,-21.379588 -0.007,-42.759963 0.008,-64.138672 l 0,-0.0078 0,-0.0059 c -0.01,-0.760286 0.83909,-1.551167 1.61524,-1.533203 l 0.0176,0 0.0156,0 c 3.01044,-0.02706 6.0347,0.0065 9.07617,-0.01367 l 0.0117,0 0.0137,0 c 3.85113,-0.128543 7.62468,2.911938 8.45313,6.667967 l 0.002,0.01172 0.002,0.01172 c 0.76225,3.125592 0.81321,6.545223 -0.77344,9.214843 l -0.002,0.002 -0.002,0.002 c -2.16868,3.696917 -6.11529,6.132598 -10.21484,7.697266 l -0.002,0 -0.004,0.002 c -2.42871,0.942206 -4.65226,2.772156 -5.60352,5.380859 l -0.002,0.002 0,0.0039 c -1.17784,3.283149 -0.64906,7.028678 1.31055,9.894532 6.03304,9.111063 12.03051,18.260035 18.09179,27.365234 l 0.29883,0.447266 0.53711,-0.002 c 4.62725,-0.01938 9.25835,-0.0014 13.89258,-0.0098 l 1.86523,-0.002 -1.03515,-1.552734 C 380.39376,67.987729 373.9691,58.594901 367.79297,49.0625 c -0.23362,-0.488016 -0.34847,-1.104695 -0.2832,-1.638672 0.066,-0.539988 0.27791,-0.967006 0.66406,-1.261719 2.17187,-1.607848 4.87165,-2.773228 7.16992,-4.820312 4.28752,-3.704328 6.58326,-9.219118 7.01563,-14.714844 0.60409,-5.14885 0.37633,-10.689226 -2.10352,-15.535156 -3.5795,-7.432832 -11.39482,-12.515047 -19.66211,-12.667969 l -0.01,0 -0.01,0 c -4.66726,-0.0026 -9.33177,0.0102 -13.99414,-0.0059 z m -3.71485,0.509765 -0.0684,0.01172 -0.0645,0.01953 c -0.003,0.0011 -0.006,0.0028 -0.01,0.0039 l 0.14257,-0.03516 z m 3.66797,1.490235 0.01,0 0.01,0 c 4.67113,0.01617 9.34023,0.0033 14.00391,0.0059 7.46792,0.138136 14.66717,4.817716 17.90234,11.544922 l 0.006,0.0098 0.006,0.01172 c 2.22723,4.343843 2.48296,9.489187 1.90235,14.421875 l -0.002,0.01953 -0.002,0.01953 c -0.39326,5.056021 -2.52249,10.090124 -6.3418,13.384766 l -0.006,0.0059 -0.006,0.0059 c -1.9853,1.768976 -4.62018,2.918576 -7.04101,4.712891 l -0.006,0.0039 -0.004,0.0039 c -0.87209,0.663369 -1.32151,1.648327 -1.43945,2.613282 -0.11794,0.964955 0.0618,1.93684 0.47461,2.78125 l 0.0273,0.05469 0.0312,0.04883 c 5.87214,9.066097 11.95974,17.986308 17.95313,26.949219 -3.8264,0.0018 -7.65542,-0.0058 -11.49024,0.0078 -5.95825,-8.954823 -11.8601,-17.956232 -17.80084,-26.92783 l -0.004,-0.0059 -0.006,-0.0059 c -1.58971,-2.324881 -2.02413,-5.448108 -1.08008,-8.085937 l 0,-0.002 c 0.7066,-1.936041 2.45587,-3.425912 4.44922,-4.199219 4.34001,-1.657273 8.71561,-4.282353 11.2207,-8.552734 1.96535,-3.31136 1.83006,-7.267998 0.99805,-10.689453 -1.05023,-4.747119 -5.56095,-8.394281 -10.46875,-8.230469 l 0.0273,-0.002 c -3.00748,0.0199 -6.0221,-0.01312 -9.04883,0.01367 -1.96306,-0.04544 -3.68747,1.546044 -3.66211,3.558593 -0.0147,21.04368 0.004,42.086575 -0.008,63.126953 -3.27247,-0.0048 -6.54109,-0.0038 -9.81055,-0.0059 -0.007,-22.678761 0.009,-45.360012 -0.008,-68.041016 0.0223,-3.564188 2.63086,-7.020621 6.01953,-8.107421 l 0.0254,-0.0098 c 0.98389,-0.340403 2.06894,-0.465165 3.16797,-0.439454 z"
       id="path4183"
       inkscape:connector-curvature="0" /><path
       style="color:#000000;font-style:normal;font-variant:normal;font-weight:normal;font-stretch:normal;font-size:medium;line-height:normal;font-family:sans-serif;text-indent:0;text-align:start;text-decoration:none;text-decoration-line:none;text-decoration-style:solid;text-decoration-color:#000000;letter-spacing:normal;word-spacing:normal;text-transform:none;direction:ltr;block-progression:tb;writing-mode:lr-tb;baseline-shift:baseline;text-anchor:start;white-space:normal;clip-rule:nonzero;display:inline;overflow:visible;visibility:visible;opacity:1;isolation:auto;mix-blend-mode:normal;color-interpolation:sRGB;color-interpolation-filters:linearRGB;solid-color:#000000;solid-opacity:1;fill:#000000;fill-opacity:0.28160921;fill-rule:nonzero;stroke:none;stroke-width:2;stroke-linecap:butt;stroke-linejoin:miter;stroke-miterlimit:4;stroke-dasharray:none;stroke-dashoffset:0;stroke-opacity:1;color-rendering:auto;image-rendering:auto;shape-rendering:auto;text-rendering:auto;enable-background:accumulate"
       d="m 299.59375,-1.730469 c -3.08373,0.172918 -6.05969,1.738946 -7.85547,4.320313 l -0.004,-0.0039 c -0.004,0.0055 -0.004,0.01209 -0.008,0.01758 -0.004,0.0062 -0.0114,0.0095 -0.0156,0.01563 l 0.006,0.0039 c -1.52336,2.054212 -1.78907,4.458309 -2.43543,6.376953 l -0.008,0.01953 -0.006,0.02148 c -6.64432,22.895624 -13.3122,45.787859 -19.90397,68.701173 l -0.36914,1.277343 1.33203,-0.002 c 4.06872,-0.0078 8.1358,-4e-6 12.20899,-0.0039 l 0.75195,0 0.20898,-0.72461 c 1.81781,-6.349557 3.69272,-12.690093 5.51953,-19.048828 7.4046,-0.01655 14.80923,-0.0034 22.21876,-0.0059 1.84951,6.349047 3.67063,12.704896 5.50976,19.058594 l 0.20898,0.724609 0.75586,-0.002 c 4.09401,-0.0155 8.19533,0.01615 12.3086,-0.01563 l 1.32031,-0.0098 -0.36914,-1.269531 C 324.03619,53.85269 317.07797,29.994877 310.14258,6.128908 c -0.96968,-3.546822 -3.7378,-6.688832 -7.47852,-7.554687 -1.00891,-0.26313 -2.04514,-0.362174 -3.07031,-0.304688 z m 0.11719,2.009766 c 0.82997,-0.05163 1.6641,0.02165 2.46484,0.232422 l 0.0156,0.0039 0.0137,0.002 c 2.90433,0.668623 5.22032,3.248138 6.00976,6.148437 l 0.004,0.0098 0.002,0.0078 c 6.81244,23.442861 13.64724,46.876546 20.45703,70.318359 -3.40242,0.01602 -6.80858,0.0052 -10.22265,0.01367 -1.83638,-6.349599 -3.65418,-12.706298 -5.50781,-19.060547 l -0.21094,-0.720703 -0.75,0 c -7.90784,0.0039 -15.81443,-0.01414 -23.72656,0.0059 l -0.75196,0.002 -0.20703,0.722656 c -1.81957,6.348541 -3.69456,12.689913 -5.51953,19.048828 -3.37406,0.0021 -6.74812,-8e-6 -10.125,0.0039 6.47078,-22.482279 13.01175,-44.948816 19.5332,-67.419921 l -0.0137,0.04102 c 0.7422,-2.203122 1.02598,-4.339689 2.16016,-5.851563 l -0.80089,-0.59969 0.82422,0.566406 c 1.40914,-2.044118 3.86165,-3.319722 6.35156,-3.474609 z m 0.43359,13.365234 -0.96484,3.341797 c -2.8629,9.921214 -5.7523,19.836855 -8.60352,29.767578 l -0.0391,0.134766 0,1.138672 0.99805,0.002 c 5.73536,0.0084 11.46769,0.0039 17.20117,0.0039 l 1.32617,0 -0.36523,-1.275391 c -2.85393,-9.931805 -5.75469,-19.846355 -8.59571,-29.769531 l -0.95703,-3.34375 z m -0.004,7.222657 c 2.41289,8.391485 4.85139,16.776554 7.26563,25.166015 -4.8475,4.28e-4 -9.69291,0.0017 -14.53906,-0.0039 2.41195,-8.390176 4.8481,-16.773681 7.27343,-25.162109 z"
       id="path4187"
       inkscape:connector-curvature="0" /><path
       style="color:#000000;font-style:normal;font-variant:normal;font-weight:normal;font-stretch:normal;font-size:medium;line-height:normal;font-family:sans-serif;text-indent:0;text-align:start;text-decoration:none;text-decoration-line:none;text-decoration-style:solid;text-decoration-color:#000000;letter-spacing:normal;word-spacing:normal;text-transform:none;direction:ltr;block-progression:tb;writing-mode:lr-tb;baseline-shift:baseline;text-anchor:start;white-space:normal;clip-rule:nonzero;display:inline;overflow:visible;visibility:visible;opacity:1;isolation:auto;mix-blend-mode:normal;color-interpolation:sRGB;color-interpolation-filters:linearRGB;solid-color:#000000;solid-opacity:1;fill:#000000;fill-opacity:0.28160921;fill-rule:nonzero;stroke:none;stroke-width:2;stroke-linecap:butt;stroke-linejoin:miter;stroke-miterlimit:4;stroke-dasharray:none;stroke-dashoffset:0;stroke-opacity:1;color-rendering:auto;image-rendering:auto;shape-rendering:auto;text-rendering:auto;enable-background:accumulate"
       d="m 233.19727,-1.5761719 0,1.00000002 c -0.004,4.00067348 -0.001,7.99408178 -0.002,11.99023388 l 0,1 1,0 c 5.12591,0.0037 10.2468,-0.0036 15.36914,0.0039 -0.006,21.865769 -0.004,43.730263 -0.004,65.595703 l 0,1 13.72461,0 0,-1 c 0.006,-21.86452 0.004,-43.730241 0.004,-65.595703 5.1195,-0.0074 10.2395,-2.43e-4 15.36719,-0.0039 l 0.99805,0 0,-13.9902339 -45.45703,0 -1,0 z m 2,2.00000002 42.45703,0 0,9.99023388 c -5.12335,0.0022 -10.24363,-0.0058 -15.36719,0.0039 l -0.99805,0.002 0,0.998047 c 0,21.865616 0.002,43.731653 -0.004,65.595703 l -9.72461,0 c -9e-5,-21.865593 -0.002,-43.730442 0.004,-65.595703 l 0,-0.998047 -0.99804,-0.002 c -5.12731,-0.0097 -10.24852,-0.0018 -15.3711,-0.0039 1e-5,-3.3307901 -1.4e-4,-6.6589876 0.002,-9.99023388 z"
       id="path4191"
       inkscape:connector-curvature="0" /><path
       style="color:#000000;font-style:normal;font-variant:normal;font-weight:normal;font-stretch:normal;font-size:medium;line-height:normal;font-family:sans-serif;text-indent:0;text-align:start;text-decoration:none;text-decoration-line:none;text-decoration-style:solid;text-decoration-color:#000000;letter-spacing:normal;word-spacing:normal;text-transform:none;direction:ltr;block-progression:tb;writing-mode:lr-tb;baseline-shift:baseline;text-anchor:start;white-space:normal;clip-rule:nonzero;display:inline;overflow:visible;visibility:visible;opacity:1;isolation:auto;mix-blend-mode:normal;color-interpolation:sRGB;color-interpolation-filters:linearRGB;solid-color:#000000;solid-opacity:1;fill:#000000;fill-opacity:0.28160921;fill-rule:nonzero;stroke:none;stroke-width:2;stroke-linecap:butt;stroke-linejoin:miter;stroke-miterlimit:4;stroke-dasharray:none;stroke-dashoffset:0;stroke-opacity:1;color-rendering:auto;image-rendering:auto;shape-rendering:auto;text-rendering:auto;enable-background:accumulate"
       d="m 212.43945,-1.6933594 c -2.66742,0.2688486 -5.22997,1.54431321 -6.94726,3.7109375 l -0.008,-0.00586 c -0.008,0.00921 -0.0115,0.02007 -0.0195,0.029297 -0.005,0.00673 -0.0143,0.00888 -0.0195,0.015625 l 0.006,0.00391 c -1.94299,2.2364345 -2.23404,5.0641145 -2.9707,7.2910156 l -0.006,0.017578 -0.006,0.017578 C 195.84183,32.16527 189.23963,54.949809 182.64453,77.736328 l -0.36914,1.275391 1.32813,0.002 c 4.07736,0.0038 8.15196,-0.0058 12.22265,0.0078 l 0.75586,0.002 0.20899,-0.72461 c 1.8345,-6.359948 3.68015,-12.715079 5.54687,-19.0625 7.42269,0.0027 14.84146,-0.0046 22.26172,0.0078 1.83623,6.348364 3.65449,12.705103 5.51758,19.054687 l 0.21289,0.720703 0.75,-0.002 c 4.09272,-0.01159 8.19004,-4e-6 12.28906,-0.0039 l 1.33008,-0.002 -0.36914,-1.277344 C 237.39807,53.846584 230.42552,29.973086 223.48438,6.0898438 l -0.002,-0.00391 c -0.59853,-2.087415 -1.76675,-4.0354052 -3.46484,-5.46875 -2.10927,-1.8421463 -4.89288,-2.581192 -7.57813,-2.3105469 z m 0.19922,2.04101565 c 2.17654,-0.22064353 4.42856,0.34488983 6.06836,1.77929685 l 0.006,0.00586 0.008,0.00586 c 1.36271,1.1476597 2.34048,2.7580254 2.83985,4.5019531 l 0,0.00195 0.002,0.00195 c 6.81806,23.4597508 13.66326,46.9092318 20.47266,70.3691408 -3.40017,8.24e-4 -6.80265,-0.0035 -10.20704,0.0039 -1.85786,-6.343218 -3.6785,-12.699881 -5.51757,-19.052734 l -0.20899,-0.71875 -0.75,-0.002 c -7.92475,-0.01488 -15.84298,-0.004 -23.76367,-0.0078 l -0.74805,0 -0.21093,0.716797 c -1.8694,6.350223 -3.71327,12.707834 -5.54883,19.068359 -3.38287,-0.009 -6.76342,-0.0067 -10.14258,-0.0078 6.47198,-22.360061 12.95045,-44.716883 19.45312,-67.0683595 l -0.0117,0.035156 c 0.83421,-2.5218245 1.14857,-4.9954124 2.60547,-6.6464844 l -0.74219,-0.6542969 0.77929,0.609375 c 1.33897,-1.7128252 3.44065,-2.72076272 5.61719,-2.94140625 z m 0.83203,13.39648475 -0.96484,3.283203 c -2.90594,9.898963 -5.75083,19.813412 -8.63867,29.710937 l -0.37305,1.275391 1.32813,0.0059 c 5.76312,0.02785 11.52017,0.0098 17.27343,0.0098 l 1.33203,0 L 223.05469,46.75 c -2.88064,-9.905939 -5.74712,-19.811098 -8.62891,-29.71875 l -0.95508,-3.287109 z m -0.006,7.15039 c 2.43443,8.378092 4.86309,16.755385 7.29883,25.134766 -4.87036,0.002 -9.73845,0.0082 -14.60547,-0.0098 2.44078,-8.376362 4.86064,-16.755492 7.30664,-25.125 z"
       id="path4195"
       inkscape:connector-curvature="0" /></g><path
     inkscape:connector-curvature="0"
     id="path4199"
     d="m 88.88672,0.75145585 0,0.99999995 -0.99805,0 c -0.002,6.6484013 0,13.3014202 0,19.9492192 -0.076,11.778941 0.32142,23.575508 1.38867,35.320313 l 0.002,0.0059 0,0.0039 c 0.55065,5.424332 1.15722,10.924042 2.60157,16.292969 l 0.004,0.01172 0.004,0.01172 c 1.56214,5.295319 3.56048,10.511795 6.31836,15.357422 3.52305,6.218897 8.20427,11.696811 13.4121,16.498051 3.14416,2.88952 6.43864,5.68023 10.08789,8.02734 4.97609,3.23833 10.38033,5.75355 15.95703,7.69336 l 0.004,0.002 0.004,0.002 c 4.67491,1.58927 9.49474,2.85547 14.42773,3.52343 l 1.13477,0.1543 -0.002,-1.14453 c -0.006,-6.06201 -0.003,-12.12645 0,-18.18945 l 0.002,-0.86524 -0.85743,-0.125 c -2.40592,-0.34871 -4.782,-0.93172 -7.11328,-1.67773 -8.36228,-2.680689 -16.0715,-7.34213 -22.42969,-13.406253 l 0,-0.002 C 116.17713,82.857484 111.05214,74.97672 107.49414,66.481925 l -0.002,-0.0039 0,-0.002 c -3.74126,-8.752889 -5.43591,-18.27318 -6.63867,-27.78711 l 0,-0.0059 C 99.38588,26.452632 98.96569,14.102242 99.06445,1.7612215 l 0.008,-1.0058594 -1.00586,-0.001953 c -3.06027,-0.00901 -6.12056,-0.003953 -9.17968,-0.001953 z m 1.00195,1.99999995 c 2.40006,-0.00208 4.7977,-0.00276 7.19336,0.00195 -0.0687,12.0646062 0.34356,24.1631022 1.78516,36.1738292 l 0.002,0.002 0,0.0039 c 1.21119,9.582161 2.92121,19.292773 6.7832,28.328125 3.65191,8.71706 8.91908,16.82956 15.80274,23.382812 6.57161,6.267377 14.53598,11.086118 23.19922,13.863288 2.13987,0.68475 4.34685,1.17707 6.57812,1.55078 -0.003,5.39653 -0.004,10.79405 0,16.1914 -4.37562,-0.67867 -8.69415,-1.78195 -12.91015,-3.21484 l -0.008,-0.002 c -5.44724,-1.89536 -10.7048,-4.3454 -15.52148,-7.48047 l -0.002,-0.002 -0.002,-0.002 c -3.50199,-2.2524 -6.71124,-4.96461 -9.81445,-7.8164 l -0.002,-0.002 C 107.8837,99.038027 103.34367,93.713979 99.94727,87.718253 l 0,-0.002 -0.002,0 c -2.65677,-4.668015 -4.60516,-9.737695 -6.13668,-14.927687 -7.5e-4,-0.0026 -10e-4,-0.0052 -0.002,-0.0078 C 92.41943,67.614778 91.81807,62.233144 91.26953,56.829581 90.20962,45.161532 89.81287,33.430396 89.88867,21.706534 l 0,-0.002 0,-0.0039 c 0,-6.314944 -0.002,-12.6343655 0,-18.9492192 z"
     style="color:#000000;font-style:normal;font-variant:normal;font-weight:normal;font-stretch:normal;font-size:medium;line-height:normal;font-family:sans-serif;text-indent:0;text-align:start;text-decoration:none;text-decoration-line:none;text-decoration-style:solid;text-decoration-color:#000000;letter-spacing:normal;word-spacing:normal;text-transform:none;direction:ltr;block-progression:tb;writing-mode:lr-tb;baseline-shift:baseline;text-anchor:start;white-space:normal;clip-rule:nonzero;display:inline;overflow:visible;visibility:visible;opacity:1;isolation:auto;mix-blend-mode:normal;color-interpolation:sRGB;color-interpolation-filters:linearRGB;solid-color:#000000;solid-opacity:1;fill:#000000;fill-opacity:0.28160921;fill-rule:nonzero;stroke:none;stroke-width:2;stroke-linecap:butt;stroke-linejoin:miter;stroke-miterlimit:4;stroke-dasharray:none;stroke-dashoffset:0;stroke-opacity:1;color-rendering:auto;image-rendering:auto;shape-rendering:auto;text-rendering:auto;enable-background:accumulate" /><path
     inkscape:connector-curvature="0"
     id="path4203"
     d="m 86.10938,0.7475496 -1.00196,0.001953 C 79.4476,0.7614916 73.77962,0.7290254 68.10938,0.7670807 l 0.008,1 -1.00196,0.00195 c 0.02,27.6400842 0.004,55.2733892 0.0117,82.9160162 l 0,0.002 c 0.02,12.933775 -0.0427,25.87546 0.0293,38.81836 l 0.006,1.00391 1.00195,-0.01 c 5.63938,-0.0509 11.29061,-0.0125 16.94727,-0.0215 l 0.99805,-0.002 0,-0.99805 c 0.002,-40.574037 0.002,-81.149487 0,-121.7285205 l -3.1e-4,-1.0016999 z m -2,2.0039062 c 0.002,39.9122062 0.002,79.8211472 0,119.7285142 -4.97799,0.003 -9.96326,-0.0184 -14.95313,0.0176 -0.0636,-12.59713 -0.01,-25.203095 -0.0293,-37.8125 -0.008,-27.308666 0.007,-54.610902 -0.0117,-81.9199223 4.99119,-0.026625 9.99016,-0.0073 14.99414,-0.013672 z"
     style="color:#000000;font-style:normal;font-variant:normal;font-weight:normal;font-stretch:normal;font-size:medium;line-height:normal;font-family:sans-serif;text-indent:0;text-align:start;text-decoration:none;text-decoration-line:none;text-decoration-style:solid;text-decoration-color:#000000;letter-spacing:normal;word-spacing:normal;text-transform:none;direction:ltr;block-progression:tb;writing-mode:lr-tb;baseline-shift:baseline;text-anchor:start;white-space:normal;clip-rule:nonzero;display:inline;overflow:visible;visibility:visible;opacity:1;isolation:auto;mix-blend-mode:normal;color-interpolation:sRGB;color-interpolation-filters:linearRGB;solid-color:#000000;solid-opacity:1;fill:#000000;fill-opacity:0.28160921;fill-rule:nonzero;stroke:none;stroke-width:2;stroke-linecap:butt;stroke-linejoin:miter;stroke-miterlimit:4;stroke-dasharray:none;stroke-dashoffset:0;stroke-opacity:1;color-rendering:auto;image-rendering:auto;shape-rendering:auto;text-rendering:auto;enable-background:accumulate" /><path
     inkscape:connector-curvature="0"
     id="path4207"
     d="m 65.400391,0.7455965 -1.001953,0.001953 c -3.073101,0.00799 -6.148182,-0.0022 -9.228516,0.007813 l 0.0039,1 -1,-0.00195 c -0.01002,3.5954341 0.0183,7.1839769 -0.01758,10.7617185 l 0.002,-0.01172 C 53.913805,23.073396 53.255909,33.63511 51.679688,44.06005 50.422845,52.260741 48.576127,60.404007 45.160156,67.9038 l -0.002,0.0039 0,0.0039 C 42.246067,74.461446 38.411921,80.61621 33.615238,85.919413 28.969081,91.064426 23.449113,95.419845 17.324222,98.657694 12.149916,101.38011 6.598037,103.42312 0.851565,104.2827 L 0,104.41161 l 0,0.86133 c 0.005,6.06445 0.005,12.13672 0,18.20117 l 0,1.15235 1.138672,-0.16016 c 4.961891,-0.69854 9.823735,-1.9562 14.537109,-3.57617 l 0,-0.002 c 8.340662,-2.8824 16.290946,-7.14304 22.970703,-13.01757 l 0.0078,-0.006 C 46.067481,101.5692 52.694861,94.057446 56.929688,85.132316 l 0,-0.002 0.002,-0.002 c 2.573783,-5.494174 4.661119,-11.304017 5.671875,-17.359375 1.454414,-8.678108 2.002579,-17.446736 2.414062,-26.167968 l 0,-0.002 0,-0.0039 c 0.250308,-6.038438 0.420696,-12.088337 0.388672,-18.148437 l 0,-0.0039 c -0.005,-7.228041 0.0091,-14.4621718 -0.0039,-21.6972655 l -0.002,-1 z m -1.998047,2.0019531 c 0.0102,6.8992446 -8.65e-4,13.8011754 0.0039,20.7011724 l 0,0.002 0,0.002 c 0.03188,6.016592 -0.137081,12.038285 -0.386719,18.060547 -0.410485,8.698813 -0.957407,17.385804 -2.388672,25.925781 -0.971244,5.818643 -2.989549,11.460019 -5.509765,16.839844 -4.075865,8.588197 -10.504813,15.900126 -17.769532,22.068356 l -0.0059,0.004 -0.0078,0.006 c -6.451445,5.67731 -14.172754,9.82697 -22.314453,12.64062 -4.246983,1.45958 -8.605923,2.5632 -13.023438,3.26562 0.0039,-5.40333 0.0041,-10.81181 0,-16.21484 5.703814,-0.96856 11.182199,-2.95146 16.255859,-5.62109 l 0.002,0 c 6.341097,-3.352473 12.043941,-7.855304 16.841785,-13.168291 4.954477,-5.477936 8.893722,-11.809257 11.88086,-18.525391 l 0.0039,-0.0098 c 3.52694,-7.746904 5.401248,-16.07204 6.671875,-24.363281 l 0,-0.002 c 1.593778,-10.54106 2.254399,-21.188533 2.5,-31.810547 l 0,-0.0059 0,-0.0078 c 0.03278,-3.2692597 0.01246,-6.5274469 0.01563,-9.7792969 2.407323,-0.00468 4.81746,-0.00414 7.23046,-0.0077 z"
     style="color:#000000;font-style:normal;font-variant:normal;font-weight:normal;font-stretch:normal;font-size:medium;line-height:normal;font-family:sans-serif;text-indent:0;text-align:start;text-decoration:none;text-decoration-line:none;text-decoration-style:solid;text-decoration-color:#000000;letter-spacing:normal;word-spacing:normal;text-transform:none;direction:ltr;block-progression:tb;writing-mode:lr-tb;baseline-shift:baseline;text-anchor:start;white-space:normal;clip-rule:nonzero;display:inline;overflow:visible;visibility:visible;opacity:1;isolation:auto;mix-blend-mode:normal;color-interpolation:sRGB;color-interpolation-filters:linearRGB;solid-color:#000000;solid-opacity:1;fill:#000000;fill-opacity:0.28160921;fill-rule:nonzero;stroke:none;stroke-width:2;stroke-linecap:butt;stroke-linejoin:miter;stroke-miterlimit:4;stroke-dasharray:none;stroke-dashoffset:0;stroke-opacity:1;color-rendering:auto;image-rendering:auto;shape-rendering:auto;text-rendering:auto;enable-background:accumulate" /><g
     inkscape:groupmode="layer"
     id="layer2"
     inkscape:label="Layer 2"><path
       inkscape:connector-curvature="0"
       d="m 0,132.61227 527.1355,0 0,43.61476 -527.1355,0 z"
       style="opacity:1;fill:url(#linearGradient5689);fill-opacity:1;fill-rule:evenodd;stroke:url(#linearGradient7756);stroke-width:0;stroke-linecap:round;stroke-linejoin:round;stroke-miterlimit:4;stroke-dasharray:none;stroke-dashoffset:0;stroke-opacity:0.28235294"
       id="rect4192" /><g
       style=""
       transform="matrix(0.98976885,0,0,0.98976885,27.754109,2.9421284)"
       id="g4228"><path
         inkscape:connector-curvature="0"
         id="path7204"
         style="font-style:normal;font-variant:normal;font-weight:normal;font-stretch:normal;font-size:medium;line-height:125%;font-family:Arial;-inkscape-font-specification:Arial;letter-spacing:18.46165848px;word-spacing:0px;fill:#cccccc;fill-opacity:1;stroke:none;stroke-width:2.86560845;stroke-linecap:butt;stroke-linejoin:miter;stroke-miterlimit:4;stroke-dasharray:none;stroke-opacity:0.28235294"
         d="m 394.32911,139.51634 0,-4.31125 23.64957,0 0,3.48888 q -3.48887,3.71315 -6.9279,9.86852 -3.41412,6.15537 -5.28315,12.65962 -1.34571,4.58538 -1.71952,10.04297 l -4.61029,0 q 0.0748,-4.31125 1.69459,-10.41677 1.61984,-6.10553 4.63522,-11.76249 3.0403,-5.68188 6.45441,-9.56948 l -17.89293,0 z" /><path
         inkscape:connector-curvature="0"
         id="path7206"
         style="font-style:normal;font-variant:normal;font-weight:normal;font-stretch:normal;font-size:medium;line-height:125%;font-family:Arial;-inkscape-font-specification:Arial;letter-spacing:18.46165848px;word-spacing:0px;fill:#cccccc;fill-opacity:1;stroke:none;stroke-width:2.86560845;stroke-linecap:butt;stroke-linejoin:miter;stroke-miterlimit:4;stroke-dasharray:none;stroke-opacity:0.28235294"
         d="m 425.30192,151.45327 q -2.7911,-1.02174 -4.13681,-2.9157 -1.34571,-1.89396 -1.34571,-4.53553 0,-3.98729 2.86586,-6.70362 2.86586,-2.71634 7.62568,-2.71634 4.78474,0 7.70044,2.7911 2.9157,2.76618 2.9157,6.75346 0,2.54189 -1.34571,4.43585 -1.32078,1.86904 -4.03712,2.89078 3.36427,1.0965 5.10871,3.53871 1.76935,2.44222 1.76935,5.8314 0,4.68506 -3.31443,7.87488 -3.31443,3.18983 -8.72218,3.18983 -5.40775,0 -8.72218,-3.18983 -3.31442,-3.21474 -3.31442,-7.99948 0,-3.56363 1.79427,-5.956 1.8192,-2.41729 5.15855,-3.28951 z m -0.89714,-7.60076 q 0,2.59174 1.66967,4.23649 1.66968,1.64476 4.33617,1.64476 2.59174,0 4.23649,-1.61984 1.66968,-1.64475 1.66968,-4.0122 0,-2.46713 -1.71952,-4.13681 -1.6946,-1.69459 -4.23649,-1.69459 -2.56681,0 -4.26141,1.64475 -1.69459,1.64476 -1.69459,3.93744 z m -1.44539,16.87119 q 0,1.91888 0.89714,3.71316 0.92206,1.79428 2.71633,2.7911 1.79428,0.9719 3.86268,0.9719 3.21475,0 5.30807,-2.06841 2.09333,-2.0684 2.09333,-5.25823 0,-3.23966 -2.16809,-5.35791 -2.14316,-2.11824 -5.38283,-2.11824 -3.1649,0 -5.25823,2.09332 -2.0684,2.09333 -2.0684,5.23331 z" /><path
         style="color:#000000;font-style:normal;font-variant:normal;font-weight:normal;font-stretch:normal;font-size:medium;line-height:125%;font-family:Arial;-inkscape-font-specification:Arial;text-indent:0;text-align:start;text-decoration:none;text-decoration-line:none;text-decoration-style:solid;text-decoration-color:#000000;letter-spacing:18.46165848px;word-spacing:0px;text-transform:none;direction:ltr;block-progression:tb;writing-mode:lr-tb;baseline-shift:baseline;text-anchor:start;white-space:normal;clip-rule:nonzero;display:inline;overflow:visible;visibility:visible;opacity:1;isolation:auto;mix-blend-mode:normal;color-interpolation:sRGB;color-interpolation-filters:linearRGB;solid-color:#000000;solid-opacity:1;fill:#000000;fill-opacity:0.28235294;fill-rule:nonzero;stroke:none;stroke-width:2.86560845;stroke-linecap:butt;stroke-linejoin:miter;stroke-miterlimit:4;stroke-dasharray:none;stroke-dashoffset:0;stroke-opacity:1;color-rendering:auto;image-rendering:auto;shape-rendering:auto;text-rendering:auto;enable-background:accumulate"
         d="m 393.88763,134.76341 0,5.1947 0.44127,0 16.96029,0 c -2.07876,2.48736 -4.05143,5.44389 -5.91109,8.91931 l 0,6.2e-4 c -2.02583,3.80053 -3.58412,7.75377 -4.67276,11.85709 -1.08607,4.09363 -1.65836,7.59662 -1.7091,10.52246 l -0.008,0.44909 5.47222,0 0.0283,-0.41116 c 0.24731,-3.61077 0.81555,-6.92665 1.70247,-9.94875 l 6.2e-4,-0.001 0,-10e-4 c 1.2364,-4.30269 2.98373,-8.49087 5.24406,-12.56626 l 6.2e-4,-0.001 c 2.27989,-4.08051 4.57218,-7.34157 6.86406,-9.78079 l 0.1198,-0.12702 0,-4.10568 -24.53292,0 z m 0.88314,0.88314 22.76603,0 0,2.8836 c -2.3185,2.49568 -4.60521,5.76097 -6.87129,9.8169 l -6.1e-4,6.2e-4 -6.2e-4,6.2e-4 c -2.29108,4.13063 -4.06504,8.38087 -5.32052,12.74927 -1.7e-4,6.1e-4 -3.1e-4,0.001 -6.2e-4,0.002 -5e-5,1.8e-4 5e-5,3e-4 0,6.1e-4 -0.87167,2.97083 -1.42172,6.22255 -1.68742,9.72359 l -3.74989,0 c 0.0951,-2.73967 0.63338,-6.01847 1.65311,-9.86205 1.07109,-4.0372 2.60357,-7.92554 4.59811,-11.66746 l 0,-6.2e-4 c 2.01412,-3.76402 4.14844,-6.92549 6.39691,-9.4858 l 0.64355,-0.73264 -18.42679,0 0,-3.42842 z"
         id="path4174"
         inkscape:connector-curvature="0" /><path
         style="color:#000000;font-style:normal;font-variant:normal;font-weight:normal;font-stretch:normal;font-size:medium;line-height:125%;font-family:Arial;-inkscape-font-specification:Arial;text-indent:0;text-align:start;text-decoration:none;text-decoration-line:none;text-decoration-style:solid;text-decoration-color:#000000;letter-spacing:18.46165848px;word-spacing:0px;text-transform:none;direction:ltr;block-progression:tb;writing-mode:lr-tb;baseline-shift:baseline;text-anchor:start;white-space:normal;clip-rule:nonzero;display:inline;overflow:visible;visibility:visible;opacity:1;isolation:auto;mix-blend-mode:normal;color-interpolation:sRGB;color-interpolation-filters:linearRGB;solid-color:#000000;solid-opacity:1;fill:#000000;fill-opacity:0.28235294;fill-rule:nonzero;stroke:none;stroke-width:2.86560845;stroke-linecap:butt;stroke-linejoin:miter;stroke-miterlimit:4;stroke-dasharray:none;stroke-dashoffset:0;stroke-opacity:1;color-rendering:auto;image-rendering:auto;shape-rendering:auto;text-rendering:auto;enable-background:accumulate"
         d="m 430.31076,134.14033 c -3.25722,0 -5.92984,0.94299 -7.92902,2.83785 -1.98887,1.88511 -3.004,4.2596 -3.004,7.0236 0,1.83604 0.47406,3.4497 1.42735,4.79136 0.76925,1.08265 1.87808,1.94469 3.27311,2.6103 -1.77458,0.65515 -3.22868,1.66692 -4.28749,3.07383 l -6.1e-4,0 0,6.2e-4 c -1.25934,1.67912 -1.88247,3.77125 -1.88247,6.22113 0,3.2918 1.16006,6.0967 3.44828,8.3161 l 6.2e-4,6.1e-4 6.2e-4,6.2e-4 c 2.29608,2.20977 5.33627,3.31344 9.02827,3.31344 3.692,0 6.73279,-1.10367 9.02888,-3.31344 2.28745,-2.20146 3.44949,-4.96517 3.44949,-8.19269 0,-2.33519 -0.61584,-4.38183 -1.85117,-6.08808 l -0.001,-0.001 c -1.03671,-1.45081 -2.50786,-2.53875 -4.33384,-3.302 1.39005,-0.66714 2.49735,-1.52937 3.26407,-2.61391 l 6.2e-4,-0.001 c 0.95064,-1.33845 1.42675,-2.91878 1.42675,-4.69083 0,-2.76525 -1.03234,-5.15552 -3.05217,-7.07236 l -6.1e-4,-6.1e-4 c -2.0309,-1.94378 -4.73011,-2.91311 -8.00547,-2.91311 z m 0,0.88314 c 3.10395,0 5.5384,0.89141 7.39503,2.66869 l 0.001,6.2e-4 6.2e-4,6.2e-4 c 1.86694,1.77119 2.77765,3.88248 2.77765,6.43302 0,1.61667 -0.4205,2.99373 -1.26361,4.18033 l -6.1e-4,6.2e-4 -6.2e-4,6.1e-4 c -0.82006,1.16047 -2.08185,2.07368 -3.83176,2.7319 l -1.17813,0.44308 1.19679,0.3901 c 2.17238,0.70804 3.7834,1.83113 4.88648,3.37544 l 6.1e-4,0.001 10e-4,10e-4 c 1.12263,1.54954 1.68502,3.39015 1.68502,5.57276 0,3.01923 -1.04741,5.50473 -3.17919,7.55637 -2.12316,2.04334 -4.8977,3.06662 -8.41604,3.06662 -3.51765,0 -6.29123,-1.02287 -8.41423,-3.06541 l -6.1e-4,-6.2e-4 c -2.1e-4,-2e-4 -3.1e-4,-3.1e-4 -6.2e-4,-6.2e-4 -2.13017,-2.06669 -3.17919,-4.59374 -3.17919,-7.68098 0,-2.3013 0.57278,-4.18016 1.70548,-5.69076 l 6.2e-4,-6.2e-4 c 1.15004,-1.5278 2.76821,-2.56567 4.91658,-3.12681 l 1.36595,-0.35699 -1.32562,-0.48522 c -1.79953,-0.65875 -3.09333,-1.58089 -3.92869,-2.75658 -0.84099,-1.18361 -1.26421,-2.5942 -1.26421,-4.28026 0,-2.55238 0.89602,-4.64639 2.72829,-6.38306 1.82198,-1.72691 4.23239,-2.59524 7.32159,-2.59524 z m 0.05,2.80535 c -1.80553,0 -3.35952,0.59517 -4.56922,1.76929 -1.20332,1.16793 -1.82829,2.61711 -1.82829,4.25437 0,1.82266 0.60547,3.37328 1.8012,4.55116 1.19685,1.17899 2.77781,1.77171 4.64628,1.77171 1.81983,0 3.36722,-0.58576 4.54634,-1.74702 1.18859,-1.17085 1.8012,-2.6445 1.8012,-4.32662 0,-1.746 -0.62869,-3.26218 -1.85116,-4.45062 -1.20749,-1.20637 -2.75469,-1.82227 -4.54635,-1.82227 z m 0,0.88314 c 1.59646,0 2.87281,0.51355 3.92447,1.56521 l 0.002,0.002 0.002,0.002 c 1.06835,1.03738 1.58568,2.27757 1.58568,3.81973 0,1.47447 -0.50047,2.67535 -1.53812,3.69751 -1.01388,0.99852 -2.29046,1.49298 -3.92628,1.49298 -1.68686,0 -2.99683,-0.50364 -4.02621,-1.51766 -1.0305,-1.01512 -1.53813,-2.28908 -1.53813,-3.92206 0,-1.41966 0.50427,-2.59539 1.5604,-3.62046 1.04977,-1.01889 2.33709,-1.52007 3.95397,-1.52007 z m -0.0747,14.24345 c -2.2073,0 -4.09611,0.74836 -5.57035,2.2226 l -10e-4,0.001 -6.2e-4,6.2e-4 c -1.45653,1.47408 -2.19612,3.35357 -2.19612,5.54387 0,1.34808 0.31769,2.65811 0.94395,3.91062 l 6.2e-4,0.002 0.001,0.002 c 0.65273,1.27019 1.62859,2.27213 2.89504,2.97571 l 0.002,0.001 0.002,6.2e-4 c 1.25868,0.68178 2.62447,1.02522 4.07257,1.02522 2.23788,0 4.14256,-0.73714 5.61851,-2.19552 1.47629,-1.45871 2.22442,-3.3496 2.22442,-5.57276 0,-2.25738 -0.77441,-4.18094 -2.29906,-5.67149 l -10e-4,-6.2e-4 c -1.50777,-1.48974 -3.43641,-2.24548 -5.69197,-2.24548 z m 0,0.88314 c 2.06353,0 3.72285,0.65688 5.0725,1.99083 l 6.2e-4,0.001 0.001,6.2e-4 c 1.36489,1.33351 2.03478,2.98053 2.03478,5.04179 0,2.02995 -0.64713,3.64512 -1.96194,4.94427 -1.31515,1.2995 -2.9494,1.94087 -4.99784,1.94087 -1.30892,0 -2.51691,-0.30478 -3.64996,-0.91806 -1.12384,-0.62489 -1.95822,-1.48241 -2.53445,-2.60247 -0.56934,-1.1393 -0.85003,-2.3041 -0.85003,-3.5139 0,-1.99541 0.63896,-3.60412 1.93906,-4.9208 l 10e-4,-6.1e-4 c 3.1e-4,-3.1e-4 2.9e-4,-9.3e-4 6.2e-4,-0.001 1.31653,-1.31561 2.93265,-1.96253 4.94427,-1.96253 z"
         id="path4178"
         inkscape:connector-curvature="0" /><g
         id="g4218"><path
           d="m 469.88805,153.20366 q 0,9.62506 -3.02433,14.13756 -3.00033,4.4885 -9.33703,4.4885 -6.43272,0 -9.40905,-4.5605 -2.95233,-4.56051 -2.95233,-14.01756 0,-9.52906 3.00034,-14.06556 3.00033,-4.56051 9.36104,-4.56051 6.43271,0 9.38504,4.63252 2.97632,4.60851 2.97632,13.94555 z m -6.31269,10.8972 q 0.84009,-1.94421 1.12812,-4.56051 0.31203,-2.64028 0.31203,-6.33669 0,-3.64841 -0.31203,-6.33671 -0.28803,-2.6883 -1.15213,-4.56051 -0.84009,-1.8482 -2.30425,-2.7843 -1.44016,-0.93611 -3.72041,-0.93611 -2.25626,0 -3.74442,0.93611 -1.46416,0.9361 -2.32826,2.8323 -0.81609,1.77621 -1.12812,4.63252 -0.28804,2.85632 -0.28804,6.2647 0,3.74442 0.26403,6.26469 0.26403,2.52029 1.12813,4.5125 0.79209,1.87222 2.23225,2.85632 1.46416,0.98411 3.86443,0.98411 2.25624,0 3.74442,-0.9361 1.48816,-0.9361 2.30425,-2.83232 z"
           style="font-style:normal;font-weight:normal;font-size:medium;line-height:125%;font-family:sans-serif;letter-spacing:5.37211037px;word-spacing:0px;fill:#cccccc;fill-opacity:1;stroke:none;stroke-width:0.97452754px;stroke-linecap:butt;stroke-linejoin:miter;stroke-opacity:0.28235294"
           id="path4210"
           inkscape:connector-curvature="0" /><path
           inkscape:connector-curvature="0"
           id="path4214"
           d="m 457.52734,134.13867 c -4.35692,0 -7.68241,1.60688 -9.76953,4.7793 l 0.002,0 c -2.08683,3.15526 -3.08204,7.93014 -3.08204,14.33398 0,6.35541 0.97954,11.11193 3.03125,14.28125 l 0,0.002 c 2.07203,3.17488 5.41473,4.78125 9.81836,4.78125 4.33842,0 7.65185,-1.5806 9.74024,-4.70313 l 0.002,-0.002 c 2.10448,-3.14147 3.10547,-7.94188 3.10547,-14.40821 0,-6.27509 -0.98808,-11.00873 -3.05273,-14.20703 l -0.002,-0.002 c -2.05455,-3.22201 -5.38862,-4.85547 -9.79297,-4.85547 z m 0,0.97461 c 4.17151,0 7.09064,1.45316 8.97266,4.40625 l 0.002,0.002 0,0.002 c 1.90285,2.94635 2.89844,7.50677 2.89844,13.67968 0,6.36568 -1.01439,10.99195 -2.94141,13.86719 -1.91214,2.86058 -4.82222,4.27149 -8.93164,4.27149 -4.17218,0 -7.10354,-1.43372 -9,-4.33789 l -0.002,-0.002 c -1.88386,-2.91146 -2.87305,-7.49747 -2.87305,-13.75 0,-6.30156 1.00629,-10.90347 2.91993,-13.79687 l 0,-0.002 c 1.91332,-2.90825 4.83105,-4.33984 8.95507,-4.33984 z m 0,2.98633 c -1.57156,0 -2.91785,0.3266 -4.0039,1.00977 l -0.002,0.002 -0.002,0 c -1.06456,0.68062 -1.90132,1.70922 -2.50781,3.03906 -0.57559,1.25277 -0.95811,2.84425 -1.16992,4.7832 l 0,0.002 0,0.002 c -0.19397,1.92346 -0.29102,4.02847 -0.29102,6.31445 0,2.50774 0.087,4.60941 0.26563,6.31446 0.18021,1.72021 0.56626,3.27292 1.16406,4.65234 0.55741,1.31753 1.36166,2.35456 2.40625,3.06836 l 0.002,0.002 0.002,0 c 1.07842,0.72484 2.46995,1.06836 4.13672,1.06836 1.57155,0 2.91785,-0.32856 4.00391,-1.01172 1.0832,-0.68137 1.91715,-1.71538 2.49219,-3.05078 0.58313,-1.34952 0.9677,-2.91663 1.16406,-4.69726 l 0,-0.004 c 0.21087,-1.78584 0.31445,-3.91415 0.31445,-6.39063 0,-2.44467 -0.10378,-4.57212 -0.31445,-6.38867 l 0,-0.004 c -0.19624,-1.82835 -0.59001,-3.39671 -1.19336,-4.70508 -0.59093,-1.30006 -1.42044,-2.31252 -2.48242,-2.99219 l -0.002,-0.002 c -1.05831,-0.68719 -2.39662,-1.01172 -3.98243,-1.01172 z m 0,0.97461 c 1.45349,0 2.5935,0.29739 3.45508,0.85742 l 0.002,0.002 c 0.88912,0.56846 1.59429,1.41096 2.12304,2.57422 l 0,0.002 0.002,0 c 0.54751,1.18627 0.92157,2.65541 1.10937,4.4082 l 0,0.004 0,0.002 c 0.20511,1.76712 0.30859,3.86091 0.30859,6.27929 0,2.45057 -0.10368,4.54544 -0.30859,6.2793 l 0,0.002 0,0.002 c -0.18782,1.70603 -0.55331,3.18018 -1.08984,4.42187 l -0.002,0 c -0.51305,1.19211 -1.21466,2.0468 -2.11523,2.61328 -0.89818,0.56498 -2.0476,0.86133 -3.48438,0.86133 -1.5316,0 -2.71637,-0.31455 -3.58984,-0.90039 -0.87562,-0.59833 -1.55989,-1.46381 -2.05859,-2.64258 l -0.002,-0.002 0,-0.004 c -0.55342,-1.27594 -0.91817,-2.73049 -1.08984,-4.36914 -0.17342,-1.65531 -0.26172,-3.72806 -0.26172,-6.21289 0,-2.25711 0.0953,-4.32887 0.28516,-6.21289 l 0,-0.004 c 0.20433,-1.86731 0.57383,-3.36198 1.08593,-4.47657 l 0,-0.002 c 0.54484,-1.1956 1.25919,-2.054 2.14454,-2.62109 l 0.004,-0.002 c 0.89765,-0.56354 2.04751,-0.85937 3.48242,-0.85937 z"
           style="color:#000000;font-style:normal;font-variant:normal;font-weight:normal;font-stretch:normal;font-size:medium;line-height:125%;font-family:sans-serif;text-indent:0;text-align:start;text-decoration:none;text-decoration-line:none;text-decoration-style:solid;text-decoration-color:#000000;letter-spacing:5.37211037px;word-spacing:0px;text-transform:none;direction:ltr;block-progression:tb;writing-mode:lr-tb;baseline-shift:baseline;text-anchor:start;white-space:normal;clip-rule:nonzero;display:inline;overflow:visible;visibility:visible;opacity:1;isolation:auto;mix-blend-mode:normal;color-interpolation:sRGB;color-interpolation-filters:linearRGB;solid-color:#000000;solid-opacity:1;fill:#000000;fill-opacity:0.28235294;fill-rule:nonzero;stroke:none;stroke-width:0.97452754px;stroke-linecap:butt;stroke-linejoin:miter;stroke-miterlimit:4;stroke-dasharray:none;stroke-dashoffset:0;stroke-opacity:1;color-rendering:auto;image-rendering:auto;shape-rendering:auto;text-rendering:auto;enable-background:accumulate" /></g><g
         id="g4222"
         transform="translate(28,0)"><path
           inkscape:connector-curvature="0"
           id="path4224"
           style="font-style:normal;font-weight:normal;font-size:medium;line-height:125%;font-family:sans-serif;letter-spacing:5.37211037px;word-spacing:0px;fill:#cccccc;fill-opacity:1;stroke:none;stroke-width:0.97452754px;stroke-linecap:butt;stroke-linejoin:miter;stroke-opacity:0.28235294"
           d="m 469.88805,153.20366 q 0,9.62506 -3.02433,14.13756 -3.00033,4.4885 -9.33703,4.4885 -6.43272,0 -9.40905,-4.5605 -2.95233,-4.56051 -2.95233,-14.01756 0,-9.52906 3.00034,-14.06556 3.00033,-4.56051 9.36104,-4.56051 6.43271,0 9.38504,4.63252 2.97632,4.60851 2.97632,13.94555 z m -6.31269,10.8972 q 0.84009,-1.94421 1.12812,-4.56051 0.31203,-2.64028 0.31203,-6.33669 0,-3.64841 -0.31203,-6.33671 -0.28803,-2.6883 -1.15213,-4.56051 -0.84009,-1.8482 -2.30425,-2.7843 -1.44016,-0.93611 -3.72041,-0.93611 -2.25626,0 -3.74442,0.93611 -1.46416,0.9361 -2.32826,2.8323 -0.81609,1.77621 -1.12812,4.63252 -0.28804,2.85632 -0.28804,6.2647 0,3.74442 0.26403,6.26469 0.26403,2.52029 1.12813,4.5125 0.79209,1.87222 2.23225,2.85632 1.46416,0.98411 3.86443,0.98411 2.25624,0 3.74442,-0.9361 1.48816,-0.9361 2.30425,-2.83232 z" /><path
           style="color:#000000;font-style:normal;font-variant:normal;font-weight:normal;font-stretch:normal;font-size:medium;line-height:125%;font-family:sans-serif;text-indent:0;text-align:start;text-decoration:none;text-decoration-line:none;text-decoration-style:solid;text-decoration-color:#000000;letter-spacing:5.37211037px;word-spacing:0px;text-transform:none;direction:ltr;block-progression:tb;writing-mode:lr-tb;baseline-shift:baseline;text-anchor:start;white-space:normal;clip-rule:nonzero;display:inline;overflow:visible;visibility:visible;opacity:1;isolation:auto;mix-blend-mode:normal;color-interpolation:sRGB;color-interpolation-filters:linearRGB;solid-color:#000000;solid-opacity:1;fill:#000000;fill-opacity:0.28235294;fill-rule:nonzero;stroke:none;stroke-width:0.97452754px;stroke-linecap:butt;stroke-linejoin:miter;stroke-miterlimit:4;stroke-dasharray:none;stroke-dashoffset:0;stroke-opacity:1;color-rendering:auto;image-rendering:auto;shape-rendering:auto;text-rendering:auto;enable-background:accumulate"
           d="m 457.52734,134.13867 c -4.35692,0 -7.68241,1.60688 -9.76953,4.7793 l 0.002,0 c -2.08683,3.15526 -3.08204,7.93014 -3.08204,14.33398 0,6.35541 0.97954,11.11193 3.03125,14.28125 l 0,0.002 c 2.07203,3.17488 5.41473,4.78125 9.81836,4.78125 4.33842,0 7.65185,-1.5806 9.74024,-4.70313 l 0.002,-0.002 c 2.10448,-3.14147 3.10547,-7.94188 3.10547,-14.40821 0,-6.27509 -0.98808,-11.00873 -3.05273,-14.20703 l -0.002,-0.002 c -2.05455,-3.22201 -5.38862,-4.85547 -9.79297,-4.85547 z m 0,0.97461 c 4.17151,0 7.09064,1.45316 8.97266,4.40625 l 0.002,0.002 0,0.002 c 1.90285,2.94635 2.89844,7.50677 2.89844,13.67968 0,6.36568 -1.01439,10.99195 -2.94141,13.86719 -1.91214,2.86058 -4.82222,4.27149 -8.93164,4.27149 -4.17218,0 -7.10354,-1.43372 -9,-4.33789 l -0.002,-0.002 c -1.88386,-2.91146 -2.87305,-7.49747 -2.87305,-13.75 0,-6.30156 1.00629,-10.90347 2.91993,-13.79687 l 0,-0.002 c 1.91332,-2.90825 4.83105,-4.33984 8.95507,-4.33984 z m 0,2.98633 c -1.57156,0 -2.91785,0.3266 -4.0039,1.00977 l -0.002,0.002 -0.002,0 c -1.06456,0.68062 -1.90132,1.70922 -2.50781,3.03906 -0.57559,1.25277 -0.95811,2.84425 -1.16992,4.7832 l 0,0.002 0,0.002 c -0.19397,1.92346 -0.29102,4.02847 -0.29102,6.31445 0,2.50774 0.087,4.60941 0.26563,6.31446 0.18021,1.72021 0.56626,3.27292 1.16406,4.65234 0.55741,1.31753 1.36166,2.35456 2.40625,3.06836 l 0.002,0.002 0.002,0 c 1.07842,0.72484 2.46995,1.06836 4.13672,1.06836 1.57155,0 2.91785,-0.32856 4.00391,-1.01172 1.0832,-0.68137 1.91715,-1.71538 2.49219,-3.05078 0.58313,-1.34952 0.9677,-2.91663 1.16406,-4.69726 l 0,-0.004 c 0.21087,-1.78584 0.31445,-3.91415 0.31445,-6.39063 0,-2.44467 -0.10378,-4.57212 -0.31445,-6.38867 l 0,-0.004 c -0.19624,-1.82835 -0.59001,-3.39671 -1.19336,-4.70508 -0.59093,-1.30006 -1.42044,-2.31252 -2.48242,-2.99219 l -0.002,-0.002 c -1.05831,-0.68719 -2.39662,-1.01172 -3.98243,-1.01172 z m 0,0.97461 c 1.45349,0 2.5935,0.29739 3.45508,0.85742 l 0.002,0.002 c 0.88912,0.56846 1.59429,1.41096 2.12304,2.57422 l 0,0.002 0.002,0 c 0.54751,1.18627 0.92157,2.65541 1.10937,4.4082 l 0,0.004 0,0.002 c 0.20511,1.76712 0.30859,3.86091 0.30859,6.27929 0,2.45057 -0.10368,4.54544 -0.30859,6.2793 l 0,0.002 0,0.002 c -0.18782,1.70603 -0.55331,3.18018 -1.08984,4.42187 l -0.002,0 c -0.51305,1.19211 -1.21466,2.0468 -2.11523,2.61328 -0.89818,0.56498 -2.0476,0.86133 -3.48438,0.86133 -1.5316,0 -2.71637,-0.31455 -3.58984,-0.90039 -0.87562,-0.59833 -1.55989,-1.46381 -2.05859,-2.64258 l -0.002,-0.002 0,-0.004 c -0.55342,-1.27594 -0.91817,-2.73049 -1.08984,-4.36914 -0.17342,-1.65531 -0.26172,-3.72806 -0.26172,-6.21289 0,-2.25711 0.0953,-4.32887 0.28516,-6.21289 l 0,-0.004 c 0.20433,-1.86731 0.57383,-3.36198 1.08593,-4.47657 l 0,-0.002 c 0.54484,-1.1956 1.25919,-2.054 2.14454,-2.62109 l 0.004,-0.002 c 0.89765,-0.56354 2.04751,-0.85937 3.48242,-0.85937 z"
           id="path4226"
           inkscape:connector-curvature="0" /></g></g></g></svg>