<?xml version="1.0" encoding="UTF-8" standalone="no"?>
<!-- Generator: Adobe Illustrator 13.0.0, SVG Export Plug-In . SVG Version: 6.00 Build 14948)  -->

<svg
   xmlns:ns="&amp;ns_sfw;"
   xmlns:dc="http://purl.org/dc/elements/1.1/"
   xmlns:cc="http://creativecommons.org/ns#"
   xmlns:rdf="http://www.w3.org/1999/02/22-rdf-syntax-ns#"
   xmlns:svg="http://www.w3.org/2000/svg"
   xmlns="http://www.w3.org/2000/svg"
   xmlns:sodipodi="http://sodipodi.sourceforge.net/DTD/sodipodi-0.dtd"
   xmlns:inkscape="http://www.inkscape.org/namespaces/inkscape"
   version="1.1"
   id="Ebene_1"
   x="0px"
   y="0px"
   width="484.31992"
   height="76.569923"
   viewBox="217.274 0.152 484.31993 76.56992"
   enable-background="new 217.274 0.152 362.658 72.563"
   xml:space="preserve"
   inkscape:version="0.91 r13725"
   sodipodi:docname="logo.svg"><defs
     id="defs7828" /><sodipodi:namedview
     pagecolor="#ffffff"
     bordercolor="#666666"
     borderopacity="1"
     objecttolerance="10"
     gridtolerance="10"
     guidetolerance="10"
     inkscape:pageopacity="0"
     inkscape:pageshadow="2"
     inkscape:window-width="1680"
     inkscape:window-height="975"
     id="namedview7826"
     showgrid="false"
     inkscape:zoom="6.7708803"
     inkscape:cx="474.77799"
     inkscape:cy="42.863969"
     inkscape:window-x="-9"
     inkscape:window-y="-9"
     inkscape:window-maximized="1"
     inkscape:current-layer="Ebene_1"
     fit-margin-top="0"
     fit-margin-left="0"
     fit-margin-right="0"
     fit-margin-bottom="0" /><metadata
     id="metadata7804"><ns:sfw><ns:slices /><ns:sliceSourceBounds
         x="894.31"
         y="503.143"
         width="362.658"
         height="72.563"
         bottomLeftOrigin="true" /></ns:sfw><rdf:RDF><cc:Work
         rdf:about=""><dc:format>image/svg+xml</dc:format><dc:type
           rdf:resource="http://purl.org/dc/dcmitype/StillImage" /><dc:title></dc:title></cc:Work></rdf:RDF></metadata><path
     style="color:#000000;font-style:normal;font-variant:normal;font-weight:normal;font-stretch:normal;font-size:medium;line-height:normal;font-family:sans-serif;text-indent:0;text-align:start;text-decoration:none;text-decoration-line:none;text-decoration-style:solid;text-decoration-color:#000000;letter-spacing:normal;word-spacing:normal;text-transform:none;direction:ltr;block-progression:tb;writing-mode:lr-tb;baseline-shift:baseline;text-anchor:start;white-space:normal;clip-rule:nonzero;display:inline;overflow:visible;visibility:visible;opacity:1;isolation:auto;mix-blend-mode:normal;color-interpolation:sRGB;color-interpolation-filters:linearRGB;solid-color:#000000;solid-opacity:1;fill:#ffffff;fill-opacity:1;fill-rule:nonzero;stroke:none;stroke-width:5.20000029;stroke-linecap:butt;stroke-linejoin:miter;stroke-miterlimit:4;stroke-dasharray:none;stroke-dashoffset:0;stroke-opacity:1;color-rendering:auto;image-rendering:auto;shape-rendering:auto;text-rendering:auto;enable-background:accumulate"
     d="m 667.52893,-0.65318994 c -10.95861,0 -20.36583,4.48243504 -26.60937,12.80859394 -5.24969,7.003915 -8.04883,16.243409 -8.04883,26.072266 0,9.504759 2.57956,19.115037 8.26562,26.498047 5.68607,7.383009 14.60898,12.382812 26.39649,12.382812 11.78614,0 20.7084,-4.999751 26.39453,-12.382812 5.68613,-7.383062 8.26562,-16.993665 8.26562,-26.498047 l 0,-0.002 c -0.005,-9.828938 -2.80226,-19.066999 -8.05664,-26.070313 -6.24172,-8.3244679 -15.65033,-12.80859394 -26.60742,-12.80859394 z m 0,5.19921904 c 9.58291,0 17.145,3.656984 22.44727,10.7285159 4.46162,5.946686 7.01284,14.118015 7.01758,22.955078 -3.7e-4,8.551963 -2.37805,17.082006 -7.18555,23.324219 -4.80787,6.242688 -11.91553,10.353515 -22.27539,10.353515 -10.36149,0 -17.46966,-4.111025 -22.27735,-10.353515 -4.80768,-6.242491 -7.18554,-14.772932 -7.18554,-23.326172 0,-8.835144 2.55146,-17.00504 7.00976,-22.953125 5.30447,-7.0738409 12.86384,-10.7285159 22.44922,-10.7285159 z m 0,16.2832029 c -2.48624,0 -4.6925,0.875687 -6.29297,2.25586 -1.60046,1.380172 -2.61928,3.159356 -3.3125,4.972656 -1.38644,3.626599 -1.5625,7.533582 -1.5625,10.085937 0,2.573005 0.1748,6.517005 1.55664,10.175782 0.69093,1.829388 1.70536,3.624056 3.30469,5.019531 1.59933,1.395475 3.81272,2.285156 6.30664,2.285156 2.49339,0 4.70564,-0.889703 6.30469,-2.285156 1.59905,-1.395453 2.61572,-3.190143 3.30664,-5.019531 1.38156,-3.658016 1.55426,-7.601094 1.55273,-10.175782 0,-2.551813 -0.17301,-6.457318 -1.55859,-10.083984 -0.69279,-1.813333 -1.71225,-3.594287 -3.3125,-4.974609 -1.60025,-1.380322 -3.80673,-2.25586 -6.29297,-2.25586 z m 0,5.199219 c 1.37276,0 2.16742,0.365275 2.89649,0.994141 0.72906,0.628865 1.3681,1.627161 1.85156,2.892578 0.96692,2.530834 1.2168,5.982329 1.2168,8.228515 l 0,0.002 c 10e-4,2.269347 -0.24785,5.765214 -1.21875,8.335938 -0.48546,1.285362 -1.12846,2.301594 -1.85938,2.939453 -0.73092,0.637859 -1.52011,1.003906 -2.88672,1.003906 -1.36758,0 -2.1557,-0.366069 -2.88672,-1.003906 -0.73101,-0.637837 -1.37587,-1.654091 -1.86132,-2.939453 -0.97091,-2.570724 -1.21875,-6.066895 -1.21875,-8.337891 0,-2.245644 0.24923,-5.697614 1.21679,-8.228515 0.48378,-1.265451 1.12411,-2.263563 1.85352,-2.892578 0.72941,-0.629015 1.52372,-0.994141 2.89648,-0.994141 z"
     id="path9059"
     inkscape:connector-curvature="0" /><g
     inkscape:groupmode="layer"
     id="layer5"
     inkscape:label="Layer 1"
     transform="translate(121.06206,1.7940761)"><path
       style="color:#000000;font-style:normal;font-variant:normal;font-weight:normal;font-stretch:normal;font-size:medium;line-height:normal;font-family:sans-serif;text-indent:0;text-align:start;text-decoration:none;text-decoration-line:none;text-decoration-style:solid;text-decoration-color:#000000;letter-spacing:normal;word-spacing:normal;text-transform:none;direction:ltr;block-progression:tb;writing-mode:lr-tb;baseline-shift:baseline;text-anchor:start;white-space:normal;clip-rule:nonzero;display:inline;overflow:visible;visibility:visible;opacity:1;isolation:auto;mix-blend-mode:normal;color-interpolation:sRGB;color-interpolation-filters:linearRGB;solid-color:#000000;solid-opacity:1;fill:#ffffff;fill-opacity:1;fill-rule:nonzero;stroke:none;stroke-width:5.20000029;stroke-linecap:butt;stroke-linejoin:miter;stroke-miterlimit:4;stroke-dasharray:none;stroke-dashoffset:0;stroke-opacity:1;color-rendering:auto;image-rendering:auto;shape-rendering:auto;text-rendering:auto;enable-background:accumulate"
       d="m 483.3249,-2.447266 c -10.95861,0 -20.36388,4.482435 -26.60742,12.808594 l -0.002,0 c -5.24979,7.004052 -8.04687,16.243595 -8.04687,26.072266 -10e-6,9.504711 2.57981,19.115018 8.26562,26.498047 5.68581,7.383029 14.60702,12.382812 26.39453,12.382812 11.78755,0 20.71214,-4.999713 26.39844,-12.382812 5.6863,-7.3831 8.26562,-16.993713 8.26562,-26.498047 l 0,-0.002 C 517.98682,26.60283 515.18748,17.364528 509.93423,10.361281 503.69078,2.0374 494.28381,-2.447313 483.32485,-2.447313 Z m 0,5.199219 c 9.58505,0 17.14468,3.656397 22.44922,10.728516 4.46076,5.946753 7.01385,14.117842 7.01954,22.955078 -3.7e-4,8.552011 -2.37797,17.082044 -7.18555,23.324219 -4.80795,6.24265 -11.91785,10.353515 -22.2793,10.353515 -10.36149,0 -17.46795,-4.111044 -22.27539,-10.353515 -4.80744,-6.242471 -7.18555,-14.772884 -7.18555,-23.326172 0,-8.835329 2.55156,-17.005177 7.00977,-22.953125 C 466.1821,6.406628 473.73952,2.751953 483.3249,2.751953 Z m 0,16.283203 c -2.48606,0 -4.69071,0.875657 -6.29101,2.25586 -1.6003,1.380202 -2.62132,3.159379 -3.31445,4.972656 -1.38628,3.626553 -1.56055,7.533582 -1.56055,10.085937 0,2.573184 0.17484,6.517119 1.55664,10.175782 0.6909,1.829331 1.70561,3.624047 3.30469,5.019531 1.59908,1.395484 3.81112,2.285156 6.30468,2.285156 2.49357,0 4.7075,-0.889695 6.30665,-2.285156 1.59914,-1.395461 2.61376,-3.190143 3.30468,-5.019531 1.38156,-3.658016 1.55568,-7.601644 1.55469,-10.175782 0,-2.551452 -0.17309,-6.457135 -1.55859,-10.083984 -0.69276,-1.813424 -1.71192,-3.594277 -3.3125,-4.974609 -1.60059,-1.380333 -3.80815,-2.25586 -6.29493,-2.25586 z m 0,5.199219 c 1.37373,0 2.16925,0.365286 2.89844,0.994141 0.7292,0.628854 1.36819,1.627252 1.85156,2.892578 0.96675,2.530651 1.2168,5.981968 1.2168,8.228515 9.4e-4,2.269896 -0.24784,5.767167 -1.21875,8.337891 -0.48545,1.285362 -1.13037,2.301601 -1.86133,2.939453 -0.73095,0.637852 -1.51978,1.003906 -2.88672,1.003906 -1.36693,0 -2.15387,-0.366077 -2.88476,-1.003906 -0.73089,-0.637829 -1.37585,-1.654034 -1.86133,-2.939453 -0.97095,-2.570837 -1.21875,-6.067074 -1.21875,-8.337891 0,-2.245644 0.24932,-5.697568 1.2168,-8.228515 0.48373,-1.265474 1.12422,-2.263593 1.85351,-2.892578 0.72929,-0.628986 1.5221,-0.994141 2.89453,-0.994141 z"
       id="path9066"
       inkscape:connector-curvature="0" /><path
       style="color:#000000;font-style:normal;font-variant:normal;font-weight:normal;font-stretch:normal;font-size:medium;line-height:normal;font-family:sans-serif;text-indent:0;text-align:start;text-decoration:none;text-decoration-line:none;text-decoration-style:solid;text-decoration-color:#000000;letter-spacing:normal;word-spacing:normal;text-transform:none;direction:ltr;block-progression:tb;writing-mode:lr-tb;baseline-shift:baseline;text-anchor:start;white-space:normal;clip-rule:nonzero;display:inline;overflow:visible;visibility:visible;opacity:1;isolation:auto;mix-blend-mode:normal;color-interpolation:sRGB;color-interpolation-filters:linearRGB;solid-color:#000000;solid-opacity:1;fill:#ffffff;fill-opacity:1;fill-rule:nonzero;stroke:none;stroke-width:5.20000029;stroke-linecap:butt;stroke-linejoin:miter;stroke-miterlimit:4;stroke-dasharray:none;stroke-dashoffset:0;stroke-opacity:1;color-rendering:auto;image-rendering:auto;shape-rendering:auto;text-rendering:auto;enable-background:accumulate"
       d="m 422.30273,-2.445312 c -7.18113,0 -14.62746,1.61807 -20.52343,5.259765 -5.89598,3.641695 -10.22266,9.621567 -10.22266,17.443359 0,5.470338 2.56026,10.417413 6.625,14.007813 -6.03952,4.005544 -9.76367,9.946632 -9.76367,17.005859 0,7.936725 4.64896,14.152314 11.06445,18.03711 6.41549,3.884796 14.63761,5.755859 22.81641,5.755859 8.17879,0 16.40263,-1.871085 22.81836,-5.755859 6.41518,-3.884444 11.06366,-10.099337 11.06445,-18.035156 0.005,-7.060345 -3.71986,-13.005042 -9.75976,-17.009766 4.06553,-3.590756 6.62695,-8.536702 6.62695,-14.00586 0,-7.821917 -4.32648,-13.801708 -10.22266,-17.443359 -5.89618,-3.641651 -13.34324,-5.259765 -20.52344,-5.259765 z m 0,5.199218 c 6.37581,0 13.0032,1.527276 17.79102,4.484375 4.78782,2.957099 7.75586,7.028449 7.75586,13.019531 0,4.872834 -2.71242,9.289845 -7.29492,11.990235 l -4.27149,2.517578 4.49805,2.082031 c 6.82316,3.158098 10.2055,8.028838 10.20117,14.421875 l 0,0.002 c 0,5.976213 -3.21932,10.356868 -8.55859,13.589844 -5.33928,3.232976 -12.7578,5.001953 -20.125,5.001953 -7.36721,0 -14.78404,-1.768999 -20.12305,-5.001953 -5.33901,-3.232954 -8.55859,-7.613568 -8.55859,-13.589844 0,-6.394214 3.37987,-11.26248 10.20508,-14.423828 l 4.49804,-2.083984 -4.26953,-2.515625 c -4.58185,-2.700514 -7.29297,-7.114771 -7.29297,-11.990235 0,-5.991207 2.96638,-10.062476 7.75391,-13.019531 4.78753,-2.957055 11.41415,-4.484375 17.79101,-4.484375 z m 0.002,10.429688 c -2.28815,0 -4.37418,0.791493 -5.80078,2.220703 -1.42661,1.42921 -2.125,3.391705 -2.125,5.353515 0,1.961811 0.69825,3.924564 2.125,5.353516 1.42674,1.428952 3.51288,2.220703 5.80078,2.220703 2.28756,0 4.37051,-0.791929 5.79687,-2.220703 1.42637,-1.428773 2.12553,-3.390582 2.12696,-5.351562 l 0,-0.002 c 0,-1.962757 -0.70025,-3.924794 -2.12696,-5.353515 -1.42671,-1.428722 -3.50974,-2.220703 -5.79687,-2.220703 z m 0,5.199218 c 1.16786,0 1.74493,0.322535 2.11719,0.695313 0.37225,0.372778 0.60742,0.898445 0.60742,1.679687 -10e-4,0.781687 -0.23621,1.307844 -0.60742,1.679688 -0.3716,0.372227 -0.94775,0.695312 -2.11719,0.695312 -1.17011,0 -1.74962,-0.323264 -2.1211,-0.695312 -0.37147,-0.372048 -0.60547,-0.897498 -0.60547,-1.679688 0,-0.782189 0.23582,-1.307397 0.60743,-1.679687 0.37161,-0.37229 0.94929,-0.695312 2.11914,-0.695313 z m 0,22.47461 c -2.50251,0 -4.76325,0.889178 -6.3086,2.449219 -1.54534,1.56004 -2.32617,3.69918 -2.32617,5.878906 0,2.151087 0.80061,4.267125 2.35352,5.789062 1.5529,1.521938 3.79528,2.373047 6.28125,2.373047 2.48638,0 4.72698,-0.853071 6.27929,-2.375 1.55231,-1.521928 2.35352,-3.63695 2.35352,-5.787109 0,-2.179726 -0.78083,-4.318866 -2.32617,-5.878906 -1.54535,-1.560041 -3.80414,-2.449219 -6.30664,-2.449219 z m 0,5.199219 c 1.34649,0 2.10221,0.394243 2.61133,0.908203 0.50911,0.513959 0.82226,1.238429 0.82226,2.220703 0,0.913841 -0.29252,1.581647 -0.79492,2.074219 -0.50241,0.492571 -1.27706,0.886718 -2.63867,0.886718 -1.36403,0 -2.13932,-0.395406 -2.64063,-0.886718 -0.50131,-0.491313 -0.79297,-1.156306 -0.79297,-2.074219 0,-0.982274 0.3112,-1.706744 0.82032,-2.220703 0.50911,-0.51396 1.26678,-0.908203 2.61328,-0.908203 z"
       id="path9079"
       inkscape:connector-curvature="0" /><path
       style="color:#000000;font-style:normal;font-variant:normal;font-weight:normal;font-stretch:normal;font-size:medium;line-height:normal;font-family:sans-serif;text-indent:0;text-align:start;text-decoration:none;text-decoration-line:none;text-decoration-style:solid;text-decoration-color:#000000;letter-spacing:normal;word-spacing:normal;text-transform:none;direction:ltr;block-progression:tb;writing-mode:lr-tb;baseline-shift:baseline;text-anchor:start;white-space:normal;clip-rule:nonzero;display:inline;overflow:visible;visibility:visible;opacity:1;isolation:auto;mix-blend-mode:normal;color-interpolation:sRGB;color-interpolation-filters:linearRGB;solid-color:#000000;solid-opacity:1;fill:#ffffff;fill-opacity:1;fill-rule:nonzero;stroke:none;stroke-width:5.20000029;stroke-linecap:butt;stroke-linejoin:miter;stroke-miterlimit:4;stroke-dasharray:none;stroke-dashoffset:0;stroke-opacity:1;color-rendering:auto;image-rendering:auto;shape-rendering:auto;text-rendering:auto;enable-background:accumulate"
       d="m 335.74227,-1.435547 0,27.216797 28.69921,0 -22.49023,49.205078 31.23242,0 0.67188,-1.583984 31.77539,-74.837891 -69.88867,0 z m 5.19921,5.201172 56.83204,0 -28.03321,66.019531 -19.69336,0 22.49024,-49.205078 -31.59571,0 0,-16.814453 z"
       id="polygon9085"
       inkscape:connector-curvature="0" /></g><g
     inkscape:groupmode="layer"
     id="layer6"
     inkscape:label="Layer 2"
     transform="translate(121.06206,1.7940761)"><path
       d="m 570.99387,11.921 c -5.772,-7.698 -14.257,-11.769 -24.527,-11.769 -10.272,0 -18.755,4.069 -24.529,11.769 -4.854,6.476 -7.529,15.181 -7.529,24.513 0,18.058 9.913,36.28 32.062,36.28 22.146,0 32.061,-18.223 32.061,-36.28 -0.005,-9.333 -2.68,-18.038 -7.538,-24.513 z m -24.527,39.309 c -7.723,0 -8.567,-10.037 -8.567,-14.881 0,-4.798 0.849,-14.714 8.567,-14.714 7.718,0 8.564,9.916 8.564,14.714 0.003,4.844 -0.844,14.881 -8.564,14.881 z"
       id="path7822"
       inkscape:connector-curvature="0"
       style="fill:#ad0e0e;stroke:none;stroke-width:5.20000029;stroke-miterlimit:4;stroke-dasharray:none;stroke-opacity:1" /><path
       d="m 507.85478,11.921 c -5.774,-7.698 -14.257,-11.769 -24.529,-11.769 -10.272,0 -18.755,4.069 -24.529,11.769 -4.854,6.476 -7.528,15.181 -7.528,24.513 0,18.058 9.912,36.28 32.061,36.28 22.149,0 32.063,-18.223 32.063,-36.28 -0.006,-9.333 -2.681,-18.038 -7.538,-24.513 z m -24.529,39.309 c -7.721,0 -8.566,-10.037 -8.566,-14.881 0,-4.798 0.849,-14.714 8.566,-14.714 7.721,0 8.565,9.916 8.565,14.714 0.002,4.844 -0.844,14.881 -8.565,14.881 z"
       id="path7820"
       style="fill:#ad0e0e;stroke:none;stroke-width:5.20000029;stroke-miterlimit:4;stroke-dasharray:none;stroke-opacity:1"
       inkscape:connector-curvature="0" /><path
       d="m 441.874,34.488 c 5.281,-3.112 8.575,-8.381 8.575,-14.23 0,-13.813 -14.59,-20.104 -28.146,-20.104 -13.558,0 -28.146,6.291 -28.146,20.104 0,5.851 3.293,11.118 8.573,14.23 -7.511,3.479 -11.713,9.403 -11.713,16.784 0,13.913 15.736,21.192 31.282,21.192 15.546,0 31.283,-7.279 31.283,-21.192 0.005,-7.381 -4.198,-13.308 -11.708,-16.784 z m -19.57,-8.756 c -3.458,0 -5.32543,-2.23 -5.32543,-4.974 0,-2.744 1.86743,-4.975 5.32543,-4.975 3.455,0 5.32543,2.231 5.32543,4.975 -0.002,2.744 -1.86843,4.974 -5.32543,4.974 z m 0,17.725 c 3.849,0 6.03343,2.567 6.03343,5.729 0,3.064 -2.18543,5.561 -6.03343,5.561 -3.85,0 -6.03343,-2.492 -6.03343,-5.561 0,-3.162 2.18443,-5.729 6.03343,-5.729 z"
       id="path7818"
       style="fill:#ad0e0e;stroke:none;stroke-width:5.20000029;stroke-miterlimit:4;stroke-dasharray:none;stroke-opacity:1"
       inkscape:connector-curvature="0"
       sodipodi:nodetypes="cssscssccssscssssss" /><polygon
       points="366.663,23.181 344.172,72.386 369.636,72.386 399.876,1.165 336.516,1.165 336.516,23.181 "
       id="polygon7824"
       transform="translate(1.8262461,0)"
       style="fill:#ad0e0e;stroke:none;stroke-width:5.20000029;stroke-miterlimit:4;stroke-dasharray:none;stroke-opacity:1" /><path
       inkscape:connector-curvature="0"
       id="path9095"
       d="m 125.61323,-1.586144 c -2.81717,0.2828087 -5.51005,1.6565635 -7.38384,3.9796516 l -0.0224,-0.01875 c -0.0201,0.022844 -0.0172,0.048079 -0.0373,0.071 -0.0172,0.020816 -0.0434,0.027608 -0.0597,0.048577 l 0.0224,0.01875 c -2.12654,2.5021504 -2.40059,5.3364725 -2.98193,7.0961128 l -0.0153,0.044846 -0.0115,0.044846 C 109.1252,30.317633 103.14726,50.945575 97.176015,71.56846 l -0.96407,3.333193 3.46771,0.0038 c 3.695005,0.0038 7.379195,-0.0059 11.057065,0.0075 l 1.96928,0.0075 0.54557,-1.894538 c 1.54462,-5.346255 3.09785,-10.685788 4.66348,-16.023237 5.87048,9.09e-4 11.73272,-0.0036 17.5964,0.0075 1.54078,5.337898 3.07329,10.68381 4.64106,16.026973 l 0.54931,1.879592 1.95806,-0.0038 c 3.69694,-0.0096 7.40651,9.6e-5 11.12061,-0.0038 l 3.47145,-0.0038 -0.96781,-3.333193 C 150.00916,49.950707 143.69926,28.34274 137.41767,6.7244153 l -0.004,-0.00746 c -0.62546,-2.17479 -1.84375,-4.2209851 -3.66184,-5.7620895 -2.30825,-2.0126563 -5.27602,-2.8283716 -8.13868,-2.5409984 z m 0.51942,5.317413 c 1.53521,-0.1569034 3.11616,0.2100832 4.20011,1.1583968 l 0.0191,0.014923 0.0191,0.014923 c 0.94501,0.7966256 1.6655,1.9636013 2.0328,3.2435087 l 0,0.00383 0.004,0.00383 c 5.96078,20.5142525 11.9435,41.0150545 17.8991,61.5220545 -1.89622,-7.01e-4 -3.79174,0.0018 -5.69109,0.0038 -1.55622,-5.329759 -3.09091,-10.672187 -4.63733,-16.0195 l -0.54557,-1.875855 -1.95432,-0.0075 c -7.18055,-0.01915 -14.3497,-0.0036 -21.51629,-0.0075 l -1.95059,0 -0.55303,1.872118 c -1.57156,5.343672 -3.12066,10.69105 -4.66721,16.038185 -1.88131,-0.0033 -3.75819,-0.0042 -5.63506,-0.0038 5.64198,-19.484212 11.28379,-38.973762 16.94997,-58.450438 l 0.004,-0.01492 c 0.82669,-2.5074036 1.13665,-4.4124833 2.01038,-5.4033583 l -1.95059,-1.7226482 2.05149,1.6068083 c 0.88998,-1.1386198 2.37718,-1.8198417 3.91239,-1.976747 z m 0.5904,4.3271712 -2.51484,8.5571848 c -2.6337,8.96799 -5.20962,17.944552 -7.82104,26.900952 l -0.96782,3.321981 3.46023,0.01492 c 5.22566,0.02495 10.43814,0.0075 15.64211,0.0075 l 3.47517,0 -0.97155,-3.336929 c -2.60703,-8.964878 -5.19937,-17.932775 -7.80983,-26.900952 l -2.49243,-8.5646582 z m -0.0153,18.6389688 c 1.44607,4.982086 2.89444,9.963111 4.34212,14.947049 -2.898,0.0027 -5.79177,-0.0025 -8.68423,-0.0075 1.44829,-4.983699 2.89574,-9.961494 4.34211,-14.939576 z"
       style="color:#000000;font-style:normal;font-variant:normal;font-weight:normal;font-stretch:normal;font-size:medium;line-height:normal;font-family:sans-serif;text-indent:0;text-align:start;text-decoration:none;text-decoration-line:none;text-decoration-style:solid;text-decoration-color:#000000;letter-spacing:normal;word-spacing:normal;text-transform:none;direction:ltr;block-progression:tb;writing-mode:lr-tb;baseline-shift:baseline;text-anchor:start;white-space:normal;clip-rule:nonzero;display:inline;overflow:visible;visibility:visible;opacity:1;isolation:auto;mix-blend-mode:normal;color-interpolation:sRGB;color-interpolation-filters:linearRGB;solid-color:#000000;solid-opacity:1;fill:#ffffff;fill-opacity:1;fill-rule:nonzero;stroke:none;stroke-width:2.72632551;stroke-linecap:butt;stroke-linejoin:miter;stroke-miterlimit:4;stroke-dasharray:none;stroke-dashoffset:0;stroke-opacity:1;color-rendering:auto;image-rendering:auto;shape-rendering:auto;text-rendering:auto;enable-background:accumulate" /><path
       inkscape:connector-curvature="0"
       style="fill:#ad0e0e;fill-opacity:1;stroke:none;stroke-width:2.72632551;stroke-miterlimit:4;stroke-dasharray:none;stroke-opacity:1"
       id="path7808"
       d="m 120.16414,4.10076 c 2.76652,-3.539461 8.49279,-4.144039 11.88685,-1.174718 1.389,1.170891 2.36092,2.783737 2.85835,4.517117 6.28303,21.623238 12.59475,43.234997 18.87012,64.856323 -3.70783,0.0038 -7.41948,-0.0057 -11.12539,0.0038 -1.74869,-5.959687 -3.45719,-11.932767 -5.18292,-17.900108 -7.17267,-0.01913 -14.3396,-0.0057 -21.51036,-0.0096 -1.75442,5.965427 -3.4878,11.936594 -5.21353,17.909674 -3.68869,-0.01339 -7.37739,-0.0038 -11.066077,-0.0077 5.971167,-20.622623 11.948077,-41.252899 17.946027,-61.869783 0.71172,-2.154287 0.98148,-4.561121 2.53693,-6.325112 m 6.54705,13.250977 c -2.63068,8.957707 -5.20588,17.93072 -7.81934,26.894166 5.21161,0.02487 10.42132,0.0077 15.63102,0.0077 -2.60772,-8.967273 -5.20205,-17.936459 -7.81168,-26.901819 z" /><path
       inkscape:connector-curvature="0"
       id="path9097"
       d="m 208.20259,-1.597354 c -3.28699,0.171999 -6.40813,1.830929 -8.36286,4.607428 l -0.0115,-0.0075 c -0.01,0.01377 -0.008,0.0274 -0.0191,0.0411 -0.0115,0.01626 -0.0298,0.02478 -0.0411,0.0411 l 0.0153,0.01129 c -1.68545,2.305567 -1.92393,4.692225 -2.42889,6.191815 l -0.0191,0.05231 -0.0153,0.05606 c -6.01285,20.722317 -12.04985,41.446152 -18.01876,62.190934 l -0.96034,3.340666 3.47145,-0.01129 c 3.67393,-0.0096 7.36126,0.0021 11.05333,-0.0038 l 1.96182,-0.0038 0.53808,-1.887065 c 1.52778,-5.325842 3.09553,-10.65977 4.63732,-16.00829 5.84832,-0.01052 11.70142,-0.0071 17.55906,-0.0075 1.55099,5.334833 3.08371,10.676904 4.62984,16.023237 l 0.54931,1.890801 1.96928,-0.0075 c 3.69476,-0.01531 7.40618,0.01014 11.14301,-0.01492 l 3.44904,-0.02242 -0.96034,-3.314509 c -6.27352,-21.592988 -12.572,-43.176089 -18.8445,-64.765563 -1.02428,-3.768862 -3.91831,-7.09525 -8.01536,-8.052724 -1.08599,-0.279661 -2.1912,-0.397064 -3.28087,-0.340045 z m 2.01038,5.388411 0.0373,0.0075 0.0373,0.01129 c 1.90726,0.440133 3.61634,2.287716 4.17772,4.353327 l 0.008,0.01875 0.008,0.02242 c 5.95498,20.496702 11.92795,40.987934 17.88415,61.480948 -1.89788,0.0013 -3.79698,0.0054 -5.70605,0.0075 -1.54024,-5.336478 -3.06992,-10.678346 -4.62984,-16.023237 l -0.54931,-1.879591 -1.95807,0 c -7.15414,0.0038 -14.31079,-0.01167 -21.4789,0.0075 l -1.9618,0.0038 -0.5381,1.887065 c -1.52627,5.328344 -3.09769,10.660315 -4.64105,16.00829 -1.87259,7.1e-4 -3.74747,0.0033 -5.62382,0.0038 5.64312,-19.587721 11.33923,-39.164485 17.02094,-58.74564 0.75086,-2.229846 1.02755,-3.921573 1.70397,-4.824161 l -2.11874,-1.588123 2.17853,1.502178 c 1.26441,-1.834023 3.97954,-2.823828 6.15071,-2.253267 z m -1.40128,4.080545 -2.51859,8.714129 c -2.59108,8.977929 -5.20634,17.955983 -7.78741,26.949529 l -0.95288,3.321983 3.45652,0.0038 c 5.19506,0.0077 10.38244,0.0038 15.5711,0.0038 l 3.46023,0 -0.95288,-3.329457 c -2.58319,-8.990422 -5.20932,-17.965 -7.77992,-26.942055 L 208.8117,7.871729 Z m -0.0115,18.837019 c 1.44023,4.981807 2.877,9.963294 4.31223,14.939574 -2.87835,8.91e-4 -5.75555,-0.0023 -8.63193,-0.0038 1.43354,-4.977268 2.87715,-9.957289 4.3197,-14.935837 z"
       style="color:#000000;font-style:normal;font-variant:normal;font-weight:normal;font-stretch:normal;font-size:medium;line-height:normal;font-family:sans-serif;text-indent:0;text-align:start;text-decoration:none;text-decoration-line:none;text-decoration-style:solid;text-decoration-color:#000000;letter-spacing:normal;word-spacing:normal;text-transform:none;direction:ltr;block-progression:tb;writing-mode:lr-tb;baseline-shift:baseline;text-anchor:start;white-space:normal;clip-rule:nonzero;display:inline;overflow:visible;visibility:visible;opacity:1;isolation:auto;mix-blend-mode:normal;color-interpolation:sRGB;color-interpolation-filters:linearRGB;solid-color:#000000;solid-opacity:1;fill:#ffffff;fill-opacity:1;fill-rule:nonzero;stroke:none;stroke-width:2.72632551;stroke-linecap:butt;stroke-linejoin:miter;stroke-miterlimit:4;stroke-dasharray:none;stroke-dashoffset:0;stroke-opacity:1;color-rendering:auto;image-rendering:auto;shape-rendering:auto;text-rendering:auto;enable-background:accumulate" /><path
       inkscape:connector-curvature="0"
       style="fill:#ad0e0e;fill-opacity:1;stroke:none;stroke-width:2.72632551;stroke-miterlimit:4;stroke-dasharray:none;stroke-opacity:1"
       id="path7810"
       d="m 201.91458,4.565672 c 1.93235,-2.802869 5.66887,-4.16317 8.95962,-3.298395 3.00949,0.694501 5.31493,3.288829 6.10891,6.21032 6.27729,21.606019 12.57753,43.206299 18.85481,64.812319 -3.71356,0.02487 -7.42522,0 -11.13878,0.0153 -1.72573,-5.96734 -3.43423,-11.94042 -5.17527,-17.905847 -7.15927,0.0038 -14.31664,-0.01339 -21.47592,0.0057 -1.71042,5.971167 -3.47441,11.928941 -5.18674,17.898195 -3.68487,0.0057 -7.36973,-0.0038 -11.05269,0.0057 5.96734,-20.73933 12.00356,-41.463354 18.01682,-62.187378 0.63136,-1.874958 0.87625,-3.937411 2.08924,-5.555998 m -0.90304,39.687968 c 5.19057,0.0077 10.37731,0.0019 15.56789,0.0019 -2.58094,-8.982579 -5.20588,-17.959418 -7.77917,-26.945823 -2.59241,8.982579 -5.2097,17.957505 -7.78872,26.94391 z" /><path
       inkscape:connector-curvature="0"
       id="path9099"
       d="m 144.98958,-1.4478834 -0.004,2.6045231 c -0.004,3.6215806 0.002,7.2382327 0,10.8552943 l -0.004,2.608259 2.60826,0 c 4.07702,0.0031 8.14495,5.74e-4 12.21175,0.0038 -0.004,19.226067 0,38.453899 0,57.676927 l 0,2.60826 15.82518,0 0,-2.60826 c 0.004,-19.225012 0.004,-38.452068 0.004,-57.676927 4.06592,-0.0032 8.13278,-5.8e-4 12.208,-0.0038 l 2.60828,0 0,-16.0680774 -45.45772,0 z m 5.21279,5.2165192 35.0284,0 0,5.638775 c -4.06881,9.76e-5 -8.13621,-0.00421 -12.21173,0.00383 l -2.60453,0.00383 0,2.6045232 c 0,19.223449 0.004,38.449892 0,57.67319 l -5.39961,0 c -3.1e-4,-19.223866 -0.002,-38.448861 0.004,-57.67319 l 0,-2.6045232 -2.60452,-0.00383 c -4.07733,-0.00784 -8.14578,-0.00364 -12.21547,-0.00383 -4e-5,-1.8808046 0.004,-3.7602241 0.004,-5.638775 z"
       style="color:#000000;font-style:normal;font-variant:normal;font-weight:normal;font-stretch:normal;font-size:medium;line-height:normal;font-family:sans-serif;text-indent:0;text-align:start;text-decoration:none;text-decoration-line:none;text-decoration-style:solid;text-decoration-color:#000000;letter-spacing:normal;word-spacing:normal;text-transform:none;direction:ltr;block-progression:tb;writing-mode:lr-tb;baseline-shift:baseline;text-anchor:start;white-space:normal;clip-rule:nonzero;display:inline;overflow:visible;visibility:visible;opacity:1;isolation:auto;mix-blend-mode:normal;color-interpolation:sRGB;color-interpolation-filters:linearRGB;solid-color:#000000;solid-opacity:1;fill:#ffffff;fill-opacity:1;fill-rule:nonzero;stroke:none;stroke-width:2.72632551;stroke-linecap:butt;stroke-linejoin:miter;stroke-miterlimit:4;stroke-dasharray:none;stroke-dashoffset:0;stroke-opacity:1;color-rendering:auto;image-rendering:auto;shape-rendering:auto;text-rendering:auto;enable-background:accumulate" /><path
       inkscape:connector-curvature="0"
       style="fill:#ad0e0e;fill-opacity:1;stroke:none;stroke-width:2.72632551;stroke-miterlimit:4;stroke-dasharray:none;stroke-opacity:1"
       id="path7812"
       d="m 147.59421,1.160138 c 13.41743,0 26.83103,0 40.24464,0 0,3.619816 0,7.233892 0,10.85371 -4.93994,0.0038 -9.87797,-0.0057 -14.816,0.0038 0,20.092661 0.002,40.191061 -0.002,60.283722 -3.53564,0 -7.07701,0 -10.61265,0 0,-20.092661 -0.004,-40.189148 0.002,-60.283722 -4.93994,-0.0096 -9.87606,0 -14.81791,-0.0038 0.002,-3.619817 -0.002,-7.235807 0.002,-10.85371 z" /><path
       inkscape:connector-curvature="0"
       id="path9101"
       d="m 253.60103,-1.4516199 c -1.30539,-0.032525 -2.69443,0.1113304 -4.07308,0.5829339 -4.57547,1.4789783 -7.83529,5.7833228 -7.86586,10.6497721 l 0,0.00746 0,0.00746 c 0.0115,20.8349889 -2e-4,41.6719709 0.008,62.5085599 l 0,2.604523 2.60453,0.0038 c 3.56993,0.0038 7.13027,-0.0038 10.68714,0.0038 l 2.61199,0.0038 0.004,-2.611996 c 0.006,-8.154427 0.001,-16.304731 0,-24.457109 0.19725,0.367201 0.2075,0.80421 0.44467,1.150922 5.45222,8.235848 10.8767,16.510986 16.36327,24.752313 l 0.77725,1.169607 1.40503,-0.0075 c 4.17758,-0.01722 8.36644,1.99e-4 12.56673,-0.0075 l 4.86525,-0.0075 -2.69793,-4.046915 c -5.69409,-8.535426 -11.47117,-16.987688 -17.01721,-25.540769 -0.0589,-0.150992 -0.10389,-0.380577 -0.0897,-0.49699 0.0153,-0.128741 0.002,-0.04114 -0.0561,0.0038 1.74413,-1.287736 4.22562,-2.355856 6.56176,-4.424327 4.28843,-3.700619 6.51247,-9.101512 6.93543,-14.457534 0.56471,-4.83821 0.37367,-10.175755 -2.07763,-14.976943 -3.536,-7.3209641 -11.12659,-12.2570699 -19.28543,-12.4060507 l -0.0224,0 -0.0224,0 c -4.21469,-0.00383 -8.42673,0.00746 -12.62652,-0.00746 z m -0.13086,5.2165192 0.0298,0 0.0262,0 c 4.22694,0.015306 8.4445,5.16e-5 12.64894,0.00383 6.07714,0.1109669 12.06801,4.0026371 14.70415,9.4876407 l 0.0153,0.0299 0.0153,0.02615 c 1.79257,3.49834 2.05157,7.806343 1.54701,12.077215 l -0.008,0.05231 -0.004,0.05231 c -0.32374,4.193594 -2.10246,8.329996 -5.153,10.959925 l -0.0153,0.01129 -0.0153,0.01492 c -1.53299,1.36399 -3.86029,2.390485 -6.25908,4.170228 l -0.0115,0.01129 -0.0153,0.01129 c -1.20106,0.915389 -1.8115,2.278125 -1.9618,3.512555 -0.15038,1.234431 0.0716,2.40837 0.5904,3.471452 l 0.071,0.138269 0.0859,0.134519 c 4.75265,7.336337 9.65368,14.541163 14.50236,21.76664 -2.10122,-0.0014 -4.20016,-0.0014 -6.30765,0.0038 -5.21856,-7.849779 -10.39655,-15.739986 -15.60845,-23.612601 l -0.0115,-0.01492 -0.0115,-0.01492 c -1.12346,-1.642394 -1.43581,-3.937632 -0.78099,-5.777034 0.43384,-1.180126 1.60959,-2.245327 3.04173,-2.802573 4.12879,-1.577578 8.4472,-4.107437 11.00103,-8.44882 l 0,-0.0038 c 2.10527,-3.54566 1.9111,-7.587354 1.09486,-10.94124 -1.14552,-5.132693 -5.85565,-8.9428888 -11.1916,-8.7627073 -2.65475,0.017602 -5.34522,-0.012245 -8.06766,0.014923 -2.78703,-0.064514 -5.09482,2.0540623 -5.05957,4.9437373 -0.0115,18.475502 0.004,36.9461 -0.004,55.419922 -1.82697,-9.12e-4 -3.65081,-0.0038 -5.47436,-0.0038 -0.006,-19.960448 0.004,-39.919854 -0.008,-59.8853542 0.0153,-2.4267541 1.934,-4.9782943 4.26738,-5.7247189 l 0.0299,-0.00746 0.0262,-0.011288 c 0.65214,-0.225125 1.43153,-0.3235201 2.26822,-0.3026775 z m 12.12952,10.7730847 0.0337,0 0.0373,0 c 2.58522,-0.0873 5.36824,2.143282 5.93025,4.697112 l 0.004,0.0299 0.008,0.0299 c 0.62873,2.571283 0.6012,5.202961 -0.50819,7.069954 l -0.004,0.0038 -0.004,0.0075 c -1.67602,2.855004 -4.88105,4.899534 -8.38529,6.236657 l -0.008,0.0038 -0.008,0.0038 c -2.08038,0.809478 -3.8695,2.41016 -5.11564,4.480378 -10e-4,-7.516465 -0.004,-15.035955 0,-22.55136 2.63512,-0.02485 5.30975,0.0076 8.01908,-0.01129 z"
       style="color:#000000;font-style:normal;font-variant:normal;font-weight:normal;font-stretch:normal;font-size:medium;line-height:normal;font-family:sans-serif;text-indent:0;text-align:start;text-decoration:none;text-decoration-line:none;text-decoration-style:solid;text-decoration-color:#000000;letter-spacing:normal;word-spacing:normal;text-transform:none;direction:ltr;block-progression:tb;writing-mode:lr-tb;baseline-shift:baseline;text-anchor:start;white-space:normal;clip-rule:nonzero;display:inline;overflow:visible;visibility:visible;opacity:1;isolation:auto;mix-blend-mode:normal;color-interpolation:sRGB;color-interpolation-filters:linearRGB;solid-color:#000000;solid-opacity:1;fill:#ffffff;fill-opacity:1;fill-rule:nonzero;stroke:none;stroke-width:2.72632551;stroke-linecap:butt;stroke-linejoin:miter;stroke-miterlimit:4;stroke-dasharray:none;stroke-dashoffset:0;stroke-opacity:1;color-rendering:auto;image-rendering:auto;shape-rendering:auto;text-rendering:auto;enable-background:accumulate" /><path
       inkscape:connector-curvature="0"
       style="fill:#ad0e0e;fill-opacity:1;stroke:none;stroke-width:2.72632551;stroke-miterlimit:4;stroke-dasharray:none;stroke-opacity:1"
       id="path7814"
       d="m 250.3519,1.602092 c 1.01975,-0.352033 2.10837,-0.472566 3.1836,-0.445781 4.23014,0.01531 8.46219,0.0019 12.6885,0.0057 7.12484,0.130098 13.92443,4.549643 17.00663,10.962764 2.13324,4.163171 2.35517,9.003623 1.81565,13.570485 -0.36926,4.783055 -2.37431,9.562285 -6.05153,12.732494 -1.94383,1.729553 -4.36023,2.777999 -6.43608,4.318143 -1.14219,0.870516 -1.19767,2.557978 -0.6084,3.765221 5.61339,8.664984 11.44872,17.197955 17.18074,25.790237 -4.18996,0.0077 -8.38374,-0.0096 -12.57561,0.0077 -5.48713,-8.242162 -10.91685,-16.526414 -16.38101,-24.780055 -1.60711,-2.349437 -2.04333,-5.460337 -1.08289,-8.140761 0.7519,-2.054801 2.54841,-3.560507 4.54965,-4.339189 3.8207,-1.457875 7.58783,-3.748002 9.70386,-7.352513 1.61093,-2.711036 1.52675,-6.055348 0.80164,-9.020843 -0.84756,-3.851315 -4.59939,-6.879946 -8.5655,-6.746021 -2.73973,0.01913 -5.48138,-0.01531 -8.21729,0.01339 -1.23977,-0.0287 -2.40683,1.048446 -2.39153,2.303519 -0.0115,19.352243 0.008,38.704487 -0.004,58.060557 -3.56433,-0.0077 -7.12675,0 -10.69109,-0.0038 -0.008,-20.834991 0.004,-41.669982 -0.008,-62.506884 0.023,-3.652342 2.6192,-7.086576 6.08213,-8.194331 z" /><path
       inkscape:connector-curvature="0"
       id="path9103"
       d="m 296.0572,-1.4478834 0,2.6082596 0,73.7450038 2.60453,0.0038 c 3.75612,0.0038 7.50297,-0.0057 11.24018,0.0038 l 2.61199,0.0075 0.004,-2.611996 c 0.0134,-23.719901 0.002,-47.432493 0.004,-71.1479544 l 0,-2.6082597 -16.46417,0 z m 5.21652,5.2165192 6.03115,0 c -10e-4,21.9776702 0.008,43.9505522 -0.004,65.9276982 -2.0108,-0.0013 -4.01981,-0.004 -6.0274,-0.0038 l 0,-65.9239621 z"
       style="color:#000000;font-style:normal;font-variant:normal;font-weight:normal;font-stretch:normal;font-size:medium;line-height:normal;font-family:sans-serif;text-indent:0;text-align:start;text-decoration:none;text-decoration-line:none;text-decoration-style:solid;text-decoration-color:#000000;letter-spacing:normal;word-spacing:normal;text-transform:none;direction:ltr;block-progression:tb;writing-mode:lr-tb;baseline-shift:baseline;text-anchor:start;white-space:normal;clip-rule:nonzero;display:inline;overflow:visible;visibility:visible;opacity:1;isolation:auto;mix-blend-mode:normal;color-interpolation:sRGB;color-interpolation-filters:linearRGB;solid-color:#000000;solid-opacity:1;fill:#ffffff;fill-opacity:1;fill-rule:nonzero;stroke:none;stroke-width:2.72632551;stroke-linecap:butt;stroke-linejoin:miter;stroke-miterlimit:4;stroke-dasharray:none;stroke-dashoffset:0;stroke-opacity:1;color-rendering:auto;image-rendering:auto;shape-rendering:auto;text-rendering:auto;enable-background:accumulate" /><g
       id="g9176"
       transform="translate(-4.573974,-7.74e-4)"><g
         id="g9151"><path
           inkscape:connector-curvature="0"
           style="fill:#ad0e0e;fill-opacity:1;stroke:none;stroke-width:2.72632551;stroke-miterlimit:4;stroke-dasharray:none;stroke-opacity:1"
           id="path7816"
           d="m 303.23896,1.1609108 c 3.75183,0 7.49984,0 11.24975,0 -0.002,23.7163032 0.008,47.4268672 -0.006,71.1450842 -3.74609,-0.0096 -7.49409,0 -11.24401,-0.0038 0,-23.716304 0,-47.428781 0,-71.1412582 z" /></g></g></g></svg>