<?xml version="1.0" encoding="UTF-8" standalone="no"?>
<!-- Created with Inkscape (http://www.inkscape.org/) -->

<svg
   xmlns:dc="http://purl.org/dc/elements/1.1/"
   xmlns:cc="http://creativecommons.org/ns#"
   xmlns:rdf="http://www.w3.org/1999/02/22-rdf-syntax-ns#"
   xmlns:svg="http://www.w3.org/2000/svg"
   xmlns="http://www.w3.org/2000/svg"
   xmlns:sodipodi="http://sodipodi.sourceforge.net/DTD/sodipodi-0.dtd"
   xmlns:inkscape="http://www.inkscape.org/namespaces/inkscape"
   width="252.37079mm"
   height="33.482407mm"
   viewBox="0 0 894.22721 118.63845"
   id="svg2"
   version="1.1"
   inkscape:version="0.91 r13725"
   sodipodi:docname="logo.svg">
  <defs
     id="defs4" />
  <sodipodi:namedview
     id="base"
     pagecolor="#ffffff"
     bordercolor="#666666"
     borderopacity="1.0"
     inkscape:pageopacity="0.0"
     inkscape:pageshadow="2"
     inkscape:zoom="0.9361479"
     inkscape:cx="420.56571"
     inkscape:cy="-19.504296"
     inkscape:document-units="px"
     inkscape:current-layer="g4795"
     showgrid="false"
     inkscape:window-width="1680"
     inkscape:window-height="975"
     inkscape:window-x="1671"
     inkscape:window-y="-9"
     inkscape:window-maximized="1"
     showguides="true"
     inkscape:guide-bbox="true"
     fit-margin-top="0"
     fit-margin-left="0"
     fit-margin-right="0"
     fit-margin-bottom="0" />
  <metadata
     id="metadata7">
    <rdf:RDF>
      <cc:Work
         rdf:about="">
        <dc:format>image/svg+xml</dc:format>
        <dc:type
           rdf:resource="http://purl.org/dc/dcmitype/StillImage" />
        <dc:title></dc:title>
      </cc:Work>
    </rdf:RDF>
  </metadata>
  <g
     inkscape:label="Layer 1"
     inkscape:groupmode="layer"
     id="layer1"
     transform="translate(-0.95066128,23.918581)">
    <g
       transform="matrix(0.21312821,0,0,0.21312821,643.84637,-24.027871)"
       id="g4795">
      <g
         id="g4179">
        <path
           transform="matrix(4.6920114,0,0,4.6920114,-3016.4722,0.51278524)"
           id="path4147"
           d="M 92.257812,22.207031 C 75.423986,22.28043 58.818708,33.3478 53.869141,52.355469 c -5.804548,22.29102 7.318364,46.278025 28.18164,51.509761 2.07104,0.51934 7.434929,0.82169 11.919922,0.67188 6.802277,-0.22721 9.222017,-0.79883 14.589847,-3.44141 25.08178,-12.347717 30.95374,-45.504118 11.77539,-66.488278 -7.79593,-8.529986 -17.97783,-12.44443 -28.078128,-12.400391 z m 241.902348,0 c -16.83383,0.0734 -33.43911,11.140769 -38.38868,30.148438 -5.80455,22.29102 7.31837,46.278025 28.18164,51.509761 2.07104,0.51934 7.43494,0.82169 11.91993,0.67188 6.80228,-0.22721 9.22201,-0.79883 14.58984,-3.44141 25.08178,-12.347717 30.95374,-45.504118 11.77539,-66.488278 -7.79593,-8.529986 -17.97783,-12.44443 -28.07812,-12.400391 z m 141.42578,0 c -16.83383,0.0734 -33.43911,11.140769 -38.38867,30.148438 -5.80455,22.29102 7.32031,46.278025 28.18359,51.509761 2.07104,0.51934 7.43493,0.82169 11.91992,0.67188 6.80228,-0.22721 9.22006,-0.79883 14.58789,-3.44141 25.08178,-12.347717 30.9557,-45.504118 11.77735,-66.488278 -7.79593,-8.529986 -17.97979,-12.44443 -28.08008,-12.400391 z m -432.693362,0.8125 C 36.384993,23.019068 28.058243,24.707668 22.535156,27.324219 6.5827717,34.881629 -2.4901966,52.91914 0.59960938,70.9375 3.2986964,86.67736 11.969235,96.798903 27.287109,102.0957 c 5.261309,1.81931 20.910609,2.46833 23.279297,0.96485 0.782338,-0.49657 1.468489,-4.030598 1.791016,-9.234378 0.287375,-4.63663 0.695177,-9.855766 0.90625,-11.597656 l 0.382812,-3.167969 -3.390625,1.417969 c -1.865355,0.77939 -5.900267,1.416015 -8.964843,1.416015 -8.865436,0 -15.6682,-4.391908 -18.94336,-12.230469 -2.013718,-4.8195 -1.925847,-8.339836 0.332032,-13.310546 4.399222,-9.68486 15.63273,-13.64315 28.027343,-9.875 2.387388,0.7258 2.403514,0.685878 1.759766,-4.675782 -0.357118,-2.97437 -0.653403,-8.191903 -0.658203,-11.595703 l -0.0098,-6.189453 -4.75,-0.71875 c -1.251158,-0.189215 -2.6545,-0.27919 -4.15625,-0.279297 z m 332.843752,0.566407 0,39.654296 0,39.654296 9.75,-0.0176 c 22.64679,-0.0404 37.2135,-7.229978 44.86523,-22.144528 2.20099,-4.29009 2.82644,-7.080776 3.18946,-14.222656 0.58177,-11.44576 -0.95519,-18.113965 -5.87696,-25.484375 -4.60457,-6.8954 -11.9698,-12.285132 -19.92578,-14.582032 -3.0233,-0.87283 -11.4608,-1.873076 -18.75,-2.222656 l -13.25195,-0.634765 z m -235.72656,0.230468 -0.57813,2.789063 c -0.50578,2.439633 -9.59766,74.147911 -9.59766,75.697261 0,0.32617 4.725,0.5918 10.5,0.5918 9.31113,0 10.50494,-0.19814 10.55664,-1.75 0.0321,-0.9625 0.85689,-8.949999 1.83204,-17.749999 l 1.77343,-16 4.46485,9.5 c 2.45547,5.224996 6.01815,12.9881 7.91797,17.25 1.89982,4.2619 3.72555,7.749399 4.05664,7.749999 0.33108,6e-4 3.62953,-7.312499 7.33007,-16.249999 3.70056,-8.9375 7.04591,-16.580035 7.4336,-16.984375 0.3877,-0.40433 1.54004,6.57067 2.56055,15.5 1.02051,8.92934 2.06381,16.796874 2.32031,17.484374 0.33128,0.88795 3.42394,1.25 10.67773,1.25 l 10.21289,0 -5.5957,-39.249999 -5.59375,-39.25 -8.03906,-0.287109 -8.03907,-0.28711 -6.92578,17.462891 c -4.07378,9.495686 -7.09777,17.292854 -7.30664,17.083985 -0.20887,-0.208871 -3.37689,-7.937994 -7.04101,-17.175782 l -6.66211,-16.796875 -8.12891,-0.289062 -8.1289,-0.289063 z m 84.73632,0 -0.57812,2.789063 c -0.94535,2.305199 -9.59766,74.147911 -9.59766,75.697261 0,0.32617 4.725,0.5918 10.5,0.5918 9.31113,0 10.5069,-0.19814 10.5586,-1.75 0.0321,-0.9625 0.85688,-8.949999 1.83203,-17.749999 l 1.77344,-16 4.46289,9.5 c 2.19198,5.340893 6.0201,12.9881 7.91992,17.25 1.89982,4.2619 3.72359,7.749399 4.05469,7.749999 0.33107,6e-4 3.63148,-7.312499 7.33203,-16.249999 3.70055,-8.9375 7.04395,-16.580035 7.43164,-16.984375 0.3877,-0.40433 1.54003,6.57067 2.56054,15.5 1.02051,8.92934 2.06577,16.796874 2.32227,17.484374 0.33128,0.88795 3.42394,1.25 10.67773,1.25 l 10.21094,0 -5.59375,-39.249999 -5.5957,-39.25 -8.03711,-0.287109 -8.03906,-0.28711 -6.92579,17.462891 c -3.80951,9.604751 -7.09777,17.292854 -7.30664,17.083985 -0.20887,-0.208871 -3.37689,-7.937995 -7.04101,-17.175782 l -6.66211,-16.796875 -8.12891,-0.289062 -8.13086,-0.289063 z m 293.54688,0.07813 0,39.5 0,39.500004 10,0 10,0 0.0625,-16.750004 0.0645,-16.75 8.08985,16.75 8.09179,16.750004 10.84571,0 c 5.9654,0 10.8457,-0.22147 10.8457,-0.49219 0,-0.27072 -3.7125,-7.947388 -8.25,-17.060548 -7.88519,-15.8367 -8.16156,-16.619218 -6.25,-17.673828 7.79381,-4.29984 11.81079,-14.343015 9.63086,-24.083985 -3.28863,-14.69511 -13.65549,-19.623201 -41.38086,-19.669922 l -11.75,-0.01953 z m 60.47656,0 0,39.519531 0,39.519523 21.67969,-0.26953 21.68164,-0.26953 2.16211,-7.999994 c 1.18884,-4.399999 2.46593,-9.2375 2.83789,-10.75 l 0.67578,-2.75 -14.51953,0 -14.51758,0 0,-3.5 0,-3.5 9,0 9,0 0,-10.5 0,-10.5 -9,0 -9,0 0,-4 0,-4 13,0 c 14.98468,0 13.82664,1.208391 11.5,-12 -0.8235,-4.675 -1.49925,-8.6125 -1.5,-8.75 -7.5e-4,-0.1375 -9.675,-0.25 -21.5,-0.25 l -21.5,0 z m -40.47656,18 4.04492,0 c 5.72506,0 8.95508,3.36986 8.95508,9.34375 0,2.77079 -0.671,5.263791 -1.78906,6.644531 -1.22057,1.507341 -3.28699,2.380033 -6.5,2.742188 l -4.71094,0.53125 0,-9.630859 0,-9.63086 z M 92.291016,44.064453 c 9.623534,-0.01473 18.167964,8.127843 18.167964,19.113281 0,8.47769 -3.5516,14.405057 -10.843746,18.097657 -3.851301,1.95022 -10.685058,2.041095 -14.798828,0.197265 -15.4125,-6.90804 -14.953408,-29.475337 0.732422,-36.029297 2.243959,-0.937586 4.521373,-1.375506 6.742188,-1.378906 z m 241.902344,0 c 9.62353,-0.01473 18.16797,8.127843 18.16797,19.113281 0,8.47769 -3.5516,14.405057 -10.84375,18.097657 -3.8513,1.95022 -10.68506,2.041095 -14.79883,0.197265 -15.4125,-6.90804 -14.95341,-29.475337 0.73242,-36.029297 2.24396,-0.937586 4.52138,-1.375506 6.74219,-1.378906 z m 141.42578,0 c 9.62353,-0.01473 18.16992,8.127843 18.16992,19.113281 0,8.47769 -3.5516,14.405057 -10.84375,18.097657 -3.8513,1.95022 -10.68701,2.041095 -14.80078,0.197265 -15.4125,-6.90804 -14.95341,-29.475337 0.73242,-36.029297 2.24396,-0.937586 4.52138,-1.375506 6.74219,-1.378906 z m -79.88281,0.568359 3.50781,0.570313 c 7.84697,1.27338 13.49219,8.631381 13.49219,17.587891 0,8.66138 -3.14729,13.821343 -10.5,17.214843 -2.2,1.01536 -4.5625,1.855088 -5.25,1.867188 -0.95606,0.0168 -1.25,-4.359655 -1.25,-18.609375 l 0,-18.63086 z"
           style="fill:#aaaaaa;fill-opacity:1"
           inkscape:connector-curvature="0" />
        <path
           inkscape:connector-curvature="0"
           id="path4745"
           d="m 815.64671,64.452182 0,-18.137217 21.90907,0 21.90907,0 16.55008,16.779986 c 9.10254,9.228992 17.13797,17.39074 17.85651,18.137218 l 1.30644,1.357231 -39.76559,0 -39.76558,0 0,-18.137218 z"
           style="opacity:0.64800002;fill:#009ee0;fill-opacity:0;stroke:none;stroke-width:45;stroke-linecap:round;stroke-linejoin:round;stroke-miterlimit:4;stroke-dasharray:none;stroke-opacity:1"
           transform="matrix(4.6920114,0,0,4.6920114,-3020.9345,112.73905)" />
        <path
           inkscape:connector-curvature="0"
           id="path4757"
           d="m 815.66795,20.595696 0,-18.133001 39.63786,0 c 38.89249,0 39.63038,0.01037 39.23982,0.551394 -0.21893,0.303267 -8.10095,8.460769 -17.5156,18.127781 l -17.11755,17.576387 -22.12227,0.0052 -22.12226,0.0052 0,-18.133 z"
           style="opacity:1;fill:#009ee0;fill-opacity:1;stroke:none;stroke-width:45;stroke-linecap:round;stroke-linejoin:round;stroke-miterlimit:4;stroke-dasharray:none;stroke-opacity:1"
           transform="matrix(4.6920114,0,0,4.6920114,-3020.9345,112.73905)" />
        <path
           inkscape:connector-curvature="0"
           id="path4759"
           d="m 815.66795,64.405025 0,-18.133 21.72043,0 21.72043,0 14.90824,15.161899 c 8.19952,8.339044 16.2056,16.498894 17.79128,18.133 l 2.88306,2.971106 -39.51172,0 -39.51172,0 0,-18.133005 z"
           style="opacity:1;fill:#e2001a;fill-opacity:1;stroke:none;stroke-width:45;stroke-linecap:round;stroke-linejoin:round;stroke-miterlimit:4;stroke-dasharray:none;stroke-opacity:1"
           transform="matrix(4.6920114,0,0,4.6920114,-3020.9345,112.73905)" />
        <g
           id="g4167">
          <path
             inkscape:connector-curvature="0"
             id="path4807"
             d="M 175.72051,556.44637 C 158.73415,555.36329 140.0374,551.92667 126.375,547.37626 105.78086,540.51716 82.68978,527.05642 66.862555,512.68403 64.5319,510.56761 61.333511,507.87974 59.755023,506.71099 55.201425,503.33939 43.17432,488.78348 35.825448,477.75 26.040022,463.05832 15.406535,440.5764 11.348762,426 5.4343578,404.75419 3.8411238,372.25818 7.0832728,339 14.845936,259.37009 55.587688,175.80669 144.39095,57.375 163.46737,31.933898 186.13025,3.2003113 188.34138,1.6515783 c 3.76473,-2.63691982 15.26248,-0.75756802 38.53362,6.2984727 6.1875,1.8761115 28.4625,8.930948 49.5,15.677415 21.0375,6.746467 39.35035,12.486534 40.69522,12.755704 3.99991,0.800569 4.80204,2.081722 3.54106,5.655719 -1.4653,4.153096 -8.52414,14.187696 -18.43821,26.211111 -19.69805,23.889068 -40.03547,51.09384 -54.53146,72.9451 -13.46679,20.29987 -16.46455,26.6798 -14.53059,30.92439 1.27136,2.79032 7.66386,5.49732 15.24066,6.4539 3.45033,0.43561 8.91643,1.59811 12.1917,2.40413 18.63656,4.58628 52.98093,23.95039 72.33376,40.96861 2.61368,2.29838 5.05814,5.26081 6.15696,5.91014 3.11373,1.83999 11.611,12.04793 18.24127,21.94233 16.59658,24.76718 26.13106,54.97111 28.93469,87.12084 4.2947,49.24826 -9.92896,99.81488 -40.16277,140.35835 -27.59064,36.99898 -63.26709,60.45077 -107.13551,71.20972 -12.57773,3.08475 -22.68272,7.10081 -36.78678,7.99575 -12.98998,0.82424 -12.89709,0.82437 -26.40449,-0.0369 z m 35.92245,-143.33873 c 6.07363,-1.52715 12.00479,-4.6801 18.63661,-9.95015 6.55478,-5.20886 10.36684,-11.55025 14.25594,-19.27715 4.49166,-8.92407 5.41402,-15.85536 5.45033,-27.60831 0.0472,-15.27227 -3.62409,-24.92615 -11.87538,-35.88954 -5.31416,-7.06088 -10.91424,-10.70478 -19.48546,-14.8424 -15.50897,-7.48669 -29.51767,-8.09234 -42.85162,-1.85263 -32.98496,15.43552 -46.61838,57.3801 -27.3125,87.25006 3.67902,5.69215 12.09197,13.48868 14.12136,13.48868 0.82074,0 4.09598,2.54765 6.25535,3.75016 4.88121,2.71823 12.85298,4.94655 19.25709,5.76863 6.20714,0.7968 17.8111,0.6052 23.54828,-0.83735 z M 613.02807,553.125 C 612.87381,552.7125 612.66376,527.90625 612.5613,498 l -0.1863,-54.375 -92.81017,-1.2717 c -95.6917,-1.31118 -127.01657,-1.79126 -129.41803,-3.77416 -1.49399,-1.2336 -2.53467,0.14371 6.19018,-28.80726 4.33883,-14.3972 7.99246,-28.51415 7.99246,-29.21676 0,-1.33739 13.12401,-42.67214 39.64444,-128.5154 37.28825,-120.69734 58.54375,-191.054853 59.15294,-192.234384 0.35951,-0.696089 3.37941,-11.639209 7.19183,-24.014209 3.81243,-12.375 6.88302,-23.204484 7.22962,-23.862475 0.55187,-1.047687 4.78539,-0.429349 28.95421,-0.869377 40.19019,-0.731719 83.22158,1.359323 90.84303,3.606359 0.72187,0.21283 0.69042,1.994952 0.69042,2.693073 0,2.146675 -17.62198,58.975075 -44.32911,141.071663 -7.04507,21.65625 -13.52697,42.06764 -14.0458,44.46259 -0.51883,2.39496 -8.25488,25.29371 -17.37045,52.85742 -9.11557,27.5637 -18.71585,51.82024 -18.46661,52.46976 1.06906,2.7859 7.88312,11.64962 37.98141,8.407 l 31.30276,-3.37239 6.82651,-66.31012 -5.19676,-64.55062 61.077,2.78588 60.78374,-5.13189 0.81488,68.06963 -0.94463,64.25737 18.40613,0.375 16.5,0.375 -0.55636,36.5385 c -0.31087,20.41661 -0.0713,49.90575 -0.375,65.16825 l 0.18136,28.04325 -16.5,0.375 -16.5,0.375 -0.19241,54.58793 c -0.1505,42.69984 -0.29182,53.31185 -1.02132,53.56966 -1.43442,0.50693 -59.48478,1.67936 -95.40537,1.48502 -16.12056,-0.0872 -27.89274,0.0852 -27.97783,-0.14218 z"
             style="fill:#b5eb56"
             sodipodi:nodetypes="sssssssssssssssssssssssssssssssssssssscscsssssssssssssssscccccccccsccccssscc" />
          <path
             inkscape:connector-curvature="0"
             id="path4805"
             d="m 172.5,555.69043 c -11.54849,-1.04553 -29.56756,-4.18146 -38.59972,-6.71764 -23.75817,-6.67118 -46.850135,-19.43051 -66.314487,-36.64169 -3.046563,-2.6939 -6.02929,-4.96993 -6.628282,-5.05785 C 59.332828,507.03481 57.476151,505.2015 49.667149,496.125 33.369813,477.18241 17.52446,448.18444 11.348762,426 5.4343578,404.75419 3.8411238,372.25818 7.0832728,339 14.845936,259.37009 55.587688,175.80669 144.39095,57.375 163.46737,31.933898 186.13025,3.2003113 188.34138,1.6515783 c 3.76473,-2.63691982 15.26248,-0.75756802 38.53362,6.2984727 6.1875,1.8761115 28.4625,8.930948 49.5,15.677415 21.0375,6.746467 39.35035,12.486534 40.69522,12.755704 3.99991,0.800569 4.80204,2.081722 3.54106,5.655719 -1.4653,4.153096 -8.52414,14.187696 -18.43821,26.211111 -19.69805,23.889068 -40.03547,51.09384 -54.53146,72.9451 -13.46679,20.29987 -16.46455,26.6798 -14.53059,30.92439 1.27136,2.79032 7.66386,5.49732 15.24066,6.4539 14.11052,1.78146 26.07906,6.08268 43.77332,15.7311 23.91457,13.04028 45.2848,29.43705 56.46245,43.32202 15.97014,19.83825 28.45118,46.02049 34.2453,71.8384 3.71643,16.55999 4.50907,24.22965 4.52506,43.78509 0.0194,23.77708 -1.54475,35.17759 -7.83425,57.09939 -18.23394,63.55366 -64.50054,113.81264 -124.14856,134.86145 -10.14425,3.57974 -29.71335,8.95086 -39.84721,10.27107 -11.23216,1.46331 -32.61703,1.15104 -43.02779,0.20852 z m 41.1235,-143.61241 c 6.7957,-2.39915 11.96994,-7.01847 18.9224,-13.8439 5.7112,-5.60684 7.85614,-7.00263 11.18379,-13.8976 4.98085,-10.32044 6.17461,-17.65029 6.04263,-29.21152 -0.16962,-14.8577 -2.95989,-23.84212 -11.42183,-34.43143 -5.99721,-7.50496 -11.29647,-11.09254 -19.72549,-15.15705 -15.51902,-7.48333 -29.96089,-8.8804 -43.29212,-2.64196 -37.16968,17.39379 -46.99017,68.54598 -19.05627,96.47987 4.55868,4.55869 15.02829,10.65829 23.78118,13.01268 7.60082,2.04449 27.19159,1.94123 33.56571,-0.30909 z M 623.25,552.18606 c 0,-0.31017 32.89069,-33.45333 73.09041,-73.65148 49.88389,-49.88191 73.22507,-72.73662 73.51449,-71.98232 0.23332,0.60786 0.33323,8.8604 0.22215,18.33897 l -0.20205,17.23377 -16.5,0.375 -16.5,0.375 -0.19237,54.9375 -0.19236,54.9375 -56.62014,0 c -31.14107,0 -56.62013,-0.25378 -56.62013,-0.56394 z M 430.5,441.98824 c -13.40534,-0.29705 -40.4215,-1.75519 -41.71477,-2.25147 -1.61303,-0.61898 -1.46085,-1.24665 7.59649,-31.33067 4.32755,-14.374 7.58895,-26.97111 7.86828,-27.90248 2.49263,-8.31107 23.18104,-74.0207 78.66005,-252.79212 11.39317,-36.712499 20.33691,-69.699 21.12944,-72.5865 2.86922,-10.453697 13.84137,-42.753723 14.52165,-43.434007 0.40838,-0.408369 16.01812,0.0218 38.38136,-0.04441 46.89935,-0.138843 78.44769,1.169361 80.92987,3.65154 0.47131,0.471306 0.15754,2.694969 -1.42621,7.911112 -4.37256,14.401126 -21.18183,69.487593 -37.72206,120.514385 -8.89179,27.43125 -16.09966,53.26388 -16.91353,56.15138 -0.81387,2.8875 -9.05633,28.30444 -18.31658,56.48209 -9.26024,28.17765 -16.73044,51.78438 -16.60045,52.45939 0.13,0.67502 1.41651,1.92058 2.85891,2.76791 2.5034,1.47061 3.96137,1.55217 32.09012,1.79499 22.29052,0.19242 29.73424,0.0331 30.5625,-0.65433 0.94479,-0.78411 1.09493,-9.99745 1.09493,-67.19188 l 0,-66.28317 61.875,0 61.875,0 0,28.68852 0,28.68853 L 634.31148,339.56352 531.37296,442.5 485.24898,442.33968 c -25.36819,-0.0882 -50.00523,-0.24632 -54.74898,-0.35144 z"
             style="fill:#eced1b"
             sodipodi:nodetypes="ssscssssssssssssssssssssssssssssssssscscccccsssssssscsssssscsscscccccccss" />
          <path
             inkscape:connector-curvature="0"
             id="path4803"
             d="m 174.89902,556.86787 c -9.58292,-0.96763 -23.96881,-3.02878 -31.84071,-4.95524 -23.83632,-5.83336 -48.769021,-15.74477 -69.441541,-33.144 C 69.28021,515.11872 60.506582,506.8828 59.893141,506.7472 58.77695,505.88687 57.402332,505.1157 49.667149,496.125 33.369813,477.18241 17.52446,448.18444 11.348762,426 5.4343578,404.75419 3.8411238,372.25818 7.0832728,339 14.845936,259.37009 55.587688,175.80669 144.39095,57.375 163.46737,31.933898 186.13025,3.2003113 188.34138,1.6515783 c 3.76473,-2.63691982 15.26248,-0.75756802 38.53362,6.2984727 6.1875,1.8761115 28.4625,8.930948 49.5,15.677415 21.0375,6.746467 39.35035,12.486534 40.69522,12.755704 3.99991,0.800569 4.80204,2.081722 3.54106,5.655719 -1.4653,4.153096 -8.52414,14.187696 -18.43821,26.211111 -19.69805,23.889068 -40.03547,51.09384 -54.53146,72.9451 -13.46679,20.29987 -16.46455,26.6798 -14.53059,30.92439 1.27136,2.79032 7.66386,5.49732 15.24066,6.4539 14.11052,1.78146 24.89297,7.09933 42.58723,16.74775 23.33849,12.72615 34.61565,19.76741 50.25102,33.92168 13.44642,12.17268 28.92598,38.98308 35.10822,55.66817 8.28133,22.35033 10.89509,43.25088 10.93652,68.33901 0.0252,15.26983 -0.92837,25.83211 -3.54749,39.29359 l -1.72511,8.86653 -74.91854,74.92284 c -50.14838,50.15126 -76.19104,76.03995 -77.69713,76.518 -6.44813,2.04672 -15.85797,4.07535 -33.75459,4.28079 -10.3125,0.11838 -19.04279,-0.0973 -20.69279,-0.26388 z m 30.53407,-143.65934 c 11.12087,-1.8044 19.31189,-6.47484 28.83261,-16.44007 6.13548,-6.42192 11.24899,-15.60148 13.5885,-24.39346 1.6725,-6.2853 2.30405,-19.88114 1.22091,-26.28323 -1.37183,-8.10851 -4.4814,-16.72275 -7.13255,-19.75883 -1.30054,-1.48936 -3.83738,-4.65886 -5.63743,-7.04331 -4.38288,-5.80581 -9.55227,-9.82595 -17.68013,-13.74954 -15.50897,-7.48669 -29.51767,-8.09234 -42.85162,-1.85263 -32.94183,15.41534 -46.26461,57.0298 -27.00969,86.8209 5.91178,9.14668 14.97516,15.85668 27.08984,20.27805 7.882,2.87661 20.44054,3.90497 29.57956,2.42212 z M 623.25,552.18606 c 0,-0.31017 32.89069,-33.45333 73.09041,-73.65148 49.88389,-49.88191 73.22507,-72.73662 73.51449,-71.98232 0.23332,0.60786 0.33323,8.8604 0.22215,18.33897 l -0.20205,17.23377 -16.5,0.375 -16.5,0.375 -0.19237,54.9375 -0.19236,54.9375 -56.62014,0 c -31.14107,0 -56.62013,-0.25378 -56.62013,-0.56394 z M 405,377.61784 c 0,-0.87144 30.80021,-100.91889 73.88325,-239.99284 12.52306,-40.425 23.48798,-76.2 24.36649,-79.5 2.22793,-8.368909 14.01431,-44.2471 14.92939,-45.991395 0.73321,-1.397636 1.45803,-1.864306 47.225,-1.366261 50.57958,0.550416 71.15487,1.510509 74.32225,3.46806 0.69158,0.427423 0.23828,2.768778 -1.83514,9.478616 -5.94055,19.224313 -23.78585,75.032787 -39.18207,122.53598 -8.89071,27.43125 -16.65756,51.5625 -17.25966,53.625 -1.03557,3.54734 -5.80256,8.46182 -88.20841,90.9375 C 445.32857,338.76562 405.87374,378 405.56371,378 405.25366,378 405,377.82803 405,377.61784 Z"
             style="fill:#f19700"
             sodipodi:nodetypes="csscsssssssssssssssssscssscssssssssssssscscccccssssssssssssss" />
          <path
             inkscape:connector-curvature="0"
             id="path4801"
             d="m 622.13199,553.15746 c 0,-0.31017 34.0087,-34.42473 74.20842,-74.62288 49.88389,-49.88191 74.10482,-74.20287 74.39424,-73.44857 l 0.0201,37.91874 c -11.2975,0.38111 -21.85162,0.70634 -33.14662,0.45675 l -0.23811,109.58175 z M 58.926551,506.15656 C 54.825078,502.93034 42.513207,487.7909 35.825448,477.75 26.040022,463.05832 15.406535,440.5764 11.348762,426 5.4343578,404.75419 3.8411238,372.25818 7.0832728,339 14.845936,259.37009 55.587688,175.80669 144.39095,57.375 163.46737,31.933898 186.13025,3.2003113 188.34138,1.6515783 c 3.76473,-2.63691982 15.26248,-0.75756802 38.53362,6.2984727 6.1875,1.8761115 28.4625,8.930948 49.5,15.677415 21.0375,6.746467 39.35035,12.486534 40.69522,12.755704 3.99991,0.800569 4.80204,2.081722 3.54106,5.655719 -1.4653,4.153096 -8.52414,14.187696 -18.43821,26.211111 -19.69805,23.889068 -40.03547,51.09384 -54.53146,72.9451 -13.46679,20.29987 -16.46455,26.6798 -14.53059,30.92439 1.27136,2.79032 7.66386,5.49732 15.24066,6.4539 14.09243,1.77918 26.02623,6.06441 43.77332,15.71826 16.49616,8.97339 37.80823,23.90548 45.34225,31.76859 l 2.59224,2.70549 -48.70388,48.74213 C 264.56848,304.31604 242.41153,326.25 242.11794,326.25 c -0.29358,0 -2.42963,-2.519 -4.74678,-5.59776 -5.30186,-7.04452 -10.1799,-10.97693 -18.74616,-15.11215 -11.76058,-5.67722 -22.45748,-7.40373 -32.55446,-5.25439 -19.51868,4.15493 -36.28812,20.32137 -43.27023,41.7143 -1.86174,5.70429 -2.08392,7.47971 -2.11186,16.875 -0.0359,12.06999 0.94216,16.69055 5.55643,26.25 3.21957,6.67005 9.52374,14.75744 13.73879,17.625 1.51585,1.03125 2.75839,2.20249 2.76121,2.60275 0.003,0.40026 -22.87512,23.62246 -50.83986,51.60488 L 61.060048,507.83476 Z M 503.24914,58.495605 c -0.001,-1.342112 13.64513,-43.803808 14.63817,-45.686341 0.62728,-1.18915 1.96368,-2.309264 16.88907,-2.309264 9.06049,0 16.47362,0.255103 16.47362,0.566895 0,0.311792 -10.8,11.362939 -24,24.558105 -13.2,13.195166 -24.00039,23.486938 -24.00086,22.870605 z"
             style="fill:#5fc85a"
             sodipodi:nodetypes="cscccccsssssssssssssssscssssssssscscscssssc" />
          <path
             inkscape:connector-curvature="0"
             id="path4799"
             d="M 59.64543,505.58745 C 55.507663,502.40791 42.513207,487.7909 35.825448,477.75 26.040022,463.05832 15.406535,440.5764 11.348762,426 5.4343578,404.75419 3.8411238,372.25818 7.0832728,339 14.845936,259.37009 55.587688,175.80669 144.39095,57.375 163.46737,31.933898 186.13025,3.2003113 188.34138,1.6515783 c 3.76473,-2.63691982 15.26248,-0.75756802 38.53362,6.2984727 6.1875,1.8761115 28.4625,8.930948 49.5,15.677415 21.0375,6.746467 39.35035,12.486534 40.69522,12.755704 3.99991,0.800569 4.80204,2.081722 3.54106,5.655719 -1.4653,4.153096 -8.52414,14.187696 -18.43821,26.211111 -19.69805,23.889068 -40.03547,51.09384 -54.53146,72.9451 -13.46679,20.29987 -16.46455,26.6798 -14.53059,30.92439 1.27136,2.79032 7.66386,5.49732 15.24066,6.4539 14.09243,1.77918 26.02623,6.06441 43.77332,15.71826 16.49616,8.97339 37.80823,23.90548 45.34225,31.76859 l 2.59224,2.70549 -48.70388,48.74213 C 264.56848,304.31604 242.41153,326.25 242.11794,326.25 c -0.29358,0 -2.42963,-2.519 -4.74678,-5.59776 -5.30186,-7.04452 -10.1799,-10.97693 -18.74616,-15.11215 -11.76058,-5.67722 -22.45748,-7.40373 -32.55446,-5.25439 -19.51868,4.15493 -36.28812,20.32137 -43.27023,41.7143 -1.86174,5.70429 -2.08392,7.47971 -2.11186,16.875 -0.0359,12.06999 0.94216,16.69055 5.55643,26.25 3.21957,6.67005 9.52374,14.75744 13.73879,17.625 1.51585,1.03125 2.75839,2.20249 2.76121,2.60275 0.003,0.40026 -22.87512,23.62246 -50.83986,51.60488 l -49.646841,50.6375 z M 503.24914,58.495605 c -0.001,-1.342112 13.53438,-38.321609 14.52742,-40.204142 0.62728,-1.18915 2.07443,-7.791463 16.99982,-7.791463 9.06049,0 16.47362,0.255103 16.47362,0.566895 0,0.311792 -10.8,11.362939 -24,24.558105 -13.2,13.195166 -24.00039,23.486938 -24.00086,22.870605 z"
             style="fill:#019ddf"
             sodipodi:nodetypes="sssssssssssssssscssssssssscscscssssc" />
          <path
             inkscape:connector-curvature="0"
             id="path4797"
             d="M 58.926551,506.15656 C 54.747353,503.03168 42.513207,487.7909 35.825448,477.75 28.958563,467.44017 20.336464,450.69517 15.452761,438.18415 8.6306933,420.70744 5.25,398.38544 5.25,370.8175 l 0,-11.46468 7.43247,-7.36392 C 16.770328,347.93876 84.321397,277.63125 162.79595,195.75 241.27052,113.86875 307.83405,44.417017 310.71493,41.412815 c 5.16543,-5.386548 5.27223,-5.450873 7.71307,-4.645323 1.36131,0.449274 2.61514,1.219757 2.78627,1.712185 1.05112,3.024533 -5.73111,13.62835 -19.0412,29.770323 -19.69805,23.889068 -40.03547,51.09384 -54.53146,72.9451 -13.46679,20.29987 -16.46455,26.6798 -14.53059,30.92439 1.27136,2.79032 7.66386,5.49732 15.24066,6.4539 14.09243,1.77918 26.02623,6.06441 43.77332,15.71826 16.49616,8.97339 37.80823,23.90548 45.34225,31.76859 l 3.78596,3.04655 -48.87441,48.40107 c -26.92774,26.66694 -49.78639,49.10389 -50.07998,49.10389 -0.29358,0 -2.61051,-2.88075 -4.92766,-5.95951 -5.30186,-7.04452 -10.1799,-10.97693 -18.74616,-15.11215 -11.76058,-5.67722 -22.45748,-7.40373 -32.55446,-5.25439 -19.51868,4.15493 -36.28812,20.32137 -43.27023,41.7143 -1.86174,5.70429 -2.08392,7.47971 -2.11186,16.875 -0.0359,12.06999 0.94216,16.69055 5.55643,26.25 3.21957,6.67005 9.18268,13.90478 13.39773,16.77234 1.51585,1.03125 4.12264,3.05515 4.12546,3.45541 0.003,0.40026 -22.92198,24.0873 -50.83986,52.11647 L 62.083235,508.51688 Z M 503.13839,58.82786 c -0.001,-1.342112 14.91505,-48.344378 14.91505,-48.344378 0,0 1.79894,-0.18715 16.72294,0.01652 17.1935,0.23464 17.1935,-0.07715 17.1935,0.23464 0,0.311792 -11.243,11.695194 -24.443,24.89036 -13.2,13.195166 -24.38802,23.819193 -24.38849,23.20286 z"
             style="fill:#d6079c"
             sodipodi:nodetypes="sssscssssssssssscssssssssscscsccsssc" />
        </g>
      </g>
    </g>
  </g>
  <g
     inkscape:groupmode="layer"
     id="layer2"
     inkscape:label="Layer 2"
     transform="translate(-0.95066128,23.918581)" />
</svg>
