<?xml version="1.0" encoding="UTF-8" standalone="no"?>
<!-- Generator: Adobe Illustrator 13.0.0, SVG Export Plug-In . SVG Version: 6.00 Build 14948)  -->

<svg
   xmlns:ns="&amp;#38;#38;ns_sfw;"
   xmlns:dc="http://purl.org/dc/elements/1.1/"
   xmlns:cc="http://creativecommons.org/ns#"
   xmlns:rdf="http://www.w3.org/1999/02/22-rdf-syntax-ns#"
   xmlns:svg="http://www.w3.org/2000/svg"
   xmlns="http://www.w3.org/2000/svg"
   xmlns:sodipodi="http://sodipodi.sourceforge.net/DTD/sodipodi-0.dtd"
   xmlns:inkscape="http://www.inkscape.org/namespaces/inkscape"
   version="1.2"
   id="Ebene_1"
   x="0px"
   y="0px"
   width="1005px"
   height="155px"
   viewBox="-373.657 52.361 1005 155"
   xml:space="preserve"
   inkscape:version="0.91 r13725"
   sodipodi:docname="logoconsoleUS.svg"><defs
     id="defs4278" /><sodipodi:namedview
     pagecolor="#ffffff"
     bordercolor="#666666"
     borderopacity="1"
     objecttolerance="10"
     gridtolerance="10"
     guidetolerance="10"
     inkscape:pageopacity="0"
     inkscape:pageshadow="2"
     inkscape:window-width="1821"
     inkscape:window-height="1051"
     id="namedview4276"
     showgrid="false"
     showguides="true"
     inkscape:guide-bbox="true"
     inkscape:zoom="2.4513849"
     inkscape:cx="243.65535"
     inkscape:cy="139.84098"
     inkscape:window-x="90"
     inkscape:window-y="-9"
     inkscape:window-maximized="1"
     inkscape:current-layer="Ebene_1"><sodipodi:guide
       position="4.19258,-120.53668"
       orientation="1,0"
       id="guide4880" /><sodipodi:guide
       position="411.92099,-153.02917"
       orientation="1,0"
       id="guide4882" /><sodipodi:guide
       position="314.31248,139.01023"
       orientation="0,1"
       id="guide4889" /><sodipodi:guide
       position="312.60925,119.35751"
       orientation="0,1"
       id="guide4891" /></sodipodi:namedview><metadata
     id="metadata4255"><ns:sfw><ns:slices /><ns:sliceSourceBounds
         height="123.153"
         width="891.18"
         y="447.639"
         x="352.163"
         bottomLeftOrigin="true" /></ns:sfw><rdf:RDF><cc:Work
         rdf:about=""><dc:format>image/svg+xml</dc:format><dc:type
           rdf:resource="http://purl.org/dc/dcmitype/StillImage" /><dc:title /></cc:Work></rdf:RDF></metadata><g
     id="g4257"
     style="fill:#f4f4f4;fill-opacity:1"
     transform="matrix(0.77020397,0,0,0.77020397,-384.59943,57.432078)"><path
       d="m 341.373,193.968 c -2.26,-2.385 -8.34,-2.6 -9.285,-2.6 -42.588,0 -85.172,-0.002 -127.764,0.002 -4.329,0 -5.108,0.531 -4.578,-4.957 0.868,-8.979 4.167,-17.322 10.688,-23.766 1.249,-1.271 1.666,-1.699 4.52,-4.287 12.092,-10.957 36.181,-19.742 36.181,-19.742 0,0 20.16,-7.443 31.48,-11.896 5.084,-2 10.049,-4.311 14.577,-7.445 16.421,-12.943 7.894,-25.79 -13.755,-28.781 -15.163,-2.17 -28.979,1.533 -41.748,9.677 -1.667,1.063 -3.074,2.125 -4.684,3.281 -2.856,2.414 -5.307,5.229 -5.836,8.34 -0.286,1.681 -0.013,2.838 0.021,3.112 0.108,0.871 0.375,2.25 -0.272,2.884 -0.778,0.76 -2.394,-0.002 -3.111,-0.681 -6.58,-6.219 -13.172,-12.424 -19.759,-18.637 -0.412,-0.389 -1.173,-1.221 -1.173,-1.221 0,0 -0.72,-0.834 -0.745,-1.406 -0.029,-0.644 0.604,-1.249 1.36,-1.485 3.589,-0.661 5.245,-0.873 7.399,-2.448 5.797,-4.237 11.855,-8.025 18.325,-11.18 8.651,-4.219 17.747,-6.726 27.272,-8.01 7.325,-0.988 28.84,-4.338 53.973,6.837 6.629,2.907 12.313,7.024 16.598,12.831 2.535,3.437 12.098,22.281 -7.383,37.333 -6.963,5.588 -15.271,9.038 -23.674,11.971 -7.188,2.512 -12.465,4.396 -24.227,7.795 -8.932,2.658 -15.342,4.736 -25.563,9.586 -8.129,3.855 -13.465,8.543 -13.465,8.543 0,0 -2.662,2.053 -2.147,3.658 0.446,1.395 2.668,1.254 3.975,1.258 31.445,0.02 62.892,0.014 94.337,0.016 3.254,0 6.408,-0.229 8.893,-2.783 0.361,-0.373 1.318,-0.574 1.75,-0.356 0.414,0.207 0.703,1.061 0.707,1.633 0.049,7.365 0.051,14.894 0.008,22.258 -0.006,0.716 -0.238,0.972 -0.596,1.179 -0.538,0.308 -1.678,0.142 -2.299,-0.513 z"
       id="path4259"
       style="fill:#f4f4f4;fill-opacity:1"
       inkscape:connector-curvature="0" /><path
       d="m 107.1,193.042 c -5.159,-0.314 -10.332,-0.979 -15.427,-1.879 -20.739,-3.656 -30.385,-8.555 -36.174,-10.826 -2.766,-1.086 -5.47,-2.113 -8.476,-1.012 -0.343,0.127 -0.745,0.119 -1.121,0.127 -1.911,0.021 -2.496,-0.723 -1.666,-2.428 0.989,-2.031 2.148,-3.984 3.317,-5.926 3.167,-5.252 6.376,-10.479 9.57,-15.718 0.147,-0.239 0.315,-0.471 0.46,-0.715 0.651,-1.09 1.366,-2.101 2.858,-1.892 1.403,0.197 1.706,1.354 2,2.451 0.642,2.388 2.099,4.166 4.016,5.646 4.536,3.511 9.659,5.873 15.033,7.748 6.969,2.431 14.143,3.953 21.429,5.097 8.627,1.354 17.299,1.526 25.961,1.024 7.342,-0.428 14.576,-1.752 21.498,-4.457 4.213,-1.646 7.409,-4.553 9.968,-8.104 3.395,-4.711 2.004,-11.188 -2.622,-14.871 -6.284,-5.002 -13.592,-6.979 -21.333,-8.31 -6.96,-1.192 -13.912,-1.065 -20.879,-0.976 -3.271,0.043 -11.09,0.354 -14.087,3.136 -1.104,0.972 -1.979,1.045 -2.504,0.571 -0.525,-0.477 -0.548,-1.229 -0.554,-1.885 -0.059,-6.802 -0.066,-13.604 -0.021,-20.401 0.015,-2.229 1.054,-2.902 2.78,-1.693 2.18,1.527 4.599,2.195 7.125,2.519 4.196,0.539 17.892,0.063 20.69,-0.303 7.481,-0.978 6.828,-0.859 11.194,-2.029 4.673,-1.252 9.131,-4.53 11.458,-7.241 0.038,-0.043 0.076,-0.089 0.113,-0.134 3.244,-3.907 2.154,-8.405 -0.864,-11.626 -2.898,-3.09 -6.541,-5.069 -10.597,-6.267 -6.647,-1.96 -13.456,-3.032 -20.365,-2.707 -12.507,0.588 -24.774,2.497 -36.083,8.316 -2.589,1.332 -5.016,3.008 -7.407,4.686 -2.042,1.433 -3.07,3.531 -3.128,6.056 -0.03,1.313 0.18,2.815 -1.379,3.39 -1.573,0.578 -2.388,-0.791 -3.285,-1.701 -5.76,-5.853 -11.496,-11.727 -17.238,-17.598 -0.33,-0.337 -0.698,-0.658 -0.942,-1.053 -0.694,-1.123 -0.267,-2.054 1.063,-2.208 1.488,-0.172 3.082,0.063 4.464,-0.387 2.042,-0.665 3.952,-1.753 5.895,-2.707 5.165,-2.533 10.195,-5.386 15.502,-7.57 8.405,-3.458 17.25,-5.316 26.285,-6.437 8.648,-1.073 23.906,-1.519 34.944,0.111 7.378,1.115 14.691,2.597 21.539,5.649 6.041,2.692 11.94,5.698 16.45,10.779 3.26,3.672 5.449,7.775 6.183,12.751 0.704,4.771 -0.081,9.127 -2.12,13.406 -1.404,2.946 -3.504,4.854 -6.393,6.588 -5.668,3.397 -9.024,4.248 -9.741,4.687 -1.14,0.692 -1.19,1.616 -0.027,2.282 1.046,0.601 2.248,0.953 3.413,1.315 6.821,2.13 12.679,5.873 17.563,11.002 3.567,3.744 5.68,8.23 6.39,13.535 0.726,5.435 -0.549,10.236 -2.896,14.957 -1.827,3.677 -4.856,6.263 -8.043,8.605 -6.444,4.744 -13.622,7.955 -21.316,10.232 -5.727,1.691 -11.531,2.842 -17.409,3.619 -20.096,2.202 -30.361,1.064 -35.064,0.776 z"
       id="path4261"
       style="fill:#f4f4f4;fill-opacity:1"
       inkscape:connector-curvature="0" /><path
       d="m 383.914,72.788 c 6.705,0 13.41,0 20.117,0.001 0.66,0 1.328,-0.05 1.98,0.028 1.494,0.178 1.725,0.81 0.787,2.032 -1.676,2.182 -1.662,2.417 0.246,4.435 0.063,0.069 0.133,0.134 0.199,0.201 9.354,9.465 18.715,18.931 28.074,28.396 0.465,0.472 0.898,0.979 1.438,1.361 0.939,0.676 1.945,0.688 2.869,-0.056 0.514,-0.412 0.969,-0.897 1.434,-1.369 9.24,-9.317 18.48,-18.638 27.719,-27.96 0.334,-0.335 0.682,-0.659 0.977,-1.026 1.232,-1.531 1.203,-2.073 0.053,-3.714 -1.035,-1.398 -1.035,-2.249 1.076,-2.302 0.461,-0.012 0.939,-0.026 1.412,-0.026 13.6,0 27.199,-0.003 40.799,0.005 0.844,0 1.711,-0.01 2.525,0.169 0.348,0.076 0.771,0.6 0.83,0.971 0.057,0.367 -0.199,1.01 -0.504,1.162 -0.918,0.461 -1.902,0.855 -2.906,1.075 -3.807,0.832 -6.908,2.712 -9.66,5.516 -11.838,12.063 -23.799,24.003 -35.695,36.012 -2.98,3.016 -5.918,6.092 -8.842,9.17 -1.85,1.944 -1.854,2.862 0.021,4.78 3.295,3.36 6.68,6.634 9.959,10.009 2.43,2.5 4.688,5.17 7.137,7.647 6.508,6.582 13.096,13.082 19.613,19.652 4.387,4.422 8.736,8.881 13.047,13.377 2.482,2.594 5.373,4.4 8.861,5.293 1.271,0.322 2.514,0.807 3.715,1.338 0.326,0.146 0.666,0.764 0.617,1.109 -0.051,0.354 -0.516,0.813 -0.891,0.932 -0.613,0.193 -1.301,0.195 -1.955,0.195 -13.883,0.01 -27.766,0.008 -41.648,0.002 -0.563,0 -1.15,0.012 -1.684,-0.141 -0.883,-0.252 -1.217,-0.783 -0.67,-1.699 0.459,-0.771 1.186,-1.648 1.102,-2.402 -0.092,-0.801 -0.914,-1.588 -1.559,-2.242 -10.768,-10.99 -21.557,-21.961 -32.342,-32.934 -0.396,-0.404 -0.795,-0.809 -1.203,-1.201 -2.383,-2.303 -3.256,-2.332 -5.645,0.043 -6.895,6.857 -13.801,13.715 -20.633,20.641 -4.438,4.498 -8.764,9.107 -13.129,13.68 -1.645,1.722 -1.645,1.83 -0.395,4.113 0.713,1.306 0.443,1.879 -1.045,2.092 -0.646,0.095 -1.316,0.058 -1.98,0.058 -13.41,0.002 -26.818,0.019 -40.229,-0.022 -1.205,-0.004 -3.223,0.323 -3.326,-1.144 -0.211,-1.533 1.641,-1.61 2.729,-1.867 4.885,-1.143 8.611,-3.928 12.064,-7.471 11.008,-11.291 22.199,-22.397 33.279,-33.619 3.439,-3.483 6.729,-7.119 10.127,-10.646 1.311,-1.354 2.764,-2.567 4.104,-3.896 2.799,-2.776 2.813,-3.519 0.117,-6.235 -8.166,-8.261 -16.348,-16.498 -24.508,-24.763 -6.633,-6.715 -13.291,-13.408 -19.84,-20.205 -2.521,-2.617 -5.482,-4.244 -8.967,-5.059 -0.643,-0.15 -1.273,-0.349 -1.904,-0.544 -0.896,-0.277 -2.004,-0.489 -1.881,-1.71 0.125,-1.243 1.217,-1.243 2.188,-1.241 0.568,0.001 1.135,-0.002 1.701,-0.002 6.712,10e-4 13.419,10e-4 20.125,10e-4 z"
       id="path4263"
       style="fill:#f4f4f4;fill-opacity:1"
       inkscape:connector-curvature="0" /></g><rect
     style="opacity:1;fill:#f4f4f4;fill-opacity:1;stroke:#000000;stroke-width:0;stroke-miterlimit:4;stroke-dasharray:none;stroke-opacity:1"
     id="rect4210"
     width="408.63013"
     height="40.185192"
     x="-370.00601"
     y="53.998631" /><path
     style="fill:#f4f4f4;fill-opacity:1"
     d="m 47.864491,60.861963 0,-3.996618 -1.231495,0 -3.200019,0 0.02095,-0.67216 0.02095,-0.67216 5.225389,0 5.396564,0 0.02095,0.67216 0.02095,0.67216 -3.20002,0 -1.402671,0 0,3.996618 0,3.996619 -0.835668,0 -0.835654,0 0,-3.996619 z m 8.937896,-2.042349 0,-3.33492 0.840186,8.35e-4 0.840215,8.36e-4 c 1.793171,3.357857 3.445075,6.023876 4.404195,8.218298 0.03108,-0.0096 0.973224,-1.84551 2.156571,-3.946415 0.803418,-1.424938 1.616902,-2.844275 2.412254,-4.273554 l 0.800241,0 0.800228,0 0,3.33492 0,6.073751 -0.594146,0 -0.594145,0 -0.01232,-5.487836 -0.01232,-2.749005 c 0,0 -1.171187,2.219688 -2.143781,3.969573 -0.579671,1.042913 -2.441491,4.267268 -2.441491,4.267268 l -0.370137,-0.0014 c -0.342394,-0.0014 -0.377765,0.04738 -0.472049,-0.08258 -0.05601,-0.07724 -0.803295,-1.576668 -1.617477,-3.23268 -0.232662,-0.555651 -2.458526,-4.2844 -2.804726,-4.961271 l 0,2.769697 0,5.508513 -0.594583,0 -0.594598,0 0,-6.073736 z"
     id="path4241"
     inkscape:connector-curvature="0"
     sodipodi:nodetypes="cccccccccccccccccccccccccccccccccsccccccccccc" /><path
     style="fill:#0f0f0f;fill-opacity:1"
     d="M 279.69141 12.273438 C 278.71796 12.245252 277.66729 12.249763 276.50586 12.283203 C 271.69703 12.421677 268.62526 13.126172 266.52344 14.572266 C 263.45955 16.680272 264.00471 21.151022 267.58594 22.521484 C 269.97442 23.435504 274.77928 23.175794 280.36328 23.183594 C 283.07024 23.187621 285.31319 22.990005 286.85547 23.451172 C 289.65206 24.287423 289.75017 26.815245 286.96094 28.134766 C 284.95427 29.084072 282.97662 29.367847 278.29688 29.373047 C 274.87525 29.377384 273.79125 29.315983 272.56055 29.050781 C 269.94202 28.486491 267.97086 27.699317 266.28711 26.544922 L 265.5 26.005859 L 265.17383 26.435547 C 264.99484 26.671872 264.68524 27.153021 264.48633 27.505859 L 264.125 28.148438 L 265.5293 28.996094 C 267.63169 30.866697 270.9024 31.415627 274.07812 31.773438 C 279.68231 32.404879 286.07451 31.549841 289.66211 29.689453 C 293.48374 27.70771 293.81955 23.481061 290.41797 21.746094 C 288.21108 20.620467 285.75966 20.694005 279.10547 20.494141 C 273.44067 20.323999 271.62749 20.952934 270.08984 20.378906 C 269.07584 20.000352 268.24124 18.359946 268.24219 17.738281 C 268.24421 16.563952 269.711 15.540451 272.19727 14.976562 C 274.14276 14.535133 280.79031 14.537638 283.05664 14.980469 C 285.29403 15.41763 287.3882 16.097448 289.02539 16.919922 C 289.78811 17.303086 290.47255 17.617188 290.54688 17.617188 C 290.65207 17.617188 291.30352 16.511927 291.72656 15.617188 C 291.80657 15.447975 288.62639 13.946518 287.27539 13.515625 C 284.83775 12.73817 282.61175 12.357995 279.69141 12.273438 z M 374.0332 12.273438 C 373.05955 12.245247 372.00738 12.249753 370.8457 12.283203 C 366.03588 12.421691 362.96358 13.127824 360.86133 14.574219 C 357.7968 16.682676 358.3399 21.152692 361.92188 22.523438 C 364.31086 23.437662 369.11797 23.176447 374.70312 23.185547 C 377.41065 23.189588 379.65467 22.991849 381.19727 23.453125 C 383.99444 24.289537 384.09255 26.818889 381.30273 28.138672 C 379.29565 29.088176 377.31743 29.370553 372.63672 29.376953 C 369.21439 29.381306 368.1294 29.319958 366.89844 29.054688 C 364.27936 28.490293 362.30909 27.70348 360.625 26.548828 L 359.83594 26.007812 L 359.51172 26.4375 C 359.28385 26.627224 359.02318 27.156854 358.82422 27.509766 L 358.46289 28.150391 L 359.86719 29 C 362.27595 30.456161 365.24158 31.419458 368.41797 31.777344 C 374.02332 32.408904 380.41556 31.55412 384.00391 29.693359 C 387.82633 27.711205 388.16205 23.483387 384.75977 21.748047 C 382.55241 20.622184 380.10089 20.696012 373.44531 20.496094 C 367.77934 20.325908 365.96571 20.955006 364.42773 20.380859 C 363.41353 20.002239 362.57913 18.362029 362.58008 17.740234 C 362.5821 16.565662 364.04836 15.540569 366.53516 14.976562 C 368.48105 14.535038 375.12968 14.537545 377.39648 14.980469 C 379.63434 15.417733 381.72966 16.099231 383.36719 16.921875 C 384.13006 17.30512 384.81433 17.619141 384.88867 17.619141 C 384.99389 17.619141 385.64718 16.512101 386.07031 15.617188 C 386.15034 15.44794 382.96847 13.946608 381.61719 13.515625 C 379.17904 12.738019 376.95416 12.35801 374.0332 12.273438 z M 43.783203 12.283203 C 36.111383 12.279692 30.499361 14.944631 28.738281 19.425781 C 28.422991 20.22796 28.331266 20.836521 28.322266 22.164062 C 28.311676 23.778369 28.347411 23.946804 28.988281 25.289062 C 30.643981 28.756755 35.015849 31.209209 40.699219 31.857422 L 43.402344 31.921875 C 46.840744 32.001506 52.052706 30.71436 54.853516 29.492188 L 56.605469 28.597656 L 56.605469 24.931641 L 56.605469 21.265625 L 48.880859 21.265625 L 41.15625 21.265625 L 41.15625 22.34375 L 41.15625 23.421875 L 47.353516 23.421875 L 53.550781 23.421875 L 53.550781 25.283203 L 53.550781 27.146484 L 52.248047 27.728516 C 50.218507 28.637948 47.854089 29.168843 45.287109 29.289062 C 40.012619 29.536147 35.763399 28.32793 33.568359 25.957031 C 32.398839 24.693808 31.993931 23.67353 31.994141 21.996094 C 31.994511 18.962163 34.625881 16.41326 38.775391 15.427734 C 41.591961 14.758757 46.511581 14.798575 49.332031 15.513672 C 50.432291 15.792638 52.926238 16.855978 54.273438 17.621094 C 54.381407 17.682421 55.527344 15.644018 55.527344 15.390625 C 55.527344 15.137155 52.215278 13.595849 50.767578 13.175781 C 48.798358 12.604376 46.300503 12.284303 43.783203 12.283203 z M 91.115234 12.408203 L 91.115234 22.1875 L 91.115234 31.966797 L 105.26172 31.966797 L 113.97461 31.966797 L 113.97461 30.732422 L 113.97461 29.498047 L 106.9707 29.498047 L 94.533203 29.498047 L 94.533203 26.175781 L 94.533203 22.851562 L 102.22461 22.851562 L 109.91406 22.851562 L 109.91406 21.617188 L 109.91406 20.382812 L 102.22461 20.382812 L 94.533203 20.382812 L 94.533203 17.724609 L 94.533203 15.066406 L 106.9707 15.066406 L 113.94727 15.066406 L 113.94727 13.736328 L 113.94727 12.408203 L 105.26172 12.408203 L 91.115234 12.408203 z M 322.08789 12.410156 L 322.08789 22.189453 L 322.08789 31.96875 L 323.79688 31.96875 L 325.50586 31.96875 L 325.50586 22.189453 L 325.50586 12.410156 L 323.79688 12.410156 L 322.08789 12.410156 z M 148.27148 12.439453 L 148.27148 22.21875 L 148.27148 32 L 149.97852 32 L 151.68555 32 L 151.73633 23.865234 L 151.78516 15.730469 L 159.31641 21.988281 L 171.58789 32 L 173.48242 32 L 175.375 32 L 175.375 22.21875 L 175.375 12.439453 L 173.66602 12.439453 L 171.95703 12.439453 L 171.95703 20.320312 C 171.95703 24.825941 171.93359 28.564453 171.93359 28.564453 C 171.93359 28.564453 169.66031 25.85028 163.60742 21.109375 L 152.54492 12.443359 L 150.4082 12.441406 L 148.27148 12.439453 z "
     transform="translate(-373.65701,52.361)"
     id="path4147" /><path
     style="fill:#0f0f0f;fill-opacity:1"
     d="m -163.64577,74.570685 0,-9.779848 14.14754,0 8.65493,0 0,1.329312 0,1.329285 -6.94584,0 -12.43844,0 0,2.65861 0,2.658597 7.69094,0 7.69094,0 0,1.234343 0,1.234344 -7.69094,0 -7.69094,0 0,3.323252 0,3.323253 12.43844,0 6.94235,0 0,1.234344 0,1.234343 -8.65144,0 -14.14754,0 z"
     id="path4147-95"
     inkscape:connector-curvature="0"
     sodipodi:nodetypes="ccccccccccccccccccccccccc" /></svg>