<?xml version="1.0" encoding="UTF-8" standalone="no"?>
<!-- Generator: Adobe Illustrator 16.0.3, SVG Export Plug-In . SVG Version: 6.00 Build 0)  -->

<svg
   xmlns:dc="http://purl.org/dc/elements/1.1/"
   xmlns:cc="http://creativecommons.org/ns#"
   xmlns:rdf="http://www.w3.org/1999/02/22-rdf-syntax-ns#"
   xmlns:svg="http://www.w3.org/2000/svg"
   xmlns="http://www.w3.org/2000/svg"
   xmlns:sodipodi="http://sodipodi.sourceforge.net/DTD/sodipodi-0.dtd"
   xmlns:inkscape="http://www.inkscape.org/namespaces/inkscape"
   version="1.1"
   id="Ebene_1"
   x="0px"
   y="0px"
   width="566.924px"
   height="121.752px"
   viewBox="0 0 566.924 121.752"
   enable-background="new 0 0 566.924 121.752"
   xml:space="preserve"
   inkscape:version="0.91 r13725"
   sodipodi:docname="logoconsole.svg"><metadata
     id="metadata42"><rdf:RDF><cc:Work
         rdf:about=""><dc:format>image/svg+xml</dc:format><dc:type
           rdf:resource="http://purl.org/dc/dcmitype/StillImage" /><dc:title /></cc:Work></rdf:RDF></metadata><defs
     id="defs40" /><sodipodi:namedview
     pagecolor="#ffffff"
     bordercolor="#666666"
     borderopacity="1"
     objecttolerance="10"
     gridtolerance="10"
     guidetolerance="10"
     inkscape:pageopacity="0"
     inkscape:pageshadow="2"
     inkscape:window-width="1680"
     inkscape:window-height="975"
     id="namedview38"
     showgrid="false"
     inkscape:zoom="5.5245499"
     inkscape:cx="116.74611"
     inkscape:cy="67.743062"
     inkscape:window-x="1671"
     inkscape:window-y="-9"
     inkscape:window-maximized="1"
     inkscape:current-layer="g3"
     showguides="true"
     inkscape:guide-bbox="true"><sodipodi:guide
       position="97.787074,14.847252"
       orientation="1,0"
       id="guide4712" /></sodipodi:namedview><g
     id="g3"
     style="fill:#ff691e;fill-opacity:1"><g
       id="_x23_ffffffff"
       style="fill:#ffffff;fill-opacity:1"
       transform="matrix(0.28591747,0,0,0.28591747,-49.151379,84.211396)"><path
         d="m 207.014,5.277 c 4.724,-6.043 14.501,-7.076 20.297,-2.006 2.37,1.996 4.031,4.75 4.88,7.715 10.73,36.92 21.508,73.822 32.223,110.746 -6.332,0.006 -12.667,-0.012 -18.999,0.006 -2.987,-10.18 -5.903,-20.377 -8.852,-30.566 -12.246,-0.025 -24.485,-0.006 -36.73,-0.012 -2.998,10.184 -5.958,20.379 -8.901,30.582 -6.298,-0.021 -12.596,-0.004 -18.895,-0.01 10.194,-35.221 20.4,-70.439 30.643,-105.648 1.218,-3.68 1.678,-7.797 4.334,-10.807 m 11.179,22.625 c -4.49,15.295 -8.889,30.619 -13.354,45.922 8.9,0.043 17.796,0.016 26.692,0.016 -4.453,-15.313 -8.884,-30.625 -13.338,-45.938 z"
         id="path6"
         style="fill:#ffffff;fill-opacity:1"
         inkscape:connector-curvature="0" /><path
         d="m 340.411,6.072 c 3.301,-4.787 9.681,-7.109 15.296,-5.631 5.142,1.184 9.075,5.615 10.434,10.604 10.719,36.893 21.476,73.773 32.194,110.666 -6.342,0.049 -12.679,0 -19.02,0.025 -2.949,-10.188 -5.865,-20.387 -8.835,-30.576 -12.225,0.006 -24.447,-0.021 -36.671,0.01 -2.922,10.195 -5.935,20.367 -8.856,30.563 -6.293,0.006 -12.581,-0.006 -18.874,0.006 10.188,-35.414 20.497,-70.797 30.768,-106.186 1.076,-3.196 1.492,-6.719 3.564,-9.481 m -1.543,67.768 c 8.863,0.012 17.722,0.006 26.584,0.006 -4.409,-15.346 -8.89,-30.67 -13.284,-46.014 -4.426,15.338 -8.894,30.662 -13.3,46.008 z"
         id="path8"
         style="fill:#ffffff;fill-opacity:1"
         inkscape:connector-curvature="0" /><path
         d="m 250.237,0.256 c 22.91,0 45.814,0 68.719,0 0,6.182 0,12.355 0,18.533 -8.436,0.006 -16.865,-0.01 -25.296,0.006 0,34.313 0.006,68.627 -0.005,102.938 -6.039,0 -12.083,0 -18.122,0 0,-34.311 -0.005,-68.625 0.005,-102.938 -8.436,-0.016 -16.866,0 -25.301,-0.006 0,-6.178 -0.005,-12.351 0,-18.533 z"
         id="path10"
         style="fill:#ffffff;fill-opacity:1"
         inkscape:connector-curvature="0" /><path
         d="m 418.475,1.01 c 1.74,-0.602 3.598,-0.807 5.436,-0.764 7.223,0.025 14.446,0.006 21.667,0.01 12.164,0.225 23.773,7.771 29.037,18.719 3.646,7.109 4.021,15.377 3.102,23.176 -0.634,8.164 -4.058,16.328 -10.334,21.74 -3.314,2.953 -7.443,4.744 -10.992,7.375 -1.948,1.482 -2.047,4.365 -1.039,6.428 9.586,14.799 19.551,29.367 29.339,44.039 -7.158,0.012 -14.316,-0.016 -21.475,0.012 -9.37,-14.074 -18.643,-28.219 -27.976,-42.313 -2.743,-4.012 -3.489,-9.324 -1.845,-13.902 1.281,-3.512 4.35,-6.08 7.768,-7.406 6.525,-2.49 12.958,-6.4 16.572,-12.559 2.749,-4.627 2.606,-10.336 1.37,-15.4 -1.45,-6.574 -7.855,-11.746 -14.624,-11.52 -4.682,0.031 -9.36,-0.021 -14.034,0.021 -2.116,-0.049 -4.107,1.791 -4.08,3.934 -0.022,33.047 0.011,66.096 -0.01,99.141 -6.087,-0.012 -12.168,0 -18.255,-0.006 C 408.09,86.159 408.113,50.581 408.09,15.005 408.128,8.77 412.562,2.902 418.475,1.01 Z"
         id="path12"
         style="fill:#ffffff;fill-opacity:1"
         inkscape:connector-curvature="0" /><path
         d="m 494.262,0.256 c 6.402,0 12.803,0 19.21,0 -0.006,40.496 0.012,80.986 -0.012,121.482 -6.396,-0.018 -12.796,0 -19.198,-0.006 0,-40.496 0,-80.986 0,-121.476 z"
         id="path14"
         style="fill:#ffffff;fill-opacity:1"
         inkscape:connector-curvature="0" /></g><g
       id="g16"
       style="fill:#ffffff;fill-opacity:1"
       transform="scale(0.64565074,0.64565074)"><path
         d="m 54.173,0.008 c 3.076,-0.01 6.153,0 9.229,-0.008 0.013,7.234 0,14.469 0.005,21.701 0.032,6.039 -0.139,12.076 -0.389,18.107 -0.412,8.711 -0.957,17.439 -2.4,26.051 -0.991,5.936 -3.044,11.662 -5.592,17.098 -4.156,8.76 -10.686,16.172 -18.027,22.406 -6.567,5.779 -14.405,9.986 -22.649,12.834 -4.664,1.605 -9.463,2.844 -14.35,3.533 0.005,-6.066 0.005,-12.137 0,-18.203 5.883,-0.883 11.538,-2.971 16.791,-5.73 6.233,-3.295 11.844,-7.729 16.566,-12.953 4.877,-5.395 8.764,-11.641 11.714,-18.273 3.474,-7.625 5.333,-15.861 6.597,-24.109 1.584,-10.482 2.244,-21.088 2.489,-31.684 0.035,-3.59 0.005,-7.182 0.016,-10.77 z"
         id="path18"
         style="fill:#ffffff;fill-opacity:1"
         inkscape:connector-curvature="0" /><path
         d="m 67.116,0.02 c 5.662,-0.037 11.328,-0.006 16.992,-0.016 0.002,40.574 0.002,81.15 0,121.727 -5.65,0.012 -11.303,-0.027 -16.953,0.021 C 67.083,108.814 67.145,95.873 67.125,82.936 67.118,55.295 67.136,27.658 67.116,0.02 Z"
         id="path20"
         style="fill:#ffffff;fill-opacity:1"
         inkscape:connector-curvature="0" /><path
         d="m 87.888,0.004 c 3.06,-0.002 6.118,-0.008 9.176,0.002 -0.099,12.371 0.322,24.766 1.797,37.057 1.207,9.547 2.909,19.164 6.711,28.059 3.605,8.605 8.801,16.604 15.572,23.051 6.466,6.166 14.302,10.906 22.815,13.635 2.375,0.76 4.805,1.355 7.274,1.715 -0.003,6.064 -0.006,12.129 0,18.191 -4.852,-0.658 -9.61,-1.908 -14.24,-3.482 -5.514,-1.918 -10.847,-4.402 -15.745,-7.588 -3.576,-2.301 -6.828,-5.053 -9.952,-7.924 -5.149,-4.748 -9.758,-10.146 -13.219,-16.256 -2.708,-4.758 -4.683,-9.9 -6.23,-15.145 C 90.429,66.048 89.824,60.602 89.274,55.184 88.21,43.475 87.812,31.707 87.888,19.954 c 0,-6.649 -0.002,-13.302 0,-19.95 z"
         id="path22"
         style="fill:#ffffff;fill-opacity:1"
         inkscape:connector-curvature="0" /><path
         d="m 54.173,0.008 c -0.01,3.588 0.02,7.18 -0.016,10.77 -0.245,10.596 -0.904,21.201 -2.489,31.684 -1.264,8.248 -3.124,16.484 -6.597,24.109 -2.95,6.635 -6.837,12.879 -11.714,18.273 -4.722,5.227 -10.333,9.658 -16.566,12.953 -5.253,2.762 -10.908,4.848 -16.791,5.73 0.005,6.066 0.005,12.137 0,18.203 4.887,-0.689 9.686,-1.928 14.35,-3.533 8.244,-2.848 16.082,-7.055 22.649,-12.834 7.341,-6.234 13.871,-13.646 18.027,-22.406 2.547,-5.436 4.601,-11.162 5.592,-17.098 1.443,-8.611 1.989,-17.34 2.4,-26.051 0.25,-6.031 0.421,-12.068 0.389,-18.107 C 63.402,14.469 63.415,7.234 63.402,0 60.325,0.008 57.249,-0.002 54.173,0.008"
         id="path24"
         style="fill:#ffffff;fill-opacity:1"
         inkscape:connector-curvature="0" /><path
         d="m 67.116,0.02 c 0.02,27.641 0.002,55.275 0.01,82.916 0.02,12.938 -0.042,25.879 0.03,38.816 5.65,-0.051 11.302,-0.012 16.953,-0.021 0.002,-40.574 0.002,-81.15 0,-121.727 -5.665,0.01 -11.331,-0.022 -16.993,0.016"
         id="path26"
         style="fill:#ffffff;fill-opacity:1"
         inkscape:connector-curvature="0" /><path
         d="m 87.888,0.004 c -0.002,6.648 0,13.301 0,19.949 -0.076,11.754 0.322,23.521 1.386,35.23 0.55,5.418 1.155,10.863 2.573,16.135 1.547,5.244 3.522,10.387 6.23,15.145 3.46,6.109 8.07,11.508 13.219,16.256 3.124,2.871 6.376,5.623 9.952,7.922 4.898,3.188 10.231,5.672 15.745,7.59 4.63,1.574 9.388,2.824 14.24,3.482 -0.006,-6.063 -0.003,-12.127 0,-18.191 -2.47,-0.359 -4.899,-0.955 -7.274,-1.715 -8.513,-2.729 -16.35,-7.469 -22.815,-13.635 C 114.373,81.725 109.177,73.727 105.572,65.121 101.77,56.226 100.068,46.609 98.861,37.06 97.386,24.771 96.965,12.376 97.064,0.005 94.007,-0.004 90.948,0.002 87.888,0.004"
         id="path28"
         style="fill:#ffffff;fill-opacity:1"
         inkscape:connector-curvature="0" /></g><g
       transform="translate(-181.89309,61.473679)"
       id="g5518"
       style="fill:#ffffff;fill-opacity:1"><path
         inkscape:connector-curvature="0"
         d="m 286.516,29.216 c -2.773,0 -5.035,-2.258 -5.035,-5.035 0,-2.959 2.213,-5.28 5.035,-5.28 2.729,0 5.037,2.417 5.037,5.28 0,2.681 -2.35,5.035 -5.037,5.035 z m 0,-9.533 c -2.426,0 -4.252,1.935 -4.252,4.5 0,2.344 1.908,4.254 4.252,4.254 2.229,0 4.254,-2.027 4.254,-4.254 0,-2.399 -1.983,-4.5 -4.254,-4.5 z m 0.885,6.647 -0.863,-1.516 -1.096,0 0,1.321 -0.779,0 0,-4.545 2.104,0 c 0.979,0 1.488,0.813 1.488,1.613 0,0.614 -0.303,1.237 -0.885,1.491 l 0.711,1.248 -0.68,0.388 z m -1.959,-2.294 1.32,0 c 0.221,0 0.396,-0.079 0.521,-0.235 0.119,-0.149 0.188,-0.368 0.188,-0.597 0,-0.312 -0.15,-0.832 -0.709,-0.832 l -1.32,0 0,1.664 0,0 z"
         id="path5520"
         style="fill:#ffffff;fill-opacity:1" /></g></g></svg>