<?xml version="1.0" encoding="UTF-8" standalone="no"?>
<!-- Generator: Adobe Illustrator 13.0.0, SVG Export Plug-In . SVG Version: 6.00 Build 14948)  -->

<svg
   xmlns:dc="http://purl.org/dc/elements/1.1/"
   xmlns:cc="http://creativecommons.org/ns#"
   xmlns:rdf="http://www.w3.org/1999/02/22-rdf-syntax-ns#"
   xmlns:svg="http://www.w3.org/2000/svg"
   xmlns="http://www.w3.org/2000/svg"
   xmlns:sodipodi="http://sodipodi.sourceforge.net/DTD/sodipodi-0.dtd"
   xmlns:inkscape="http://www.inkscape.org/namespaces/inkscape"
   version="1.2"
   id="svg101576"
   x="0px"
   y="0px"
   width="552.33002"
   height="83.530983"
   viewBox="0 0 552.33 83.530981"
   xml:space="preserve"
   inkscape:version="0.91 r13725"
   sodipodi:docname="logo.svg"><metadata
     id="metadata20"><rdf:RDF><cc:Work
         rdf:about=""><dc:format>image/svg+xml</dc:format><dc:type
           rdf:resource="http://purl.org/dc/dcmitype/StillImage" /><dc:title></dc:title></cc:Work></rdf:RDF></metadata><defs
     id="defs18"><filter
       inkscape:collect="always"
       style="color-interpolation-filters:sRGB"
       id="filter4476"
       x="-0.0089160557"
       width="1.0178321"
       y="-0.062313409"
       height="1.1246268"><feGaussianBlur
         inkscape:collect="always"
         stdDeviation="2.0324037"
         id="feGaussianBlur4478" /></filter></defs><sodipodi:namedview
     pagecolor="#ffffff"
     bordercolor="#666666"
     borderopacity="1"
     objecttolerance="10"
     gridtolerance="10"
     guidetolerance="10"
     inkscape:pageopacity="0"
     inkscape:pageshadow="2"
     inkscape:window-width="1680"
     inkscape:window-height="975"
     id="namedview16"
     showgrid="false"
     fit-margin-top="0"
     fit-margin-left="0"
     fit-margin-right="0"
     fit-margin-bottom="0"
     inkscape:zoom="1.6093605"
     inkscape:cx="273.77101"
     inkscape:cy="55.188258"
     inkscape:window-x="1671"
     inkscape:window-y="-9"
     inkscape:window-maximized="1"
     inkscape:current-layer="layer1" /><g
     inkscape:groupmode="layer"
     id="layer2"
     inkscape:label="Layer 2"
     style="display:inline"
     transform="translate(4.9915609,2.0372234)" /><g
     inkscape:groupmode="layer"
     id="layer1"
     inkscape:label="Layer 1"
     style="display:inline"
     transform="translate(4.9915609,2.0372234)"><g
       id="g4161"
       transform="translate(-5.3214075,121.54761)"
       style="display:inline;opacity:0.35899999;fill:#000000;fill-opacity:1;filter:url(#filter4476)" /><g
       id="g4574"><path
         inkscape:connector-curvature="0"
         style="display:inline;opacity:0.35899999;fill:#000000;fill-opacity:1;filter:url(#filter4476)"
         d="m 347.884,-49.62 c 0,0.83 -0.682,1.578 -1.521,1.578 l -29.102,0 c -0.848,0 -1.527,-0.748 -1.527,-1.578 l 0,-21.022 c 0,-0.832 0.682,-1.496 1.527,-1.496 l 29.102,0 c 0.84,0 1.521,0.664 1.521,1.496 l 0,21.022 z m -1.263,-28.834 -29.621,0 c -4.287,0 -7.787,3.49 -7.787,7.813 l 0,21.104 c 0,4.236 3.5,7.813 7.787,7.813 l 29.621,0 c 4.297,0 7.787,-3.574 7.787,-7.813 l 0,-21.105 c 0,-4.322 -3.491,-7.812 -7.787,-7.812"
         id="path4163"
         transform="translate(-5.3214075,121.54761)" /><path
         inkscape:connector-curvature="0"
         style="display:inline;opacity:0.35899999;fill:#000000;fill-opacity:1;filter:url(#filter4476)"
         d="m 6.797,-110.031 c 0,0 0,26.758 0,27.174 -0.357,0 -6.433,0 -6.797,0 0,-0.416 0,-36.314 0,-36.729 0.382,0 5.633,0 5.808,0 l 27.529,26.756 c 0,0 0,-26.341 0,-26.756 0.374,0 5.442,0 5.442,0 0,0 0.964,0 1.264,0 0,0.416 0,36.313 0,36.729 -0.366,0 -5.127,0 -5.311,0 L 6.797,-110.031"
         id="path4165"
         transform="translate(-5.3214075,121.54761)" /><path
         inkscape:connector-curvature="0"
         style="display:inline;opacity:0.35899999;fill:#000000;fill-opacity:1;filter:url(#filter4476)"
         d="m 74.943,-110.031 c 0,0 0,26.758 0,27.174 -0.366,0 -6.423,0 -6.797,0 0,-0.416 0,-36.313 0,-36.729 0.382,0 5.625,0 5.8,0 l 27.529,26.756 c 0,0 0,-26.341 0,-26.756 0.374,0 5.451,0 5.451,0 0,0 0.972,0 1.263,0 0,0.416 0,36.313 0,36.729 -0.374,0 -5.127,0 -5.31,0 l -27.936,-27.174"
         id="path4167"
         transform="translate(-5.3214075,121.54761)" /><path
         inkscape:connector-curvature="0"
         style="display:inline;opacity:0.35899999;fill:#000000;fill-opacity:1;filter:url(#filter4476)"
         d="m 216.179,-110.031 c 0,0 0,26.758 0,27.174 -0.375,0 -6.424,0 -6.797,0 0,-0.416 0,-36.313 0,-36.729 0.382,0 5.635,0 5.8,0 l 27.529,26.756 c 0,0 0,-26.341 0,-26.756 0.374,0 5.45,0 5.45,0 0,0 0.973,0 1.264,0 0,0.416 0,36.313 0,36.729 -0.374,0 -5.127,0 -5.301,0 l -27.945,-27.174"
         id="path4169"
         transform="translate(-5.3214075,121.54761)" /><path
         inkscape:connector-curvature="0"
         style="display:inline;opacity:0.35899999;fill:#000000;fill-opacity:1;filter:url(#filter4476)"
         d="m 56.23,-119.586 c 0,0 0.964,0 1.255,0 0,0.416 0,36.313 0,36.729 -0.356,0 -6.431,0 -6.797,0 0,-0.416 0,-36.313 0,-36.729 0.374,0 5.542,0 5.542,0"
         id="path4171"
         transform="translate(-5.3214075,121.54761)" /><path
         inkscape:connector-curvature="0"
         style="display:inline;opacity:0.35899999;fill:#000000;fill-opacity:1;filter:url(#filter4476)"
         d="m 154.482,-119.586 c 0,0 0.947,0 1.246,0 0,0.333 0,5.983 0,6.315 -0.398,0 -16.386,0 -16.386,0 0,0 0,29.997 0,30.413 -0.366,0 -6.697,0 -7.063,0 0,-0.416 0,-30.413 0,-30.413 0,0 -15.986,0 -16.386,0 0,-0.332 0,-5.983 0,-6.315 0.406,0 38.589,0 38.589,0"
         id="path4173"
         transform="translate(-5.3214075,121.54761)" /><path
         inkscape:connector-curvature="0"
         style="display:inline;opacity:0.35899999;fill:#000000;fill-opacity:1;filter:url(#filter4476)"
         d="m 198.023,-119.586 c 0,0 0.98,0 1.271,0 0,0.333 0,5.983 0,6.315 -0.391,0 -29.134,0 -29.134,0 l 0,8.226 c 0,0 22.153,0 22.536,0 0,0.416 0,5.9 0,6.316 -0.383,0 -22.536,0 -22.536,0 l 0,9.555 c 0,0 28.743,0 29.134,0 0,0.333 0,5.9 0,6.315 -0.391,0 -35.474,0 -35.863,0 0,-0.416 0,-36.313 0,-36.729 0.39,0.002 34.592,0.002 34.592,0.002"
         id="path4175"
         transform="translate(-5.3214075,121.54761)" /><path
         inkscape:connector-curvature="0"
         style="display:inline;opacity:0.35899999;fill:#000000;fill-opacity:1;filter:url(#filter4476)"
         d="m 287.216,-89.173 -20.874,0 0,-24.096 20.874,0 c 6.531,0 8.852,6.479 8.852,12.049 -0.002,5.482 -2.318,12.047 -8.852,12.047 z m 11.153,-25.01 c -2.658,-3.573 -6.59,-5.401 -11.344,-5.401 0,0 -26.838,0 -27.238,0 0,0.416 0,36.313 0,36.729 0.398,0 27.238,0 27.238,0 4.754,0 8.686,-1.911 11.344,-5.401 2.492,-3.24 3.813,-7.728 3.813,-12.962 -0.001,-5.239 -1.321,-9.725 -3.813,-12.965"
         id="path4177"
         transform="translate(-5.3214075,121.54761)" /><path
         inkscape:connector-curvature="0"
         style="display:inline;opacity:0.35899999;fill:#000000;fill-opacity:1;filter:url(#filter4476)"
         d="m 347.884,-90.669 c 0,0.748 -0.682,1.496 -1.521,1.496 l -29.102,0 c -0.848,0 -1.527,-0.748 -1.527,-1.496 l 0,-21.105 c 0,-0.831 0.682,-1.496 1.527,-1.496 l 29.102,0 c 0.84,0 1.521,0.665 1.521,1.496 l 0,21.105 z m -1.263,-28.917 -29.621,0 c -4.287,0 -7.787,3.49 -7.787,7.813 l 0,21.104 c 0,4.321 3.5,7.813 7.787,7.813 l 29.621,0 c 4.297,0 7.787,-3.49 7.787,-7.813 l 0,-21.105 c 0,-4.32 -3.491,-7.812 -7.787,-7.812"
         id="path4179"
         transform="translate(-5.3214075,121.54761)" /><path
         inkscape:connector-curvature="0"
         style="display:inline;opacity:0.35899999;fill:#000000;fill-opacity:1;filter:url(#filter4476)"
         d="m 470.017,-57.263 c 7.045,2.824 21.928,5.066 33.545,5.066 12.713,0 17.973,-4.32 17.973,-9.806 0,-4.985 -4.887,-7.811 -18.92,-12.963 -18.771,-6.896 -32.541,-12.38 -32.541,-24.762 0,-12.713 16.57,-20.274 41.822,-20.274 13.561,0 18.215,0.831 26.822,2.41 l 0.066,12.131 c -8.459,-1.578 -15.955,-4.321 -27.598,-4.321 -12.479,0 -17.799,3.988 -17.799,8.063 0,5.9 8.191,8.725 22.563,13.876 20,7.146 31.127,12.629 31.127,24.68 0,12.463 -13.938,21.438 -45.361,21.438 -12.904,0 -21.805,-0.832 -31.699,-2.492 l 0,-13.046"
         id="path4181"
         transform="translate(-5.3214075,121.54761)" /><path
         inkscape:connector-curvature="0"
         style="display:inline;opacity:0.35899999;fill:#000000;fill-opacity:1;filter:url(#filter4476)"
         d="m 403.125,-109.281 -14.955,0 0,56.671 14.955,0 c 22.961,0 37.443,-9.89 37.443,-28.252 0,-18.365 -14.483,-28.419 -37.443,-28.419 z m 40.144,61.905 c -7.396,3.324 -21.391,5.484 -33.621,5.484 l -46.748,0 0,-77.943 46.748,0 c 12.23,0 26.225,2.16 33.637,5.484 18.008,8.143 23.873,21.188 23.873,33.485 0,12.302 -5.817,25.347 -23.889,33.49"
         id="path4183"
         transform="translate(-5.3214075,121.54761)" /><path
         style="fill:#888888;fill-opacity:1"
         d="m 347.884,70.38 c 0,0.83 -0.682,1.578 -1.521,1.578 l -29.102,0 c -0.848,0 -1.527,-0.748 -1.527,-1.578 l 0,-21.022 c 0,-0.832 0.682,-1.496 1.527,-1.496 l 29.102,0 c 0.84,0 1.521,0.664 1.521,1.496 l 0,21.022 z m -1.263,-28.834 -29.621,0 c -4.287,0 -7.787,3.49 -7.787,7.813 l 0,21.104 c 0,4.236 3.5,7.813 7.787,7.813 l 29.621,0 c 4.297,0 7.787,-3.574 7.787,-7.813 l 0,-21.105 c 0,-4.322 -3.491,-7.812 -7.787,-7.812"
         id="path100608"
         inkscape:connector-curvature="0" /><path
         style="fill:#000000;fill-opacity:1"
         d="m 6.797,9.969 c 0,0 0,26.758 0,27.174 -0.357,0 -6.433,0 -6.797,0 0,-0.416 0,-36.314 0,-36.729 0.382,0 5.633,0 5.808,0 L 33.337,27.17 c 0,0 0,-26.341 0,-26.756 0.374,0 5.442,0 5.442,0 0,0 0.964,0 1.264,0 0,0.416 0,36.313 0,36.729 -0.366,0 -5.127,0 -5.311,0 L 6.797,9.969"
         id="path100618"
         inkscape:connector-curvature="0" /><path
         style="fill:#000000;fill-opacity:1"
         d="m 74.943,9.969 c 0,0 0,26.758 0,27.174 -0.366,0 -6.423,0 -6.797,0 0,-0.416 0,-36.313 0,-36.729 0.382,0 5.625,0 5.8,0 l 27.529,26.756 c 0,0 0,-26.341 0,-26.756 0.374,0 5.451,0 5.451,0 0,0 0.972,0 1.263,0 0,0.416 0,36.313 0,36.729 -0.374,0 -5.127,0 -5.31,0 L 74.943,9.969"
         id="path100622"
         inkscape:connector-curvature="0" /><path
         style="fill:#000000;fill-opacity:1"
         d="m 216.179,9.969 c 0,0 0,26.758 0,27.174 -0.375,0 -6.424,0 -6.797,0 0,-0.416 0,-36.313 0,-36.729 0.382,0 5.635,0 5.8,0 l 27.529,26.756 c 0,0 0,-26.341 0,-26.756 0.374,0 5.45,0 5.45,0 0,0 0.973,0 1.264,0 0,0.416 0,36.313 0,36.729 -0.374,0 -5.127,0 -5.301,0 L 216.179,9.969"
         id="path100626"
         inkscape:connector-curvature="0" /><path
         style="fill:#000000;fill-opacity:1"
         d="m 56.23,0.414 c 0,0 0.964,0 1.255,0 0,0.416 0,36.313 0,36.729 -0.356,0 -6.431,0 -6.797,0 0,-0.416 0,-36.313 0,-36.729 0.374,0 5.542,0 5.542,0"
         id="path100630"
         inkscape:connector-curvature="0" /><path
         style="fill:#000000;fill-opacity:1"
         d="m 154.482,0.414 c 0,0 0.947,0 1.246,0 0,0.333 0,5.983 0,6.315 -0.398,0 -16.386,0 -16.386,0 0,0 0,29.997 0,30.413 -0.366,0 -6.697,0 -7.063,0 0,-0.416 0,-30.413 0,-30.413 0,0 -15.986,0 -16.386,0 0,-0.332 0,-5.983 0,-6.315 0.406,0 38.589,0 38.589,0"
         id="path100634"
         inkscape:connector-curvature="0" /><path
         style="fill:#000000;fill-opacity:1"
         d="m 198.023,0.414 c 0,0 0.98,0 1.271,0 0,0.333 0,5.983 0,6.315 -0.391,0 -29.134,0 -29.134,0 l 0,8.226 c 0,0 22.153,0 22.536,0 0,0.416 0,5.9 0,6.316 -0.383,0 -22.536,0 -22.536,0 l 0,9.555 c 0,0 28.743,0 29.134,0 0,0.333 0,5.9 0,6.315 -0.391,0 -35.474,0 -35.863,0 0,-0.416 0,-36.313 0,-36.729 0.39,0.002 34.592,0.002 34.592,0.002"
         id="path100638"
         inkscape:connector-curvature="0" /><path
         style="fill:#000000;fill-opacity:1"
         d="m 287.216,30.827 -20.874,0 0,-24.096 20.874,0 c 6.531,0 8.852,6.479 8.852,12.049 -0.002,5.482 -2.318,12.047 -8.852,12.047 z m 11.153,-25.01 c -2.658,-3.573 -6.59,-5.401 -11.344,-5.401 0,0 -26.838,0 -27.238,0 0,0.416 0,36.313 0,36.729 0.398,0 27.238,0 27.238,0 4.754,0 8.686,-1.911 11.344,-5.401 2.492,-3.24 3.813,-7.728 3.813,-12.962 -0.001,-5.239 -1.321,-9.725 -3.813,-12.965"
         id="path100642"
         inkscape:connector-curvature="0" /><path
         style="fill:#000000;fill-opacity:1"
         d="m 347.884,29.331 c 0,0.748 -0.682,1.496 -1.521,1.496 l -29.102,0 c -0.848,0 -1.527,-0.748 -1.527,-1.496 l 0,-21.105 c 0,-0.831 0.682,-1.496 1.527,-1.496 l 29.102,0 c 0.84,0 1.521,0.665 1.521,1.496 l 0,21.105 z M 346.621,0.414 317,0.414 c -4.287,0 -7.787,3.49 -7.787,7.813 l 0,21.104 c 0,4.321 3.5,7.813 7.787,7.813 l 29.621,0 c 4.297,0 7.787,-3.49 7.787,-7.813 l 0,-21.105 c 0,-4.32 -3.491,-7.812 -7.787,-7.812"
         id="path100646"
         inkscape:connector-curvature="0" /><path
         style="fill:#000000;fill-opacity:1"
         d="m 470.017,62.737 c 7.045,2.824 21.928,5.066 33.545,5.066 12.713,0 17.973,-4.32 17.973,-9.806 0,-4.985 -4.887,-7.811 -18.92,-12.963 -18.771,-6.896 -32.541,-12.38 -32.541,-24.762 0,-12.713 16.57,-20.274 41.822,-20.274 13.561,0 18.215,0.831 26.822,2.41 l 0.066,12.131 c -8.459,-1.578 -15.955,-4.321 -27.598,-4.321 -12.479,0 -17.799,3.988 -17.799,8.063 0,5.9 8.191,8.725 22.563,13.876 20,7.146 31.127,12.629 31.127,24.68 0,12.463 -13.938,21.438 -45.361,21.438 -12.904,0 -21.805,-0.832 -31.699,-2.492 l 0,-13.046"
         id="path100656"
         inkscape:connector-curvature="0" /><path
         style="fill:#000000;fill-opacity:1"
         d="m 403.125,10.719 -14.955,0 0,56.671 14.955,0 c 22.961,0 37.443,-9.89 37.443,-28.252 0,-18.365 -14.483,-28.419 -37.443,-28.419 z m 40.144,61.905 c -7.396,3.324 -21.391,5.484 -33.621,5.484 l -46.748,0 0,-77.943 46.748,0 c 12.23,0 26.225,2.16 33.637,5.484 18.008,8.143 23.873,21.188 23.873,33.485 0,12.302 -5.817,25.347 -23.889,33.49"
         id="path100660"
         inkscape:connector-curvature="0" /></g></g></svg>