<?xml version="1.0" encoding="UTF-8" standalone="no"?>
<!-- Generator: Adobe Illustrator 13.0.0, SVG Export Plug-In . SVG Version: 6.00 Build 14948)  -->

<svg
   xmlns:dc="http://purl.org/dc/elements/1.1/"
   xmlns:cc="http://creativecommons.org/ns#"
   xmlns:rdf="http://www.w3.org/1999/02/22-rdf-syntax-ns#"
   xmlns:svg="http://www.w3.org/2000/svg"
   xmlns="http://www.w3.org/2000/svg"
   xmlns:sodipodi="http://sodipodi.sourceforge.net/DTD/sodipodi-0.dtd"
   xmlns:inkscape="http://www.inkscape.org/namespaces/inkscape"
   version="1.1"
   id="svg2"
   x="0px"
   y="0px"
   width="567.429px"
   height="113.032px"
   viewBox="0 0 567.429 113.032"
   enable-background="new 0 0 567.429 113.032"
   xml:space="preserve"
   inkscape:version="0.91 r13725"
   sodipodi:docname="logoconsole.svg"><metadata
     id="metadata27"><rdf:RDF><cc:Work
         rdf:about=""><dc:format>image/svg+xml</dc:format><dc:type
           rdf:resource="http://purl.org/dc/dcmitype/StillImage" /><dc:title /></cc:Work></rdf:RDF></metadata><defs
     id="defs25" /><sodipodi:namedview
     pagecolor="#ffffff"
     bordercolor="#666666"
     borderopacity="1"
     objecttolerance="10"
     gridtolerance="10"
     guidetolerance="10"
     inkscape:pageopacity="0"
     inkscape:pageshadow="2"
     inkscape:window-width="1680"
     inkscape:window-height="975"
     id="namedview23"
     showgrid="false"
     inkscape:zoom="4.7794524"
     inkscape:cx="61.812961"
     inkscape:cy="44.868139"
     inkscape:window-x="1671"
     inkscape:window-y="-9"
     inkscape:window-maximized="1"
     inkscape:current-layer="svg2" /><g
     id="g3"
     transform="matrix(0.34212373,0,0,0.34212373,-56.635846,70.442701)"
     style="fill:#4a4748;fill-opacity:1"><path
       id="path2998_1_"
       d="m 165.884,38.932538 0,31.065412 0,31.06541 5.44104,0 5.44103,0 0,-27.731034 0,-27.729956 6.67955,0 c 4.81692,0 6.99161,0.129574 7.81009,0.471866 1.61535,0.674865 3.27822,2.730776 3.95957,4.881707 0.35741,1.130535 0.65219,3.577328 0.75693,6.296226 0.21595,5.565212 -0.42976,9.022683 -2.12826,11.265396 -1.77193,2.340974 -2.85603,2.710261 -7.86515,2.710261 l -4.29971,0 0,3.367849 0,3.376487 6.75622,-0.130654 6.75729,-0.130654 2.39065,-1.130535 c 4.36773,-2.060229 7.53905,-6.27463 8.8186,-11.704868 0.71482,-3.032036 0.70402,-9.810926 -0.0227,-13.064318 -0.69754,-3.127057 -2.14985,-6.27679 -3.78356,-8.18369 -0.68351,-0.796881 -2.00516,-1.940373 -2.92838,-2.534255 -3.16701,-2.032155 -4.38609,-2.16065 -19.82053,-2.16065 l -13.9627,0 z m 48.08822,0 0,31.065412 0,31.06541 5.43996,0 5.44103,0 0,-31.06541 0,-31.065412 -5.44103,0 -5.43996,0 z m 136.45458,0 c -4.87415,0.0011 -9.88867,0.172766 -11.14338,0.373606 -2.83227,0.45135 -6.13534,1.949012 -8.00768,3.641035 -1.88747,1.70498 -3.49419,4.26407 -4.36557,6.953814 -0.54206,1.671508 -0.71266,3.195084 -0.73426,6.406364 -0.0313,4.430358 0.34121,6.317822 1.86479,9.301268 0.98908,1.941453 3.62916,4.743495 5.44104,5.790886 2.1045,1.220157 4.79532,1.865869 9.42328,2.237315 3.5201,0.285063 4.34074,0.459988 5.48531,1.219077 0.90054,0.594961 1.68878,1.568927 2.35825,2.927297 0.93833,1.912299 0.99124,2.312899 0.98692,6.427959 -0.004,4.104263 -0.0616,4.509182 -0.96749,6.231439 -0.61115,1.170487 -1.4955,2.194123 -2.42087,2.809601 l -1.46203,0.966407 -9.2462,0.111218 -9.2354,0.09934 0,3.322493 0,3.312783 10.50631,0 c 6.39232,0 11.24272,-0.15765 12.37325,-0.39629 4.30186,-0.904855 7.88135,-3.692857 9.61873,-7.491536 1.4631,-3.199403 1.98032,-6.487348 1.78812,-11.419806 -0.203,-5.200244 -0.97181,-8.0336 -3.04931,-11.14338 -2.58177,-3.860231 -5.46803,-5.184048 -12.80085,-5.855674 -2.71242,-0.24835 -5.49179,-0.685663 -6.17529,-0.976125 -1.50954,-0.639233 -2.92082,-2.248113 -3.54278,-4.036236 -0.61332,-1.763289 -0.60576,-6.868512 0.0227,-9.025923 0.61547,-2.130415 2.4889,-4.092384 4.46491,-4.684107 0.95345,-0.287222 4.15933,-0.427594 9.55394,-0.427594 l 8.12754,0 0,-3.336536 0,-3.336535 -8.86396,0 0,-0.0022 z m 125.04557,0 0,4.564251 0,4.563171 5.44104,0 5.44104,0 0,-4.563171 0,-4.564251 -5.44104,0 -5.44104,0 0,0 z m -104.63331,7.020762 0.11229,22.376383 c 0.0972,22.025453 0.11338,22.409856 0.86707,24.407458 0.4222,1.115418 1.3249,2.785845 2.00516,3.7177 1.39616,1.900415 3.2102,3.232869 5.5069,4.036229 1.10462,0.38764 2.98237,0.53773 6.54782,0.55069 l 5.00264,0.0216 0,-3.334379 0,-3.33437 -3.2685,0 c -3.11087,0 -3.31494,-0.04211 -4.20145,-0.966407 -0.54853,-0.571207 -1.08626,-1.687704 -1.3033,-2.721058 -0.23863,-1.115418 -0.33797,-6.917103 -0.27642,-15.971099 l 0.0993,-14.215369 5.87943,-0.09934 5.87942,-0.09934 0,-3.321419 0,-3.325737 -5.96797,0 -5.96581,0 0,-3.861311 0,-3.860231 -5.45183,0 -5.46479,0 0,0 z m 75.14871,0 0,22.102117 c 0,21.376503 0.0248,22.178783 0.72561,24.308119 0.83252,2.535335 2.52454,5.04475 4.36557,6.449548 0.70186,0.537733 2.09371,1.259026 3.09143,1.600246 1.39184,0.4805 2.94781,0.62843 6.64715,0.63707 l 4.82556,0.0108 0,-3.334378 0,-3.334371 -3.11518,0 c -2.60228,0 -3.26095,-0.112297 -4.02436,-0.714817 -0.50425,-0.394122 -1.07546,-1.301141 -1.27414,-2.015959 -0.22136,-0.79904 -0.36281,-7.109304 -0.36281,-16.311231 l 0,-15.005771 5.97877,0 5.97877,0 -0.1015,-3.246913 -0.0993,-3.247993 -5.87943,-0.09718 -5.87511,-0.10042 0,-3.849433 0,-3.849433 -5.44104,0 -5.43995,0 0,0 z m -9.59821,7.632999 -11.61633,0.187883 c -12.49095,0.192202 -13.78453,0.345531 -17.45148,2.204921 -4.1021,2.078586 -6.96137,6.114822 -8.2582,11.64872 -0.54205,2.30858 -0.63707,4.296464 -0.63707,13.075115 0,9.966415 0.0292,10.431802 0.8012,12.339782 1.55597,3.84511 3.87211,6.219555 7.20649,7.37061 1.46958,0.50857 3.00288,0.62627 8.05195,0.63491 l 6.23144,0.013 0,-3.336538 0,-3.33437 -4.36557,0 c -4.13342,0 -4.41416,-0.05075 -5.39676,-0.877865 -0.65003,-0.546371 -1.17913,-1.45771 -1.42532,-2.435995 -0.48914,-1.936054 -0.5129,-17.208532 -0.0335,-20.905716 0.68134,-5.253154 1.86478,-7.716143 4.33425,-9.03888 0.84979,-0.453509 2.31722,-0.615477 6.45172,-0.723455 l 5.35249,-0.142532 0,20.403616 0,20.391735 5.61596,0 5.61596,0 0,-13.109666 c 0,-7.206484 -0.11229,-17.887717 -0.24295,-23.735832 l -0.23431,-10.629403 z m -164.85292,0.01188 -11.67032,0.174925 c -12.68315,0.195441 -14.50475,0.427595 -17.96762,2.281586 -4.0222,2.153091 -6.89443,6.409603 -8.10703,12.010447 -0.76988,3.557892 -1.13053,18.130669 -0.53773,21.654007 0.5183,3.073068 1.95549,6.168812 3.67559,7.919138 1.26551,1.287102 3.36569,2.55693 5.12142,3.0925 0.48266,0.14901 3.75873,0.27967 7.28315,0.2937 l 6.40528,0.0335 0,-3.334377 0,-3.331132 -4.48542,0 c -5.05988,0 -5.7261,-0.238632 -6.67955,-2.412239 -0.42652,-0.968567 -0.59281,-2.874388 -0.70186,-8.007685 -0.15765,-7.295027 0.34985,-15.20985 1.14025,-17.838047 0.70942,-2.35933 2.03107,-4.171209 3.58596,-4.934617 1.13594,-0.557169 2.18009,-0.661908 6.61369,-0.669467 l 5.26395,-0.01188 0.0885,20.270802 0.0885,20.268639 5.44104,0 5.44104,0 0,-23.733669 0.001,-23.726114 0,0 z m 11.71566,0.07666 c -3.16161,0 -5.74337,0.03995 -5.7369,0.08854 0.004,0.04859 3.61297,10.64344 8.01849,23.551189 l 8.00768,23.472357 -4.50918,11.6293 c -2.47811,6.39988 -4.5081,11.68111 -4.5081,11.73618 0,0.054 2.15201,0.054 4.78237,0 l 4.78344,-0.0993 13.9843,-35.101655 c 7.69562,-19.305474 13.99725,-35.138361 13.99725,-35.188031 0.002,-0.04859 -2.26971,-0.08854 -5.05771,-0.08854 -3.67559,0 -5.14626,0.122015 -5.3417,0.440552 -0.14793,0.240792 -2.83659,7.065033 -5.96581,15.169898 -3.12814,8.102706 -5.8276,14.780096 -6.009,14.840564 -0.18357,0.06155 -2.66923,-6.765932 -5.51554,-15.169898 l -5.17865,-15.281116 -5.75094,0 z m 192.22007,0 0,23.692641 0,23.692637 5.44104,0 5.44104,0 0,-23.692637 0,-23.692641 -5.44104,0 -5.44104,0 z m 65.81398,0.174925 -0.1015,23.605178 0.013,0 -0.0993,23.605175 5.62676,0 5.61596,0 0,-20.390655 0,-20.402536 5.3525,0.143611 c 5.68183,0.147931 6.63096,0.384404 8.22688,2.093703 1.25039,1.338933 2.14445,3.778168 2.54289,6.952735 0.20624,1.661789 0.37577,9.28939 0.37577,17.287357 l 0,14.316865 5.43887,0 5.43888,0 -0.0108,-13.952978 c -0.002,-14.798452 -0.2613,-18.309913 -1.6877,-22.322393 -1.94037,-5.456154 -5.51122,-8.691189 -11.31831,-10.266595 -1.92093,-0.521537 -3.9736,-0.612238 -13.83312,-0.637073 l -11.58069,-0.03239 0,0 z m -27.51076,0.09934 c -3.06875,0 -6.1267,0.385483 -8.32407,1.141333 -2.92513,1.006359 -4.76185,2.184405 -6.60504,4.233837 -1.99976,2.224356 -3.44775,5.235877 -4.29755,8.917943 -0.51829,2.256751 -0.64355,4.151773 -0.61115,9.651118 0.027,5.786567 0.14361,7.265873 0.76772,9.555017 1.05711,3.882906 2.44032,6.497066 4.5405,8.622082 2.06887,2.092617 5.12682,3.695018 8.56917,4.476783 1.54841,0.34985 3.69503,0.46107 6.97649,0.37252 5.65592,-0.15117 8.34674,-0.87894 11.64764,-3.135689 2.76749,-1.891778 4.85904,-4.877384 6.04464,-8.633955 1.69526,-5.363292 1.99328,-14.205651 0.69214,-20.730791 -0.63275,-3.170249 -2.17037,-6.607204 -3.88507,-8.698747 -1.61103,-1.966289 -4.25003,-3.690705 -7.07367,-4.629038 -2.28374,-0.75693 -5.37301,-1.142413 -8.44175,-1.142413 l 0,0 z m 0.13281,6.537018 c 1.59268,0 3.1886,0.307739 4.44115,0.942652 1.6348,0.829275 2.66167,2.271868 3.55358,5.001564 0.58416,1.784885 0.72993,3.409961 0.86706,9.313145 0.17925,7.710744 -0.17492,11.34422 -1.37132,14.083635 -0.84332,1.936054 -2.20816,3.440195 -3.70798,4.080507 -0.6414,0.274265 -2.32802,0.481584 -3.89263,0.481584 -2.21896,0 -3.07091,-0.157648 -4.3105,-0.809839 -0.97397,-0.516137 -1.91446,-1.398321 -2.52238,-2.380925 -1.5862,-2.559091 -2.10882,-5.916142 -2.13041,-13.478956 -0.0173,-7.200005 0.35417,-10.093829 1.68122,-13.022206 0.44919,-0.993402 1.35621,-2.206 2.02892,-2.721058 1.27846,-0.975045 3.31494,-1.490103 5.36329,-1.490103 l 0,0 z"
       inkscape:connector-curvature="0"
       style="fill:#4a4748;fill-opacity:1" /></g><g
     id="g15"
     transform="matrix(1.059264,0,0,1.059264,-47.356157,-331.40982)"><path
       id="path7"
       d="m 114.58694,328.28597 -0.0649,58.72091 -15.732806,-5.1168 0,-69.02208 20.082846,5.3103 c 12.8553,3.45471 20.72171,10.17129 20.59446,21.9404 -0.1279,13.69094 -6.46012,19.19014 -18.80315,15.60819 l 0,-26.99359 c -0.001,-3.26384 -6.07641,-3.45471 -6.07641,-0.44733 l 0,0 z"
       inkscape:connector-curvature="0"
       style="fill:#de0029" /><path
       id="path9"
       d="m 91.560996,370.50337 -7.41907,2.49576 c -4.797372,1.66406 -8.89029,-2.23799 -4.477284,-3.83973 l 3.581303,-1.27707 -13.495479,-4.28773 c -4.157198,1.40891 -8.0599,4.41432 -7.802781,8.63711 0.255808,4.2851 10.041424,5.3103 17.588397,6.5244 7.035359,1.15047 13.431199,0.51096 19.2518,-1.53616 l 0,-4.41432 -7.226886,-2.30226 0,0 z m 23.088254,16.50417 13.75129,-4.79672 -13.87919,-4.41366 0,8.89291 0.1279,0.31747 0,0 z"
       inkscape:connector-curvature="0"
       style="fill:#f3c202" /><path
       id="path19"
       d="m 151.23495,374.15092 0.25515,-0.0649 c 6.01279,-2.11074 8.57086,-5.05514 7.93134,-7.80409 -1.02323,-4.60519 -8.37802,-7.10095 -19.69913,-7.93265 -8.12287,-0.57524 -16.11718,1.21607 -23.91996,3.90073 l -1.27903,0.44996 14.00709,4.35069 8.18583,-2.75288 c 8.57086,-1.59781 12.02492,1.21607 3.7748,3.83974 l -4.09423,1.40759 14.83814,4.60585 0,0 z m -52.445756,-20.34193 -6.204312,2.11008 6.204312,1.91921 0,-4.02929 0,0 z"
       inkscape:connector-curvature="0"
       style="fill:#326db3" /><path
       id="path21"
       d="m 128.40119,382.20951 22.83376,-8.05859 -14.83945,-4.60585 -21.8735,7.48401 0,0.76742 13.87919,4.41301 0,0 z m -29.611996,-14.13631 -7.227542,2.43017 7.227542,2.30358 0,-4.73375 0,0 z m 15.732156,3.7748 0,-9.14676 14.00709,4.34938 -14.00709,4.79738 0,0 z m -31.275405,-3.96567 15.542593,-5.56545 0,-4.47729 -6.204312,-1.91987 -22.513673,7.61191 c -0.06362,0 -0.191527,0.063 -0.319431,0.063 l 13.494823,4.28773 0,0 z"
       inkscape:connector-curvature="0"
       style="fill:#00aa9e" /></g></svg>