<?xml version="1.0" encoding="UTF-8" standalone="no"?>
<svg
   xmlns:dc="http://purl.org/dc/elements/1.1/"
   xmlns:cc="http://creativecommons.org/ns#"
   xmlns:rdf="http://www.w3.org/1999/02/22-rdf-syntax-ns#"
   xmlns:svg="http://www.w3.org/2000/svg"
   xmlns="http://www.w3.org/2000/svg"
   version="1.1"
   x="0px"
   y="0px"
   width="566.929px"
   height="104.51px"
   viewBox="0 0 566.929 104.51"
   enable-background="new 0 0 566.929 104.51"
   xml:space="preserve"
   id="svg2"><metadata
     id="metadata36"><rdf:RDF><cc:Work
         rdf:about=""><dc:format>image/svg+xml</dc:format><dc:type
           rdf:resource="http://purl.org/dc/dcmitype/StillImage" /><dc:title></dc:title></cc:Work></rdf:RDF></metadata><defs
     id="defs34" /><g
     transform="translate(-23.824586,0)"
     id="Layer_1"
     style="fill:#e97b04;fill-opacity:1"><g
       id="g10"
       style="fill:#e97b04;fill-opacity:1"><polygon
         points="432.921,86.539 451.475,76.296 432.612,68.958 384.13,86.539 "
         id="polygon12"
         style="fill:#e97b04;fill-opacity:1" /><polygon
         points="387.336,18.221 444.932,18.221 521.617,57.097 491.545,57.097 470.401,47.377 457.365,52.681 "
         id="polygon14"
         style="fill:#e97b04;fill-opacity:1" /><polygon
         points="494.302,18.458 475.749,28.693 494.603,36.031 543.091,18.458 "
         id="polygon16"
         style="fill:#e97b04;fill-opacity:1" /><polygon
         points="539.886,86.768 482.291,86.768 405.605,47.892 435.676,47.892 456.822,57.613 469.857,52.308 "
         id="polygon18"
         style="fill:#e97b04;fill-opacity:1" /><rect
         x="23.837"
         y="17.749001"
         width="38.174999"
         height="46.650002"
         id="rect20"
         style="fill:#e97b04;fill-opacity:1" /><rect
         x="23.837"
         y="70.110001"
         width="97.823997"
         height="14.281"
         id="rect22"
         style="fill:#e97b04;fill-opacity:1" /><polygon
         points="162.227,43.926 139.807,60.375 85.87,17.749 131.21,17.749 "
         id="polygon24"
         style="fill:#e97b04;fill-opacity:1" /><polygon
         points="248.125,17.749 214.718,17.749 145.526,62.967 143.136,62.967 143.136,84.392 178.927,84.392 178.927,62.967 "
         id="polygon26"
         style="fill:#e97b04;fill-opacity:1" /><polygon
         points="291.074,84.392 252.899,84.392 252.899,24.885 291.074,48.686 "
         id="polygon28"
         style="fill:#e97b04;fill-opacity:1" /><polygon
         points="358.361,17.742 358.361,64.613 288.69,17.749 257.667,17.749 355.498,84.392 376.972,84.392 376.972,17.742 "
         id="polygon30"
         style="fill:#e97b04;fill-opacity:1" /></g></g></svg>