<?xml version="1.0" encoding="UTF-8" standalone="no"?>
<!-- Generator: Adobe Illustrator 16.0.3, SVG Export Plug-In . SVG Version: 6.00 Build 0)  -->

<svg
   xmlns:dc="http://purl.org/dc/elements/1.1/"
   xmlns:cc="http://creativecommons.org/ns#"
   xmlns:rdf="http://www.w3.org/1999/02/22-rdf-syntax-ns#"
   xmlns:svg="http://www.w3.org/2000/svg"
   xmlns="http://www.w3.org/2000/svg"
   xmlns:sodipodi="http://sodipodi.sourceforge.net/DTD/sodipodi-0.dtd"
   xmlns:inkscape="http://www.inkscape.org/namespaces/inkscape"
   version="1.1"
   id="TEXT"
   x="0px"
   y="0px"
   width="566.929px"
   height="157.78px"
   viewBox="0 -0.001 566.929 157.78"
   enable-background="new 0 -0.001 566.929 157.78"
   xml:space="preserve"
   inkscape:version="0.91 r13725"
   sodipodi:docname="lr-rmame2010.svg"><metadata
     id="metadata8247"><rdf:RDF><cc:Work
         rdf:about=""><dc:format>image/svg+xml</dc:format><dc:type
           rdf:resource="http://purl.org/dc/dcmitype/StillImage" /><dc:title></dc:title></cc:Work></rdf:RDF></metadata><defs
     id="defs8245" /><sodipodi:namedview
     pagecolor="#ffffff"
     bordercolor="#666666"
     borderopacity="1"
     objecttolerance="10"
     gridtolerance="10"
     guidetolerance="10"
     inkscape:pageopacity="0"
     inkscape:pageshadow="2"
     inkscape:window-width="1680"
     inkscape:window-height="975"
     id="namedview8243"
     showgrid="false"
     inkscape:zoom="2"
     inkscape:cx="252.93376"
     inkscape:cy="74.696768"
     inkscape:window-x="-9"
     inkscape:window-y="-9"
     inkscape:window-maximized="1"
     inkscape:current-layer="layer3" /><linearGradient
     id="SVGID_1_"
     gradientUnits="userSpaceOnUse"
     x1="558.1284"
     y1="955.5977"
     x2="11.77"
     y2="955.5977"
     gradientTransform="translate(-0.1797,-875.4102)"><stop
       offset="0"
       style="stop-color:#013A67"
       id="stop7912" /><stop
       offset="1"
       style="stop-color:#6CD1FF"
       id="stop7914" /></linearGradient><linearGradient
     id="SVGID_2_"
     gradientUnits="userSpaceOnUse"
     x1="64.7095"
     y1="938.7891"
     x2="60.765"
     y2="934.8448"
     gradientTransform="translate(-0.1797,-875.4102)"><stop
       offset="0"
       style="stop-color:#08406F"
       id="stop7919" /><stop
       offset="1"
       style="stop-color:#60C5F5"
       id="stop7921" /></linearGradient><linearGradient
     id="SVGID_3_"
     gradientUnits="userSpaceOnUse"
     x1="123.2954"
     y1="1013.9102"
     x2="119.6701"
     y2="1010.2849"
     gradientTransform="translate(-0.1797,-875.4102)"><stop
       offset="0"
       style="stop-color:#08406F"
       id="stop7926" /><stop
       offset="1"
       style="stop-color:#60C5F5"
       id="stop7928" /></linearGradient><linearGradient
     id="SVGID_4_"
     gradientUnits="userSpaceOnUse"
     x1="25.7236"
     y1="994.0508"
     x2="25.7236"
     y2="989.7383"
     gradientTransform="translate(-0.1797,-875.4102)"><stop
       offset="0"
       style="stop-color:#08406F"
       id="stop7933" /><stop
       offset="1"
       style="stop-color:#60C5F5"
       id="stop7935" /></linearGradient><linearGradient
     id="SVGID_5_"
     gradientUnits="userSpaceOnUse"
     x1="121.1855"
     y1="1033.1816"
     x2="121.1855"
     y2="1028.7246"
     gradientTransform="translate(-0.1797,-875.4102)"><stop
       offset="0"
       style="stop-color:#08406F"
       id="stop7940" /><stop
       offset="1"
       style="stop-color:#60C5F5"
       id="stop7942" /></linearGradient><linearGradient
     id="SVGID_6_"
     gradientUnits="userSpaceOnUse"
     x1="427.6938"
     y1="994.0234"
     x2="427.6938"
     y2="989.5566"
     gradientTransform="translate(-0.1797,-875.4102)"><stop
       offset="0"
       style="stop-color:#08406F"
       id="stop7947" /><stop
       offset="1"
       style="stop-color:#60C5F5"
       id="stop7949" /></linearGradient><linearGradient
     id="SVGID_7_"
     gradientUnits="userSpaceOnUse"
     x1="251.0645"
     y1="994.8945"
     x2="251.0645"
     y2="990.416"
     gradientTransform="translate(-0.1797,-875.4102)"><stop
       offset="0"
       style="stop-color:#08406F"
       id="stop7954" /><stop
       offset="1"
       style="stop-color:#60C5F5"
       id="stop7956" /></linearGradient><linearGradient
     id="SVGID_8_"
     gradientUnits="userSpaceOnUse"
     x1="522.2808"
     y1="882.1875"
     x2="522.2808"
     y2="877.3242"
     gradientTransform="translate(-0.1797,-875.4102)"><stop
       offset="0"
       style="stop-color:#08406F"
       id="stop7961" /><stop
       offset="1"
       style="stop-color:#60C5F5"
       id="stop7963" /></linearGradient><linearGradient
     id="SVGID_9_"
     gradientUnits="userSpaceOnUse"
     x1="515.0132"
     y1="906.7148"
     x2="515.0132"
     y2="902.5049"
     gradientTransform="translate(-0.1797,-875.4102)"><stop
       offset="0"
       style="stop-color:#08406F"
       id="stop7968" /><stop
       offset="1"
       style="stop-color:#60C5F5"
       id="stop7970" /></linearGradient><linearGradient
     id="SVGID_10_"
     gradientUnits="userSpaceOnUse"
     x1="459.3696"
     y1="950.2305"
     x2="459.3696"
     y2="946.5117"
     gradientTransform="translate(-0.1797,-875.4102)"><stop
       offset="0"
       style="stop-color:#08406F"
       id="stop7975" /><stop
       offset="1"
       style="stop-color:#60C5F5"
       id="stop7977" /></linearGradient><linearGradient
     id="SVGID_11_"
     gradientUnits="userSpaceOnUse"
     x1="490.1606"
     y1="925.1113"
     x2="490.1606"
     y2="919.5566"
     gradientTransform="translate(-0.1797,-875.4102)"><stop
       offset="0"
       style="stop-color:#08406F"
       id="stop7982" /><stop
       offset="1"
       style="stop-color:#60C5F5"
       id="stop7984" /></linearGradient><linearGradient
     id="SVGID_12_"
     gradientUnits="userSpaceOnUse"
     x1="74.3892"
     y1="968.8252"
     x2="70.846"
     y2="965.282"
     gradientTransform="translate(-0.1797,-875.4102)"><stop
       offset="0"
       style="stop-color:#08406F"
       id="stop7989" /><stop
       offset="1"
       style="stop-color:#60C5F5"
       id="stop7991" /></linearGradient><linearGradient
     id="SVGID_13_"
     gradientUnits="userSpaceOnUse"
     x1="120.2554"
     y1="904.3691"
     x2="114.8892"
     y2="904.3691"
     gradientTransform="translate(-0.1797,-875.4102)"><stop
       offset="0"
       style="stop-color:#08406F"
       id="stop7996" /><stop
       offset="1"
       style="stop-color:#60C5F5"
       id="stop7998" /></linearGradient><linearGradient
     id="SVGID_14_"
     gradientUnits="userSpaceOnUse"
     x1="173.0811"
     y1="919.9609"
     x2="166.4209"
     y2="919.9609"
     gradientTransform="translate(-0.1797,-875.4102)"><stop
       offset="0"
       style="stop-color:#08406F"
       id="stop8003" /><stop
       offset="1"
       style="stop-color:#60C5F5"
       id="stop8005" /></linearGradient><linearGradient
     id="SVGID_15_"
     gradientUnits="userSpaceOnUse"
     x1="255.9883"
     y1="925.2158"
     x2="249.9951"
     y2="925.2158"
     gradientTransform="translate(-0.1797,-875.4102)"><stop
       offset="0"
       style="stop-color:#08406F"
       id="stop8010" /><stop
       offset="1"
       style="stop-color:#60C5F5"
       id="stop8012" /></linearGradient><linearGradient
     id="SVGID_16_"
     gradientUnits="userSpaceOnUse"
     x1="349.2769"
     y1="904.625"
     x2="343.5757"
     y2="904.625"
     gradientTransform="translate(-0.1797,-875.4102)"><stop
       offset="0"
       style="stop-color:#08406F"
       id="stop8017" /><stop
       offset="1"
       style="stop-color:#60C5F5"
       id="stop8019" /></linearGradient><linearGradient
     id="SVGID_17_"
     gradientUnits="userSpaceOnUse"
     x1="400.9604"
     y1="918.4463"
     x2="395.1636"
     y2="918.4463"
     gradientTransform="translate(-0.1797,-875.4102)"><stop
       offset="0"
       style="stop-color:#08406F"
       id="stop8024" /><stop
       offset="1"
       style="stop-color:#60C5F5"
       id="stop8026" /></linearGradient><linearGradient
     id="SVGID_18_"
     gradientUnits="userSpaceOnUse"
     x1="101.7651"
     y1="968.9385"
     x2="96.6543"
     y2="968.9385"
     gradientTransform="translate(-0.1797,-875.4102)"><stop
       offset="0"
       style="stop-color:#08406F"
       id="stop8031" /><stop
       offset="1"
       style="stop-color:#60C5F5"
       id="stop8033" /></linearGradient><linearGradient
     id="SVGID_19_"
     gradientUnits="userSpaceOnUse"
     x1="121.2485"
     y1="973.8379"
     x2="117.6964"
     y2="970.2858"
     gradientTransform="translate(-0.1797,-875.4102)"><stop
       offset="0"
       style="stop-color:#08406F"
       id="stop8038" /><stop
       offset="1"
       style="stop-color:#60C5F5"
       id="stop8040" /></linearGradient><linearGradient
     id="SVGID_20_"
     gradientUnits="userSpaceOnUse"
     x1="553.436"
     y1="892.5"
     x2="549.7673"
     y2="888.8311"
     gradientTransform="translate(-0.1797,-875.4102)"><stop
       offset="0"
       style="stop-color:#08406F"
       id="stop8045" /><stop
       offset="1"
       style="stop-color:#60C5F5"
       id="stop8047" /></linearGradient><linearGradient
     id="SVGID_21_"
     gradientUnits="userSpaceOnUse"
     x1="145.9941"
     y1="969.8789"
     x2="140.5957"
     y2="969.8789"
     gradientTransform="translate(-0.1797,-875.4102)"><stop
       offset="0"
       style="stop-color:#08406F"
       id="stop8052" /><stop
       offset="1"
       style="stop-color:#60C5F5"
       id="stop8054" /></linearGradient><linearGradient
     id="SVGID_22_"
     gradientUnits="userSpaceOnUse"
     x1="148.7769"
     y1="907.0098"
     x2="144.2891"
     y2="902.522"
     gradientTransform="translate(-0.1797,-875.4102)"><stop
       offset="0"
       style="stop-color:#08406F"
       id="stop8059" /><stop
       offset="1"
       style="stop-color:#60C5F5"
       id="stop8061" /></linearGradient><linearGradient
     id="SVGID_23_"
     gradientUnits="userSpaceOnUse"
     x1="215.8457"
     y1="922.3213"
     x2="211.688"
     y2="918.1636"
     gradientTransform="translate(-0.1797,-875.4102)"><stop
       offset="0"
       style="stop-color:#08406F"
       id="stop8066" /><stop
       offset="1"
       style="stop-color:#60C5F5"
       id="stop8068" /></linearGradient><linearGradient
     id="SVGID_24_"
     gradientUnits="userSpaceOnUse"
     x1="304.3159"
     y1="927.8105"
     x2="299.9317"
     y2="923.4263"
     gradientTransform="translate(-0.1797,-875.4102)"><stop
       offset="0"
       style="stop-color:#08406F"
       id="stop8073" /><stop
       offset="1"
       style="stop-color:#60C5F5"
       id="stop8075" /></linearGradient><linearGradient
     id="SVGID_25_"
     gradientUnits="userSpaceOnUse"
     x1="376.9712"
     y1="906.8613"
     x2="372.7633"
     y2="902.653"
     gradientTransform="translate(-0.1797,-875.4102)"><stop
       offset="0"
       style="stop-color:#08406F"
       id="stop8080" /><stop
       offset="1"
       style="stop-color:#60C5F5"
       id="stop8082" /></linearGradient><linearGradient
     id="SVGID_26_"
     gradientUnits="userSpaceOnUse"
     x1="488.7378"
     y1="935.2646"
     x2="485.2816"
     y2="931.8086"
     gradientTransform="translate(-0.1797,-875.4102)"><stop
       offset="0"
       style="stop-color:#08406F"
       id="stop8087" /><stop
       offset="1"
       style="stop-color:#60C5F5"
       id="stop8089" /></linearGradient><linearGradient
     id="SVGID_27_"
     gradientUnits="userSpaceOnUse"
     x1="499.8081"
     y1="979.377"
     x2="495.8485"
     y2="975.4175"
     gradientTransform="translate(-0.1797,-875.4102)"><stop
       offset="0"
       style="stop-color:#08406F"
       id="stop8094" /><stop
       offset="1"
       style="stop-color:#60C5F5"
       id="stop8096" /></linearGradient><linearGradient
     id="SVGID_28_"
     gradientUnits="userSpaceOnUse"
     x1="441.8374"
     y1="921.6133"
     x2="437.5547"
     y2="917.3306"
     gradientTransform="translate(-0.1797,-875.4102)"><stop
       offset="0"
       style="stop-color:#08406F"
       id="stop8101" /><stop
       offset="1"
       style="stop-color:#60C5F5"
       id="stop8103" /></linearGradient><linearGradient
     id="SVGID_29_"
     gradientUnits="userSpaceOnUse"
     x1="486.8589"
     y1="916.6494"
     x2="481.7448"
     y2="911.5353"
     gradientTransform="translate(-0.1797,-875.4102)"><stop
       offset="0"
       style="stop-color:#08406F"
       id="stop8108" /><stop
       offset="1"
       style="stop-color:#60C5F5"
       id="stop8110" /></linearGradient><linearGradient
     id="SVGID_30_"
     gradientUnits="userSpaceOnUse"
     x1="185.9771"
     y1="992.3301"
     x2="182.3352"
     y2="988.6882"
     gradientTransform="translate(-0.1797,-875.4102)"><stop
       offset="0"
       style="stop-color:#08406F"
       id="stop8115" /><stop
       offset="1"
       style="stop-color:#60C5F5"
       id="stop8117" /></linearGradient><linearGradient
     id="SVGID_31_"
     gradientUnits="userSpaceOnUse"
     x1="303.0278"
     y1="969.1396"
     x2="299.3873"
     y2="965.4991"
     gradientTransform="translate(-0.1797,-875.4102)"><stop
       offset="0"
       style="stop-color:#08406F"
       id="stop8122" /><stop
       offset="1"
       style="stop-color:#60C5F5"
       id="stop8124" /></linearGradient><linearGradient
     id="SVGID_32_"
     gradientUnits="userSpaceOnUse"
     x1="349.8892"
     y1="973.085"
     x2="346.3799"
     y2="969.5756"
     gradientTransform="translate(-0.1797,-875.4102)"><stop
       offset="0"
       style="stop-color:#08406F"
       id="stop8129" /><stop
       offset="1"
       style="stop-color:#60C5F5"
       id="stop8131" /></linearGradient><linearGradient
     id="SVGID_33_"
     gradientUnits="userSpaceOnUse"
     x1="370.8042"
     y1="993.6396"
     x2="366.3813"
     y2="989.2169"
     gradientTransform="translate(-0.1797,-875.4102)"><stop
       offset="0"
       style="stop-color:#08406F"
       id="stop8136" /><stop
       offset="1"
       style="stop-color:#60C5F5"
       id="stop8138" /></linearGradient><linearGradient
     id="SVGID_34_"
     gradientUnits="userSpaceOnUse"
     x1="229.457"
     y1="971.7686"
     x2="223.4189"
     y2="971.7686"
     gradientTransform="translate(-0.1797,-875.4102)"><stop
       offset="0"
       style="stop-color:#08406F"
       id="stop8143" /><stop
       offset="1"
       style="stop-color:#60C5F5"
       id="stop8145" /></linearGradient><linearGradient
     id="SVGID_35_"
     gradientUnits="userSpaceOnUse"
     x1="330.3042"
     y1="968.5186"
     x2="325.0923"
     y2="968.5186"
     gradientTransform="translate(-0.1797,-875.4102)"><stop
       offset="0"
       style="stop-color:#08406F"
       id="stop8150" /><stop
       offset="1"
       style="stop-color:#60C5F5"
       id="stop8152" /></linearGradient><linearGradient
     id="SVGID_36_"
     gradientUnits="userSpaceOnUse"
     x1="374.9702"
     y1="967.8066"
     x2="368.7251"
     y2="967.8066"
     gradientTransform="translate(-0.1797,-875.4102)"><stop
       offset="0"
       style="stop-color:#08406F"
       id="stop8157" /><stop
       offset="1"
       style="stop-color:#60C5F5"
       id="stop8159" /></linearGradient><linearGradient
     id="SVGID_37_"
     gradientUnits="userSpaceOnUse"
     x1="440.6372"
     y1="959.6748"
     x2="436.2191"
     y2="955.2568"
     gradientTransform="translate(-0.1797,-875.4102)"><stop
       offset="0"
       style="stop-color:#08406F"
       id="stop8164" /><stop
       offset="1"
       style="stop-color:#60C5F5"
       id="stop8166" /></linearGradient><linearGradient
     id="SVGID_38_"
     gradientUnits="userSpaceOnUse"
     x1="472.9204"
     y1="969.5098"
     x2="472.9204"
     y2="963.708"
     gradientTransform="translate(-0.1797,-875.4102)"><stop
       offset="0"
       style="stop-color:#08406F"
       id="stop8171" /><stop
       offset="1"
       style="stop-color:#60C5F5"
       id="stop8173" /></linearGradient><g
     inkscape:groupmode="layer"
     id="layer4"
     inkscape:label="Layer 2"><rect
       style="opacity:1;fill:#6bcffd;fill-opacity:1;stroke:none;stroke-width:0.90613544;stroke-linecap:round;stroke-linejoin:bevel;stroke-miterlimit:4;stroke-dasharray:none;stroke-opacity:1"
       id="rect9189-9"
       width="488.72177"
       height="22.86231"
       x="-0.025442831"
       y="127.83718"
       ry="11.431155" /></g><g
     inkscape:groupmode="layer"
     id="layer3"
     inkscape:label="Layer 1"><polygon
       style="fill:url(#SVGID_1_)"
       points="406.662,79.217 396.4,79.784 396.686,9.001 355.481,51.055 345.625,52.224 345.625,9.374 261.264,92.842 250.775,93.958 251.667,8.077 177.937,82.94 168.255,82.987 167.12,11.089 127.342,51.15 116.278,51.717 116.697,8.939 11.591,114.895 46.209,114.328 91.598,70.276 100.303,70.276 99.883,114.54 136.035,77.543 144.679,77.543 144.679,115.23 104.892,154.73 143.019,154.165 218.036,78.299 228.14,78.299 228.14,115.57 274.897,115.854 320.115,70.353 328.843,69.786 328.708,112.799 364.839,76.667 373.375,76.667 373.941,113.102 373.203,114.998 482.378,114.998 503.279,93.815 435.398,92.661 434.781,82.809 445.357,71.67 470.968,71.667 493.216,49.133 479.769,48.565 479.769,39.082 491.191,27.662 536.777,27.946 557.949,5.927 479.951,5.642 "
       id="polygon7916" /><path
       inkscape:connector-curvature="0"
       style="fill:url(#SVGID_2_)"
       d="M 114.692,13.213 13.577,114.328 2.106,118.641 c 0,0 -0.604,0.039 -0.271,-0.445 0,0 117.26,-117.292 117.472,-117.471 0.212,-0.181 0.467,-0.028 0.467,-0.028 l -5.082,12.516 z"
       id="path7923" /><path
       inkscape:connector-curvature="0"
       style="fill:url(#SVGID_3_)"
       d="m 145.814,115.797 -37.518,37.521 -11.065,4.457 c 0,0 -0.576,0.065 -0.236,-0.407 l 43.929,-43.749 4.89,2.178 z"
       id="path7930" /><polygon
       style="fill:url(#SVGID_4_)"
       points="48.982,118.641 2.106,118.641 13.603,114.328 46.209,114.328 "
       id="polygon7937" /><polygon
       style="fill:url(#SVGID_5_)"
       points="144.781,157.771 97.23,157.771 108.296,153.314 142.168,153.314 "
       id="polygon7944" /><polygon
       style="fill:url(#SVGID_6_)"
       points="484.787,118.613 370.242,118.584 374.052,114.148 481.529,114.146 "
       id="polygon7951" /><path
       inkscape:connector-curvature="0"
       style="fill:url(#SVGID_7_)"
       d="m 277.053,119.484 -51.527,-0.029 c -0.333,0.005 -0.81,-0.335 -0.81,-0.335 l 4.561,-4.115 45.054,0 2.722,4.479 z"
       id="path7958" /><path
       inkscape:connector-curvature="0"
       style="fill:url(#SVGID_8_)"
       d="m 477.382,1.913 88.652,0 c 0.785,0 0.785,0.313 0.785,0.313 l -10.572,4.55 -75.164,0 -3.701,-4.863 z"
       id="path7965" /><polygon
       style="fill:url(#SVGID_9_)"
       points="539.042,31.304 492.697,31.304 490.625,27.094 535.927,27.094 "
       id="polygon7972" /><polygon
       style="fill:url(#SVGID_10_)"
       points="473.589,74.82 448.91,74.82 444.791,71.102 470.402,71.1 "
       id="polygon7979" /><path
       inkscape:connector-curvature="0"
       style="fill:url(#SVGID_11_)"
       d="m 491.8,49.7 -13.58,0 -1.193,-5.548 25.467,0 c 0.346,-0.043 0.441,0.146 0.441,0.146 L 491.8,49.7 Z"
       id="path7986" /><path
       inkscape:connector-curvature="0"
       style="fill:url(#SVGID_12_)"
       d="M 96.872,70.634 48.982,118.643 46.209,114.33 92.81,67.965 c 2,-2.313 4.675,-1.731 4.675,-1.731 l -0.613,4.4 z"
       id="path7993" /><path
       inkscape:connector-curvature="0"
       style="fill:url(#SVGID_13_)"
       d="m 114.71,51.669 0,-38.476 5.063,-12.499 c 0,0 0.303,0.075 0.303,0.571 0,0.493 0,53.647 0,53.647 l -0.315,2.311 c 0,10e-4 -4.496,0.025 -5.051,-5.554 z"
       id="path8000" /><path
       inkscape:connector-curvature="0"
       style="fill:url(#SVGID_14_)"
       d="m 172.902,88.843 c 0,0 -6.539,1.95 -6.621,-5.625 -0.08,-7.313 -0.013,-69.291 -0.013,-69.291 l 5.214,-13.896 c 0,0 0.182,-0.027 0.182,0.725 l -0.017,81.793 1.255,6.294 z"
       id="path8007" /><path
       inkscape:connector-curvature="0"
       style="fill:url(#SVGID_15_)"
       d="m 255.809,98.91 c 0,0 -5.889,0.577 -5.96,-6.088 l -0.033,-80.063 4.651,-12.071 c 0,0 0.583,0.153 0.583,0.907 l -0.016,91.14 0.775,6.175 z"
       id="path8014" /><path
       inkscape:connector-curvature="0"
       style="fill:url(#SVGID_16_)"
       d="m 349.097,57.425 c 0,0 -4.868,0.452 -5.701,-4.563 l 0,-39.723 4.393,-12.147 c 0,0 0.563,0.134 0.563,0.886 l 0,49.667 0.745,5.88 z"
       id="path8021" /><path
       inkscape:connector-curvature="0"
       style="fill:url(#SVGID_17_)"
       d="m 400.781,85.333 c 0,0 -4.938,0.643 -5.797,-4.373 l 0,-67.706 4.85,-12.544 c 0,0 0.268,0.221 0.268,1.708 l 0,77.226 0.679,5.689 z"
       id="path8028" /><path
       inkscape:connector-curvature="0"
       style="fill:url(#SVGID_18_)"
       d="m 97.759,120.82 c 0,0 -0.833,-0.069 -0.809,-1.149 -0.001,-0.917 -0.078,-49.036 -0.078,-49.036 0,0 -1.218,-1.577 0.613,-4.4 0.547,0.131 3.495,0.727 4.101,4.256 l 0,40.37 -3.827,9.959 z"
       id="path8035" /><path
       inkscape:connector-curvature="0"
       style="fill:url(#SVGID_19_)"
       d="m 140.843,78.598 c 0,0 -41.489,41.548 -41.883,41.938 -0.346,0.379 -1.202,0.282 -1.202,0.282 l 3.827,-9.963 36.059,-36.088 c 0,0 1.34,-1.727 3.831,-1.637 l -0.632,5.468 z"
       id="path8042" /><path
       inkscape:connector-curvature="0"
       style="fill:url(#SVGID_20_)"
       d="M 566.609,3.639 539.043,31.304 535.928,27.093 556.24,6.769 566.822,2.227 c 0,0.001 0.349,0.847 -0.213,1.412 z"
       id="path8049" /><path
       inkscape:connector-curvature="0"
       style="fill:url(#SVGID_21_)"
       d="m 140.924,113.616 -0.079,-35.025 c 0,0 -1.301,-2.633 0.631,-5.456 0.593,-0.007 3.7,0.421 4.339,4.146 l -0.001,38.52 -4.89,-2.185 z"
       id="path8056" /><path
       inkscape:connector-curvature="0"
       style="fill:url(#SVGID_22_)"
       d="m 166.269,13.926 -41.462,41.463 c -1.987,1.986 -5.045,1.836 -5.045,1.836 -1.795,-3.531 0.315,-6.065 0.315,-6.065 0,0 50.503,-50.49 50.867,-50.87 0.331,-0.417 0.541,-0.264 0.541,-0.264 l -5.216,13.9 z"
       id="path8063" /><path
       inkscape:connector-curvature="0"
       style="fill:url(#SVGID_23_)"
       d="m 249.815,12.762 -74.376,74.375 c -1.55,1.551 -2.537,1.703 -2.537,1.703 -3.781,-1.878 -1.213,-6.255 -1.213,-6.255 0,0 80.652,-80.635 81.016,-81.015 0.943,-1.093 1.761,-0.883 1.761,-0.883 l -4.651,12.075 z"
       id="path8070" /><path
       inkscape:connector-curvature="0"
       style="fill:url(#SVGID_24_)"
       d="M 343.396,13.139 259.233,97.3 c -1.429,1.432 -3.424,1.608 -3.424,1.608 -3.115,-1.556 -0.776,-6.175 -0.776,-6.175 0,0 90.61,-90.5 90.974,-90.881 0.941,-1.098 1.781,-0.862 1.781,-0.862 l -4.392,12.149 z"
       id="path8077" /><path
       inkscape:connector-curvature="0"
       style="fill:url(#SVGID_25_)"
       d="m 394.984,13.254 -42.513,42.514 c -1.429,1.432 -3.374,1.657 -3.374,1.657 -2.932,-1.908 -0.588,-5.983 -0.588,-5.983 0,0 49.584,-49.69 49.947,-50.07 1.047,-1.033 1.377,-0.66 1.377,-0.66 l -4.849,12.542 z"
       id="path8084" /><path
       inkscape:connector-curvature="0"
       style="fill:url(#SVGID_26_)"
       d="M 502.958,45.453 473.589,74.82 470.401,71.098 491.8,49.7 502.935,44.299 c 0,0 0.414,0.294 0.023,1.154 z"
       id="path8091" /><path
       inkscape:connector-curvature="0"
       style="fill:url(#SVGID_27_)"
       d="m 513.634,89.96 -28.848,28.651 -3.258,-4.465 20.049,-20.049 12.289,-5.38 c 10e-4,0.003 0.397,0.435 -0.232,1.243 z"
       id="path8098" /><path
       inkscape:connector-curvature="0"
       style="fill:url(#SVGID_28_)"
       d="M 481.083,6.777 404.171,83.69 c -1.43,1.432 -3.395,1.644 -3.395,1.644 -2.449,-3.092 -0.686,-5.979 -0.686,-5.979 l 77.289,-77.44 3.704,4.862 z"
       id="path8105" /><path
       inkscape:connector-curvature="0"
       style="fill:url(#SVGID_29_)"
       d="M 492.697,31.304 480.021,44.09 c -2.771,2.282 -1.801,5.608 -1.801,5.608 -2.25,-0.21 -3.125,-2.065 -3.412,-3.695 -0.285,-1.63 0.303,-3.422 1.348,-4.467 l 14.469,-14.44 2.072,4.208 z"
       id="path8112" /><path
       inkscape:connector-curvature="0"
       style="fill:url(#SVGID_30_)"
       d="m 142.17,153.316 77.913,-77.943 c 0,0 1.437,-1.873 4.267,-1.771 l -0.456,5.223 c 0,0 -78.666,78.506 -79.113,78.948 l -2.611,-4.457 z"
       id="path8119" /><path
       inkscape:connector-curvature="0"
       style="fill:url(#SVGID_31_)"
       d="m 274.33,115.004 47.643,-47.659 c 0,0 1.437,-1.871 4.267,-1.771 l -0.857,5.621 -48.325,48.29 -2.728,-4.481 z"
       id="path8126" /><path
       inkscape:connector-curvature="0"
       style="fill:url(#SVGID_32_)"
       d="m 330.125,110.25 36.779,-36.789 c 0.842,-0.843 1.779,-1.771 3.396,-1.771 l -0.107,5.501 -43.081,43.043 c -0.569,0.563 -1.019,0.399 -1.019,0.399 l 4.032,-10.383 z"
       id="path8133" /><path
       inkscape:connector-curvature="0"
       style="fill:url(#SVGID_33_)"
       d="m 361.984,118.057 7.25,-7.281 5.557,2.326 -0.734,1.047 -3.813,4.437 -0.272,0.3 -7.72,0 c -0.34,0.014 -0.521,-0.271 -0.521,-0.271 0,0 -0.155,-0.147 0.253,-0.558 z"
       id="path8140" /><path
       inkscape:connector-curvature="0"
       style="fill:url(#SVGID_34_)"
       d="m 223.983,117.338 -0.09,-38.515 c 0,0 -1.738,-2.016 0.457,-5.223 0.673,-0.01 4.202,0.478 4.928,4.707 l -0.001,36.694 -4.561,4.115 c 0,0.003 -0.73,-0.475 -0.733,-1.778 z"
       id="path8147" /><path
       inkscape:connector-curvature="0"
       style="fill:url(#SVGID_35_)"
       d="m 325.449,119.945 -0.08,-48.75 c 0,0 -1.472,-2.681 0.871,-5.621 0.596,-0.009 3.243,0.472 3.885,4.702 l 0,39.975 -4.028,10.39 c -0.004,-0.002 -0.605,-0.143 -0.648,-0.696 z"
       id="path8154" /><path
       inkscape:connector-curvature="0"
       style="fill:url(#SVGID_36_)"
       d="m 369.234,110.775 0,-32.629 c 0,0 -2.113,-3.379 1.064,-6.456 0.693,-0.008 4.132,0.24 4.492,4.323 l 0,37.088 -5.556,-2.326 z"
       id="path8161" /><path
       inkscape:connector-curvature="0"
       style="fill:url(#SVGID_37_)"
       d="m 448.91,74.82 -13.451,13.479 -3.844,4.809 c -3.896,-2.458 -1.953,-6.874 -0.912,-7.925 l 14.088,-14.079 4.119,3.716 z"
       id="path8168" /><path
       inkscape:connector-curvature="0"
       style="fill:url(#SVGID_38_)"
       d="m 501.58,94.098 -66.391,0 c -2.502,-0.196 -3.574,-0.992 -3.574,-0.992 -0.012,-3.571 3.844,-4.809 3.844,-4.809 l 77.746,0.001 c 0.543,-0.001 0.662,0.422 0.662,0.422 l -12.287,5.378 z"
       id="path8175" /><g
       id="g5777"
       transform="matrix(0.00345932,0,0,0.00345932,14.683217,150.39378)"
       style="stroke:none;stroke-opacity:1"><g
         transform="translate(0,-5640)"
         id="g5771"
         style="stroke:none;stroke-opacity:1"><path
           style="fill:#c0392b;stroke:none;stroke-opacity:1"
           inkscape:connector-curvature="0"
           id="path6"
           d="m 1910,4378 c -123,-19 -263,-125 -316,-240 l -29,-63 0,-1425 0,-1425 205,0 205,0 3,1574 c 1,866 -1,1578 -5,1581 -5,4 -33,3 -63,-2 z" /><path
           style="fill:#c0392b;stroke:none;stroke-opacity:1"
           inkscape:connector-curvature="0"
           id="path8"
           d="M 47,4343 C 43,4340 40,3465 40,2400 40,766 42,461 54,451 c 9,-8 74,-11 212,-9 l 199,3 3,1742 2,1741 248,4 248,3 66,33 c 122,60 229,209 232,325 l 1,52 -606,3 c -333,1 -609,-1 -612,-5 z" /><path
           style="fill:#c0392b;stroke:none;stroke-opacity:1"
           inkscape:connector-curvature="0"
           id="path10"
           d="m 2367,4343 c -4,-3 -7,-878 -7,-1943 0,-1634 2,-1939 14,-1949 9,-8 74,-11 212,-9 l 199,3 3,387 2,388 234,0 c 207,0 239,2 291,20 113,39 216,141 256,255 18,53 19,94 19,1288 0,1381 5,1287 -74,1394 -51,71 -120,122 -199,152 -56,20 -73,21 -501,21 -243,0 -446,-3 -449,-7 z m 803,-1558 0,-1145 -190,0 -190,0 0,1145 0,1145 190,0 190,0 0,-1145 z" /><path
           style="fill:#c0392b;stroke:none;stroke-opacity:1"
           inkscape:connector-curvature="0"
           id="path162"
           d="m 1565,857 c -3,-7 -4,-102 -3,-212 l 3,-200 205,0 205,0 0,210 0,210 -203,3 c -159,2 -204,0 -207,-11 z" /></g><g
         style="fill:#231f20;stroke:none;stroke-opacity:1"
         transform="translate(0,-5640)"
         id="g172"><path
           inkscape:connector-curvature="0"
           id="path174"
           d="m 4015,4378 c -3,-7 -4,-890 -3,-1963 l 3,-1950 1670,0 1670,0 47,27 c 64,38 119,106 171,213 179,362 529,1114 539,1155 9,38 9,62 0,101 -11,47 -44,88 -402,505 -215,250 -393,460 -396,468 -3,8 177,335 401,727 223,392 402,716 397,721 -4,4 -282,7 -616,6 l -608,-3 -543,-900 C 5735,2477 5766,2537 5834,2462 l 34,-37 269,-5 c 234,-4 272,-7 303,-23 32,-17 413,-437 434,-477 6,-13 -19,-87 -89,-261 -53,-134 -107,-263 -120,-285 -45,-77 -11,-74 -754,-74 l -661,0 -2,1543 -3,1542 -613,3 c -485,2 -614,0 -617,-10 z"
           style="stroke:none;stroke-opacity:1" /><path
           inkscape:connector-curvature="0"
           id="path176"
           d="m 8344,4377 c -2,-7 -3,-609 -2,-1337 3,-1111 6,-1331 18,-1363 28,-77 608,-1123 640,-1154 17,-18 48,-38 68,-45 30,-10 367,-13 1712,-13 l 1675,0 0,415 0,415 -1265,5 -1265,5 -31,22 c -17,13 -39,38 -48,57 -28,59 -256,609 -256,618 0,4 552,9 1228,10 l 1227,3 0,410 0,410 -1232,3 -1233,2 0,355 0,355 1438,2 1437,3 0,415 0,415 -2053,3 c -1660,2 -2054,0 -2058,-11 z"
           style="stroke:none;stroke-opacity:1" /><path
           inkscape:connector-curvature="0"
           id="path178"
           d="m 13687,4383 c -4,-3 -7,-280 -7,-615 l 0,-608 -612,-2 -613,-3 0,-730 0,-730 612,-3 613,-2 2,-613 3,-612 730,0 730,0 3,612 2,613 608,2 607,3 0,730 0,730 -607,3 -608,2 -2,613 -3,612 -726,3 c -399,1 -729,-1 -732,-5 z m 943,-638 205,-205 -420,0 -420,0 205,205 c 113,113 209,205 215,205 6,0 102,-92 215,-205 z m -128,-906 c 173,-37 298,-169 328,-349 30,-178 -67,-368 -227,-442 -86,-41 -177,-54 -259,-39 -172,31 -297,144 -339,306 -80,310 185,590 497,524 z m -1202,-416 0,-418 -205,205 c -113,113 -205,209 -205,215 0,8 399,415 407,415 2,0 3,-188 3,-417 z m 2640,2 c 0,-6 -92,-102 -205,-215 l -205,-205 0,420 0,420 205,-205 c 113,-113 205,-209 205,-215 z M 14630,1105 c -113,-113 -209,-205 -215,-205 -6,0 -102,92 -215,205 l -205,205 420,0 420,0 -205,-205 z"
           style="stroke:none;stroke-opacity:1" /><path
           inkscape:connector-curvature="0"
           id="path180"
           d="m 16555,4378 c -3,-7 -4,-890 -3,-1963 l 3,-1950 1645,-3 c 1869,-2 1714,-9 1804,81 30,30 69,86 93,132 108,210 545,1144 555,1187 9,36 8,61 0,98 -11,46 -47,91 -408,511 -257,300 -394,467 -391,478 2,9 185,333 405,721 221,387 398,708 394,712 -5,5 -282,7 -617,6 l -608,-3 -543,-900 c -298,-495 -544,-909 -546,-920 -7,-35 10,-80 42,-110 l 31,-30 267,-5 c 211,-4 273,-8 297,-20 29,-15 445,-474 445,-491 0,-16 -202,-514 -221,-545 -40,-66 -17,-64 -748,-64 l -661,0 -2,1543 -3,1542 -613,3 c -485,2 -614,0 -617,-10 z"
           style="stroke:none;stroke-opacity:1" /><path
           inkscape:connector-curvature="0"
           id="path182"
           d="m 21410,4370 c -125,-33 -231,-93 -332,-188 -130,-124 -196,-239 -232,-402 -15,-68 -16,-197 -14,-1385 l 3,-1310 28,-80 c 74,-210 212,-368 402,-460 177,-85 64,-79 1455,-83 823,-2 1268,0 1333,8 197,21 339,89 478,230 66,67 96,107 132,178 93,180 87,66 87,1550 0,1465 5,1361 -75,1527 -24,50 -64,116 -89,147 -98,122 -263,230 -412,268 -75,19 -116,20 -1383,19 -1256,0 -1309,-1 -1381,-19 z m 1576,-795 c 485,-83 859,-450 950,-931 23,-122 21,-330 -4,-449 -96,-448 -421,-785 -865,-896 -121,-30 -334,-37 -467,-14 -774,129 -1193,960 -843,1671 158,323 467,551 833,618 102,19 289,19 396,1 z"
           style="stroke:none;stroke-opacity:1" /></g></g><g
       id="g6210"
       transform="translate(-60,0)"><path
         d="m 314.86384,144.19107 0,-9.76196 1.9873,0 0,8.10364 4.94141,0 0,1.65832 -6.92871,0 z"
         style="font-style:normal;font-variant:normal;font-weight:bold;font-stretch:normal;font-size:13.75px;line-height:125%;font-family:Arial;-inkscape-font-specification:'Arial Bold';letter-spacing:4.26000023px;word-spacing:0px;fill:#000000;fill-opacity:1;stroke:none;stroke-width:0.2;stroke-linecap:butt;stroke-linejoin:bevel;stroke-miterlimit:4;stroke-dasharray:none;stroke-opacity:1"
         id="path9103"
         inkscape:connector-curvature="0" /><path
         d="m 327.41547,144.19107 0,-9.84253 1.9873,0 0,9.84253 -1.9873,0 z"
         style="font-style:normal;font-variant:normal;font-weight:bold;font-stretch:normal;font-size:13.75px;line-height:125%;font-family:Arial;-inkscape-font-specification:'Arial Bold';letter-spacing:4.26000023px;word-spacing:0px;fill:#000000;fill-opacity:1;stroke:none;stroke-width:0.2;stroke-linecap:butt;stroke-linejoin:bevel;stroke-miterlimit:4;stroke-dasharray:none;stroke-opacity:1"
         id="path9105"
         inkscape:connector-curvature="0" /><path
         d="m 335.55608,134.34854 3.93433,0 q 1.16821,0 1.73889,0.10071 0.57739,0.094 1.02722,0.40283 0.45654,0.30884 0.75867,0.82581 0.30212,0.51025 0.30212,1.14807 0,0.69153 -0.37598,1.26892 -0.36926,0.57739 -1.00708,0.86609 0.89966,0.26184 1.38306,0.89294 0.4834,0.63111 0.4834,1.48377 0,0.67138 -0.31555,1.3092 -0.30884,0.6311 -0.85266,1.0138 -0.53711,0.37597 -1.32935,0.46325 -0.49683,0.0537 -2.39685,0.0671 l -3.35022,0 0,-9.84253 z m 1.98731,1.63818 0,2.27601 1.30249,0 q 1.16149,0 1.44348,-0.0336 0.51025,-0.0604 0.79895,-0.34912 0.29541,-0.29541 0.29541,-0.7721 0,-0.45654 -0.25513,-0.73852 -0.24841,-0.2887 -0.74524,-0.34913 -0.29541,-0.0336 -1.69861,-0.0336 l -1.14135,0 z m 0,3.91419 0,2.63184 1.83959,0 q 1.07422,0 1.36292,-0.0604 0.44312,-0.0806 0.71838,-0.3894 0.28199,-0.31556 0.28199,-0.83924 0,-0.44311 -0.21485,-0.75195 -0.21484,-0.30884 -0.62439,-0.44983 -0.40283,-0.14099 -1.75903,-0.14099 l -1.60461,0 z"
         style="font-style:normal;font-variant:normal;font-weight:bold;font-stretch:normal;font-size:13.75px;line-height:125%;font-family:Arial;-inkscape-font-specification:'Arial Bold';letter-spacing:4.26000023px;word-spacing:0px;fill:#000000;fill-opacity:1;stroke:none;stroke-width:0.2;stroke-linecap:butt;stroke-linejoin:bevel;stroke-miterlimit:4;stroke-dasharray:none;stroke-opacity:1"
         id="path9107"
         inkscape:connector-curvature="0" /><path
         d="m 349.7526,144.19107 0,-9.84253 4.18274,0 q 1.57776,0 2.28943,0.26856 0.71838,0.26184 1.14807,0.93994 0.42969,0.6781 0.42969,1.5509 0,1.10779 -0.65125,1.83289 -0.65124,0.71838 -1.94702,0.90637 0.64453,0.37598 1.06079,0.8258 0.42298,0.44983 1.13465,1.5979 l 1.20178,1.92017 -2.37671,0 -1.43677,-2.14172 q -0.76538,-1.14807 -1.04736,-1.44348 -0.28198,-0.30213 -0.59753,-0.40955 -0.31556,-0.11414 -1.00037,-0.11414 l -0.40283,0 0,4.10889 -1.98731,0 z m 1.98731,-5.67993 1.47033,0 q 1.43006,0 1.78589,-0.12085 0.35584,-0.12085 0.55725,-0.41626 0.20142,-0.29541 0.20142,-0.73853 0,-0.49682 -0.26855,-0.79895 -0.26185,-0.30883 -0.74524,-0.3894 -0.2417,-0.0336 -1.4502,-0.0336 l -1.5509,0 0,2.49756 z"
         style="font-style:normal;font-variant:normal;font-weight:bold;font-stretch:normal;font-size:13.75px;line-height:125%;font-family:Arial;-inkscape-font-specification:'Arial Bold';letter-spacing:4.26000023px;word-spacing:0px;fill:#000000;fill-opacity:1;stroke:none;stroke-width:0.2;stroke-linecap:butt;stroke-linejoin:bevel;stroke-miterlimit:4;stroke-dasharray:none;stroke-opacity:1"
         id="path9109"
         inkscape:connector-curvature="0" /><path
         d="m 363.94241,144.19107 0,-9.84253 7.29798,0 0,1.66504 -5.31067,0 0,2.18201 4.94141,0 0,1.65832 -4.94141,0 0,2.67884 5.49866,0 0,1.65832 -7.48597,0 z"
         style="font-style:normal;font-variant:normal;font-weight:bold;font-stretch:normal;font-size:13.75px;line-height:125%;font-family:Arial;-inkscape-font-specification:'Arial Bold';letter-spacing:4.26000023px;word-spacing:0px;fill:#000000;fill-opacity:1;stroke:none;stroke-width:0.2;stroke-linecap:butt;stroke-linejoin:bevel;stroke-miterlimit:4;stroke-dasharray:none;stroke-opacity:1"
         id="path9111"
         inkscape:connector-curvature="0" /><path
         d="m 379.60256,144.19107 0,-8.17749 -2.92053,0 0,-1.66504 7.82166,0 0,1.66504 -2.91382,0 0,8.17749 -1.98731,0 z"
         style="font-style:normal;font-variant:normal;font-weight:bold;font-stretch:normal;font-size:13.75px;line-height:125%;font-family:Arial;-inkscape-font-specification:'Arial Bold';letter-spacing:4.26000023px;word-spacing:0px;fill:#000000;fill-opacity:1;stroke:none;stroke-width:0.2;stroke-linecap:butt;stroke-linejoin:bevel;stroke-miterlimit:4;stroke-dasharray:none;stroke-opacity:1"
         id="path9113"
         inkscape:connector-curvature="0" /><path
         d="m 390.0326,144.19107 0,-9.84253 4.18274,0 q 1.57776,0 2.28943,0.26856 0.71838,0.26184 1.14807,0.93994 0.42969,0.6781 0.42969,1.5509 0,1.10779 -0.65125,1.83289 -0.65124,0.71838 -1.94702,0.90637 0.64453,0.37598 1.06079,0.8258 0.42298,0.44983 1.13465,1.5979 l 1.20178,1.92017 -2.37671,0 -1.43677,-2.14172 q -0.76538,-1.14807 -1.04736,-1.44348 -0.28198,-0.30213 -0.59754,-0.40955 -0.31555,-0.11414 -1.00036,-0.11414 l -0.40283,0 0,4.10889 -1.98731,0 z m 1.98731,-5.67993 1.47033,0 q 1.43006,0 1.78589,-0.12085 0.35584,-0.12085 0.55725,-0.41626 0.20142,-0.29541 0.20142,-0.73853 0,-0.49682 -0.26856,-0.79895 -0.26184,-0.30883 -0.74524,-0.3894 -0.24169,-0.0336 -1.45019,-0.0336 l -1.5509,0 0,2.49756 z"
         style="font-style:normal;font-variant:normal;font-weight:bold;font-stretch:normal;font-size:13.75px;line-height:125%;font-family:Arial;-inkscape-font-specification:'Arial Bold';letter-spacing:4.26000023px;word-spacing:0px;fill:#000000;fill-opacity:1;stroke:none;stroke-width:0.2;stroke-linecap:butt;stroke-linejoin:bevel;stroke-miterlimit:4;stroke-dasharray:none;stroke-opacity:1"
         id="path9115"
         inkscape:connector-curvature="0" /><path
         d="m 403.81958,139.33023 q 0,-1.50391 0.44983,-2.52441 0.33569,-0.75196 0.91309,-1.34949 0.5841,-0.59753 1.27563,-0.88623 0.9198,-0.38941 2.12158,-0.38941 2.1753,0 3.47779,1.34949 1.3092,1.34949 1.3092,3.75305 0,2.38343 -1.29578,3.73291 -1.29577,1.34278 -3.46435,1.34278 -2.19544,0 -3.49121,-1.33606 -1.29578,-1.34278 -1.29578,-3.69263 z m 2.04773,-0.0671 q 0,1.67175 0.7721,2.53784 0.77209,0.85938 1.96044,0.85938 1.18836,0 1.94703,-0.85266 0.76538,-0.85938 0.76538,-2.57141 0,-1.6919 -0.74524,-2.52442 -0.73853,-0.83252 -1.96717,-0.83252 -1.22863,0 -1.98059,0.84595 -0.75195,0.83923 -0.75195,2.53784 z"
         style="font-style:normal;font-variant:normal;font-weight:bold;font-stretch:normal;font-size:13.75px;line-height:125%;font-family:Arial;-inkscape-font-specification:'Arial Bold';letter-spacing:4.26000023px;word-spacing:0px;fill:#000000;fill-opacity:1;stroke:none;stroke-width:0.2;stroke-linecap:butt;stroke-linejoin:bevel;stroke-miterlimit:4;stroke-dasharray:none;stroke-opacity:1"
         id="path9117"
         inkscape:connector-curvature="0" /><path
         d="m 431.54198,140.5723 1.92688,0.61096 q -0.44312,1.61133 -1.47705,2.39685 -1.02722,0.77881 -2.6117,0.77881 -1.96045,0 -3.22265,-1.33606 -1.26221,-1.34278 -1.26221,-3.66577 0,-2.45728 1.26892,-3.81348 1.26892,-1.36292 3.33679,-1.36292 1.80603,0 2.93396,1.06751 0.67139,0.6311 1.00708,1.81274 l -1.96716,0.46997 q -0.17456,-0.76538 -0.73181,-1.20849 -0.55054,-0.44312 -1.34278,-0.44312 -1.09436,0 -1.77917,0.78553 -0.6781,0.78552 -0.6781,2.54455 0,1.86646 0.67139,2.65869 0.67138,0.79224 1.7456,0.79224 0.79224,0 1.36292,-0.50354 0.57067,-0.50354 0.81909,-1.58447 z"
         style="font-style:normal;font-variant:normal;font-weight:bold;font-stretch:normal;font-size:13.75px;line-height:125%;font-family:Arial;-inkscape-font-specification:'Arial Bold';letter-spacing:4.26000023px;word-spacing:0px;fill:#000000;fill-opacity:1;stroke:none;stroke-width:0.2;stroke-linecap:butt;stroke-linejoin:bevel;stroke-miterlimit:4;stroke-dasharray:none;stroke-opacity:1"
         id="path9119"
         inkscape:connector-curvature="0" /><path
         d="m 439.03806,139.33023 q 0,-1.50391 0.44983,-2.52441 0.3357,-0.75196 0.91309,-1.34949 0.58411,-0.59753 1.27563,-0.88623 0.9198,-0.38941 2.12159,-0.38941 2.17529,0 3.47778,1.34949 1.3092,1.34949 1.3092,3.75305 0,2.38343 -1.29577,3.73291 -1.29578,1.34278 -3.46436,1.34278 -2.19543,0 -3.49121,-1.33606 -1.29578,-1.34278 -1.29578,-3.69263 z m 2.04773,-0.0671 q 0,1.67175 0.7721,2.53784 0.77209,0.85938 1.96045,0.85938 1.18835,0 1.94702,-0.85266 0.76538,-0.85938 0.76538,-2.57141 0,-1.6919 -0.74524,-2.52442 -0.73853,-0.83252 -1.96716,-0.83252 -1.22864,0 -1.98059,0.84595 -0.75196,0.83923 -0.75196,2.53784 z"
         style="font-style:normal;font-variant:normal;font-weight:bold;font-stretch:normal;font-size:13.75px;line-height:125%;font-family:Arial;-inkscape-font-specification:'Arial Bold';letter-spacing:4.26000023px;word-spacing:0px;fill:#000000;fill-opacity:1;stroke:none;stroke-width:0.2;stroke-linecap:butt;stroke-linejoin:bevel;stroke-miterlimit:4;stroke-dasharray:none;stroke-opacity:1"
         id="path9121"
         inkscape:connector-curvature="0" /><path
         d="m 454.39608,144.19107 0,-9.84253 4.18274,0 q 1.57776,0 2.28943,0.26856 0.71838,0.26184 1.14807,0.93994 0.42969,0.6781 0.42969,1.5509 0,1.10779 -0.65125,1.83289 -0.65124,0.71838 -1.94702,0.90637 0.64453,0.37598 1.06079,0.8258 0.42298,0.44983 1.13465,1.5979 l 1.20178,1.92017 -2.37671,0 -1.43677,-2.14172 q -0.76538,-1.14807 -1.04736,-1.44348 -0.28198,-0.30213 -0.59754,-0.40955 -0.31555,-0.11414 -1.00036,-0.11414 l -0.40283,0 0,4.10889 -1.98731,0 z m 1.98731,-5.67993 1.47033,0 q 1.43006,0 1.78589,-0.12085 0.35584,-0.12085 0.55725,-0.41626 0.20142,-0.29541 0.20142,-0.73853 0,-0.49682 -0.26856,-0.79895 -0.26184,-0.30883 -0.74524,-0.3894 -0.2417,-0.0336 -1.45019,-0.0336 l -1.5509,0 0,2.49756 z"
         style="font-style:normal;font-variant:normal;font-weight:bold;font-stretch:normal;font-size:13.75px;line-height:125%;font-family:Arial;-inkscape-font-specification:'Arial Bold';letter-spacing:4.26000023px;word-spacing:0px;fill:#000000;fill-opacity:1;stroke:none;stroke-width:0.2;stroke-linecap:butt;stroke-linejoin:bevel;stroke-miterlimit:4;stroke-dasharray:none;stroke-opacity:1"
         id="path9123"
         inkscape:connector-curvature="0" /><path
         d="m 468.58588,144.19107 0,-9.84253 7.29798,0 0,1.66504 -5.31067,0 0,2.18201 4.94141,0 0,1.65832 -4.94141,0 0,2.67884 5.49866,0 0,1.65832 -7.48597,0 z"
         style="font-style:normal;font-variant:normal;font-weight:bold;font-stretch:normal;font-size:13.75px;line-height:125%;font-family:Arial;-inkscape-font-specification:'Arial Bold';letter-spacing:4.26000023px;word-spacing:0px;fill:#000000;fill-opacity:1;stroke:none;stroke-width:0.2;stroke-linecap:butt;stroke-linejoin:bevel;stroke-miterlimit:4;stroke-dasharray:none;stroke-opacity:1"
         id="path9125"
         inkscape:connector-curvature="0" /></g><g
       style="font-style:normal;font-variant:normal;font-weight:normal;font-stretch:normal;font-size:40px;line-height:125%;font-family:arial;-inkscape-font-specification:arial;letter-spacing:4.26000023px;word-spacing:0px;fill:#000000;fill-opacity:1;stroke:none;stroke-width:1px;stroke-linecap:butt;stroke-linejoin:miter;stroke-opacity:1"
       id="text6233"><path
         d="m 440.21579,142.33797 0,1.75232 -6.61316,0 q 0.10742,-0.99366 0.64453,-1.87989 0.53711,-0.89294 2.12158,-2.36328 1.27564,-1.18835 1.56433,-1.61133 0.38941,-0.5841 0.38941,-1.15478 0,-0.6311 -0.34241,-0.9668 -0.33569,-0.34241 -0.93323,-0.34241 -0.59082,0 -0.93994,0.35584 -0.34912,0.35583 -0.40283,1.18164 l -1.87988,-0.18799 q 0.16784,-1.55762 1.05408,-2.23572 0.88623,-0.6781 2.21557,-0.6781 1.45691,0 2.28943,0.78553 0.83252,0.78552 0.83252,1.95373 0,0.66467 -0.2417,1.26892 -0.23498,0.59754 -0.75195,1.2555 -0.34241,0.4364 -1.23535,1.25549 -0.89295,0.81909 -1.13465,1.08765 -0.23498,0.26855 -0.38269,0.52368 l 3.74634,0 z"
         style="font-style:normal;font-variant:normal;font-weight:bold;font-stretch:normal;font-size:13.75px;font-family:arial;-inkscape-font-specification:'arial Bold'"
         id="path6240" /><path
         d="m 448.94723,134.20747 q 1.43005,0 2.23571,1.02051 0.96009,1.2085 0.96009,4.00818 0,2.79297 -0.9668,4.01489 -0.79895,1.00708 -2.229,1.00708 -1.43677,0 -2.31629,-1.10107 -0.87952,-1.10779 -0.87952,-3.94104 0,-2.77954 0.9668,-4.00147 0.79895,-1.00708 2.22901,-1.00708 z m 0,1.56433 q -0.34241,0 -0.61097,0.22156 -0.26855,0.21485 -0.41626,0.77881 -0.1947,0.73181 -0.1947,2.46399 0,1.73218 0.17456,2.38342 0.17456,0.64453 0.4364,0.85938 0.26856,0.21484 0.61097,0.21484 0.3424,0 0.61096,-0.21484 0.26855,-0.22156 0.41626,-0.78552 0.1947,-0.7251 0.1947,-2.45728 0,-1.73218 -0.17456,-2.37671 -0.17456,-0.65124 -0.44312,-0.86609 -0.26184,-0.22156 -0.60424,-0.22156 z"
         style="font-style:normal;font-variant:normal;font-weight:bold;font-stretch:normal;font-size:13.75px;font-family:arial;-inkscape-font-specification:'arial Bold'"
         id="path6242" /><path
         d="m 462.49922,144.09029 -1.8866,0 0,-7.10999 q -1.03393,0.9668 -2.43713,1.43005 l 0,-1.71203 q 0.73852,-0.2417 1.60461,-0.91309 0.86609,-0.6781 1.18836,-1.57776 l 1.53076,0 0,9.88282 z"
         style="font-style:normal;font-variant:normal;font-weight:bold;font-stretch:normal;font-size:13.75px;font-family:arial;-inkscape-font-specification:'arial Bold'"
         id="path6244" /><path
         d="m 472.77484,134.20747 q 1.43006,0 2.23572,1.02051 0.96008,1.2085 0.96008,4.00818 0,2.79297 -0.96679,4.01489 -0.79895,1.00708 -2.22901,1.00708 -1.43677,0 -2.31628,-1.10107 -0.87952,-1.10779 -0.87952,-3.94104 0,-2.77954 0.9668,-4.00147 0.79895,-1.00708 2.229,-1.00708 z m 0,1.56433 q -0.34241,0 -0.61096,0.22156 -0.26856,0.21485 -0.41626,0.77881 -0.1947,0.73181 -0.1947,2.46399 0,1.73218 0.17456,2.38342 0.17456,0.64453 0.4364,0.85938 0.26855,0.21484 0.61096,0.21484 0.34241,0 0.61096,-0.21484 0.26856,-0.22156 0.41626,-0.78552 0.19471,-0.7251 0.19471,-2.45728 0,-1.73218 -0.17457,-2.37671 -0.17456,-0.65124 -0.44311,-0.86609 -0.26184,-0.22156 -0.60425,-0.22156 z"
         style="font-style:normal;font-variant:normal;font-weight:bold;font-stretch:normal;font-size:13.75px;font-family:arial;-inkscape-font-specification:'arial Bold'"
         id="path6246" /></g></g></svg>