<?xml version="1.0" encoding="UTF-8" standalone="no"?>
<!-- Created with Inkscape (http://www.inkscape.org/) -->

<svg
   xmlns:dc="http://purl.org/dc/elements/1.1/"
   xmlns:cc="http://creativecommons.org/ns#"
   xmlns:rdf="http://www.w3.org/1999/02/22-rdf-syntax-ns#"
   xmlns:svg="http://www.w3.org/2000/svg"
   xmlns="http://www.w3.org/2000/svg"
   xmlns:xlink="http://www.w3.org/1999/xlink"
   xmlns:sodipodi="http://sodipodi.sourceforge.net/DTD/sodipodi-0.dtd"
   xmlns:inkscape="http://www.inkscape.org/namespaces/inkscape"
   version="1.0"
   width="773.65137"
   height="225.9211"
   id="svg2"
   inkscape:version="0.91 r13725"
   sodipodi:docname="logo.svg">
  <metadata
     id="metadata4190">
    <rdf:RDF>
      <cc:Work
         rdf:about="">
        <dc:format>image/svg+xml</dc:format>
        <dc:type
           rdf:resource="http://purl.org/dc/dcmitype/StillImage" />
        <dc:title />
      </cc:Work>
    </rdf:RDF>
  </metadata>
  <sodipodi:namedview
     pagecolor="#ffffff"
     bordercolor="#666666"
     borderopacity="1"
     objecttolerance="10"
     gridtolerance="10"
     guidetolerance="10"
     inkscape:pageopacity="0"
     inkscape:pageshadow="2"
     inkscape:window-width="1821"
     inkscape:window-height="1051"
     id="namedview4188"
     showgrid="false"
     fit-margin-top="0"
     fit-margin-left="0"
     fit-margin-right="0"
     fit-margin-bottom="0"
     inkscape:zoom="1.198546"
     inkscape:cx="350.97827"
     inkscape:cy="100.17327"
     inkscape:window-x="90"
     inkscape:window-y="-9"
     inkscape:window-maximized="1"
     inkscape:current-layer="svg2" />
  <defs
     id="defs4">
    <linearGradient
       id="linearGradient4034">
      <stop
         id="stop4036"
         style="stop-color:#646464;stop-opacity:1"
         offset="0" />
      <stop
         id="stop4038"
         style="stop-color:#000000;stop-opacity:0"
         offset="1" />
    </linearGradient>
    <linearGradient
       id="linearGradient4022">
      <stop
         id="stop4024"
         style="stop-color:#646464;stop-opacity:1"
         offset="0" />
      <stop
         id="stop4030"
         style="stop-color:#c8c8c8;stop-opacity:1"
         offset="0.29303831" />
      <stop
         id="stop4032"
         style="stop-color:#646464;stop-opacity:1"
         offset="0.9733811" />
      <stop
         id="stop4026"
         style="stop-color:#c8c8c8;stop-opacity:1"
         offset="1" />
    </linearGradient>
    <radialGradient
       cx="317.61594"
       cy="303.7291"
       r="379.17358"
       fx="317.61594"
       fy="303.7291"
       id="radialGradient4040"
       xlink:href="#linearGradient4034"
       gradientUnits="userSpaceOnUse"
       gradientTransform="matrix(0.7171779,0.1265971,-0.02397681,0.1358296,97.111293,222.26447)"
       spreadMethod="reflect" />
    <radialGradient
       cx="317.61594"
       cy="303.7291"
       r="379.17358"
       fx="317.61594"
       fy="303.7291"
       id="radialGradient4122"
       xlink:href="#linearGradient4034"
       gradientUnits="userSpaceOnUse"
       gradientTransform="matrix(0.7171779,0.1265971,-0.02397681,0.1358296,97.111293,222.26447)"
       spreadMethod="reflect" />
    <radialGradient
       cx="317.61594"
       cy="303.7291"
       r="379.17358"
       fx="317.61594"
       fy="303.7291"
       id="radialGradient4124"
       xlink:href="#linearGradient4034"
       gradientUnits="userSpaceOnUse"
       gradientTransform="matrix(0.7171779,0.1265971,-0.02397681,0.1358296,97.111293,222.26447)"
       spreadMethod="reflect" />
    <radialGradient
       cx="280.59381"
       cy="-542.66449"
       r="372.10938"
       fx="280.59381"
       fy="-542.66449"
       id="radialGradient4126"
       xlink:href="#linearGradient4022"
       gradientUnits="userSpaceOnUse"
       gradientTransform="matrix(0.79708855,0,0,0.22461703,217.69549,92.842712)"
       spreadMethod="reflect" />
  </defs>
  <g
     id="layer1"
     style="display:inline"
     transform="translate(-9.2058137,-16.281935)" />
  <g
     id="layer5"
     style="display:inline"
     transform="translate(-9.2058137,-16.281935)" />
  <g
     id="g4232">
    <g
       style="display:inline;fill:url(#radialGradient4124);fill-opacity:1"
       id="g3994"
       transform="matrix(0.79708855,0,0,0.81935781,218.2484,-129.88427)">
      <path
         inkscape:connector-curvature="0"
         style="font-style:normal;font-variant:normal;font-weight:normal;font-stretch:normal;font-size:144px;line-height:100%;font-family:'Motter Tektura Cyrilic';-inkscape-font-specification:'Motter Tektura Cyrilic';text-align:start;writing-mode:lr-tb;text-anchor:start;fill:url(#radialGradient4122);fill-opacity:1;stroke:none;stroke-width:1px;stroke-linecap:butt;stroke-linejoin:miter;stroke-opacity:1"
         id="flowRoot3883"
         d="m -4.4192208,250.15061 74.3301068,0 0,107.15698 -40.127527,0 0,-75.89712 -22.1660712,0 c -7.26240187,8e-5 -13.281622,2.05562 -18.0576798,6.16664 -4.776162,4.11117 -7.164217,9.40859 -7.164171,15.89228 -4.6e-5,6.36722 2.452157,11.72205 7.356616,16.06455 4.9043528,4.34256 10.98577712,6.51382 18.2442915,6.51378 l 12.6138415,0 0,31.25987 -24.6503508,0 c -15.1584242,0 -28.5342532,-5.55712 -40.1275272,-16.6714 -11.593311,-11.11423 -17.389958,-23.61975 -17.389955,-37.5166 -3e-6,-14.0098 5.509922,-26.34043 16.529789,-36.9919 11.019829,-10.65129 24.556028,-15.97697 40.6086372,-15.97708 l 0,0 z m 86.8039888,138.41685 0,-138.41685 75.677212,0 c 15.41099,1.1e-4 28.62645,5.29753 39.64642,15.89228 11.01972,10.59493 16.52965,23.475 16.52979,38.64022 -1.4e-4,14.70599 -5.54116,27.15322 -16.6231,37.34171 -11.08216,10.18852 -24.52312,15.28277 -40.32288,15.28277 l -25.60091,0 0,-31.25987 11.46501,0 c 7.64326,4e-5 14.07653,-1.96805 19.29981,-5.90427 5.22312,-3.93616 7.83473,-9.0313 7.83482,-15.28543 -9e-5,-6.02083 -2.48437,-11.34741 -7.45285,-15.97974 -5.34964,-4.97847 -11.91022,-7.46773 -19.68178,-7.46781 l -20.63818,0 0,107.15699 -40.133362,0 z m 139.959402,0 0,-138.41685 75.67721,0 c 15.41099,1.1e-4 28.62645,5.29753 39.64642,15.89228 11.01973,10.59493 16.52966,23.475 16.52979,38.64022 -1.3e-4,14.70599 -5.54115,27.15322 -16.62309,37.34171 -11.08217,10.18852 -24.52313,15.28277 -40.32288,15.28277 l -25.60092,0 0,-31.25987 11.46501,0 c 7.64326,4e-5 14.07654,-1.96805 19.29982,-5.90427 5.22312,-3.93616 7.83472,-9.0313 7.83482,-15.28543 -1e-4,-6.02083 -2.48437,-11.34741 -7.45285,-15.97974 -5.34964,-4.97847 -11.91023,-7.46773 -19.68179,-7.46781 l -20.63817,0 0,107.15699 -40.13337,0 z m 139.9594,-169.67672 40.13337,0 0,138.41685 -40.13337,0 0,-138.41685 z m 182.80448,107.15698 0,31.25987 -67.83949,0 c -18.0898,0 -33.44061,-4.74709 -46.05247,-14.24131 -13.5022,-10.19025 -20.25329,-23.44751 -20.25329,-39.77179 0,-13.8932 6.62473,-26.22382 19.87423,-36.9919 13.24945,-10.76789 28.79077,-16.15187 46.62398,-16.15198 l 67.64704,0 0,31.25986 -26.74973,35.60592 -45.48098,0 28.27763,-35.60592 -20.63235,0 c -7.64728,8e-5 -13.82688,2.02647 -18.5388,6.07919 -4.712,4.05286 -7.06798,9.20629 -7.06794,15.46033 -4e-5,6.59687 2.48424,12.09571 7.45283,16.4965 4.96851,4.40086 11.0198,6.60127 18.15391,6.60123 l 64.58543,0 z m 49.98042,-81.30207 -22.83793,0 0,-25.8549 58.62653,0 0,138.47145 -58.62653,0 0,-25.85491 22.83793,0 0,-86.76164 z m 78.86311,0 22.83793,0 0,-25.8549 -58.62653,0 0,44.54229 0,93.92916 58.62653,0 0,-25.85491 -22.83793,0 0,-86.76164 z" />
    </g>
    <path
       inkscape:connector-curvature="0"
       style="font-style:normal;font-variant:normal;font-weight:normal;font-stretch:normal;font-size:144px;line-height:100%;font-family:'Motter Tektura Cyrilic';-inkscape-font-specification:'Motter Tektura Cyrilic';text-align:start;writing-mode:lr-tb;text-anchor:start;display:inline;fill:#000000;fill-opacity:1;stroke:none;stroke-width:1px;stroke-linecap:butt;stroke-linejoin:miter;stroke-opacity:1"
       id="path4012"
       d="m 509.82825,52.331446 0,106.542124 25.30757,0 0,-106.542124 -25.30757,0 z m 167.33878,0 0,14.313157 14.87068,0 c 1.84327,3.85e-4 3.33744,1.536296 3.33781,3.431061 l 0,71.079286 c -3.7e-4,1.89477 -1.49454,3.43068 -3.33781,3.43106 l -14.87068,0 0,14.33877 40.0537,0 0,-106.593334 -40.0537,0 z m 52.53312,0 0,33.055967 0,73.537367 40.0537,0 0,-14.33877 -14.87069,0 c -1.84326,-3.8e-4 -3.33743,-1.53629 -3.3378,-3.43106 l 0,-71.079286 c 3.7e-4,-1.894765 1.49454,-3.430676 3.3378,-3.431061 l 14.87069,0 0,-14.313157 -40.0537,0 z M 214.18313,77.936378 c -12.0582,8.2e-5 -21.86561,3.964356 -30.06519,12.111133 -8.25744,8.204385 -12.1556,17.279049 -12.1556,27.858169 0,10.4296 4.11155,19.62783 12.85306,28.24224 8.71755,8.59086 18.40225,12.72565 29.66664,12.72565 l 16.3154,0 0,-18.74281 -6.72543,0 c -6.45675,3e-5 -12.24498,-2.10905 -16.76377,-6.222 -4.51733,-4.11148 -6.97457,-9.62798 -6.97452,-15.72143 -5e-5,-6.15225 2.40604,-11.69051 6.87488,-15.64461 4.44393,-3.932003 10.14905,-5.86345 16.5645,-5.863532 l 17.66049,0 c 1.84327,3.85e-4 3.33744,1.536296 3.33781,3.431062 l 0,58.76332 25.30756,0 0,-80.937192 -55.89583,0 z m 72.51015,0 0,106.542122 25.33247,0 0,-84.36825 c 3.7e-4,-1.894766 1.49454,-3.430677 3.33781,-3.431062 l 16.43995,0 c 6.90769,7.4e-5 13.10441,2.397007 17.9594,7.041352 4.4885,4.30175 6.99935,9.72215 6.99943,15.59341 -8e-5,6.07144 -2.69599,11.52793 -7.54743,15.28614 -4.79006,3.7106 -10.74543,5.53069 -17.4114,5.53067 l -5.8038,0 0,18.74281 17.06267,0 c 11.87649,0 21.64088,-3.82805 29.89082,-11.62464 8.24419,-7.79128 12.18041,-16.87576 12.18051,-28.06301 -1e-4,-11.59439 -3.94662,-21.076576 -12.1556,-29.189619 -8.22143,-8.125031 -17.77154,-12.059833 -29.293,-12.059923 l -56.99183,0 z m 111.56749,0 0,106.542122 25.30756,0 0,-84.36825 c 3.7e-4,-1.894766 1.49454,-3.430677 3.33781,-3.431062 l 16.46486,0 c 6.90768,7.4e-5 13.10442,2.396998 17.9594,7.041352 4.4885,4.30175 6.99934,9.72215 6.99943,15.59341 -9e-5,6.08286 -2.72601,11.53189 -7.57234,15.28614 -4.78495,3.70665 -10.72053,5.53069 -17.38649,5.53067 l -5.80381,0 0,18.74281 17.06268,0 c 11.87648,0 21.61368,-3.82588 29.86591,-11.62464 8.24419,-7.79128 12.18041,-16.87576 12.18051,-28.06301 -9e-5,-11.59439 -3.94661,-21.076576 -12.1556,-29.189619 -8.2237,-8.127276 -17.74664,-12.059833 -29.26809,-12.059923 l -56.99183,0 z m 200.0194,0 c -13.54224,8.2e-5 -25.05458,4.121845 -35.04698,12.469602 -10.01761,8.36892 -14.6216,17.33515 -14.6216,27.62772 0,12.42982 4.74355,22.03741 14.82087,29.85535 9.44018,7.30512 20.86416,10.98452 34.69826,10.98452 l 50.71476,0 0,-18.74281 -48.12422,0 c -6.38035,3e-5 -12.13915,-2.15616 -16.68904,-6.29882 -4.57816,-4.16827 -7.07421,-9.80767 -7.07417,-16.07989 -3e-5,-5.98409 2.40445,-11.37409 6.80017,-15.26054 4.43388,-3.92013 10.27358,-5.81224 16.96304,-5.812322 l 16.43995,0 c 1.27786,0.0025 2.44221,0.754596 2.9988,1.937011 0.55658,1.182415 0.40774,2.587681 -0.38335,3.619261 l -18.25831,23.63335 27.69882,0 19.62831,-26.885178 0,-21.047254 -50.56531,0 z" />
  </g>
  <g
     id="g4193"
     transform="matrix(0.4891371,0,0,0.4891371,8.5403673,-246.39661)">
    <path
       inkscape:connector-curvature="0"
       style="fill:#008000;fill-rule:evenodd;stroke:#008000;stroke-width:1px;stroke-linecap:butt;stroke-linejoin:miter;stroke-opacity:1"
       id="path4148"
       d="m 185.88236,946.36298 c 7.47,-0.45536 17.25692,-1.85203 39.55817,10.75708 80.69605,33.76877 118.71228,-54.08983 146.58723,-114.29252 -48.97204,-24.24059 -111.47395,-107.66196 -15.67218,-187.59672 -22.45339,-27.69513 -53.37882,-42.32012 -88.23611,-42.86864 -16.70407,-0.18585 -33.79221,2.4776 -47.4901,9.69428 -15.33715,8.08032 -26.96241,10.14898 -28.0188,10.29956 -1.05639,0.15058 -12.75718,0.0947 -13.81357,-0.0559 -1.05639,-0.15058 -16.69326,-1.90362 -29.09023,-8.51385 -13.66185,-7.28467 -29.7146,-11.66584 -46.41867,-11.47999 -128.486116,1.42957 -174.327886,191.30014 -35.308406,337.43428 20.16385,21.19578 60.419096,17.25668 77.987346,7.3236 22.30125,-12.60911 32.03657,-10.22093 39.91532,-10.70122 z" />
    <path
       inkscape:connector-curvature="0"
       style="display:inline;fill:#ffff00;fill-rule:evenodd;stroke:#ffff00;stroke-width:1px;stroke-linecap:butt;stroke-linejoin:miter;stroke-opacity:1"
       id="path4165"
       d="m 5.625,668.78125 c -40.763308,67.63098 -29.957221,183.94406 62.34375,280.96875 20.163843,21.19578 60.43175,17.24558 78,7.3125 22.30125,-12.60912 32.0275,-10.20721 39.90625,-10.6875 7.47001,-0.45536 17.26125,-1.85911 39.5625,10.75 80.69605,33.76877 118.7188,-54.10981 146.59375,-114.3125 -46.2103,-22.87353 -104.44183,-98.42134 -30.375,-174.03125 l -336.03125,0 z" />
    <path
       inkscape:connector-curvature="0"
       style="display:inline;fill:#ff6600;fill-rule:evenodd;stroke:#ff6600;stroke-width:1px;stroke-linecap:butt;stroke-linejoin:miter;stroke-opacity:1"
       id="path4167"
       d="m -14.875,728.0625 c -9.640465,65.71508 13.7903417,149.10012 82.84375,221.6875 20.163843,21.19578 60.43175,17.24558 78,7.3125 22.30125,-12.60912 32.0275,-10.20721 39.90625,-10.6875 7.47001,-0.45536 17.26125,-1.85911 39.5625,10.75 80.69605,33.76877 118.7188,-54.10981 146.59375,-114.3125 -33.93022,-16.79505 -74.32474,-61.97955 -64.09375,-114.75 l -322.8125,0 z" />
    <path
       inkscape:connector-curvature="0"
       style="display:inline;fill:#ff0000;fill-rule:evenodd;stroke:#ff0000;stroke-width:1px;stroke-linecap:butt;stroke-linejoin:miter;stroke-opacity:1"
       id="path4169"
       d="m -14.9375,786.625 c 7.0708126,52.87816 33.132389,110.80384 82.90625,163.125 20.163843,21.19578 60.43175,17.24558 78,7.3125 22.30125,-12.60912 32.0275,-10.20721 39.90625,-10.6875 7.47001,-0.45536 17.26125,-1.85911 39.5625,10.75 80.69605,33.76877 118.7188,-54.10981 146.59375,-114.3125 -20.3004,-10.04845 -42.91466,-30.26418 -55.625,-56.1875 l -331.34375,0 z" />
    <path
       inkscape:connector-curvature="0"
       style="display:inline;fill:#800080;fill-rule:evenodd;stroke:#800080;stroke-width:1px;stroke-linecap:butt;stroke-linejoin:miter;stroke-opacity:1"
       id="path4171"
       d="m 1.4375,848.0625 c 13.749643,34.35335 35.538913,69.10906 66.53125,101.6875 20.163843,21.19578 60.43175,17.24558 78,7.3125 22.30125,-12.60912 32.0275,-10.20721 39.90625,-10.6875 7.47001,-0.45536 17.26125,-1.85911 39.5625,10.75 78.41444,32.81399 116.51816,-49.15828 144.1875,-109.0625 l -368.1875,0 z" />
    <path
       inkscape:connector-curvature="0"
       style="display:inline;fill:#0000ff;fill-rule:evenodd;stroke:#0000ff;stroke-width:1px;stroke-linecap:butt;stroke-linejoin:miter;stroke-opacity:1"
       id="path4173"
       d="m 33.9375,908.09375 c 9.803311,14.13886 21.121475,28.08579 34.03125,41.65625 20.163843,21.19578 60.43175,17.24558 78,7.3125 22.30125,-12.60912 32.0275,-10.20721 39.90625,-10.6875 7.47001,-0.45536 17.26125,-1.85911 39.5625,10.75 53.19968,22.2624 87.85763,-8.34351 113.28125,-49.03125 l -304.78125,0 z" />
    <path
       inkscape:connector-curvature="0"
       style="fill:#008000;fill-rule:evenodd;stroke:#008000;stroke-width:1px;stroke-linecap:butt;stroke-linejoin:miter;stroke-opacity:1"
       id="path4154"
       d="m 266.93281,504.35442 c -2.56775,74.06312 -39.26996,103.58961 -92.17642,111.8744 1.11889,-62.18791 31.79526,-99.52067 92.17642,-111.8744 z" />
  </g>
</svg>
