<?xml version="1.0" encoding="UTF-8" standalone="no"?>
<!-- Created with Inkscape (http://www.inkscape.org/) -->

<svg
   xmlns:dc="http://purl.org/dc/elements/1.1/"
   xmlns:cc="http://creativecommons.org/ns#"
   xmlns:rdf="http://www.w3.org/1999/02/22-rdf-syntax-ns#"
   xmlns:svg="http://www.w3.org/2000/svg"
   xmlns="http://www.w3.org/2000/svg"
   xmlns:xlink="http://www.w3.org/1999/xlink"
   xmlns:sodipodi="http://sodipodi.sourceforge.net/DTD/sodipodi-0.dtd"
   xmlns:inkscape="http://www.inkscape.org/namespaces/inkscape"
   version="1.0"
   width="864.38068"
   height="266.15582"
   id="svg2"
   inkscape:version="0.91 r13725"
   sodipodi:docname="logoconsole.svg">
  <metadata
     id="metadata4190">
    <rdf:RDF>
      <cc:Work
         rdf:about="">
        <dc:format>image/svg+xml</dc:format>
        <dc:type
           rdf:resource="http://purl.org/dc/dcmitype/StillImage" />
        <dc:title></dc:title>
      </cc:Work>
    </rdf:RDF>
  </metadata>
  <sodipodi:namedview
     pagecolor="#ffffff"
     bordercolor="#666666"
     borderopacity="1"
     objecttolerance="10"
     gridtolerance="10"
     guidetolerance="10"
     inkscape:pageopacity="0"
     inkscape:pageshadow="2"
     inkscape:window-width="1680"
     inkscape:window-height="975"
     id="namedview4188"
     showgrid="false"
     fit-margin-top="0"
     fit-margin-left="0"
     fit-margin-right="0"
     fit-margin-bottom="0"
     inkscape:zoom="1.198546"
     inkscape:cx="420.46444"
     inkscape:cy="122.70058"
     inkscape:window-x="1671"
     inkscape:window-y="-9"
     inkscape:window-maximized="1"
     inkscape:current-layer="layer4" />
  <defs
     id="defs4">
    <linearGradient
       id="linearGradient4034">
      <stop
         id="stop4036"
         style="stop-color:#646464;stop-opacity:1"
         offset="0" />
      <stop
         id="stop4038"
         style="stop-color:#000000;stop-opacity:0"
         offset="1" />
    </linearGradient>
    <linearGradient
       id="linearGradient4022">
      <stop
         id="stop4024"
         style="stop-color:#646464;stop-opacity:1"
         offset="0" />
      <stop
         id="stop4030"
         style="stop-color:#c8c8c8;stop-opacity:1"
         offset="0.29303831" />
      <stop
         id="stop4032"
         style="stop-color:#646464;stop-opacity:1"
         offset="0.9733811" />
      <stop
         id="stop4026"
         style="stop-color:#c8c8c8;stop-opacity:1"
         offset="1" />
    </linearGradient>
    <radialGradient
       cx="317.61594"
       cy="303.7291"
       r="379.17358"
       fx="317.61594"
       fy="303.7291"
       id="radialGradient4040"
       xlink:href="#linearGradient4034"
       gradientUnits="userSpaceOnUse"
       gradientTransform="matrix(0.7171779,0.1265971,-0.02397681,0.1358296,97.111293,222.26447)"
       spreadMethod="reflect" />
    <radialGradient
       cx="317.61594"
       cy="303.7291"
       r="379.17358"
       fx="317.61594"
       fy="303.7291"
       id="radialGradient4122"
       xlink:href="#linearGradient4034"
       gradientUnits="userSpaceOnUse"
       gradientTransform="matrix(0.7171779,0.1265971,-0.02397681,0.1358296,97.111293,222.26447)"
       spreadMethod="reflect" />
    <radialGradient
       cx="317.61594"
       cy="303.7291"
       r="379.17358"
       fx="317.61594"
       fy="303.7291"
       id="radialGradient4124"
       xlink:href="#linearGradient4034"
       gradientUnits="userSpaceOnUse"
       gradientTransform="matrix(0.7171779,0.1265971,-0.02397681,0.1358296,97.111293,222.26447)"
       spreadMethod="reflect" />
    <radialGradient
       cx="280.59381"
       cy="-542.66449"
       r="372.10938"
       fx="280.59381"
       fy="-542.66449"
       id="radialGradient4126"
       xlink:href="#linearGradient4022"
       gradientUnits="userSpaceOnUse"
       gradientTransform="matrix(1,0,0,0.2741379,0,272.3367)"
       spreadMethod="reflect" />
  </defs>
  <g
     id="layer1"
     style="display:inline"
     transform="translate(26.67099,1.425495)" />
  <g
     id="layer5"
     style="display:inline"
     transform="translate(26.67099,1.425495)" />
  <g
     inkscape:groupmode="layer"
     id="layer2"
     inkscape:label="Layer 1"
     transform="translate(35.876804,17.70743)" />
  <g
     inkscape:groupmode="layer"
     id="layer3"
     inkscape:label="Layer 2"
     transform="translate(35.876804,17.70743)" />
  <g
     inkscape:groupmode="layer"
     id="layer4"
     inkscape:label="Layer 3"
     transform="translate(35.876804,17.70743)">
    <g
       id="g4875">
      <path
         inkscape:connector-curvature="0"
         id="rect4749"
         d="m -3.8935385,-17.70743 800.4141185,0 c 17.71873,0 31.98328,12.91457 31.98328,28.95644 l 0,208.24295 c 0,16.04186 -14.26455,28.95644 -31.98328,28.95644 l -800.4141185,0 c -17.7187295,0 -31.9832655,-12.91458 -31.9832655,-28.95644 l 0,-208.24295 c 0,-16.04187 14.264536,-28.95644 31.9832655,-28.95644 z"
         style="opacity:1;fill:#8b7e77;fill-opacity:1;fill-rule:evenodd;stroke:none;stroke-width:0.89999998;stroke-linecap:round;stroke-linejoin:round;stroke-miterlimit:4;stroke-dasharray:none;stroke-dashoffset:0;stroke-opacity:1" />
      <g
         style="fill:#000000;fill-opacity:1"
         transform="matrix(0.4891371,0,0,0.4891371,6.8716787,-243.05925)"
         id="g4193">
        <path
           d="m 185.88236,946.36298 c 7.47,-0.45536 17.25692,-1.85203 39.55817,10.75708 80.69605,33.76877 118.71228,-54.08983 146.58723,-114.29252 -48.97204,-24.24059 -111.47395,-107.66196 -15.67218,-187.59672 -22.45339,-27.69513 -53.37882,-42.32012 -88.23611,-42.86864 -16.70407,-0.18585 -33.79221,2.4776 -47.4901,9.69428 -15.33715,8.08032 -26.96241,10.14898 -28.0188,10.29956 -1.05639,0.15058 -12.75718,0.0947 -13.81357,-0.0559 -1.05639,-0.15058 -16.69326,-1.90362 -29.09023,-8.51385 -13.66185,-7.28467 -29.7146,-11.66584 -46.41867,-11.47999 -128.486116,1.42957 -174.327886,191.30014 -35.308406,337.43428 20.16385,21.19578 60.419096,17.25668 77.987346,7.3236 22.30125,-12.60911 32.03657,-10.22093 39.91532,-10.70122 z"
           id="path4148"
           style="fill:#000000;fill-opacity:1;fill-rule:evenodd;stroke:#008000;stroke-width:1px;stroke-linecap:butt;stroke-linejoin:miter;stroke-opacity:1"
           inkscape:connector-curvature="0" />
        <path
           d="m 5.625,668.78125 c -40.763308,67.63098 -29.957221,183.94406 62.34375,280.96875 20.163843,21.19578 60.43175,17.24558 78,7.3125 22.30125,-12.60912 32.0275,-10.20721 39.90625,-10.6875 7.47001,-0.45536 17.26125,-1.85911 39.5625,10.75 80.69605,33.76877 118.7188,-54.10981 146.59375,-114.3125 -46.2103,-22.87353 -104.44183,-98.42134 -30.375,-174.03125 l -336.03125,0 z"
           id="path4165"
           style="display:inline;fill:#000000;fill-opacity:1;fill-rule:evenodd;stroke:#ffff00;stroke-width:1px;stroke-linecap:butt;stroke-linejoin:miter;stroke-opacity:1"
           inkscape:connector-curvature="0" />
        <path
           d="m -14.875,728.0625 c -9.640465,65.71508 13.7903417,149.10012 82.84375,221.6875 20.163843,21.19578 60.43175,17.24558 78,7.3125 22.30125,-12.60912 32.0275,-10.20721 39.90625,-10.6875 7.47001,-0.45536 17.26125,-1.85911 39.5625,10.75 80.69605,33.76877 118.7188,-54.10981 146.59375,-114.3125 -33.93022,-16.79505 -74.32474,-61.97955 -64.09375,-114.75 l -322.8125,0 z"
           id="path4167"
           style="display:inline;fill:#000000;fill-opacity:1;fill-rule:evenodd;stroke:#ff6600;stroke-width:1px;stroke-linecap:butt;stroke-linejoin:miter;stroke-opacity:1"
           inkscape:connector-curvature="0" />
        <path
           d="m -14.9375,786.625 c 7.0708126,52.87816 33.132389,110.80384 82.90625,163.125 20.163843,21.19578 60.43175,17.24558 78,7.3125 22.30125,-12.60912 32.0275,-10.20721 39.90625,-10.6875 7.47001,-0.45536 17.26125,-1.85911 39.5625,10.75 80.69605,33.76877 118.7188,-54.10981 146.59375,-114.3125 -20.3004,-10.04845 -42.91466,-30.26418 -55.625,-56.1875 l -331.34375,0 z"
           id="path4169"
           style="display:inline;fill:#000000;fill-opacity:1;fill-rule:evenodd;stroke:#ff0000;stroke-width:1px;stroke-linecap:butt;stroke-linejoin:miter;stroke-opacity:1"
           inkscape:connector-curvature="0" />
        <path
           d="m 1.4375,848.0625 c 13.749643,34.35335 35.538913,69.10906 66.53125,101.6875 20.163843,21.19578 60.43175,17.24558 78,7.3125 22.30125,-12.60912 32.0275,-10.20721 39.90625,-10.6875 7.47001,-0.45536 17.26125,-1.85911 39.5625,10.75 78.41444,32.81399 116.51816,-49.15828 144.1875,-109.0625 l -368.1875,0 z"
           id="path4171"
           style="display:inline;fill:#000000;fill-opacity:1;fill-rule:evenodd;stroke:#800080;stroke-width:1px;stroke-linecap:butt;stroke-linejoin:miter;stroke-opacity:1"
           inkscape:connector-curvature="0" />
        <path
           d="m 33.9375,908.09375 c 9.803311,14.13886 21.121475,28.08579 34.03125,41.65625 20.163843,21.19578 60.43175,17.24558 78,7.3125 22.30125,-12.60912 32.0275,-10.20721 39.90625,-10.6875 7.47001,-0.45536 17.26125,-1.85911 39.5625,10.75 53.19968,22.2624 87.85763,-8.34351 113.28125,-49.03125 l -304.78125,0 z"
           id="path4173"
           style="display:inline;fill:#000000;fill-opacity:1;fill-rule:evenodd;stroke:#0000ff;stroke-width:1px;stroke-linecap:butt;stroke-linejoin:miter;stroke-opacity:1"
           inkscape:connector-curvature="0" />
        <path
           d="m 266.93281,504.35442 c -2.56775,74.06312 -39.26996,103.58961 -92.17642,111.8744 1.11889,-62.18791 31.79526,-99.52067 92.17642,-111.8744 z"
           id="path4154"
           style="fill:#000000;fill-opacity:1;fill-rule:evenodd;stroke:#008000;stroke-width:1px;stroke-linecap:butt;stroke-linejoin:miter;stroke-opacity:1"
           inkscape:connector-curvature="0" />
      </g>
      <g
         style="fill:#000000;fill-opacity:1;stroke:none;stroke-opacity:1"
         id="g4816"
         transform="matrix(1.5944488,0,0,1.6389949,40.816891,70.842058)">
        <g
           style="display:inline;fill:#000000;fill-opacity:1;stroke:none;stroke-opacity:1"
           id="g4818"
           transform="matrix(0.4999148,0,0,0.4999148,110.7575,-121.45104)">
          <path
             inkscape:connector-curvature="0"
             style="font-style:normal;font-variant:normal;font-weight:normal;font-stretch:normal;font-size:144px;line-height:100%;font-family:'Motter Tektura Cyrilic';-inkscape-font-specification:'Motter Tektura Cyrilic';text-align:start;writing-mode:lr-tb;text-anchor:start;fill:#000000;fill-opacity:1;stroke:none;stroke-width:1px;stroke-linecap:butt;stroke-linejoin:miter;stroke-opacity:1"
             id="path4820"
             d="m -4.4192208,250.15061 74.3301068,0 0,107.15698 -40.127527,0 0,-75.89712 -22.1660712,0 c -7.26240187,8e-5 -13.281622,2.05562 -18.0576798,6.16664 -4.776162,4.11117 -7.164217,9.40859 -7.164171,15.89228 -4.6e-5,6.36722 2.452157,11.72205 7.356616,16.06455 4.9043528,4.34256 10.98577712,6.51382 18.2442915,6.51378 l 12.6138415,0 0,31.25987 -24.6503508,0 c -15.1584242,0 -28.5342532,-5.55712 -40.1275272,-16.6714 -11.593311,-11.11423 -17.389958,-23.61975 -17.389955,-37.5166 -3e-6,-14.0098 5.509922,-26.34043 16.529789,-36.9919 11.019829,-10.65129 24.556028,-15.97697 40.6086372,-15.97708 l 0,0 z m 86.8039888,138.41685 0,-138.41685 75.677212,0 c 15.41099,1.1e-4 28.62645,5.29753 39.64642,15.89228 11.01972,10.59493 16.52965,23.475 16.52979,38.64022 -1.4e-4,14.70599 -5.54116,27.15322 -16.6231,37.34171 -11.08216,10.18852 -24.52312,15.28277 -40.32288,15.28277 l -25.60091,0 0,-31.25987 11.46501,0 c 7.64326,4e-5 14.07653,-1.96805 19.29981,-5.90427 5.22312,-3.93616 7.83473,-9.0313 7.83482,-15.28543 -9e-5,-6.02083 -2.48437,-11.34741 -7.45285,-15.97974 -5.34964,-4.97847 -11.91022,-7.46773 -19.68178,-7.46781 l -20.63818,0 0,107.15699 -40.133362,0 z m 139.959402,0 0,-138.41685 75.67721,0 c 15.41099,1.1e-4 28.62645,5.29753 39.64642,15.89228 11.01973,10.59493 16.52966,23.475 16.52979,38.64022 -1.3e-4,14.70599 -5.54115,27.15322 -16.62309,37.34171 -11.08217,10.18852 -24.52313,15.28277 -40.32288,15.28277 l -25.60092,0 0,-31.25987 11.46501,0 c 7.64326,4e-5 14.07654,-1.96805 19.29982,-5.90427 5.22312,-3.93616 7.83472,-9.0313 7.83482,-15.28543 -1e-4,-6.02083 -2.48437,-11.34741 -7.45285,-15.97974 -5.34964,-4.97847 -11.91023,-7.46773 -19.68179,-7.46781 l -20.63817,0 0,107.15699 -40.13337,0 z m 139.9594,-169.67672 40.13337,0 0,138.41685 -40.13337,0 0,-138.41685 z m 182.80448,107.15698 0,31.25987 -67.83949,0 c -18.0898,0 -33.44061,-4.74709 -46.05247,-14.24131 -13.5022,-10.19025 -20.25329,-23.44751 -20.25329,-39.77179 0,-13.8932 6.62473,-26.22382 19.87423,-36.9919 13.24945,-10.76789 28.79077,-16.15187 46.62398,-16.15198 l 67.64704,0 0,31.25986 -26.74973,35.60592 -45.48098,0 28.27763,-35.60592 -20.63235,0 c -7.64728,8e-5 -13.82688,2.02647 -18.5388,6.07919 -4.712,4.05286 -7.06798,9.20629 -7.06794,15.46033 -4e-5,6.59687 2.48424,12.09571 7.45283,16.4965 4.96851,4.40086 11.0198,6.60127 18.15391,6.60123 l 64.58543,0 z m 49.98042,-81.30207 -22.83793,0 0,-25.8549 58.62653,0 0,138.47145 -58.62653,0 0,-25.85491 22.83793,0 0,-86.76164 z m 78.86311,0 22.83793,0 0,-25.8549 -58.62653,0 0,44.54229 0,93.92916 58.62653,0 0,-25.85491 -22.83793,0 0,-86.76164 z" />
        </g>
        <path
           inkscape:connector-curvature="0"
           style="font-style:normal;font-variant:normal;font-weight:normal;font-stretch:normal;font-size:144px;line-height:100%;font-family:'Motter Tektura Cyrilic';-inkscape-font-specification:'Motter Tektura Cyrilic';text-align:start;writing-mode:lr-tb;text-anchor:start;display:inline;fill:#000000;fill-opacity:1;stroke:none;stroke-width:1px;stroke-linecap:butt;stroke-linejoin:miter;stroke-opacity:1"
           id="path4822"
           transform="matrix(0.4999148,0,0,0.4999148,110.41061,-121.80363)"
           d="m 366.5,223.09375 0,130.03125 31.75,0 0,-130.03125 -31.75,0 z m 209.9375,0 0,17.46875 18.65625,0 c 2.3125,4.7e-4 4.18703,1.875 4.1875,4.1875 l 0,86.75 c -4.7e-4,2.3125 -1.875,4.18703 -4.1875,4.1875 l -18.65625,0 0,17.5 50.25,0 0,-130.09375 -50.25,0 z m 65.90625,0 0,40.34375 0,89.75 50.25,0 0,-17.5 -18.65625,0 c -2.3125,-4.7e-4 -4.18703,-1.875 -4.1875,-4.1875 l 0,-86.75 c 4.7e-4,-2.3125 1.875,-4.18703 4.1875,-4.1875 l 18.65625,0 0,-17.46875 -50.25,0 z m -646.75,31.25 c -15.127804,1e-4 -27.431846,4.83837 -37.71875,14.78125 -10.359513,10.01319 -15.250002,21.08853 -15.25,34 -3e-6,12.729 5.158205,23.95514 16.125,34.46875 10.936743,10.48487 23.08683,15.53125 37.21875,15.53125 l 20.46875,0 0,-22.875 -8.4375,0 c -8.10041227,4e-5 -15.3621313,-2.57403 -21.03125,-7.59375 -5.667291,-5.01793 -8.750054,-11.75064 -8.75,-19.1875 -5.3e-5,-7.50862 3.018541,-14.2679 8.625,-19.09375 5.5751918,-4.79888 12.73264431,-7.15615 20.78125,-7.15625 l 22.15625,0 c 2.312498,4.7e-4 4.187031,1.875 4.1875,4.1875 l 0,71.71875 31.75,0 0,-98.78125 -70.125,0 z m 90.96875,0 0,130.03125 31.78125,0 0,-102.96875 c 4.7e-4,-2.3125 1.875,-4.18703 4.1875,-4.1875 l 20.625,0 c 8.66615,9e-5 16.44035,2.92547 22.53125,8.59375 5.63112,5.25014 8.78114,11.86557 8.78125,19.03125 -1.1e-4,7.41 -3.3823,14.06947 -9.46875,18.65625 -6.00945,4.52867 -13.48085,6.75003 -21.84375,6.75 l -7.28125,0 0,22.875 21.40625,0 c 14.89983,0 27.1499,-4.67201 37.5,-14.1875 10.34287,-9.509 15.28112,-20.59632 15.28125,-34.25 -1.3e-4,-14.15058 -4.9513,-25.72329 -15.25,-35.625 -10.31433,-9.91634 -22.29557,-14.71864 -36.75,-14.71875 l -71.5,0 z m 139.96875,0 0,130.03125 31.75,0 0,-102.96875 c 4.7e-4,-2.3125 1.875,-4.18703 4.1875,-4.1875 l 20.65625,0 c 8.66615,9e-5 16.44036,2.92546 22.53125,8.59375 5.63112,5.25014 8.78114,11.86557 8.78125,19.03125 -1.2e-4,7.42394 -3.41996,14.0743 -9.5,18.65625 -6.00304,4.52384 -13.44961,6.75003 -21.8125,6.75 l -7.28125,0 0,22.875 21.40625,0 c 14.89982,0 27.11578,-4.66936 37.46875,-14.1875 10.34287,-9.509 15.28112,-20.59632 15.28125,-34.25 -1.2e-4,-14.15058 -4.95128,-25.72329 -15.25,-35.625 -10.31718,-9.91908 -22.26433,-14.71864 -36.71875,-14.71875 l -71.5,0 z m 250.9375,0 c -16.98964,1e-4 -31.43262,5.03058 -43.96875,15.21875 -12.56774,10.214 -18.34375,21.157 -18.34375,33.71875 0,15.1702 5.95109,26.89595 18.59375,36.4375 11.84333,8.91567 26.17546,13.40625 43.53125,13.40625 l 63.625,0 0,-22.875 -60.375,0 c -8.00457,4e-5 -15.22936,-2.63152 -20.9375,-7.6875 -5.7436,-5.08724 -8.87506,-11.96995 -8.875,-19.625 -5e-5,-7.30339 3.01654,-13.88171 8.53125,-18.625 5.5626,-4.78439 12.88888,-7.09365 21.28125,-7.09375 l 20.625,0 c 1.60316,0.003 3.06392,0.92096 3.76219,2.36406 0.69827,1.4431 0.51154,3.15818 -0.48094,4.41719 l -22.90625,28.84375 34.75,0 24.625,-32.8125 0,-25.6875 -63.4375,0 z" />
        <path
           inkscape:connector-curvature="0"
           style="font-style:normal;font-variant:normal;font-weight:normal;font-stretch:normal;font-size:144px;line-height:100%;font-family:'Motter Tektura Cyrilic';-inkscape-font-specification:'Motter Tektura Cyrilic';text-align:start;writing-mode:lr-tb;text-anchor:start;display:inline;fill:#000000;fill-opacity:1;stroke:none;stroke-width:1px;stroke-linecap:butt;stroke-linejoin:miter;stroke-opacity:1"
           id="path4824"
           transform="matrix(0.4999148,0,0,0.4999148,110.41073,-121.70377)"
           d="m 366.125,222.71875 0,130.78125 32.5,0 0,-130.78125 -32.5,0 z m 209.9375,0 0,18.21875 19.03125,0 c 1.01206,-0.003 1.98355,0.39767 2.69919,1.11331 0.71564,0.71564 1.11634,1.68713 1.11331,2.69919 l 0,86.75 c 0.003,1.01206 -0.39767,1.98355 -1.11331,2.69919 -0.71564,0.71564 -1.68713,1.11634 -2.69919,1.11331 l -19.03125,0 0,18.25 51,0 0,-130.84375 -51,0 z m 65.90625,0 0,40.71875 0,90.125 51,0 0,-18.25 -19.03125,0 c -1.01206,0.003 -1.98355,-0.39767 -2.69919,-1.11331 -0.71564,-0.71564 -1.11634,-1.68713 -1.11331,-2.69919 l 0,-86.75 c -0.003,-1.01206 0.39767,-1.98355 1.11331,-2.69919 0.71564,-0.71564 1.68713,-1.11634 2.69919,-1.11331 l 19.03125,0 0,-18.21875 -51,0 z m -646.375,31.25 c -15.213301,1e-4 -27.614088,4.86663 -37.96875,14.875 -10.420562,10.0722 -15.375002,21.26824 -15.375,34.28125 -3e-6,12.83696 5.194035,24.18086 16.21875,34.75 10.997438,10.54306 23.273181,15.625 37.5,15.625 l 20.84375,0 0,-23.625 -8.8125,0 c -8.02257989,4e-5 -15.1828329,-2.54288 -20.78125,-7.5 -5.596768,-4.95548 -8.625053,-11.56828 -8.625,-18.90625 -5.3e-5,-7.41387 2.970301,-14.02147 8.5,-18.78125 5.5013129,-4.73529 12.55532786,-7.09365 20.53125,-7.09375 l 22.15625,0 c 1.012063,-0.003 1.983548,0.39767 2.699188,1.11331 0.71564,0.71564 1.11634,1.68713 1.113312,2.69919 l 0,72.09375 32.5,0 0,-99.53125 -70.5,0 z m 90.59375,0 0,130.78125 32.53125,0 0,-103.34375 c -0.003,-1.01206 0.39767,-1.98355 1.11331,-2.69919 0.71564,-0.71564 1.68713,-1.11634 2.69919,-1.11331 l 20.625,0 c 8.58345,9e-5 16.25888,2.89549 22.28125,8.5 5.56986,5.19302 8.65614,11.69016 8.65625,18.75 -1.1e-4,7.30314 -3.33712,13.81712 -9.34375,18.34375 -5.93677,4.4739 -13.29738,6.68753 -21.59375,6.6875 l -7.65625,0 0,23.625 21.78125,0 c 14.98303,0 27.36347,-4.70354 37.78125,-14.28125 10.4112,-9.57182 15.37487,-20.78028 15.375,-34.53125 -1.3e-4,-14.24438 -4.97839,-25.94045 -15.34375,-35.90625 -10.37956,-9.97905 -22.48839,-14.81239 -37.03125,-14.8125 l -71.875,0 z m 139.96875,0 0,130.78125 32.5,0 0,-103.34375 c -0.003,-1.01206 0.39767,-1.98355 1.11331,-2.69919 0.71564,-0.71564 1.68713,-1.11634 2.69919,-1.11331 l 20.65625,0 c 8.58345,9e-5 16.25889,2.89548 22.28125,8.5 5.56986,5.19302 8.65614,11.69016 8.65625,18.75 -1.2e-4,7.3158 -3.37419,13.82151 -9.375,18.34375 -5.93096,4.46952 -13.26614,6.68753 -21.5625,6.6875 l -7.65625,0 0,23.625 21.78125,0 c 14.98302,0 27.32961,-4.70113 37.75,-14.28125 10.4112,-9.57182 15.37487,-20.78028 15.375,-34.53125 -1.2e-4,-14.24438 -4.97838,-25.94045 -15.34375,-35.90625 -10.38215,-9.98154 -22.45715,-14.81239 -37,-14.8125 l -71.875,0 z m 251.3125,0 c -17.06763,1.1e-4 -31.61668,5.03949 -44.21875,15.28125 -12.63077,10.26523 -18.46875,21.34641 -18.46875,34.03125 0,15.27689 5.99662,27.14848 18.71875,36.75 11.91438,8.96916 26.3576,13.46875 43.78125,13.46875 l 64,0 0,-23.625 -60.75,0 c -7.92409,4e-5 -15.04774,-2.59834 -20.6875,-7.59375 -5.67195,-5.02378 -8.75006,-11.78653 -8.75,-19.34375 -5e-5,-7.20638 2.96574,-13.63304 8.40625,-18.3125 5.48395,-4.71675 12.70776,-7.03115 21.03125,-7.03125 l 20.625,0 c 1.46572,-0.004 2.80309,0.83533 3.43714,2.15682 0.63404,1.32149 0.4518,2.8898 -0.46839,4.03068 l -23.375,29.4375 35.71875,0 24.8125,-33.0625 0,-26.1875 -63.8125,0 z" />
      </g>
      <g
         transform="matrix(1.5944488,0,0,1.6389949,41.651235,69.173366)"
         id="g4116">
        <g
           transform="matrix(0.4999148,0,0,0.4999148,110.7575,-121.45104)"
           id="g3994"
           style="display:inline;fill:url(#radialGradient4124);fill-opacity:1">
          <path
             d="m -4.4192208,250.15061 74.3301068,0 0,107.15698 -40.127527,0 0,-75.89712 -22.1660712,0 c -7.26240187,8e-5 -13.281622,2.05562 -18.0576798,6.16664 -4.776162,4.11117 -7.164217,9.40859 -7.164171,15.89228 -4.6e-5,6.36722 2.452157,11.72205 7.356616,16.06455 4.9043528,4.34256 10.98577712,6.51382 18.2442915,6.51378 l 12.6138415,0 0,31.25987 -24.6503508,0 c -15.1584242,0 -28.5342532,-5.55712 -40.1275272,-16.6714 -11.593311,-11.11423 -17.389958,-23.61975 -17.389955,-37.5166 -3e-6,-14.0098 5.509922,-26.34043 16.529789,-36.9919 11.019829,-10.65129 24.556028,-15.97697 40.6086372,-15.97708 l 0,0 z m 86.8039888,138.41685 0,-138.41685 75.677212,0 c 15.41099,1.1e-4 28.62645,5.29753 39.64642,15.89228 11.01972,10.59493 16.52965,23.475 16.52979,38.64022 -1.4e-4,14.70599 -5.54116,27.15322 -16.6231,37.34171 -11.08216,10.18852 -24.52312,15.28277 -40.32288,15.28277 l -25.60091,0 0,-31.25987 11.46501,0 c 7.64326,4e-5 14.07653,-1.96805 19.29981,-5.90427 5.22312,-3.93616 7.83473,-9.0313 7.83482,-15.28543 -9e-5,-6.02083 -2.48437,-11.34741 -7.45285,-15.97974 -5.34964,-4.97847 -11.91022,-7.46773 -19.68178,-7.46781 l -20.63818,0 0,107.15699 -40.133362,0 z m 139.959402,0 0,-138.41685 75.67721,0 c 15.41099,1.1e-4 28.62645,5.29753 39.64642,15.89228 11.01973,10.59493 16.52966,23.475 16.52979,38.64022 -1.3e-4,14.70599 -5.54115,27.15322 -16.62309,37.34171 -11.08217,10.18852 -24.52313,15.28277 -40.32288,15.28277 l -25.60092,0 0,-31.25987 11.46501,0 c 7.64326,4e-5 14.07654,-1.96805 19.29982,-5.90427 5.22312,-3.93616 7.83472,-9.0313 7.83482,-15.28543 -1e-4,-6.02083 -2.48437,-11.34741 -7.45285,-15.97974 -5.34964,-4.97847 -11.91023,-7.46773 -19.68179,-7.46781 l -20.63817,0 0,107.15699 -40.13337,0 z m 139.9594,-169.67672 40.13337,0 0,138.41685 -40.13337,0 0,-138.41685 z m 182.80448,107.15698 0,31.25987 -67.83949,0 c -18.0898,0 -33.44061,-4.74709 -46.05247,-14.24131 -13.5022,-10.19025 -20.25329,-23.44751 -20.25329,-39.77179 0,-13.8932 6.62473,-26.22382 19.87423,-36.9919 13.24945,-10.76789 28.79077,-16.15187 46.62398,-16.15198 l 67.64704,0 0,31.25986 -26.74973,35.60592 -45.48098,0 28.27763,-35.60592 -20.63235,0 c -7.64728,8e-5 -13.82688,2.02647 -18.5388,6.07919 -4.712,4.05286 -7.06798,9.20629 -7.06794,15.46033 -4e-5,6.59687 2.48424,12.09571 7.45283,16.4965 4.96851,4.40086 11.0198,6.60127 18.15391,6.60123 l 64.58543,0 z m 49.98042,-81.30207 -22.83793,0 0,-25.8549 58.62653,0 0,138.47145 -58.62653,0 0,-25.85491 22.83793,0 0,-86.76164 z m 78.86311,0 22.83793,0 0,-25.8549 -58.62653,0 0,44.54229 0,93.92916 58.62653,0 0,-25.85491 -22.83793,0 0,-86.76164 z"
             id="flowRoot3883"
             style="font-style:normal;font-variant:normal;font-weight:normal;font-stretch:normal;font-size:144px;line-height:100%;font-family:'Motter Tektura Cyrilic';-inkscape-font-specification:'Motter Tektura Cyrilic';text-align:start;writing-mode:lr-tb;text-anchor:start;fill:url(#radialGradient4122);fill-opacity:1;stroke:none;stroke-width:1px;stroke-linecap:butt;stroke-linejoin:miter;stroke-opacity:1"
             inkscape:connector-curvature="0" />
        </g>
        <path
           d="m 366.5,223.09375 0,130.03125 31.75,0 0,-130.03125 -31.75,0 z m 209.9375,0 0,17.46875 18.65625,0 c 2.3125,4.7e-4 4.18703,1.875 4.1875,4.1875 l 0,86.75 c -4.7e-4,2.3125 -1.875,4.18703 -4.1875,4.1875 l -18.65625,0 0,17.5 50.25,0 0,-130.09375 -50.25,0 z m 65.90625,0 0,40.34375 0,89.75 50.25,0 0,-17.5 -18.65625,0 c -2.3125,-4.7e-4 -4.18703,-1.875 -4.1875,-4.1875 l 0,-86.75 c 4.7e-4,-2.3125 1.875,-4.18703 4.1875,-4.1875 l 18.65625,0 0,-17.46875 -50.25,0 z m -646.75,31.25 c -15.127804,1e-4 -27.431846,4.83837 -37.71875,14.78125 -10.359513,10.01319 -15.250002,21.08853 -15.25,34 -3e-6,12.729 5.158205,23.95514 16.125,34.46875 10.936743,10.48487 23.08683,15.53125 37.21875,15.53125 l 20.46875,0 0,-22.875 -8.4375,0 c -8.10041227,4e-5 -15.3621313,-2.57403 -21.03125,-7.59375 -5.667291,-5.01793 -8.750054,-11.75064 -8.75,-19.1875 -5.3e-5,-7.50862 3.018541,-14.2679 8.625,-19.09375 5.5751918,-4.79888 12.73264431,-7.15615 20.78125,-7.15625 l 22.15625,0 c 2.312498,4.7e-4 4.187031,1.875 4.1875,4.1875 l 0,71.71875 31.75,0 0,-98.78125 -70.125,0 z m 90.96875,0 0,130.03125 31.78125,0 0,-102.96875 c 4.7e-4,-2.3125 1.875,-4.18703 4.1875,-4.1875 l 20.625,0 c 8.66615,9e-5 16.44035,2.92547 22.53125,8.59375 5.63112,5.25014 8.78114,11.86557 8.78125,19.03125 -1.1e-4,7.41 -3.3823,14.06947 -9.46875,18.65625 -6.00945,4.52867 -13.48085,6.75003 -21.84375,6.75 l -7.28125,0 0,22.875 21.40625,0 c 14.89983,0 27.1499,-4.67201 37.5,-14.1875 10.34287,-9.509 15.28112,-20.59632 15.28125,-34.25 -1.3e-4,-14.15058 -4.9513,-25.72329 -15.25,-35.625 -10.31433,-9.91634 -22.29557,-14.71864 -36.75,-14.71875 l -71.5,0 z m 139.96875,0 0,130.03125 31.75,0 0,-102.96875 c 4.7e-4,-2.3125 1.875,-4.18703 4.1875,-4.1875 l 20.65625,0 c 8.66615,9e-5 16.44036,2.92546 22.53125,8.59375 5.63112,5.25014 8.78114,11.86557 8.78125,19.03125 -1.2e-4,7.42394 -3.41996,14.0743 -9.5,18.65625 -6.00304,4.52384 -13.44961,6.75003 -21.8125,6.75 l -7.28125,0 0,22.875 21.40625,0 c 14.89982,0 27.11578,-4.66936 37.46875,-14.1875 10.34287,-9.509 15.28112,-20.59632 15.28125,-34.25 -1.2e-4,-14.15058 -4.95128,-25.72329 -15.25,-35.625 -10.31718,-9.91908 -22.26433,-14.71864 -36.71875,-14.71875 l -71.5,0 z m 250.9375,0 c -16.98964,1e-4 -31.43262,5.03058 -43.96875,15.21875 -12.56774,10.214 -18.34375,21.157 -18.34375,33.71875 0,15.1702 5.95109,26.89595 18.59375,36.4375 11.84333,8.91567 26.17546,13.40625 43.53125,13.40625 l 63.625,0 0,-22.875 -60.375,0 c -8.00457,4e-5 -15.22936,-2.63152 -20.9375,-7.6875 -5.7436,-5.08724 -8.87506,-11.96995 -8.875,-19.625 -5e-5,-7.30339 3.01654,-13.88171 8.53125,-18.625 5.5626,-4.78439 12.88888,-7.09365 21.28125,-7.09375 l 20.625,0 c 1.60316,0.003 3.06392,0.92096 3.76219,2.36406 0.69827,1.4431 0.51154,3.15818 -0.48094,4.41719 l -22.90625,28.84375 34.75,0 24.625,-32.8125 0,-25.6875 -63.4375,0 z"
           transform="matrix(0.4999148,0,0,0.4999148,110.41061,-121.80363)"
           id="path4012"
           style="font-style:normal;font-variant:normal;font-weight:normal;font-stretch:normal;font-size:144px;line-height:100%;font-family:'Motter Tektura Cyrilic';-inkscape-font-specification:'Motter Tektura Cyrilic';text-align:start;writing-mode:lr-tb;text-anchor:start;display:inline;fill:#ffffff;fill-opacity:1;stroke:none;stroke-width:1px;stroke-linecap:butt;stroke-linejoin:miter;stroke-opacity:1"
           inkscape:connector-curvature="0" />
        <path
           d="m 366.125,222.71875 0,130.78125 32.5,0 0,-130.78125 -32.5,0 z m 209.9375,0 0,18.21875 19.03125,0 c 1.01206,-0.003 1.98355,0.39767 2.69919,1.11331 0.71564,0.71564 1.11634,1.68713 1.11331,2.69919 l 0,86.75 c 0.003,1.01206 -0.39767,1.98355 -1.11331,2.69919 -0.71564,0.71564 -1.68713,1.11634 -2.69919,1.11331 l -19.03125,0 0,18.25 51,0 0,-130.84375 -51,0 z m 65.90625,0 0,40.71875 0,90.125 51,0 0,-18.25 -19.03125,0 c -1.01206,0.003 -1.98355,-0.39767 -2.69919,-1.11331 -0.71564,-0.71564 -1.11634,-1.68713 -1.11331,-2.69919 l 0,-86.75 c -0.003,-1.01206 0.39767,-1.98355 1.11331,-2.69919 0.71564,-0.71564 1.68713,-1.11634 2.69919,-1.11331 l 19.03125,0 0,-18.21875 -51,0 z m -646.375,31.25 c -15.213301,1e-4 -27.614088,4.86663 -37.96875,14.875 -10.420562,10.0722 -15.375002,21.26824 -15.375,34.28125 -3e-6,12.83696 5.194035,24.18086 16.21875,34.75 10.997438,10.54306 23.273181,15.625 37.5,15.625 l 20.84375,0 0,-23.625 -8.8125,0 c -8.02257989,4e-5 -15.1828329,-2.54288 -20.78125,-7.5 -5.596768,-4.95548 -8.625053,-11.56828 -8.625,-18.90625 -5.3e-5,-7.41387 2.970301,-14.02147 8.5,-18.78125 5.5013129,-4.73529 12.55532786,-7.09365 20.53125,-7.09375 l 22.15625,0 c 1.012063,-0.003 1.983548,0.39767 2.699188,1.11331 0.71564,0.71564 1.11634,1.68713 1.113312,2.69919 l 0,72.09375 32.5,0 0,-99.53125 -70.5,0 z m 90.59375,0 0,130.78125 32.53125,0 0,-103.34375 c -0.003,-1.01206 0.39767,-1.98355 1.11331,-2.69919 0.71564,-0.71564 1.68713,-1.11634 2.69919,-1.11331 l 20.625,0 c 8.58345,9e-5 16.25888,2.89549 22.28125,8.5 5.56986,5.19302 8.65614,11.69016 8.65625,18.75 -1.1e-4,7.30314 -3.33712,13.81712 -9.34375,18.34375 -5.93677,4.4739 -13.29738,6.68753 -21.59375,6.6875 l -7.65625,0 0,23.625 21.78125,0 c 14.98303,0 27.36347,-4.70354 37.78125,-14.28125 10.4112,-9.57182 15.37487,-20.78028 15.375,-34.53125 -1.3e-4,-14.24438 -4.97839,-25.94045 -15.34375,-35.90625 -10.37956,-9.97905 -22.48839,-14.81239 -37.03125,-14.8125 l -71.875,0 z m 139.96875,0 0,130.78125 32.5,0 0,-103.34375 c -0.003,-1.01206 0.39767,-1.98355 1.11331,-2.69919 0.71564,-0.71564 1.68713,-1.11634 2.69919,-1.11331 l 20.65625,0 c 8.58345,9e-5 16.25889,2.89548 22.28125,8.5 5.56986,5.19302 8.65614,11.69016 8.65625,18.75 -1.2e-4,7.3158 -3.37419,13.82151 -9.375,18.34375 -5.93096,4.46952 -13.26614,6.68753 -21.5625,6.6875 l -7.65625,0 0,23.625 21.78125,0 c 14.98302,0 27.32961,-4.70113 37.75,-14.28125 10.4112,-9.57182 15.37487,-20.78028 15.375,-34.53125 -1.2e-4,-14.24438 -4.97838,-25.94045 -15.34375,-35.90625 -10.38215,-9.98154 -22.45715,-14.81239 -37,-14.8125 l -71.875,0 z m 251.3125,0 c -17.06763,1.1e-4 -31.61668,5.03949 -44.21875,15.28125 -12.63077,10.26523 -18.46875,21.34641 -18.46875,34.03125 0,15.27689 5.99662,27.14848 18.71875,36.75 11.91438,8.96916 26.3576,13.46875 43.78125,13.46875 l 64,0 0,-23.625 -60.75,0 c -7.92409,4e-5 -15.04774,-2.59834 -20.6875,-7.59375 -5.67195,-5.02378 -8.75006,-11.78653 -8.75,-19.34375 -5e-5,-7.20638 2.96574,-13.63304 8.40625,-18.3125 5.48395,-4.71675 12.70776,-7.03115 21.03125,-7.03125 l 20.625,0 c 1.46572,-0.004 2.80309,0.83533 3.43714,2.15682 0.63404,1.32149 0.4518,2.8898 -0.46839,4.03068 l -23.375,29.4375 35.71875,0 24.8125,-33.0625 0,-26.1875 -63.8125,0 z"
           transform="matrix(0.4999148,0,0,0.4999148,110.41073,-121.70377)"
           id="path4019"
           style="font-style:normal;font-variant:normal;font-weight:normal;font-stretch:normal;font-size:144px;line-height:100%;font-family:'Motter Tektura Cyrilic';-inkscape-font-specification:'Motter Tektura Cyrilic';text-align:start;writing-mode:lr-tb;text-anchor:start;display:inline;fill:url(#radialGradient4126);fill-opacity:1;stroke:none;stroke-width:1px;stroke-linecap:butt;stroke-linejoin:miter;stroke-opacity:1"
           inkscape:connector-curvature="0" />
      </g>
      <g
         id="g4837"
         transform="matrix(0.4891371,0,0,0.4891371,8.5403673,-246.39661)">
        <path
           inkscape:connector-curvature="0"
           style="fill:#008000;fill-rule:evenodd;stroke:#008000;stroke-width:1px;stroke-linecap:butt;stroke-linejoin:miter;stroke-opacity:1"
           id="path4839"
           d="m 185.88236,946.36298 c 7.47,-0.45536 17.25692,-1.85203 39.55817,10.75708 80.69605,33.76877 118.71228,-54.08983 146.58723,-114.29252 -48.97204,-24.24059 -111.47395,-107.66196 -15.67218,-187.59672 -22.45339,-27.69513 -53.37882,-42.32012 -88.23611,-42.86864 -16.70407,-0.18585 -33.79221,2.4776 -47.4901,9.69428 -15.33715,8.08032 -26.96241,10.14898 -28.0188,10.29956 -1.05639,0.15058 -12.75718,0.0947 -13.81357,-0.0559 -1.05639,-0.15058 -16.69326,-1.90362 -29.09023,-8.51385 -13.66185,-7.28467 -29.7146,-11.66584 -46.41867,-11.47999 -128.486116,1.42957 -174.327886,191.30014 -35.308406,337.43428 20.16385,21.19578 60.419096,17.25668 77.987346,7.3236 22.30125,-12.60911 32.03657,-10.22093 39.91532,-10.70122 z" />
        <path
           inkscape:connector-curvature="0"
           style="display:inline;fill:#ffff00;fill-rule:evenodd;stroke:#ffff00;stroke-width:1px;stroke-linecap:butt;stroke-linejoin:miter;stroke-opacity:1"
           id="path4841"
           d="m 5.625,668.78125 c -40.763308,67.63098 -29.957221,183.94406 62.34375,280.96875 20.163843,21.19578 60.43175,17.24558 78,7.3125 22.30125,-12.60912 32.0275,-10.20721 39.90625,-10.6875 7.47001,-0.45536 17.26125,-1.85911 39.5625,10.75 80.69605,33.76877 118.7188,-54.10981 146.59375,-114.3125 -46.2103,-22.87353 -104.44183,-98.42134 -30.375,-174.03125 l -336.03125,0 z" />
        <path
           inkscape:connector-curvature="0"
           style="display:inline;fill:#ff6600;fill-rule:evenodd;stroke:#ff6600;stroke-width:1px;stroke-linecap:butt;stroke-linejoin:miter;stroke-opacity:1"
           id="path4843"
           d="m -14.875,728.0625 c -9.640465,65.71508 13.7903417,149.10012 82.84375,221.6875 20.163843,21.19578 60.43175,17.24558 78,7.3125 22.30125,-12.60912 32.0275,-10.20721 39.90625,-10.6875 7.47001,-0.45536 17.26125,-1.85911 39.5625,10.75 80.69605,33.76877 118.7188,-54.10981 146.59375,-114.3125 -33.93022,-16.79505 -74.32474,-61.97955 -64.09375,-114.75 l -322.8125,0 z" />
        <path
           inkscape:connector-curvature="0"
           style="display:inline;fill:#ff0000;fill-rule:evenodd;stroke:#ff0000;stroke-width:1px;stroke-linecap:butt;stroke-linejoin:miter;stroke-opacity:1"
           id="path4845"
           d="m -14.9375,786.625 c 7.0708126,52.87816 33.132389,110.80384 82.90625,163.125 20.163843,21.19578 60.43175,17.24558 78,7.3125 22.30125,-12.60912 32.0275,-10.20721 39.90625,-10.6875 7.47001,-0.45536 17.26125,-1.85911 39.5625,10.75 80.69605,33.76877 118.7188,-54.10981 146.59375,-114.3125 -20.3004,-10.04845 -42.91466,-30.26418 -55.625,-56.1875 l -331.34375,0 z" />
        <path
           inkscape:connector-curvature="0"
           style="display:inline;fill:#800080;fill-rule:evenodd;stroke:#800080;stroke-width:1px;stroke-linecap:butt;stroke-linejoin:miter;stroke-opacity:1"
           id="path4847"
           d="m 1.4375,848.0625 c 13.749643,34.35335 35.538913,69.10906 66.53125,101.6875 20.163843,21.19578 60.43175,17.24558 78,7.3125 22.30125,-12.60912 32.0275,-10.20721 39.90625,-10.6875 7.47001,-0.45536 17.26125,-1.85911 39.5625,10.75 78.41444,32.81399 116.51816,-49.15828 144.1875,-109.0625 l -368.1875,0 z" />
        <path
           inkscape:connector-curvature="0"
           style="display:inline;fill:#0000ff;fill-rule:evenodd;stroke:#0000ff;stroke-width:1px;stroke-linecap:butt;stroke-linejoin:miter;stroke-opacity:1"
           id="path4849"
           d="m 33.9375,908.09375 c 9.803311,14.13886 21.121475,28.08579 34.03125,41.65625 20.163843,21.19578 60.43175,17.24558 78,7.3125 22.30125,-12.60912 32.0275,-10.20721 39.90625,-10.6875 7.47001,-0.45536 17.26125,-1.85911 39.5625,10.75 53.19968,22.2624 87.85763,-8.34351 113.28125,-49.03125 l -304.78125,0 z" />
        <path
           inkscape:connector-curvature="0"
           style="fill:#008000;fill-rule:evenodd;stroke:#008000;stroke-width:1px;stroke-linecap:butt;stroke-linejoin:miter;stroke-opacity:1"
           id="path4851"
           d="m 266.93281,504.35442 c -2.56775,74.06312 -39.26996,103.58961 -92.17642,111.8744 1.11889,-62.18791 31.79526,-99.52067 92.17642,-111.8744 z" />
      </g>
    </g>
  </g>
</svg>
