<?xml version="1.0" encoding="UTF-8" standalone="no"?>
<!-- Created with Inkscape (http://www.inkscape.org/) -->

<svg
   xmlns:dc="http://purl.org/dc/elements/1.1/"
   xmlns:cc="http://creativecommons.org/ns#"
   xmlns:rdf="http://www.w3.org/1999/02/22-rdf-syntax-ns#"
   xmlns:svg="http://www.w3.org/2000/svg"
   xmlns="http://www.w3.org/2000/svg"
   xmlns:sodipodi="http://sodipodi.sourceforge.net/DTD/sodipodi-0.dtd"
   xmlns:inkscape="http://www.inkscape.org/namespaces/inkscape"
   width="325.17978mm"
   height="18.47921mm"
   viewBox="0 0 1152.2118 65.477515"
   id="svg5526"
   version="1.1"
   inkscape:version="0.91 r13725"
   sodipodi:docname="logoconsole.svg">
  <defs
     id="defs5528" />
  <sodipodi:namedview
     id="base"
     pagecolor="#ffffff"
     bordercolor="#666666"
     borderopacity="1.0"
     inkscape:pageopacity="0.0"
     inkscape:pageshadow="2"
     inkscape:zoom="0.82496882"
     inkscape:cx="585.59931"
     inkscape:cy="146.46967"
     inkscape:document-units="px"
     inkscape:current-layer="layer1"
     showgrid="false"
     fit-margin-top="0"
     fit-margin-left="0"
     fit-margin-right="0"
     fit-margin-bottom="0"
     inkscape:window-width="1680"
     inkscape:window-height="975"
     inkscape:window-x="1671"
     inkscape:window-y="-9"
     inkscape:window-maximized="1" />
  <metadata
     id="metadata5531">
    <rdf:RDF>
      <cc:Work
         rdf:about="">
        <dc:format>image/svg+xml</dc:format>
        <dc:type
           rdf:resource="http://purl.org/dc/dcmitype/StillImage" />
        <dc:title></dc:title>
      </cc:Work>
    </rdf:RDF>
  </metadata>
  <g
     inkscape:label="Layer 1"
     inkscape:groupmode="layer"
     id="layer1"
     transform="translate(-0.58299,-295.53155)">
    <path
       style="fill:#f4f4f4;fill-opacity:1"
       d="m 755.56525,360.2288 c -0.18023,-0.4718 1.97609,-6.00479 4.79361,-12.29557 2.81749,-6.29079 5.66281,-12.65049 6.32281,-14.13269 10.68857,-24.00256 10.28853,-23.24371 12.24934,-23.24371 1.01968,0 2.0143,0.25896 2.2098,0.57548 0.39221,0.63463 -4.26778,11.8965 -11.05254,26.7106 -3.51278,7.66972 -8.76165,19.87906 -8.76165,20.37997 0,2.09925 -5.05082,3.85778 -5.76137,2.00592 z M 248.7811,353.20018 c -0.76267,-2.14712 -3.45693,-10.11902 -5.98727,-17.71533 -3.00888,-9.033 -4.68767,-13.22873 -4.85237,-12.12713 -0.59969,4.01129 0.34579,25.32289 1.19558,26.94919 1.11671,2.13705 3.4085,4.00802 4.93324,4.0274 0.64847,0.008 1.17903,0.46975 1.17903,1.02558 0,0.84441 -1.38489,1.01059 -8.42164,1.01059 -6.45793,0 -8.42162,-0.20406 -8.42162,-0.87524 0,-0.48139 1.06403,-1.26001 2.36451,-1.73027 4.25189,-1.5375 4.67167,-3.21228 4.92959,-19.66758 0.25393,-16.20184 0.31198,-15.98141 -4.41072,-16.74905 -1.33971,-0.21776 -2.56181,-0.77382 -2.71576,-1.23566 -0.21353,-0.64066 1.71853,-0.83973 8.14991,-0.83973 l 8.4298,0 1.95127,5.89514 c 1.0732,3.24232 3.12857,9.33428 4.56749,13.53768 l 2.61621,7.64256 4.42057,-13.36927 4.42059,-13.36924 7.90315,0 c 4.80014,0 7.91461,0.26453 7.93234,0.67372 0.0152,0.37055 -1.06049,0.85591 -2.39231,1.07855 -1.33184,0.22264 -2.71458,0.69789 -3.07281,1.0561 -0.39481,0.39481 -0.5803,7.39915 -0.47103,17.7859 l 0.18021,17.13461 2.79137,0.67374 c 5.53635,1.33625 3.09219,2.01856 -7.9047,2.20659 -8.43725,0.14439 -10.78069,-10e-4 -10.56233,-0.6564 0.15434,-0.46302 1.27681,-1.04559 2.49437,-1.29459 4.12674,-0.84402 4.13127,-0.86374 3.93102,-17.13641 l -0.18201,-14.7845 -5.26177,16.1695 c -2.89399,8.89325 -5.50351,16.6243 -5.79893,17.18012 -1.20763,2.27214 -2.54188,1.42564 -3.93508,-2.49657 z m 81.35822,-5.97444 c 0,-8.78223 0.11757,-9.7955 1.11705,-9.60066 0.70642,0.13781 1.68439,1.90005 2.65979,4.79266 2.64138,7.8327 7.56742,12.60529 13.01101,12.60529 5.27944,0 9.61226,-3.55645 9.72845,-7.98541 0.0901,-3.46301 -1.72181,-5.02231 -7.98881,-6.87252 -15.34736,-4.53106 -18.57215,-7.27233 -17.69627,-15.04297 0.48898,-4.3391 4.3628,-8.56823 9.05022,-9.88066 3.95139,-1.1063 10.37002,-0.47033 13.25628,1.3135 2.95796,1.8281 3.69338,1.78065 4.20861,-0.27143 0.52601,-2.0963 2.14341,-2.19907 2.6508,-0.16851 0.20843,0.83373 0.28994,4.3926 0.18219,7.90863 -0.16059,5.18747 -0.39827,6.43108 -1.26182,6.59615 -0.73759,0.14101 -1.32432,-0.66492 -1.91185,-2.62581 -1.24458,-4.15411 -3.74745,-7.75391 -6.7922,-9.76875 -5.39189,-3.56827 -13.07116,-0.79874 -13.07116,4.71418 0,1.27239 0.39104,2.78463 0.86904,3.36052 0.47782,0.57589 4.85883,2.31544 9.73529,3.86569 10.1171,3.21623 12.70108,4.85861 14.32221,9.10339 1.00105,2.62147 1.03907,3.49572 0.29797,6.85285 -2.11833,9.59531 -14.1459,13.92795 -24.14722,8.69843 -1.91282,-1.0002 -3.62738,-1.81857 -3.80997,-1.81857 -0.18219,0 -0.80222,0.90954 -1.37701,2.0212 -0.57498,1.11165 -1.4922,2.02118 -2.03859,2.02118 -0.82985,0 -0.99323,-1.61611 -0.99323,-9.81849 z m 147.60991,8.93705 c -3.79976,-1.32939 -5.03691,-3.71814 -5.52903,-10.67568 -0.55166,-7.80259 -1.38681,-8.80645 -7.65771,-9.20576 l -4.39336,-0.27976 0,8.51681 0,8.51678 1.72827,0.65707 c 0.95052,0.36136 2.46644,0.65704 3.36859,0.65704 1.0091,0 1.6405,0.38899 1.6405,1.0106 0,0.85747 -1.68439,1.01059 -11.11662,1.01059 -9.43222,0 -11.11641,-0.15316 -11.11641,-1.01059 0,-0.62365 0.63277,-1.0106 1.65265,-1.0106 0.90879,0 2.42471,-0.35183 3.36857,-0.78186 l 1.71594,-0.78188 0,-17.08866 0,-17.08864 -1.72808,-0.65705 c -0.95053,-0.36138 -2.46644,-0.65707 -3.36857,-0.65707 -1.00911,0 -1.64051,-0.38898 -1.64051,-1.01059 0,-0.86597 2.00077,-1.01005 13.97975,-1.00683 7.90182,0.002 15.11562,0.31904 16.59176,0.72896 1.43637,0.39884 3.8125,1.84518 5.28003,3.21408 2.36437,2.20551 2.67371,2.85496 2.71681,5.70408 0.0627,4.15138 -1.49397,6.31133 -6.26034,8.68664 -2.2382,1.11535 -3.14055,1.83958 -2.30854,1.85277 3.43441,0.0543 6.99499,5.1788 7.13524,10.26916 0.13714,4.93619 0.79656,6.91213 2.38612,7.13934 1.9471,0.27832 3.59779,-2.20369 3.59779,-5.40965 0,-1.81308 0.29073,-2.54501 1.01067,-2.54501 1.27437,0 1.38154,4.96618 0.15873,7.34609 -1.84817,3.59605 -6.97891,5.38057 -11.21203,3.89962 z m -7.64283,-23.45366 c 1.93063,-0.71252 4.20529,-4.41306 4.20861,-6.84656 0,-5.30059 -3.55997,-8.56844 -9.35288,-8.56844 -4.81397,0 -4.793,-0.0366 -4.793,8.38142 0,4.15995 0.19923,7.76271 0.44275,8.00615 0.52462,0.52468 7.32507,-0.172 9.49452,-0.97257 z m 41.94006,14.51661 c 0,-8.89506 0.10778,-9.79766 1.15035,-9.59695 0.72446,0.1395 1.66755,1.7238 2.54755,4.2792 2.71759,7.89214 6.66763,12.2429 11.73195,12.92215 3.52766,0.47315 5.56839,-0.0958 8.15669,-2.27367 2.56635,-2.15933 3.5637,-4.51605 2.9993,-7.08613 -0.5403,-2.45978 -4.45898,-4.73386 -10.75321,-6.24013 -10.5003,-2.51281 -15.15891,-6.37008 -15.15891,-12.5511 0,-9.2339 12.66975,-15.26691 21.83144,-10.39557 3.94297,2.09641 4.31557,2.09383 4.8496,-0.0337 0.27721,-1.10505 0.82262,-1.643 1.52866,-1.50775 0.92662,0.17748 1.12703,1.44122 1.28729,8.11847 0.1763,7.34852 0.0999,7.90818 -1.0724,7.90818 -0.89685,0 -1.50512,-0.81098 -2.10165,-2.80193 -1.23676,-4.12803 -3.74589,-7.73093 -6.78399,-9.74147 -2.26622,-1.49976 -3.21596,-1.72636 -6.08128,-1.45104 -5.32625,0.51179 -7.9263,3.71396 -6.53185,8.04481 0.68997,2.14288 2.39297,2.98123 12.15883,5.98519 8.90308,2.73862 12.19644,5.36364 12.93853,10.31315 0.9905,6.60476 -3.59995,13.58619 -10.08048,15.33124 -4.31088,1.16078 -10.36611,0.47974 -14.37588,-1.61687 -1.92476,-1.00649 -3.64912,-1.82997 -3.83169,-1.82997 -0.18219,0 -0.80224,0.90952 -1.37703,2.02118 -0.57498,1.11165 -1.49221,2.0212 -2.03857,2.0212 -0.82985,0 -0.99325,-1.61612 -0.99325,-9.81849 z m 77.47896,0 c 0,-8.89506 0.10778,-9.79766 1.15036,-9.59695 0.73346,0.14119 1.68633,1.7783 2.62962,4.51733 3.68575,10.7039 11.02473,15.31907 18.38723,11.56305 3.11665,-1.58997 5.08469,-5.2062 4.43744,-8.15336 -0.56049,-2.55203 -4.38279,-4.79661 -10.77203,-6.3256 -10.50029,-2.51281 -15.1589,-6.37008 -15.1589,-12.5511 0,-9.2339 12.66974,-15.26691 21.83142,-10.39557 3.94297,2.09641 4.31559,2.09383 4.84962,-0.0337 0.27721,-1.10505 0.8226,-1.643 1.52864,-1.50775 0.92664,0.17748 1.12705,1.44122 1.28729,8.11847 0.17632,7.31237 0.096,7.90818 -1.05593,7.90818 -0.91388,0 -1.54626,-0.953 -2.37338,-3.5772 -1.30649,-4.14471 -4.898,-8.66344 -7.86107,-9.89083 -2.90762,-1.20435 -7.80837,-0.516 -9.82697,1.38032 -2.10734,1.97968 -2.26681,6.06356 -0.30816,7.88829 0.73367,0.68361 4.9748,2.34486 9.42439,3.69164 8.73892,2.64494 12.06832,4.63282 13.77171,8.22262 3.06748,6.46435 -1.64835,15.84621 -8.99046,17.88583 -5.27943,1.4666 -11.74645,0.58891 -15.64378,-2.12316 -2.43097,-1.69157 -3.05768,-1.57769 -4.27522,0.77678 -0.57498,1.11165 -1.4922,2.0212 -2.03859,2.0212 -0.82985,0 -0.99323,-1.61612 -0.99323,-9.81849 z m 136.50485,9.26554 c -0.18807,-0.30413 -2.85865,-8.11099 -5.93475,-17.34856 l -5.59326,-16.79559 -0.20571,10.44282 c -0.27504,13.9563 0.15468,17.23208 2.57477,19.65278 1.04868,1.04861 2.53619,1.90656 3.30589,1.90656 0.7946,0 1.39916,0.43667 1.39916,1.0106 0,0.84649 -1.42227,1.01059 -8.7583,1.01059 -7.33624,0 -8.75851,-0.16412 -8.75851,-1.01059 0,-0.55583 0.57418,-1.0106 1.27611,-1.0106 0.70194,0 2.191,-0.85453 3.30902,-1.89894 2.65864,-2.48348 2.94074,-4.68457 2.69037,-20.99219 l -0.20139,-13.12205 -1.68439,-0.49617 c -0.92624,-0.27287 -2.51796,-0.66468 -3.53705,-0.87067 -1.01891,-0.20598 -1.85267,-0.68099 -1.85267,-1.05556 0,-0.43302 3.1139,-0.61234 8.55064,-0.49244 l 8.55066,0.18844 4.37729,12.96932 c 2.40748,7.13309 4.54754,12.9648 4.7554,12.9593 0.20805,-0.005 2.30364,-5.91748 4.65684,-13.13773 l 4.27857,-13.12775 8.01701,0 c 6.67702,0 8.01701,0.16886 8.01701,1.01059 0,0.69689 -0.69958,1.01059 -2.25369,1.01059 -4.35222,0 -4.48367,0.5483 -4.48367,18.71085 0,16.02514 0.0196,16.26102 1.4975,17.29553 0.82339,0.57683 2.33929,1.04879 3.36857,1.04879 1.21422,0 1.87129,0.35485 1.87129,1.01059 0,0.8562 -1.64698,1.01059 -10.77966,1.01059 -9.13289,0 -10.77967,-0.15434 -10.77967,-1.01059 0,-0.63571 0.6412,-1.01059 1.72868,-1.01059 0.95072,0 2.315,-0.31384 3.03162,-0.69745 1.23225,-0.65943 1.30041,-1.53097 1.25006,-16.00108 -0.0294,-8.417 -0.1567,-15.00046 -0.28151,-14.62994 -0.12533,0.37055 -1.93495,5.97937 -4.02094,12.46402 -5.7353,17.82959 -7.14308,21.55937 -8.13691,21.55937 -0.49642,0 -1.05632,-0.24882 -1.24438,-0.55295 z m 109.36165,-0.0874 c -2.88527,-0.87521 -6.93208,-3.91432 -8.71364,-6.54385 -1.4589,-2.1537 -1.68419,-3.22832 -1.68419,-8.03577 0,-5.06877 0.17436,-5.80271 2.02212,-8.471 2.51896,-3.63904 9.25671,-7.30395 13.40969,-7.29403 5.65106,0.0135 12.62488,4.92067 14.97026,10.53402 1.09432,2.61922 1.18463,6.35628 0.23587,9.7718 -0.85512,3.07895 -5.27239,7.69782 -8.9654,9.37456 -2.88939,1.31186 -8.12318,1.62021 -11.27471,0.66427 z m 8.75969,-2.68456 c 4.11186,-4.11184 4.29874,-19.43051 0.28603,-23.44317 -1.53002,-1.53012 -4.88549,-2.03133 -7.32703,-1.09447 -2.15751,0.82794 -3.69497,5.95498 -3.69497,12.32205 0,6.42826 0.78128,9.65534 2.90567,12.00341 1.77901,1.96615 5.96294,2.07954 7.8303,0.21218 z m 74.49102,2.08037 c -7.97724,-3.80624 -11.20908,-12.71602 -7.50081,-20.67923 3.89537,-8.36526 13.86712,-11.53387 20.81938,-6.61552 4.2004,2.97147 5.48514,5.10939 5.51766,9.18125 l 0.0275,3.52536 -9.60071,0.18689 -9.6005,0.1869 0,2.84484 c 0,4.23896 1.17444,7.66695 3.14212,9.21467 2.27777,1.79176 6.58474,1.80731 9.49275,0.0342 2.36281,-1.44069 4.87177,-4.9959 4.87587,-6.90938 0,-0.64847 0.45726,-1.17902 1.01304,-1.17902 2.58515,0 0.20315,6.41662 -3.40287,9.1672 -2.15025,1.64004 -3.26142,1.96373 -7.31411,2.13069 -3.61855,0.14911 -5.43303,-0.11538 -7.47376,-1.08899 z m 10.75302,-20.77873 c -0.0332,-4.32017 -1.52532,-6.27341 -4.794,-6.27341 -2.86157,0 -4.7501,1.85242 -5.28492,5.18383 -0.22646,1.41024 -0.5211,3.10647 -0.65509,3.76943 -0.2206,1.09171 0.27523,1.187 5.25846,1.01061 l 5.50218,-0.19474 -0.0255,-3.49565 z m 106.06335,21.01291 c -3.6127,-1.96345 -4.2617,-8.2713 -1.1878,-11.54339 1.6104,-1.71416 6.9527,-3.93452 12.1467,-5.04844 l 3.265,-0.70019 0,-4.29971 c 0,-4.90077 -0.73,-5.70211 -5.1772,-5.68427 -3.9696,0.0152 -4.7072,0.7511 -3.4203,3.40843 1.6242,3.35373 0.053,6.01346 -3.5541,6.01346 -4.2933,0 -5.3349,-4.88144 -1.7969,-8.41955 3.8153,-3.81511 10.8459,-4.80637 16.5183,-2.32885 5.4437,2.3775 5.8174,3.36189 6.0788,16.00643 0.1567,7.54847 0.457,10.90804 0.9625,10.73958 0.8512,-0.28375 1.4438,-1.37467 2.285,-4.20733 0.7767,-2.61549 1.8597,-2.33339 2.1179,0.55177 0.1567,1.74545 -0.2529,2.75203 -1.7862,4.39331 -1.7115,1.83217 -2.4516,2.1291 -5.3065,2.1291 -2.5969,0 -3.6362,-0.33879 -4.7828,-1.55932 -0.8058,-0.85762 -1.4648,-1.97547 -1.4648,-2.4841 0,-0.5796 -0.6917,-0.26505 -1.8529,0.8427 -1.0189,0.97215 -2.7062,2.09 -3.7494,2.48412 -2.6302,0.99379 -7.1915,0.84965 -9.2953,-0.29375 z m 12.1328,-4.7398 c 1.8387,-2.09412 2.0911,-2.86618 2.0911,-6.39769 l 0,-4.01619 -3.4454,1.30912 c -1.895,0.72003 -3.5214,1.40093 -3.6143,1.51316 -1.7504,2.11435 -2.2985,7.75645 -0.8903,9.16462 1.4714,1.47147 3.7147,0.86922 5.8589,-1.57302 z m 18.0359,5.30099 c -0.247,-0.24703 -0.4445,-3.05144 -0.4388,-6.232 0.02,-8.20954 1.4366,-9.84976 3.3508,-3.86496 0.4558,1.42541 2.1079,3.92661 3.6712,5.55826 2.5347,2.64521 3.171,2.96666 5.8725,2.96666 2.2885,0 3.3637,-0.37087 4.3945,-1.51588 2.0813,-2.31193 2.3007,-2.94976 1.6256,-4.72531 -0.4891,-1.28678 -1.9569,-2.1192 -6.8427,-3.88097 -8.0102,-2.88832 -9.4669,-4.1339 -9.877,-8.44505 -0.3628,-3.8157 1.0528,-6.24404 4.7599,-8.16547 3.9309,-2.03727 6.4907,-2.25611 10.3842,-0.88772 3.0696,1.07891 3.6638,1.12308 3.9812,0.29595 0.205,-0.5347 0.7953,-0.97222 1.3115,-0.97222 0.7241,0 0.9386,1.23202 0.9386,5.38985 0,5.90013 -1.0714,7.24307 -2.553,3.20022 -0.4414,-1.2043 -1.5054,-3.06229 -2.3642,-4.12886 -3.025,-3.75616 -11.2524,-3.01217 -11.2524,1.01752 0,1.63874 1.9391,2.76232 8.6085,4.98809 7.1991,2.40255 9.5822,4.82632 9.5822,9.74508 0,2.78363 -0.353,3.72385 -2.179,5.80362 -2.736,3.11611 -5.5382,4.30235 -10.163,4.30235 -2.5614,0 -4.5447,-0.48807 -6.7518,-1.66159 l -3.1251,-1.66159 -0.4169,1.66159 c -0.4002,1.59449 -1.5707,2.1584 -2.5168,1.21243 z m 38.6272,-0.58984 c -3.2611,-1.46109 -5.8975,-4.11614 -7.8107,-7.86553 -6.086,-11.92728 6.953,-26.27301 18.9332,-20.83055 5.0476,2.29319 8.3048,7.54137 7.632,12.29827 -0.2255,1.5938 -0.2887,1.60535 -9.8275,1.79107 l -9.6007,0.18689 0,2.37809 c 0,4.0453 1.4069,8.31355 3.2071,9.72953 4.3565,3.42687 12.9718,-0.17043 14.0395,-5.86219 0.2572,-1.37043 0.8177,-2.24004 1.444,-2.24004 0.8058,0 0.9371,0.53502 0.6164,2.5107 -0.4577,2.81991 -1.9971,5.16566 -4.7292,7.2054 -2.4547,1.83266 -10.4734,2.2354 -13.9041,0.69831 z m 10.6697,-19.09273 c 0.3401,-2.40524 -0.4833,-5.96704 -1.6489,-7.13269 -1.1674,-1.16733 -4.4515,-1.36166 -6.2993,-0.37275 -1.4814,0.79288 -2.7215,4.08129 -2.7215,7.21727 l 0,2.28586 5.2214,-0.19677 c 4.9213,-0.18551 5.2346,-0.28898 5.4483,-1.80092 z m -834.63448,18.61584 c 0.003,-0.46321 1.16812,-1.32957 2.58747,-1.92528 3.52403,-1.47906 5.5614,-4.41221 8.84123,-12.72835 1.53449,-3.89079 3.06387,-7.68053 3.39861,-8.42164 0.33475,-0.74111 1.68858,-4.22764 3.00851,-7.74789 3.93844,-10.50373 4.10128,-10.77969 6.36094,-10.77969 1.09577,0 2.23282,0.37899 2.52678,0.84217 0.61799,0.9738 4.44242,10.271 10.73939,26.10705 2.43097,6.11411 4.92406,11.51433 5.53979,12.00053 0.61592,0.48622 1.95356,1.05467 2.97246,1.26326 1.0191,0.20857 1.85288,0.79611 1.85288,1.30562 0,0.74617 -2.03154,0.92637 -10.44291,0.92637 -8.83333,0 -10.4428,-0.15569 -10.4428,-1.01059 0,-0.57216 0.6038,-1.01059 1.39175,-1.01059 2.02768,0 3.99809,-1.22854 3.99809,-2.49286 0,-0.60388 -0.95191,-3.48356 -2.11558,-6.39926 l -2.1154,-5.30126 -6.75045,0.19101 -6.75042,0.191 -1.59877,4.7161 c -2.24757,6.63006 -1.8954,7.45244 4.00326,9.34792 0.64847,0.20839 1.17903,0.69158 1.17903,1.07376 0,0.44303 -3.29643,0.69487 -9.09536,0.69487 -6.83079,0 -9.09364,-0.20968 -9.0885,-0.84216 z m 26.57062,-18.86443 c -0.25441,-0.83373 -0.99194,-2.72861 -1.63897,-4.21082 -0.64704,-1.4822 -1.72741,-4.17214 -2.40083,-5.97763 -0.98321,-2.63609 -1.32177,-3.03422 -1.71877,-2.0212 -0.27193,0.69386 -1.54954,4.06592 -2.83912,7.49353 l -2.34473,6.232 5.70249,0 c 5.60156,0 5.69428,-0.0268 5.23993,-1.51588 z m 65.21511,18.87405 c 0.15283,-0.45791 1.61799,-1.06069 3.25634,-1.33949 1.63836,-0.27883 3.3578,-1.02326 3.82093,-1.65427 0.62042,-0.84514 0.8422,-5.55553 0.8422,-17.88297 0,-18.77374 0,-18.79828 -4.64746,-16.30254 -2.79928,1.50544 -5.3625,5.73746 -6.47974,10.69823 -0.48016,2.13156 -1.12234,3.39617 -1.72456,3.39617 -0.7793,0 -0.95973,-1.58351 -0.95973,-8.42163 l 0,-8.42162 17.68549,-0.17964 17.68531,-0.17964 0,8.76967 c 0,8.41864 -0.48506,10.34795 -1.90871,7.59064 -0.33479,-0.64845 -0.8228,-2.39173 -1.08452,-3.87395 -0.96346,-5.45815 -5.39385,-10.80475 -8.54812,-10.316 -1.32038,0.20459 -1.35388,0.66623 -1.28631,17.71465 0.0391,9.62751 0.30895,17.74413 0.60183,18.03689 0.29268,0.29279 1.8509,0.75745 3.46281,1.0326 1.61172,0.27517 3.05534,0.87492 3.20794,1.33283 0.21353,0.64056 -2.54499,0.83257 -11.96194,0.83257 -9.41674,0 -12.17529,-0.19199 -11.96176,-0.83257 z m 31.49992,-0.17809 c 0,-0.65572 0.65726,-1.01059 1.87129,-1.01059 1.02928,0 2.54519,-0.47195 3.36878,-1.04879 1.47771,-1.03504 1.49729,-1.26425 1.49729,-17.47878 0,-16.21453 -0.0196,-16.44373 -1.49729,-17.47878 -0.82359,-0.57683 -2.3395,-1.04881 -3.36878,-1.04881 -1.22304,0 -1.87129,-0.35382 -1.87129,-1.02159 0,-0.89199 2.2866,-0.99883 18.02246,-0.84216 l 18.02225,0.17944 0,7.41101 c 0,6.0459 -0.18024,7.41104 -0.98305,7.41104 -0.55832,0 -1.16759,-0.90276 -1.41032,-2.0899 -0.84336,-4.12286 -3.51551,-7.93797 -6.67642,-9.53192 -3.32078,-1.67466 -9.30646,-2.07148 -10.67055,-0.70744 -0.52424,0.52417 -0.8085,3.24887 -0.8085,7.7479 l 0,6.93942 2.38867,0 c 3.1047,0 5.39091,-2.26376 6.01467,-5.95545 0.29424,-1.74132 0.83397,-2.80306 1.425,-2.80306 0.7797,0 0.95132,1.94513 0.95132,10.77971 0,8.68653 -0.18024,10.77967 -0.92447,10.77967 -0.5603,0 -1.09727,-1.08042 -1.36291,-2.74235 -0.57929,-3.6224 -2.05446,-5.75385 -4.59495,-6.63946 -4.31461,-1.50408 -4.25525,-1.62225 -4.02839,8.02949 0.23666,10.06792 0.50799,10.505 6.17923,9.96006 6.78399,-0.65187 11.28254,-4.77135 12.89425,-11.80795 0.48232,-2.10557 1.17583,-3.53708 1.71358,-3.53708 0.70898,0 0.90333,1.88429 0.90333,8.75849 l 0,8.75849 -18.52751,0 c -16.0199,0 -18.52769,-0.1368 -18.52769,-1.01061 z m 151.58932,0.0152 c 0,-0.68735 0.65687,-1.02614 1.98962,-1.02614 1.09412,0 2.76166,-0.35183 3.70552,-0.78188 1.68283,-0.76678 1.71594,-0.92067 1.71594,-7.97535 l 0,-7.19347 -4.66429,-8.92602 c -5.26945,-10.08414 -6.19039,-11.31104 -9.0465,-12.05112 -1.11665,-0.28935 -2.15182,-0.89113 -2.30069,-1.33729 -0.20296,-0.60932 2.34263,-0.81121 10.22857,-0.81121 8.8833,0 10.49893,0.15552 10.49893,1.01059 0,0.55583 -0.58146,1.01059 -1.29219,1.01059 -1.93044,0 -3.42383,0.71395 -3.42383,1.63688 0,0.98613 5.5349,12.34231 6.85824,14.07139 0.85649,1.1191 1.2099,0.73505 4.15807,-4.51712 3.94885,-7.03507 4.10322,-9.79547 0.60554,-10.82517 -1.20423,-0.35455 -2.18962,-1.03668 -2.18962,-1.51588 0,-0.66785 2.04485,-0.87128 8.75851,-0.87128 5.28981,0 8.75851,0.26233 8.75851,0.66238 0,0.36432 -1.48203,1.41332 -3.29316,2.33112 -4.10753,2.08143 -6.88175,5.29191 -11.37775,13.16686 l -3.51983,6.16519 0,7.61992 0,7.61994 1.85267,0.72824 c 1.01909,0.40053 2.76246,0.81627 3.87402,0.92391 1.11156,0.10762 2.02114,0.49883 2.02114,0.86939 0,0.41694 -4.55791,0.74384 -11.9586,0.8577 -10.34201,0.15906 -11.95882,0.0452 -11.95882,-0.84215 z m 76.29688,0.16261 c 0.15282,-0.4579 1.57448,-1.05396 3.15974,-1.32459 4.94992,-0.84503 4.7597,-0.0659 4.7597,-19.48471 l 0,-17.43449 -1.51591,0.002 c -4.17845,0.008 -8.79731,6.00769 -9.72118,12.62995 -0.24744,1.774 -0.74916,2.86336 -1.31845,2.86336 -0.72916,0 -0.91899,-1.81195 -0.91899,-8.76968 l 0,-8.76967 17.6853,0.17964 17.6855,0.17965 0,8.42162 c 0,6.72869 -0.18806,8.42164 -0.93388,8.42164 -0.56224,0 -1.29375,-1.40685 -1.83875,-3.53663 -1.78372,-6.97017 -5.36761,-11.62231 -8.95325,-11.62231 -1.39778,0 -1.41188,0.17808 -1.41188,17.8141 0,10.96402 0.25506,17.97172 0.66333,18.22407 0.36497,0.22549 1.93279,0.62667 3.48417,0.89152 1.55136,0.26486 2.94562,0.85621 3.09823,1.31411 0.21353,0.64056 -2.5452,0.83255 -11.96194,0.83255 -9.41675,0 -12.17529,-0.19199 -11.96174,-0.83255 z m 31.4999,-0.17808 c 0,-0.69689 0.69958,-1.01059 2.25369,-1.01059 4.35222,0 4.48367,-0.54827 4.48367,-18.71085 0,-16.02514 -0.0196,-16.261 -1.4973,-17.29549 -0.82359,-0.57685 -2.33949,-1.04882 -3.36877,-1.04882 -1.21422,0 -1.87129,-0.35485 -1.87129,-1.0106 0,-0.87337 2.4729,-1.01059 18.21287,-1.01059 l 18.21268,0 -0.19004,7.52458 c -0.20882,8.25268 -1.21265,10.26218 -2.57319,5.15143 -1.38172,-5.18978 -3.25693,-7.75647 -6.77125,-9.26833 -3.48201,-1.4979 -8.0035,-1.80663 -10.09165,-0.68905 -1.16093,0.62133 -1.30316,1.46685 -1.30316,7.74788 l 0,7.05049 2.26721,0 c 3.35624,0 5.65009,-2.12809 6.19234,-5.74535 0.28544,-1.90226 0.79635,-3.01316 1.38604,-3.01316 0.75737,0 0.93408,2.03926 0.93408,10.7797 0,8.68655 -0.18024,10.77967 -0.92448,10.77967 -0.56224,0 -1.09864,-1.08894 -1.36898,-2.7793 -0.62417,-3.90346 -1.51631,-5.27704 -4.13947,-6.37309 -4.3769,-1.82873 -4.34674,-1.88267 -4.34674,7.78123 0,7.94629 0.11757,8.79773 1.30316,9.43222 3.2575,1.74335 10.71443,-0.066 13.87711,-3.36716 1.05593,-1.1022 2.55538,-4.00631 3.37582,-6.53862 0.88079,-2.71826 1.8521,-4.55572 2.40806,-4.55572 0.51269,0 0.90176,0.37897 0.86474,0.84218 -0.0373,0.46318 -0.11369,4.32871 -0.16851,8.59005 l -0.10189,7.74788 -18.52748,0 c -16.01993,0 -18.52769,-0.13679 -18.52769,-1.01059 z m 123.08635,0.57977 c -0.77088,-0.77093 0.24666,-1.59036 1.97473,-1.59036 0.92878,0 2.27524,-0.31384 2.99204,-0.69743 1.23598,-0.66144 1.30317,-1.58088 1.30317,-17.81408 0,-12.7116 -0.2108,-17.24696 -0.81928,-17.623 -0.45057,-0.2785 -1.86579,-0.67645 -3.14485,-0.88435 -1.27906,-0.20791 -2.45861,-0.77705 -2.6212,-1.26477 -0.23998,-0.71975 2.54088,-0.84616 14.7667,-0.67127 15.02394,0.21488 15.07017,0.2201 18.19779,2.05866 4.32989,2.5454 6.35847,6.63849 5.27807,10.65039 -0.77873,2.89246 -3.01185,5.46512 -6.15925,7.09623 -1.75786,0.91095 -8.40862,2.10547 -13.70765,2.46195 l -2.69506,0.18121 0.0294,7.23929 c 0.0196,4.5332 0.32108,7.52991 0.80791,8.01681 0.42767,0.42763 1.90497,0.96079 3.28298,1.18477 1.37799,0.22398 2.63138,0.78513 2.78537,1.24697 0.21589,0.64776 -2.2488,0.83974 -10.78045,0.83974 -6.08323,0 -11.25434,-0.19395 -11.49138,-0.43084 z m 26.53354,-23.0979 c 1.72926,-1.72919 1.96826,-2.44814 1.96022,-5.89513 0,-2.15917 -0.18022,-4.56578 -0.39083,-5.348 -0.81046,-3.01924 -8.7536,-5.52647 -11.66652,-3.68248 -0.68273,0.43229 -1.03868,2.59698 -1.26553,7.69967 -0.17437,3.90406 -0.13511,7.57013 0.0862,8.14681 0.30796,0.80249 1.44695,1.04851 4.85452,1.04851 4.02271,0 4.64235,-0.19003 6.42156,-1.96938 z m 57.29253,17.63358 c -1.2336,-3.24232 -2.63138,-6.80467 -3.10626,-7.91631 -0.47486,-1.11167 -1.08825,-2.77914 -1.36311,-3.70551 -1.06806,-3.60056 -4.42587,-9.43223 -5.43086,-9.43223 -0.57499,0 -1.67264,-0.33577 -2.4394,-0.74615 -1.11549,-0.59692 -1.20756,-0.86221 -0.46097,-1.32649 1.26182,-0.78477 35.0309,-0.74349 36.2984,0.0445 1.35311,0.84112 0.23215,1.86316 -2.35243,2.14484 -2.63217,0.28687 -2.55773,1.68807 0.51407,9.67939 1.27631,3.32018 2.53421,6.63798 2.79516,7.37293 0.38496,1.08396 0.79714,0.57521 2.18355,-2.69492 2.60083,-6.13479 4.46016,-12.34904 4.03035,-13.46946 -0.21217,-0.55248 -1.07729,-1.00917 -1.9226,-1.01482 -0.84534,-0.005 -1.99177,-0.30887 -2.54755,-0.67374 -0.89842,-0.58972 -0.89842,-0.73713 0,-1.32683 1.09844,-0.72121 12.02444,-0.9397 13.75623,-0.2751 1.96218,0.7529 1.09981,2.1083 -1.61758,2.54284 -3.32706,0.53201 -3.67752,1.05373 -8.43722,12.55749 -6.06052,14.64737 -5.75354,14.11827 -8.19686,14.12713 -1.87853,0.005 -2.23606,-0.29826 -2.95131,-2.51877 -0.44744,-1.38958 -1.03731,-2.82967 -1.3104,-3.20023 -0.27329,-0.37055 -1.03223,-2.34121 -1.68654,-4.37923 -2.23194,-6.95258 -2.27681,-6.9584 -4.86217,-0.63126 -4.59278,11.24023 -4.28502,10.7372 -6.57064,10.7372 -1.99372,0 -2.1712,-0.24226 -4.32186,-5.89515 z m 10.01623,-8.66634 2.15123,-5.46617 -1.40444,-3.08305 c -1.67343,-3.67335 -1.99804,-3.91249 -5.37445,-3.9591 -4.95503,-0.0683 -5.02574,0.27036 -1.78255,8.54223 1.598,4.07608 3.09784,7.98498 3.33254,8.6865 0.55853,1.66829 0.57068,1.6495 3.07767,-4.72041 z m 61.46413,13.79809 c 0.13916,-0.41987 1.30217,-1.10203 2.58261,-1.5159 l 2.32813,-0.75248 0,-11.79027 0,-11.7903 -2.13927,-0.20736 c -1.17681,-0.11402 -2.49212,-0.63212 -2.92291,-1.15128 -0.97169,-1.17082 0.13714,-1.44315 7.92552,-1.94588 l 5.55842,-0.3588 0.0196,2.50539 c 0.0196,2.4821 0.0255,2.49198 1.17915,1.06226 1.4162,-1.75565 4.96109,-3.60982 6.90173,-3.60982 3.06081,0 6.68289,3.11284 6.7115,5.76808 0.0235,2.20551 -2.42512,4.33785 -4.98187,4.33785 -2.66567,0 -3.98626,-1.35098 -3.98626,-4.07827 0,-1.1878 -0.35459,-1.98528 -0.88274,-1.98528 -2.48721,0 -4.91781,8.20107 -4.9423,16.67482 -0.0196,5.45373 1.20874,7.57945 4.36535,7.57945 1.0481,0 1.68419,0.38178 1.68419,1.01059 0,0.85212 -1.54078,1.01059 -9.8252,1.01059 -7.02005,0 -9.75253,-0.21793 -9.57073,-0.76339 z m 47.01889,-0.20239 c 0,-0.68383 0.6087,-1.0554 1.7287,-1.0554 0.9507,0 2.31497,-0.31384 3.03174,-0.69743 1.23597,-0.66146 1.30317,-1.58108 1.30317,-17.83014 0,-16.24909 -0.067,-17.16867 -1.30317,-17.83015 -0.71677,-0.38359 -2.08104,-0.69744 -3.03174,-0.69744 -1.0875,0 -1.7287,-0.37487 -1.7287,-1.0106 0,-0.86742 2.0827,-1.01059 14.70106,-1.01059 l 14.7013,0 3.623,1.85277 c 4.7088,2.40791 6.6179,5.72498 5.4803,9.52215 -0.9655,3.22224 -3.2377,5.33692 -6.937,6.4559 l -2.9353,0.88791 3.1837,0.8224 c 5.3656,1.38608 7.9345,4.58969 7.9304,9.89029 0,4.06699 -1.6963,6.96041 -5.5314,9.45262 l -2.8878,1.87664 -15.6641,0.21323 c -13.86066,0.18865 -15.66416,0.0916 -15.66416,-0.84216 z m 25.60766,-2.14702 c 4.0485,-1.61998 5.7596,-5.81281 4.5967,-11.26516 -1.0013,-4.69422 -2.907,-5.99759 -9.3121,-6.36838 l -5.3966,-0.31241 0,8.86677 c 0,8.56545 0.051,8.88746 1.5159,9.47608 2.3581,0.94784 5.6105,0.79769 8.5961,-0.3969 z m -1.205,-21.1714 c 1.3786,-0.3829 2.9703,-1.3582 3.537,-2.16735 1.1935,-1.70381 1.3761,-7.35164 0.3025,-9.35746 -0.9388,-1.75412 -4.5883,-3.26733 -7.8801,-3.26733 -4.3261,0 -4.7745,0.77021 -5.0022,8.59154 l -0.2012,6.9072 3.3688,-0.005 c 1.8527,-0.002 4.4966,-0.31848 5.8752,-0.70138 z"
       id="path6089"
       inkscape:connector-curvature="0" />
    <g
       id="g6243"
       style="fill:#f4f4f4;fill-opacity:1"
       transform="translate(-244.47205,-65.911582)">
      <g
         transform="translate(115.33004,350.3077)"
         id="g4834"
         style="fill:#f4f4f4;fill-opacity:1">
        <path
           style="fill:#f4f4f4;fill-opacity:1"
           inkscape:connector-curvature="0"
           id="path4836"
           d="m 200.466,53.057 19.703,0 0,-8.715 -28.419,0 -0.001,12.61 c 0,3.917 3.176,7.093 7.093,7.093 l 26.631,0 0,-8.715 -25.008,0 0,-2.273 z" />
        <path
           style="fill:#f4f4f4;fill-opacity:1"
           inkscape:connector-curvature="0"
           id="path4838"
           d="m 181.495,29.208 0,28.646 c 0,9.04 7.329,16.369 16.369,16.369 l 27.585,0 0,-8.715 -26.646,0 c -4.746,0 -8.593,-3.847 -8.593,-8.593 l 0,-26.767 c 0,-4.746 3.847,-8.593 8.593,-8.593 l 26.646,0 0,-8.715 -27.585,0 c -9.04,-10e-4 -16.369,7.328 -16.369,16.368 z" />
        <path
           style="fill:#f4f4f4;fill-opacity:1"
           inkscape:connector-curvature="0"
           id="path4840"
           d="m 191.75,30.11 0.001,12.61 28.419,0 0,-8.715 -19.703,0 0,-2.273 25.008,0 0,-8.715 -26.631,0 c -3.918,-0.001 -7.094,3.175 -7.094,7.093 z" />
        <path
           style="fill:#f4f4f4;fill-opacity:1"
           inkscape:connector-curvature="0"
           id="path4842"
           d="m 274.407,31.785 0,-8.715 -27.768,0 c -3.917,0 -7.093,3.176 -7.093,7.093 l 0,26.736 c 0,3.917 3.176,7.093 7.093,7.093 l 17.537,0 0,-19.703 -13.641,0 0,8.715 4.926,0 0,2.273 -7.199,0 0,-23.492 26.145,0 z" />
        <path
           style="fill:#f4f4f4;fill-opacity:1"
           inkscape:connector-curvature="0"
           id="path4844"
           d="m 316.528,20.528 c -1.713,-5.342 -6.721,-9.209 -12.632,-9.209 -5.784,0 -10.704,3.703 -12.517,8.867 l -16.849,52.138 0,-38.27 -23.872,0 0,8.715 15.157,0 0,22.735 -19.067,0 c -4.746,0 -8.593,-3.847 -8.593,-8.593 l 0,-26.767 c 0,-4.746 3.847,-8.593 8.593,-8.593 l 27.782,0 0,-8.715 -28.722,0 c -9.04,0 -16.369,7.329 -16.369,16.369 l 0,28.645 c 0,9.04 7.329,16.369 16.369,16.369 l 28.722,0 8.904,0 17.007,-52.626 c 0.521,-1.402 1.871,-2.401 3.454,-2.401 1.526,0 2.835,0.928 3.395,2.25 l 14.32,44.062 -20.746,0 0,8.715 33.155,0 -17.491,-53.691 z" />
        <path
           style="fill:#f4f4f4;fill-opacity:1"
           inkscape:connector-curvature="0"
           id="path4846"
           d="m 307.22,55.297 -6.252,0 0,8.715 18.662,0 -13.655,-41.946 c -0.325,-0.769 -1.087,-1.309 -1.975,-1.309 -0.888,0 -1.65,0.54 -1.975,1.309 l -16.971,52.177 9.568,0 9.473,-28.608 3.125,9.662 z" />
        <path
           style="fill:#f4f4f4;fill-opacity:1"
           inkscape:connector-curvature="0"
           id="path4848"
           d="m 157.089,34.099 -8.241,-0.015 0,-2.274 27.471,0 0,-8.71 -26.335,0 c -5.438,0 -9.847,4.409 -9.847,9.847 0,5.438 4.409,9.847 9.847,9.847 l 7.105,0.053 c 6.252,0 11.32,5.163 11.32,11.415 0,6.252 -5.068,11.32 -11.32,11.225 l -27.187,0 0,8.762 27.187,-0.015 c 11.135,0 20.162,-8.837 20.162,-19.972 0,-11.136 -9.027,-20.163 -20.162,-20.163 z" />
        <path
           style="fill:#f4f4f4;fill-opacity:1"
           inkscape:connector-curvature="0"
           id="path4850"
           d="m 149.887,52.963 8.052,0 0,2.289 -28.04,0 0,8.715 26.998,-0.005 c 5.438,0 9.847,-4.314 9.847,-9.752 0,-5.438 -4.408,-9.941 -9.847,-9.941 l -7.01,-0.053 c -6.252,0 -11.32,-5.068 -11.32,-11.32 0,-6.252 5.068,-11.32 11.32,-11.32 l 26.429,-0.047 0,-8.795 -26.429,0 c -11.135,0 -20.162,9.027 -20.162,20.162 0,11.134 9.027,20.161 20.162,20.067 z" />
      </g>
      <g
         transform="matrix(2.2809,0,0,2.2809,-325.67867,207.64889)"
         id="g4854"
         style="fill:#f4f4f4;fill-opacity:1">
        <path
           inkscape:connector-curvature="0"
           id="path4856"
           d="m 337.866,67.427 c 0.569,0 1.125,0.146 1.667,0.438 0.543,0.293 0.965,0.711 1.268,1.254 0.303,0.544 0.454,1.111 0.454,1.702 0,0.584 -0.149,1.146 -0.447,1.685 -0.298,0.54 -0.716,0.959 -1.254,1.257 -0.538,0.298 -1.101,0.447 -1.688,0.447 -0.588,0 -1.15,-0.149 -1.688,-0.447 -0.537,-0.298 -0.956,-0.717 -1.256,-1.257 -0.3,-0.539 -0.449,-1.101 -0.449,-1.685 0,-0.591 0.152,-1.158 0.456,-1.702 0.304,-0.543 0.728,-0.961 1.27,-1.254 0.542,-0.293 1.098,-0.438 1.667,-0.438 z m 0,0.561 c -0.477,0 -0.94,0.122 -1.392,0.366 -0.452,0.244 -0.804,0.594 -1.059,1.047 -0.254,0.454 -0.382,0.927 -0.382,1.419 0,0.488 0.125,0.956 0.375,1.404 0.251,0.448 0.601,0.797 1.05,1.047 0.449,0.25 0.919,0.376 1.407,0.376 0.488,0 0.957,-0.126 1.406,-0.376 0.45,-0.25 0.799,-0.599 1.048,-1.047 0.248,-0.448 0.373,-0.916 0.373,-1.404 0,-0.492 -0.127,-0.965 -0.38,-1.419 -0.253,-0.453 -0.606,-0.803 -1.059,-1.047 -0.453,-0.244 -0.913,-0.366 -1.387,-0.366 z m -1.488,4.706 0,-3.649 1.254,0 c 0.429,0 0.739,0.033 0.931,0.101 0.192,0.068 0.345,0.186 0.459,0.353 0.113,0.168 0.17,0.347 0.17,0.535 0,0.267 -0.095,0.499 -0.285,0.696 -0.19,0.198 -0.442,0.31 -0.757,0.333 0.129,0.054 0.231,0.118 0.31,0.193 0.147,0.144 0.327,0.385 0.54,0.724 l 0.444,0.715 -0.719,0 -0.324,-0.575 c -0.254,-0.453 -0.46,-0.736 -0.615,-0.85 -0.108,-0.084 -0.266,-0.126 -0.472,-0.126 l -0.347,0 0,1.551 -0.589,0 z m 0.589,-2.054 0.715,0 c 0.342,0 0.574,-0.051 0.699,-0.152 0.124,-0.102 0.187,-0.236 0.187,-0.404 0,-0.108 -0.03,-0.205 -0.09,-0.29 -0.061,-0.086 -0.144,-0.149 -0.25,-0.191 -0.106,-0.042 -0.303,-0.063 -0.591,-0.063 l -0.67,0 0,1.1 z"
           style="fill:#f4f4f4;fill-opacity:1" />
      </g>
    </g>
  </g>
</svg>
