<?xml version="1.0" encoding="UTF-8" standalone="no"?>
<!-- Generator: Adobe Illustrator 13.0.0, SVG Export Plug-In . SVG Version: 6.00 Build 14948)  -->

<svg
   xmlns:dc="http://purl.org/dc/elements/1.1/"
   xmlns:cc="http://creativecommons.org/ns#"
   xmlns:rdf="http://www.w3.org/1999/02/22-rdf-syntax-ns#"
   xmlns:svg="http://www.w3.org/2000/svg"
   xmlns="http://www.w3.org/2000/svg"
   xmlns:sodipodi="http://sodipodi.sourceforge.net/DTD/sodipodi-0.dtd"
   xmlns:inkscape="http://www.inkscape.org/namespaces/inkscape"
   version="1.2"
   id="Layer_1"
   x="0px"
   y="0px"
   width="566.93px"
   height="94.787px"
   viewBox="0 0 566.93 94.787"
   xml:space="preserve"
   inkscape:version="0.91 r13725"
   sodipodi:docname="logoconsole.svg"><metadata
     id="metadata31"><rdf:RDF><cc:Work
         rdf:about=""><dc:format>image/svg+xml</dc:format><dc:type
           rdf:resource="http://purl.org/dc/dcmitype/StillImage" /><dc:title></dc:title></cc:Work></rdf:RDF></metadata><defs
     id="defs29" /><sodipodi:namedview
     pagecolor="#ffffff"
     bordercolor="#666666"
     borderopacity="1"
     objecttolerance="10"
     gridtolerance="10"
     guidetolerance="10"
     inkscape:pageopacity="0"
     inkscape:pageshadow="2"
     inkscape:window-width="1680"
     inkscape:window-height="975"
     id="namedview27"
     showgrid="false"
     inkscape:zoom="3.8966892"
     inkscape:cx="166.38515"
     inkscape:cy="4.9395077"
     inkscape:window-x="1671"
     inkscape:window-y="-9"
     inkscape:window-maximized="1"
     inkscape:current-layer="Layer_1" /><g
     id="g3"
     transform="matrix(0.29007503,0,0,0.29007503,-35.013646,66.389639)"><path
       d="m 122.813,19.344 c 0,-2.409 -0.458,-5.529 -1.522,-6.841 6.973,0 22.039,0.046 28.497,0.046 14.859,0 37.277,8.247 37.277,36.052 0,20.635 -15.826,36.008 -37.277,36.008 -4.705,0 -22.67,-0.058 -29.044,-0.058 1.306,-2.411 2.069,-5.685 2.069,-8.269 l 0,-56.938 0,0 z M 133.5,77.543 c 6.858,0.892 13.189,1.165 18.917,0.347 5.542,-0.793 24.165,-4.805 24.049,-29.529 -0.109,-23.431 -14.581,-28.788 -25.731,-29.443 -5.819,-0.343 -11.436,-0.123 -17.236,0.881 l 0.001,57.744 0,0 z"
       id="path9"
       inkscape:connector-curvature="0"
       style="fill:#666666" /><path
       d="m 193.187,34.642 10.676,-1.667 c 0,2.186 0,8.596 0,9.4 2.738,-6.767 11.259,-12.205 23.366,-7.493 l -2.838,7.433 c -11.082,-5.26 -20.528,-0.646 -20.528,11.661 l 0,25.394 c 0,1.209 0.264,3.648 0.985,5.213 l -11.089,0 c 1.12,-1.381 1.64,-4.004 1.64,-5.213 l 0,-36.63 c -0.003,-2.657 -0.545,-6.77 -2.212,-8.098 l 0,0 z"
       id="path11"
       inkscape:connector-curvature="0"
       style="fill:#666666" /><path
       d="m 530.719,39.738 c 0,0.693 0,30.229 0,32.434 0,10.183 7.019,12.905 12.219,12.905 2.197,0.107 5.313,-0.406 7.488,-0.889 l 1.338,-6.285 c -2.535,0.97 -5.481,1.197 -7.25,1.197 -3.26,0 -5.617,-2.164 -5.617,-5.549 0,-3.037 -0.077,-32.809 0,-33.761 l -0.034,0 c 0.432,0 7.196,-0.024 7.879,0 2.217,0.078 3.92,0.213 5.387,0.803 l 0.008,-5.919 c 0,0 -12.985,-0.017 -13.239,-0.017 l 0.053,-15.181 -9.838,2.719 c 1.356,1.269 1.797,4.982 1.797,7.431 0,0 -0.008,4.536 -0.008,5.083 -0.441,0 -5.438,0.025 -6.265,0.025 l 0,5.001 c 0.873,0 6.082,0.003 6.082,0.003 l 0,0 z"
       id="path13"
       inkscape:connector-curvature="0"
       style="fill:#666666" /><path
       d="m 488.193,74.036 c 4.229,3.021 10.866,5.703 15.733,5.703 6.752,0 11.588,-3.285 11.588,-9.469 0,-11.414 -26.022,-9.522 -26.022,-24.004 0,-9.792 8.756,-13.476 17.1,-13.476 2.683,0 8.806,0.582 12.697,2.088 l -0.031,6.688 c -3.459,-2.955 -8.735,-3.669 -12.213,-3.669 -5.521,0 -9.668,2.74 -9.668,8.112 0,7.887 26.002,7.43 26.002,23.621 0,10.471 -9.07,15.354 -19.055,15.354 -4.865,0 -9.939,-0.862 -14.16,-2.071 l -1.971,-8.877 0,0 z"
       id="path15"
       inkscape:connector-curvature="0"
       style="fill:#666666" /><path
       d="m 331.107,39.839 c 0,-0.592 0.021,-5.895 0.021,-6.574 l -10.809,1.671 c 1.303,1.365 2.303,5.623 2.303,8.667 l 0,35.414 c 0,1.209 -0.519,4.143 -1.641,5.521 l 11.784,0 c -1.118,-1.381 -1.637,-4.313 -1.637,-5.521 l 0,-26.645 c 0,-9.75 6.031,-13.164 12.035,-13.164 5.434,0 10.344,2.352 10.344,13.164 l 0,26.646 c 0,1.209 -0.52,4.142 -1.637,5.521 l 11.428,0 c -1.123,-1.381 -1.637,-4.313 -1.637,-5.521 l 0,-26.646 c 0,-10.811 6.678,-13.164 12.123,-13.164 5.43,0 11.111,3.411 11.111,13.164 l 0,26.646 c 0,1.209 -0.515,4.142 -1.642,5.521 l 11.008,0 c -1.127,-1.381 -1.639,-4.313 -1.639,-5.521 l 0,-31.706 c 0,-5.404 -5.516,-14.063 -18.391,-14.063 -7.492,0 -11.818,3.333 -15.103,6.2 -2.793,-3.26 -7.34,-6.317 -14.647,-6.317 -7.116,-0.003 -11.319,4.17 -13.374,6.707 l 0,0 z"
       id="path17"
       inkscape:connector-curvature="0"
       style="fill:#666666" /><path
       d="m 305.621,56.453 c -1.543,1.453 -4.773,2.579 -8.107,3.019 -8.762,1.147 -16.352,2.604 -16.352,11.137 0,5.063 5.52,9.048 9.891,9.048 11.578,0 14.57,-8.353 14.57,-14.935 l 0,-8.269 -0.002,0 0,0 z M 278.269,35.57 c 4.419,-1.771 11.549,-2.583 16.021,-2.583 11.42,0 19.008,5.705 19.008,18.95 l 0,21.972 c 0,4.069 0.062,7.924 1.512,10.631 l -9.178,0 -0.332,-5.78 c -3.473,4.487 -7.627,6.495 -14.676,6.495 -13.91,0 -16.946,-9.503 -16.946,-14.069 0,-16.297 15.512,-16.485 22.249,-17.447 3.728,-0.526 8.521,-1.58 9.244,-5.074 1.188,-5.78 -2.942,-10.114 -11.385,-10.114 -6.197,0 -11.273,1.885 -15.514,4.422 l -0.003,-7.403 0,0 z m 197.303,20.883 c -1.541,1.453 -4.773,2.579 -8.109,3.019 -8.76,1.147 -16.348,2.604 -16.348,11.137 0,5.063 5.516,9.048 9.887,9.048 11.576,0 14.57,-8.353 14.57,-14.935 l 0,-8.269 0,0 z M 448.223,35.57 c 4.418,-1.771 11.556,-2.583 16.023,-2.583 11.414,0 19.002,5.705 19.002,18.95 l 0,21.972 c 0,4.069 -0.887,7.841 1.508,10.631 l -9.176,0 -0.334,-5.78 c -3.478,4.487 -7.625,6.495 -14.674,6.495 -13.902,0 -16.943,-9.503 -16.943,-14.069 0,-16.297 15.512,-16.485 22.246,-17.447 3.729,-0.526 8.527,-1.58 9.242,-5.074 1.19,-5.78 -2.941,-10.114 -11.385,-10.114 -6.195,0 -11.271,1.885 -15.513,4.422 l 0,-7.4 0.004,-0.003 0,0 z"
       id="path19"
       inkscape:connector-curvature="0"
       style="fill:#666666" /><path
       d="m 438.451,42.308 c -3.443,-2.012 -8.879,-3.605 -12.67,-3.605 -13.312,0 -19.412,8.185 -19.412,19.976 0,11.68 5.965,20.625 18.983,20.625 4.462,0 10.535,-2.006 15.25,-4.902 l -1.918,8.593 c -4.799,1.428 -8.842,2.108 -14.194,2.108 -18.295,0 -26.871,-12.977 -26.871,-26.479 0,-14.921 11.504,-25.417 27.072,-25.417 6.805,0 11.771,1.668 13.776,2.238 l -0.016,6.863 0,0 z"
       id="path21"
       inkscape:connector-curvature="0"
       style="fill:#666666" /><path
       d="m 233.646,59.304 c 0.008,-1.234 0.172,-2.41 0.31,-3.55 l 35.401,0 c 0,-12.169 -6.087,-22.608 -20.505,-22.608 -14.965,0 -23.85,11.703 -23.85,26.63 0,13.498 9.891,25.56 26.832,25.56 5.356,0 9.834,-1.319 14.669,-3.012 l 1.701,-8.63 c -4.135,3.404 -10.817,5.418 -16.849,5.418 -10.841,0 -17.756,-7.849 -17.709,-19.808 l 0,0 z m 1.431,-8.948 c 1.149,-5.92 6.628,-11.952 13.184,-11.952 10.018,0 12.917,7.817 12.917,11.952 -0.002,0 -26.101,0.019 -26.101,0 l 0,0 z"
       id="path23"
       inkscape:connector-curvature="0"
       style="fill:#666666" /></g><path
     d="m 69.932716,3.4080474 c 2.763415,0.4149646 5.588077,1.3813532 7.060638,1.8311299 2.966715,0.9065127 7.78196,3.7256157 9.483578,5.0763347 0.805564,0.639154 2.496053,2.313627 3.152608,3.156086 0.638458,0.820876 1.856897,2.59909 2.6339,3.695677 1.240021,1.808152 2.697257,4.501932 3.932408,6.979874 1.381342,2.769669 1.476042,3.571746 1.894478,5.886766 l 0.912762,4.081398 c 0.0856,0.705995 0.15805,3.293944 -1.362538,3.655993 -1.518503,0.362744 -2.923533,-0.336287 -3.585671,-1.361163 -0.916258,-1.417559 -0.788842,-3.429712 -1.826248,-5.732895 -0.808338,-1.861765 -1.159952,-4.568076 -2.451491,-6.513389 L 88.765499,22.452484 C 86.974058,19.695348 85.10812,17.507044 83.995515,16.079738 83.013112,14.880106 81.18268,13.250192 79.448329,12.09094 77.84278,11.117587 75.248561,10.007074 73.37775,9.436151 72.781757,9.241899 70.227928,8.491346 68.643273,8.280381 66.489779,8.038786 65.074307,7.698321 63.029431,7.554197 60.502055,7.375958 59.292683,7.151767 56.015443,7.534707 54.774035,7.871691 52.80923,8.00537 51.039371,8.681427 c -1.429399,0.582757 -3.415789,1.524085 -5.363191,2.668017 -2.097094,1.149503 -5.276158,3.499336 -7.386481,5.505223 -2.126337,2.271853 -3.190202,3.490981 -4.655801,6.370658 -0.648207,1.42452 -1.904932,3.629535 -2.4118,5.184948 -0.346034,1.579783 -1.004683,4.525604 -0.895372,5.957087 0.05081,2.562885 -0.174063,3.091336 0.0188,5.187038 0.0069,1.886828 0.625925,3.194381 0.884232,4.738655 0.219319,1.065258 1.244194,4.753973 1.875689,5.613142 2.874803,6.196596 6.736188,8.880627 11.039688,10.817586 1.212862,0.618266 5.006711,1.633394 6.103995,1.923729 1.872909,0.33768 4.33553,0.56396 6.706951,0.609215 2.494644,0.04805 5.933408,-0.288245 8.018673,-1.057597 2.258619,-0.830624 4.871636,-2.01285 4.841,-1.977341 1.047159,-0.579277 2.647125,-1.522691 3.144253,-1.936263 0.962906,-0.616177 1.543575,-0.854991 2.112404,-1.448192 0.824362,-0.719223 1.321477,-1.134187 1.945322,-2.026079 0.34603,-0.501994 0.899549,-1.272043 1.433569,-1.952971 0.577884,-0.946895 0.909989,-1.944618 1.473262,-3.17767 0.673964,-1.826256 0.569527,-1.737832 0.698331,-3.674094 0.121846,-0.561871 -0.01386,-2.450094 -0.11418,-2.770367 -0.304266,-1.742009 -0.197032,-3.278626 -0.595993,-4.970505 -0.536807,-2.288564 -0.986586,-4.00133 -1.672392,-6.1959 -0.646811,-2.47098 -2.545474,-4.760935 -3.969989,-6.397115 -0.882849,-1.014431 -3.621184,-3.408128 -7.420606,-4.903665 -1.070827,-0.35996 -2.819791,-0.767961 -3.931697,-0.971265 -2.374206,-0.247863 -2.760616,-0.08842 -5.033172,0.07729 -0.782585,0.136464 -2.597693,0.507564 -3.266787,0.742199 -1.952277,0.685802 -2.670106,1.121653 -4.666248,2.343566 -0.928793,0.539592 -1.629217,0.952466 -2.579594,1.842269 -0.758212,0.701817 -1.300589,1.893791 -1.913286,2.59352 -0.841761,1.144629 -1.778213,2.670801 -2.406229,4.317425 -0.680928,1.638268 -0.900246,3.943542 -0.795809,5.427243 0,1.128616 0.307044,3.201342 0.428887,3.65251 0.12254,0.45256 0.428889,1.858979 0.494335,2.141656 0.06754,0.28198 0.797203,1.769162 0.899551,1.986391 0.412875,0.877968 1.201723,2.136782 2.529464,3.424838 0.982406,1.072221 2.87759,2.123552 4.298633,2.530857 1.272732,0.700424 3.419955,0.817393 4.609144,0.820178 0.584154,-0.03691 2.07761,-0.128108 2.856711,-0.314006 1.581169,-0.379455 1.871509,-0.389899 3.500725,-1.09659 1.462121,-0.678143 2.452878,-0.922525 3.471488,-1.673081 0,0 1.397363,-1.094499 2.032336,-1.896575 0.334902,-0.420534 0.909301,-2.436864 0.808351,-3.685234 -0.048,-1.707893 0.201215,-2.677069 -0.149,-4.082094 -0.348129,-1.405724 -0.942723,-3.034245 -1.588138,-4.03823 -0.653781,-1.016522 -2.058113,-2.006585 -3.655993,-2.796825 -0.896763,-0.442813 -3.016836,-0.852206 -3.917783,-0.958036 -1.707887,-0.203303 -3.137284,0.573012 -4.005508,1.46003 -0.753336,0.860561 -2.241908,2.647827 -1.649411,4.495665 0.536807,1.670991 1.185717,3.452688 3.692899,3.321097 1.721811,0.359263 3.710996,-0.15944 4.37452,0.144123 0.983789,0.559086 1.361157,1.791443 1.004684,2.653397 -0.24995,1.659155 -1.840186,1.857586 -3.534147,1.985695 -1.517823,0.25413 -5.371548,-0.488766 -6.217492,-1.123045 -0.568129,-0.336983 -1.439139,-1.14672 -2.051144,-1.695362 -0.440714,-0.395467 -0.937142,-1.272738 -1.279001,-1.903539 -0.416354,-0.775618 -0.628711,-1.345845 -0.735932,-1.849926 -0.128805,-0.598773 -0.391291,-1.744795 -0.291728,-2.888728 0.06893,-0.771442 0.274322,-1.101464 0.479017,-2.230079 0.410091,-1.281094 0.919054,-2.255143 1.739231,-3.365656 1.066644,-1.083361 2.422242,-2.372811 3.745805,-2.972278 1.166908,-0.616874 3.211783,-0.843155 5.060325,-0.735237 1.501099,0.143427 3.273743,0.32654 4.448319,0.719224 2.007969,0.717134 2.581682,0.86056 4.231093,1.900753 1.391792,0.861258 2.793338,2.448002 3.575912,3.761124 1.664035,3.404648 2.617887,7.190838 1.924426,12.290844 -0.05643,0.860561 -0.324449,1.700932 -0.861255,2.843472 -0.497115,1.052029 -1.364642,2.332427 -2.672193,3.294639 -0.524966,0.486677 -1.354897,1.086841 -2.029562,1.436359 -0.957336,0.580668 -1.600665,0.883537 -2.599092,1.384834 -0.877266,0.413569 -1.900746,0.884233 -3.23475,1.254636 -1.44541,0.57162 -2.55523,0.594594 -4.373135,0.865435 -1.787956,0.449775 -6.685356,0.130198 -9.602632,-1.157163 -1.989177,-0.837583 -4.222041,-2.312234 -5.921579,-4.110639 -0.942718,-0.990064 -1.866638,-2.782203 -2.13678,-3.149124 -1.350721,-2.596305 -1.614597,-5.035954 -1.831825,-5.551175 -0.293816,-0.696248 -0.439332,-2.258624 -0.637762,-3.327364 -0.222103,-1.200329 -0.08495,-6.225143 1.12583,-9.450156 0.683017,-1.284576 1.082664,-2.429902 1.543579,-3.030763 0.830622,-1.180834 1.23166,-1.91816 1.936958,-2.755049 1.063866,-1.289447 1.838092,-2.342174 2.873411,-3.085069 2.640864,-2.146529 4.845184,-3.280019 7.829298,-4.696882 3.706812,-1.509461 4.820116,-1.197542 8.329896,-1.141146 1.578385,0.01393 3.875308,0.510349 5.005309,0.715045 2.097105,0.279194 3.298822,0.78467 4.71568,1.180138 1.516424,0.423317 2.392305,1.10007 3.638596,1.85132 1.023481,0.660738 2.22938,1.56725 3.025191,2.303184 2.037906,1.494147 3.019622,3.064182 4.268685,4.992785 0.22767,0.323058 1.709286,3.482627 1.94531,4.362683 0.109955,0.440725 0.44421,1.705108 0.660738,2.444521 0.275716,1.173176 0.411489,2.211279 0.721313,3.535541 0.275714,1.362556 0.746377,3.935186 0.94968,6.34072 0.344644,2.064371 -0.206088,6.27736 -0.52915,7.568899 -0.720612,2.411102 -1.984301,5.354138 -4.475472,8.189252 -1.057601,1.25603 -2.182733,2.227295 -3.483314,3.284198 -0.993556,0.827836 -1.847145,1.31312 -3.384462,2.22938 -2.085953,1.244891 -3.673391,2.0407 -6.598331,3.183936 -1.190576,0.382241 -2.691688,0.884931 -4.308377,1.218433 -3.132412,0.284068 -6.351852,0.560478 -9.865116,0.143427 -3.513964,-0.419141 -7.033485,-1.408507 -9.113175,-2.046269 -1.148112,-0.43028 -3.37053,-1.361162 -4.301412,-1.865942 -0.607127,-0.306349 -2.640864,-1.697448 -2.985506,-2.031647 -1.392493,-0.861258 -4.510982,-3.793849 -6.524528,-6.527314 -0.440725,-0.847332 -2.026774,-3.379582 -2.371416,-4.489397 -0.914173,-1.877779 -1.551935,-4.149633 -1.925818,-5.120199 -0.395468,-2.265589 -1.063866,-3.723528 -1.324261,-5.99538 0.02924,-0.534719 -0.107222,-1.794229 -0.229763,-2.491172 0.176847,-1.556113 -0.05989,-3.021016 0.249256,-4.71568 0.271538,-1.429394 0.629409,-2.026078 0.715743,-3.318311 0.08424,-0.55282 0.794417,-2.215458 0.98519,-2.955567 0.575099,-1.218433 0.717133,-2.221725 1.466991,-3.583583 1.078486,-2.122159 2.208495,-4.563201 3.942149,-6.695805 0.495727,-0.661434 1.900058,-2.247484 2.378378,-2.796823 1.131401,-1.131401 1.794925,-1.30964 3.078107,-2.443826 0.132288,-0.08355 0.981012,-1.04994 1.869422,-1.38205 1.469777,-1.136273 2.741125,-1.552631 4.141276,-2.586556 2.805178,-1.398063 3.827268,-1.8701188 6.612254,-3.0293689 1.610418,-0.5744038 3.853037,-0.891196 4.660676,-1.204507 1.538006,-0.095377 3.098992,-0.5855438 4.71568,-0.4887664 1.81512,-0.016715 3.644154,0.1127916 5.469015,0.2784988 1.22958,0.071017 2.835116,0.1308952 5.012279,0.6043429 l 0,0 z"
     id="path25"
     style="fill:#ff5703;fill-opacity:1"
     inkscape:connector-curvature="0" /></svg>