<?xml version="1.0" encoding="UTF-8" standalone="no"?>
<svg
   xmlns:dc="http://purl.org/dc/elements/1.1/"
   xmlns:cc="http://creativecommons.org/ns#"
   xmlns:rdf="http://www.w3.org/1999/02/22-rdf-syntax-ns#"
   xmlns:svg="http://www.w3.org/2000/svg"
   xmlns="http://www.w3.org/2000/svg"
   xmlns:sodipodi="http://sodipodi.sourceforge.net/DTD/sodipodi-0.dtd"
   xmlns:inkscape="http://www.inkscape.org/namespaces/inkscape"
   version="1.1"
   x="0px"
   y="0px"
   width="358.44955"
   height="34.477646"
   viewBox="0 0 358.44955 34.477646"
   id="svg4300"
   inkscape:version="0.91 r13725"
   sodipodi:docname="logoconsole.svg">
  <metadata
     id="metadata4441">
    <rdf:RDF>
      <cc:Work
         rdf:about="">
        <dc:format>image/svg+xml</dc:format>
        <dc:type
           rdf:resource="http://purl.org/dc/dcmitype/StillImage" />
        <dc:title>Sega Saturn Logo</dc:title>
      </cc:Work>
    </rdf:RDF>
  </metadata>
  <defs
     id="defs4439" />
  <sodipodi:namedview
     pagecolor="#ffffff"
     bordercolor="#666666"
     borderopacity="1"
     objecttolerance="10"
     gridtolerance="10"
     guidetolerance="10"
     inkscape:pageopacity="0"
     inkscape:pageshadow="2"
     inkscape:window-width="1680"
     inkscape:window-height="975"
     id="namedview4437"
     showgrid="false"
     showguides="true"
     inkscape:guide-bbox="true"
     inkscape:zoom="2.4192586"
     inkscape:cx="211.40332"
     inkscape:cy="113.34021"
     inkscape:window-x="1671"
     inkscape:window-y="-9"
     inkscape:window-maximized="1"
     inkscape:current-layer="svg4300"
     fit-margin-top="0"
     fit-margin-left="0"
     fit-margin-right="0"
     fit-margin-bottom="0">
    <sodipodi:guide
       position="-18.532606,124.77872"
       orientation="1,0"
       id="guide5042" />
    <sodipodi:guide
       position="-135.53261,111.77872"
       orientation="1,0"
       id="guide5044" />
    <sodipodi:guide
       position="108.96739,-12.221283"
       orientation="1,0"
       id="guide5046" />
    <sodipodi:guide
       position="278.96739,41.278717"
       orientation="1,0"
       id="guide5048" />
  </sodipodi:namedview>
  <title
     id="title4302">Sega Saturn Logo</title>
  <linearGradient
     id="SVGID_1_"
     gradientUnits="userSpaceOnUse"
     x1="38.512199"
     y1="155.3213"
     x2="70.132103"
     y2="123.7017"
     gradientTransform="matrix(1.0154323,0,0,1.0154323,-3.8205913,-3.1130436)">
    <stop
       offset="0"
       stop-color="#999999"
       id="stop4305" />
    <stop
       offset="0.98"
       stop-color="#F3F3F3"
       id="stop4307" />
  </linearGradient>
  <path
     style="fill:#f4f4f4;fill-opacity:1;stroke:none;stroke-width:1.46222258;stroke-linecap:round;stroke-linejoin:round"
     d="m 31.225944,4.323246 c -0.4539,-0.75548 -1.06519,-1.20938 -1.82473,-1.46121 -13.84542,-3.88504 -22.7731,-3.32757005 -26.72719,1.76686 -1.42161,1.66632 -2.28370998,3.27984 -2.53756995,4.94414 -0.30564,1.66429 -0.10256,3.22907 0.65698997,4.7441 l -0.0508,0 c 0.55949998,1.1586 1.42058998,2.2177 2.53755998,3.17728 l 0.0508,0 c 0.91288,0.75548 1.87551,1.36271 2.99147,1.8684 0.75954,0.40211 2.53756,0.65495 5.37569,0.70369 0.55951,0.0518 1.6247,0.0518 3.24634,0.0518 1.42059,0.0518 2.53757,0.0518 3.34788,0.10154 l 0.0508,0 c 2.53757,0.0518 5.11067,0.29752 5.93622,0.55341 0.82148,0.25792 2.26746,1.75162 2.38017,2.42384 0.11678,0.66815 0,0 0,0 0.15232,0.40414 0.30565,0.50975 0.16044,1.53127 -0.14825,1.02153 -0.46202,0.83875 -0.86819,1.34443 l 0,-0.0518 c -0.45796,0.40414 -1.21751,0.70572 -2.2827,1.01137 -1.5201,0.35337 -3.34788,0.60316 -5.47825,0.65495 -2.13038,0.0518 -4.26076,0 -6.44089,-0.25183 -2.0796097,-0.25385 -3.90434,-0.60722 -5.42749,-1.06112 -0.75954,-0.2498 -1.56985,-0.20004 -2.28269,0.2041 -0.75954,0.35337 -1.26827,0.95958 -1.5201,1.76685 -0.25386,0.75548 -0.15231,1.56275 0.20004,2.31823 0.40719,0.70573 1.01746,1.20938 1.77701,1.46527 1.82473,0.60317 4.00588,1.00528 6.54243,1.31093 2.48679,0.25182 4.91774,0.35337 7.35376,0.30158 2.63911,-0.10154 4.9218,-0.40211 6.7973,-0.85703 2.63505,-0.658 4.46384,-1.66632 5.42647,-2.97724 l 0.0508,0 c 0.81032,-1.01137 1.41754,-1.92019 1.77396,-2.72745 l 0,-0.0518 c 0.40719,-1.00528 0.61028,-2.01665 0.61028,-3.07371 l 0,-0.10155 c -0.0508,-0.75751 0.0142,-1.8623 -0.39298,-2.92343 -0.15231,-0.55341 -0.30158,-0.85905 -1.11596,-2.62184 -0.81742,-1.75873 -2.70409,-2.8818 -6.0012,-3.58753 l -0.0508,0 c -1.62165,-0.30361 -3.95511,-0.55544 -6.94657,-0.65597 -0.86109,-0.0518 -2.02884,-0.0518 -3.55097,-0.10357 -1.5201,0 -2.58427,0 -3.14479,-0.0498 -1.62165,-0.0477 -2.68684,-0.0995 -3.09301,-0.20004 -0.5595,-0.25385 -1.06519,-0.55544 -1.47238,-0.90881 -0.45389,-0.40414 -0.81031,-0.80727 -1.01441,-1.20938 l 0,-0.0518 c -0.20411,-0.30159 -0.25488,-0.65496 -0.15232,-1.01137 0.15232,-0.65496 0.50873,-1.35865 1.16673,-2.01665 3.04224,-2.92546 9.83954,-2.92546 20.43964,0.10154 0.81438,0.20004 1.57392,0.15231 2.28269,-0.30158 0.76361,-0.40211 1.26929,-1.00934 1.47238,-1.81661 0.25792,-0.75548 0.15637,-1.51503 -0.25183,-2.27254 z"
     id="path4309"
     inkscape:connector-curvature="0" />
  <linearGradient
     id="SVGID_2_"
     gradientUnits="userSpaceOnUse"
     x1="4.4208999"
     y1="193.53909"
     x2="36.637501"
     y2="161.3224"
     gradientTransform="translate(173.72881,-38.983051)">
    <stop
       offset="0"
       stop-color="#999999"
       id="stop4312" />
    <stop
       offset="0.98"
       stop-color="#F3F3F3"
       id="stop4314" />
  </linearGradient>
  <linearGradient
     id="SVGID_3_"
     gradientUnits="userSpaceOnUse"
     x1="72.103996"
     y1="152.6436"
     x2="102.8901"
     y2="121.8574"
     gradientTransform="matrix(1.0693253,0,0,1.0693253,-41.011708,13.178859)">
    <stop
       offset="0"
       stop-color="#999999"
       id="stop4319" />
    <stop
       offset="0.98"
       stop-color="#F3F3F3"
       id="stop4321" />
  </linearGradient>
  <path
     style="fill:#f4f4f4;fill-opacity:1;stroke:none;stroke-width:1.53982854;stroke-linecap:round;stroke-linejoin:round"
     d="m 63.745304,1.549696 c -0.64373,-0.58492005 -1.38904,-0.90465005 -2.2969,-0.90465005 l -21.36726,0 c -0.85332,0 -1.65318,0.31973 -2.24344,0.90465005 -0.63946,0.63518 -0.96026,1.38264 -0.96026,2.28514 l 0,26.56633 c 0,0.85011 0.32187,1.64997 0.96026,2.23275 0.58919,0.63946 1.38905,0.95705 2.24344,0.95705 l 21.36726,0 c 0.90786,0 1.65317,-0.31759 2.2969,-0.95705 0.58598,-0.58278 0.90785,-1.38264 0.90785,-2.23275 0,-0.90252 -0.32187,-1.6457 -0.90785,-2.28516 -0.64373,-0.58278 -1.38904,-0.90464 -2.2969,-0.90464 l -18.15928,0 0,-6.90463 13.35159,0 c 0.90786,0 1.65318,-0.3176 2.29691,-0.95705 0.58492,-0.58706 0.90786,-1.38265 0.90786,-2.23275 0,-0.90251 -0.32187,-1.6457 -0.90786,-2.28514 -0.64373,-0.58707 -1.38905,-0.90465 -2.29691,-0.90465 l -13.35159,0 0,-6.90465 18.15928,0 c 0.90786,0 1.65317,-0.32186 2.2969,-0.95704 0.58598,-0.58706 0.90785,-1.3281 0.90785,-2.23275 0,-0.90037 -0.32187,-1.6489 -0.90785,-2.28301 z"
     id="path4323"
     inkscape:connector-curvature="0" />
  <linearGradient
     id="SVGID_4_"
     gradientUnits="userSpaceOnUse"
     x1="101.3784"
     y1="155.9043"
     x2="135.2655"
     y2="122.0172"
     gradientTransform="matrix(0.99024799,0,0,0.99024799,-33.216428,23.993239)">
    <stop
       offset="0"
       stop-color="#999999"
       id="stop4326" />
    <stop
       offset="0.98"
       stop-color="#F3F3F3"
       id="stop4328" />
  </linearGradient>
  <path
     style="fill:#f4f4f4;fill-opacity:1;stroke:none;stroke-width:1.4259572;stroke-linecap:round;stroke-linejoin:round"
     d="m 97.897454,6.064486 c -0.14853,-0.85458 -0.59217,-1.54577 -1.23285,-2.02703 -5.43052,-3.89960005 -11.37894,-4.63833005 -17.13228,-3.63026005 -2.26867,0.53177 -3.00243,0.48127 -5.48003,1.70819005 -2.47464,1.22394 -4.19767,3.49854 -4.19767,3.49854 -1.18334,1.28435 -1.82502,2.85092 -2.61623,4.92846 -0.79121,2.07754 -0.78725,3.10839 -0.88627,5.67116 -0.0991,2.56276 0.24459,4.9146 0.98529,7.15454 0.7407,2.2439 1.87553,4.22241 3.40645,5.87811 l 0,-0.0545 c 1.48142,1.71017 3.30743,3.04205 5.43052,3.89564 2.1231,0.90905 4.44423,1.39031 6.96045,1.39031 5.92367,0 10.22035,-1.33684 12.8861,-4.00555 3.10938,-2.72319 4.392736,-6.8347 3.899598,-12.33553 -0.0495,-0.85458 -0.39214,-1.49725 -0.938748,-2.08149 -0.59217,-0.53573 -1.23386,-0.80112 -2.02407,-0.80112 l -12.83559,0 c -0.78725,0 -1.52796,0.31688 -2.07458,0.90707 -0.59216,0.63871 -0.88627,1.38437 -0.88627,2.2954 0,0.85458 0.29411,1.65569 0.88627,2.24192 0.54662,0.6397 1.28733,0.95955 2.07458,0.95955 l 9.87574,0 c -0.19805,1.60321 -0.84072,2.94004 -1.82899,3.95307 -1.92504,1.6557 -4.9344,2.45582 -9.03304,2.45582 -1.72897,0 -3.35694,-0.31886 -4.78785,-0.90707 l -0.0505,-0.0525 c -1.28336,-0.53572 -2.36769,-1.28435 -3.30743,-2.35184 -0.93876,-1.01302 -1.62995,-2.2439 -2.07358,-3.57578 -0.49315,-1.4428 -0.69119,-3.04402 -0.64069,-4.75418 0.0485,-1.81413 0.24756,-2.80042 0.59118,-4.02635 0.24855,-0.91103 0.64167,-1.6557 1.18433,-2.2439 0,0 0.8833,-1.3715 2.37164,-2.1122 1.48934,-0.74467 2.56673,-0.96153 4.39275,-1.44279 l 0.0495,0 c 4.3462,-1.06749 8.49335,-0.16042 12.49198,2.77566 0.6902,0.48126 1.43091,0.6397 2.21815,0.48126 0.79121,-0.2129 1.4319,-0.64168 1.87851,-1.38832 0.44362,-0.69218 0.59216,-1.4933 0.44362,-2.40433 z"
     id="path4330"
     inkscape:connector-curvature="0" />
  <linearGradient
     id="SVGID_5_"
     gradientUnits="userSpaceOnUse"
     x1="140.39549"
     y1="157.2148"
     x2="173.5679"
     y2="124.0427">
    <stop
       offset="0"
       stop-color="#999999"
       id="stop4333" />
    <stop
       offset="0.98"
       stop-color="#F3F3F3"
       id="stop4335" />
  </linearGradient>
  <path
     style="fill:#f4f4f4;fill-opacity:1;stroke:none;stroke-width:1.44000006;stroke-linecap:round;stroke-linejoin:round"
     d="m 135.60674,32.695766 c 0.501,-0.695 0.697,-1.389 0.598,-2.234 -3.146,-20.723 -8.788,-30.86100005 -16.982,-30.36300005 -8.19,-0.498 -14.10934,10.28059005 -17.15534,30.35459005 -0.101,0.795 0.05,1.541 0.551,2.189 0.498,0.693 1.149,1.09 1.948,1.191 0.798,0.146 1.546,-0.051 2.247,-0.549 0.648,-0.496 1.049,-1.141 1.199,-1.936 0.376,-2.496 1.01134,-5.78459 1.45434,-7.89759 l 0.015,0 19.377,0 c 0.505,2.389 0.974,5.023 1.403,7.9 0.15,0.795 0.501,1.443 1.199,1.941 0.647,0.498 1.399,0.693 2.198,0.543 0.798,-0.094 1.447,-0.49 1.948,-1.139 z m -24.655,-15.203 c 2.185,-7.354 4.951,-11.162 8.27,-11.43 3.219,0.264 5.953,4.076 8.144,11.43 z"
     id="path4337"
     inkscape:connector-curvature="0"
     sodipodi:nodetypes="ccccccccccccccccccc" />
  <linearGradient
     id="SVGID_6_"
     gradientUnits="userSpaceOnUse"
     x1="41.523399"
     y1="197.4736"
     x2="76.365898"
     y2="162.6313"
     gradientTransform="translate(173.72881,-38.983051)">
    <stop
       offset="0"
       stop-color="#999999"
       id="stop4340" />
    <stop
       offset="0.98"
       stop-color="#F3F3F3"
       id="stop4342" />
  </linearGradient>
  <linearGradient
     id="SVGID_7_"
     gradientUnits="userSpaceOnUse"
     x1="65.424797"
     y1="189.6338"
     x2="97.999802"
     y2="157.05881"
     gradientTransform="translate(151.67827,-15.809951)">
    <stop
       offset="0"
       stop-color="#999999"
       id="stop4347" />
    <stop
       offset="0.98"
       stop-color="#F3F3F3"
       id="stop4349" />
  </linearGradient>
  <path
     style="fill:#f4f4f4;fill-opacity:1;stroke:none;stroke-width:1.44000006;stroke-linecap:round;stroke-linejoin:round"
     d="m 249.61055,3.277716 c -0.598,-0.545 -1.299,-0.844 -2.147,-0.844 l -25.972,0 c -0.802,0 -1.55,0.299 -2.101,0.844 -0.598,0.598 -0.898,1.293 -0.898,2.137 0,0.795 0.301,1.539 0.898,2.088 0.551,0.598 1.299,0.895 2.101,0.895 l 9.988,0 0,22.855 c 0,0.795 0.3,1.543 0.898,2.088 0.551,0.598 1.299,0.895 2.098,0.895 0.852,0 1.55,-0.297 2.147,-0.895 0.552,-0.545 0.853,-1.293 0.853,-2.088 l 0,-22.856 9.987,0 c 0.848,0 1.55,-0.297 2.147,-0.895 0.551,-0.549 0.849,-1.293 0.849,-2.088 0.001,-0.843 -0.297,-1.539 -0.848,-2.136 z"
     id="path4351"
     inkscape:connector-curvature="0" />
  <linearGradient
     id="SVGID_8_"
     gradientUnits="userSpaceOnUse"
     x1="99.466301"
     y1="192.6514"
     x2="132.3989"
     y2="159.7188"
     gradientTransform="translate(152.92827,-15.809951)">
    <stop
       offset="0"
       stop-color="#999999"
       id="stop4354" />
    <stop
       offset="0.98"
       stop-color="#F3F3F3"
       id="stop4356" />
  </linearGradient>
  <path
     style="fill:#f4f4f4;fill-opacity:1;stroke:none;stroke-width:1.44000006;stroke-linecap:round;stroke-linejoin:round"
     d="m 285.85555,2.683716 c -0.598,-0.598 -1.296,-0.895 -2.147,-0.895 -0.799,0 -1.547,0.297 -2.098,0.895 -0.598,0.543 -0.899,1.291 -0.899,2.086 l 0,14.756 c 0,1.146 -0.2,2.238 -0.647,3.232 -0.4,1.041 -1.049,1.887 -1.801,2.682 -0.798,0.744 -1.646,1.393 -2.695,1.789 -0.998,0.447 -2.098,0.645 -3.247,0.645 l -4.445,0 c -1.149,0 -2.198,-0.197 -3.247,-0.645 -1.049,-0.396 -1.897,-1.045 -2.695,-1.789 -0.752,-0.795 -1.35,-1.641 -1.801,-2.635 l 0,-0.047 c -0.397,-0.994 -0.647,-2.086 -0.647,-3.232 l 0,-14.756 c 0,-0.795 -0.301,-1.543 -0.849,-2.086 -0.602,-0.598 -1.299,-0.895 -2.148,-0.895 -0.798,0 -1.55,0.297 -2.098,0.895 -0.602,0.543 -0.898,1.291 -0.898,2.086 l 0,14.756 c 0,1.941 0.397,3.777 1.099,5.566 l 0.05,0 c 0.698,1.74 1.747,3.229 3.046,4.572 1.347,1.291 2.847,2.334 4.593,3.082 1.751,0.744 3.598,1.092 5.596,1.092 l 4.445,0 c 1.998,0 3.845,-0.348 5.646,-1.092 l -0.05,0 c 1.747,-0.748 3.247,-1.791 4.597,-3.082 1.295,-1.344 2.345,-2.832 3.096,-4.572 l 0,0.051 c 0.748,-1.791 1.099,-3.627 1.099,-5.617 l 0,-14.756 c -0.003,-0.795 -0.303,-1.543 -0.855,-2.086 z"
     id="path4358"
     inkscape:connector-curvature="0" />
  <linearGradient
     id="SVGID_9_"
     gradientUnits="userSpaceOnUse"
     x1="136.96291"
     y1="194.1104"
     x2="170.1333"
     y2="160.9399"
     gradientTransform="translate(154.17827,-15.809951)">
    <stop
       offset="0"
       stop-color="#999999"
       id="stop4361" />
    <stop
       offset="0.98"
       stop-color="#F3F3F3"
       id="stop4363" />
  </linearGradient>
  <path
     style="fill:#f4f4f4;fill-opacity:1;stroke:none;stroke-width:1.44000006;stroke-linecap:round;stroke-linejoin:round"
     d="m 291.13355,2.712716 c -0.529,0.543 -0.849,1.184 -0.849,1.971 l 0,25.664 c 0,0.787 0.319,1.527 0.902,2.072 0.638,0.59 1.436,0.887 2.284,0.887 0.905,0 1.646,-0.297 2.233,-0.887 0.638,-0.545 0.956,-1.285 0.956,-2.072 l 0,-22.9 c 6.852,-0.393 12.11,-0.047 15.775,0.988 2.76,0.838 4.249,2.219 4.406,4.145 0.055,1.529 -0.583,2.617 -1.911,3.258 -2.126,0.889 -5.259,1.135 -9.4,0.691 -0.744,-0.051 -1.382,0.051 -2.019,0.443 -0.638,0.344 -1.063,0.838 -1.328,1.482 -0.266,0.592 -0.266,1.232 -0.107,1.873 0.211,0.645 0.637,1.135 1.221,1.531 l 15.937,10.857 c 0.691,0.49 1.485,0.691 2.338,0.541 0.902,-0.098 1.593,-0.494 2.123,-1.186 0.479,-0.641 0.69,-1.381 0.587,-2.17 -0.161,-0.84 -0.587,-1.48 -1.278,-1.975 l -8.444,-5.725 c 1.221,-0.293 2.283,-0.641 3.186,-1.084 3.612,-1.68 5.42,-4.539 5.474,-8.539 0.211,-4.734 -2.764,-7.992 -8.816,-9.771 -4.729,-1.479 -11.796,-1.82600005 -21.196,-1.084 -0.796,0.051 -1.487,0.395 -2.074,0.99 z"
     id="path4365"
     inkscape:connector-curvature="0" />
  <linearGradient
     id="SVGID_10_"
     gradientUnits="userSpaceOnUse"
     x1="173.21001"
     y1="193.8428"
     x2="205.4281"
     y2="161.62469"
     gradientTransform="translate(154.17827,-15.809951)">
    <stop
       offset="0"
       stop-color="#999999"
       id="stop4368" />
    <stop
       offset="0.98"
       stop-color="#F3F3F3"
       id="stop4370" />
  </linearGradient>
  <path
     style="fill:#f4f4f4;fill-opacity:1;stroke:none;stroke-width:1.44000006;stroke-linecap:round;stroke-linejoin:round"
     d="m 328.02955,3.226716 c -0.352,0.498 -0.548,1.047 -0.548,1.689 l 0,25.84 c 0,0.797 0.297,1.543 0.898,2.086 0.548,0.598 1.296,0.895 2.098,0.895 0.849,0 1.546,-0.297 2.147,-0.895 0.548,-0.543 0.849,-1.289 0.849,-2.086 l 0,-18.432 19.828,20.471 c 0.451,0.445 0.948,0.746 1.55,0.893 0.598,0.1 1.149,0.049 1.747,-0.146 0.551,-0.252 0.998,-0.598 1.35,-1.143 0.351,-0.498 0.501,-1.045 0.501,-1.643 l 0,-25.84 c 0,-0.844 -0.301,-1.539 -0.853,-2.137 -0.597,-0.543 -1.295,-0.844 -2.147,-0.844 -0.798,0 -1.546,0.301 -2.098,0.844 -0.598,0.598 -0.898,1.293 -0.898,2.137 l 0,18.436 -19.777,-20.521 c -0.451,-0.396 -0.949,-0.695 -1.551,-0.846 -0.598,-0.096 -1.199,-0.049 -1.746,0.201 -0.552,0.197 -1.049,0.547 -1.35,1.041 z"
     id="path4372"
     inkscape:connector-curvature="0" />
  <radialGradient
     id="SVGID_11_"
     cx="157.4951"
     cy="52.9604"
     r="22.196199"
     gradientUnits="userSpaceOnUse">
    <stop
       offset="0.43"
       stop-color="#FFFFFF"
       id="stop4375" />
    <stop
       offset="0.64"
       stop-color="#7A7A7A"
       id="stop4377" />
    <stop
       offset="0.99"
       stop-color="#000000"
       id="stop4379" />
  </radialGradient>
  <radialGradient
     id="SVGID_12_"
     cx="50.105499"
     cy="85.897003"
     r="22.9105"
     gradientUnits="userSpaceOnUse">
    <stop
       offset="0"
       stop-color="#FFFFFF"
       id="stop4384" />
    <stop
       offset="1"
       stop-color="#000000"
       id="stop4386" />
  </radialGradient>
  <radialGradient
     id="SVGID_13_"
     cx="61.441898"
     cy="37.691399"
     r="52.493401"
     gradientUnits="userSpaceOnUse">
    <stop
       offset="0.8128"
       stop-color="#FFFFFF"
       id="stop4391" />
    <stop
       offset="1"
       stop-color="#575757"
       id="stop4393" />
  </radialGradient>
  <radialGradient
     id="SVGID_14_"
     cx="162.86819"
     cy="1.0562"
     r="29.353399"
     gradientUnits="userSpaceOnUse">
    <stop
       offset="0"
       stop-color="#FFFFFF"
       id="stop4400" />
    <stop
       offset="1"
       stop-color="#000000"
       id="stop4402" />
  </radialGradient>
  <linearGradient
     id="SVGID_15_"
     gradientUnits="userSpaceOnUse"
     x1="53.883301"
     y1="44.713902"
     x2="44.934898"
     y2="37.913101">
    <stop
       offset="0"
       stop-color="#000000"
       id="stop4407" />
    <stop
       offset="1"
       stop-color="#FFFFFF"
       id="stop4409" />
  </linearGradient>
  <radialGradient
     id="SVGID_16_"
     cx="113.4971"
     cy="35.629902"
     r="47.610298"
     gradientUnits="userSpaceOnUse">
    <stop
       offset="0.04"
       stop-color="#FFFFFF"
       id="stop4416" />
    <stop
       offset="0.04"
       stop-color="#FFFFFF"
       id="stop4418" />
    <stop
       offset="0.23"
       stop-color="#6E93E1"
       id="stop4420" />
    <stop
       offset="1"
       stop-color="#363499"
       id="stop4422" />
  </radialGradient>
  <linearGradient
     id="SVGID_17_"
     gradientUnits="userSpaceOnUse"
     x1="110.5596"
     y1="63.437"
     x2="106.9759"
     y2="51.730499">
    <stop
       offset="0"
       stop-color="#000000"
       id="stop4427" />
    <stop
       offset="0.9893"
       stop-color="#FFFFFF"
       id="stop4429" />
  </linearGradient>
  <path
     sodipodi:nodetypes="ccccccccccccccccccc"
     inkscape:connector-curvature="0"
     id="path4987"
     d="m 221.35674,32.695766 c 0.501,-0.695 0.697,-1.389 0.598,-2.234 -3.146,-20.723 -8.788,-30.86100005 -16.982,-30.36300005 -8.19,-0.498 -14.10934,10.28059005 -17.15534,30.35459005 -0.101,0.795 0.05,1.541 0.551,2.189 0.498,0.693 1.149,1.09 1.948,1.191 0.798,0.146 1.546,-0.051 2.247,-0.549 0.648,-0.496 1.049,-1.141 1.199,-1.936 0.376,-2.496 1.01134,-5.78459 1.45434,-7.89759 l 0.015,0 19.377,0 c 0.505,2.389 0.974,5.023 1.403,7.9 0.15,0.795 0.501,1.443 1.199,1.941 0.647,0.498 1.399,0.693 2.198,0.543 0.798,-0.094 1.447,-0.49 1.948,-1.139 z m -24.655,-15.203 c 2.185,-7.354 4.951,-11.162 8.27,-11.43 3.219,0.264 5.953,4.076 8.144,11.43 z"
     style="fill:#f4f4f4;fill-opacity:1;stroke:none;stroke-width:1.44000006;stroke-linecap:round;stroke-linejoin:round" />
  <path
     inkscape:connector-curvature="0"
     id="path5010"
     d="m 183.9634,4.323246 c -0.4539,-0.75548 -1.06519,-1.20938 -1.82473,-1.46121 -13.84542,-3.88504 -22.7731,-3.32757005 -26.72719,1.76686 -1.42161,1.66632 -2.28371,3.27984 -2.53757,4.94414 -0.30564,1.66429 -0.10256,3.22907 0.65698,4.7441 l -0.0508,0 c 0.55951,1.1586 1.42059,2.2177 2.53757,3.17728 l 0.0508,0 c 0.91287,0.75548 1.8755,1.36271 2.99146,1.8684 0.75954,0.40211 2.53757,0.65495 5.3757,0.70369 0.5595,0.0518 1.62469,0.0518 3.24634,0.0518 1.42059,0.0518 2.53756,0.0518 3.34788,0.10154 l 0.0508,0 c 2.53756,0.0518 5.11067,0.29752 5.93621,0.55341 0.82149,0.25792 2.26747,1.75162 2.38018,2.42384 0.11677,0.66815 0,0 0,0 0.15231,0.40414 0.30564,0.50975 0.16044,1.53127 -0.14826,1.02153 -0.46203,0.83875 -0.8682,1.34443 l 0,-0.0518 c -0.45796,0.40414 -1.2175,0.70572 -2.28269,1.01137 -1.5201,0.35337 -3.34788,0.60316 -5.47826,0.65495 -2.13037,0.0518 -4.26075,0 -6.44088,-0.25183 -2.07961,-0.25385 -3.90434,-0.60722 -5.42749,-1.06112 -0.75954,-0.2498 -1.56986,-0.20004 -2.28269,0.2041 -0.75954,0.35337 -1.26828,0.95958 -1.5201,1.76685 -0.25386,0.75548 -0.15232,1.56275 0.20004,2.31823 0.40719,0.70573 1.01746,1.20938 1.777,1.46527 1.82474,0.60317 4.00588,1.00528 6.54243,1.31093 2.4868,0.25182 4.91774,0.35337 7.35376,0.30158 2.63911,-0.10154 4.9218,-0.40211 6.79731,-0.85703 2.63505,-0.658 4.46384,-1.66632 5.42647,-2.97724 l 0.0508,0 c 0.81031,-1.01137 1.41754,-1.92019 1.77396,-2.72745 l 0,-0.0518 c 0.40719,-1.00528 0.61027,-2.01665 0.61027,-3.07371 l 0,-0.10155 c -0.0508,-0.75751 0.0142,-1.8623 -0.39297,-2.92343 -0.15231,-0.55341 -0.30158,-0.85905 -1.11596,-2.62184 -0.81742,-1.75873 -2.7041,-2.8818 -6.0012,-3.58753 l -0.0508,0 c -1.62165,-0.30361 -3.95511,-0.55544 -6.94658,-0.65597 -0.86108,-0.0518 -2.02883,-0.0518 -3.55096,-0.10357 -1.52011,0 -2.58428,0 -3.1448,-0.0498 -1.62164,-0.0477 -2.68683,-0.0995 -3.093,-0.20004 -0.55951,-0.25385 -1.06519,-0.55544 -1.47238,-0.90881 -0.4539,-0.40414 -0.81032,-0.80727 -1.01442,-1.20938 l 0,-0.0518 c -0.2041,-0.30159 -0.25487,-0.65496 -0.15231,-1.01137 0.15231,-0.65496 0.50873,-1.35865 1.16673,-2.01665 3.04223,-2.92546 9.83954,-2.92546 20.43964,0.10154 0.81437,0.20004 1.57392,0.15231 2.28269,-0.30158 0.7636,-0.40211 1.26929,-1.00934 1.47237,-1.81661 0.25792,-0.75548 0.15638,-1.51503 -0.25182,-2.27254 z"
     style="fill:#f4f4f4;fill-opacity:1;stroke:none;stroke-width:1.46222258;stroke-linecap:round;stroke-linejoin:round" />
</svg>
