<?xml version="1.0" encoding="UTF-8" standalone="no"?>
<svg
   xmlns:dc="http://purl.org/dc/elements/1.1/"
   xmlns:cc="http://creativecommons.org/ns#"
   xmlns:rdf="http://www.w3.org/1999/02/22-rdf-syntax-ns#"
   xmlns:svg="http://www.w3.org/2000/svg"
   xmlns="http://www.w3.org/2000/svg"
   xmlns:xlink="http://www.w3.org/1999/xlink"
   xmlns:sodipodi="http://sodipodi.sourceforge.net/DTD/sodipodi-0.dtd"
   xmlns:inkscape="http://www.inkscape.org/namespaces/inkscape"
   version="1.1"
   x="0px"
   y="0px"
   width="359.89828"
   height="179.07396"
   viewBox="0 0 359.89828 179.07396"
   id="svg4300"
   inkscape:version="0.91 r13725"
   sodipodi:docname="logo.svg">
  <metadata
     id="metadata4441">
    <rdf:RDF>
      <cc:Work
         rdf:about="">
        <dc:format>image/svg+xml</dc:format>
        <dc:type
           rdf:resource="http://purl.org/dc/dcmitype/StillImage" />
        <dc:title>Sega Saturn Logo</dc:title>
      </cc:Work>
    </rdf:RDF>
  </metadata>
  <defs
     id="defs4439">
    <linearGradient
       inkscape:collect="always"
       xlink:href="#SVGID_5_"
       id="linearGradient4989"
       gradientUnits="userSpaceOnUse"
       x1="140.39549"
       y1="157.2148"
       x2="173.5679"
       y2="124.0427"
       gradientTransform="translate(51.199462,23.173099)" />
    <linearGradient
       inkscape:collect="always"
       xlink:href="#SVGID_1_"
       id="linearGradient5012"
       gradientUnits="userSpaceOnUse"
       gradientTransform="matrix(1.0154323,0,0,1.0154323,114.36633,20.060049)"
       x1="38.512199"
       y1="155.3213"
       x2="70.132103"
       y2="123.7017" />
    <linearGradient
       inkscape:collect="always"
       xlink:href="#SVGID_5_"
       id="linearGradient5014"
       gradientUnits="userSpaceOnUse"
       x1="140.39549"
       y1="157.2148"
       x2="173.5679"
       y2="124.0427"
       gradientTransform="translate(-34.550538,23.173099)" />
    <linearGradient
       inkscape:collect="always"
       xlink:href="#SVGID_1_"
       id="linearGradient5016"
       gradientUnits="userSpaceOnUse"
       gradientTransform="matrix(1.0154323,0,0,1.0154323,-38.371128,20.060049)"
       x1="38.512199"
       y1="155.3213"
       x2="70.132103"
       y2="123.7017" />
  </defs>
  <sodipodi:namedview
     pagecolor="#ffffff"
     bordercolor="#666666"
     borderopacity="1"
     objecttolerance="10"
     gridtolerance="10"
     guidetolerance="10"
     inkscape:pageopacity="0"
     inkscape:pageshadow="2"
     inkscape:window-width="1680"
     inkscape:window-height="975"
     id="namedview4437"
     showgrid="false"
     showguides="true"
     inkscape:guide-bbox="true"
     inkscape:zoom="2.899852"
     inkscape:cx="185.96908"
     inkscape:cy="0.70710678"
     inkscape:window-x="1671"
     inkscape:window-y="-9"
     inkscape:window-maximized="1"
     inkscape:current-layer="svg4300"
     fit-margin-top="0"
     fit-margin-left="0"
     fit-margin-right="0"
     fit-margin-bottom="0">
    <sodipodi:guide
       position="-17.803888,125.4917"
       orientation="1,0"
       id="guide5042" />
    <sodipodi:guide
       position="-134.80389,112.4917"
       orientation="1,0"
       id="guide5044" />
    <sodipodi:guide
       position="109.69611,-11.508304"
       orientation="1,0"
       id="guide5046" />
    <sodipodi:guide
       position="279.69611,41.991696"
       orientation="1,0"
       id="guide5048" />
  </sodipodi:namedview>
  <title
     id="title4302">Sega Saturn Logo</title>
  <linearGradient
     id="SVGID_1_"
     gradientUnits="userSpaceOnUse"
     x1="38.512199"
     y1="155.3213"
     x2="70.132103"
     y2="123.7017"
     gradientTransform="matrix(1.0154323,0,0,1.0154323,-3.8205913,-3.1130436)">
    <stop
       offset="0"
       stop-color="#999999"
       id="stop4305" />
    <stop
       offset="0.98"
       stop-color="#F3F3F3"
       id="stop4307" />
  </linearGradient>
  <linearGradient
     id="SVGID_2_"
     gradientUnits="userSpaceOnUse"
     x1="4.4208999"
     y1="193.53909"
     x2="36.637501"
     y2="161.3224"
     gradientTransform="translate(173.72881,-38.983051)">
    <stop
       offset="0"
       stop-color="#999999"
       id="stop4312" />
    <stop
       offset="0.98"
       stop-color="#F3F3F3"
       id="stop4314" />
  </linearGradient>
  <linearGradient
     id="SVGID_3_"
     gradientUnits="userSpaceOnUse"
     x1="72.103996"
     y1="152.6436"
     x2="102.8901"
     y2="121.8574"
     gradientTransform="matrix(1.0693253,0,0,1.0693253,-41.011708,13.178859)">
    <stop
       offset="0"
       stop-color="#999999"
       id="stop4319" />
    <stop
       offset="0.98"
       stop-color="#F3F3F3"
       id="stop4321" />
  </linearGradient>
  <linearGradient
     id="SVGID_4_"
     gradientUnits="userSpaceOnUse"
     x1="101.3784"
     y1="155.9043"
     x2="135.2655"
     y2="122.0172"
     gradientTransform="matrix(0.99024799,0,0,0.99024799,-33.216428,23.993239)">
    <stop
       offset="0"
       stop-color="#999999"
       id="stop4326" />
    <stop
       offset="0.98"
       stop-color="#F3F3F3"
       id="stop4328" />
  </linearGradient>
  <linearGradient
     id="SVGID_5_"
     gradientUnits="userSpaceOnUse"
     x1="140.39549"
     y1="157.2148"
     x2="173.5679"
     y2="124.0427">
    <stop
       offset="0"
       stop-color="#999999"
       id="stop4333" />
    <stop
       offset="0.98"
       stop-color="#F3F3F3"
       id="stop4335" />
  </linearGradient>
  <linearGradient
     id="SVGID_6_"
     gradientUnits="userSpaceOnUse"
     x1="41.523399"
     y1="197.4736"
     x2="76.365898"
     y2="162.6313"
     gradientTransform="translate(173.72881,-38.983051)">
    <stop
       offset="0"
       stop-color="#999999"
       id="stop4340" />
    <stop
       offset="0.98"
       stop-color="#F3F3F3"
       id="stop4342" />
  </linearGradient>
  <linearGradient
     id="SVGID_7_"
     gradientUnits="userSpaceOnUse"
     x1="65.424797"
     y1="189.6338"
     x2="97.999802"
     y2="157.05881"
     gradientTransform="translate(151.67827,-15.809951)">
    <stop
       offset="0"
       stop-color="#999999"
       id="stop4347" />
    <stop
       offset="0.98"
       stop-color="#F3F3F3"
       id="stop4349" />
  </linearGradient>
  <linearGradient
     id="SVGID_8_"
     gradientUnits="userSpaceOnUse"
     x1="99.466301"
     y1="192.6514"
     x2="132.3989"
     y2="159.7188"
     gradientTransform="translate(152.92827,-15.809951)">
    <stop
       offset="0"
       stop-color="#999999"
       id="stop4354" />
    <stop
       offset="0.98"
       stop-color="#F3F3F3"
       id="stop4356" />
  </linearGradient>
  <linearGradient
     id="SVGID_9_"
     gradientUnits="userSpaceOnUse"
     x1="136.96291"
     y1="194.1104"
     x2="170.1333"
     y2="160.9399"
     gradientTransform="translate(154.17827,-15.809951)">
    <stop
       offset="0"
       stop-color="#999999"
       id="stop4361" />
    <stop
       offset="0.98"
       stop-color="#F3F3F3"
       id="stop4363" />
  </linearGradient>
  <linearGradient
     id="SVGID_10_"
     gradientUnits="userSpaceOnUse"
     x1="173.21001"
     y1="193.8428"
     x2="205.4281"
     y2="161.62469"
     gradientTransform="translate(154.17827,-15.809951)">
    <stop
       offset="0"
       stop-color="#999999"
       id="stop4368" />
    <stop
       offset="0.98"
       stop-color="#F3F3F3"
       id="stop4370" />
  </linearGradient>
  <radialGradient
     id="SVGID_11_"
     cx="157.4951"
     cy="52.9604"
     r="22.196199"
     gradientUnits="userSpaceOnUse">
    <stop
       offset="0.43"
       stop-color="#FFFFFF"
       id="stop4375" />
    <stop
       offset="0.64"
       stop-color="#7A7A7A"
       id="stop4377" />
    <stop
       offset="0.99"
       stop-color="#000000"
       id="stop4379" />
  </radialGradient>
  <radialGradient
     id="SVGID_12_"
     cx="50.105499"
     cy="85.897003"
     r="22.9105"
     gradientUnits="userSpaceOnUse">
    <stop
       offset="0"
       stop-color="#FFFFFF"
       id="stop4384" />
    <stop
       offset="1"
       stop-color="#000000"
       id="stop4386" />
  </radialGradient>
  <radialGradient
     id="SVGID_13_"
     cx="61.441898"
     cy="37.691399"
     r="52.493401"
     gradientUnits="userSpaceOnUse">
    <stop
       offset="0.8128"
       stop-color="#FFFFFF"
       id="stop4391" />
    <stop
       offset="1"
       stop-color="#575757"
       id="stop4393" />
  </radialGradient>
  <radialGradient
     id="SVGID_14_"
     cx="162.86819"
     cy="1.0562"
     r="29.353399"
     gradientUnits="userSpaceOnUse">
    <stop
       offset="0"
       stop-color="#FFFFFF"
       id="stop4400" />
    <stop
       offset="1"
       stop-color="#000000"
       id="stop4402" />
  </radialGradient>
  <linearGradient
     id="SVGID_15_"
     gradientUnits="userSpaceOnUse"
     x1="53.883301"
     y1="44.713902"
     x2="44.934898"
     y2="37.913101">
    <stop
       offset="0"
       stop-color="#000000"
       id="stop4407" />
    <stop
       offset="1"
       stop-color="#FFFFFF"
       id="stop4409" />
  </linearGradient>
  <radialGradient
     id="SVGID_16_"
     cx="113.4971"
     cy="35.629902"
     r="47.610298"
     gradientUnits="userSpaceOnUse">
    <stop
       offset="0.04"
       stop-color="#FFFFFF"
       id="stop4416" />
    <stop
       offset="0.04"
       stop-color="#FFFFFF"
       id="stop4418" />
    <stop
       offset="0.23"
       stop-color="#6E93E1"
       id="stop4420" />
    <stop
       offset="1"
       stop-color="#363499"
       id="stop4422" />
  </radialGradient>
  <linearGradient
     id="SVGID_17_"
     gradientUnits="userSpaceOnUse"
     x1="110.5596"
     y1="63.437"
     x2="106.9759"
     y2="51.730499">
    <stop
       offset="0"
       stop-color="#000000"
       id="stop4427" />
    <stop
       offset="0.9893"
       stop-color="#FFFFFF"
       id="stop4429" />
  </linearGradient>
  <g
     id="g5018"
     transform="matrix(1.1177202,0,0,1.1177202,70.139822,-4.6228909)">
    <path
       id="path4381"
       d="m 166.998,46.412 c 1.59,-0.151 2.738,-0.154 3.447,-0.015 l 0,0.104 c 2.266,1.442 3.504,2.889 3.608,4.536 -0.827,2.577 -3.404,5.466 -7.528,8.663 -4.947,3.708 -11.752,7.524 -20.104,11.441 -3.791,1.729 -7.782,3.39 -11.978,5.004 -4.814,1.854 -4.092,14.738 -0.559,13.456 6.304,-2.284 12.21,-4.711 17.69,-7.22 9.279,-4.332 16.807,-8.559 22.478,-12.887 7.217,-5.57 11.34,-10.825 12.06,-15.879 1.336,-4.886 0.169,-9.239 -3.536,-13.177 -1.453,-1.547 -16.298,6.042 -15.578,5.974 z"
       style="fill:url(#SVGID_11_)"
       inkscape:connector-curvature="0" />
    <path
       id="path4388"
       d="m 83.412,90.65 c -3.623,0.684 -7.145,1.281 -10.599,1.833 l 0.104,-0.104 c -7.009,1.031 -13.095,1.546 -18.35,1.65 l -0.104,0 c -4.535,0 -8.043,-0.308 -10.309,-1.135 -1.547,-0.619 -3.093,-0.515 -4.64,0.208 -1.65,0.619 -2.681,1.854 -3.3,3.4 -0.62,1.65 -0.516,3.197 0.208,4.744 0.719,1.547 1.854,2.682 3.401,3.301 3.3,1.234 8.144,1.854 14.845,1.854 5.67,-0.104 12.271,-0.619 19.899,-1.754 l 0.104,0 c 3.813,-0.529 7.732,-1.191 11.749,-1.969 3.8,-0.731 0.833,-12.751 -3.008,-12.028 z"
       style="fill:url(#SVGID_12_)"
       inkscape:connector-curvature="0" />
    <path
       id="path4395"
       d="m 82.606,24.239 c -3.487,1.156 -6.888,2.359 -10.206,3.601 -7.732,2.993 -14.641,5.981 -20.827,9.178 l 0.104,0 C 44.976,40.419 39.513,43.72 35.285,47.224 l 0,-0.104 c -5.155,4.02 -8.659,7.94 -10.517,11.648 l 0,0.104 c -2.885,5.259 -3.093,10.106 -0.72,14.641 1.443,4.432 5.875,6.805 13.402,7.217 4.328,0.308 10.206,-0.312 17.63,-1.754 3.73,-0.77 7.983,-1.826 12.783,-3.107 2.892,-0.773 -0.548,-12.679 -3.397,-11.906 -4.417,1.203 -8.352,2.158 -11.863,2.849 -6.082,1.235 -10.825,1.75 -14.433,1.546 -1.443,0 -2.474,-0.104 -2.885,-0.104 L 35.181,68.15 c -0.308,-1.031 -0.204,-2.266 0.516,-3.504 l 0,-0.104 c 1.342,-2.37 3.712,-4.947 7.217,-7.628 3.816,-2.989 8.559,-5.978 14.33,-8.867 5.774,-3.093 12.271,-5.875 19.488,-8.659 l 0,0.104 c 2.044,-0.77 4.124,-1.525 6.232,-2.259 5.234,-1.818 3.949,-14.419 -0.358,-12.994 z"
       style="fill:url(#SVGID_13_)"
       inkscape:connector-curvature="0" />
    <path
       id="path4397"
       d="m 133.964,24.905 c 3.981,-0.512 7.865,-0.87 11.635,-1.084 7.424,-0.619 14.125,-0.516 20,0.104 1.753,0.208 3.196,-0.308 4.535,-1.339 1.342,-1.135 2.063,-2.477 2.27,-4.124 0.207,-1.754 -0.309,-3.3 -1.339,-4.539 -1.135,-1.339 -2.477,-2.162 -4.124,-2.266 -6.601,-0.723 -14.021,-0.723 -22.165,-0.208 -5.23,0.354 -10.65,0.949 -16.299,1.787 -2.596,0.382 1.85,12.134 5.487,11.669 z"
       style="fill:#cccccc"
       inkscape:connector-curvature="0" />
    <path
       id="path4404"
       d="m 133.964,24.905 c 3.981,-0.512 7.865,-0.87 11.635,-1.084 7.424,-0.619 14.125,-0.516 20,0.104 1.753,0.208 3.196,-0.308 4.535,-1.339 1.342,-1.135 2.063,-2.477 2.27,-4.124 0.207,-1.754 -0.309,-3.3 -1.339,-4.539 -1.135,-1.339 -2.477,-2.162 -4.124,-2.266 -6.601,-0.723 -14.021,-0.723 -22.165,-0.208 -5.23,0.354 -10.65,0.949 -16.299,1.787 -2.596,0.382 1.85,12.134 5.487,11.669 z"
       style="fill:url(#SVGID_14_)"
       inkscape:connector-curvature="0" />
    <path
       id="path4411"
       d="m 31.041,62.116 c 0,6.684 4.278,6.197 4.271,6.143 0,-0.003 -0.007,-0.003 -0.025,-0.003 l -0.104,-0.104 c -0.308,-1.031 -0.204,-2.266 0.516,-3.504 l 0,-0.104 c 1.342,-2.37 3.712,-4.947 7.217,-7.628 3.816,-2.989 8.559,-5.978 14.33,-8.867 5.774,-3.093 12.271,-5.875 19.488,-8.659 l 0,0.104 c 2.044,-0.77 4.124,-1.525 6.232,-2.259 2.305,-0.802 3.347,-3.698 3.422,-6.562 -2.696,-0.369 -5.474,-0.562 -8.316,-0.562 -6.143,0 -11.996,0.902 -17.315,2.531 -3.226,1.428 -6.282,2.878 -9.182,4.378 l 0.104,0 c -2.087,1.06 -4.052,2.109 -5.903,3.157 -7.462,5.719 -14.735,13.469 -14.735,21.939 z"
       style="fill:url(#SVGID_15_)"
       inkscape:connector-curvature="0" />
    <path
       id="path4413"
       d="m 172.403,18.461 c 0.207,-1.754 -0.309,-3.3 -1.339,-4.539 -1.135,-1.339 -2.477,-2.162 -4.124,-2.266 -6.601,-0.723 -14.021,-0.723 -22.165,-0.208 -7.633,0.516 -15.673,1.546 -24.229,3.093 -8.146,1.443 -16.395,3.404 -24.642,5.67 -8.248,2.27 -16.08,4.847 -23.504,7.628 -7.732,2.993 -14.641,5.981 -20.827,9.178 l 0.104,0 c -6.701,3.401 -12.164,6.702 -16.392,10.206 l 0,-0.104 c -5.155,4.02 -8.659,7.94 -10.517,11.648 l 0,0.104 c -2.885,5.259 -3.093,10.106 -0.72,14.641 1.443,4.432 5.795,6.485 13.323,6.896 4.328,0.308 10.286,0.009 17.71,-1.434 5.978,-1.235 13.298,-3.197 22.062,-5.67 6.39,-1.958 14.537,-4.535 24.432,-7.836 l 24.539,-8.04 c 8.967,-2.989 16.287,-5.259 21.958,-6.805 6.908,-2.062 12.371,-3.297 16.495,-3.917 2.889,-0.412 4.847,-0.516 5.878,-0.312 l 0,0.104 c 2.266,1.442 3.504,2.889 3.608,4.536 -0.827,2.577 -3.404,5.466 -7.528,8.663 -4.947,3.708 -11.752,7.524 -20.104,11.441 -8.144,3.712 -17.215,7.116 -27.217,10.413 l -0.104,0 c -7.732,2.474 -15.668,4.64 -23.813,6.598 -7.939,1.858 -15.364,3.197 -22.477,4.332 l 0.104,-0.104 c -7.009,1.031 -13.095,1.546 -18.35,1.65 l -0.104,0 c -4.535,0 -8.043,-0.308 -10.309,-1.135 -1.547,-0.619 -3.093,-0.515 -4.64,0.208 -1.65,0.619 -2.681,1.854 -3.3,3.4 -0.62,1.65 -0.516,3.197 0.208,4.744 0.719,1.547 1.854,2.682 3.401,3.301 3.3,1.234 8.144,1.854 14.845,1.854 5.67,-0.104 12.271,-0.619 19.899,-1.754 l 0.104,0 c 7.421,-1.031 15.257,-2.576 23.401,-4.432 l 0.104,0 c 8.456,-2.062 16.703,-4.332 24.744,-6.909 10.517,-3.297 20.104,-7.009 28.658,-10.925 9.279,-4.332 16.807,-8.559 22.478,-12.887 7.217,-5.57 11.34,-10.825 12.06,-15.879 1.858,-6.802 -1.131,-12.576 -9.071,-17.626 -2.474,-1.962 -7.112,-2.477 -14.125,-1.546 l -0.1,0 c -4.54,0.719 -10.622,2.062 -18.146,4.224 -5.773,1.65 -13.198,3.919 -22.477,7.013 l -24.536,8.04 c -9.794,3.197 -17.734,5.774 -24.02,7.628 -8.352,2.478 -15.26,4.332 -21.035,5.466 -6.082,1.235 -10.825,1.75 -14.433,1.546 -1.443,0 -2.474,-0.104 -2.885,-0.104 L 35.181,68.15 c -0.308,-1.031 -0.204,-2.266 0.516,-3.504 l 0,-0.104 c 1.342,-2.37 3.712,-4.947 7.217,-7.628 3.816,-2.989 8.559,-5.978 14.33,-8.867 5.774,-3.093 12.271,-5.875 19.488,-8.659 l 0,0.104 c 7.113,-2.681 14.638,-5.155 22.474,-7.32 7.94,-2.27 15.772,-4.124 23.608,-5.463 7.939,-1.546 15.568,-2.477 22.785,-2.889 7.424,-0.619 14.125,-0.516 20,0.104 1.753,0.208 3.196,-0.308 4.535,-1.339 1.342,-1.134 2.062,-2.477 2.269,-4.124 z"
       style="fill:none;stroke:#333333;stroke-width:1.44000006;stroke-linecap:round;stroke-linejoin:round"
       inkscape:connector-curvature="0" />
    <circle
       id="circle4424"
       r="52.578999"
       cy="58.154999"
       cx="104.906"
       style="fill:url(#SVGID_16_);stroke:#33317a;stroke-width:2.88000011;stroke-linecap:round;stroke-linejoin:round" />
    <path
       id="path4431"
       d="m 52.116,66.96 c -0.604,0.116 -16.489,3.589 -19.115,0.964 -0.771,-0.771 1.671,1.196 4.16,4.434 0.316,0.411 0.112,1.094 -0.257,1.935 -0.084,0.193 -0.176,0.253 -0.334,0.461 -0.074,0.099 -0.096,0.497 -0.109,0.598 -0.04,0.322 -0.21,0.578 -0.257,0.862 -0.15,0.901 -0.681,1.62 -0.795,2.195 -0.043,0.217 0.281,0.414 0.259,0.592 -0.023,0.191 -0.411,0.239 -0.398,0.391 0.013,0.152 -0.439,0.203 -0.4,0.329 0.011,0.035 -0.014,0.16 0.067,0.179 0.308,0.071 1.039,0.142 1.141,0.157 0.157,0.022 1.572,0.23 3.602,0.246 2.03,0.015 4.526,0.019 6.712,-0.224 1.338,-0.148 2.733,-0.337 4.045,-0.529 1.724,-0.253 3.303,-0.511 4.416,-0.688 1.035,-0.164 1.498,-0.042 1.644,-0.028 5.699,-1.242 12.54,-3.085 20.604,-5.362 6.39,-1.958 14.538,-4.535 24.432,-7.836 l 24.539,-8.04 c 4.947,-1.65 9.394,-3.079 13.338,-4.289 3.207,-0.984 6.078,-1.822 8.62,-2.517 3.129,-0.931 5.957,-1.693 8.502,-2.309 3.078,-0.745 5.734,-1.271 7.993,-1.607 2.889,-0.412 4.847,-0.516 5.878,-0.312 l 0,0.104 c 0.87,0.555 4.665,0.114 6.583,3.014 3.09,4.668 4.604,13.073 5.863,11.348 1.801,-2.466 2.886,-4.879 3.222,-7.249 1.858,-6.802 -1.131,-12.318 -9.07,-17.369 -2.474,-1.962 -7.113,-2.478 -14.126,-1.546 l -0.1,0 c -2.75,0.437 -6.067,1.103 -9.931,2.041 -2.509,0.608 -5.251,1.074 -8.216,1.926 -2.863,0.82 -6.135,1.79 -9.837,2.939 -3.758,1.167 -7.961,2.513 -12.64,4.073 l -24.535,8.04 c -6.941,2.266 -12.948,4.221 -18.099,5.828 L 52.116,66.96 Z"
       style="fill:url(#SVGID_17_)"
       inkscape:connector-curvature="0" />
    <path
       id="path4433"
       d="m 153.641,36.196 c -2.51,0.609 -6.005,1.618 -8.97,2.47 -5.773,1.65 -13.198,3.919 -22.477,7.013 l -24.536,8.04 c -7.467,2.438 -13.784,4.411 -19.184,5.987 -2.343,0.684 -3.99,1.048 -4.832,1.296 -8.151,2.416 -28.108,8.23 -35.859,7.381"
       style="fill:none;stroke:#333333;stroke-linecap:round;stroke-linejoin:round"
       inkscape:connector-curvature="0" />
    <path
       id="path4435"
       d="m 54.935,78.977 c 5.699,-1.242 14.144,-3.394 22.208,-5.67 6.39,-1.958 14.537,-4.535 24.432,-7.836 l 24.539,-8.04 c 8.967,-2.989 16.287,-5.259 21.958,-6.805 3.129,-0.931 6.733,-1.823 9.278,-2.439"
       style="fill:none;stroke:#333333;stroke-linecap:round;stroke-linejoin:round"
       inkscape:connector-curvature="0" />
  </g>
  <g
     id="g7188">
    <path
       inkscape:connector-curvature="0"
       id="path4309"
       d="m 31.954662,148.20658 c -0.4539,-0.75548 -1.06519,-1.20938 -1.82473,-1.46121 -13.84542,-3.88504 -22.7731003,-3.32757 -26.7271903,1.76686 -1.42161,1.66632 -2.28371,3.27984 -2.53756997,4.94414 -0.30564,1.66429 -0.10256,3.22907 0.65698997,4.7441 l -0.0508,0 c 0.5595,1.1586 1.42059,2.2177 2.53756,3.17728 l 0.0508,0 c 0.91288,0.75548 1.87551,1.36271 2.99147,1.8684 0.75954,0.40211 2.53756,0.65495 5.3756903,0.70369 0.55951,0.0518 1.6247,0.0518 3.24634,0.0518 1.42059,0.0518 2.53757,0.0518 3.34788,0.10154 l 0.0508,0 c 2.53757,0.0518 5.11067,0.29752 5.93622,0.55341 0.82148,0.25792 2.26746,1.75162 2.38017,2.42384 0.11678,0.66815 0,0 0,0 0.15232,0.40414 0.30565,0.50975 0.16044,1.53127 -0.14825,1.02153 -0.46202,0.83875 -0.86819,1.34443 l 0,-0.0518 c -0.45796,0.40414 -1.21751,0.70572 -2.2827,1.01137 -1.5201,0.35337 -3.34788,0.60316 -5.47825,0.65495 -2.13038,0.0518 -4.26076,0 -6.44089,-0.25183 -2.07961,-0.25385 -3.9043403,-0.60722 -5.4274903,-1.06112 -0.75954,-0.2498 -1.56985,-0.20004 -2.28269,0.2041 -0.75954,0.35337 -1.26827,0.95958 -1.5201,1.76685 -0.25386,0.75548 -0.15231,1.56275 0.20004,2.31823 0.40719,0.70573 1.01746,1.20938 1.77701,1.46527 1.82473,0.60317 4.00588,1.00528 6.5424303,1.31093 2.48679,0.25182 4.91774,0.35337 7.35376,0.30158 2.63911,-0.10154 4.9218,-0.40211 6.7973,-0.85703 2.63505,-0.658 4.46384,-1.66632 5.42647,-2.97724 l 0.0508,0 c 0.81032,-1.01137 1.41754,-1.92019 1.77396,-2.72745 l 0,-0.0518 c 0.40719,-1.00528 0.61028,-2.01665 0.61028,-3.07371 l 0,-0.10155 c -0.0508,-0.75751 0.0142,-1.8623 -0.39298,-2.92343 -0.15231,-0.55341 -0.30158,-0.85905 -1.11596,-2.62184 -0.81742,-1.75873 -2.70409,-2.8818 -6.0012,-3.58753 l -0.0508,0 c -1.62165,-0.30361 -3.95511,-0.55544 -6.94657,-0.65597 -0.86109,-0.0518 -2.02884,-0.0518 -3.55097,-0.10357 -1.5201,0 -2.58427,0 -3.14479,-0.0498 -1.62165,-0.0477 -2.6868403,-0.0995 -3.0930103,-0.20004 -0.5595,-0.25385 -1.06519,-0.55544 -1.47238,-0.90881 -0.45389,-0.40414 -0.81031,-0.80727 -1.01441,-1.20938 l 0,-0.0518 c -0.20411,-0.30159 -0.25488,-0.65496 -0.15232,-1.01137 0.15232,-0.65496 0.50873,-1.35865 1.16673,-2.01665 3.0422403,-2.92546 9.8395403,-2.92546 20.4396403,0.10154 0.81438,0.20004 1.57392,0.15231 2.28269,-0.30158 0.76361,-0.40211 1.26929,-1.00934 1.47238,-1.81661 0.25792,-0.75548 0.15637,-1.51503 -0.25183,-2.27254 z"
       style="fill:url(#linearGradient5016);stroke:none;stroke-width:1.46222258;stroke-linecap:round;stroke-linejoin:round" />
    <path
       inkscape:connector-curvature="0"
       id="path4323"
       d="m 64.474022,145.43303 c -0.64373,-0.58492 -1.38904,-0.90465 -2.2969,-0.90465 l -21.36726,0 c -0.85332,0 -1.65318,0.31973 -2.24344,0.90465 -0.63946,0.63518 -0.96026,1.38264 -0.96026,2.28514 l 0,26.56633 c 0,0.85011 0.32187,1.64997 0.96026,2.23275 0.58919,0.63946 1.38905,0.95705 2.24344,0.95705 l 21.36726,0 c 0.90786,0 1.65317,-0.31759 2.2969,-0.95705 0.58598,-0.58278 0.90785,-1.38264 0.90785,-2.23275 0,-0.90252 -0.32187,-1.6457 -0.90785,-2.28516 -0.64373,-0.58278 -1.38904,-0.90464 -2.2969,-0.90464 l -18.15928,0 0,-6.90463 13.35159,0 c 0.90786,0 1.65318,-0.3176 2.29691,-0.95705 0.58492,-0.58706 0.90786,-1.38265 0.90786,-2.23275 0,-0.90251 -0.32187,-1.6457 -0.90786,-2.28514 -0.64373,-0.58707 -1.38905,-0.90465 -2.29691,-0.90465 l -13.35159,0 0,-6.90465 18.15928,0 c 0.90786,0 1.65317,-0.32186 2.2969,-0.95704 0.58598,-0.58706 0.90785,-1.3281 0.90785,-2.23275 0,-0.90037 -0.32187,-1.6489 -0.90785,-2.28301 z"
       style="fill:url(#SVGID_3_);stroke:none;stroke-width:1.53982854;stroke-linecap:round;stroke-linejoin:round" />
    <path
       inkscape:connector-curvature="0"
       id="path4330"
       d="m 98.626172,149.94782 c -0.14853,-0.85458 -0.59217,-1.54577 -1.23285,-2.02703 -5.43052,-3.8996 -11.37894,-4.63833 -17.13228,-3.63026 -2.26867,0.53177 -3.00243,0.48127 -5.48003,1.70819 -2.47464,1.22394 -4.19767,3.49854 -4.19767,3.49854 -1.18334,1.28435 -1.82502,2.85092 -2.61623,4.92846 -0.79121,2.07754 -0.78725,3.10839 -0.88627,5.67116 -0.0991,2.56276 0.24459,4.9146 0.98529,7.15454 0.7407,2.2439 1.87553,4.22241 3.40645,5.87811 l 0,-0.0545 c 1.48142,1.71017 3.30743,3.04205 5.43052,3.89564 2.1231,0.90905 4.44423,1.39031 6.96045,1.39031 5.92367,0 10.22035,-1.33684 12.8861,-4.00555 3.10938,-2.72319 4.392738,-6.8347 3.899598,-12.33553 -0.0495,-0.85458 -0.39214,-1.49725 -0.938748,-2.08149 -0.59217,-0.53573 -1.23386,-0.80112 -2.02407,-0.80112 l -12.83559,0 c -0.78725,0 -1.52796,0.31688 -2.07458,0.90707 -0.59216,0.63871 -0.88627,1.38437 -0.88627,2.2954 0,0.85458 0.29411,1.65569 0.88627,2.24192 0.54662,0.6397 1.28733,0.95955 2.07458,0.95955 l 9.87574,0 c -0.19805,1.60321 -0.84072,2.94004 -1.82899,3.95307 -1.92504,1.6557 -4.9344,2.45582 -9.03304,2.45582 -1.72897,0 -3.35694,-0.31886 -4.78785,-0.90707 l -0.0505,-0.0525 c -1.28336,-0.53572 -2.36769,-1.28435 -3.30743,-2.35184 -0.93876,-1.01302 -1.62995,-2.2439 -2.07358,-3.57578 -0.49315,-1.4428 -0.69119,-3.04402 -0.64069,-4.75418 0.0485,-1.81413 0.24756,-2.80042 0.59118,-4.02635 0.24855,-0.91103 0.64167,-1.6557 1.18433,-2.2439 0,0 0.8833,-1.3715 2.37164,-2.1122 1.48934,-0.74467 2.56673,-0.96153 4.39275,-1.44279 l 0.0495,0 c 4.3462,-1.06749 8.49335,-0.16042 12.49198,2.77566 0.6902,0.48126 1.43091,0.6397 2.21815,0.48126 0.79121,-0.2129 1.4319,-0.64168 1.87851,-1.38832 0.44362,-0.69218 0.59216,-1.4933 0.44362,-2.40433 z"
       style="fill:url(#SVGID_4_);stroke:none;stroke-width:1.4259572;stroke-linecap:round;stroke-linejoin:round" />
    <path
       sodipodi:nodetypes="ccccccccccccccccccc"
       inkscape:connector-curvature="0"
       id="path4337"
       d="m 136.33546,176.5791 c 0.501,-0.695 0.697,-1.389 0.598,-2.234 -3.146,-20.723 -8.788,-30.861 -16.982,-30.363 -8.19,-0.498 -14.10934,10.28059 -17.15534,30.35459 -0.101,0.795 0.05,1.541 0.551,2.189 0.498,0.693 1.149,1.09 1.948,1.191 0.798,0.146 1.546,-0.051 2.247,-0.549 0.648,-0.496 1.049,-1.141 1.199,-1.936 0.376,-2.496 1.01134,-5.78459 1.45434,-7.89759 l 0.015,0 19.377,0 c 0.505,2.389 0.974,5.023 1.403,7.9 0.15,0.795 0.501,1.443 1.199,1.941 0.647,0.498 1.399,0.693 2.198,0.543 0.798,-0.094 1.447,-0.49 1.948,-1.139 z m -24.655,-15.203 c 2.185,-7.354 4.951,-11.162 8.27,-11.43 3.219,0.264 5.953,4.076 8.144,11.43 z"
       style="fill:url(#linearGradient5014);stroke:none;stroke-width:1.44000006;stroke-linecap:round;stroke-linejoin:round" />
    <path
       inkscape:connector-curvature="0"
       id="path4351"
       d="m 250.33927,147.16105 c -0.598,-0.545 -1.299,-0.844 -2.147,-0.844 l -25.972,0 c -0.802,0 -1.55,0.299 -2.101,0.844 -0.598,0.598 -0.898,1.293 -0.898,2.137 0,0.795 0.301,1.539 0.898,2.088 0.551,0.598 1.299,0.895 2.101,0.895 l 9.988,0 0,22.855 c 0,0.795 0.3,1.543 0.898,2.088 0.551,0.598 1.299,0.895 2.098,0.895 0.852,0 1.55,-0.297 2.147,-0.895 0.552,-0.545 0.853,-1.293 0.853,-2.088 l 0,-22.856 9.987,0 c 0.848,0 1.55,-0.297 2.147,-0.895 0.551,-0.549 0.849,-1.293 0.849,-2.088 10e-4,-0.843 -0.297,-1.539 -0.848,-2.136 z"
       style="fill:url(#SVGID_7_);stroke:none;stroke-width:1.44000006;stroke-linecap:round;stroke-linejoin:round" />
    <path
       inkscape:connector-curvature="0"
       id="path4358"
       d="m 286.58427,146.56705 c -0.598,-0.598 -1.296,-0.895 -2.147,-0.895 -0.799,0 -1.547,0.297 -2.098,0.895 -0.598,0.543 -0.899,1.291 -0.899,2.086 l 0,14.756 c 0,1.146 -0.2,2.238 -0.647,3.232 -0.4,1.041 -1.049,1.887 -1.801,2.682 -0.798,0.744 -1.646,1.393 -2.695,1.789 -0.998,0.447 -2.098,0.645 -3.247,0.645 l -4.445,0 c -1.149,0 -2.198,-0.197 -3.247,-0.645 -1.049,-0.396 -1.897,-1.045 -2.695,-1.789 -0.752,-0.795 -1.35,-1.641 -1.801,-2.635 l 0,-0.047 c -0.397,-0.994 -0.647,-2.086 -0.647,-3.232 l 0,-14.756 c 0,-0.795 -0.301,-1.543 -0.849,-2.086 -0.602,-0.598 -1.299,-0.895 -2.148,-0.895 -0.798,0 -1.55,0.297 -2.098,0.895 -0.602,0.543 -0.898,1.291 -0.898,2.086 l 0,14.756 c 0,1.941 0.397,3.777 1.099,5.566 l 0.05,0 c 0.698,1.74 1.747,3.229 3.046,4.572 1.347,1.291 2.847,2.334 4.593,3.082 1.751,0.744 3.598,1.092 5.596,1.092 l 4.445,0 c 1.998,0 3.845,-0.348 5.646,-1.092 l -0.05,0 c 1.747,-0.748 3.247,-1.791 4.597,-3.082 1.295,-1.344 2.345,-2.832 3.096,-4.572 l 0,0.051 c 0.748,-1.791 1.099,-3.627 1.099,-5.617 l 0,-14.756 c -0.003,-0.795 -0.303,-1.543 -0.855,-2.086 z"
       style="fill:url(#SVGID_8_);stroke:none;stroke-width:1.44000006;stroke-linecap:round;stroke-linejoin:round" />
    <path
       inkscape:connector-curvature="0"
       id="path4365"
       d="m 291.86227,146.59605 c -0.529,0.543 -0.849,1.184 -0.849,1.971 l 0,25.664 c 0,0.787 0.319,1.527 0.902,2.072 0.638,0.59 1.436,0.887 2.284,0.887 0.905,0 1.646,-0.297 2.233,-0.887 0.638,-0.545 0.956,-1.285 0.956,-2.072 l 0,-22.9 c 6.852,-0.393 12.11,-0.047 15.775,0.988 2.76,0.838 4.249,2.219 4.406,4.145 0.055,1.529 -0.583,2.617 -1.911,3.258 -2.126,0.889 -5.259,1.135 -9.4,0.691 -0.744,-0.051 -1.382,0.051 -2.019,0.443 -0.638,0.344 -1.063,0.838 -1.328,1.482 -0.266,0.592 -0.266,1.232 -0.107,1.873 0.211,0.645 0.637,1.135 1.221,1.531 l 15.937,10.857 c 0.691,0.49 1.485,0.691 2.338,0.541 0.902,-0.098 1.593,-0.494 2.123,-1.186 0.479,-0.641 0.69,-1.381 0.587,-2.17 -0.161,-0.84 -0.587,-1.48 -1.278,-1.975 l -8.444,-5.725 c 1.221,-0.293 2.283,-0.641 3.186,-1.084 3.612,-1.68 5.42,-4.539 5.474,-8.539 0.211,-4.734 -2.764,-7.992 -8.816,-9.771 -4.729,-1.479 -11.796,-1.826 -21.196,-1.084 -0.796,0.051 -1.487,0.395 -2.074,0.99 z"
       style="fill:url(#SVGID_9_);stroke:none;stroke-width:1.44000006;stroke-linecap:round;stroke-linejoin:round" />
    <path
       inkscape:connector-curvature="0"
       id="path4372"
       d="m 328.75827,147.11005 c -0.352,0.498 -0.548,1.047 -0.548,1.689 l 0,25.84 c 0,0.797 0.297,1.543 0.898,2.086 0.548,0.598 1.296,0.895 2.098,0.895 0.849,0 1.546,-0.297 2.147,-0.895 0.548,-0.543 0.849,-1.289 0.849,-2.086 l 0,-18.432 19.828,20.471 c 0.451,0.445 0.948,0.746 1.55,0.893 0.598,0.1 1.149,0.049 1.747,-0.146 0.551,-0.252 0.998,-0.598 1.35,-1.143 0.351,-0.498 0.501,-1.045 0.501,-1.643 l 0,-25.84 c 0,-0.844 -0.301,-1.539 -0.853,-2.137 -0.597,-0.543 -1.295,-0.844 -2.147,-0.844 -0.798,0 -1.546,0.301 -2.098,0.844 -0.598,0.598 -0.898,1.293 -0.898,2.137 l 0,18.436 -19.777,-20.521 c -0.451,-0.396 -0.949,-0.695 -1.551,-0.846 -0.598,-0.096 -1.199,-0.049 -1.746,0.201 -0.552,0.197 -1.049,0.547 -1.35,1.041 z"
       style="fill:url(#SVGID_10_);stroke:none;stroke-width:1.44000006;stroke-linecap:round;stroke-linejoin:round" />
    <path
       style="fill:url(#linearGradient4989);stroke:none;stroke-width:1.44000006;stroke-linecap:round;stroke-linejoin:round"
       d="m 222.08546,176.5791 c 0.501,-0.695 0.697,-1.389 0.598,-2.234 -3.146,-20.723 -8.788,-30.861 -16.982,-30.363 -8.19,-0.498 -14.10934,10.28059 -17.15534,30.35459 -0.101,0.795 0.05,1.541 0.551,2.189 0.498,0.693 1.149,1.09 1.948,1.191 0.798,0.146 1.546,-0.051 2.247,-0.549 0.648,-0.496 1.049,-1.141 1.199,-1.936 0.376,-2.496 1.01134,-5.78459 1.45434,-7.89759 l 0.015,0 19.377,0 c 0.505,2.389 0.974,5.023 1.403,7.9 0.15,0.795 0.501,1.443 1.199,1.941 0.647,0.498 1.399,0.693 2.198,0.543 0.798,-0.094 1.447,-0.49 1.948,-1.139 z m -24.655,-15.203 c 2.185,-7.354 4.951,-11.162 8.27,-11.43 3.219,0.264 5.953,4.076 8.144,11.43 z"
       id="path4987"
       inkscape:connector-curvature="0"
       sodipodi:nodetypes="ccccccccccccccccccc" />
    <path
       style="fill:url(#linearGradient5012);stroke:none;stroke-width:1.46222258;stroke-linecap:round;stroke-linejoin:round"
       d="m 184.69212,148.20658 c -0.4539,-0.75548 -1.06519,-1.20938 -1.82473,-1.46121 -13.84542,-3.88504 -22.7731,-3.32757 -26.72719,1.76686 -1.42161,1.66632 -2.28371,3.27984 -2.53757,4.94414 -0.30564,1.66429 -0.10256,3.22907 0.65698,4.7441 l -0.0508,0 c 0.55951,1.1586 1.42059,2.2177 2.53757,3.17728 l 0.0508,0 c 0.91287,0.75548 1.8755,1.36271 2.99146,1.8684 0.75954,0.40211 2.53757,0.65495 5.3757,0.70369 0.5595,0.0518 1.62469,0.0518 3.24634,0.0518 1.42059,0.0518 2.53756,0.0518 3.34788,0.10154 l 0.0508,0 c 2.53756,0.0518 5.11067,0.29752 5.93621,0.55341 0.82149,0.25792 2.26747,1.75162 2.38018,2.42384 0.11677,0.66815 0,0 0,0 0.15231,0.40414 0.30564,0.50975 0.16044,1.53127 -0.14826,1.02153 -0.46203,0.83875 -0.8682,1.34443 l 0,-0.0518 c -0.45796,0.40414 -1.2175,0.70572 -2.28269,1.01137 -1.5201,0.35337 -3.34788,0.60316 -5.47826,0.65495 -2.13037,0.0518 -4.26075,0 -6.44088,-0.25183 -2.07961,-0.25385 -3.90434,-0.60722 -5.42749,-1.06112 -0.75954,-0.2498 -1.56986,-0.20004 -2.28269,0.2041 -0.75954,0.35337 -1.26828,0.95958 -1.5201,1.76685 -0.25386,0.75548 -0.15232,1.56275 0.20004,2.31823 0.40719,0.70573 1.01746,1.20938 1.777,1.46527 1.82474,0.60317 4.00588,1.00528 6.54243,1.31093 2.4868,0.25182 4.91774,0.35337 7.35376,0.30158 2.63911,-0.10154 4.9218,-0.40211 6.79731,-0.85703 2.63505,-0.658 4.46384,-1.66632 5.42647,-2.97724 l 0.0508,0 c 0.81031,-1.01137 1.41754,-1.92019 1.77396,-2.72745 l 0,-0.0518 c 0.40719,-1.00528 0.61027,-2.01665 0.61027,-3.07371 l 0,-0.10155 c -0.0508,-0.75751 0.0142,-1.8623 -0.39297,-2.92343 -0.15231,-0.55341 -0.30158,-0.85905 -1.11596,-2.62184 -0.81742,-1.75873 -2.7041,-2.8818 -6.0012,-3.58753 l -0.0508,0 c -1.62165,-0.30361 -3.95511,-0.55544 -6.94658,-0.65597 -0.86108,-0.0518 -2.02883,-0.0518 -3.55096,-0.10357 -1.52011,0 -2.58428,0 -3.1448,-0.0498 -1.62164,-0.0477 -2.68683,-0.0995 -3.093,-0.20004 -0.55951,-0.25385 -1.06519,-0.55544 -1.47238,-0.90881 -0.4539,-0.40414 -0.81032,-0.80727 -1.01442,-1.20938 l 0,-0.0518 c -0.2041,-0.30159 -0.25487,-0.65496 -0.15231,-1.01137 0.15231,-0.65496 0.50873,-1.35865 1.16673,-2.01665 3.04223,-2.92546 9.83954,-2.92546 20.43964,0.10154 0.81437,0.20004 1.57392,0.15231 2.28269,-0.30158 0.7636,-0.40211 1.26929,-1.00934 1.47237,-1.81661 0.25792,-0.75548 0.15638,-1.51503 -0.25182,-2.27254 z"
       id="path5010"
       inkscape:connector-curvature="0" />
    <path
       inkscape:connector-curvature="0"
       id="path7147"
       d="m 13.009766,143.53125 c -4.5827127,0.29875 -8.0446342,1.78344 -10.1777348,4.52539 -1.4653963,1.72234 -2.40389143,3.4501 -2.68554682,5.27734 -0.30234724,1.65646 -0.07646067,3.26353 0.59765624,4.79493 A 0.7311844,0.7311844 0 0 0 0.8125,158.51758 c 0.6113674,1.266 1.5429167,2.40223 2.7207031,3.41406 a 0.7311844,0.7311844 0 0 0 0.2890625,0.15234 c 0.8915211,0.71078 1.8276868,1.32211 2.9042969,1.8125 1.0575482,0.55389 2.8073085,0.73049 5.6328125,0.78125 0.639011,0.0592 1.688221,0.0548 3.287109,0.0547 1.434537,0.0523 2.560779,0.0524 3.330078,0.0996 a 0.7311844,0.7311844 0 0 0 0.04492,0.002 l 0.05078,0 c 1.244877,0.0258 2.502544,0.0997 3.541015,0.19727 1.043039,0.0979 1.906923,0.24028 2.177735,0.32422 0.144247,0.0461 0.722471,0.431 1.15039,0.86914 0.214366,0.21949 0.407832,0.45106 0.541016,0.64453 0.132253,0.19212 0.189319,0.36661 0.183594,0.33008 -4.1e-5,-2.6e-4 0.002,0.002 0.002,0.002 a 0.7311844,0.7311844 0 0 0 0,0.006 c 0,0 0.02837,0.16648 0.04297,0.25 8.43e-4,0.005 0.0052,0.0278 0.0059,0.0312 5.33e-4,0.003 0.0016,0.01 0.002,0.0117 1.71e-4,9.8e-4 0.0019,0.001 0.002,0.002 2.83e-4,6e-4 0.0017,0.001 0.002,0.002 0.133305,0.28228 0.216683,0.19601 0.101563,1.00586 -0.06155,0.42001 -0.09265,0.41351 -0.125,0.44531 -0.01658,0.0163 -0.189099,0.18592 -0.298828,0.27539 a 0.7311844,0.7311844 0 0 0 -0.203125,0.125 c -0.289965,0.25589 -0.968485,0.55621 -1.984375,0.84961 -1.465112,0.33935 -3.234736,0.5843 -5.310547,0.63476 -2.106699,0.0512 -4.202294,-0.001 -6.339844,-0.24804 l 0.0039,0.002 c -2.049665,-0.25019 -3.8371187,-0.59919 -5.3066404,-1.03711 l 0.019531,0.006 c -0.9245901,-0.30408 -1.9523957,-0.23949 -2.84375,0.25586 -0.9187094,0.43775 -1.5810167,1.22546 -1.8828125,2.1875 -0.3184941,0.95744 -0.1801112,1.96509 0.2324218,2.84961 a 0.7311844,0.7311844 0 0 0 0.029297,0.0566 c 0.4899698,0.8492 1.2554075,1.48224 2.1777344,1.79297 a 0.7311844,0.7311844 0 0 0 0.00391,0.002 c 1.8976357,0.62727 4.1208518,1.03299 6.6835937,1.3418 a 0.7311844,0.7311844 0 0 0 0.01367,0.002 c 2.514704,0.25465 4.976701,0.35713 7.44336,0.30469 a 0.7311844,0.7311844 0 0 0 0.01367,0 c 2.678313,-0.10305 5.005532,-0.40739 6.941406,-0.87695 a 0.7311844,0.7311844 0 0 0 0.0039,-0.002 c 2.544341,-0.63535 4.375195,-1.63104 5.527344,-2.99218 a 0.7311844,0.7311844 0 0 0 0.34375,-0.23633 c 0.832514,-1.03907 1.474594,-1.98817 1.873047,-2.89063 a 0.7311844,0.7311844 0 0 0 0.06055,-0.29492 l 0,-0.043 c 0.373119,-1.003 0.611328,-2.02263 0.611328,-3.08203 l 0,-0.10156 a 0.7311844,0.7311844 0 0 0 -0.002,-0.0488 c -0.04447,-0.66319 0.02893,-1.87788 -0.435547,-3.11133 -0.164339,-0.5885 -0.337785,-0.95782 -1.138672,-2.6914 a 0.7311844,0.7311844 0 0 0 -0.002,-0.002 c -0.948508,-2.04077 -3.113242,-3.26713 -6.509766,-3.99414 a 0.7311844,0.7311844 0 0 0 -0.154296,-0.0156 l -0.03906,0 -0.01172,0 c -1.668257,-0.30522 -3.959836,-0.55671 -6.921875,-0.65625 -0.898538,-0.0533 -2.049598,-0.0525 -3.550781,-0.10352 a 0.7311844,0.7311844 0 0 0 -0.02344,0 c -1.5201,0 -2.600809,-0.004 -3.080078,-0.0469 a 0.7311844,0.7311844 0 0 0 -0.04297,-0.004 c -1.581152,-0.0465 -2.666618,-0.12991 -2.8769533,-0.17383 -0.4771838,-0.22289 -0.9056887,-0.47464 -1.2246093,-0.75 l -0.00195,-0.002 C 8.1018461,155.8851 7.8347649,155.55662 7.6895777,155.2913 a 0.7311844,0.7311844 0 0 0 -0.085937,-0.17774 c -0.087075,-0.12866 -0.1059545,-0.22706 -0.056641,-0.39844 a 0.7311844,0.7311844 0 0 0 0.00977,-0.0371 c 0.1207769,-0.51932 0.4064227,-1.09244 0.9667969,-1.65625 1.3254031,-1.27246 3.5748314,-1.98885 6.8710934,-1.97656 3.298604,0.0123 7.595095,0.75369 12.855469,2.25586 a 0.7311844,0.7311844 0 0 0 0.02734,0.006 c 0.933054,0.22919 1.939882,0.16816 2.822265,-0.38476 0.888923,-0.47775 1.54523,-1.25929 1.800782,-2.23438 0.313493,-0.9449 0.17374,-1.94392 -0.302735,-2.82812 a 0.7311844,0.7311844 0 0 0 -0.01758,-0.0293 l 0.002,0 c -0.0015,-0.002 -0.0044,-0.003 -0.0059,-0.006 a 0.7311844,0.7311844 0 0 0 -0.16211,-0.18555 0.7311844,0.7311844 0 0 0 -0.002,-0.002 c -0.528764,-0.76714 -1.233322,-1.31426 -2.052734,-1.58594 a 0.7311844,0.7311844 0 0 0 -0.03125,-0.01 c -6.970824,-1.95603 -12.730769,-2.80883 -17.318359,-2.50977 z m 0.0957,1.45898 c 4.320252,-0.28163 9.938906,0.52976 16.800781,2.45313 0.611251,0.20399 1.039035,0.52622 1.40625,1.12891 0.32523,0.61267 0.389527,1.1182 0.201172,1.66992 a 0.7311844,0.7311844 0 0 0 -0.01563,0.0586 c -0.154198,0.61293 -0.492611,1.02493 -1.105469,1.34766 a 0.7311844,0.7311844 0 0 0 -0.05273,0.0312 c -0.528613,0.33852 -1.028895,0.37552 -1.714844,0.20703 l 0.02734,0.008 c -5.339726,-1.52483 -9.741322,-2.29746 -13.251953,-2.31055 -3.510631,-0.0131 -6.177319,0.73347 -7.8945316,2.38477 a 0.7311844,0.7311844 0 0 0 -0.011719,0.01 c -0.7422434,0.74224 -1.1637205,1.56642 -1.3496094,2.34765 -0.149758,0.53749 -0.07002,1.13745 0.2480469,1.60742 l -0.1269531,-0.41015 0,0.0527 a 0.7311844,0.7311844 0 0 0 0.080078,0.33008 c 0.2703208,0.53258 0.6874257,0.98552 1.1796875,1.42383 a 0.7311844,0.7311844 0 0 0 0.00781,0.008 c 0.4779722,0.4148 1.0414683,0.7461 1.6484375,1.02149 a 0.7311844,0.7311844 0 0 0 0.1269532,0.0449 c 0.6298718,0.15591 1.61549,0.17044 3.203125,0.21679 0.636697,0.0566 1.684871,0.0528 3.185547,0.0527 1.534826,0.0522 2.709707,0.0541 3.53125,0.10351 a 0.7311844,0.7311844 0 0 0 0.01953,0 c 2.963253,0.0996 5.269058,0.35081 6.837891,0.64454 a 0.7311844,0.7311844 0 0 0 0.06836,0.01 0.7311844,0.7311844 0 0 0 0.0039,0 c 3.16085,0.68399 4.766078,1.69876 5.449219,3.16602 0.815151,1.76446 0.936063,2.00778 1.074219,2.50976 a 0.7311844,0.7311844 0 0 0 0.02344,0.0664 c 0.335107,0.8733 0.288497,1.8522 0.34375,2.69531 l 0,0.0684 c 0,0.96342 -0.181751,1.87329 -0.55664,2.79883 a 0.7311844,0.7311844 0 0 0 -0.02734,0.0898 c -0.302043,0.66617 -0.84314,1.47666 -1.552735,2.37695 a 0.7311844,0.7311844 0 0 0 -0.15625,0.1543 c -0.806505,1.09831 -2.47067,2.06447 -5.009765,2.69922 -1.814601,0.44015 -4.051445,0.73777 -6.650391,0.83789 -2.400202,0.0506 -4.794545,-0.0506 -7.248047,-0.29883 l -0.0059,0 c -2.5020136,-0.30208 -4.635265,-0.70005 -6.3828124,-1.27734 -0.5856574,-0.19731 -1.0283816,-0.57031 -1.3515625,-1.11524 -0.276186,-0.61025 -0.3473707,-1.20248 -0.1660157,-1.74218 a 0.7311844,0.7311844 0 0 0 0.00586,-0.0137 c 0.1994578,-0.63939 0.5461111,-1.05113 1.1289063,-1.32227 a 0.7311844,0.7311844 0 0 0 0.052734,-0.0273 c 0.5284495,-0.2996 1.1077901,-0.33712 1.6933594,-0.14454 a 0.7311844,0.7311844 0 0 0 0.019531,0.006 c 1.5767783,0.46989 3.4392729,0.82844 5.5488279,1.08594 a 0.7311844,0.7311844 0 0 0 0.0039,0 c 2.222711,0.25675 4.388907,0.30824 6.542969,0.25586 2.177312,-0.0529 4.053016,-0.3084 5.625,-0.67383 a 0.7311844,0.7311844 0 0 0 0.03711,-0.008 c 0.879883,-0.25248 1.482604,-0.56455 2.052735,-0.93359 A 0.7311844,0.7311844 0 0 0 27.25,170.41406 c 0.118593,-0.14765 0.21177,-0.15769 0.474609,-0.41601 0.26284,-0.25833 0.461331,-0.6918 0.546875,-1.28125 a 0.7311844,0.7311844 0 0 0 0.002,-0.002 c 0.120158,-0.84528 -0.04338,-1.14041 -0.154297,-1.45507 0.0023,-4.1e-4 0.04102,-0.008 0.04102,-0.008 0,0 0,-0.002 0,-0.002 -4.4e-5,-2.5e-4 6.3e-5,-0.002 0,-0.002 -3.1e-4,-0.002 -0.0014,-0.009 -0.002,-0.0117 -6.1e-4,-0.003 -0.005,-0.0264 -0.0059,-0.0312 -0.01438,-0.0823 -0.04211,-0.24116 -0.04297,-0.2461 l 0,-0.004 -0.002,0 c -0.0042,-0.0246 -0.0223,-0.0369 -0.02734,-0.0606 -0.0046,-0.0118 -0.0036,-0.0611 -0.0078,-0.0723 a 0.7311844,0.7311844 0 0 0 -0.119141,-0.20313 c -0.08091,-0.19501 -0.142501,-0.40122 -0.265625,-0.58008 -0.195308,-0.28372 -0.437269,-0.56573 -0.701172,-0.83594 -0.527806,-0.54041 -1.081152,-1.03107 -1.759766,-1.24414 a 0.7311844,0.7311844 0 0 0 -0.002,0 c -0.554622,-0.1715 -1.390202,-0.28054 -2.474493,-0.38237 -1.084291,-0.10183 -2.376735,-0.17684 -3.664062,-0.20312 a 0.7311844,0.7311844 0 0 0 -0.01367,-0.002 l -0.05078,0 c -0.846727,-0.0502 -1.934395,-0.049 -3.322265,-0.0996 a 0.7311844,0.7311844 0 0 0 -0.02539,0 c -1.62164,0 -2.704993,-0.005 -3.179687,-0.0488 a 0.7311844,0.7311844 0 0 0 -0.05469,-0.004 c -2.7999693,-0.0481 -4.5923124,-0.37849 -5.0468749,-0.61914 a 0.7311844,0.7311844 0 0 0 -0.039063,-0.0195 c -1.0595147,-0.48011 -1.9614887,-1.04842 -2.828125,-1.76563 a 0.7311844,0.7311844 0 0 0 -0.1054687,-0.0723 C 3.4496592,159.89329 2.72121,158.97768 2.2265625,158.00391 a 0.7311844,0.7311844 0 0 0 -0.050781,-0.13086 C 1.4832238,156.49164 1.303442,155.11552 1.5839847,153.58789 a 0.7311844,0.7311844 0 0 0 0.00391,-0.0215 c 0.2272766,-1.49002 1.0060101,-2.98002 2.3710938,-4.58008 a 0.7311844,0.7311844 0 0 0 0.021484,-0.0254 c 1.8215506,-2.34688 4.7988723,-3.68869 9.1250005,-3.97071 z"
       style="color:#000000;font-style:normal;font-variant:normal;font-weight:normal;font-stretch:normal;font-size:medium;line-height:normal;font-family:sans-serif;text-indent:0;text-align:start;text-decoration:none;text-decoration-line:none;text-decoration-style:solid;text-decoration-color:#000000;letter-spacing:normal;word-spacing:normal;text-transform:none;direction:ltr;block-progression:tb;writing-mode:lr-tb;baseline-shift:baseline;text-anchor:start;white-space:normal;clip-rule:nonzero;display:inline;overflow:visible;visibility:visible;opacity:1;isolation:auto;mix-blend-mode:normal;color-interpolation:sRGB;color-interpolation-filters:linearRGB;solid-color:#000000;solid-opacity:1;fill:#484848;fill-opacity:1;fill-rule:nonzero;stroke:none;stroke-width:1.46222258;stroke-linecap:round;stroke-linejoin:round;stroke-miterlimit:4;stroke-dasharray:none;stroke-dashoffset:0;stroke-opacity:1;color-rendering:auto;image-rendering:auto;shape-rendering:auto;text-rendering:auto;enable-background:accumulate" />
    <path
       inkscape:connector-curvature="0"
       id="path7149"
       d="m 40.810547,143.75781 c -1.045639,0 -2.047523,0.39795 -2.785156,1.12891 a 0.76999126,0.76999126 0 0 0 -0.002,0 c -0.762378,0.75727 -1.1875,1.74708 -1.1875,2.83203 l 0,26.56641 c 0,1.03327 0.406029,2.04272 1.191406,2.77343 0.736564,0.78445 1.74918,1.18555 2.783203,1.18555 l 21.367187,0 c 1.087416,0 2.07574,-0.4226 2.839844,-1.18164 0.735774,-0.73176 1.134766,-1.7329 1.134766,-2.77734 0,-1.08558 -0.419482,-2.05166 -1.111328,-2.80664 a 0.76999126,0.76999126 0 0 0 -0.05078,-0.0508 c -0.758364,-0.68656 -1.72267,-1.10351 -2.8125,-1.10351 l -17.390625,0 0,-5.36328 12.582032,0 c 1.087421,0 2.07574,-0.42262 2.839843,-1.18164 a 0.76999126,0.76999126 0 0 0 0.002,-0.002 c 0.730391,-0.73306 1.132812,-1.73225 1.132812,-2.77734 0,-1.08556 -0.417505,-2.04971 -1.109375,-2.80469 a 0.76999126,0.76999126 0 0 0 -0.04883,-0.0488 C 59.42534,157.45317 58.45655,157.041 57.36914,157.041 l -12.582032,0 0,-5.36524 17.390625,0 c 1.08983,0 2.075233,-0.42716 2.837891,-1.17969 a 0.76999126,0.76999126 0 0 0 0.0039,-0.004 c 0.71525,-0.71657 1.132813,-1.68812 1.132813,-2.77539 0,-1.08386 -0.41771,-2.05394 -1.113282,-2.80664 a 0.76999126,0.76999126 0 0 0 -0.04687,-0.0469 c -0.759286,-0.68992 -1.725828,-1.10547 -2.814454,-1.10547 l -21.367187,0 z m 0,1.54102 21.367187,0 c 0.712759,0 1.226468,0.22885 1.744141,0.68945 0.458116,0.50629 0.689453,1.02521 0.689453,1.72852 0,0.72102 -0.224259,1.22849 -0.679687,1.68554 -0.524046,0.51633 -1.028991,0.73438 -1.753907,0.73438 l -18.160156,0 a 0.76999126,0.76999126 0 0 0 -0.769531,0.76953 l 0,6.9043 a 0.76999126,0.76999126 0 0 0 0.769531,0.76953 l 13.351563,0 c 0.71395,0 1.227383,0.22805 1.74414,0.68945 0.460692,0.5135 0.691406,1.02529 0.691407,1.73047 0,0.6542 -0.243351,1.24664 -0.681641,1.6875 -4.96e-4,4.9e-4 -0.0015,-4.9e-4 -0.002,0 -4.36e-4,4.4e-4 4.36e-4,0.002 0,0.002 -0.522598,0.51836 -1.024634,0.73047 -1.751953,0.73047 l -13.351563,0 A 0.76999126,0.76999126 0 0 0 43.248,164.1895 l 0,6.9043 a 0.76999126,0.76999126 0 0 0 0.769531,0.77148 l 18.160156,0 c 0.710896,0 1.224094,0.23251 1.742188,0.69141 0.459772,0.51303 0.691406,1.02401 0.691406,1.72852 0,0.65577 -0.243501,1.25174 -0.679687,1.68554 -0.523356,0.51989 -1.025602,0.73438 -1.753907,0.73438 l -21.367187,0 c -0.663597,0 -1.237756,-0.23147 -1.677735,-0.70899 a 0.76999126,0.76999126 0 0 0 -0.04687,-0.0469 c -0.474496,-0.43316 -0.708985,-1.00829 -0.708985,-1.66406 l 0,-26.56641 c 0,-0.72005 0.21588,-1.22715 0.732422,-1.74023 0.442701,-0.43773 1.041086,-0.67969 1.701172,-0.67969 z"
       style="color:#000000;font-style:normal;font-variant:normal;font-weight:normal;font-stretch:normal;font-size:medium;line-height:normal;font-family:sans-serif;text-indent:0;text-align:start;text-decoration:none;text-decoration-line:none;text-decoration-style:solid;text-decoration-color:#000000;letter-spacing:normal;word-spacing:normal;text-transform:none;direction:ltr;block-progression:tb;writing-mode:lr-tb;baseline-shift:baseline;text-anchor:start;white-space:normal;clip-rule:nonzero;display:inline;overflow:visible;visibility:visible;opacity:1;isolation:auto;mix-blend-mode:normal;color-interpolation:sRGB;color-interpolation-filters:linearRGB;solid-color:#000000;solid-opacity:1;fill:#484848;fill-opacity:1;fill-rule:nonzero;stroke:none;stroke-width:1.53982854;stroke-linecap:round;stroke-linejoin:round;stroke-miterlimit:4;stroke-dasharray:none;stroke-dashoffset:0;stroke-opacity:1;color-rendering:auto;image-rendering:auto;shape-rendering:auto;text-rendering:auto;enable-background:accumulate" />
    <path
       inkscape:connector-curvature="0"
       id="path7151"
       d="m 84.599609,143.17383 c -1.495748,0.0105 -2.987449,0.15588 -4.460937,0.41406 a 0.7130499,0.7130499 0 0 0 -0.04102,0.008 c -2.225648,0.52169 -3.098073,0.50846 -5.632812,1.76368 -2.639028,1.30524 -4.377467,3.6172 -4.419922,3.67382 -1.281329,1.39867 -1.953107,3.0616 -2.744141,5.13868 -0.819152,2.15091 -0.833017,3.34347 -0.93164,5.89648 -0.102211,2.64319 0.252766,5.08749 1.019531,7.40625 0.769544,2.33128 1.956649,4.40404 3.560547,6.13867 a 0.7130499,0.7130499 0 0 0 0.253906,0.17578 c 1.505495,1.65751 3.31645,2.98982 5.427734,3.83985 2.210266,0.94518 4.628174,1.44531 7.232422,1.44531 6.019262,0 10.517891,-1.35699 13.371094,-4.20117 3.287049,-2.89121 4.626229,-7.27832 4.125009,-12.90235 -0.0613,-1.0197 -0.50739,-1.85521 -1.12891,-2.51953 a 0.7130499,0.7130499 0 0 0 -0.041,-0.041 c -0.695325,-0.62906 -1.554062,-0.98633 -2.503907,-0.98633 l -12.833985,0 c -0.978573,0 -1.919297,0.40429 -2.597656,1.13672 -0.700234,0.75528 -1.076172,1.71482 -1.076172,2.77929 0,1.00868 0.356872,1.99485 1.082032,2.72461 0.675721,0.77589 1.621914,1.18946 2.591796,1.18946 l 8.94336,0 c -0.264815,1.06425 -0.69954,1.99956 -1.386719,2.71289 -1.734335,1.47937 -4.55219,2.26953 -8.542969,2.26953 -1.615739,0 -3.12325,-0.30566 -4.447265,-0.83985 a 0.7130499,0.7130499 0 0 0 -0.117188,-0.0644 c -1.197206,-0.49976 -2.177631,-1.17665 -3.046875,-2.16406 a 0.7130499,0.7130499 0 0 0 -0.01172,-0.0137 c -0.861642,-0.9298 -1.504839,-2.07023 -1.919922,-3.31641 a 0.7130499,0.7130499 0 0 0 -0.002,-0.006 c -0.459828,-1.34531 -0.652004,-2.85989 -0.603515,-4.50195 a 0.7130499,0.7130499 0 0 0 0,-0.002 c 0.04729,-1.76893 0.228341,-2.65437 0.564453,-3.85351 a 0.7130499,0.7130499 0 0 0 0.002,-0.004 c 0.224272,-0.82204 0.565819,-1.45531 1.021485,-1.94922 a 0.7130499,0.7130499 0 0 0 0.07422,-0.0976 c 0,0 0.815057,-1.22496 2.089844,-1.85938 a 0.7130499,0.7130499 0 0 0 0.002,0 c 1.395727,-0.69786 2.403062,-0.90047 4.195313,-1.37109 7.54e-4,-2e-4 0.0012,2e-4 0.002,0 a 0.7130499,0.7130499 0 0 0 0.0957,-0.0176 c 4.153315,-1.02011 8.034858,-0.18015 11.90039,2.6582 a 0.7130499,0.7130499 0 0 0 0.01367,0.01 c 0.826291,0.57615 1.805403,0.78935 2.767578,0.5957 a 0.7130499,0.7130499 0 0 0 0.04492,-0.01 c 0.926006,-0.24917 1.757577,-0.80656 2.296875,-1.70117 0.495262,-0.77674 0.650255,-1.70155 0.541016,-2.66407 a 0.7130499,0.7130499 0 0 0 0.002,-0.22265 0.7130499,0.7130499 0 0 0 0,-0.008 0.7130499,0.7130499 0 0 0 -0.002,-0.008 c -0.0031,-0.0177 -0.01427,-0.0312 -0.01758,-0.0488 l 0.0078,-0.002 a 0.7130499,0.7130499 0 0 0 -0.08594,-0.20312 c -0.222669,-0.90639 -0.703932,-1.69021 -1.410156,-2.22071 a 0.7130499,0.7130499 0 0 0 -0.01367,-0.01 c -4.197176,-3.01395 -8.721741,-4.19941 -13.208985,-4.16797 z m 0.0039,1.41992 c 4.218769,-0.038 8.417501,1.0701 12.363281,3.90039 0.50177,0.37816 0.836001,0.89376 0.955078,1.57227 0.124492,0.76875 0.0072,1.35883 -0.339844,1.90039 a 0.7130499,0.7130499 0 0 0 -0.01172,0.0195 c -0.348377,0.58241 -0.792432,0.87213 -1.427734,1.04883 -0.601566,0.11578 -1.101536,0.02 -1.648437,-0.36133 -4.082274,-2.99239 -8.440567,-3.95836 -12.921875,-2.90235 l -0.02734,0 a 0.7130499,0.7130499 0 0 0 -0.181641,0.0234 c -1.810229,0.4771 -2.968414,0.71272 -4.53125,1.49414 -1.604911,0.79981 -2.476275,2.11183 -2.576172,2.26563 -0.0015,0.002 -0.0024,0.004 -0.0039,0.006 -0.627227,0.68168 -1.071586,1.53757 -1.34375,2.53515 -0.350122,1.24999 -0.567418,2.33617 -0.617187,4.19141 -0.05251,1.77825 0.153216,3.46557 0.679687,5.00586 0.471487,1.41375 1.20831,2.73008 2.220703,3.82422 0.963799,1.0923 2.10052,1.87149 3.390625,2.4375 a 0.7130499,0.7130499 0 0 0 0.222657,0.14843 c 1.522991,0.62607 3.243917,0.96094 5.060546,0.96094 4.19143,0 7.380597,-0.80771 9.498047,-2.6289 a 0.7130499,0.7130499 0 0 0 0.04492,-0.043 c 1.099319,-1.12686 1.810244,-2.62168 2.025391,-4.36328 a 0.7130499,0.7130499 0 0 0 -0.707032,-0.80079 l -9.875,0 c -0.594133,0 -1.116982,-0.22188 -1.533203,-0.70898 a 0.7130499,0.7130499 0 0 0 -0.04102,-0.0449 c -0.445251,-0.44079 -0.673828,-1.04338 -0.673828,-1.73438 0,-0.75758 0.211226,-1.2884 0.695312,-1.81054 0.414882,-0.44795 0.956808,-0.67969 1.552734,-0.67969 l 12.833985,0 c 0.618628,0 1.04007,0.18137 1.517578,0.60547 0.453317,0.49144 0.695379,0.93224 0.734375,1.60547 a 0.7130499,0.7130499 0 0 0 0.002,0.0234 c 0.480495,5.3598 -0.745206,9.18147 -3.660156,11.73438 a 0.7130499,0.7130499 0 0 0 -0.0332,0.0332 c -2.47917,2.48193 -6.566412,3.79688 -12.382813,3.79688 -2.425309,0 -4.645737,-0.46311 -6.679687,-1.33399 a 0.7130499,0.7130499 0 0 0 -0.01367,-0.006 c -2.016206,-0.81061 -3.746677,-2.07168 -5.158203,-3.70117 a 0.7130499,0.7130499 0 0 0 -0.125,-0.11328 c -1.394742,-1.54842 -2.451304,-3.37263 -3.142578,-5.4668 a 0.7130499,0.7130499 0 0 0 -0.002,0 c -0.714636,-2.16111 -1.045209,-4.42001 -0.949219,-6.90234 0.09933,-2.57087 0.07683,-3.44182 0.839843,-5.44531 0.788006,-2.06913 1.400004,-3.53289 2.47461,-4.69922 a 0.7130499,0.7130499 0 0 0 0.04492,-0.0527 c 0,0 1.667433,-2.16243 3.945312,-3.28906 a 0.7130499,0.7130499 0 0 0 0,-0.002 c 2.405096,-1.19102 3.017477,-1.11398 5.292969,-1.64453 1.401268,-0.24523 2.807417,-0.38579 4.212891,-0.39844 z"
       style="color:#000000;font-style:normal;font-variant:normal;font-weight:normal;font-stretch:normal;font-size:medium;line-height:normal;font-family:sans-serif;text-indent:0;text-align:start;text-decoration:none;text-decoration-line:none;text-decoration-style:solid;text-decoration-color:#000000;letter-spacing:normal;word-spacing:normal;text-transform:none;direction:ltr;block-progression:tb;writing-mode:lr-tb;baseline-shift:baseline;text-anchor:start;white-space:normal;clip-rule:nonzero;display:inline;overflow:visible;visibility:visible;opacity:1;isolation:auto;mix-blend-mode:normal;color-interpolation:sRGB;color-interpolation-filters:linearRGB;solid-color:#000000;solid-opacity:1;fill:#484848;fill-opacity:1;fill-rule:nonzero;stroke:none;stroke-width:1.4259572;stroke-linecap:round;stroke-linejoin:round;stroke-miterlimit:4;stroke-dasharray:none;stroke-dashoffset:0;stroke-opacity:1;color-rendering:auto;image-rendering:auto;shape-rendering:auto;text-rendering:auto;enable-background:accumulate" />
    <path
       inkscape:connector-curvature="0"
       id="path7153"
       d="m 119.95312,143.26953 c -4.40055,-0.24704 -8.18989,2.56922 -11.13671,7.82227 -2.95679,5.2708 -5.20192,13.05022 -6.73243,23.13672 a 0.72007203,0.72007203 0 0 0 -0.002,0.0176 c -0.11887,0.93563 0.0744,1.90691 0.68945,2.70899 0.59098,0.8162 1.44365,1.34216 2.41407,1.4707 0.98237,0.17383 1.95391,-0.0897 2.77343,-0.67187 a 0.72007203,0.72007203 0 0 0 0.0215,-0.0137 c 0.77339,-0.59197 1.28856,-1.41998 1.46875,-2.375 a 0.72007203,0.72007203 0 0 0 0.004,-0.0254 c 0.34499,-2.29008 0.90938,-5.18664 1.3418,-7.28515 l 18.18946,0 c 0.46025,2.23312 0.89886,4.62909 1.29492,7.28515 a 0.72007203,0.72007203 0 0 0 0.004,0.0273 c 0.17399,0.9221 0.64178,1.78189 1.48047,2.38476 0.78091,0.596 1.75599,0.85106 2.73438,0.67383 0.97465,-0.12254 1.81551,-0.63847 2.4082,-1.40625 A 0.72007203,0.72007203 0 0 0 136.91992,177 c 0.58187,-0.80718 0.8456,-1.73895 0.72852,-2.73828 a 0.72007203,0.72007203 0 0 0 -0.004,-0.0254 c -1.57997,-10.40742 -3.77723,-18.18495 -6.67969,-23.38086 -2.89216,-5.1775 -6.62963,-7.83185 -11.01172,-7.58594 z m -0.0449,1.43164 a 0.72007203,0.72007203 0 0 0 0.0879,0 c 3.79171,-0.23044 6.9574,1.92614 9.71094,6.85547 2.75174,4.92611 4.94394,12.57356 6.50977,22.87891 0.0786,0.6812 -0.0502,1.13477 -0.46094,1.70898 -0.40168,0.51618 -0.84749,0.78804 -1.45313,0.85938 a 0.72007203,0.72007203 0 0 0 -0.0488,0.006 c -0.60727,0.114 -1.1197,-0.0154 -1.625,-0.4043 a 0.72007203,0.72007203 0 0 0 -0.0215,-0.0156 c -0.54914,-0.39179 -0.7827,-0.82323 -0.9082,-1.48437 -0.42989,-2.88018 -0.90109,-5.52092 -1.4082,-7.91992 a 0.72007203,0.72007203 0 0 0 -0.70313,-0.57227 l -19.37695,0 -0.0156,0 a 0.72007203,0.72007203 0 0 0 -0.70508,0.57227 c -0.44389,2.11726 -1.07666,5.39349 -1.45703,7.91211 -0.11885,0.62991 -0.40522,1.08849 -0.91992,1.48632 -0.57206,0.40308 -1.08685,0.53408 -1.68945,0.42383 a 0.72007203,0.72007203 0 0 0 -0.0391,-0.006 c -0.61439,-0.0777 -1.05261,-0.33913 -1.45313,-0.89648 a 0.72007203,0.72007203 0 0 0 -0.0156,-0.0195 c -0.37942,-0.49075 -0.48782,-1.00621 -0.40625,-1.6543 1.51545,-9.98001 3.75205,-17.62484 6.5625,-22.63476 2.81188,-5.01249 6.06553,-7.32497 9.83593,-7.09571 z m 0.0293,4.52539 a 0.72007203,0.72007203 0 0 0 -0.0449,0.002 c -1.9162,0.15472 -3.6305,1.3439 -5.08594,3.35351 -1.45544,2.00961 -2.70994,4.86586 -3.81641,8.58985 a 0.72007203,0.72007203 0 0 0 0.68946,0.92382 l 16.41406,0 a 0.72007203,0.72007203 0 0 0 0.69141,-0.92578 c -1.10918,-3.72291 -2.35748,-6.57729 -3.79102,-8.58594 -1.43354,-2.00864 -3.11006,-3.20175 -4.98437,-3.35546 a 0.72007203,0.72007203 0 0 0 -0.0723,-0.002 z m 0.0117,1.45899 c 1.32422,0.12943 2.60545,0.95824 3.87305,2.73437 1.16114,1.62697 2.2504,4.11614 3.25,7.23633 l -14.36719,0 c 0.99818,-3.11845 2.09066,-5.60543 3.26758,-7.23047 1.28495,-1.77421 2.59585,-2.60783 3.97656,-2.74023 z"
       style="color:#000000;font-style:normal;font-variant:normal;font-weight:normal;font-stretch:normal;font-size:medium;line-height:normal;font-family:sans-serif;text-indent:0;text-align:start;text-decoration:none;text-decoration-line:none;text-decoration-style:solid;text-decoration-color:#000000;letter-spacing:normal;word-spacing:normal;text-transform:none;direction:ltr;block-progression:tb;writing-mode:lr-tb;baseline-shift:baseline;text-anchor:start;white-space:normal;clip-rule:nonzero;display:inline;overflow:visible;visibility:visible;opacity:1;isolation:auto;mix-blend-mode:normal;color-interpolation:sRGB;color-interpolation-filters:linearRGB;solid-color:#000000;solid-opacity:1;fill:#484848;fill-opacity:1;fill-rule:nonzero;stroke:none;stroke-width:1.44000006;stroke-linecap:round;stroke-linejoin:round;stroke-miterlimit:4;stroke-dasharray:none;stroke-dashoffset:0;stroke-opacity:1;color-rendering:auto;image-rendering:auto;shape-rendering:auto;text-rendering:auto;enable-background:accumulate" />
    <path
       inkscape:connector-curvature="0"
       id="path7155"
       d="m 222.2207,145.59766 c -0.98095,0 -1.9184,0.36926 -2.60742,1.05078 a 0.72007203,0.72007203 0 0 0 -0.004,0.004 c -0.7101,0.7101 -1.10743,1.63187 -1.10743,2.64649 0,0.96647 0.38188,1.90671 1.11328,2.59179 0.68887,0.73388 1.63598,1.11133 2.60547,1.11133 l 9.26758,0 0,22.13477 c 0,0.96678 0.37962,1.91192 1.11719,2.5957 0.6886,0.7317 1.63387,1.10742 2.59961,1.10742 1.01743,0 1.94183,-0.39378 2.65234,-1.10351 l 0.002,-0.002 c 0.692,-0.68431 1.06445,-1.62185 1.06445,-2.59766 l 0,-22.13672 9.26758,0 c 1.01555,0 1.94228,-0.39285 2.65429,-1.10547 0.68899,-0.68649 1.06201,-1.62148 1.0625,-2.5957 l 0,-0.002 c 6.9e-4,-1.01234 -0.38708,-1.9186 -1.03906,-2.625 a 0.72007203,0.72007203 0 0 0 -0.0449,-0.043 c -0.70815,-0.64539 -1.61557,-1.03125 -2.63281,-1.03125 l -25.97071,0 z m 0,1.43945 25.97071,0 c 0.66677,0 1.15325,0.21584 1.63281,0.64453 0.43094,0.47733 0.64336,0.956 0.64258,1.61524 0,0.61507 -0.22417,1.16707 -0.63672,1.57812 a 0.72007203,0.72007203 0 0 0 -0.002,0.002 c -0.48182,0.48264 -0.95683,0.6836 -1.63671,0.6836 l -9.98633,0 a 0.72007203,0.72007203 0 0 0 -0.7207,0.71875 l 0,22.85742 c 0,0.61326 -0.22794,1.16869 -0.63868,1.57422 a 0.72007203,0.72007203 0 0 0 -0.004,0.004 c -0.48297,0.48378 -0.95205,0.6836 -1.63672,0.6836 -0.62058,0 -1.1569,-0.21555 -1.56836,-0.66211 a 0.72007203,0.72007203 0 0 0 -0.0449,-0.0449 c -0.4442,-0.40483 -0.66407,-0.94082 -0.66407,-1.55469 l 0,-22.85547 a 0.72007203,0.72007203 0 0 0 -0.71875,-0.7207 l -9.98828,0 c -0.62424,0 -1.1608,-0.21555 -1.57226,-0.66211 a 0.72007203,0.72007203 0 0 0 -0.041,-0.043 c -0.44719,-0.41124 -0.66601,-0.94338 -0.66601,-1.55664 0,-0.67241 0.20117,-1.1418 0.68554,-1.62695 0.41281,-0.40735 0.97163,-0.63477 1.59375,-0.63477 z"
       style="color:#000000;font-style:normal;font-variant:normal;font-weight:normal;font-stretch:normal;font-size:medium;line-height:normal;font-family:sans-serif;text-indent:0;text-align:start;text-decoration:none;text-decoration-line:none;text-decoration-style:solid;text-decoration-color:#000000;letter-spacing:normal;word-spacing:normal;text-transform:none;direction:ltr;block-progression:tb;writing-mode:lr-tb;baseline-shift:baseline;text-anchor:start;white-space:normal;clip-rule:nonzero;display:inline;overflow:visible;visibility:visible;opacity:1;isolation:auto;mix-blend-mode:normal;color-interpolation:sRGB;color-interpolation-filters:linearRGB;solid-color:#000000;solid-opacity:1;fill:#484848;fill-opacity:1;fill-rule:nonzero;stroke:none;stroke-width:1.44000006;stroke-linecap:round;stroke-linejoin:round;stroke-miterlimit:4;stroke-dasharray:none;stroke-dashoffset:0;stroke-opacity:1;color-rendering:auto;image-rendering:auto;shape-rendering:auto;text-rendering:auto;enable-background:accumulate" />
    <path
       inkscape:connector-curvature="0"
       id="path7157"
       d="m 257.21875,144.95117 c -0.96408,0 -1.91019,0.37431 -2.59766,1.10742 -0.74315,0.6832 -1.11914,1.63024 -1.11914,2.59375 l 0,14.75586 c 0,2.03918 0.41897,3.97108 1.14844,5.83008 a 0.72007203,0.72007203 0 0 0 0.20117,0.28125 c 0.73571,1.71297 1.77248,3.20776 3.04883,4.52735 a 0.72007203,0.72007203 0 0 0 0.0195,0.0195 c 1.39992,1.34171 2.97515,2.43998 4.80664,3.22461 a 0.72007203,0.72007203 0 0 0 0.002,0 c 1.84434,0.78366 3.79535,1.15039 5.87695,1.15039 l 4.44531,0 c 2.0816,0 4.03355,-0.36641 5.92188,-1.14649 a 0.72007203,0.72007203 0 0 0 0.22656,-0.15039 c 1.71123,-0.77441 3.21394,-1.80523 4.54297,-3.07617 a 0.72007203,0.72007203 0 0 0 0.0215,-0.0215 c 1.2735,-1.32169 2.31137,-2.81277 3.08985,-4.51758 a 0.72007203,0.72007203 0 0 0 0.15039,-0.22657 c 0.78456,-1.87855 1.15625,-3.81986 1.15625,-5.89453 l 0,-14.75586 a 0.72007203,0.72007203 0 0 0 0,-0.002 c -0.004,-0.97257 -0.37427,-1.90877 -1.06641,-2.5918 -0.7118,-0.7118 -1.63773,-1.10742 -2.65625,-1.10742 -0.96808,0 -1.91451,0.37806 -2.60352,1.11328 -0.73348,0.68155 -1.11328,1.62374 -1.11328,2.58789 l 0,14.75586 c 0,1.06223 -0.18493,2.05013 -0.58398,2.9375 a 0.72007203,0.72007203 0 0 0 -0.0156,0.0371 c -0.35098,0.91344 -0.92832,1.67464 -1.64062,2.42969 -0.75787,0.70414 -1.52004,1.27866 -2.4375,1.625 a 0.72007203,0.72007203 0 0 0 -0.0391,0.0176 c -0.89027,0.39874 -1.88684,0.58203 -2.95313,0.58203 l -4.44531,0 c -1.0667,0 -2.00518,-0.17804 -2.96485,-0.58789 a 0.72007203,0.72007203 0 0 0 -0.0273,-0.0117 c -0.91915,-0.34698 -1.68215,-0.92297 -2.4414,-1.62891 -0.68363,-0.7258 -1.20864,-1.48138 -1.61719,-2.36328 a 0.72007203,0.72007203 0 0 0 -0.0234,-0.0723 c -0.36825,-0.92201 -0.5957,-1.92356 -0.5957,-2.96485 l 0,-14.75586 c 0,-0.97618 -0.37406,-1.91289 -1.0625,-2.5957 -0.71458,-0.70982 -1.63738,-1.10547 -2.6543,-1.10547 z m 0,1.44141 c 0.68108,0 1.1512,0.19937 1.64063,0.68554 0.4068,0.4031 0.63671,0.96096 0.63671,1.57422 l 0,14.75586 c 0,1.1593 0.2732,2.24054 0.64649,3.24414 l 0,0.0352 a 0.72007203,0.72007203 0 0 0 0.0644,0.29883 c 0.48644,1.07209 1.13731,1.99021 1.93359,2.83203 a 0.72007203,0.72007203 0 0 0 0.0313,0.0312 c 0.82735,0.77137 1.75366,1.48276 2.91796,1.92578 1.13414,0.48223 2.28905,0.70117 3.51563,0.70117 l 4.44531,0 c 1.22283,0 2.41646,-0.21353 3.51563,-0.70117 1.16354,-0.44307 2.08904,-1.15477 2.91601,-1.92578 a 0.72007203,0.72007203 0 0 0 0.0332,-0.0312 c 0.7804,-0.82502 1.49027,-1.74968 1.9375,-2.90234 0.48914,-1.0956 0.70704,-2.28485 0.70704,-3.50782 l 0,-14.75586 c 0,-0.61326 0.22066,-1.15012 0.66406,-1.55273 a 0.72007203,0.72007203 0 0 0 0.0449,-0.0449 c 0.41147,-0.44657 0.94778,-0.66211 1.56836,-0.66211 0.68348,0 1.15252,0.19939 1.63672,0.68359 a 0.72007203,0.72007203 0 0 0 0.006,0.004 c 0.40932,0.40264 0.63635,0.96059 0.63867,1.57617 l 0,14.75195 c 0,1.85867 -0.32801,3.54979 -1.00391,5.21289 a 0.72007203,0.72007203 0 0 0 -0.0351,0.0684 c -0.71137,1.64817 -1.70272,3.05593 -2.94336,4.34571 -1.29499,1.23663 -2.71552,2.22194 -4.37305,2.93164 a 0.72007203,0.72007203 0 0 0 -0.0703,0.0351 c -1.67282,0.67222 -3.37511,1 -5.24219,1 l -4.44531,0 c -1.91373,0 -3.65537,-0.33132 -5.3125,-1.03515 l -0.002,0 c -1.6559,-0.70965 -3.07402,-1.69589 -4.36524,-2.93164 -1.24366,-1.28802 -2.23058,-2.69249 -2.88672,-4.32813 a 0.72007203,0.72007203 0 0 0 -0.0996,-0.17383 c -0.63127,-1.66136 -0.99804,-3.34563 -0.99804,-5.125 l 0,-14.75586 c 0,-0.61628 0.21518,-1.14942 0.66015,-1.55078 a 0.72007203,0.72007203 0 0 0 0.0488,-0.0488 c 0.40656,-0.44365 0.94901,-0.66015 1.56836,-0.66015 z"
       style="color:#000000;font-style:normal;font-variant:normal;font-weight:normal;font-stretch:normal;font-size:medium;line-height:normal;font-family:sans-serif;text-indent:0;text-align:start;text-decoration:none;text-decoration-line:none;text-decoration-style:solid;text-decoration-color:#000000;letter-spacing:normal;word-spacing:normal;text-transform:none;direction:ltr;block-progression:tb;writing-mode:lr-tb;baseline-shift:baseline;text-anchor:start;white-space:normal;clip-rule:nonzero;display:inline;overflow:visible;visibility:visible;opacity:1;isolation:auto;mix-blend-mode:normal;color-interpolation:sRGB;color-interpolation-filters:linearRGB;solid-color:#000000;solid-opacity:1;fill:#484848;fill-opacity:1;fill-rule:nonzero;stroke:none;stroke-width:1.44000006;stroke-linecap:round;stroke-linejoin:round;stroke-miterlimit:4;stroke-dasharray:none;stroke-dashoffset:0;stroke-opacity:1;color-rendering:auto;image-rendering:auto;shape-rendering:auto;text-rendering:auto;enable-background:accumulate" />
    <path
       inkscape:connector-curvature="0"
       id="path7159"
       d="m 306.32031,144.5918 c -3.57337,-0.18049 -7.71645,-0.0756 -12.4375,0.29687 -0.97232,0.0645 -1.84719,0.50581 -2.5332,1.20117 a 0.72007203,0.72007203 0 0 0 -0.004,0.004 c -0.62536,0.64191 -1.05273,1.49048 -1.05273,2.47266 l 0,25.66406 c 0,0.98156 0.40606,1.9201 1.13086,2.59765 a 0.72007203,0.72007203 0 0 0 0.002,0.004 c 0.76929,0.71142 1.75733,1.07813 2.77344,1.07813 1.05092,0 2.00376,-0.37809 2.7168,-1.08204 0.77921,-0.67627 1.1914,-1.62541 1.1914,-2.59765 l 0,-22.18359 c 6.42977,-0.3216 11.45275,0.004 14.85156,0.96289 1.30549,0.39721 2.26648,0.91492 2.89063,1.5 0.62167,0.58276 0.92895,1.21523 0.99609,2.00195 0.0404,1.29241 -0.38626,2.01387 -1.48632,2.55078 -1.93806,0.80467 -4.96044,1.0704 -9.02344,0.63477 a 0.72007203,0.72007203 0 0 0 -0.0293,-0.002 c -0.82865,-0.0568 -1.65437,0.0778 -2.41992,0.54102 -0.76172,0.41571 -1.31565,1.05581 -1.63281,1.82031 -0.33939,0.7651 -0.33332,1.58279 -0.14844,2.32813 a 0.72007203,0.72007203 0 0 0 0.0137,0.0508 c 0.26654,0.81476 0.82422,1.44278 1.50195,1.90234 l 15.92383,10.84766 c 0.8206,0.5819 1.82836,0.83746 2.85547,0.66406 1.05985,-0.12119 1.96525,-0.63643 2.59375,-1.45703 a 0.72007203,0.72007203 0 0 0 0.006,-0.008 c 0.57736,-0.77264 0.85143,-1.72191 0.72461,-2.69336 a 0.72007203,0.72007203 0 0 0 -0.008,-0.043 c -0.19248,-1.00421 -0.7485,-1.83932 -1.56446,-2.42383 a 0.72007203,0.72007203 0 0 0 -0.0156,-0.0117 l -7.25195,-4.91601 c 0.64251,-0.20572 1.34159,-0.37511 1.89257,-0.64454 l 0.004,-0.002 c 3.80606,-1.7719 5.82471,-4.96437 5.88477,-9.16992 0.10944,-2.51951 -0.65146,-4.73619 -2.24414,-6.49609 -1.59534,-1.76284 -3.97647,-3.07034 -7.08594,-3.98438 -2.44483,-0.76328 -5.44619,-1.22791 -9.01563,-1.4082 z m -0.0684,1.44726 c 3.49126,0.17721 6.38373,0.6241 8.66602,1.33789 a 0.72007203,0.72007203 0 0 0 0.0117,0.004 c 2.94253,0.86496 5.07336,2.0759 6.42578,3.57031 1.35242,1.49442 1.97152,3.26923 1.87305,5.47852 a 0.72007203,0.72007203 0 0 0 0,0.0215 c -0.0511,3.78773 -1.64652,6.30947 -5.0586,7.89649 a 0.72007203,0.72007203 0 0 0 -0.0137,0.006 c -0.83645,0.41035 -1.84783,0.74633 -3.03516,1.03125 a 0.72007203,0.72007203 0 0 0 -0.23632,1.29492 l 8.42773,5.71484 c 0.55896,0.40041 0.84651,0.84422 0.97852,1.50586 0.0714,0.59366 -0.0711,1.11672 -0.44336,1.61719 -0.42613,0.55479 -0.89252,0.82667 -1.625,0.90625 a 0.72007203,0.72007203 0 0 0 -0.0469,0.008 c -0.66988,0.1178 -1.24238,-0.0267 -1.79687,-0.41992 a 0.72007203,0.72007203 0 0 0 -0.0117,-0.008 l -15.9375,-10.85743 c -0.48116,-0.32626 -0.76615,-0.67675 -0.92383,-1.13867 -0.12344,-0.51813 -0.1201,-0.96862 0.0625,-1.375 a 0.72007203,0.72007203 0 0 0 0.008,-0.0215 c 0.21122,-0.51331 0.50179,-0.85036 1.00391,-1.1211 a 0.72007203,0.72007203 0 0 0 0.0371,-0.0215 c 0.50172,-0.30875 0.94116,-0.38249 1.59179,-0.33789 l -0.0273,-0.002 c 4.20731,0.45111 7.43925,0.2257 9.75391,-0.74219 a 0.72007203,0.72007203 0 0 0 0.0352,-0.0156 c 1.53394,-0.7404 2.38099,-2.19243 2.31836,-3.93359 a 0.72007203,0.72007203 0 0 0 -0.002,-0.0312 c -0.0923,-1.13282 -0.60469,-2.15194 -1.45313,-2.94727 -0.84843,-0.79532 -2.01017,-1.38763 -3.46093,-1.82812 a 0.72007203,0.72007203 0 0 0 -0.0137,-0.004 c -3.79794,-1.07254 -9.11458,-1.41121 -16.01172,-1.01562 a 0.72007203,0.72007203 0 0 0 -0.67969,0.71875 l 0,22.90039 c 0,0.59305 -0.22002,1.1127 -0.70313,1.52539 a 0.72007203,0.72007203 0 0 0 -0.043,0.0391 c -0.45854,0.46088 -0.97519,0.67578 -1.72266,0.67578 -0.679,0 -1.28666,-0.22602 -1.79297,-0.69336 l -0.002,-0.002 c -0.4399,-0.41221 -0.67188,-0.95339 -0.67188,-1.54492 l 0,-25.66406 c 0,-0.59088 0.21329,-1.02346 0.64453,-1.4668 0.48539,-0.49122 0.99001,-0.73596 1.60547,-0.77539 a 0.72007203,0.72007203 0 0 0 0.01,0 c 4.67711,-0.36919 8.76851,-0.46236 12.25976,-0.28516 z"
       style="color:#000000;font-style:normal;font-variant:normal;font-weight:normal;font-stretch:normal;font-size:medium;line-height:normal;font-family:sans-serif;text-indent:0;text-align:start;text-decoration:none;text-decoration-line:none;text-decoration-style:solid;text-decoration-color:#000000;letter-spacing:normal;word-spacing:normal;text-transform:none;direction:ltr;block-progression:tb;writing-mode:lr-tb;baseline-shift:baseline;text-anchor:start;white-space:normal;clip-rule:nonzero;display:inline;overflow:visible;visibility:visible;opacity:1;isolation:auto;mix-blend-mode:normal;color-interpolation:sRGB;color-interpolation-filters:linearRGB;solid-color:#000000;solid-opacity:1;fill:#484848;fill-opacity:1;fill-rule:nonzero;stroke:none;stroke-width:1.44000006;stroke-linecap:round;stroke-linejoin:round;stroke-miterlimit:4;stroke-dasharray:none;stroke-dashoffset:0;stroke-opacity:1;color-rendering:auto;image-rendering:auto;shape-rendering:auto;text-rendering:auto;enable-background:accumulate" />
    <path
       inkscape:connector-curvature="0"
       id="path7161"
       d="m 356.17773,145.09766 c -0.97905,0 -1.91257,0.37303 -2.60156,1.05078 a 0.72007203,0.72007203 0 0 0 -0.006,0.004 c -0.71009,0.7101 -1.10742,1.63187 -1.10742,2.64649 l 0,16.65234 -18.53906,-19.23633 a 0.72007203,0.72007203 0 0 0 -0.043,-0.041 c -0.51344,-0.45083 -1.1229,-0.82114 -1.85156,-1.00391 a 0.72007203,0.72007203 0 0 0 -0.0605,-0.0137 c -0.69796,-0.11205 -1.43869,-0.0519 -2.12695,0.25391 -0.65863,0.24102 -1.27946,0.6673 -1.67969,1.31054 -0.4142,0.59441 -0.67188,1.29906 -0.67188,2.07813 l 0,25.83984 c 0,0.96293 0.37442,1.90791 1.11133,2.58985 0.68676,0.73623 1.63546,1.11132 2.60547,1.11132 1.01635,0 1.9387,-0.39401 2.65235,-1.10351 0.68856,-0.68229 1.0625,-1.61938 1.0625,-2.59766 l 0,-16.65429 18.59179,19.19531 a 0.72007203,0.72007203 0 0 0 0.0117,0.0117 c 0.5237,0.51673 1.15145,0.89906 1.88477,1.07812 a 0.72007203,0.72007203 0 0 0 0.0508,0.0117 c 0.70824,0.11843 1.40308,0.0521 2.08984,-0.17187 a 0.72007203,0.72007203 0 0 0 0.0762,-0.0293 c 0.63967,-0.29256 1.2179,-0.74359 1.64453,-1.39844 0.43125,-0.61862 0.62696,-1.33012 0.62696,-2.04297 l 0,-25.83984 c 0,-1.01519 -0.39282,-1.91855 -1.04492,-2.625 a 0.72007203,0.72007203 0 0 0 -0.043,-0.0449 c -0.70568,-0.64185 -1.61124,-1.03125 -2.63282,-1.03125 z m 0,1.43945 c 0.67038,0 1.15293,0.2182 1.63282,0.64648 0.4332,0.47961 0.64843,0.95602 0.64843,1.61524 l 0,25.83984 c 0,0.4776 -0.10747,0.85449 -0.37109,1.22852 a 0.72007203,0.72007203 0 0 0 -0.0156,0.0234 c -0.26878,0.41615 -0.57849,0.64804 -1.01563,0.85352 -0.47475,0.14864 -0.86878,0.18733 -1.32617,0.11524 -0.45896,-0.11647 -0.8236,-0.32659 -1.19531,-0.69336 L 334.71877,155.707 a 0.72007203,0.72007203 0 0 0 -1.23633,0.5 l 0,18.43164 c 0,0.61572 -0.22929,1.17051 -0.63672,1.57422 a 0.72007203,0.72007203 0 0 0 0,0.002 c -0.48819,0.48576 -0.95758,0.68555 -1.63867,0.68555 -0.62424,0 -1.16062,-0.21716 -1.56836,-0.66211 a 0.72007203,0.72007203 0 0 0 -0.0469,-0.0469 c -0.44515,-0.40219 -0.66211,-0.93461 -0.66211,-1.55274 l 0,-25.83984 c 0,-0.49546 0.13526,-0.87624 0.41601,-1.27344 a 0.72007203,0.72007203 0 0 0 0.0273,-0.041 c 0.19638,-0.32231 0.54997,-0.58409 0.97656,-0.73633 a 0.72007203,0.72007203 0 0 0 0.0586,-0.0234 c 0.38679,-0.17678 0.82572,-0.21298 1.29883,-0.14258 0.45965,0.12093 0.83996,0.33994 1.21875,0.67188 0.001,0.001 0.003,9.1e-4 0.004,0.002 l 19.73437,20.47852 a 0.72007203,0.72007203 0 0 0 1.23828,-0.5 l 0,-18.43555 c 0,-0.67241 0.20117,-1.13985 0.68555,-1.625 0.41483,-0.40712 0.97381,-0.63672 1.58984,-0.63672 z"
       style="color:#000000;font-style:normal;font-variant:normal;font-weight:normal;font-stretch:normal;font-size:medium;line-height:normal;font-family:sans-serif;text-indent:0;text-align:start;text-decoration:none;text-decoration-line:none;text-decoration-style:solid;text-decoration-color:#000000;letter-spacing:normal;word-spacing:normal;text-transform:none;direction:ltr;block-progression:tb;writing-mode:lr-tb;baseline-shift:baseline;text-anchor:start;white-space:normal;clip-rule:nonzero;display:inline;overflow:visible;visibility:visible;opacity:1;isolation:auto;mix-blend-mode:normal;color-interpolation:sRGB;color-interpolation-filters:linearRGB;solid-color:#000000;solid-opacity:1;fill:#484848;fill-opacity:1;fill-rule:nonzero;stroke:none;stroke-width:1.44000006;stroke-linecap:round;stroke-linejoin:round;stroke-miterlimit:4;stroke-dasharray:none;stroke-dashoffset:0;stroke-opacity:1;color-rendering:auto;image-rendering:auto;shape-rendering:auto;text-rendering:auto;enable-background:accumulate" />
    <path
       inkscape:connector-curvature="0"
       id="path7163"
       d="m 205.70312,143.26953 c -4.40055,-0.24704 -8.18989,2.56922 -11.13671,7.82227 -2.95679,5.2708 -5.20192,13.05022 -6.73243,23.13672 a 0.72007203,0.72007203 0 0 0 -0.002,0.0176 c -0.11887,0.93563 0.0744,1.90691 0.68945,2.70899 0.59098,0.8162 1.44365,1.34216 2.41407,1.4707 0.98237,0.17383 1.95391,-0.0897 2.77343,-0.67187 a 0.72007203,0.72007203 0 0 0 0.0215,-0.0137 c 0.77339,-0.59197 1.28856,-1.41998 1.46875,-2.375 a 0.72007203,0.72007203 0 0 0 0.004,-0.0254 c 0.34499,-2.29008 0.90938,-5.18664 1.3418,-7.28515 l 18.18946,0 c 0.46025,2.23312 0.89886,4.62909 1.29492,7.28515 a 0.72007203,0.72007203 0 0 0 0.004,0.0273 c 0.17399,0.9221 0.64178,1.78189 1.48047,2.38476 0.78091,0.596 1.75599,0.85106 2.73438,0.67383 0.97465,-0.12254 1.81551,-0.63847 2.4082,-1.40625 A 0.72007203,0.72007203 0 0 0 222.66992,177 c 0.58187,-0.80718 0.8456,-1.73895 0.72852,-2.73828 a 0.72007203,0.72007203 0 0 0 -0.004,-0.0254 c -1.57997,-10.40742 -3.77723,-18.18495 -6.67969,-23.38086 -2.89216,-5.1775 -6.62963,-7.83185 -11.01172,-7.58594 z m -0.0449,1.43164 a 0.72007203,0.72007203 0 0 0 0.0879,0 c 3.79171,-0.23044 6.9574,1.92614 9.71094,6.85547 2.75174,4.92611 4.94394,12.57356 6.50977,22.87891 0.0786,0.6812 -0.0502,1.13477 -0.46094,1.70898 -0.40168,0.51618 -0.84749,0.78804 -1.45313,0.85938 a 0.72007203,0.72007203 0 0 0 -0.0488,0.006 c -0.60727,0.114 -1.1197,-0.0154 -1.625,-0.4043 a 0.72007203,0.72007203 0 0 0 -0.0215,-0.0156 c -0.54914,-0.39179 -0.7827,-0.82323 -0.9082,-1.48437 -0.42989,-2.88018 -0.90109,-5.52092 -1.4082,-7.91992 a 0.72007203,0.72007203 0 0 0 -0.70313,-0.57227 l -19.37695,0 -0.0156,0 a 0.72007203,0.72007203 0 0 0 -0.70508,0.57227 c -0.44389,2.11726 -1.07666,5.39349 -1.45703,7.91211 -0.11885,0.62991 -0.40522,1.08849 -0.91992,1.48632 -0.57206,0.40308 -1.08685,0.53408 -1.68945,0.42383 a 0.72007203,0.72007203 0 0 0 -0.0391,-0.006 c -0.61439,-0.0777 -1.05261,-0.33913 -1.45313,-0.89648 a 0.72007203,0.72007203 0 0 0 -0.0156,-0.0195 c -0.37942,-0.49075 -0.48782,-1.00621 -0.40625,-1.6543 1.51545,-9.98001 3.75205,-17.62484 6.5625,-22.63476 2.81188,-5.01249 6.06553,-7.32497 9.83593,-7.09571 z m 0.0293,4.52539 a 0.72007203,0.72007203 0 0 0 -0.0449,0.002 c -1.9162,0.15472 -3.6305,1.3439 -5.08594,3.35351 -1.45544,2.00961 -2.70994,4.86586 -3.81641,8.58985 a 0.72007203,0.72007203 0 0 0 0.68946,0.92382 l 16.41406,0 a 0.72007203,0.72007203 0 0 0 0.69141,-0.92578 c -1.10918,-3.72291 -2.35748,-6.57729 -3.79102,-8.58594 -1.43354,-2.00864 -3.11006,-3.20175 -4.98437,-3.35546 a 0.72007203,0.72007203 0 0 0 -0.0723,-0.002 z m 0.0117,1.45899 c 1.32422,0.12943 2.60545,0.95824 3.87305,2.73437 1.16114,1.62697 2.2504,4.11614 3.25,7.23633 l -14.36719,0 c 0.99818,-3.11845 2.09066,-5.60543 3.26758,-7.23047 1.28495,-1.77421 2.59585,-2.60783 3.97656,-2.74023 z"
       style="color:#000000;font-style:normal;font-variant:normal;font-weight:normal;font-stretch:normal;font-size:medium;line-height:normal;font-family:sans-serif;text-indent:0;text-align:start;text-decoration:none;text-decoration-line:none;text-decoration-style:solid;text-decoration-color:#000000;letter-spacing:normal;word-spacing:normal;text-transform:none;direction:ltr;block-progression:tb;writing-mode:lr-tb;baseline-shift:baseline;text-anchor:start;white-space:normal;clip-rule:nonzero;display:inline;overflow:visible;visibility:visible;opacity:1;isolation:auto;mix-blend-mode:normal;color-interpolation:sRGB;color-interpolation-filters:linearRGB;solid-color:#000000;solid-opacity:1;fill:#484848;fill-opacity:1;fill-rule:nonzero;stroke:none;stroke-width:1.44000006;stroke-linecap:round;stroke-linejoin:round;stroke-miterlimit:4;stroke-dasharray:none;stroke-dashoffset:0;stroke-opacity:1;color-rendering:auto;image-rendering:auto;shape-rendering:auto;text-rendering:auto;enable-background:accumulate" />
    <path
       inkscape:connector-curvature="0"
       id="path7165"
       d="m 165.74609,143.53125 c -4.58271,0.29875 -8.04268,1.78344 -10.17578,4.52539 -1.46539,1.72234 -2.40584,3.4501 -2.6875,5.27734 -0.30261,1.65791 -0.076,3.26624 0.59961,4.79883 a 0.7311844,0.7311844 0 0 0 0.0684,0.38477 c 0.61138,1.266 1.54095,2.40223 2.71875,3.41406 a 0.7311844,0.7311844 0 0 0 0.28906,0.15234 c 0.89109,0.71044 1.82638,1.32226 2.90235,1.8125 1.05729,0.55501 2.8088,0.73045 5.63672,0.78125 0.63938,0.0592 1.6866,0.0548 3.28711,0.0547 1.43453,0.0523 2.55881,0.0524 3.32812,0.0996 a 0.7311844,0.7311844 0 0 0 0.0449,0.002 l 0.0508,0 c 1.24555,0.0258 2.50393,0.0997 3.54297,0.19727 1.04304,0.0979 1.90693,0.24028 2.17774,0.32422 0.14425,0.0461 0.72051,0.431 1.14843,0.86914 0.21437,0.21949 0.40784,0.45106 0.54102,0.64453 0.13318,0.19347 0.19222,0.37186 0.18555,0.33203 a 0.7311844,0.7311844 0 0 0 0.002,0.006 c 0,0 0.0284,0.16648 0.043,0.25 8.4e-4,0.005 0.005,0.0278 0.006,0.0312 5.3e-4,0.003 0.002,0.01 0.002,0.0117 6e-5,3.6e-4 -4e-5,0.002 0,0.002 9e-5,5.3e-4 -4e-5,0.002 0,0.002 0,0 0.002,0 0.002,0 0.13331,0.28231 0.21864,0.19599 0.10352,1.00586 -0.0617,0.42149 -0.0946,0.41347 -0.12695,0.44531 -0.0166,0.0163 -0.1891,0.18592 -0.29883,0.27539 a 0.7311844,0.7311844 0 0 0 -0.20313,0.125 c -0.28996,0.25589 -0.96654,0.55621 -1.98242,0.84961 -1.46511,0.33935 -3.23667,0.5843 -5.3125,0.63476 -2.10669,0.0512 -4.20034,-0.001 -6.33789,-0.24804 l 0.004,0.002 c -2.04967,-0.25019 -3.83712,-0.59919 -5.30664,-1.03711 l 0.0195,0.006 c -0.9246,-0.30409 -1.95435,-0.23951 -2.8457,0.25586 -0.91704,0.43697 -1.57639,1.22389 -1.87891,2.18359 -0.32023,0.95864 -0.18266,1.96775 0.23047,2.85352 a 0.7311844,0.7311844 0 0 0 0.0293,0.0566 c 0.48997,0.8492 1.25542,1.48224 2.17774,1.79297 a 0.7311844,0.7311844 0 0 0 0.004,0.002 c 1.89764,0.62727 4.12085,1.03299 6.68359,1.3418 a 0.7311844,0.7311844 0 0 0 0.0137,0.002 c 2.51471,0.25465 4.9767,0.35713 7.44336,0.30469 a 0.7311844,0.7311844 0 0 0 0.0117,0 c 2.67831,-0.10305 5.00552,-0.40739 6.9414,-0.87695 a 0.7311844,0.7311844 0 0 0 0.006,-0.002 c 2.54425,-0.63532 4.37323,-1.63112 5.5254,-2.99218 a 0.7311844,0.7311844 0 0 0 0.3457,-0.23633 c 0.8325,-1.03907 1.47264,-1.98816 1.87109,-2.89063 a 0.7311844,0.7311844 0 0 0 0.0625,-0.29492 l 0,-0.043 c 0.37312,-1.003 0.61133,-2.02264 0.61133,-3.08203 l 0,-0.10156 a 0.7311844,0.7311844 0 0 0 -0.002,-0.0488 c -0.0446,-0.66448 0.028,-1.88126 -0.43946,-3.11719 -0.16404,-0.58615 -0.33772,-0.95606 -1.13671,-2.68554 a 0.7311844,0.7311844 0 0 0 0,-0.002 c -0.94851,-2.04077 -3.11521,-3.26713 -6.51172,-3.99414 a 0.7311844,0.7311844 0 0 0 -0.15235,-0.0156 l -0.0391,0 -0.0117,0 c -1.66826,-0.30522 -3.95982,-0.55671 -6.92187,-0.65625 -0.89853,-0.0533 -2.0496,-0.0525 -3.55078,-0.10352 a 0.7311844,0.7311844 0 0 0 -0.0254,0 c -1.52011,0 -2.6008,-0.004 -3.08007,-0.0469 a 0.7311844,0.7311844 0 0 0 -0.043,-0.004 c -1.58114,-0.0465 -2.66662,-0.12991 -2.87696,-0.17383 -0.47714,-0.22288 -0.90375,-0.47465 -1.22265,-0.75 l -0.002,-0.002 c -0.39438,-0.3515 -0.66146,-0.67999 -0.80665,-0.94531 a 0.7311844,0.7311844 0 0 0 -0.0879,-0.17774 c -0.0871,-0.12866 -0.104,-0.22706 -0.0547,-0.39844 a 0.7311844,0.7311844 0 0 0 0.01,-0.0371 c 0.12077,-0.51931 0.40447,-1.09244 0.96485,-1.65625 1.32539,-1.27246 3.57678,-1.98885 6.87304,-1.97656 3.29861,0.0123 7.5951,0.75369 12.85547,2.25586 a 0.7311844,0.7311844 0 0 0 0.0254,0.006 c 0.9342,0.22948 1.94301,0.17008 2.82617,-0.38476 0.89033,-0.47896 1.54669,-1.2624 1.80078,-2.24024 0.31093,-0.94315 0.1708,-1.9399 -0.30468,-2.82226 a 0.7311844,0.7311844 0 0 0 -0.0176,-0.0293 0.7311844,0.7311844 0 0 0 -0.16797,-0.19336 0.7311844,0.7311844 0 0 0 -0.004,-0.002 c -0.52861,-0.76573 -1.23032,-1.31261 -2.04882,-1.58399 a 0.7311844,0.7311844 0 0 0 -0.0332,-0.01 c -6.97082,-1.95603 -12.73077,-2.80883 -17.31836,-2.50977 z m 0.0957,1.45898 c 4.31939,-0.28158 9.93881,0.53059 16.79882,2.45313 0.61301,0.20429 1.04227,0.52586 1.41016,1.13086 0.32423,0.61171 0.38931,1.11688 0.20117,1.66797 a 0.7311844,0.7311844 0 0 0 -0.0176,0.0586 c -0.15419,0.61292 -0.49067,1.02493 -1.10352,1.34766 a 0.7311844,0.7311844 0 0 0 -0.0527,0.0312 c -0.5286,0.33851 -1.0289,0.37552 -1.71484,0.20703 l 0.0273,0.008 c -5.33972,-1.52483 -9.74327,-2.29746 -13.2539,-2.31055 -3.51063,-0.0131 -6.17732,0.73347 -7.89453,2.38477 a 0.7311844,0.7311844 0 0 0 -0.01,0.01 c -0.74224,0.74224 -1.16373,1.56641 -1.34961,2.34765 -0.14975,0.53749 -0.072,1.13746 0.2461,1.60742 l -0.125,-0.41015 0,0.0527 a 0.7311844,0.7311844 0 0 0 0.0781,0.33008 c 0.27032,0.53258 0.68937,0.98552 1.18164,1.42383 a 0.7311844,0.7311844 0 0 0 0.006,0.008 c 0.47797,0.41479 1.04341,0.7461 1.65039,1.02149 a 0.7311844,0.7311844 0 0 0 0.12696,0.0449 c 0.63024,0.156 1.61379,0.17037 3.20312,0.21679 0.63708,0.0566 1.68338,0.0528 3.18555,0.0527 1.53482,0.0522 2.70972,0.0541 3.53125,0.10351 a 0.7311844,0.7311844 0 0 0 0.0195,0 c 2.96326,0.0996 5.2671,0.35081 6.83594,0.64454 a 0.7311844,0.7311844 0 0 0 0.0723,0.01 c 3.16402,0.68436 4.76848,1.69911 5.45117,3.16797 0.81371,1.7613 0.93616,2.00616 1.07422,2.50781 a 0.7311844,0.7311844 0 0 0 0.0215,0.0664 c 0.3351,0.87331 0.29045,1.8522 0.3457,2.69531 l 0,0.0684 c 0,0.96342 -0.18175,1.8733 -0.55664,2.79883 a 0.7311844,0.7311844 0 0 0 -0.0293,0.0879 c -0.30207,0.66665 -0.84428,1.47767 -1.55469,2.3789 a 0.7311844,0.7311844 0 0 0 -0.15234,0.1543 c -0.80629,1.09801 -2.47184,2.06446 -5.00976,2.69922 -1.81409,0.44002 -4.05241,0.73769 -6.6504,0.83789 -2.39955,0.0506 -4.79522,-0.0507 -7.24804,-0.29883 l -0.008,0 c -2.50032,-0.30195 -4.6341,-0.70049 -6.38085,-1.27734 -0.58566,-0.19731 -1.03034,-0.57029 -1.35352,-1.11524 -0.27619,-0.61024 -0.34542,-1.20247 -0.16406,-1.74218 a 0.7311844,0.7311844 0 0 0 0.004,-0.0137 c 0.19945,-0.63938 0.54807,-1.05113 1.13086,-1.32227 a 0.7311844,0.7311844 0 0 0 0.0527,-0.0273 c 0.52843,-0.2996 1.10779,-0.33712 1.69336,-0.14454 a 0.7311844,0.7311844 0 0 0 0.0195,0.006 c 1.57678,0.46989 3.43732,0.82844 5.54687,1.08594 a 0.7311844,0.7311844 0 0 0 0.006,0 c 2.22271,0.25675 4.38892,0.30824 6.54297,0.25586 2.17732,-0.0529 4.05302,-0.3084 5.625,-0.67383 a 0.7311844,0.7311844 0 0 0 0.0371,-0.008 c 0.87988,-0.25248 1.48261,-0.56455 2.05273,-0.93359 a 0.7311844,0.7311844 0 0 0 0.59766,-0.27149 c 0.11859,-0.14765 0.20982,-0.15769 0.47266,-0.41601 0.26284,-0.25832 0.46328,-0.6918 0.54883,-1.28125 a 0.7311844,0.7311844 0 0 0 0,-0.002 c 0.12014,-0.84525 -0.0414,-1.14042 -0.15235,-1.45507 0.002,-4e-4 0.041,-0.008 0.041,-0.008 0,0 0,-0.002 0,-0.002 -2.7e-4,-0.002 -0.003,-0.006 -0.004,-0.0117 -1.6e-4,-9.2e-4 1.8e-4,-9.2e-4 0,-0.002 -0.001,-0.008 -0.001,-0.0161 -0.004,-0.0312 -0.0146,-0.0835 -0.0449,-0.25 -0.0449,-0.25 -0.004,-0.0246 -0.0223,-0.0369 -0.0273,-0.0606 -0.005,-0.0118 -0.004,-0.0611 -0.008,-0.0723 a 0.7311844,0.7311844 0 0 0 -0.11914,-0.20313 c -0.0809,-0.19513 -0.1444,-0.40113 -0.26758,-0.58008 -0.19531,-0.28372 -0.43532,-0.56573 -0.69922,-0.83594 -0.52781,-0.54041 -1.08115,-1.03107 -1.75977,-1.24414 a 0.7311844,0.7311844 0 0 0 -0.002,0 c -0.55474,-0.17195 -1.39032,-0.28098 -2.47461,-0.38281 -1.08429,-0.10183 -2.37674,-0.17684 -3.66406,-0.20312 a 0.7311844,0.7311844 0 0 0 -0.0156,-0.002 l -0.0508,0 c -0.84673,-0.0502 -1.93245,-0.049 -3.32031,-0.0996 a 0.7311844,0.7311844 0 0 0 -0.0273,0 c -1.62165,0 -2.70306,-0.005 -3.17774,-0.0488 a 0.7311844,0.7311844 0 0 0 -0.0547,-0.004 c -2.79996,-0.0481 -4.59231,-0.37849 -5.04687,-0.61914 a 0.7311844,0.7311844 0 0 0 -0.041,-0.0195 c -1.05951,-0.48011 -1.95954,-1.04842 -2.82617,-1.76563 a 0.7311844,0.7311844 0 0 0 -0.10547,-0.0723 c -0.97178,-0.85023 -1.7026,-1.7667 -2.19726,-2.74219 a 0.7311844,0.7311844 0 0 0 -0.0469,-0.12695 c -0.69255,-1.38141 -0.87234,-2.75753 -0.59179,-4.28516 a 0.7311844,0.7311844 0 0 0 0.004,-0.0215 c 0.22728,-1.49002 1.00601,-2.98002 2.3711,-4.58008 a 0.7311844,0.7311844 0 0 0 0.0195,-0.0254 c 1.82155,-2.34688 4.79887,-3.68869 9.125,-3.97071 z"
       style="color:#000000;font-style:normal;font-variant:normal;font-weight:normal;font-stretch:normal;font-size:medium;line-height:normal;font-family:sans-serif;text-indent:0;text-align:start;text-decoration:none;text-decoration-line:none;text-decoration-style:solid;text-decoration-color:#000000;letter-spacing:normal;word-spacing:normal;text-transform:none;direction:ltr;block-progression:tb;writing-mode:lr-tb;baseline-shift:baseline;text-anchor:start;white-space:normal;clip-rule:nonzero;display:inline;overflow:visible;visibility:visible;opacity:1;isolation:auto;mix-blend-mode:normal;color-interpolation:sRGB;color-interpolation-filters:linearRGB;solid-color:#000000;solid-opacity:1;fill:#484848;fill-opacity:1;fill-rule:nonzero;stroke:none;stroke-width:1.46222258;stroke-linecap:round;stroke-linejoin:round;stroke-miterlimit:4;stroke-dasharray:none;stroke-dashoffset:0;stroke-opacity:1;color-rendering:auto;image-rendering:auto;shape-rendering:auto;text-rendering:auto;enable-background:accumulate" />
  </g>
</svg>
