<?xml version="1.0" encoding="UTF-8" standalone="no"?>
<svg
   xmlns:dc="http://purl.org/dc/elements/1.1/"
   xmlns:cc="http://creativecommons.org/ns#"
   xmlns:rdf="http://www.w3.org/1999/02/22-rdf-syntax-ns#"
   xmlns:svg="http://www.w3.org/2000/svg"
   xmlns="http://www.w3.org/2000/svg"
   xmlns:sodipodi="http://sodipodi.sourceforge.net/DTD/sodipodi-0.dtd"
   xmlns:inkscape="http://www.inkscape.org/namespaces/inkscape"
   viewBox="0 0 2561.6882 715.72589"
   id="svg7330"
   version="1.1"
   inkscape:version="0.91 r13725"
   sodipodi:docname="logo.svg"
   width="2561.6882"
   height="715.72589">
  <metadata
     id="metadata7364">
    <rdf:RDF>
      <cc:Work
         rdf:about="">
        <dc:format>image/svg+xml</dc:format>
        <dc:type
           rdf:resource="http://purl.org/dc/dcmitype/StillImage" />
        <dc:title></dc:title>
      </cc:Work>
    </rdf:RDF>
  </metadata>
  <defs
     id="defs7362" />
  <sodipodi:namedview
     pagecolor="#ffffff"
     bordercolor="#666666"
     borderopacity="1"
     objecttolerance="10"
     gridtolerance="10"
     guidetolerance="10"
     inkscape:pageopacity="0"
     inkscape:pageshadow="2"
     inkscape:window-width="1680"
     inkscape:window-height="975"
     id="namedview7360"
     showgrid="false"
     showguides="true"
     inkscape:guide-bbox="true"
     fit-margin-top="0"
     fit-margin-left="0"
     fit-margin-right="0"
     fit-margin-bottom="0"
     inkscape:zoom="0.24429749"
     inkscape:cx="1417.521"
     inkscape:cy="333.9056"
     inkscape:window-x="1671"
     inkscape:window-y="-9"
     inkscape:window-maximized="1"
     inkscape:current-layer="svg7330">
    <sodipodi:guide
       position="624.5396,0.36759372"
       orientation="0,1"
       id="guide8493" />
    <sodipodi:guide
       position="529.15966,715.96688"
       orientation="0,1"
       id="guide8495" />
  </sodipodi:namedview>
  <g
     id="g7906"
     transform="translate(-6.6659077,-1.6454857)">
    <path
       id="path7332"
       d="m 158.38,1.6562 c -3.6193,0.11232 -7.5172,1.4493 -11.938,4.9375 -10.83,-4.1763 -21.33,-5.6271 -30.72,2.8751 C 101.222,7.588 96.51,11.469 92.94,16 89.757,15.934 69.121,12.728 59.658,26.844 35.877,24.03 28.361,40.832 36.877,56.5 c -4.8569,7.519 -9.8895,14.947 1.4688,29.281 -4.018,7.9835 -1.5274,16.644 7.9375,27.125 -2.4979,11.223 2.4121,19.141 11.219,25.312 -1.6471,15.358 14.084,24.287 18.781,27.469 1.8037,8.9487 5.5629,17.393 23.531,22.062 2.9632,13.336 13.762,15.639 24.219,18.438 -34.562,20.09 -64.201,46.523 -64,111.38 l -5.0625,9.0312 c -39.63,24.1 -75.285,101.56 -19.53,164.52 3.6419,19.708 9.7496,33.864 15.188,49.531 8.1338,63.131 61.218,92.692 75.219,96.188 20.517,15.628 42.368,30.457 71.938,40.844 27.875,28.749 58.074,39.706 88.438,39.688 0.44515,-2.8e-4 0.89853,0.005 1.3438,0 30.364,0.0189 60.562,-10.938 88.438,-39.688 29.569,-10.387 51.421,-25.216 71.938,-40.844 14.001,-3.4959 67.085,-33.057 75.219,-96.188 5.4379,-15.667 11.546,-29.823 15.188,-49.531 55.754,-62.965 20.1,-140.43 -19.531,-164.53 l -5.07,-9.03 c 0.20067,-64.852 -29.438,-91.285 -64,-111.38 10.457,-2.7984 21.256,-5.1014 24.219,-18.438 17.968,-4.6698 21.728,-13.114 23.531,-22.062 4.6978,-3.1813 20.428,-12.111 18.781,-27.469 8.8067,-6.1716 13.717,-14.09 11.219,-25.312 9.4649,-10.481 11.956,-19.141 7.9375,-27.125 11.36,-14.328 6.32,-21.756 1.47,-29.275 8.51,-15.668 1,-32.47 -22.79,-29.656 -9.46,-14.116 -30.09,-10.91 -33.28,-10.844 -3.57,-4.531 -8.28,-8.412 -22.78,-6.5312 -9.39,-8.5022 -19.89,-7.0514 -30.72,-2.875 -12.86,-10.148 -21.37,-2.0133 -31.09,1.0624 -15.57,-5.0877 -19.13,1.881 -26.78,4.7188 -16.98,-3.5881 -22.14,4.224 -30.28,12.469 l -9.4688,-0.1875 c -25.611,15.093 -38.334,45.826 -42.844,61.625 -4.5121,-15.802 -17.206,-46.535 -42.812,-61.625 l -9.4688,0.1875 c -8.15,-8.245 -13.31,-16.057 -30.29,-12.469 -7.65,-2.8378 -11.2,-9.8065 -26.78,-4.7188 -6.3797,-2.0185 -12.247,-6.2144 -19.156,-6 z"
       inkscape:connector-curvature="0"
       style="fill:#000000" />
    <path
       id="path7334"
       d="m 107.39,68.056 c 67.948,35.031 107.45,63.369 129.09,87.504 -11.082,44.418 -68.896,46.445 -90.036,45.199 4.3284,-2.0147 7.9399,-4.4278 9.2205,-8.1357 -5.3045,-3.7698 -24.113,-0.39719 -37.244,-7.7742 5.0441,-1.045 7.4035,-2.063 9.7629,-5.7854 -12.406,-3.9567 -25.769,-7.3664 -33.628,-13.921 4.2413,0.0524 8.2012,0.9488 13.74,-2.8927 -11.112,-5.9882 -22.969,-10.734 -32.181,-19.887 5.7452,-0.14063 11.939,-0.0568 13.74,-2.1695 -10.17,-6.3007 -18.751,-13.308 -25.854,-20.972 8.04,0.97052 11.435,0.13478 13.379,-1.2656 -7.6878,-7.8742 -17.418,-14.523 -22.057,-24.226 5.9696,2.0575 11.431,2.8451 15.368,-0.1808 -2.6124,-5.8935 -13.805,-9.3696 -20.249,-23.142 6.2844,0.60938 12.95,1.3711 14.283,0 -2.917,-11.884 -7.922,-18.565 -12.831,-25.487 13.45,-0.2 33.828,0.052 32.905,-1.085 l -8.3165,-8.4973 c 13.138,-3.5372 26.581,0.56816 36.34,3.6159 4.3819,-3.4577 -0.0776,-7.83 -5.4238,-12.294 11.165,1.4906 21.254,4.0574 30.373,7.5934 4.8724,-4.3993 -3.1639,-8.7987 -7.051,-13.198 17.249,3.2726 24.557,7.8707 31.82,12.475 5.2694,-5.0508 0.30166,-9.3433 -3.2543,-13.74 13.006,4.817 19.705,11.036 26.758,17.175 2.3912,-3.2271 6.0749,-5.5924 1.6272,-13.379 9.2342,5.3227 16.189,11.595 21.334,18.622 5.7134,-3.6379 3.4039,-8.613 3.4351,-13.198 9.5966,7.8065 15.687,16.114 23.142,24.226 1.5017,-1.0934 2.8166,-4.8017 3.9775,-10.667 22.895,22.212 55.246,78.158 8.3165,100.34 -39.94,-32.94 -87.64,-56.883 -140.5,-74.844 z"
       inkscape:connector-curvature="0"
       style="fill:#75a928" />
    <path
       id="path7336"
       d="m 467.92,68.056 c -67.94,35.034 -107.44,63.364 -129.08,87.504 11.082,44.418 68.896,46.445 90.036,45.199 -4.3284,-2.0147 -7.9399,-4.4278 -9.2205,-8.1357 5.3045,-3.7698 24.113,-0.39719 37.244,-7.7742 -5.0441,-1.045 -7.4035,-2.063 -9.7629,-5.7854 12.406,-3.9567 25.769,-7.3664 33.628,-13.921 -4.2413,0.0524 -8.2012,0.9488 -13.74,-2.8927 11.112,-5.9882 22.969,-10.734 32.181,-19.887 -5.7452,-0.14063 -11.939,-0.0568 -13.74,-2.1695 10.17,-6.3007 18.751,-13.308 25.854,-20.972 -8.04,0.97052 -11.435,0.13478 -13.379,-1.2656 7.6878,-7.8742 17.418,-14.523 22.057,-24.226 -5.9696,2.0575 -11.431,2.8451 -15.368,-0.1808 2.6124,-5.8935 13.805,-9.3696 20.249,-23.142 -6.2844,0.60938 -12.95,1.3711 -14.283,0 2.9223,-11.889 7.9275,-18.57 12.836,-25.492 -13.45,-0.19973 -33.828,0.05235 -32.905,-1.0848 l 8.3165,-8.4973 c -13.138,-3.5372 -26.581,0.56816 -36.34,3.6159 -4.3819,-3.4577 0.0776,-7.83 5.4238,-12.294 -11.165,1.4906 -21.254,4.0574 -30.373,7.5934 -4.8724,-4.3993 3.1639,-8.7987 7.051,-13.198 -17.249,3.2726 -24.557,7.8707 -31.82,12.475 -5.2694,-5.0508 -0.30166,-9.3433 3.2543,-13.74 -13.006,4.817 -19.705,11.036 -26.758,17.175 -2.3912,-3.2271 -6.0749,-5.5924 -1.6272,-13.379 -9.2342,5.3227 -16.189,11.595 -21.334,18.622 -5.7134,-3.6379 -3.4039,-8.613 -3.4351,-13.198 -9.5966,7.8065 -15.687,16.114 -23.142,24.226 -1.5017,-1.0934 -2.8166,-4.8017 -3.9775,-10.667 -22.895,22.212 -55.246,78.158 -8.3165,100.34 39.919,-32.947 87.616,-56.888 140.48,-74.849 z"
       inkscape:connector-curvature="0"
       style="fill:#75a928" />
    <path
       id="path7338"
       transform="matrix(1.131107,0,0,1.1280497,-43.139135,-68.310983)"
       d="m 365.2,521.85 a 71.956,66.532 0 1 1 -143.91,0 71.956,66.532 0 1 1 143.91,0 z"
       inkscape:connector-curvature="0"
       style="fill:#bc1142" />
    <path
       id="path7340"
       transform="matrix(0.76741684,-1.1613112,2.171115,1.4224368,-560.88858,217.68859)"
       d="m 262.84,276.65 a 61.875,28.125 0 1 1 -123.75,0 61.875,28.125 0 1 1 123.75,0 z"
       inkscape:connector-curvature="0"
       style="fill:#bc1142" />
    <path
       id="path7342"
       transform="matrix(-0.76741684,-1.1613112,-2.171115,1.4224368,1134.8288,213.68859)"
       d="m 262.84,276.65 a 61.875,28.125 0 1 1 -123.75,0 61.875,28.125 0 1 1 123.75,0 z"
       inkscape:connector-curvature="0"
       style="fill:#bc1142" />
    <path
       id="path7344"
       d="M 72.91,342.09 C 109.32,332.33 85.202,492.72 55.577,479.56 22.99,453.35 12.494,376.59 72.91,342.09 Z"
       inkscape:connector-curvature="0"
       style="fill:#bc1142" />
    <path
       id="path7346"
       d="M 493.68,340.09 C 457.266,330.3331 481.388,490.73 511.013,477.57 543.6,451.357 554.096,374.59 493.68,340.09 Z"
       inkscape:connector-curvature="0"
       style="fill:#bc1142" />
    <path
       id="path7348"
       d="m 369.97,220.65 c 62.835,-10.61 115.12,26.722 113.01,94.858 -2.0669,26.121 -136.16,-90.969 -113.01,-94.858 z"
       inkscape:connector-curvature="0"
       style="fill:#bc1142" />
    <path
       id="path7350"
       d="M 196.36,218.65 C 133.52,208.04 81.24,245.38 83.35,313.51 85.417,339.63 219.51,222.54 196.36,218.65 Z"
       inkscape:connector-curvature="0"
       style="fill:#bc1142" />
    <path
       id="path7352"
       d="m 286.62,202.76 c -37.503,-0.97548 -73.495,27.834 -73.582,44.544 -0.10462,20.304 29.651,41.093 73.837,41.62 45.123,0.32321 73.916,-16.64 74.061,-37.594 0.16484,-23.74 -41.039,-48.937 -74.317,-48.571 z"
       inkscape:connector-curvature="0"
       style="fill:#bc1142" />
    <path
       id="path7354"
       d="m 288.91,619.12 c 32.697,-1.4271 76.571,10.532 76.657,26.396 0.5427,15.405 -39.79,50.211 -78.826,49.538 -40.427,1.7439 -80.069,-33.116 -79.55,-45.199 -0.60506,-17.716 49.226,-31.548 81.719,-30.735 z"
       inkscape:connector-curvature="0"
       style="fill:#bc1142" />
    <path
       id="path7356"
       d="m 168.14,525.1 c 23.279,28.046 33.891,77.319 14.464,91.844 -18.379,11.088 -63.012,6.5216 -94.736,-39.052 -21.395,-38.242 -18.638,-77.157 -3.6159,-88.589 22.464,-13.684 57.173,4.799 83.889,35.797 z"
       inkscape:connector-curvature="0"
       style="fill:#bc1142" />
    <path
       id="path7358"
       d="m 405.02,516.21 c -25.187,29.502 -39.212,83.31 -20.838,100.64 17.568,13.464 64.729,11.582 99.566,-36.756 25.296,-32.465 16.82,-86.682 2.3708,-101.08 -21.464,-16.602 -52.277,4.6449 -81.099,37.188 z"
       inkscape:connector-curvature="0"
       style="fill:#bc1142" />
  </g>
  <path
     style="fill:#000000"
     d="m 817.56387,624.7084 c -1.03047,-2.69628 -1.41631,-118.73453 -0.85738,-257.8628 l 1.01627,-252.96049 101.96856,0 c 99.44778,0 102.43198,0.23009 120.71528,9.3115 27.8751,13.84555 54.7113,40.02732 69.5974,67.89994 11.3919,21.33061 13.449,29.44681 14.8627,58.64043 1.1993,24.76581 -0.1176,39.17694 -4.8934,53.55587 -9.2257,27.77582 -33.4622,59.81784 -57.8653,76.50124 -31.9272,21.82725 -55.8212,26.2702 -141.27973,26.2702 l -73.69151,0 0,107.06699 c 0,78.04517 -1.27566,108.34266 -4.70624,111.77324 -6.17601,6.17601 -22.48044,6.04741 -24.86665,-0.1962 z M 1014.8433,368.72049 c 26.9215,-7.9948 59.6457,-37.87416 71.3966,-65.18982 10.95,-25.45408 10.0728,-70.91721 -1.8406,-95.39067 -9.6283,-19.7794 -32.1462,-42.35608 -53.7525,-53.89303 -15.7644,-8.4176 -22.1101,-9.06669 -100.17036,-10.24639 l -83.33968,-1.25947 0,115.97414 0,115.97409 73.80366,0 c 54.65726,0 79.01788,-1.54846 93.90288,-5.96885 z m 324.4367,254.0594 c -58.7293,-20.97621 -101.9691,-67.99474 -118.1485,-128.47357 -6.1997,-23.1742 -6.7437,-63.66884 -1.1798,-87.80366 11.3478,-49.22349 52.0675,-100.7557 97.1538,-122.95156 24.7751,-12.19677 42.9148,-15.00598 71.1666,-14.87715 32.555,0.14845 46.8494,2.89867 68.7152,13.56982 13.7891,6.72951 33.7073,21.6263 48.1107,35.98205 73.0938,72.85137 73.4853,186.55061 0.8979,260.73281 -32.9502,33.67434 -65.2462,48.01433 -111.7585,49.62273 -26.4367,0.91423 -40.2319,-0.54207 -54.9574,-5.80147 z m 107.2653,-37.84111 c 88.0347,-45.05882 109.4199,-164.15935 43.0202,-239.59351 -28.4659,-32.33877 -58.2736,-45.34336 -104.3044,-45.50613 -35.4352,-0.1255 -62.2417,11.04264 -90.9403,37.88679 -68.1171,63.71557 -60.9249,179.17516 14.638,234.99134 26.5226,19.59148 47.944,25.66592 85.2786,24.18239 24.8296,-0.98664 35.7419,-3.48191 52.3079,-11.96088 z m 246.408,42.0574 c -1.4382,-1.43802 -2.6149,-81.70467 -2.6149,-178.37023 l 0,-175.75575 10.4152,-2.61395 c 17.1525,-4.30498 20.9597,5.64765 20.9597,54.78684 l 0,42.97937 12.2491,-17.25635 c 29.068,-40.95033 60.2697,-65.04594 98.4254,-76.00936 27.0448,-7.77082 49.6552,-6.60492 55.588,2.86633 7.5568,12.0643 -1.8038,20.26805 -26.7239,23.4211 -47.5221,6.01274 -90.5787,43.31208 -121.6528,105.38623 0,0 -11.433,19.68797 -17.8858,35.72799 l 0,86.14028 c 0,51.87868 -1.6148,89.1575 -4.0595,93.72616 -3.9039,7.29451 -19.2822,10.38962 -24.7005,4.97134 z m 381.9641,-6.02391 c -7.2828,-4.95544 -16.9329,-13.98971 -21.4454,-20.07619 -7.9232,-10.68686 -8.2441,-16.03118 -9.3652,-155.89424 l -1.1613,-144.82799 -26.7922,0 c -29.2355,0 -37.1504,-4.61848 -34.9169,-20.37393 1.1952,-8.43313 3.322,-9.11697 31.6757,-10.18553 l 30.3944,-1.14542 0,-71.78174 c 0,-64.56026 0.7216,-72.43475 7.1723,-78.27241 9.1912,-8.31813 13.6159,-8.17874 21.634,0.68142 5.5371,6.11853 6.4905,17.61649 6.4905,78.27241 l 0,71.10032 30.3948,1.14542 c 28.8766,1.08826 30.4617,1.62402 31.7473,10.73036 1.9883,14.08661 -8.8423,19.8291 -37.3994,19.8291 l -24.7427,0 0,140.57941 c 0,132.93822 0.4058,140.94448 7.4224,147.29653 4.0826,3.69437 12.3304,8.02969 18.3288,9.63395 24.2044,6.47315 22.2227,28.96836 -2.7417,31.13227 -9.0489,0.78438 -17.79,-1.78407 -26.6954,-7.84374 z m 306.7077,2.59257 c -38.9083,-10.47847 -91.2409,-42.7405 -91.2409,-56.24836 0,-4.03642 2.8426,-9.69779 6.3165,-12.5809 5.3642,-4.45194 8.4675,-3.91066 20.5898,3.59135 41.7956,25.8655 71.8477,37.32509 102.543,39.102 39.1388,2.26573 63.9526,-5.65799 89.1458,-28.46682 17.8649,-16.1742 17.3745,-18.08697 18.6782,-37.93942 2.7035,-41.16987 -24.4666,-58.94887 -107.3877,-77.64578 -87.795,-19.79588 -118.12,-43.52124 -118.12,-92.4141 0,-23.42571 7.4091,-39.84427 26.0165,-57.65402 26.6524,-25.51014 47.8435,-32.54896 97.992,-32.54896 0,0 26.1405,0.52147 41.524,4.95398 25.8129,7.82207 36.3351,12.41185 36.3351,12.41185 37.8791,14.50652 46.8123,30.08091 37.463,41.34607 -7.4124,8.93161 -13.6803,7.52681 -41.6308,-9.33095 -31.1457,-18.78472 -58.0073,-25.71491 -86.6321,-22.35064 -61.7533,7.25791 -95.6149,48.77454 -71.731,87.94845 10.6662,17.49521 39.2212,30.04055 94.5791,41.5524 53.8063,11.18922 84.1724,24.91936 104.9392,47.44896 34.6781,37.62131 24.8464,93.02669 -22.7142,128.00311 -34.6413,25.47561 -88.7656,33.72178 -136.6655,20.82178 z"
     id="path8491"
     inkscape:connector-curvature="0"
     sodipodi:nodetypes="cscssssssscssccssssscccssssssssssssssssssscscsscsscsscsccssscscscscsscscscscsssssssssssssscsssscssss" />
</svg>
