<?xml version="1.0" encoding="UTF-8" standalone="no"?>
<!-- Created with Inkscape (http://www.inkscape.org/) -->

<svg
   xmlns:dc="http://purl.org/dc/elements/1.1/"
   xmlns:cc="http://creativecommons.org/ns#"
   xmlns:rdf="http://www.w3.org/1999/02/22-rdf-syntax-ns#"
   xmlns:svg="http://www.w3.org/2000/svg"
   xmlns="http://www.w3.org/2000/svg"
   xmlns:sodipodi="http://sodipodi.sourceforge.net/DTD/sodipodi-0.dtd"
   xmlns:inkscape="http://www.inkscape.org/namespaces/inkscape"
   id="svg4136"
   version="1.1"
   inkscape:version="0.91 r13725"
   xml:space="preserve"
   width="400"
   height="298.93353"
   viewBox="0 0 400 298.93353"
   sodipodi:docname="logo.svg"><metadata
     id="metadata4142"><rdf:RDF><cc:Work
         rdf:about=""><dc:format>image/svg+xml</dc:format><dc:type
           rdf:resource="http://purl.org/dc/dcmitype/StillImage" /><dc:title></dc:title></cc:Work></rdf:RDF></metadata><defs
     id="defs4140"><clipPath
       clipPathUnits="userSpaceOnUse"
       id="clipPath4150"><path
         d="M 0,480 640,480 640,0 0,0 0,480 Z"
         id="path4152"
         inkscape:connector-curvature="0" /></clipPath></defs><sodipodi:namedview
     pagecolor="#ffffff"
     bordercolor="#666666"
     borderopacity="1"
     objecttolerance="10"
     gridtolerance="10"
     guidetolerance="10"
     inkscape:pageopacity="0"
     inkscape:pageshadow="2"
     inkscape:window-width="1530"
     inkscape:window-height="925"
     id="namedview4138"
     showgrid="false"
     fit-margin-top="0"
     fit-margin-left="0"
     fit-margin-right="0"
     fit-margin-bottom="0"
     inkscape:zoom="1.4142136"
     inkscape:cx="170.32359"
     inkscape:cy="61.437843"
     inkscape:window-x="1770"
     inkscape:window-y="16"
     inkscape:window-maximized="0"
     inkscape:current-layer="g4148" /><g
     id="g4144"
     inkscape:groupmode="layer"
     inkscape:label="NEO-GEO_AES"
     transform="matrix(1.25,0,0,-1.25,-201.28875,449.12478)"><g
       id="g4146"
       style="fill:#c2920d;fill-opacity:1"><g
         id="g4148"
         clip-path="url(#clipPath4150)"
         style="fill:#c2920d;fill-opacity:1"><path
           style="fill:#c2920d;fill-opacity:1;fill-rule:nonzero;stroke:none"
           d="M 335.85547 0 C 334.62807 -0.0053149414 333.38773 0.016484375 332.13086 0.064453125 C 313.51336 -0.70304687 297.82086 5.3669531 285.06836 18.283203 C 272.30836 31.189453 265.93555 47.325078 265.93555 66.673828 C 265.93555 83.913828 270.83664 98.816094 280.65039 111.37109 C 293.05914 127.26359 310.62305 135.21094 333.3418 135.21094 C 355.99305 135.21094 373.52961 126.87805 385.94336 110.2168 C 395.31336 97.663047 400 83.114375 400 66.578125 C 400 47.228125 393.71344 31.113672 381.14844 18.232422 C 369.36289 6.1550781 354.26639 0.079724121 335.85547 0 z M 2.9492188 1.7890625 L 2.9492188 6.1289062 C 6.7554687 6.2551562 6.8904687 7.5324219 8.9179688 8.6074219 L 19.646484 19.404297 L 19.630859 105.96875 C 19.630859 112.8125 18.280078 117.65781 15.580078 120.50781 C 12.877578 123.36031 8.0867969 124.81711 1.2167969 124.88086 L 1.2167969 130.11328 L 45.537109 130.11328 L 45.537109 124.88086 L 42.587891 124.88086 C 38.356641 124.88086 34.598203 123.58188 31.314453 120.98438 C 28.034453 118.38563 26.392578 113.3825 26.392578 105.96875 L 26.392578 27.914062 L 110.94336 133.31641 L 116.42383 133.32422 L 116.42383 25.826172 C 116.42383 19.714922 116.9307 17.940781 117.93945 15.425781 C 118.9482 12.910781 120.35891 11.095469 122.16016 9.9804688 C 123.96266 8.8667188 127.49906 7.9610156 132.75781 7.2597656 L 132.75781 1.7890625 L 90.820312 1.7890625 L 90.820312 7.2597656 C 97.735313 7.1335156 102.66602 8.915625 105.60352 12.609375 C 107.74727 15.346875 108.81836 18.058672 108.81836 25.826172 L 108.81836 82.125 L 43.001953 1.7890625 L 2.9492188 1.7890625 z M 137.49219 1.7890625 L 137.49219 7.0566406 L 140.93555 7.0566406 C 145.1343 7.0566406 148.44258 7.9455469 150.86133 9.7167969 C 152.57883 10.921797 153.75492 12.638672 154.38867 14.857422 C 154.70992 16.184922 154.87109 19.768516 154.87109 25.603516 L 154.87109 106.41992 C 154.87109 112.88617 154.52281 116.88305 153.82031 118.4043 C 152.93156 120.55805 151.65336 122.0857 150.00586 122.9707 C 147.71211 124.3057 144.6918 124.9668 140.93555 124.9668 L 137.49219 124.9668 L 137.49219 131.04688 L 248.60352 131.04688 L 255.2832 89.958984 L 249.18359 89.958984 C 246.00234 101.39898 240.76406 109.90547 233.47656 115.48047 C 226.19156 121.05922 216.50227 123.8457 204.41602 123.8457 L 197.52344 123.8457 C 193.83219 123.8457 191.16586 123.34062 189.50586 122.32812 C 187.85336 121.31187 186.72219 120.01008 186.11719 118.42383 C 185.51469 116.83758 185.21094 112.49703 185.21094 105.39453 L 185.21094 69.058594 C 191.41969 69.058594 198.69469 69.865938 201.96094 71.492188 C 205.22219 73.107188 208.08813 76.269453 210.54688 80.970703 C 213.01437 85.671953 214.62969 90.862266 215.39844 98.228516 L 220.64062 98.228516 L 220.64062 31.353516 L 215.39844 31.353516 C 214.37094 41.397266 212.00477 48.141562 208.29102 53.289062 C 204.58602 58.437812 198.59695 61.011719 190.3457 61.011719 L 185.21094 61.011719 L 185.21094 16.158203 C 185.16844 8.3607031 192.12305 9.265625 192.12305 9.265625 L 200.23633 9.265625 C 210.06008 9.265625 216.75031 9.8374219 220.32031 10.982422 C 226.44281 12.883672 231.17719 15.868984 234.52344 19.927734 C 237.87219 23.992734 240.46836 30.689375 242.31836 40.015625 L 246.71094 40.015625 L 246.71094 1.7890625 L 137.49219 1.7890625 z M 333.24609 6.2207031 C 339.51484 6.2207031 345.05844 7.9801562 349.86719 11.503906 C 354.67719 15.026406 358.63328 21.065078 361.73828 29.611328 C 364.84078 38.166328 366.39453 51.056953 366.39453 68.283203 C 366.39453 82.761953 364.87508 94.501094 361.83008 103.49609 C 358.79133 112.49734 354.53938 119.04703 349.07812 123.14453 C 344.79688 126.34828 339.4568 127.94922 333.06055 127.94922 C 323.5618 127.94922 316.17844 124.23203 310.89844 116.80078 C 303.32844 106.16953 299.54102 89.744375 299.54102 67.515625 C 299.54102 48.813125 301.99148 34.465156 306.89648 24.472656 C 312.91523 12.303906 321.69859 6.2207031 333.24609 6.2207031 z M 69.248047 162.20312 C 49.611797 162.20312 33.318437 168.95031 20.367188 182.44531 C 7.4159375 195.94531 0.9453125 212.47898 0.9453125 232.05273 C 0.9453125 242.98773 3.049375 252.87031 7.265625 261.69531 C 10.579375 268.53781 15.174922 274.69477 21.044922 280.16602 C 26.918672 285.63352 33.696953 290.0507 41.376953 293.4082 C 49.056953 296.7607 58.712891 298.43945 70.337891 298.43945 C 79.435391 298.43945 88.211328 297.49984 96.673828 295.62109 C 105.14008 293.73609 113.2843 290.94695 121.12305 287.25195 L 121.12305 260.20312 C 121.12305 255.46062 121.38914 252.47742 121.93164 251.26367 C 122.89289 248.95492 124.25891 247.3068 126.03516 246.31055 C 127.80766 245.31305 132.6457 244.66289 137.1582 244.33789 L 137.1582 239.91016 L 73.244141 239.91016 L 73.244141 244.33789 L 76.412109 244.33789 C 79.367109 244.33789 84.427266 244.94742 86.509766 246.16992 C 88.594766 247.38242 89.968359 248.74305 90.630859 250.24805 C 91.295859 251.75555 91.630859 255.07562 91.630859 260.20312 L 91.630859 280.33789 C 91.628359 286.41414 85.212188 289.50844 82.117188 290.17969 C 79.014688 290.85094 75.996484 291.1875 73.052734 291.1875 C 64.576484 291.1875 57.259453 288.98281 51.095703 284.57031 C 44.934453 280.15406 40.468125 273.2493 37.703125 263.8418 C 34.938125 254.44305 33.560547 243.50766 33.560547 231.03516 C 33.560547 220.73766 34.824766 210.69586 37.353516 200.91211 C 39.883516 191.12461 44.190937 183.4968 50.273438 178.0293 C 56.353437 172.56305 63.972109 169.82617 73.130859 169.82617 C 82.712109 169.82617 88.310938 172.25063 95.367188 179.57812 C 102.57594 187.06687 109.49125 195.57336 113.53125 208.06836 L 119.42578 208.06836 L 119.42578 162.20312 L 116.07422 162.20312 C 114.86422 165.87687 113.54336 168.3707 112.09961 169.68945 C 110.65086 171.01195 109.08289 171.66797 107.40039 171.66797 C 106.31539 171.66797 102.79984 170.47539 96.871094 168.08789 C 90.938594 165.69664 86.646797 164.24562 83.998047 163.73438 C 79.119297 162.71688 75.328047 162.20312 69.248047 162.20312 z M 328.67383 163.72461 C 311.56289 163.80535 297.02383 169.89687 285.06836 182.00586 C 272.30836 194.91461 265.93555 211.05039 265.93555 230.40039 C 265.93555 247.64039 270.83664 262.5407 280.65039 275.0957 C 293.05914 290.9882 310.62305 298.93359 333.3418 298.93359 C 355.99305 298.93359 373.52961 290.60195 385.94336 273.93945 C 395.31336 261.38695 400 246.83898 400 230.30273 C 400 210.95273 393.71344 194.83438 381.14844 181.95312 C 368.57719 169.07313 352.24086 163.02031 332.13086 163.78906 C 330.96727 163.74102 329.81456 163.71923 328.67383 163.72461 z M 140.5957 165.82812 L 140.5957 171.06055 L 144.04297 171.06055 C 148.23922 171.06055 151.55039 171.9482 153.96289 173.7207 C 155.68289 174.92695 156.86234 176.64453 157.49609 178.86328 C 157.81484 180.18953 157.97656 183.77633 157.97656 189.61133 L 157.97656 270.42383 C 157.97656 276.89258 157.62828 280.88711 156.92578 282.41211 C 156.03453 284.56586 154.76062 286.09031 153.10938 286.97656 C 150.81563 288.31156 147.79422 288.97266 144.04297 288.97266 L 140.5957 288.97266 L 140.5957 295.05273 L 251.71094 295.05273 L 258.38672 253.96289 L 252.28906 253.96289 C 249.10656 265.40164 243.87164 273.91008 236.58789 279.48633 C 229.30289 285.06633 219.60844 287.85156 207.52344 287.85156 L 200.63086 287.85156 C 196.93836 287.85156 194.27078 287.34703 192.61328 286.33203 C 190.96203 285.31578 189.82781 284.01789 189.22656 282.43164 C 188.62281 280.84664 188.31836 276.50359 188.31836 269.40234 L 188.31836 233.06445 C 194.52836 233.06445 201.80586 233.87305 205.06836 235.49805 C 208.32711 237.1143 211.19164 240.27531 213.65039 244.97656 C 216.12039 249.67781 217.73445 254.86867 218.50195 262.23242 L 223.74414 262.23242 L 223.74414 195.35547 L 218.50195 195.35547 C 217.4782 205.40297 215.11344 212.14742 211.39844 217.29492 C 207.68969 222.44367 201.70242 225.01758 193.45117 225.01758 L 188.31836 225.01758 L 188.31836 180.16211 C 188.27461 172.36586 195.22461 173.26953 195.22461 173.26953 L 203.3457 173.26953 C 213.16695 173.26953 219.85648 173.84328 223.42773 174.98828 C 229.54648 176.89078 234.27891 179.87805 237.62891 183.93555 C 240.97891 188.0018 243.57063 194.69344 245.42188 204.02344 L 249.81641 204.02344 L 249.81641 165.82812 L 140.5957 165.82812 z M 333.24609 169.94141 C 339.51484 169.94141 345.05844 171.70602 349.86719 175.22852 C 354.67719 178.74977 358.63328 184.78773 361.73828 193.33398 C 364.84078 201.88898 366.39453 214.77906 366.39453 232.00781 C 366.39453 246.48656 364.87508 258.22445 361.83008 267.2207 C 358.79133 276.2207 354.53937 282.77219 349.07812 286.86719 C 344.79688 290.07344 339.4568 291.67188 333.06055 291.67188 C 323.5618 291.67188 316.17844 287.95664 310.89844 280.52539 C 303.32844 269.89414 299.54102 253.46703 299.54102 231.23828 C 299.54102 212.53578 301.99148 198.19102 306.89648 188.19727 C 312.91523 176.02727 321.69859 169.94141 333.24609 169.94141 z "
           transform="matrix(0.8,0,0,-0.8,161.031,359.29982)"
           id="path4154" /><path
           style="fill:#1fc89c;fill-opacity:1;fill-rule:nonzero;stroke:none"
           d="M 81.666016 139.17188 C 79.551016 139.17188 77.842969 139.93906 76.542969 141.47656 C 75.240469 143.01031 74.591797 145.16711 74.591797 147.94336 C 74.591797 150.56711 75.240703 152.63664 76.533203 154.15039 C 77.824453 155.66289 79.476172 156.41797 81.482422 156.41797 C 83.104922 156.41797 84.444453 155.97609 85.501953 155.08984 C 86.554453 154.20359 87.310625 152.84383 87.765625 151.01758 L 84.802734 149.98633 C 84.550234 151.21383 84.131719 152.11039 83.542969 152.68164 C 82.962969 153.25289 82.259375 153.53516 81.453125 153.53516 C 80.351875 153.53516 79.453828 153.09031 78.767578 152.19531 C 78.080078 151.30031 77.738281 149.80016 77.738281 147.69141 C 77.738281 145.70641 78.086406 144.27031 78.785156 143.38281 C 79.482656 142.49781 80.389219 142.05469 81.511719 142.05469 C 82.324219 142.05469 83.012031 142.30523 83.582031 142.80273 C 84.145781 143.30273 84.519219 143.98391 84.699219 144.84766 L 87.720703 144.04688 C 87.381953 142.71438 86.863281 141.68977 86.175781 140.97852 C 85.020781 139.77352 83.517266 139.17188 81.666016 139.17188 z M 316.05273 139.17188 C 314.88773 139.17188 313.89992 139.365 313.07617 139.75 C 312.25242 140.1375 311.62055 140.7007 311.18555 141.43945 C 310.7493 142.1757 310.5332 142.97031 310.5332 143.82031 C 310.5332 145.13906 310.99578 146.25508 311.92578 147.17383 C 312.58828 147.82508 313.7368 148.37602 315.37305 148.82227 C 316.64805 149.17102 317.46352 149.41133 317.82227 149.54883 C 318.34352 149.75383 318.71258 149.99594 318.92383 150.27344 C 319.13258 150.54969 319.23828 150.88625 319.23828 151.28125 C 319.23828 151.8975 318.98953 152.43203 318.48828 152.89453 C 317.98828 153.34828 317.24688 153.58203 316.26562 153.58203 C 315.33812 153.58203 314.59703 153.32414 314.05078 152.80664 C 313.50703 152.29039 313.14094 151.48141 312.96094 150.37891 L 309.98828 150.69922 C 310.18703 152.56547 310.80063 153.98398 311.82812 154.95898 C 312.85062 155.93273 314.31797 156.41797 316.23047 156.41797 C 317.54422 156.41797 318.64148 156.2168 319.52148 155.81055 C 320.40398 155.40555 321.08461 154.78438 321.56836 153.95312 C 322.04711 153.11812 322.28906 152.22258 322.28906 151.26758 C 322.28906 150.21258 322.08609 149.33078 321.68359 148.61328 C 321.28359 147.89703 320.72492 147.33172 320.01367 146.91797 C 319.30117 146.50547 318.19789 146.10695 316.71289 145.7207 C 315.22414 145.33445 314.29055 144.96047 313.9043 144.60547 C 313.6043 144.32422 313.45117 143.98555 313.45117 143.5918 C 313.45117 143.1593 313.61234 142.81344 313.93359 142.55469 C 314.43984 142.15094 315.13219 141.95117 316.02344 141.95117 C 316.88344 141.95117 317.53219 142.13867 317.96094 142.51367 C 318.38969 142.89242 318.66953 143.50844 318.80078 144.36719 L 321.85352 144.2207 C 321.80352 142.68945 321.3 141.46508 320.34375 140.54883 C 319.38 139.63008 317.95398 139.17188 316.05273 139.17188 z M 344.24609 139.17188 C 343.08609 139.17188 342.09469 139.365 341.27344 139.75 C 340.44969 140.1375 339.81781 140.7007 339.38281 141.43945 C 338.94656 142.1757 338.72852 142.97031 338.72852 143.82031 C 338.72852 145.13906 339.19359 146.25508 340.12109 147.17383 C 340.78234 147.82508 341.93406 148.37602 343.57031 148.82227 C 344.84406 149.17102 345.66273 149.41133 346.02148 149.54883 C 346.54273 149.75383 346.90844 149.99594 347.11719 150.27344 C 347.32844 150.54969 347.43555 150.88625 347.43555 151.28125 C 347.43555 151.8975 347.18359 152.43203 346.68359 152.89453 C 346.18359 153.34828 345.44219 153.58203 344.46094 153.58203 C 343.52969 153.58203 342.79484 153.32414 342.24609 152.80664 C 341.70234 152.29039 341.3357 151.48141 341.1582 150.37891 L 338.18359 150.69922 C 338.38359 152.56547 338.99664 153.98398 340.02539 154.95898 C 341.04664 155.93273 342.51344 156.41797 344.42969 156.41797 C 345.74219 156.41797 346.8407 156.2168 347.7207 155.81055 C 348.60195 155.40555 349.28062 154.78438 349.76562 153.95312 C 350.24312 153.11812 350.48828 152.22258 350.48828 151.26758 C 350.48828 150.21258 350.28211 149.33078 349.88086 148.61328 C 349.47711 147.89703 348.92289 147.33172 348.21289 146.91797 C 347.49664 146.50547 346.39586 146.10695 344.91211 145.7207 C 343.42586 145.33445 342.48711 144.96047 342.09961 144.60547 C 341.80211 144.32422 341.64844 143.98555 341.64844 143.5918 C 341.64844 143.1593 341.80781 142.81344 342.13281 142.55469 C 342.63531 142.15094 343.3307 141.95117 344.2207 141.95117 C 345.0807 141.95117 345.72695 142.13867 346.1582 142.51367 C 346.58695 142.89242 346.86359 143.50844 346.99609 144.36719 L 350.05078 144.2207 C 349.99828 142.68945 349.49656 141.46508 348.53906 140.54883 C 347.57906 139.63008 346.14734 139.17188 344.24609 139.17188 z M 5.8828125 139.44727 L 0 156.12695 L 3.2402344 156.12695 L 4.4921875 152.34375 L 10.552734 152.34375 L 11.867188 156.12695 L 15.195312 156.12695 L 9.1347656 139.44727 L 5.8828125 139.44727 z M 16.796875 139.44727 L 16.796875 156.12695 L 22.539062 156.12695 C 23.664063 156.12695 24.567031 156.01164 25.238281 155.77539 C 26.139531 155.45539 26.856562 155.01156 27.382812 154.44531 C 28.086562 153.69406 28.624609 152.71109 29.005859 151.49609 C 29.312109 150.50484 29.466797 149.32102 29.466797 147.94727 C 29.466797 146.38477 29.300703 145.07141 28.970703 144.00391 C 28.640703 142.94016 28.160547 142.03898 27.529297 141.30273 C 26.899297 140.56773 26.134297 140.05313 25.248047 139.76562 C 24.591797 139.55437 23.630547 139.44727 22.373047 139.44727 L 16.796875 139.44727 z M 30.529297 139.44727 L 35.939453 156.12695 L 39.220703 156.12695 L 44.613281 139.44727 L 41.371094 139.44727 L 37.667969 151.78906 L 33.839844 139.44727 L 30.529297 139.44727 z M 48.941406 139.44727 L 43.058594 156.12695 L 46.298828 156.12695 L 47.552734 152.34375 L 53.613281 152.34375 L 54.927734 156.12695 L 58.251953 156.12695 L 52.193359 139.44727 L 48.941406 139.44727 z M 59.896484 139.44727 L 59.896484 156.12695 L 62.722656 156.12695 L 62.722656 145.20508 L 68.837891 156.12695 L 71.888672 156.12695 L 71.888672 139.44727 L 69.064453 139.44727 L 69.064453 150.62305 L 62.857422 139.44727 L 59.896484 139.44727 z M 90.398438 139.44727 L 90.398438 156.12695 L 101.89258 156.12695 L 101.89258 153.30273 L 93.453125 153.30273 L 93.453125 148.79297 L 101.0332 148.79297 L 101.0332 145.96875 L 93.453125 145.96875 L 93.453125 142.27148 L 101.60156 142.27148 L 101.60156 139.44727 L 90.398438 139.44727 z M 104.48438 139.44727 L 104.48438 156.12695 L 110.22656 156.12695 C 111.35281 156.12695 112.25273 156.01164 112.92773 155.77539 C 113.82898 155.45539 114.54102 155.01156 115.07227 154.44531 C 115.77352 153.69406 116.31016 152.71109 116.69141 151.49609 C 116.99766 150.50484 117.15039 149.32102 117.15039 147.94727 C 117.15039 146.38477 116.9882 145.07141 116.6582 144.00391 C 116.32945 142.94016 115.84805 142.03898 115.2168 141.30273 C 114.5818 140.56773 113.82 140.05313 112.9375 139.76562 C 112.2775 139.55437 111.31805 139.44727 110.06055 139.44727 L 104.48438 139.44727 z M 125.63281 139.44727 L 125.63281 156.12695 L 137.12695 156.12695 L 137.12695 153.30273 L 128.68359 153.30273 L 128.68359 148.79297 L 136.26562 148.79297 L 136.26562 145.96875 L 128.68359 145.96875 L 128.68359 142.27148 L 136.83594 142.27148 L 136.83594 139.44727 L 125.63281 139.44727 z M 139.75977 139.44727 L 139.75977 156.12695 L 142.58789 156.12695 L 142.58789 145.20508 L 148.69922 156.12695 L 151.75586 156.12695 L 151.75586 139.44727 L 148.92383 139.44727 L 148.92383 150.62305 L 142.71875 139.44727 L 139.75977 139.44727 z M 153.91406 139.44727 L 153.91406 142.27148 L 158.4043 142.27148 L 158.4043 156.12695 L 161.45703 156.12695 L 161.45703 142.27148 L 165.93555 142.27148 L 165.93555 139.44727 L 153.91406 139.44727 z M 167.9082 139.44727 L 167.9082 156.12695 L 179.40039 156.12695 L 179.40039 153.30273 L 170.96094 153.30273 L 170.96094 148.79297 L 178.53906 148.79297 L 178.53906 145.96875 L 170.96094 145.96875 L 170.96094 142.27148 L 179.11328 142.27148 L 179.11328 139.44727 L 167.9082 139.44727 z M 182.00586 139.44727 L 182.00586 156.12695 L 185.06055 156.12695 L 185.06055 149.17188 L 185.67578 149.17188 C 186.38078 149.17188 186.8918 149.23438 187.2168 149.35938 C 187.5418 149.48438 187.84531 149.71453 188.13281 150.05078 C 188.42406 150.38953 188.96055 151.2018 189.74805 152.49805 L 191.94727 156.12695 L 195.60156 156.12695 L 193.75586 152.87695 C 193.02711 151.5807 192.44563 150.67938 192.01562 150.17188 C 191.58813 149.66438 191.04211 149.19523 190.38086 148.77148 C 191.70961 148.55773 192.70555 148.04547 193.37305 147.23047 C 194.03805 146.41297 194.37305 145.37945 194.37305 144.12695 C 194.37305 143.13945 194.15344 142.26359 193.71094 141.49609 C 193.27219 140.72984 192.68438 140.19648 191.95312 139.89648 C 191.22062 139.59773 190.04594 139.44727 188.42969 139.44727 L 182.00586 139.44727 z M 196.18555 139.44727 L 196.18555 142.27148 L 200.67969 142.27148 L 200.67969 156.12695 L 203.73047 156.12695 L 203.73047 142.27148 L 208.20898 142.27148 L 208.20898 139.44727 L 196.18555 139.44727 z M 212.94922 139.44727 L 207.07031 156.12695 L 210.31055 156.12695 L 211.55859 152.34375 L 217.62305 152.34375 L 218.93555 156.12695 L 222.25977 156.12695 L 216.19922 139.44727 L 212.94922 139.44727 z M 223.77344 139.44727 L 223.77344 156.12695 L 226.82422 156.12695 L 226.82422 139.44727 L 223.77344 139.44727 z M 229.77539 139.44727 L 229.77539 156.12695 L 232.60156 156.12695 L 232.60156 145.20508 L 238.7168 156.12695 L 241.77344 156.12695 L 241.77344 139.44727 L 238.94336 139.44727 L 238.94336 150.62305 L 232.73828 139.44727 L 229.77539 139.44727 z M 244.97656 139.44727 L 244.97656 156.12695 L 247.80078 156.12695 L 247.81055 142.99805 L 250.80078 156.12695 L 253.74414 156.12695 L 256.73633 142.99805 L 256.74805 156.12695 L 259.57422 156.12695 L 259.57422 139.44727 L 254.98633 139.44727 L 252.28906 150.82617 L 249.55469 139.44727 L 244.97656 139.44727 z M 262.62109 139.44727 L 262.62109 156.12695 L 274.11719 156.12695 L 274.11719 153.30273 L 265.67383 153.30273 L 265.67383 148.79297 L 273.25586 148.79297 L 273.25586 145.96875 L 265.67383 145.96875 L 265.67383 142.27148 L 273.82812 142.27148 L 273.82812 139.44727 L 262.62109 139.44727 z M 276.74609 139.44727 L 276.74609 156.12695 L 279.57227 156.12695 L 279.57227 145.20508 L 285.6875 156.12695 L 288.74219 156.12695 L 288.74219 139.44727 L 285.91797 139.44727 L 285.91797 150.62305 L 279.71094 139.44727 L 276.74609 139.44727 z M 290.90234 139.44727 L 290.90234 142.27148 L 295.39648 142.27148 L 295.39648 156.12695 L 298.44336 156.12695 L 298.44336 142.27148 L 302.92578 142.27148 L 302.92578 139.44727 L 290.90234 139.44727 z M 323.28711 139.44727 L 328.83008 149.10938 L 328.83008 156.12695 L 331.88086 156.12695 L 331.88086 149.12891 L 337.45312 139.44727 L 333.93164 139.44727 L 330.44336 146.05469 L 326.87109 139.44727 L 323.28711 139.44727 z M 351.98047 139.44727 L 351.98047 142.27148 L 356.4707 142.27148 L 356.4707 156.12695 L 359.52344 156.12695 L 359.52344 142.27148 L 364 142.27148 L 364 139.44727 L 351.98047 139.44727 z M 365.97656 139.44727 L 365.97656 156.12695 L 377.4707 156.12695 L 377.4707 153.30273 L 369.02539 153.30273 L 369.02539 148.79297 L 376.61133 148.79297 L 376.61133 145.96875 L 369.02539 145.96875 L 369.02539 142.27148 L 377.17969 142.27148 L 377.17969 139.44727 L 365.97656 139.44727 z M 380.0332 139.44727 L 380.0332 156.12695 L 382.86328 156.12695 L 382.86914 142.99805 L 385.85938 156.12695 L 388.80078 156.12695 L 391.80078 142.99805 L 391.80664 156.12695 L 394.63086 156.12695 L 394.63086 139.44727 L 390.04492 139.44727 L 387.34375 150.82617 L 384.61328 139.44727 L 380.0332 139.44727 z M 19.849609 142.27148 L 21.222656 142.27148 C 22.470156 142.27148 23.302969 142.32414 23.730469 142.43164 C 24.299219 142.56664 24.776484 142.82734 25.146484 143.21484 C 25.518984 143.60109 25.810625 144.13938 26.015625 144.82812 C 26.221875 145.51812 26.324219 146.50672 26.324219 147.79297 C 26.324219 149.08172 26.221875 150.09945 26.015625 150.8457 C 25.810625 151.59195 25.540937 152.12688 25.210938 152.45312 C 24.888437 152.77812 24.473516 153.00828 23.978516 153.14453 C 23.599766 153.25328 22.984609 153.30273 22.130859 153.30273 L 19.849609 153.30273 L 19.849609 142.27148 z M 107.5332 142.27148 L 108.9082 142.27148 C 110.15445 142.27148 110.98727 142.32414 111.41602 142.43164 C 111.98852 142.56664 112.46023 142.82734 112.83398 143.21484 C 113.20023 143.60109 113.49297 144.13938 113.69922 144.82812 C 113.90547 145.51812 114.00977 146.50672 114.00977 147.79297 C 114.00977 149.08172 113.90547 150.09945 113.69922 150.8457 C 113.49297 151.59195 113.22469 152.12688 112.89844 152.45312 C 112.56969 152.77812 112.16031 153.00828 111.66406 153.14453 C 111.28656 153.25328 110.66836 153.30273 109.81836 153.30273 L 107.5332 153.30273 L 107.5332 142.27148 z M 185.06055 142.27148 L 187.44141 142.27148 C 188.67891 142.27148 189.42313 142.29063 189.67188 142.32812 C 190.16813 142.42063 190.54711 142.63867 190.81836 142.98242 C 191.09336 143.32867 191.22852 143.78375 191.22852 144.34375 C 191.22852 144.84625 191.12352 145.2607 190.91602 145.5957 C 190.71102 145.9307 190.42555 146.16648 190.06055 146.30273 C 189.69555 146.44023 188.78211 146.50781 187.31836 146.50781 L 185.06055 146.50781 L 185.06055 142.27148 z M 7.4726562 143.33398 L 9.5703125 149.51758 L 5.4257812 149.51758 L 7.4726562 143.33398 z M 50.533203 143.33398 L 52.626953 149.51758 L 48.484375 149.51758 L 50.533203 143.33398 z M 214.53906 143.33398 L 216.63672 149.51758 L 212.49219 149.51758 L 214.53906 143.33398 z "
           transform="matrix(0.8,0,0,-0.8,161.031,359.29982)"
           id="path4165" /></g></g></g></svg>