<?xml version="1.0" encoding="UTF-8" standalone="no"?>
<!-- Generator: Adobe Illustrator 13.0.0, SVG Export Plug-In . SVG Version: 6.00 Build 14948)  -->

<svg
   xmlns:dc="http://purl.org/dc/elements/1.1/"
   xmlns:cc="http://creativecommons.org/ns#"
   xmlns:rdf="http://www.w3.org/1999/02/22-rdf-syntax-ns#"
   xmlns:svg="http://www.w3.org/2000/svg"
   xmlns="http://www.w3.org/2000/svg"
   xmlns:sodipodi="http://sodipodi.sourceforge.net/DTD/sodipodi-0.dtd"
   xmlns:inkscape="http://www.inkscape.org/namespaces/inkscape"
   version="1.2"
   id="Ebene_1"
   x="0px"
   y="0px"
   width="456.02585"
   height="117.36237"
   viewBox="0 0 456.02587 117.36238"
   xml:space="preserve"
   inkscape:version="0.91 r13725"
   sodipodi:docname="logo.svg"><metadata
     id="metadata4188"><rdf:RDF><cc:Work
         rdf:about=""><dc:format>image/svg+xml</dc:format><dc:type
           rdf:resource="http://purl.org/dc/dcmitype/StillImage" /><dc:title></dc:title></cc:Work></rdf:RDF></metadata><defs
     id="defs4186"><inkscape:perspective
       sodipodi:type="inkscape:persp3d"
       inkscape:vp_x="0 : 42.558501 : 1"
       inkscape:vp_y="0 : 1000 : 0"
       inkscape:vp_z="566.936 : 42.558501 : 1"
       inkscape:persp3d-origin="283.468 : 28.372334 : 1"
       id="perspective4769" /></defs><sodipodi:namedview
     pagecolor="#ffffff"
     bordercolor="#666666"
     borderopacity="1"
     objecttolerance="10"
     gridtolerance="10"
     guidetolerance="10"
     inkscape:pageopacity="0"
     inkscape:pageshadow="2"
     inkscape:window-width="1680"
     inkscape:window-height="975"
     id="namedview4184"
     showgrid="false"
     inkscape:zoom="1.7743586"
     inkscape:cx="213.98952"
     inkscape:cy="-39.35588"
     inkscape:window-x="1671"
     inkscape:window-y="-9"
     inkscape:window-maximized="1"
     inkscape:current-layer="layer3"
     fit-margin-top="0"
     fit-margin-left="0"
     fit-margin-right="0"
     fit-margin-bottom="0" /><g
     inkscape:groupmode="layer"
     id="layer4"
     inkscape:label="Layer 2"
     transform="translate(-49.419427,-16.159703)" /><g
     inkscape:groupmode="layer"
     id="layer3"
     inkscape:label="Layer 1"
     style="display:inline"
     transform="translate(-49.419427,-16.159703)"><g
       id="g4879"><g
         transform="translate(-61.492573,-7.095297)"
         id="g4155"
         style="fill:#000000;fill-opacity:1;stroke:#000000;stroke-width:1.60000002;stroke-miterlimit:4;stroke-dasharray:none;stroke-opacity:1"><polygon
           style="fill:#000000;fill-opacity:1;stroke:none;stroke-width:1.60000002;stroke-miterlimit:4;stroke-dasharray:none;stroke-opacity:1"
           id="polygon4162"
           points="166.792,23.255 176.133,23.255 168.372,54.158 159.059,61.863 110.912,61.863 118.646,29.436 126.435,23.255 134.167,23.255 126.435,55.682 134.167,51.055 140.375,27.912 145.031,23.255 155.926,23.255 148.165,55.682 155.926,49.529 160.555,29.436 " /><polygon
           style="fill:#000000;fill-opacity:1;stroke:none;stroke-width:1.60000002;stroke-miterlimit:4;stroke-dasharray:none;stroke-opacity:1"
           id="polygon4164"
           points="476.781,36.604 484.854,36.604 480.338,54.158 469.755,61.863 425.39,61.863 429.341,43.35 436.367,36.604 445.398,36.604 440.094,56.953 447.883,52.324 449.857,41.797 455.052,36.604 465.889,36.604 460.582,56.953 467.921,52.042 470.009,43.35 " /><path
           style="fill:#000000;fill-opacity:1;stroke:none;stroke-width:1.60000002;stroke-miterlimit:4;stroke-dasharray:none;stroke-opacity:1"
           inkscape:connector-curvature="0"
           id="path4166"
           d="m 364.797,61.863 7.789,-7.705 33.416,0 c 0,0 2.877,0.848 4.516,-2.793 1.495,-3.389 -1.41,-3.389 -1.41,-3.389 l -15.522,0 c 0,0 -4.459,-1.017 -4.486,-6.491 -0.085,-13.461 10.979,-16.934 10.979,-16.934 l 32.621,0 -6.489,6.436 -17.104,0 c 0,0 -5.447,1.553 -5.562,6.097 -0.084,2.06 2.455,1.637 2.455,1.637 l 13.941,0 c 0,0 8.07,1.354 6.209,10.047 -2.429,11.431 -10.839,13.095 -10.839,13.095 l -50.514,0 0,0 z" /><path
           style="fill:#000000;fill-opacity:1;stroke:none;stroke-width:1.60000002;stroke-miterlimit:4;stroke-dasharray:none;stroke-opacity:1"
           inkscape:connector-curvature="0"
           id="path4168"
           d="m 338.269,61.863 13.94,0 4.233,-16.029 c 0.509,-1.863 5.419,-3.979 4.121,-3.754 -1.271,0.226 4.459,-0.848 4.459,-0.848 0,0 1.806,0.508 2.709,1.75 0.933,1.213 -0.903,3.021 -1.157,4.432 -0.254,1.41 1.553,1.552 1.553,1.552 l 7.789,0 c 0,0 4.178,-1.552 5.307,-3.104 1.103,-1.579 2.482,-3.216 2.482,-4.599 0,-1.383 -3.076,-3.104 -3.076,-3.104 l -3.133,-1.524 -23.283,0 c 0,0 -11.146,6.379 -12.443,7.705 -0.455,0.392 -3.501,17.523 -3.501,17.523 z" /><path
           style="fill:#000000;fill-opacity:1;stroke:none;stroke-width:1.60000002;stroke-miterlimit:4;stroke-dasharray:none;stroke-opacity:1"
           inkscape:connector-curvature="0"
           id="path4170"
           d="m 175.313,44.168 c -1.072,1.24 -4.571,12.135 -3.81,13.912 0.79,1.723 5.108,3.781 5.108,3.781 l 22.69,0 c 0,0 10.583,-6.633 11.401,-7.563 0.79,-0.959 3.782,-11.543 3.782,-12.645 0,-1.101 -2.54,-5.052 -2.54,-5.052 l -26.529,0 c 0.002,0.003 -8.999,6.325 -10.102,7.567 z m 17.696,-2.512 6.971,0 c 0,0 -0.79,8.383 -2.539,10.752 -1.778,2.371 -5.701,4.432 -5.701,4.432 0,0 -4.402,0.452 -5.023,0 -0.649,-0.508 -0.17,-5.053 -0.17,-5.053 0,0 0.593,-4.909 1.411,-6.35 0.791,-1.41 5.051,-3.781 5.051,-3.781 z" /><path
           sodipodi:nodetypes="cccccscccccccccccccc"
           style="fill:#000000;fill-opacity:1;stroke:none;stroke-width:1.60000002;stroke-miterlimit:4;stroke-dasharray:none;stroke-opacity:1"
           inkscape:connector-curvature="0"
           id="path4172"
           d="m 259.924,44.168 c -1.073,1.24 -4.572,12.135 -3.782,13.912 0.79,1.723 5.08,3.781 5.08,3.781 l 31.58,0 c 0,0 1.045,-5.022 2.344,-10.104 1.24,-4.771 2.709,-12.105 2.709,-12.645 0,-1.129 7.846,-11.033 7.846,-11.033 l -13.717,0 -6.94,8.521 -15.015,0 c 0.002,3.17e-4 -0.01,-6.42e-4 -0.01,-6.42e-4 0,0 -9.05466,6.425041 -10.09513,7.568642 z m 17.695,-2.512 6.942,0 c 0,0 -0.764,8.383 -2.541,10.752 -1.723,2.371 -5.673,4.432 -5.673,4.432 0,0 -4.402,0.452 -5.052,0 -0.593,-0.508 -0.169,-5.053 -0.169,-5.053 0,0 0.593,-4.909 1.439,-6.35 0.792,-1.41 5.054,-3.781 5.054,-3.781 z" /><path
           style="fill:#000000;fill-opacity:1;stroke:none;stroke-width:1.60000002;stroke-miterlimit:4;stroke-dasharray:none;stroke-opacity:1"
           inkscape:connector-curvature="0"
           id="path4174"
           d="m 211.101,61.863 7.168,-25.26 30.311,0 c 0,0 4.008,0.424 5.362,2.682 1.411,2.259 0.96,6.152 0.96,6.152 l -4.121,16.426 -12.644,0 c 0,0 1.468,-8.043 2.879,-13.887 1.411,-5.842 -2.54,-6.32 -2.54,-6.32 l -7.563,0 -4.346,15.154 c 0,0 -3.782,4.402 -5.362,5.053 l -10.104,0 z" /><path
           style="fill:#000000;fill-opacity:1;stroke:none;stroke-width:1.60000002;stroke-miterlimit:4;stroke-dasharray:none;stroke-opacity:1"
           inkscape:connector-curvature="0"
           id="path4176"
           d="m 522.162,61.863 8.044,-25.26 30.311,0 c 0,0 3.979,0.424 5.392,2.682 1.412,2.259 0.96,6.152 0.96,6.152 l -4.263,16.426 -13.856,0 c 0,0 2.313,-6.772 3.782,-12.646 1.411,-5.813 -2.062,-7.563 -2.062,-7.563 l -7.592,0 -4.233,15.154 c 0,0 -3.498,4.403 -5.051,5.053 l -11.432,0 0,0.002 z" /><path
           sodipodi:nodetypes="cccccccccscccccccccc"
           style="fill:#000000;fill-opacity:1;stroke:none;stroke-width:1.60000002;stroke-miterlimit:4;stroke-dasharray:none;stroke-opacity:1"
           inkscape:connector-curvature="0"
           id="path4178"
           d="m 301.606,44.168 c -1.102,1.24 -4.543,12.135 -3.78,13.912 0.762,1.723 5.051,3.781 5.051,3.781 l 22.72,0 c 0,0 4.517,-2.822 7.874,-5.053 0,0 -19.305,0.143 -20.488,0 -0.536,-0.056 -0.339,-2.396 -0.282,-3.779 l 15.521,0 c 0,0 2.991,-0.649 7.45,-4.348 4.516,-3.695 5.08,-4.093 5.08,-7.028 0,-2.905 -2.541,-5.052 -2.541,-5.052 l -26.527,0 c 0.005,2.59e-4 -0.14881,-0.0089 -0.13074,0.06192 0,0 -8.93944,6.370256 -9.94726,7.505082 z m 17.726,-2.512 10.188,0 c 0,0 -1.129,3.867 -6.688,6.32 l -8.494,0 c -0.819,-2.199 1.186,-3.949 2.313,-4.91 1.185,-1.072 2.681,-1.41 2.681,-1.41 z" /><path
           style="fill:#000000;fill-opacity:1;stroke:none;stroke-width:1.60000002;stroke-miterlimit:4;stroke-dasharray:none;stroke-opacity:1"
           inkscape:connector-curvature="0"
           id="path4180"
           d="m 505.737,61.863 c 0,0 4.29,-13.574 5.646,-17.922 0.677,-2.37 -0.902,-2.285 -3.896,-2.285 -2.994,0 -5.165,0.648 -9.313,7.563 -4.854,8.072 7.168,10.273 7.168,10.273 l -0.848,2.369 -13.884,0 c 0,0 -7.593,0.312 -7.593,-8.832 0,-11.232 14.365,-16.427 14.365,-16.427 l 30.338,0 -8.07,25.259 -13.913,0 0,0.002 0,0 z" /></g><g
         transform="matrix(0.81322847,0,0,0.81322847,58.687659,8.9794224)"
         id="g4229"><g
           id="g4208"
           transform="translate(-14.471041,-323.15576)"><path
             d="m 298.795,390.762 c -4.492,-1.324 -9.556,5.023 -13.879,14.71 -3.851,16.146 -12.414,39.95 -12.965,56.376 -0.25,7.29 6.479,9.426 11.051,11.04 14.47,5.104 22.933,0.11 27.243,-5.104 3.1,-3.74 -0.179,-6.859 -4.02,-5.715 -5.556,1.643 -12.344,2.758 -13.747,-2.608 -1.544,-5.915 6.688,-30.224 12.373,-48.324 3.108,-9.878 5.736,-18.08 -6.056,-20.375 z"
             id="path4210"
             inkscape:connector-curvature="0"
             style="fill:#f0373f" /><path
             d="m 223.817,419.4 c -9.796,1.013 -29.261,6.196 -29.261,31.376 0,1.185 -3.55,28.43 31.587,25.271 35.148,-3.159 41.064,-25.271 41.064,-25.271 0,0 8.693,-29.22 -12.636,-28.428 -13.016,0.481 -18.952,6.317 -18.952,6.317 0,0 8.684,1.705 10.559,7.941 3.56,11.823 2.247,31.77 -16.876,29.963 -19.192,-1.813 -9.817,-27.166 -3.77,-40.021 2.087,-4.42 1.574,-7.488 -1.715,-7.148 z"
             id="path4212"
             inkscape:connector-curvature="0"
             style="fill:#f5a023" /><path
             d="m 340.691,419.4 c -9.797,1.013 -29.262,6.196 -29.262,31.376 0,1.185 -3.549,28.43 31.587,25.271 35.147,-3.159 41.065,-25.271 41.065,-25.271 0,0 8.692,-29.22 -12.636,-28.428 -13.016,0.481 -18.951,6.317 -18.951,6.317 0,0 8.682,1.705 10.557,7.941 3.561,11.823 2.247,31.77 -16.876,29.963 -19.193,-1.813 -9.818,-27.166 -3.771,-40.021 2.089,-4.42 1.576,-7.488 -1.713,-7.148 z"
             id="path4214"
             inkscape:connector-curvature="0"
             style="fill:#7487bf" /><path
             d="m 109.271,438.143 c -1.574,-31.197 41.515,-45.195 56.858,-46.379 15.353,-1.194 31.588,2.155 31.588,2.155 0,0 -2.367,30.796 -9.477,31.588 -7.099,0.792 -5.525,-23.296 -18.953,-22.111 -24.588,2.166 -34.455,28.97 -34.747,37.904 -0.129,4.321 1.194,23.685 18.953,22.111 17.769,-1.586 21.72,-11.061 25.27,-12.636 3.559,-1.585 10.368,-4.703 9.476,3.159 -1.965,17.367 -34.746,22.111 -34.746,22.111 0,0 -42.176,2.327 -44.222,-37.902 z"
             id="path4216"
             inkscape:connector-curvature="0"
             style="fill:#019ee3" /><path
             d="m 399.876,472.888 c -15.004,0.792 -6.711,-17.378 -3.159,-28.429 3.559,-11.062 2.907,-23.184 15.793,-22.11 14.249,1.174 3.158,18.952 3.158,18.952 0,0 21.641,-23.735 41.063,-22.11 4.743,0.39 -9.477,31.586 -9.477,31.586 0,0 -3.551,-11.451 -12.634,-9.475 -26.112,5.675 -19.735,30.794 -34.744,31.586 z"
             id="path4218"
             inkscape:connector-curvature="0"
             style="fill:#da72a3" /></g></g></g></g></svg>