<?xml version="1.0" encoding="UTF-8" standalone="no"?>
<!-- Generator: Adobe Illustrator 16.0.3, SVG Export Plug-In . SVG Version: 6.00 Build 0)  -->

<svg
   xmlns:dc="http://purl.org/dc/elements/1.1/"
   xmlns:cc="http://creativecommons.org/ns#"
   xmlns:rdf="http://www.w3.org/1999/02/22-rdf-syntax-ns#"
   xmlns:svg="http://www.w3.org/2000/svg"
   xmlns="http://www.w3.org/2000/svg"
   xmlns:sodipodi="http://sodipodi.sourceforge.net/DTD/sodipodi-0.dtd"
   xmlns:inkscape="http://www.inkscape.org/namespaces/inkscape"
   version="1.1"
   id="Ebene_1"
   x="0px"
   y="0px"
   width="566.929px"
   height="178.654px"
   viewBox="0 0 566.929 178.654"
   enable-background="new 0 0 566.929 178.654"
   xml:space="preserve"
   inkscape:version="0.91 r13725"
   sodipodi:docname="logo.svg"><metadata
     id="metadata26"><rdf:RDF><cc:Work
         rdf:about=""><dc:format>image/svg+xml</dc:format><dc:type
           rdf:resource="http://purl.org/dc/dcmitype/StillImage" /></cc:Work></rdf:RDF></metadata><defs
     id="defs24"><linearGradient
       gradientTransform="translate(-0.0947,-757.002)"
       y2="846.3237"
       x2="561.1177"
       y1="846.3237"
       x1="7.4766"
       gradientUnits="userSpaceOnUse"
       id="SVGID_1_"><stop
         id="stop8"
         style="stop-color:#f082b0;stop-opacity:1"
         offset="0" /><stop
         id="stop10"
         style="stop-color:#ef4b40;stop-opacity:1"
         offset="0.16" /><stop
         id="stop12"
         style="stop-color:#ee583c;stop-opacity:1"
         offset="0.2564" /><stop
         id="stop14"
         style="stop-color:#fce743;stop-opacity:1"
         offset="0.5894" /><stop
         offset="0.7463606"
         style="stop-color:#a3e055;stop-opacity:1"
         id="stop4185" /><stop
         id="stop16"
         style="stop-color:#a3e0a0;stop-opacity:1"
         offset="0.85840976" /><stop
         id="stop18"
         style="stop-color:#75ddf2;stop-opacity:1"
         offset="1" /></linearGradient></defs><sodipodi:namedview
     pagecolor="#ffffff"
     bordercolor="#666666"
     borderopacity="1"
     objecttolerance="10"
     gridtolerance="10"
     guidetolerance="10"
     inkscape:pageopacity="0"
     inkscape:pageshadow="2"
     inkscape:window-width="1680"
     inkscape:window-height="975"
     id="namedview22"
     showgrid="false"
     inkscape:zoom="0.84564096"
     inkscape:cx="401.20693"
     inkscape:cy="-107.9266"
     inkscape:window-x="1671"
     inkscape:window-y="-9"
     inkscape:window-maximized="1"
     inkscape:current-layer="Ebene_1" /><g
     id="g4187"><path
       d="M 95.964,11.469 C 99.685,7.854 104.652,0 124.966,0 l 49.43,0 c 9.841,0 21.039,3.675 24.176,9.759 C 198.798,6.797 198.24,0 205.216,0 l 28.052,0 c 3.352,0 6.644,2.539 6.644,5.905 l 0,45.649 c 0,5.963 3.164,5.33 6.762,5.284 l 21.289,0 0,-56.838 101.133,0 0,9.538 C 371.337,7.369 376.705,0 393.22,0 l 57.814,0 c 3.287,0 5.02,4.941 5.166,7.323 l 0,3.691 C 460.63,6.376 468.935,0 483.957,0 l 49.99,0 c 20.113,0 32.982,14.024 32.982,28.671 l 0,35.445 c 0,15.198 -14.047,29.634 -33.492,29.634 l -4.895,0 c 9.057,9.81 8.836,15.385 9.596,21.406 l 0,56.84 c 0,3.149 -3.695,6.646 -6.643,6.646 l -28.789,0 c -4.158,0 -6.627,-4.529 -6.646,-6.646 l 0,-41.338 c 0,-5.603 -5.15,-8.851 -9.598,-8.858 l -22.882,0 0,50.196 c 0,4.563 -5.359,6.646 -7.383,6.646 l -28.051,0 c -2.604,0 -6.961,0.737 -6.645,-9.479 -2.213,3.174 -10.406,8.861 -23.73,9.479 l -51.801,0 c -15.088,0 -19.973,-6.697 -24.125,-10.218 0,10.853 -0.727,10.218 -7.381,10.218 l -28.051,0 c -4.831,0 -5.909,-4.781 -5.909,-7.382 -2.779,3.343 -10.433,7.396 -16.24,7.382 l -108.507,0 c -4.802,0 -6.613,-3.263 -6.644,-7.382 l 0,-58.317 -41.338,65.699 -32.48,0 -51.672,-85.63 C 9.293,90.175 0,77.85 0,58.5 L 0,30.09 C 0,17.225 8.884,0.001 33.155,0.001 l 57.642,0 c 3.38,0 5.167,4.025 5.167,5.563 l 0,5.905 0,0 z m 20.953,81.432 C 105.109,91.36 100.056,84.997 95.964,79.164 l 0,9.417 c -0.091,3.648 -1.623,5.169 -5.167,5.169 l -19.193,0 19.931,36.909 25.382,-37.758 z"
       id="path5"
       inkscape:connector-curvature="0" /><path
       d="m 279.773,91.536 0,22.885 -64.96,0 c -7.426,0 -7.01,7.381 0,7.381 0,0 28.543,0 42.814,0 33.358,0 33.348,49.458 0,49.458 -22.392,0 -67.174,0 -67.174,0 l 0,-22.145 c 0,0 42.814,0 64.221,0 7.687,0 7.166,-7.382 0,-7.382 -13.287,0 -39.861,0 -39.861,0 -34.278,0 -34.157,-50.197 0,-50.197 21.653,0 64.96,0 64.96,0 z m 149.115,0 76.033,0 c 13.646,0 25.805,10.596 25.836,25.1 l 0,54.625 -27.313,0 0,-47.242 c 0,-7.886 -4.689,-9.484 -10.336,-9.597 l -36.908,0 0,56.839 -27.314,0 0,-79.725 0.002,0 z m -71.603,22.234 c -7.258,0.043 -10.336,4.6 -10.336,10.246 l 0,14.764 c 0,6.133 5.273,10.334 10.336,10.334 l 30.266,0 c 3.59,0 9.598,-2.43 9.598,-10.334 l 0,-14.764 c 0,-4.968 -3.021,-10.463 -9.598,-10.427 l -30.266,0.181 z m -10.336,-22.234 50.936,0 c 16.17,0 26.574,11.012 26.574,24.359 l 0,29.525 c 0,20.938 -18.09,25.838 -26.574,25.838 l -50.936,0 c -19.133,0 -27.313,-15.396 -27.313,-25.838 l 0,-29.525 c 0,-17.002 15.215,-24.359 27.313,-24.359 z m -59.793,0 27.313,0 0,79.724 -27.313,0 0,-79.724 z m -131.399,0 27.313,0 0,79.724 -27.313,0 0,-79.724 z m -124.016,0 30.266,0 29.527,51.673 34.695,-51.673 25.099,0 -47.244,79.726 -24.815,0 -47.528,-79.726 z m 243.604,-84.154 86.367,0 0,19.932 -59.793,0 0,7.382 59.793,0 0,19.932 -59.793,0 c 0,7.327 5.384,10.334 11.072,10.334 l 48.721,0 0,21.407 -62.746,0 c -14.059,0 -23.724,-11.67 -23.691,-24.359 l 0.07,-54.628 z m -69.391,0 26.575,0 0,47.244 c 0,6.786 5.115,10.404 11.073,10.334 l 28.79,0 0,21.407 -41.339,0 c -11.737,0 -25.098,-5.275 -25.098,-24.359 l -0.001,-54.626 0,0 z m 245.081,-10e-4 -59.795,0 c -17.203,0 -24.32,15.824 -24.359,24.359 l 0,29.527 c 0,19.149 15.754,25.948 24.359,25.837 l 59.795,0 0,-22.145 -45.77,0 c -3.258,0 -11.072,-2.411 -11.072,-9.597 l 0,-15.501 c 0,-7.384 5.559,-10.335 11.072,-10.335 l 45.77,0 0,-22.145 0,0 z m 42.814,22.235 c -7.258,0.042 -10.336,4.6 -10.336,10.245 l 0,14.765 c 0,6.133 5.273,10.334 10.336,10.334 l 30.266,0 c 3.59,0 9.598,-2.431 9.598,-10.334 l 0,-14.763 c 0,-4.965 -3.025,-10.463 -9.598,-10.424 l -30.266,0.177 z m -10.336,-22.234 50.938,0 c 16.166,0 26.572,11.012 26.572,24.359 l 0,29.527 c 0,20.938 -18.09,25.837 -26.572,25.837 l -50.938,0 C 464.382,87.105 456.2,71.71 456.2,61.268 l 0,-29.527 C 456.201,14.74 471.416,7.382 483.513,7.382 l 0,0 z M 133.611,29.616 c -7.257,0.043 -10.334,4.6 -10.334,10.246 l 0,14.765 c 0,6.133 5.273,10.334 10.334,10.334 l 30.266,0 c 3.588,0 9.596,-2.431 9.596,-10.334 l 0,-14.764 c 0,-4.965 -3.025,-10.463 -9.596,-10.424 l -30.266,0.177 z m -10.334,-22.234 50.935,0 c 16.167,0 26.576,11.012 26.576,24.359 l 0,29.527 c 0,20.938 -18.091,25.837 -26.576,25.837 l -50.935,0 c -19.132,0 -26.575,-15.395 -26.575,-25.837 l 0,-29.527 c 0,-17.001 14.477,-24.359 26.575,-24.359 z m -31.742,0 -59.793,0 c -17.204,0 -24.321,15.824 -24.36,24.359 l 0,29.527 c 0,19.149 15.753,25.948 24.36,25.837 l 59.793,0 0,-22.144 -46.506,0 c -3.256,0 -11.073,-2.412 -11.073,-9.597 l 0,-15.501 c 0,-7.384 5.559,-10.335 11.073,-10.335 l 46.506,0 0,-22.146 z"
       id="path20"
       style="fill:url(#SVGID_1_)"
       inkscape:connector-curvature="0" /></g></svg>