<?xml version="1.0" encoding="UTF-8" standalone="no"?>
<!-- Generator: Adobe Illustrator 16.0.3, SVG Export Plug-In . SVG Version: 6.00 Build 0)  -->

<svg
   xmlns:dc="http://purl.org/dc/elements/1.1/"
   xmlns:cc="http://creativecommons.org/ns#"
   xmlns:rdf="http://www.w3.org/1999/02/22-rdf-syntax-ns#"
   xmlns:svg="http://www.w3.org/2000/svg"
   xmlns="http://www.w3.org/2000/svg"
   xmlns:xlink="http://www.w3.org/1999/xlink"
   xmlns:sodipodi="http://sodipodi.sourceforge.net/DTD/sodipodi-0.dtd"
   xmlns:inkscape="http://www.inkscape.org/namespaces/inkscape"
   version="1.1"
   id="Ebene_1"
   x="0px"
   y="0px"
   width="1095.3893"
   height="106.77872"
   viewBox="0 0 1095.3893 106.77872"
   enable-background="new 0 0 566.929 178.654"
   xml:space="preserve"
   inkscape:version="0.91 r13725"
   sodipodi:docname="logoconsole.svg"><metadata
     id="metadata26"><rdf:RDF><cc:Work
         rdf:about=""><dc:format>image/svg+xml</dc:format><dc:type
           rdf:resource="http://purl.org/dc/dcmitype/StillImage" /><dc:title /></cc:Work></rdf:RDF></metadata><defs
     id="defs24"><marker
       inkscape:stockid="Arrow1Lstart"
       orient="auto"
       refY="0"
       refX="0"
       id="Arrow1Lstart"
       style="overflow:visible"
       inkscape:isstock="true"><path
         id="path4748"
         d="M 0,0 5,-5 -12.5,0 5,5 0,0 Z"
         style="fill:#000000;fill-opacity:1;fill-rule:evenodd;stroke:#000000;stroke-width:1pt;stroke-opacity:1"
         transform="matrix(0.8,0,0,0.8,10,0)"
         inkscape:connector-curvature="0" /></marker><linearGradient
       id="linearGradient4799"
       gradientUnits="userSpaceOnUse"
       x1="7.4766002"
       y1="846.32373"
       x2="561.11768"
       y2="846.32373"
       gradientTransform="translate(-0.0947,-757.002)"><stop
         offset="0"
         style="stop-color:#f082b0;stop-opacity:1"
         id="stop4801" /><stop
         offset="0.10716558"
         style="stop-color:#ef4b40;stop-opacity:1"
         id="stop4803" /><stop
         offset="0.26791394"
         style="stop-color:#ee583c;stop-opacity:1"
         id="stop4805" /><stop
         id="stop4815"
         style="stop-color:#f8c341;stop-opacity:1;"
         offset="0.50313818" /><stop
         offset="0.60888314"
         style="stop-color:#fce743;stop-opacity:1"
         id="stop4807" /><stop
         id="stop4809"
         style="stop-color:#a3e055;stop-opacity:1"
         offset="0.6970039" /><stop
         offset="0.87880152"
         style="stop-color:#a3e0a0;stop-opacity:1"
         id="stop4811" /><stop
         offset="1"
         style="stop-color:#75ddf2;stop-opacity:1"
         id="stop4813" /></linearGradient><linearGradient
       gradientTransform="translate(-0.0947,-757.002)"
       y2="846.32373"
       x2="561.11768"
       y1="846.32373"
       x1="7.4766002"
       gradientUnits="userSpaceOnUse"
       id="SVGID_1_"><stop
         id="stop8"
         style="stop-color:#f082b0;stop-opacity:1"
         offset="0" /><stop
         id="stop10"
         style="stop-color:#ef4b40;stop-opacity:1"
         offset="0.16" /><stop
         id="stop12"
         style="stop-color:#ee583c;stop-opacity:1"
         offset="0.2564" /><stop
         id="stop14"
         style="stop-color:#fce743;stop-opacity:1"
         offset="0.5894" /><stop
         offset="0.7463606"
         style="stop-color:#a3e055;stop-opacity:1"
         id="stop4185" /><stop
         id="stop16"
         style="stop-color:#a3e0a0;stop-opacity:1"
         offset="0.85840976" /><stop
         id="stop18"
         style="stop-color:#75ddf2;stop-opacity:1"
         offset="1" /></linearGradient><linearGradient
       inkscape:collect="always"
       xlink:href="#SVGID_1_"
       id="linearGradient4789"
       x1="0"
       y1="40.38765"
       x2="566.92902"
       y2="40.38765"
       gradientUnits="userSpaceOnUse"
       gradientTransform="translate(0,13.028723)" /><linearGradient
       inkscape:collect="always"
       xlink:href="#linearGradient4799"
       id="linearGradient4797"
       x1="1094.277"
       y1="40.34193"
       x2="556.10919"
       y2="40.34193"
       gradientUnits="userSpaceOnUse"
       gradientTransform="translate(0,13.028723)" /></defs><sodipodi:namedview
     pagecolor="#ffffff"
     bordercolor="#666666"
     borderopacity="1"
     objecttolerance="10"
     gridtolerance="10"
     guidetolerance="10"
     inkscape:pageopacity="0"
     inkscape:pageshadow="2"
     inkscape:window-width="1680"
     inkscape:window-height="975"
     id="namedview22"
     showgrid="false"
     inkscape:zoom="1.2910644"
     inkscape:cx="790.2407"
     inkscape:cy="-9.2516963"
     inkscape:window-x="1671"
     inkscape:window-y="-9"
     inkscape:window-maximized="1"
     inkscape:current-layer="Ebene_1"
     showguides="true"
     inkscape:guide-bbox="true"
     fit-margin-top="0"
     fit-margin-left="0"
     fit-margin-right="0"
     fit-margin-bottom="0"><sodipodi:guide
       position="649.17901,47.102642"
       orientation="1,0"
       id="guide4210" /><sodipodi:guide
       position="1160.0049,240.74975"
       orientation="0,1"
       id="guide4212" /><sodipodi:guide
       position="188.95404,168.1301"
       orientation="0,1"
       id="guide4779" /><sodipodi:guide
       position="170.88018,179.08396"
       orientation="0,1"
       id="guide4781" /><sodipodi:guide
       position="1368.4445,51.701529"
       orientation="0,1"
       id="guide5024" /></sodipodi:namedview><path
     inkscape:connector-curvature="0"
     id="path5"
     d="M 96.520711,17.748414 C 102.19901,13.795949 104.652,13.028723 124.966,13.028723 l 49.43,0 c 9.841,0 22.11889,0.637811 24.176,5.371949 1.71085,-4.581834 2.30023,-5.371949 6.644,-5.371949 l 28.052,0 c 3.352,0 6.644,2.539 6.644,5.905 l 0,45.649 c 0,5.963 3.164,5.33 6.762,5.284 l 21.289,0 0,-56.838 101.133,0 0.80992,3.868581 c 2.241,-2.169 6.79908,-3.868581 23.31408,-3.868581 l 57.814,0 c 3.0714,0.32031 5.166,2.864 5.166,5.479567 6.04983,-4.907972 12.735,-5.479567 27.757,-5.479567 l 49.99,0 c 20.113,0 32.982,14.024 32.982,28.671 l 0,35.445 c 0,15.198 -14.047,29.633997 -33.492,29.633997 -169.93801,-0.23291 -339.87601,-0.48961 -509.814,-0.738 C 9.293,103.20372 0,90.878723 0,71.528723 L 0,30.314366 C 0,17.449366 8.884001,0.078216 33.155,0.071327 l 60.315688,-0.01712 c 3.617603,-0.0193 3.33924,1.454674 3.242114,6.908288 z"
     sodipodi:nodetypes="csscsssscccccsccssssccssscsc"
     style="fill:url(#linearGradient4789);fill-opacity:1" /><path
     style="fill:#000000;fill-opacity:1;marker-start:"
     d="M 31.742188 7.1835938 C 14.538187 7.1835938 7.3828125 23.005927 7.3828125 31.541016 L 7.3828125 74.296875 C 7.3828125 93.445875 23.135187 100.24381 31.742188 100.13281 L 91.535156 100.13281 L 91.535156 77.990234 L 45.029297 77.990234 C 41.773297 77.990234 33.955078 75.577578 33.955078 68.392578 L 33.955078 39.664062 C 33.955078 32.280062 39.515297 29.328125 45.029297 29.328125 L 91.535156 29.328125 L 91.535156 7.1835938 L 31.742188 7.1835938 z M 123.27734 20.410156 C 111.17934 20.410156 96.701172 27.768531 96.701172 44.769531 L 96.701172 74.296875 C 96.701172 84.738875 104.14534 100.13281 123.27734 100.13281 L 174.21289 100.13281 C 182.69789 100.13281 200.78711 95.234875 200.78711 74.296875 L 200.78711 44.769531 C 200.78711 31.422531 190.37989 20.410156 174.21289 20.410156 L 123.27734 20.410156 z M 205.95312 20.410156 L 205.95508 75.037109 C 205.95508 94.121109 219.31573 99.396484 231.05273 99.396484 L 272.39258 99.396484 L 272.39258 77.988281 L 243.60156 77.988281 C 237.64356 78.058281 232.5293 74.440297 232.5293 67.654297 L 232.5293 20.410156 L 205.95312 20.410156 z M 275.3457 20.410156 L 275.27539 75.039062 C 275.24239 87.728062 284.9078 99.398438 298.9668 99.398438 L 361.71289 99.398438 L 361.71289 77.990234 L 312.99023 77.990234 C 307.30223 77.990234 301.91992 74.98325 301.91992 67.65625 L 361.71289 67.65625 L 361.71289 47.724609 L 301.91992 47.724609 L 301.91992 40.341797 L 361.71289 40.341797 L 361.71289 20.410156 L 275.3457 20.410156 z M 391.24023 20.410156 C 374.03723 20.410156 366.91986 36.234531 366.88086 44.769531 L 366.88086 74.294922 C 366.88086 93.443922 382.63523 100.24381 391.24023 100.13281 L 451.03516 100.13281 L 451.03516 77.988281 L 405.26562 77.988281 C 402.00763 77.988281 394.19336 75.576625 394.19336 68.390625 L 394.19336 52.890625 C 394.19336 45.506625 399.75262 42.554687 405.26562 42.554688 L 451.03516 42.554688 L 451.03516 20.410156 L 391.24023 20.410156 z M 483.51367 20.410156 C 471.41667 20.410156 456.20022 27.768531 456.19922 44.769531 L 456.19922 74.296875 C 456.19922 84.738875 464.38267 100.13281 483.51367 100.13281 L 534.45117 100.13281 C 542.93317 100.13281 561.02344 95.234875 561.02344 74.296875 L 561.02344 44.769531 C 561.02344 31.422531 550.61717 20.410156 534.45117 20.410156 L 483.51367 20.410156 z M 163.87695 42.466797 C 170.44795 42.427797 173.47266 47.927578 173.47266 52.892578 L 173.47266 67.65625 C 173.47266 75.55925 167.46495 77.990234 163.87695 77.990234 L 133.61133 77.990234 C 128.55033 77.990234 123.27734 73.78925 123.27734 67.65625 L 123.27734 52.890625 C 123.27734 47.244625 126.35433 42.687531 133.61133 42.644531 L 163.87695 42.466797 z M 524.11523 42.466797 C 530.68823 42.427797 533.71289 47.927578 533.71289 52.892578 L 533.71289 67.654297 C 533.71289 75.557297 527.70523 77.988281 524.11523 77.988281 L 493.84961 77.988281 C 488.78661 77.988281 483.51367 73.787297 483.51367 67.654297 L 483.51367 52.890625 C 483.51367 47.245625 486.59161 42.686531 493.84961 42.644531 L 524.11523 42.466797 z "
     id="path20" /><path
     d="m 718.59028,13.156899 c 0,0 342.70122,-0.01463 347.89212,-0.01463 2.8826,0.284108 1.8233,0.15413 7.418,1.41152 11.1333,4.703502 11.8929,7.225824 11.8929,7.225824 9.057,9.81001 8.836,15.38501 9.596,21.40601 l 0,56.839997 c 0,3.149 -3.695,6.64601 -6.643,6.64601 l -28.7889,0 c -4.158,0 -6.627,-4.52901 -6.646,-6.64601 l 0,-41.337997 c 0,-5.603 -5.15,-8.851 -9.598,-8.858 l -22.882,0 0,50.195997 c 0,4.56301 -5.359,6.64601 -7.383,6.64601 l -28.05101,0 c -2.604,0 -5.80957,0.40635 -7.14626,-3.54743 -5.47119,3.42463 -9.90474,2.92943 -23.22874,3.54743 l -51.801,0 c -15.088,0 -20.49556,0.77313 -22.97669,-2.83141 -2.56854,2.52164 -1.87531,2.83141 -8.52931,2.83141 l -28.051,0 c -4.831,0 -5.19991,-1.36577 -5.909,-2.48041 -2.54977,1.95555 -10.433,2.49441 -16.24,2.48041 l -108.50702,0 c -4.802,0 -6.613,-3.26301 -6.644,-7.382007 l 0,-64.861465 -41.338,72.243472 -32.48,0 L 576.15955,0.15761 C 589.64794,0.1155 623.16043,0.046156 623.16043,0.046156 L 649.17904,56.68666 683.01848,0 c 0,0 20.19386,0.02929 42.98147,0.16021 z"
     id="path4204"
     inkscape:connector-curvature="0"
     sodipodi:nodetypes="cccccssscsccsssccscssccscccccccccc"
     style="fill:url(#linearGradient4797);fill-opacity:1" /><path
     style="fill:#000000;fill-opacity:1"
     d="M 586.29297 7.1835938 L 636.95117 100.05664 L 661.76758 100.05664 L 714.01953 7.1835938 L 688.92188 7.1835938 L 649.2168 72.003906 L 616.56055 7.1835938 L 586.29297 7.1835938 z M 713.43945 20.332031 L 713.43945 100.05469 L 740.75391 100.05469 L 740.75391 20.332031 L 713.43945 20.332031 z M 772.49609 20.332031 C 738.33909 20.332031 738.21809 70.527344 772.49609 70.527344 L 812.35742 70.527344 C 819.52342 70.527344 820.04442 77.910156 812.35742 77.910156 L 748.13672 77.910156 L 748.13672 100.05469 L 815.31055 100.05469 C 848.65855 100.05469 848.66855 50.597656 815.31055 50.597656 L 772.49609 50.597656 C 765.48609 50.597656 765.07009 43.216797 772.49609 43.216797 L 837.45703 43.216797 L 837.45703 20.332031 L 772.49609 20.332031 z M 844.83984 20.332031 L 844.83984 100.05469 L 872.15234 100.05469 L 872.15234 20.332031 L 844.83984 20.332031 z M 904.63281 20.332031 C 892.53481 20.332031 877.31836 27.687453 877.31836 44.689453 L 877.31836 74.214844 C 877.31836 84.656844 885.49981 100.05273 904.63281 100.05273 L 955.56836 100.05273 C 964.05236 100.05273 982.14258 95.152844 982.14258 74.214844 L 982.14258 44.689453 C 982.14258 31.342453 971.73836 20.332031 955.56836 20.332031 L 904.63281 20.332031 z M 986.56836 20.332031 L 986.56836 100.05664 L 1013.8828 100.05664 L 1013.8828 43.216797 L 1050.791 43.216797 C 1056.438 43.329797 1061.127 44.928453 1061.127 52.814453 L 1061.127 100.05664 L 1088.4395 100.05664 L 1088.4395 45.431641 C 1088.4085 30.927641 1076.2495 20.332031 1062.6035 20.332031 L 986.57031 20.332031 L 986.56836 20.332031 z M 945.23438 42.384766 C 951.81137 42.348766 954.83203 47.842547 954.83203 52.810547 L 954.83203 67.574219 C 954.83203 75.478219 948.82438 77.908203 945.23438 77.908203 L 914.96875 77.908203 C 909.90575 77.908203 904.63281 73.707219 904.63281 67.574219 L 904.63281 52.810547 C 904.63281 47.164547 907.71075 42.607453 914.96875 42.564453 L 945.23438 42.384766 z "
     id="path4206" /></svg>