<?xml version="1.0" encoding="UTF-8" standalone="no"?>
<!-- Created with Inkscape (http://www.inkscape.org/) -->

<svg
   xmlns:dc="http://purl.org/dc/elements/1.1/"
   xmlns:cc="http://creativecommons.org/ns#"
   xmlns:rdf="http://www.w3.org/1999/02/22-rdf-syntax-ns#"
   xmlns:svg="http://www.w3.org/2000/svg"
   xmlns="http://www.w3.org/2000/svg"
   xmlns:sodipodi="http://sodipodi.sourceforge.net/DTD/sodipodi-0.dtd"
   xmlns:inkscape="http://www.inkscape.org/namespaces/inkscape"
   version="1.0"
   width="874.59973"
   height="418.01901"
   id="svg1354"
   inkscape:version="0.91 r13725"
   sodipodi:docname="logo.svg">
  <metadata
     id="metadata8503">
    <rdf:RDF>
      <cc:Work
         rdf:about="">
        <dc:format>image/svg+xml</dc:format>
        <dc:type
           rdf:resource="http://purl.org/dc/dcmitype/StillImage" />
        <dc:title></dc:title>
      </cc:Work>
    </rdf:RDF>
  </metadata>
  <sodipodi:namedview
     pagecolor="#ffffff"
     bordercolor="#666666"
     borderopacity="1"
     objecttolerance="10"
     gridtolerance="10"
     guidetolerance="10"
     inkscape:pageopacity="0"
     inkscape:pageshadow="2"
     inkscape:window-width="1680"
     inkscape:window-height="975"
     id="namedview8501"
     showgrid="false"
     fit-margin-top="0"
     fit-margin-left="0"
     fit-margin-right="0"
     fit-margin-bottom="0"
     inkscape:zoom="0.48426101"
     inkscape:cx="457.15404"
     inkscape:cy="229.36063"
     inkscape:window-x="1671"
     inkscape:window-y="-9"
     inkscape:window-maximized="1"
     inkscape:current-layer="svg1354" />
  <defs
     id="defs1357" />
  <path
     style="fill:#999999"
     d="M 651.31055 0.009765625 C 647.09856 0.084842768 642.9786 0.60340625 639.19141 1.5898438 C 615.44448 7.7751338 599.69067 31.541559 603.67578 55.167969 C 606.94686 74.561129 622.89518 91.050615 642.15625 94.953125 C 654.7251 97.499705 671.44829 94.248827 682.60156 87.091797 C 702.71702 74.183742 709.61107 46.279768 697.9707 24.892578 C 694.58127 18.665078 684.51841 9.0323613 677.89453 5.6757812 C 670.29081 1.8226875 660.57692 -0.15540409 651.31055 0.009765625 z M 822.30469 0.009765625 C 818.09355 0.085161872 813.97513 0.60430938 810.19141 1.5898438 C 791.87779 6.3599337 777.67593 21.937828 774.58594 40.648438 C 770.55761 65.040877 788.21325 89.899395 813.15625 94.953125 C 825.7251 97.499705 842.44829 94.248827 853.60156 87.091797 C 873.84007 74.104782 880.69656 45.600899 868.64844 24.542969 C 864.89698 17.986099 855.51683 9.0327025 848.86914 5.6640625 C 841.28241 1.8195763 831.56918 -0.15610612 822.30469 0.009765625 z M 283.60742 20.083984 C 277.31439 20.091574 271.01136 20.594446 267.19727 21.587891 C 252.71953 25.358861 240.52719 35.829042 233.55078 50.482422 C 228.37376 61.356322 221.40767 86.672943 180.38672 243.66602 L 163.11133 309.77734 L 126.76953 167.16602 C 106.78157 88.730283 90.115402 24.213162 89.732422 23.794922 C 89.349432 23.376682 69.002398 23.151682 44.517578 23.294922 L 0 23.556641 L 9.8652344 59.056641 C 75.659984 295.80128 94.432243 361.88475 99.626953 375.05664 C 107.37635 394.70625 125.09051 411.54536 143.26367 416.53516 C 150.23718 418.44986 168.47859 418.41496 176.01172 416.47266 C 196.90136 411.08666 212.74509 393.51045 221.45898 366.05664 C 225.49033 353.35555 238.46388 306.89425 263.0918 216.95703 C 274.29712 176.037 283.71753 143.23164 284.02539 144.05664 C 284.33326 144.88164 292.05445 173.00664 301.18359 206.55664 C 339.99386 349.18624 346.08798 370.18293 352.41016 383.05664 C 356.27725 390.93105 358.53598 394.0171 365.61523 401.0957 C 374.67904 410.1587 380.72226 413.79703 391.28711 416.54883 C 398.87343 418.52483 415.51056 418.50667 423.16211 416.51367 C 441.47967 411.74257 456.89977 397.86571 466.07617 377.89648 C 471.47841 366.1404 490.66056 299.4997 545.76367 101.05664 C 557.29421 59.531643 566.92424 24.994141 567.16211 24.306641 C 567.50395 23.318631 558.11601 23.0576 522.375 23.0625 L 477.15625 23.068359 L 440.65625 166.05859 C 417.93207 255.081 403.88308 308.38952 403.43164 307.30273 C 403.03283 306.34263 393.43251 270.00664 382.09766 226.55664 C 348.45038 97.576248 339.4405 64.406766 335.25391 54.103516 C 328.38853 37.207696 315.9177 25.704528 299.96289 21.548828 C 296.18397 20.564543 289.90046 20.076394 283.60742 20.083984 z M 611.65625 142.05664 L 611.65625 278.55664 L 611.65625 415.05664 L 654.15625 415.05664 L 696.65625 415.05664 L 696.65625 278.55664 L 696.65625 142.05664 L 654.15625 142.05664 L 611.65625 142.05664 z M 782.65625 142.05664 L 782.65625 278.55664 L 782.65625 415.05664 L 825.15625 415.05664 L 867.65625 415.05664 L 867.65625 278.55664 L 867.65625 142.05664 L 825.15625 142.05664 L 782.65625 142.05664 z "
     id="path1372" />
  <path
     d=""
     style="fill:#000000"
     id="path1363"
     inkscape:connector-curvature="0" />
</svg>
