<?xml version="1.0" encoding="UTF-8" standalone="no"?>
<!-- Created with Inkscape (http://www.inkscape.org/) -->

<svg
   xmlns:dc="http://purl.org/dc/elements/1.1/"
   xmlns:cc="http://creativecommons.org/ns#"
   xmlns:rdf="http://www.w3.org/1999/02/22-rdf-syntax-ns#"
   xmlns:svg="http://www.w3.org/2000/svg"
   xmlns="http://www.w3.org/2000/svg"
   xmlns:sodipodi="http://sodipodi.sourceforge.net/DTD/sodipodi-0.dtd"
   xmlns:inkscape="http://www.inkscape.org/namespaces/inkscape"
   width="152.91713mm"
   height="32.012066mm"
   viewBox="0 0 541.83235 113.42858"
   id="svg4151"
   version="1.1"
   inkscape:version="0.91 r13725"
   sodipodi:docname="logoconsole.svg">
  <defs
     id="defs4153" />
  <sodipodi:namedview
     id="base"
     pagecolor="#ffffff"
     bordercolor="#666666"
     borderopacity="1.0"
     inkscape:pageopacity="0.0"
     inkscape:pageshadow="2"
     inkscape:zoom="1.4163942"
     inkscape:cx="212.7325"
     inkscape:cy="41.401592"
     inkscape:document-units="px"
     inkscape:current-layer="layer1"
     showgrid="false"
     fit-margin-top="0"
     fit-margin-left="0"
     fit-margin-right="0"
     fit-margin-bottom="0"
     inkscape:window-width="1680"
     inkscape:window-height="975"
     inkscape:window-x="-9"
     inkscape:window-y="-9"
     inkscape:window-maximized="1" />
  <metadata
     id="metadata4156">
    <rdf:RDF>
      <cc:Work
         rdf:about="">
        <dc:format>image/svg+xml</dc:format>
        <dc:type
           rdf:resource="http://purl.org/dc/dcmitype/StillImage" />
        <dc:title />
      </cc:Work>
    </rdf:RDF>
  </metadata>
  <g
     inkscape:label="Layer 1"
     inkscape:groupmode="layer"
     id="layer1"
     transform="translate(-79.024803,-71.362198)">
    <path
       style="fill:#a5a9ac;fill-opacity:1"
       d="m 190.09122,165.51869 c -1.79111,-0.63325 -3.7436,-2.64666 -3.0146,-3.10862 0.2682,-0.16997 1.22075,-0.31152 2.11677,-0.31455 1.33927,-0.005 1.6925,0.13731 1.98545,0.79737 0.70313,1.58427 4.4051,1.71802 5.3665,0.19388 0.65927,-1.04516 -0.51562,-1.82838 -3.01376,-2.00908 -1.97314,-0.14272 -2.17688,-0.2338 -2.17688,-0.97316 0,-0.73914 0.20383,-0.83045 2.17132,-0.97277 2.73249,-0.19765 3.42278,-0.77014 2.16616,-1.79648 -1.04855,-0.8564 -3.49146,-0.72892 -4.18412,0.21835 -0.46967,0.64232 -2.90752,0.76564 -3.76329,0.19038 -0.45504,-0.30588 -0.36859,-0.50719 0.54148,-1.26086 1.398,-1.15775 3.05287,-1.60851 5.9145,-1.611 2.84093,-0.002 4.82186,0.56235 5.86447,1.67216 0.68324,0.72727 0.73552,0.9749 0.37362,1.76921 -0.23146,0.50797 -0.94866,1.15301 -1.5938,1.43341 -0.91475,0.3976 -1.00489,0.51294 -0.40942,0.52396 2.15183,0.0399 3.45961,2.79384 1.96779,4.14392 -1.74774,1.58168 -7.28444,2.17437 -10.31219,1.10388 z m 35.04442,0.0236 c -4.13078,-1.52304 -5.27119,-6.11706 -2.19006,-8.82233 1.61377,-1.4169 3.68393,-1.95527 6.84447,-1.77996 3.07931,0.1708 4.98232,1.02617 6.16928,2.77294 1.7649,2.59728 0.80371,5.85394 -2.18799,7.4133 -1.84203,0.96011 -6.54553,1.18672 -8.6357,0.41605 z m 6.37949,-2.75937 c 0.86527,-1.05871 0.83367,-3.61256 -0.0584,-4.71415 -0.89526,-1.1056 -3.54029,-1.20221 -4.67983,-0.17092 -1.61683,1.46319 -1.2414,4.53953 0.67702,5.54774 1.20639,0.63401 3.27761,0.29605 4.06117,-0.66267 z m 114.07329,2.82776 c -4.19712,-1.34635 -5.54279,-6.12396 -2.47455,-8.7855 1.65831,-1.43848 3.45797,-1.95697 6.75851,-1.94716 3.05962,0.009 5.16599,0.78057 6.3941,2.34186 1.30454,1.65844 1.06335,1.98212 -1.47698,1.98212 -1.99835,0 -2.30223,-0.0943 -2.6172,-0.81223 -0.22289,-0.50805 -0.85205,-0.93471 -1.6799,-1.13927 -2.6958,-0.66612 -4.60846,1.1813 -4.14971,4.00818 0.2768,1.70577 0.8876,2.2857 2.65739,2.52307 1.46225,0.19613 3.71835,-0.61696 3.71835,-1.34008 0,-0.19345 0.97468,-0.35172 2.16596,-0.35172 1.33458,0 2.16596,0.15241 2.16596,0.39709 0,0.77951 -2.40514,2.78432 -3.80737,3.17362 -1.7546,0.48713 -6.06796,0.45898 -7.65456,-0.05 z m 106.02949,-0.36205 c -2.17383,-1.09703 -2.50278,-1.92527 -2.5091,-6.31737 l -0.006,-3.70018 2.52694,0 2.52695,0 0,3.98225 c 0,4.55239 -0.0382,4.49833 3.18779,4.50006 2.66877,0.002 2.94908,-0.46827 2.94908,-4.94137 l 0,-3.54094 1.80497,0 1.80496,0 0,4.16783 c 0,3.90452 -0.0541,4.22192 -0.85637,5.02419 -1.16795,1.16794 -3.08516,1.63336 -6.73823,1.63576 -2.48152,0.002 -3.39587,-0.15628 -4.69168,-0.81023 z m -247.26748,-4.78315 0,-5.2344 4.44689,0 c 5.65274,0 7.60638,0.53235 9.45245,2.57574 1.21052,1.33988 1.32534,1.63724 1.14933,2.97612 -0.15177,1.15456 -0.52403,1.78077 -1.66312,2.79772 -1.90501,1.70072 -3.68879,2.11921 -9.033,2.11921 l -4.35255,0 0,-5.23439 z m 8.0355,2.68752 c 2.5007,-0.69447 3.20806,-3.35006 1.27503,-4.78684 -0.59847,-0.44483 -1.75375,-0.79109 -2.97818,-0.89264 l -2.00043,-0.16589 0,3.11315 0,3.11313 1.17322,-0.002 c 0.64528,-7.6e-4 1.78394,-0.17161 2.53036,-0.3789 z m 41.0595,-2.68752 0,-5.2344 2.16596,0 2.16596,0 0,5.2344 0,5.23439 -2.16596,0 -2.16596,0 0,-5.23439 z m 7.94185,0 0,-5.2344 2.42916,0 2.42916,0 2.98573,2.97023 2.98573,2.97021 0,-2.97021 0,-2.97023 1.62447,0 1.62446,0 0,5.2344 0,5.23439 -1.88875,0 -1.88875,0 -3.4359,-3.42461 -3.43588,-3.42461 0.11501,3.42461 0.11502,3.42461 -1.82973,0 -1.82973,0 0,-5.23439 z m 20.21559,1.08298 0,-4.15142 -2.16596,0 c -2.16596,0 -2.16596,0 -2.16596,-1.08298 l 0,-1.08298 6.67837,0 6.67837,0 0,1.08298 c 0,1.08298 0,1.08298 -2.16596,1.08298 l -2.16595,0 0,4.15142 0,4.15141 -2.34646,0 -2.34645,0 0,-4.15141 z m 10.82978,-1.08298 0,-5.2344 6.49787,0 6.49787,0 0,1.08298 0,1.08298 -4.33191,0 -4.33192,0 0,1.08298 0,1.08298 3.42944,0 3.42943,0 0,1.08298 0,1.08298 -3.42943,0 c -3.41741,0 -3.42944,0.003 -3.42944,0.90248 l 0,0.90247 4.33192,0 4.33191,0 0,1.08298 0,1.08298 -6.49787,0 -6.49787,0 0,-5.23439 z m 15.88368,0 0,-5.2344 5.57189,0 c 3.07073,0 6.02805,0.17285 6.58811,0.38505 1.45301,0.55052 2.6407,1.77394 2.6407,2.72012 0,0.83991 -1.52416,2.30973 -2.39514,2.30973 -0.76683,0 -0.60363,0.44966 0.95116,2.62093 0.79419,1.10907 1.44398,2.11019 1.44398,2.22472 0,0.11454 -1.03802,0.20824 -2.30671,0.20824 l -2.30671,0 -1.39346,-2.16279 c -1.34249,-2.08367 -1.4496,-2.16292 -2.92768,-2.16596 l -1.53423,-0.003 0,2.16594 0,2.16596 -2.16595,0 -2.16596,0 0,-5.23439 z m 9.18182,-1.25454 c 0.50929,-0.19363 0.92597,-0.59403 0.92597,-0.88979 0,-0.84918 -1.21646,-1.2851 -3.58619,-1.2851 l -2.18969,0 0,1.26347 0,1.26348 1.96196,0 c 1.07907,0 2.37866,-0.15842 2.88795,-0.35206 z m 7.46384,5.67671 c 0.23452,-0.44674 1.55316,-2.80906 2.93031,-5.24962 l 2.50391,-4.43738 2.58079,0.10547 2.5808,0.10546 1.37861,2.52695 c 0.75825,1.38983 2.02444,3.70469 2.81377,5.14414 l 1.43515,2.6172 -2.33537,0 c -2.21205,0 -2.36917,-0.0572 -2.97511,-1.08298 -0.62418,-1.05664 -0.70846,-1.08298 -3.46663,-1.08298 -2.76207,0 -2.841,0.0248 -3.44185,1.0807 -0.56094,0.98579 -0.78251,1.08091 -2.52286,1.08298 -1.8645,0.002 -1.89821,-0.0161 -1.48152,-0.80994 z m 8.54721,-4.78316 c -0.43408,-0.89346 -0.91601,-1.62447 -1.07095,-1.62447 -0.25784,0 -1.74038,2.60159 -1.74038,3.05406 0,0.10718 0.81012,0.19488 1.80027,0.19488 l 1.80029,0 -0.78923,-1.62447 z m 28.59504,1.44397 0,-4.15142 -2.16596,0 c -2.16596,0 -2.16596,0 -2.16596,-1.08298 l 0,-1.08298 6.67838,0 6.67836,0 0,1.08298 c 0,1.08298 0,1.08298 -2.16596,1.08298 l -2.16596,0 0,4.15142 0,4.15141 -2.34644,0 -2.34646,0 0,-4.15141 z m 10.82979,-1.08298 0,-5.2344 2.16594,0 2.16596,0 0,5.2344 0,5.23439 -2.16596,0 -2.16594,0 0,-5.23439 z m 8.97597,-0.003 -2.75628,-5.23114 2.3953,0.009 2.39527,0.009 1.74779,3.69103 1.74777,3.69104 1.85405,-3.70018 1.85406,-3.70018 1.93761,0 1.93761,0 -0.88646,1.53422 c -0.48757,0.84382 -1.73642,3.1993 -2.77523,5.23439 l -1.88875,3.70018 -2.40323,-0.003 -2.40322,-0.003 -2.75629,-5.23123 z m 14.48856,0.003 0,-5.2344 6.49786,0 6.49787,0 0,1.08298 0,1.08298 -4.33192,0 -4.33191,0 0,1.08298 0,1.08298 3.42944,0 3.42942,0 0,1.08298 0,1.08298 -3.42942,0 c -3.4174,0 -3.42944,0.003 -3.42944,0.90248 l 0,0.90247 4.33191,0 4.33192,0 0,1.08298 0,1.08298 -6.49787,0 -6.49786,0 0,-5.23439 z m 29.2404,0 0,-5.2344 3.33917,0.005 3.33919,0.005 1.60069,3.07539 1.60068,3.0754 1.64826,-3.07552 1.64824,-3.07554 3.33918,-0.004 3.33919,-0.004 0,5.2344 0,5.23439 -2.16596,0 -2.16596,0 -0.009,-4.06116 -0.009,-4.06116 -2.18239,4.06116 -2.18239,4.06116 -1.54765,0 -1.54765,0 -2.12687,-4.01677 -2.12691,-4.01677 -0.10206,4.01677 -0.10207,4.01677 -1.79315,0 -1.79314,0 0,-5.23439 z m 41.51416,0 0,-5.2344 2.16595,0 2.16596,0 0,4.15142 0,4.15141 3.60993,0 3.60993,0 0,1.08298 0,1.08298 -5.77588,0 -5.77589,0 0,-5.23439 z m 14.8007,1.08298 0,-4.15142 -2.16596,0 c -2.16595,0 -2.16595,0 -2.16595,-1.08298 l 0,-1.08298 6.67836,0 6.67837,0 0,1.08298 c 0,1.08298 0,1.08298 -2.16596,1.08298 l -2.16596,0 0,4.15142 0,4.15141 -2.34645,0 -2.34645,0 0,-4.15141 z m 11.19078,-1.08298 0,-5.2344 2.16595,0 2.16596,0 0,5.2344 0,5.23439 -2.16596,0 -2.16595,0 0,-5.23439 z m 7.94183,0 0,-5.2344 5.32465,0.008 c 4.48448,0.007 5.56769,0.11825 6.86497,0.70708 1.76035,0.79901 2.32166,1.85992 1.79037,3.38395 -0.55969,1.60553 -2.66546,2.38139 -6.48938,2.39098 l -3.15869,0.008 0,1.98546 0,1.98546 -2.16596,0 -2.16596,0 0,-5.2344 z m 8.82082,-0.89355 c 0.57827,-0.21984 0.92599,-0.62989 0.92599,-1.09191 0,-0.93628 -1.27748,-1.44397 -3.63343,-1.44397 l -1.78146,0 0,1.44397 0,1.44397 1.78146,0 c 0.97981,0 2.19815,-0.15843 2.70744,-0.35206 z m 7.78485,0.89355 0,-5.2344 2.16595,0 2.16596,0 0,4.15142 0,4.15141 3.60993,0 3.60993,0 0,1.08298 0,1.08298 -5.77588,0 -5.77589,0 0,-5.23439 z m 12.31376,4.42217 c 0.23451,-0.44674 1.55315,-2.80906 2.9303,-5.24962 l 2.50391,-4.43738 2.58079,0.10547 2.5808,0.10546 1.37861,2.52695 c 0.75823,1.38983 2.02445,3.70469 2.81376,5.14414 l 1.43516,2.6172 -2.33537,0 c -2.21204,0 -2.36917,-0.0572 -2.97512,-1.08298 -0.62417,-1.05664 -0.70845,-1.08298 -3.46663,-1.08298 -2.76206,0 -2.841,0.0248 -3.44185,1.0807 -0.56093,0.98579 -0.78251,1.08091 -2.52285,1.08298 -1.8645,0.002 -1.89822,-0.0161 -1.48151,-0.80994 z m 8.54719,-4.78316 c -0.43407,-0.89346 -0.916,-1.62447 -1.07095,-1.62447 -0.25784,0 -1.74036,2.60159 -1.74036,3.05406 0,0.10718 0.81012,0.19488 1.80026,0.19488 l 1.80028,0 -0.78923,-1.62447 z m 11.62839,3.45342 0,-2.14197 -2.92724,-3.09243 -2.92723,-3.09243 2.51684,0 2.51684,0 1.73501,1.85487 1.73504,1.85486 1.7694,-1.85486 c 1.70916,-1.79168 1.83685,-1.85487 3.74812,-1.85487 l 1.97867,0 -2.89895,2.9782 -2.89895,2.97819 -0.008,2.2562 -0.008,2.2562 -2.16596,0 -2.16595,0 0,-2.14196 z m 11.19078,-3.09243 0,-5.2344 6.49787,0 6.49786,0 0,1.08298 0,1.08298 -4.33191,0 -4.33191,0 0,1.08298 0,1.08298 3.42943,0 3.42943,0 0,1.08298 0,1.08298 -3.42943,0 c -3.4174,0 -3.42943,0.003 -3.42943,0.90248 l 0,0.90247 4.33191,0 4.33191,0 0,1.08298 0,1.08298 -6.49786,0 -6.49787,0 0,-5.23439 z m 15.52268,0 0,-5.2344 5.57189,0 c 3.07075,0 6.02808,0.17285 6.58812,0.38505 1.45299,0.55052 2.64069,1.77394 2.64069,2.72012 0,0.83991 -1.52418,2.30973 -2.39514,2.30973 -0.76682,0 -0.60362,0.44966 0.95118,2.62093 0.79418,1.10907 1.44396,2.11019 1.44396,2.22472 0,0.11454 -1.03803,0.20824 -2.3067,0.20824 l -2.30671,0 -1.39347,-2.16279 c -1.3425,-2.08367 -1.4496,-2.16292 -2.92769,-2.16596 l -1.53421,-0.003 0,2.16594 0,2.16596 -2.16596,0 -2.16596,0 0,-5.23439 z m 9.18181,-1.25454 c 0.5093,-0.19363 0.92599,-0.59403 0.92599,-0.88979 0,-0.84918 -1.21648,-1.2851 -3.58621,-1.2851 l -2.18967,0 0,1.26347 0,1.26348 1.96196,0 c 1.07908,0 2.37865,-0.15842 2.88793,-0.35206 z m -401.58088,-12.64336 0,-2.16627 205.06187,0 205.06187,0 -0.10826,2.0757 -0.10826,2.07571 -204.95361,0.0905 -204.95361,0.0905 0,-2.16628 z m 0.72198,-32.13684 0,-22.750721 29.51116,0.09842 29.51116,0.09842 1.93338,1.01816 c 2.59242,1.365211 4.82826,3.743792 6.26641,6.666439 1.16966,2.377032 1.18602,2.480052 1.18602,7.470632 0,4.73801 -0.0619,5.19226 -0.97042,7.13095 -1.23801,2.64155 -3.85768,5.26123 -6.61504,6.61504 -2.14166,1.05151 -2.23205,1.06283 -9.92269,1.24167 l -7.76135,0.1805 1.26347,0.76783 c 0.69492,0.42231 2.88795,1.62535 4.87341,2.67342 1.98546,1.04806 5.31562,2.91599 7.40036,4.15094 2.08473,1.23494 5.43235,3.15508 7.43916,4.26699 5.72001,3.16925 5.75747,3.12202 -2.47618,3.12202 -5.03829,0 -7.43572,-0.14055 -8.43728,-0.49461 -0.76951,-0.27205 -3.59214,-1.83836 -6.27251,-3.48073 -2.68037,-1.64235 -9.05404,-5.39622 -14.16371,-8.34192 -9.02107,-5.2006 -16.27149,-9.73005 -16.70942,-10.43863 -0.13671,-0.2212 6.7975,-0.34764 19.06569,-0.34764 13.45398,0 19.65137,-0.12416 20.50764,-0.41085 4.91952,-1.64712 6.51891,-7.50054 3.11022,-11.38283 -2.40491,-2.739042 -1.27836,-2.629222 -27.06236,-2.638102 l -23.01329,-0.008 0,18.771612 0,18.77163 -4.33191,0 -4.33192,0 0,-22.75072 z m 109.01981,0.009 0,-22.742538 35.37728,0 35.37729,0 0,4.331907 0,4.331911 -31.40637,0 -31.40637,0 0,14.43971 0,14.43971 31.40637,0 31.40637,0 0,3.97092 0,3.97093 -35.37729,0 -35.37728,0 0,-22.74255 z m 105.41632,18.921 c 2.08118,-2.10186 6.22067,-6.10386 9.19886,-8.89337 11.98547,-11.22607 22.64432,-21.34241 28.34685,-26.904043 3.95923,-3.861412 6.27745,-5.866125 6.78347,-5.866125 0.48598,0 2.99646,2.025091 6.82523,5.505589 3.33106,3.028079 11.66089,10.458239 18.51072,16.511469 14.34617,12.67777 25.3963,22.68023 25.57032,23.14598 0.0677,0.18146 -2.79626,0.32205 -6.56104,0.32205 l -6.68138,0 -4.44923,-4.24691 c -2.44708,-2.33579 -5.24641,-4.89433 -6.22076,-5.68563 l -1.77154,-1.43874 -20.01326,-0.18049 -20.01327,-0.1805 2.93481,-3.13659 c 4.6305,-4.94885 3.49876,-4.62408 16.12989,-4.62867 l 10.78718,-0.004 -7.21985,-7.19996 c -3.97094,-3.95997 -7.40885,-7.20715 -7.63981,-7.21592 -0.23098,-0.009 -2.34738,1.81154 -4.70313,4.04519 -2.35575,2.23364 -7.04017,6.49579 -10.40983,9.47145 -3.36966,2.97565 -9.21315,8.42761 -12.98552,12.11547 -3.77237,3.68785 -7.3275,7.0607 -7.90027,7.49521 -0.96813,0.73441 -1.4377,0.79002 -6.67192,0.79002 l -5.63051,0 3.78399,-3.82155 z m 124.89703,-18.921 0,-22.742538 4.3319,0 4.33191,0 0,18.771628 0,18.77161 31.04538,0 31.04537,0 0,3.97092 0,3.97093 -35.37729,0 -35.37727,0 0,-22.74255 z m -30.88166,5.68184 c -0.0993,-0.25887 -0.1362,-3.47071 -0.0819,-7.13742 l 0.0987,-6.66676 7.03935,0 7.03936,0 0,7.03936 0,7.03936 -6.95743,0.0981 c -5.457,0.077 -6.9964,-0.003 -7.13807,-0.37261 z m -184.99199,-6.04283 0,-4.33192 22.38155,0 22.38155,0 0,4.33192 0,4.33191 -22.38155,0 -22.38155,0 0,-4.33191 z"
       id="path4710"
       inkscape:connector-curvature="0" />
    <rect
       x="79.029755"
       y="158.48621"
       width="63.632908"
       height="26.20085"
       id="rect4140"
       style="fill:#a5a9ac;fill-opacity:1" />
    <path
       style="fill:#a5a9ac;fill-opacity:1"
       d="m 99.483592,150.34327 c 0,-1.10116 5.086178,-1.99362 11.362608,-1.99362 6.27643,0 11.36293,0.89246 11.36293,1.99362 0,1.10149 -5.08617,1.99362 -11.36293,1.99362 -6.27675,0 -11.362608,-0.89213 -11.362608,-1.99362 z"
       id="path4142"
       inkscape:connector-curvature="0" />
    <path
       style="fill:#333333;fill-opacity:1"
       d="m 89.058149,170.33592 0,0.0423 c 1.913441,0.0356 3.326411,0.41616 4.23827,1.14157 0.912177,0.72509 1.368426,1.60196 1.368426,2.62995 0,1.14793 -0.51829,2.09574 -1.557416,2.84152 -1.036898,0.74769 -2.418686,1.12122 -4.140911,1.12122 -1.488374,0 -2.638538,-0.29844 -3.45304,-0.89245 -0.814183,-0.59402 -1.221434,-1.27043 -1.221434,-2.03148 0,-0.50493 0.182308,-0.91441 0.547244,-1.22398 0.364934,-0.30926 0.803046,-0.46262 1.312746,-0.46262 0.478201,0 0.889906,0.13586 1.230343,0.40471 0.342663,0.27171 0.511609,0.62965 0.511609,1.07253 0,0.59179 -0.396116,1.08781 -1.190254,1.48838 -0.155583,0.0779 -0.23576,0.16671 -0.23576,0.26502 0,0.18231 0.222396,0.34235 0.669736,0.48076 0.445112,0.13775 0.898815,0.20457 1.36588,0.20457 1.528781,0 2.293967,-1.12344 2.293967,-3.37063 0,-2.22492 -0.918859,-3.33723 -2.75435,-3.33723 l -1.524327,0.062 c -0.307028,0 -0.462929,-0.11326 -0.462929,-0.34012 0,-0.26057 0.162581,-0.39165 0.4852,-0.39165 l 1.110076,0.0423 c 1.132667,0 1.891171,-0.25135 2.27615,-0.75659 0.386888,-0.5027 0.578423,-1.21921 0.578423,-2.1492 0,-0.95673 -0.144765,-1.66209 -0.436204,-2.11167 -0.291439,-0.45179 -0.79223,-0.67609 -1.49951,-0.67609 -0.384661,0 -0.747368,0.0643 -1.085895,0.19535 -0.338209,0.12917 -0.509381,0.25613 -0.509381,0.38307 0,0.1174 0.111357,0.24021 0.333755,0.36684 0.582877,0.37162 0.876543,0.77441 0.876543,1.20807 0,0.4273 -0.162264,0.76519 -0.489656,1.01909 -0.327073,0.25134 -0.694235,0.37797 -1.103712,0.37797 -0.471521,0 -0.892133,-0.14476 -1.261523,-0.43143 -0.369389,-0.28921 -0.55647,-0.64524 -0.55647,-1.07475 0,-0.72956 0.411705,-1.36144 1.234797,-1.8934 0.823092,-0.5342 1.877808,-0.80082 3.168282,-0.80082 1.426333,0 2.627721,0.30225 3.606395,0.9055 0.98122,0.60291 1.470875,1.37478 1.470875,2.32068 0.0013,1.86 -1.732087,2.98375 -5.195945,3.37064 z"
       id="path4144"
       inkscape:connector-curvature="0" />
    <path
       style="fill:#333333;fill-opacity:1"
       d="m 106.93023,164.36683 0,12.79308 1.25262,0 c 1.91567,0 3.07251,-0.5027 3.47085,-1.50618 0.39834,-1.00541 0.59656,-2.72318 0.59656,-5.15491 0,-1.90231 -0.12281,-3.27074 -0.36716,-4.10082 -0.24244,-0.83168 -0.61406,-1.37924 -1.11039,-1.63919 -0.49634,-0.26058 -1.1279,-0.39165 -1.89117,-0.39165 l -1.95131,0 z m -3.86919,12.79308 0,-12.79308 -2.00666,0 0,-0.692 8.04064,0 c 2.32515,0 4.16732,0.6586 5.52239,1.97803 1.35474,1.31719 2.03339,2.9812 2.03339,4.9904 0,1.04104 -0.20649,2.02258 -0.62042,2.93698 -0.41394,0.91663 -1.05027,1.75087 -1.909,2.50046 -0.85904,0.74991 -1.74003,1.23256 -2.6433,1.4486 -0.90359,0.21572 -2.01144,0.32294 -3.32864,0.32294 l -7.09506,0 0,-0.69233 2.00666,0 z"
       id="path4146"
       inkscape:connector-curvature="0" />
    <path
       style="fill:#333333;fill-opacity:1"
       d="m 132.73448,170.77022 c 0,-2.17148 -0.0449,-3.60226 -0.13363,-4.29173 -0.091,-0.69233 -0.32262,-1.24847 -0.69615,-1.67132 -0.37384,-0.42252 -0.99013,-0.6341 -1.84695,-0.6341 -0.72286,0 -1.29905,0.1715 -1.7289,0.51193 -0.42952,0.34267 -0.69614,0.8899 -0.80304,1.64428 -0.10437,0.75405 -0.15781,2.22715 -0.15781,4.41866 0,2.16925 0.0446,3.60639 0.13553,4.30732 0.0891,0.70091 0.32962,1.25961 0.71906,1.67577 0.38943,0.41583 1.00094,0.62296 1.83549,0.62296 0.692,0 1.25707,-0.16671 1.69295,-0.50079 0.43652,-0.33598 0.70982,-0.87876 0.81896,-1.63314 0.11103,-0.75468 0.16449,-2.23829 0.16449,-4.44984 z m -9.76733,-0.0601 c 0,-2.12056 0.69837,-3.85583 2.10051,-5.20644 1.39897,-1.34807 3.0792,-2.02226 5.03686,-2.02226 1.818,0 3.44446,0.63411 4.87938,1.90231 1.43556,1.2682 2.15175,3.07251 2.15175,5.41102 0,2.19183 -0.67642,3.94938 -2.03371,5.27104 -1.3573,1.32133 -3.01493,1.98216 -4.9726,1.98216 -2.11579,0 -3.84024,-0.70314 -5.16858,-2.10466 -1.32833,-1.40215 -1.99361,-3.14633 -1.99361,-5.23317 z"
       id="path4148"
       inkscape:connector-curvature="0" />
    <path
       style="fill:#a5a9ac;fill-opacity:1"
       d="m 101.18768,132.28207 c 0,-5.34898 4.3229,-9.68301 9.65852,-9.68301 5.3353,0 9.65821,4.33403 9.65821,9.68301 0,5.34867 -4.32322,9.68303 -9.65821,9.68303 -5.33562,0 -9.65852,-4.33436 -9.65852,-9.68303 z"
       id="path4157"
       inkscape:connector-curvature="0" />
    <path
       style="fill:#a5a9ac;fill-opacity:1"
       d="m 101.85074,107.56955 c -1.42156,0.94781 -1.79986,6.45429 -1.79986,6.45429 0,0 0.3783,5.50679 1.79986,6.4546 1.41965,0.94972 8.99546,1.51924 8.99546,1.51924 0,0 7.57614,-0.56952 8.99516,-1.51924 1.42187,-0.94781 1.80017,-6.4546 1.80017,-6.4546 0,0 -0.3783,-5.5068 -1.80017,-6.45429 -1.41902,-0.95036 -8.99516,-1.51987 -8.99516,-1.51987 0,0 -7.57581,0.56951 -8.99546,1.51987 z"
       id="path4159"
       inkscape:connector-curvature="0" />
    <polygon
       style="fill:#a5a9ac;fill-opacity:1"
       points="105,75.035 69.44,39.392 105,3.741 140.56,39.392 "
       id="polygon4161"
       transform="matrix(0.31816454,0,0,0.31816454,77.438926,81.420967)" />
    <rect
       style="opacity:1;fill:#a5a9ac;fill-opacity:1;stroke:none;stroke-width:0.1;stroke-miterlimit:4;stroke-dasharray:none;stroke-opacity:1"
       id="rect4169"
       width="4.3989706"
       height="88.030365"
       x="79.029488"
       y="71.335945" />
    <rect
       style="opacity:1;fill:#a5a9ac;fill-opacity:1;stroke:none;stroke-width:0.1;stroke-miterlimit:4;stroke-dasharray:none;stroke-opacity:1"
       id="rect4169-6"
       width="4.3989706"
       height="87.691566"
       x="138.25963"
       y="71.335007" />
    <rect
       style="opacity:1;fill:#a5a9ac;fill-opacity:1;stroke:none;stroke-width:0.1;stroke-miterlimit:4;stroke-dasharray:none;stroke-opacity:1"
       id="rect4169-7"
       width="4.4881258"
       height="55.3549"
       x="-75.824318"
       y="-138.63742"
       transform="matrix(0,-1,-1,0,0,0)" />
    <rect
       style="opacity:1;fill:#a5a9ac;fill-opacity:1;stroke:none;stroke-width:0.1;stroke-miterlimit:4;stroke-dasharray:none;stroke-opacity:1"
       id="rect4145"
       width="14.611554"
       height="14.611554"
       x="493.39716"
       y="106.05862" />
    <rect
       style="opacity:1;fill:#a5a9ac;fill-opacity:1;stroke:none;stroke-width:0.1;stroke-miterlimit:4;stroke-dasharray:none;stroke-opacity:1"
       id="rect4759"
       width="14.558947"
       height="14.558947"
       x="493.28009"
       y="106.03668" />
    <rect
       style="opacity:1;fill:#a5a9ac;fill-opacity:1;stroke:none;stroke-width:0.1;stroke-miterlimit:4;stroke-dasharray:none;stroke-opacity:1"
       id="rect4759-7"
       width="14.558947"
       height="14.558947"
       x="377.68842"
       y="106.03668" />
    <rect
       style="opacity:1;fill:#a5a9ac;fill-opacity:1;stroke:none;stroke-width:0.1;stroke-miterlimit:4;stroke-dasharray:none;stroke-opacity:1"
       id="rect4759-7-4"
       width="14.558947"
       height="14.558947"
       x="267.76996"
       y="106.03683" />
  </g>
</svg>
