<?xml version="1.0" encoding="UTF-8" standalone="no"?>
<!-- Generator: Adobe Illustrator 13.0.0, SVG Export Plug-In . SVG Version: 6.00 Build 14948)  -->

<svg
   xmlns:dc="http://purl.org/dc/elements/1.1/"
   xmlns:cc="http://creativecommons.org/ns#"
   xmlns:rdf="http://www.w3.org/1999/02/22-rdf-syntax-ns#"
   xmlns:svg="http://www.w3.org/2000/svg"
   xmlns="http://www.w3.org/2000/svg"
   xmlns:sodipodi="http://sodipodi.sourceforge.net/DTD/sodipodi-0.dtd"
   xmlns:inkscape="http://www.inkscape.org/namespaces/inkscape"
   version="1.2"
   id="Ebene_1"
   x="0px"
   y="0px"
   width="458.17877"
   height="64.39399"
   viewBox="0 0 458.17879 64.393992"
   xml:space="preserve"
   inkscape:version="0.91 r13725"
   sodipodi:docname="logo.svg"><metadata
     id="metadata4188"><rdf:RDF><cc:Work
         rdf:about=""><dc:format>image/svg+xml</dc:format><dc:type
           rdf:resource="http://purl.org/dc/dcmitype/StillImage" /><dc:title /></cc:Work></rdf:RDF></metadata><defs
     id="defs4186"><inkscape:perspective
       sodipodi:type="inkscape:persp3d"
       inkscape:vp_x="0 : 42.5585 : 1"
       inkscape:vp_y="0 : 1000 : 0"
       inkscape:vp_z="566.936 : 42.5585 : 1"
       inkscape:persp3d-origin="283.468 : 28.372333 : 1"
       id="perspective4769" /></defs><sodipodi:namedview
     pagecolor="#ffffff"
     bordercolor="#666666"
     borderopacity="1"
     objecttolerance="10"
     gridtolerance="10"
     guidetolerance="10"
     inkscape:pageopacity="0"
     inkscape:pageshadow="2"
     inkscape:window-width="1680"
     inkscape:window-height="975"
     id="namedview4184"
     showgrid="false"
     inkscape:zoom="5.8140607"
     inkscape:cx="235.06967"
     inkscape:cy="22.532585"
     inkscape:window-x="-9"
     inkscape:window-y="-9"
     inkscape:window-maximized="1"
     inkscape:current-layer="Ebene_1"
     fit-margin-top="0"
     fit-margin-left="0"
     fit-margin-right="0"
     fit-margin-bottom="0" /><g
     style="fill:#f4f4f4;fill-opacity:1;stroke:#000000;stroke-width:1.60000002;stroke-miterlimit:4;stroke-dasharray:none;stroke-opacity:1"
     id="g4155"
     transform="translate(-109.70898,-22.304688)"><polygon
       points="148.165,55.682 155.926,49.529 160.555,29.436 166.792,23.255 176.133,23.255 168.372,54.158 159.059,61.863 110.912,61.863 118.646,29.436 126.435,23.255 134.167,23.255 126.435,55.682 134.167,51.055 140.375,27.912 145.031,23.255 155.926,23.255 "
       id="polygon4162"
       style="fill:#f4f4f4;fill-opacity:1;stroke:none;stroke-width:1.60000002;stroke-miterlimit:4;stroke-dasharray:none;stroke-opacity:1" /><polygon
       points="460.582,56.953 467.921,52.042 470.009,43.35 476.781,36.604 484.854,36.604 480.338,54.158 469.755,61.863 425.39,61.863 429.341,43.35 436.367,36.604 445.398,36.604 440.094,56.953 447.883,52.324 449.857,41.797 455.052,36.604 465.889,36.604 "
       id="polygon4164"
       style="fill:#f4f4f4;fill-opacity:1;stroke:none;stroke-width:1.60000002;stroke-miterlimit:4;stroke-dasharray:none;stroke-opacity:1" /><path
       d="m 364.797,61.863 7.789,-7.705 33.416,0 c 0,0 2.877,0.848 4.516,-2.793 1.495,-3.389 -1.41,-3.389 -1.41,-3.389 l -15.522,0 c 0,0 -4.459,-1.017 -4.486,-6.491 -0.085,-13.461 10.979,-16.934 10.979,-16.934 l 32.621,0 -6.489,6.436 -17.104,0 c 0,0 -5.447,1.553 -5.562,6.097 -0.084,2.06 2.455,1.637 2.455,1.637 l 13.941,0 c 0,0 8.07,1.354 6.209,10.047 -2.429,11.431 -10.839,13.095 -10.839,13.095 l -50.514,0 0,0 z"
       id="path4166"
       inkscape:connector-curvature="0"
       style="fill:#f4f4f4;fill-opacity:1;stroke:none;stroke-width:1.60000002;stroke-miterlimit:4;stroke-dasharray:none;stroke-opacity:1" /><path
       d="m 338.269,61.863 13.94,0 4.233,-16.029 c 0.509,-1.863 5.419,-3.979 4.121,-3.754 -1.271,0.226 4.459,-0.848 4.459,-0.848 0,0 1.806,0.508 2.709,1.75 0.933,1.213 -0.903,3.021 -1.157,4.432 -0.254,1.41 1.553,1.552 1.553,1.552 l 7.789,0 c 0,0 4.178,-1.552 5.307,-3.104 1.103,-1.579 2.482,-3.216 2.482,-4.599 0,-1.383 -3.076,-3.104 -3.076,-3.104 l -3.133,-1.524 -23.283,0 c 0,0 -11.146,6.379 -12.443,7.705 -0.455,0.392 -3.501,17.523 -3.501,17.523 z"
       id="path4168"
       inkscape:connector-curvature="0"
       style="fill:#f4f4f4;fill-opacity:1;stroke:none;stroke-width:1.60000002;stroke-miterlimit:4;stroke-dasharray:none;stroke-opacity:1" /><path
       d="m 175.313,44.168 c -1.072,1.24 -4.571,12.135 -3.81,13.912 0.79,1.723 5.108,3.781 5.108,3.781 l 22.69,0 c 0,0 10.583,-6.633 11.401,-7.563 0.79,-0.959 3.782,-11.543 3.782,-12.645 0,-1.101 -2.54,-5.052 -2.54,-5.052 l -26.529,0 c 0.002,0.003 -8.999,6.325 -10.102,7.567 z m 17.696,-2.512 6.971,0 c 0,0 -0.79,8.383 -2.539,10.752 -1.778,2.371 -5.701,4.432 -5.701,4.432 0,0 -4.402,0.452 -5.023,0 -0.649,-0.508 -0.17,-5.053 -0.17,-5.053 0,0 0.593,-4.909 1.411,-6.35 0.791,-1.41 5.051,-3.781 5.051,-3.781 z"
       id="path4170"
       inkscape:connector-curvature="0"
       style="fill:#f4f4f4;fill-opacity:1;stroke:none;stroke-width:1.60000002;stroke-miterlimit:4;stroke-dasharray:none;stroke-opacity:1" /><path
       d="m 259.924,44.168 c -1.073,1.24 -4.572,12.135 -3.782,13.912 0.79,1.723 5.08,3.781 5.08,3.781 l 31.58,0 c 0,0 1.045,-5.022 2.344,-10.104 1.24,-4.771 2.709,-12.105 2.709,-12.645 0,-1.129 7.846,-11.033 7.846,-11.033 l -13.717,0 -6.94,8.521 -15.015,0 c 0.002,3.17e-4 -0.01,-6.42e-4 -0.01,-6.42e-4 0,0 -9.05466,6.425041 -10.09513,7.568642 z m 17.695,-2.512 6.942,0 c 0,0 -0.764,8.383 -2.541,10.752 -1.723,2.371 -5.673,4.432 -5.673,4.432 0,0 -4.402,0.452 -5.052,0 -0.593,-0.508 -0.169,-5.053 -0.169,-5.053 0,0 0.593,-4.909 1.439,-6.35 0.792,-1.41 5.054,-3.781 5.054,-3.781 z"
       id="path4172"
       inkscape:connector-curvature="0"
       style="fill:#f4f4f4;fill-opacity:1;stroke:none;stroke-width:1.60000002;stroke-miterlimit:4;stroke-dasharray:none;stroke-opacity:1"
       sodipodi:nodetypes="cccccscccccccccccccc" /><path
       d="m 211.101,61.863 7.168,-25.26 30.311,0 c 0,0 4.008,0.424 5.362,2.682 1.411,2.259 0.96,6.152 0.96,6.152 l -4.121,16.426 -12.644,0 c 0,0 1.468,-8.043 2.879,-13.887 1.411,-5.842 -2.54,-6.32 -2.54,-6.32 l -7.563,0 -4.346,15.154 c 0,0 -3.782,4.402 -5.362,5.053 l -10.104,0 z"
       id="path4174"
       inkscape:connector-curvature="0"
       style="fill:#f4f4f4;fill-opacity:1;stroke:none;stroke-width:1.60000002;stroke-miterlimit:4;stroke-dasharray:none;stroke-opacity:1" /><path
       d="m 522.162,61.863 8.044,-25.26 30.311,0 c 0,0 3.979,0.424 5.392,2.682 1.412,2.259 0.96,6.152 0.96,6.152 l -4.263,16.426 -13.856,0 c 0,0 2.313,-6.772 3.782,-12.646 1.411,-5.813 -2.062,-7.563 -2.062,-7.563 l -7.592,0 -4.233,15.154 c 0,0 -3.498,4.403 -5.051,5.053 l -11.432,0 0,0.002 z"
       id="path4176"
       inkscape:connector-curvature="0"
       style="fill:#f4f4f4;fill-opacity:1;stroke:none;stroke-width:1.60000002;stroke-miterlimit:4;stroke-dasharray:none;stroke-opacity:1" /><path
       d="m 301.606,44.168 c -1.102,1.24 -4.543,12.135 -3.78,13.912 0.762,1.723 5.051,3.781 5.051,3.781 l 22.72,0 c 0,0 4.517,-2.822 7.874,-5.053 0,0 -19.305,0.143 -20.488,0 -0.536,-0.056 -0.339,-2.396 -0.282,-3.779 l 15.521,0 c 0,0 2.991,-0.649 7.45,-4.348 4.516,-3.695 5.08,-4.093 5.08,-7.028 0,-2.905 -2.541,-5.052 -2.541,-5.052 l -26.527,0 c 0.005,2.59e-4 -0.14881,-0.0089 -0.13074,0.06192 0,0 -8.93944,6.370256 -9.94726,7.505082 z m 17.726,-2.512 10.188,0 c 0,0 -1.129,3.867 -6.688,6.32 l -8.494,0 c -0.819,-2.199 1.186,-3.949 2.313,-4.91 1.185,-1.072 2.681,-1.41 2.681,-1.41 z"
       id="path4178"
       inkscape:connector-curvature="0"
       style="fill:#f4f4f4;fill-opacity:1;stroke:none;stroke-width:1.60000002;stroke-miterlimit:4;stroke-dasharray:none;stroke-opacity:1"
       sodipodi:nodetypes="cccccccccscccccccccc" /><path
       d="m 505.737,61.863 c 0,0 4.29,-13.574 5.646,-17.922 0.677,-2.37 -0.902,-2.285 -3.896,-2.285 -2.994,0 -5.165,0.648 -9.313,7.563 -4.854,8.072 7.168,10.273 7.168,10.273 l -0.848,2.369 -13.884,0 c 0,0 -7.593,0.312 -7.593,-8.832 0,-11.232 14.365,-16.427 14.365,-16.427 l 30.338,0 -8.07,25.259 -13.913,0 0,0.002 0,0 z"
       id="path4180"
       inkscape:connector-curvature="0"
       style="fill:#f4f4f4;fill-opacity:1;stroke:none;stroke-width:1.60000002;stroke-miterlimit:4;stroke-dasharray:none;stroke-opacity:1" /></g><path
     inkscape:connector-curvature="0"
     id="polygon4169"
     d="M 16.39454,0 8.08985,6.591796 0,40.507812 l 49.69141,0 9.81641,-8.121094 L 67.64258,0 56.69141,0 49.98243,6.65039 45.36524,26.6875 40.02149,30.923828 47.42188,0 46.2168,0 34.92774,0 29.81446,5.115234 23.64063,28.132812 18.17383,31.404296 25.66211,0 16.39454,0 Z m 0.6621,1.90039 6.19727,0 -7.97461,33.449219 9.9961,-5.982422 6.24218,-23.267578 4.19727,-4.199219 9.29687,0 -8.11914,33.929688 10.17578,-8.06836 4.64258,-20.148437 5.76367,-5.712891 7.73047,0 -7.38672,29.419922 -8.81054,7.287109 -46.60157,0 L 9.78516,7.671874 17.05664,1.90039 Z"
     style="color:#000000;font-style:normal;font-variant:normal;font-weight:normal;font-stretch:normal;font-size:medium;line-height:normal;font-family:sans-serif;text-indent:0;text-align:start;text-decoration:none;text-decoration-line:none;text-decoration-style:solid;text-decoration-color:#000000;letter-spacing:normal;word-spacing:normal;text-transform:none;direction:ltr;block-progression:tb;writing-mode:lr-tb;baseline-shift:baseline;text-anchor:start;white-space:normal;clip-rule:nonzero;display:inline;overflow:visible;visibility:visible;opacity:1;isolation:auto;mix-blend-mode:normal;color-interpolation:sRGB;color-interpolation-filters:linearRGB;solid-color:#000000;solid-opacity:1;fill:#000000;fill-opacity:1;fill-rule:nonzero;stroke:none;stroke-width:1.60000002;stroke-linecap:butt;stroke-linejoin:miter;stroke-miterlimit:4;stroke-dasharray:none;stroke-dashoffset:0;stroke-opacity:1;color-rendering:auto;image-rendering:auto;shape-rendering:auto;text-rendering:auto;enable-background:accumulate" /><path
     inkscape:connector-curvature="0"
     id="polygon4171"
     d="m 326.2754,13.349609 -7.51172,7.212891 -4.25586,19.945312 45.84765,0 11.10938,-8.087891 4.90625,-19.070312 -9.69141,0 -7.24023,7.212891 -2.06446,8.591796 -4.95117,3.3125 4.98633,-19.117187 -1.23047,0 -11.23047,0 -5.68164,5.677734 -1.94726,10.394531 -5.43164,3.228516 5.02929,-19.300781 -10.64257,0 z m 0.76562,1.900391 7.41797,0 -5.57617,21.396484 10.14648,-6.029297 1.99805,-10.660156 4.70898,-4.707031 9.21485,0 -5.62891,21.578124 9.72656,-6.507812 2.11133,-8.791016 6.30469,-6.279296 6.45508,0 -4.125,16.037109 -10.0586,7.320312 -42.88086,0 L 320.5,21.529296 327.04102,15.25 Z"
     style="color:#000000;font-style:normal;font-variant:normal;font-weight:normal;font-stretch:normal;font-size:medium;line-height:normal;font-family:sans-serif;text-indent:0;text-align:start;text-decoration:none;text-decoration-line:none;text-decoration-style:solid;text-decoration-color:#000000;letter-spacing:normal;word-spacing:normal;text-transform:none;direction:ltr;block-progression:tb;writing-mode:lr-tb;baseline-shift:baseline;text-anchor:start;white-space:normal;clip-rule:nonzero;display:inline;overflow:visible;visibility:visible;opacity:1;isolation:auto;mix-blend-mode:normal;color-interpolation:sRGB;color-interpolation-filters:linearRGB;solid-color:#000000;solid-opacity:1;fill:#000000;fill-opacity:1;fill-rule:nonzero;stroke:none;stroke-width:1.60000002;stroke-linecap:butt;stroke-linejoin:miter;stroke-miterlimit:4;stroke-dasharray:none;stroke-dashoffset:0;stroke-opacity:1;color-rendering:auto;image-rendering:auto;shape-rendering:auto;text-rendering:auto;enable-background:accumulate" /><path
     inkscape:connector-curvature="0"
     id="path4173"
     d="m 290.22461,1.296874 -0.13867,0.04297 c 0,0 -2.97372,0.935721 -5.88281,3.628907 -2.90909,2.693185 -5.80587,7.225518 -5.76172,14.216796 0.0148,2.994651 1.30023,4.937406 2.5918,6.021485 1.29156,1.084079 2.63281,1.390625 2.63281,1.390625 l 0.10352,0.02344 15.6289,0 c 0,0 0.46609,0.05294 0.67969,0.220703 0.1068,0.08388 0.16777,0.141497 0.19922,0.382813 0.0314,0.2407 -0.0123,0.70921 -0.33789,1.449219 -8.3e-4,0.0019 8.3e-4,0.002 0,0.0039 -0.72176,1.597188 -1.57018,2.049252 -2.24414,2.226562 -0.67542,0.177693 -1.13282,0.03711 -1.13282,0.03711 l -0.13281,-0.03906 -33.94336,0 c -1.47599,1.377373 -7.39843,7.705078 -7.39843,7.705078 l 0,1.900391 0.39062,0 50.2168,0 0.0918,-0.01758 c 0,0 2.33888,-0.473939 4.90235,-2.439453 2.56346,-1.965515 5.42275,-5.466249 6.68164,-11.390625 l -0.002,0.002 c 0.99146,-4.631235 -0.74185,-7.627455 -2.74218,-9.224609 -2.00033,-1.597155 -4.23828,-1.958985 -4.23828,-1.958985 l -0.0781,-0.01172 -14.09765,0 -0.0781,0.01172 c 0,0 -0.49672,0.06166 -0.87891,-0.03125 -0.19109,-0.04645 -0.31161,-0.118261 -0.36718,-0.179687 -0.0556,-0.06143 -0.11664,-0.127561 -0.10352,-0.449219 l 0,-0.0078 0,-0.0078 c 0.048,-1.895505 1.18407,-3.138671 2.41797,-3.996094 1.19571,-0.830884 2.3067,-1.152476 2.37891,-1.173828 l 17.31054,0 8.40625,-8.335938 -35.07422,0 z m 0.32618,1.900391 30.13281,0 -4.57227,4.535156 -16.8457,0 -0.12891,0.03711 c 0,0 -1.50118,0.421485 -3.01953,1.476562 -1.51631,1.053664 -3.15735,2.857311 -3.22851,5.5 -0.0272,0.70568 0.19622,1.357715 0.59179,1.794922 0.39686,0.438636 0.89302,0.646656 1.32617,0.751953 0.86632,0.210594 1.64063,0.06055 1.64063,0.06055 l -0.15625,0.01367 13.83008,0 c 0.0744,0.01353 1.7845,0.328429 3.32031,1.554687 1.56942,1.253096 2.93986,3.280032 2.07031,7.341797 l 0,0.002 c -1.17011,5.506624 -3.72973,8.553109 -5.97851,10.277344 -2.1927,1.681234 -3.96483,2.046402 -4.05469,2.064453 l -48.07812,0 5.86718,-5.804687 33.02539,0 -0.26757,-0.03906 c 0,0 0.9795,0.28512 2.15234,-0.02344 1.17283,-0.308557 2.58181,-1.253667 3.49805,-3.289063 l 0.002,-0.0039 0,-0.0039 c 0.4196,-0.951198 0.57714,-1.753003 0.48437,-2.464844 -0.0928,-0.711841 -0.47758,-1.291116 -0.91015,-1.630859 -0.86515,-0.679486 -1.85352,-0.626953 -1.85352,-0.626953 l -15.35351,0 c -0.0403,-0.0094 -0.86657,-0.196402 -1.78907,-0.970703 -0.94468,-0.792921 -1.90183,-2.094869 -1.91406,-4.574219 l 0,-0.002 c -0.0408,-6.469722 2.55069,-10.401982 5.15234,-12.810547 2.51779,-2.330917 4.89951,-3.115206 5.05665,-3.166016 z"
     style="color:#000000;font-style:normal;font-variant:normal;font-weight:normal;font-stretch:normal;font-size:medium;line-height:normal;font-family:sans-serif;text-indent:0;text-align:start;text-decoration:none;text-decoration-line:none;text-decoration-style:solid;text-decoration-color:#000000;letter-spacing:normal;word-spacing:normal;text-transform:none;direction:ltr;block-progression:tb;writing-mode:lr-tb;baseline-shift:baseline;text-anchor:start;white-space:normal;clip-rule:nonzero;display:inline;overflow:visible;visibility:visible;opacity:1;isolation:auto;mix-blend-mode:normal;color-interpolation:sRGB;color-interpolation-filters:linearRGB;solid-color:#000000;solid-opacity:1;fill:#000000;fill-opacity:1;fill-rule:nonzero;stroke:none;stroke-width:1.60000002;stroke-linecap:butt;stroke-linejoin:miter;stroke-miterlimit:4;stroke-dasharray:none;stroke-dashoffset:0;stroke-opacity:1;color-rendering:auto;image-rendering:auto;shape-rendering:auto;text-rendering:auto;enable-background:accumulate"
     sodipodi:nodetypes="ccscscccscccsccccccccsccscccccccccsccccccccccscsscccsccscccccsccccsccsccscc" /><path
     inkscape:connector-curvature="0"
     id="path4175"
     d="m 244.25196,13.380859 -0.22071,0.125 c 0,0 -2.792,1.597184 -5.75,3.363281 -1.479,0.883049 -2.99852,1.80787 -4.24023,2.601563 -1.22256,0.781449 -2.08117,1.333467 -2.61719,1.871093 -0.23741,0.216151 -0.24563,0.312108 -0.2832,0.398438 -0.0399,0.09178 -0.0682,0.17422 -0.0977,0.265625 -0.0588,0.18281 -0.11738,0.399948 -0.18359,0.664062 -0.13242,0.528229 -0.29071,1.235449 -0.4668,2.072266 -0.35217,1.673633 -0.77573,3.856213 -1.18554,6.025391 -0.81963,4.338355 -1.58204,8.625 -1.58204,8.625 l -0.19921,1.115234 1.13476,0 14.67188,0 4.41797,-16.728516 c 0.0369,-0.135276 0.30708,-0.54458 0.75585,-0.945312 0.44878,-0.400733 1.03648,-0.813365 1.58204,-1.167969 0.54555,-0.354603 1.03528,-0.64143 1.3789,-0.876953 0.0859,-0.05888 0.16259,-0.112769 0.25,-0.1875 0.002,-0.0016 0.006,-0.01022 0.008,-0.01172 0.34374,-0.06546 0.69457,-0.133245 1.15821,-0.220703 1.14597,-0.216171 2.19277,-0.411514 2.43554,-0.457031 0.24745,0.08981 1.47214,0.549831 2.03516,1.324219 l 0.008,0.0098 0.008,0.0098 c 0.0719,0.0935 0.0818,0.123445 0.0586,0.310547 -0.0232,0.187102 -0.1293,0.492419 -0.29688,0.841797 -0.33515,0.698756 -0.91638,1.504533 -1.10156,2.533203 -0.0988,0.54866 0.0113,1.106019 0.26758,1.511718 0.25633,0.4057 0.60867,0.650688 0.92187,0.808594 0.62641,0.315814 1.22461,0.345703 1.22461,0.345703 l 0.0371,0.0039 7.9961,0 0.16015,-0.05859 c 0,0 1.08454,-0.402155 2.31836,-1.007813 1.23382,-0.605657 2.62392,-1.324699 3.42774,-2.429687 l 0.004,-0.0059 0.006,-0.0078 c 0.53333,-0.763481 1.16303,-1.577193 1.6836,-2.417969 0.52056,-0.840775 0.96875,-1.717358 0.96875,-2.724609 0,-0.697907 -0.33196,-1.224441 -0.69141,-1.667969 -0.35945,-0.443527 -0.7898,-0.821627 -1.20898,-1.150391 -0.83837,-0.657526 -1.66016,-1.115234 -1.66016,-1.115234 l -0.0254,-0.01367 -3.35352,-1.630859 -23.7539,0 z m 0.50781,1.900391 22.80859,0 2.90235,1.412109 c 0.0139,0.0078 0.70765,0.39809 1.40039,0.941406 0.34982,0.274362 0.68895,0.585387 0.90625,0.853516 0.2173,0.268128 0.26953,0.47711 0.26953,0.470703 0,0.375749 -0.24086,1.006385 -0.68555,1.724609 -0.44206,0.713979 -1.05039,1.505948 -1.61719,2.316407 -0.32645,0.447281 -1.59006,1.280008 -2.72656,1.83789 -1.06373,0.522166 -1.88359,0.828477 -2.00195,0.873047 l -7.53711,0 c -0.0154,-0.0021 -0.29595,-0.03969 -0.50391,-0.144531 -0.10679,-0.05384 -0.16082,-0.109465 -0.17187,-0.126953 -0.0111,-0.01749 -0.0301,-0.0058 -0.002,-0.16211 0.0688,-0.38233 0.53221,-1.185631 0.94531,-2.046875 0.20654,-0.430622 0.40021,-0.892539 0.4668,-1.429687 0.0661,-0.533533 -0.0474,-1.180014 -0.43555,-1.691407 -1.18642,-1.617178 -3.20703,-2.095703 -3.20703,-2.095703 l -0.21485,-0.06055 -0.21679,0.04102 c 0,0 -1.4326,0.26741 -2.70704,0.507813 -0.63721,0.120201 -1.23437,0.233275 -1.5957,0.302734 -0.18066,0.03473 -0.27401,0.05341 -0.35937,0.07227 -0.0107,0.0024 -0.0148,0.0015 -0.0586,0.01367 -0.0109,0.003 -0.0525,0.01554 -0.0527,0.01563 -2.5e-4,8.5e-5 -0.23235,0.117134 -0.23242,0.117187 -0.46719,0.344281 -0.94295,0.711918 -1.2958,0.977394 -0.55344,0.421573 -1.12197,0.902229 -1.69642,1.415184 -0.57445,0.512955 -1.10668,1.067058 -1.32422,1.863281 l 0,0.0039 -4.04883,15.324218 -12.0664,0 c 0.16161,-0.904947 0.66202,-3.722827 1.37304,-7.486328 0.40857,-2.162572 0.83082,-4.337649 1.17774,-5.986328 0.17346,-0.824339 0.32797,-1.520252 0.44922,-2.003906 0.056,-0.223519 0.10321,-0.388148 0.13867,-0.501953 0.18126,-0.162137 1.06379,-0.814653 2.22461,-1.556641 1.21294,-0.775307 2.72178,-1.692861 4.1914,-2.570312 2.82785,-1.688386 5.30472,-3.106603 5.50391,-3.220703 z"
     style="color:#000000;font-style:normal;font-variant:normal;font-weight:normal;font-stretch:normal;font-size:medium;line-height:normal;font-family:sans-serif;text-indent:0;text-align:start;text-decoration:none;text-decoration-line:none;text-decoration-style:solid;text-decoration-color:#000000;letter-spacing:normal;word-spacing:normal;text-transform:none;direction:ltr;block-progression:tb;writing-mode:lr-tb;baseline-shift:baseline;text-anchor:start;white-space:normal;clip-rule:nonzero;display:inline;overflow:visible;visibility:visible;opacity:1;isolation:auto;mix-blend-mode:normal;color-interpolation:sRGB;color-interpolation-filters:linearRGB;solid-color:#000000;solid-opacity:1;fill:#000000;fill-opacity:1;fill-rule:nonzero;stroke:none;stroke-width:1.60000002;stroke-linecap:butt;stroke-linejoin:miter;stroke-miterlimit:4;stroke-dasharray:none;stroke-dashoffset:0;stroke-opacity:1;color-rendering:auto;image-rendering:auto;shape-rendering:auto;text-rendering:auto;enable-background:accumulate"
     sodipodi:nodetypes="ccsscccssscccccsscccsccccscccsccccscccssssccccccccsscscscccccccccccsscccccsccccssccsscc" /><path
     inkscape:connector-curvature="0"
     id="path4177"
     d="M 75.624554,13.345703 74.4043,14.054687 c -0.20765,0.147176 -0.39233,0.277647 -0.67187,0.476563 -0.86253,0.613746 -2.0249,1.445565 -3.22266,2.316406 -1.19776,0.87084 -2.4308,1.780274 -3.44141,2.55664 -1.0106,0.776366 -1.7378,1.337156 -2.17382,1.828125 l -0.006,0.0039 -0.004,0.0059 c -0.27546,0.318626 -0.43273,0.647496 -0.64453,1.099609 -0.2118,0.452114 -0.43856,1.00212 -0.67774,1.628907 -0.47834,1.253574 -0.99946,2.806034 -1.46289,4.378906 -0.46342,1.572872 -0.86989,3.16151 -1.11718,4.503906 -0.12365,0.671198 -0.20799,1.279846 -0.23633,1.814453 -0.0284,0.534607 -0.0423,0.975789 0.17383,1.480469 l 0.006,0.01172 0.004,0.01172 c 0.60858,1.327317 1.98567,2.185847 3.21485,2.947266 1.22917,0.76142 2.3496,1.294922 2.3496,1.294922 l 0.19336,0.0918 23.17774,0 0.23047,-0.144531 c 0,0 2.65139,-1.660522 5.40625,-3.439454 1.37743,-0.889465 2.7799,-1.808023 3.89844,-2.568359 0.55926,-0.380168 1.04779,-0.719681 1.43164,-1.001953 0.38384,-0.282272 0.62222,-0.443081 0.875,-0.730469 l 0.01,-0.01172 0.01,-0.01172 c 0.27782,-0.337253 0.36583,-0.605245 0.53515,-1.017578 0.16933,-0.412334 0.35511,-0.920674 0.55469,-1.503907 0.39917,-1.166464 0.84909,-2.624093 1.27539,-4.085937 0.4263,-1.461844 0.82818,-2.92554 1.125,-4.103516 0.14841,-0.588988 0.26988,-1.106766 0.35742,-1.523437 0.0875,-0.416671 0.15039,-0.662933 0.15039,-1.015625 0,-0.640524 -0.22301,-1.076667 -0.48047,-1.644532 -0.25745,-0.567864 -0.58646,-1.182643 -0.9121,-1.759765 -0.65129,-1.154245 -1.29883,-2.160156 -1.29883,-2.160156 l -0.2793,-0.4375 c -9.598883,-0.232609 -17.536177,0.417194 -27.129836,-3.7e-5 z m 0.385216,1.90039 25.6875,0 c 0.18527,0.293055 0.49215,0.765446 0.98047,1.63086 0.30935,0.548252 0.61714,1.12677 0.83594,1.609375 0.21879,0.482604 0.31054,0.951352 0.31054,0.861328 0,-0.07719 -0.0302,0.248183 -0.10937,0.625 -0.0792,0.376817 -0.19736,0.876003 -0.3418,1.449218 -0.28887,1.146431 -0.68502,2.595329 -1.10547,4.03711 -0.42045,1.441781 -0.86598,2.879761 -1.25,4.001953 -0.19201,0.561096 -0.36816,1.044095 -0.51367,1.398437 -0.14224,0.346382 -0.30557,0.596739 -0.23828,0.517579 0.0319,-0.03908 -0.21769,0.191229 -0.56055,0.443359 -0.35148,0.258478 -0.82512,0.58848 -1.37304,0.960938 -1.09585,0.744914 -2.49076,1.659887 -3.86133,2.544921 -2.62382,1.694311 -4.94035,3.146332 -5.15235,3.279297 l -22.17773,0 c -0.14481,-0.07006 -0.9572,-0.458012 -1.99609,-1.101562 -1.12302,-0.695662 -2.28826,-1.718194 -2.47657,-2.117188 0.0213,0.04456 -0.0445,-0.221718 -0.0234,-0.61914 0.0215,-0.406186 0.0929,-0.948886 0.20703,-1.56836 0.22823,-1.238947 0.62206,-2.784497 1.07226,-4.3125 0.45021,-1.528003 0.95863,-3.044761 1.41407,-4.238281 0.22771,-0.59676 0.44128,-1.113961 0.62304,-1.501953 0.18008,-0.384384 0.36125,-0.659433 0.35742,-0.65625 0.11829,-0.132238 0.92316,-0.823343 1.90821,-1.580078 0.98724,-0.758415 2.21222,-1.662059 3.40234,-2.527344 1.19012,-0.865285 2.34601,-1.69145 3.20508,-2.302734 0.42953,-0.305643 0.7855,-0.557111 1.0332,-0.732422 0.0617,-0.04363 0.0947,-0.0677 0.14258,-0.101563 z m 7.04297,3.154297 -0.21484,0.121094 c 0,0 -1.09209,0.606275 -2.29102,1.398437 -0.59947,0.396081 -1.22813,0.838997 -1.7793,1.292969 -0.55,0.453012 -1.02553,0.882223 -1.3457,1.451172 -2.7e-4,4.68e-4 2.6e-4,0.0015 0,0.002 -4.5e-4,7.94e-4 -0.002,0.0012 -0.002,0.002 -0.58774,1.03753 -0.86354,2.577632 -1.11914,4.013672 -0.25587,1.437517 -0.40625,2.6875 -0.40625,2.6875 l 0,0.0059 -0.002,0.0078 c 0,0 -0.12207,1.160711 -0.16211,2.404297 -0.02,0.621793 -0.0217,1.263623 0.0312,1.832031 0.0265,0.284204 0.0641,0.549518 0.13868,0.8125 0.0746,0.262982 0.14731,0.558685 0.52148,0.851563 l 0.0137,0.0098 0.0137,0.0098 c 0.32396,0.235794 0.5495,0.256988 0.79297,0.298828 0.24347,0.04184 0.49627,0.06256 0.77149,0.07422 0.55042,0.02332 1.17996,0.0075 1.78515,-0.02148 1.21039,-0.05805 2.33008,-0.173828 2.33008,-0.173828 l 0.18164,-0.01953 0.16211,-0.08398 c 0,0 3.99767,-2.006925 6.01953,-4.703125 l 0.002,-0.0039 0.002,-0.002 c 1.15193,-1.56028 1.67417,-4.231828 2.09765,-6.666015 0.42349,-2.434187 0.62305,-4.560547 0.62305,-4.560547 l 0.0977,-1.041016 -8.26172,0 z m 0.51367,1.900391 5.61719,0 c -0.071,0.667735 -0.15035,1.578523 -0.46289,3.375 -0.40862,2.348724 -1.15695,5.051544 -1.75391,5.861328 -2.1e-4,2.89e-4 2.1e-4,0.0017 0,0.002 -1.48532,1.975151 -4.99112,3.931403 -5.23437,4.066406 -0.17022,0.01696 -0.98309,0.100404 -2.02539,0.150391 -0.57294,0.02748 -1.16173,0.04054 -1.61133,0.02148 -0.1663,-0.007 -0.28183,-0.02131 -0.39453,-0.03516 -0.0169,-0.09039 -0.0343,-0.163413 -0.0469,-0.298828 -0.0397,-0.426654 -0.044,-1.015793 -0.0254,-1.59375 0.037,-1.14891 0.15095,-2.240561 0.15234,-2.253906 l 0.002,-0.01172 0,-0.002 c 0.002,-0.01265 0.14483,-1.19841 0.38867,-2.56836 0.24513,-1.377232 0.67333,-3.008668 0.90234,-3.412109 l 0.002,-0.002 0.002,-0.002 c 0.0753,-0.134249 0.42839,-0.530816 0.89844,-0.917969 0.47004,-0.387153 1.05473,-0.800909 1.61914,-1.173828 1.02709,-0.678626 1.80742,-1.113257 1.9707,-1.205078 z"
     style="color:#000000;font-style:normal;font-variant:normal;font-weight:normal;font-stretch:normal;font-size:medium;line-height:normal;font-family:sans-serif;text-indent:0;text-align:start;text-decoration:none;text-decoration-line:none;text-decoration-style:solid;text-decoration-color:#000000;letter-spacing:normal;word-spacing:normal;text-transform:none;direction:ltr;block-progression:tb;writing-mode:lr-tb;baseline-shift:baseline;text-anchor:start;white-space:normal;clip-rule:nonzero;display:inline;overflow:visible;visibility:visible;opacity:1;isolation:auto;mix-blend-mode:normal;color-interpolation:sRGB;color-interpolation-filters:linearRGB;solid-color:#000000;solid-opacity:1;fill:#000000;fill-opacity:1;fill-rule:nonzero;stroke:none;stroke-width:1.60000002;stroke-linecap:butt;stroke-linejoin:miter;stroke-miterlimit:4;stroke-dasharray:none;stroke-dashoffset:0;stroke-opacity:1;color-rendering:auto;image-rendering:auto;shape-rendering:auto;text-rendering:auto;enable-background:accumulate"
     sodipodi:nodetypes="cccsscccscssccccsccccsscccccssscscscccccscscssssccssccscccscccssscccccsscccscccccccccsscccccccsccccccscccsccsccccscccsscc" /><path
     inkscape:connector-curvature="0"
     id="path4179"
     d="m 181.82422,4.824218 -6.9414,8.521485 -14.52344,0 -0.32566,0.01109 -0.27395,0.162734 c 0,0 -2.26757,1.609195 -4.66797,3.363281 -1.2002,0.877043 -2.43395,1.79143 -3.43945,2.5625 -1.0055,0.77107 -1.71692,1.313597 -2.14063,1.779297 l -0.0156,0.01758 c -0.32627,0.497041 -0.57135,1.041003 -0.83985,1.570313 -0.15714,0.361138 -0.31427,0.71409 -0.48437,1.160156 -0.4781,1.253759 -0.99723,2.803729 -1.45898,4.376953 -0.46176,1.573224 -0.86415,3.16428 -1.10743,4.507812 -0.12163,0.671767 -0.20521,1.280371 -0.23047,1.816407 -0.0252,0.536035 -0.0354,0.982583 0.18946,1.488281 l 0.002,0.0039 0.004,0.0059 c 0.6068,1.323452 1.97516,2.185702 3.19726,2.947266 1.2221,0.761564 2.33399,1.292969 2.33399,1.292969 l 0.19531,0.09375 32.56836,0 0.1582,-0.755859 c 0,0 1.04256,-5.005541 2.33399,-10.058594 l 0,-0.0039 c 0.62659,-2.411259 1.30391,-5.442454 1.82812,-7.949219 0.26223,-1.253968 0.48568,-2.375216 0.64453,-3.222657 0.0794,-0.42372 0.14289,-0.778796 0.1875,-1.052734 0.0446,-0.273937 0.0781,-0.373387 0.0781,-0.65625 0,0.204523 -0.0237,0.147297 0.0117,0.06445 0.0354,-0.08284 0.10676,-0.224355 0.20312,-0.394531 0.19273,-0.340352 0.48789,-0.806108 0.84766,-1.337891 0.71953,-1.063565 1.69604,-2.399166 2.67187,-3.701171 1.95167,-2.604011 3.90625,-5.074219 3.90625,-5.074219 l 1.22071,-1.539063 -16.13282,0 z m 0.90235,1.900391 11.33398,0 c -0.70384,0.897411 -1.37478,1.734776 -2.75195,3.572265 -0.98567,1.31512 -1.97106,2.666379 -2.72266,3.777344 -0.3758,0.555483 -0.69334,1.049426 -0.92969,1.466797 -0.11817,0.208686 -0.21537,0.397714 -0.29492,0.583985 -0.0795,0.18627 -0.16601,0.335993 -0.16601,0.68164 0,-0.147863 -0.0122,0.102426 -0.0527,0.351563 -0.0406,0.249136 -0.10202,0.591532 -0.17968,1.005859 -0.15534,0.828654 -0.3767,1.942139 -0.63672,3.185547 -0.52005,2.486815 -1.19543,5.504085 -1.8086,7.863281 l 0,0.002 0,0.002 c -1.20838,4.727485 -2.03895,8.71816 -2.17968,9.388672 l -30.58399,0 c -0.1445,-0.07036 -0.95037,-0.456479 -1.98242,-1.099609 -1.11851,-0.697008 -2.28449,-1.722055 -2.4707,-2.123047 0.0252,0.0545 -0.0462,-0.218171 -0.0274,-0.619141 0.0191,-0.404757 0.0891,-0.949453 0.20117,-1.568359 0.22414,-1.237811 0.61413,-2.782896 1.0625,-4.310547 0.44838,-1.527651 0.9551,-3.042994 1.41016,-4.236328 0.22753,-0.596667 0.44324,-1.114048 0.625,-1.501953 0.17966,-0.383416 0.36042,-0.656218 0.35742,-0.654297 0.10476,-0.112647 0.90017,-0.790464 1.87891,-1.541016 0.98488,-0.755263 2.21077,-1.661035 3.4043,-2.533203 2.26165,-1.652702 4.18299,-3.01609 4.40234,-3.171875 l 15.17187,0 6.93946,-8.521484 z m -22.4668,6.623047 c -7e-5,2e-6 0.0317,1.82e-4 0.0605,0 l -0.0821,0.002 0.0215,-0.002 z m 7.4043,5.052734 -0.2168,0.121094 c 0,0 -1.09148,0.606299 -2.29102,1.398437 -0.59977,0.39607 -1.22781,0.839032 -1.77929,1.292969 -0.54842,0.451412 -1.02137,0.88142 -1.3418,1.447266 -0.60938,1.043001 -0.89134,2.584152 -1.15039,4.019531 -0.25967,1.438787 -0.41016,2.689453 -0.41016,2.689453 l -0.002,0.01172 -0.002,0.01367 c 0,0 -0.10769,1.158709 -0.14063,2.398437 -0.0165,0.619864 -0.0161,1.260032 0.0332,1.822266 0.0247,0.281117 0.06,0.540458 0.12695,0.796875 0.067,0.256417 0.11739,0.534385 0.47851,0.84375 l 0.0352,0.03125 0.0391,0.02734 c 0.31804,0.221158 0.5443,0.245686 0.78907,0.287109 0.24476,0.04142 0.50035,0.06258 0.77734,0.07422 0.55398,0.02328 1.18401,0.0075 1.79102,-0.02148 1.214,-0.05804 2.33398,-0.173828 2.33398,-0.173828 l 0.18164,-0.01953 0.16211,-0.08398 c 0,0 1.03307,-0.538667 2.28125,-1.38086 1.24447,-0.839691 2.72344,-1.968752 3.71094,-3.322265 l 0.002,-0.002 c 1.17108,-1.56277 1.69089,-4.237633 2.11133,-6.671874 0.42061,-2.435195 0.61523,-4.562501 0.61523,-4.5625 l 0.0937,-1.03711 -8.22851,0 z m 0.51172,1.900391 5.59179,0 c -0.0689,0.666163 -0.1446,1.579364 -0.45508,3.376953 -0.40564,2.348555 -1.15676,5.048981 -1.76171,5.855469 l -0.004,0.0059 -0.004,0.0059 c -0.7355,1.012113 -2.08852,2.095896 -3.24609,2.876953 -1.07648,0.726341 -1.83188,1.118574 -1.95117,1.181641 -0.16562,0.01651 -0.98628,0.102197 -2.03516,0.152344 -0.57475,0.02748 -1.16689,0.04057 -1.62109,0.02148 -0.16397,-0.0069 -0.27648,-0.02159 -0.39063,-0.03516 -0.0156,-0.09183 -0.0314,-0.161603 -0.043,-0.292969 -0.038,-0.432829 -0.0427,-1.025582 -0.0273,-1.605468 0.0308,-1.159773 0.13477,-2.273438 0.13477,-2.273438 0.003,-0.02337 0.14473,-1.192267 0.39062,-2.554688 0.24833,-1.375962 0.68827,-3.004443 0.92188,-3.402343 l 0.004,-0.0078 0.004,-0.0078 c 0.0755,-0.134423 0.43,-0.530781 0.90039,-0.917969 0.47039,-0.387188 1.05441,-0.800897 1.61914,-1.173828 1.02774,-0.678691 1.80939,-1.113307 1.97266,-1.205078 z"
     style="color:#000000;font-style:normal;font-variant:normal;font-weight:normal;font-stretch:normal;font-size:medium;line-height:normal;font-family:sans-serif;text-indent:0;text-align:start;text-decoration:none;text-decoration-line:none;text-decoration-style:solid;text-decoration-color:#000000;letter-spacing:normal;word-spacing:normal;text-transform:none;direction:ltr;block-progression:tb;writing-mode:lr-tb;baseline-shift:baseline;text-anchor:start;white-space:normal;clip-rule:nonzero;display:inline;overflow:visible;visibility:visible;opacity:1;isolation:auto;mix-blend-mode:normal;color-interpolation:sRGB;color-interpolation-filters:linearRGB;solid-color:#000000;solid-opacity:1;fill:#000000;fill-opacity:1;fill-rule:nonzero;stroke:none;stroke-width:1.60000002;stroke-linecap:butt;stroke-linejoin:miter;stroke-miterlimit:4;stroke-dasharray:none;stroke-dashoffset:0;stroke-opacity:1;color-rendering:auto;image-rendering:auto;shape-rendering:auto;text-rendering:auto;enable-background:accumulate"
     sodipodi:nodetypes="cccccsscccsscccccsccccccscccccssccccccsscccccscccccsccsssscsscccccccccccsscscccccccccssccccsccsccccccscccscscccscscccsscc" /><path
     inkscape:connector-curvature="0"
     id="path4181"
     d="m 107.8418,13.347656 -7.70703,27.160156 1.25781,0 10.29102,0 0.17383,-0.07031 c 0.62024,-0.255557 1.15874,-0.696233 1.76757,-1.228516 0.60884,-0.532283 1.2452,-1.158958 1.82813,-1.761719 1.16587,-1.205521 2.125,-2.322265 2.125,-2.322265 l 0.13672,-0.158204 4.20508,-14.666015 6.74218,0 c 0.0104,0.0013 0.64532,0.07727 1.2168,0.675781 0.57616,0.603407 1.16051,1.754108 0.50391,4.472656 -1.42239,5.891177 -2.88868,13.939453 -2.88868,13.939453 l -0.20507,1.119141 14.52343,0 4.31641,-17.205078 0.008,-0.06055 c 0,0 0.12244,-1.049662 0.0547,-2.386719 -0.0675,-1.332865 -0.29365,-2.991708 -1.14648,-4.365234 -0.87641,-1.459379 -2.42608,-2.176936 -3.70118,-2.59961 -1.27583,-0.422917 -2.37304,-0.537109 -2.37304,-0.537109 l -0.0488,-0.0059 -31.08008,0 z m 1.43555,1.90039 29.51953,0 c 0.0229,0.0025 0.89627,0.09628 1.94922,0.445313 1.06667,0.353583 2.194,0.978468 2.67187,1.775391 l 0.004,0.0078 0.006,0.0078 c 0.55151,0.882962 0.80573,2.292604 0.86523,3.466797 0.0583,1.150963 -0.0391,1.996687 -0.043,2.03125 l -3.91992,15.625 -10.73437,0 c 0.20942,-1.135154 1.34858,-7.385842 2.63476,-12.71289 0.7544,-3.123452 0.07,-5.134376 -0.97656,-6.230469 -1.04659,-1.096093 -2.37305,-1.255859 -2.37305,-1.255859 l -0.0566,-0.0078 -8.33593,0 -4.48047,15.626953 c -0.10683,0.123756 -0.8721,1.01413 -1.92188,2.09961 -0.56006,0.579114 -1.16627,1.176158 -1.71094,1.652343 -0.50093,0.43795 -0.9338,0.722683 -1.14062,0.828125 l -8.58398,0 6.62695,-23.359375 z"
     style="color:#000000;font-style:normal;font-variant:normal;font-weight:normal;font-stretch:normal;font-size:medium;line-height:normal;font-family:sans-serif;text-indent:0;text-align:start;text-decoration:none;text-decoration-line:none;text-decoration-style:solid;text-decoration-color:#000000;letter-spacing:normal;word-spacing:normal;text-transform:none;direction:ltr;block-progression:tb;writing-mode:lr-tb;baseline-shift:baseline;text-anchor:start;white-space:normal;clip-rule:nonzero;display:inline;overflow:visible;visibility:visible;opacity:1;isolation:auto;mix-blend-mode:normal;color-interpolation:sRGB;color-interpolation-filters:linearRGB;solid-color:#000000;solid-opacity:1;fill:#000000;fill-opacity:1;fill-rule:nonzero;stroke:none;stroke-width:1.60000002;stroke-linecap:butt;stroke-linejoin:miter;stroke-miterlimit:4;stroke-dasharray:none;stroke-dashoffset:0;stroke-opacity:1;color-rendering:auto;image-rendering:auto;shape-rendering:auto;text-rendering:auto;enable-background:accumulate" /><path
     inkscape:connector-curvature="0"
     id="path4183"
     d="m 419.80274,13.347656 -8.04492,25.257812 -0.25391,0 0,0.953125 -0.002,0.947266 12.5746,0 0.17578,-0.07227 c 0.62345,-0.260941 1.14254,-0.706824 1.72265,-1.242187 0.58011,-0.535364 1.17642,-1.163383 1.72266,-1.767578 1.09248,-1.208391 1.98242,-2.330079 1.98242,-2.330078 l 0.11914,-0.150391 4.0918,-14.644531 6.53906,0 c 0.0869,0.04519 0.55372,0.260941 1.07422,1.136718 0.56694,0.95392 1.05469,2.540315 0.39649,5.251954 -1.45387,5.811173 -3.75782,12.564453 -3.75782,12.564453 l -0.42968,1.255859 15.91992,0 4.46289,-17.201172 0.008,-0.06445 c 0,0 0.12231,-1.049584 0.0547,-2.386719 -0.0676,-1.337135 -0.29219,-3.002782 -1.15235,-4.378906 -0.90503,-1.446258 -2.4576,-2.1634 -3.73242,-2.585938 -1.27482,-0.422537 -2.36523,-0.537109 -2.36523,-0.537109 l -0.0488,-0.0059 -31.05664,0 z m 1.38867,1.90039 29.54102,0 c 0.0228,0.0025 0.88921,0.09592 1.94336,0.445313 1.06792,0.353963 2.21078,0.979274 2.71875,1.791015 0.55184,0.882876 0.80585,2.292683 0.86523,3.466797 0.0582,1.150886 -0.039,1.99669 -0.043,2.03125 l -4.05469,15.625 -11.8457,0 c 0.3857,-1.142286 2.09025,-6.116725 3.42773,-11.464843 l 0.002,-0.0039 0,-0.002 c 0.7528,-3.101361 0.20938,-5.297544 -0.60742,-6.671875 -0.81681,-1.37433 -1.94922,-1.964843 -1.94922,-1.964843 l -0.20313,-0.101563 -8.53906,0 -4.36914,15.646484 c -0.0939,0.117553 -0.80641,1.016614 -1.78906,2.103516 -0.52239,0.577805 -1.09097,1.173473 -1.60352,1.646484 -0.46964,0.433415 -0.87881,0.709245 -1.07031,0.810547 l -9.86328,0 7.43945,-23.357422 z"
     style="color:#000000;font-style:normal;font-variant:normal;font-weight:normal;font-stretch:normal;font-size:medium;line-height:normal;font-family:sans-serif;text-indent:0;text-align:start;text-decoration:none;text-decoration-line:none;text-decoration-style:solid;text-decoration-color:#000000;letter-spacing:normal;word-spacing:normal;text-transform:none;direction:ltr;block-progression:tb;writing-mode:lr-tb;baseline-shift:baseline;text-anchor:start;white-space:normal;clip-rule:nonzero;display:inline;overflow:visible;visibility:visible;opacity:1;isolation:auto;mix-blend-mode:normal;color-interpolation:sRGB;color-interpolation-filters:linearRGB;solid-color:#000000;solid-opacity:1;fill:#000000;fill-opacity:1;fill-rule:nonzero;stroke:none;stroke-width:1.60000002;stroke-linecap:butt;stroke-linejoin:miter;stroke-miterlimit:4;stroke-dasharray:none;stroke-dashoffset:0;stroke-opacity:1;color-rendering:auto;image-rendering:auto;shape-rendering:auto;text-rendering:auto;enable-background:accumulate"
     sodipodi:nodetypes="cccccccssccccsccccccscsccccccscsccccccsccccsscccc" /><path
     style="color:#000000;font-style:normal;font-variant:normal;font-weight:normal;font-stretch:normal;font-size:medium;line-height:normal;font-family:sans-serif;text-indent:0;text-align:start;text-decoration:none;text-decoration-line:none;text-decoration-style:solid;text-decoration-color:#000000;letter-spacing:normal;word-spacing:normal;text-transform:none;direction:ltr;block-progression:tb;writing-mode:lr-tb;baseline-shift:baseline;text-anchor:start;white-space:normal;clip-rule:nonzero;display:inline;overflow:visible;visibility:visible;opacity:1;isolation:auto;mix-blend-mode:normal;color-interpolation:sRGB;color-interpolation-filters:linearRGB;solid-color:#000000;solid-opacity:1;fill:#000000;fill-opacity:1;fill-rule:nonzero;stroke:none;stroke-width:1.60000002;stroke-linecap:butt;stroke-linejoin:miter;stroke-miterlimit:4;stroke-dasharray:none;stroke-dashoffset:0;stroke-opacity:1;color-rendering:auto;image-rendering:auto;shape-rendering:auto;text-rendering:auto;enable-background:accumulate"
     d="M 201.93359 13.345703 C 201.88679 13.346692 201.82741 13.349607 201.73242 13.367188 C 201.52079 13.394438 201.43763 13.475672 201.26367 13.605469 C 201.23537 13.625659 199.03819 15.191529 196.68555 16.919922 C 195.50167 17.789674 194.28542 18.695873 193.29492 19.460938 C 192.30441 20.226002 191.60946 20.757293 191.1875 21.232422 C 190.90186 21.55384 190.74123 21.886235 190.52734 22.339844 C 190.31345 22.793454 190.08447 23.345234 189.8457 23.972656 C 189.36815 25.2275 188.85249 26.778285 188.39453 28.351562 C 187.93656 29.92484 187.53676 31.514973 187.29492 32.857422 C 187.17399 33.528647 187.09279 34.13751 187.06641 34.671875 C 187.04001 35.206241 187.02831 35.647637 187.24414 36.150391 L 187.24609 36.154297 L 187.24805 36.160156 C 187.83913 37.496678 189.2048 38.355095 190.42383 39.117188 C 191.64287 39.879281 192.75781 40.412109 192.75781 40.412109 L 192.95117 40.505859 L 216.16016 40.505859 L 216.39062 40.361328 C 216.39062 40.361328 220.91051 37.538954 224.28711 35.294922 L 226.94336 33.529297 L 223.75586 33.552734 C 223.75586 33.552734 218.93076 33.589552 213.95898 33.607422 C 211.47309 33.616322 208.95055 33.619931 206.97852 33.613281 C 205.99251 33.609981 205.14215 33.60338 204.50781 33.59375 C 204.16242 33.58845 204.10296 33.584152 203.89844 33.576172 C 203.88294 33.427329 203.86433 33.313597 203.86133 33.097656 C 203.85533 32.669646 203.88676 32.167777 203.91016 31.673828 L 218.61523 31.673828 L 218.71484 31.652344 C 218.71484 31.652344 219.60176 31.45289 220.97656 30.794922 C 222.34991 30.137646 224.27878 29.00643 226.56445 27.111328 C 228.82038 25.265516 230.1188 24.250098 230.95312 23.152344 C 231.78745 22.054591 231.99219 20.876008 231.99219 19.347656 C 231.99219 15.88868 229.11523 13.570312 229.11523 13.570312 L 228.84961 13.345703 L 201.99219 13.345703 C 201.98719 13.34559 201.98001 13.345767 201.97461 13.345703 C 201.96201 13.345553 201.94999 13.345356 201.93359 13.345703 z M 202.24023 15.246094 L 228.08203 15.246094 C 228.4038 15.550959 230.09375 17.202818 230.09375 19.347656 C 230.09375 20.754304 230.01614 21.243206 229.43945 22.001953 C 228.86278 22.760699 227.6214 23.791437 225.36133 25.640625 L 225.35938 25.642578 L 225.35742 25.644531 C 223.18724 27.44482 221.39171 28.488795 220.15625 29.080078 C 218.96135 29.651954 218.41172 29.7652 218.37305 29.773438 L 202.08008 29.773438 L 202.04297 30.685547 C 202.01537 31.354081 201.94944 32.296858 201.96094 33.125 C 201.96694 33.53907 201.98424 33.919091 202.06836 34.292969 C 202.11046 34.479908 202.16346 34.668472 202.30469 34.890625 C 202.44591 35.112779 202.76575 35.404428 203.17578 35.447266 C 203.48339 35.483446 203.84029 35.484381 204.48047 35.494141 C 205.12831 35.504041 205.98051 35.510312 206.9707 35.513672 C 208.95108 35.520372 211.4766 35.516813 213.96484 35.507812 C 217.27984 35.495902 218.6962 35.482623 220.49609 35.470703 C 218.33919 36.853387 215.76735 38.506692 215.60938 38.605469 L 193.41016 38.605469 C 193.26663 38.535549 192.4602 38.148871 191.43164 37.505859 C 190.31758 36.809391 189.16422 35.782541 188.99023 35.394531 C 189.01333 35.446191 188.94494 35.168308 188.96484 34.765625 C 188.98494 34.359198 189.05445 33.81476 189.16602 33.195312 C 189.38921 31.956419 189.77603 30.410411 190.2207 28.882812 C 190.66536 27.355214 191.16736 25.840687 191.62109 24.648438 C 191.84795 24.052312 192.06385 23.534933 192.24609 23.148438 C 192.42833 22.761941 192.61756 22.482723 192.60742 22.494141 C 192.68942 22.401861 193.48793 21.711419 194.45703 20.962891 C 195.42612 20.214363 196.63359 19.315838 197.81055 18.451172 C 200.08421 16.780801 202.09568 15.349163 202.24023 15.246094 z M 209.51758 18.400391 L 209.41406 18.423828 C 209.41406 18.423828 207.72036 18.785495 206.31641 20.048828 C 205.74789 20.533556 204.89474 21.25198 204.25781 22.234375 C 203.61794 23.221288 203.21151 24.587598 203.73828 26.001953 L 203.96875 26.621094 L 213.32422 26.621094 L 213.50586 26.541016 C 216.43232 25.24967 218.23998 23.557435 219.30469 22.169922 C 220.3694 20.78241 220.72266 19.617188 220.72266 19.617188 L 221.07812 18.400391 L 209.51758 18.400391 z M 209.78711 20.300781 L 218.20508 20.300781 C 218.03798 20.603512 218.12768 20.58508 217.79883 21.013672 C 216.92844 22.14796 215.40687 23.57142 212.87695 24.720703 L 205.45703 24.720703 C 205.43173 24.219605 205.54034 23.752539 205.85352 23.269531 C 206.29316 22.591443 207.00008 21.960619 207.55859 21.484375 L 207.56836 21.474609 L 207.58008 21.464844 C 208.52459 20.610401 209.73744 20.313204 209.78711 20.300781 z "
     id="path4185" /><path
     inkscape:connector-curvature="0"
     id="path4187"
     d="m 387.50586,13.347656 -0.15625,0.05664 c 0,0 -3.71213,1.336964 -7.42968,4.134766 -3.71755,2.797802 -7.5625,7.164551 -7.5625,13.185547 0,4.834954 2.13199,7.466907 4.2832,8.673828 2.15121,1.206921 4.29883,1.107422 4.29883,1.107422 l 14.13867,0 0,0.002 1.64648,0 0,-0.002 13.91016,0 8.67773,-27.158203 -31.80664,0 z m 0.36133,1.90039 28.8418,0 -7.46094,23.357422 -11.92383,0 c 0.51964,-1.644423 3.99147,-12.631278 5.25586,-16.685547 l 0.004,-0.01172 0.004,-0.01172 c 0.19562,-0.684837 0.27618,-1.292327 0.0918,-1.894531 -0.18439,-0.602204 -0.7028,-1.070404 -1.22265,-1.279297 -1.03972,-0.417786 -2.19168,-0.322266 -3.67969,-0.322266 -1.56554,0 -3.15911,0.211553 -4.77539,1.367188 -1.61629,1.155634 -3.24669,3.149232 -5.35156,6.658203 -1.31164,2.182057 -1.55439,4.172783 -1.01563,5.798828 0.5389,1.626489 1.7676,2.799785 3.07617,3.650391 1.87378,1.218004 3.61207,1.713373 4.67578,1.970703 l -0.27148,0.759765 -13.23438,0 -0.0195,0.002 c 0,0 -1.64572,0.05589 -3.29101,-0.867187 -1.64529,-0.923079 -3.3125,-2.706579 -3.3125,-7.015625 0,-5.211004 3.33973,-9.058318 6.80468,-11.666016 3.36199,-2.530204 6.6076,-3.737839 6.80469,-3.810547 z m 9.91016,5.052735 c 1.50599,0 2.64167,0.05333 2.9707,0.185547 0.16452,0.06611 0.10041,0.02189 0.11524,0.07031 0.0148,0.04842 0.0394,0.318197 -0.10352,0.81836 -1.13348,3.63412 -3.68105,11.694727 -4.70117,14.923828 l -0.25391,-0.04687 c 0,0 -2.87823,-0.553414 -5.05859,-1.970703 -1.09018,-0.708645 -1.95661,-1.597849 -2.30664,-2.654297 -0.35004,-1.056449 -0.27458,-2.369416 0.83984,-4.222657 l 0,-0.002 c 2.04313,-3.406029 3.57341,-5.192728 4.82813,-6.089843 1.25471,-0.897116 2.24146,-1.011719 3.66992,-1.011719 z"
     style="color:#000000;font-style:normal;font-variant:normal;font-weight:normal;font-stretch:normal;font-size:medium;line-height:normal;font-family:sans-serif;text-indent:0;text-align:start;text-decoration:none;text-decoration-line:none;text-decoration-style:solid;text-decoration-color:#000000;letter-spacing:normal;word-spacing:normal;text-transform:none;direction:ltr;block-progression:tb;writing-mode:lr-tb;baseline-shift:baseline;text-anchor:start;white-space:normal;clip-rule:nonzero;display:inline;overflow:visible;visibility:visible;opacity:1;isolation:auto;mix-blend-mode:normal;color-interpolation:sRGB;color-interpolation-filters:linearRGB;solid-color:#000000;solid-opacity:1;fill:#000000;fill-opacity:1;fill-rule:nonzero;stroke:none;stroke-width:1.60000002;stroke-linecap:butt;stroke-linejoin:miter;stroke-miterlimit:4;stroke-dasharray:none;stroke-dashoffset:0;stroke-opacity:1;color-rendering:auto;image-rendering:auto;shape-rendering:auto;text-rendering:auto;enable-background:accumulate" /><g
     inkscape:groupmode="layer"
     id="layer4"
     inkscape:label="Layer 2"
     transform="translate(-48.216404,-15.209391)" /><g
     inkscape:groupmode="layer"
     id="layer3"
     inkscape:label="Layer 1"
     style="display:inline"
     transform="translate(-48.216404,-15.209391)"><g
       id="g4265"><path
         inkscape:connector-curvature="0"
         id="path4765"
         d="m 285.9266,63.328857 -0.74048,4.125523 1.86882,0 0.98731,-3.98448 z"
         style="fill:#f4f4f4;fill-opacity:1;fill-rule:evenodd;stroke:none;stroke-width:0.80000001;stroke-linecap:butt;stroke-linejoin:miter;stroke-miterlimit:4;stroke-dasharray:none;stroke-opacity:1" /><path
         sodipodi:nodetypes="ccccc"
         style="fill:#f4f4f4;fill-opacity:1;fill-rule:evenodd;stroke:none;stroke-width:0.80000001;stroke-linecap:butt;stroke-linejoin:miter;stroke-miterlimit:4;stroke-dasharray:none;stroke-opacity:1"
         d="m 288.81147,63.102501 -0.89192,4.176004 2.02026,-0.05048 0.98731,-3.98448 z"
         id="path4767"
         inkscape:connector-curvature="0" /><path
         id="path4763"
         transform="translate(48.216404,15.209391)"
         d="M 163.10938 48.402344 C 163.10938 48.402344 162.86553 51.332934 163.29102 53.296875 L 163.26562 56.367188 C 164.76517 56.220881 165.64872 56.367568 167.20508 56.214844 C 167.28968 55.479229 167.59838 55.857048 167.77148 54.869141 C 168.016 53.473659 167.64648 50.783203 167.64648 50.783203 L 179.71484 50.845703 C 181.3355 52.355712 179.07346 54.396631 177.06055 56.527344 C 175.04764 58.658064 171.39062 61.365234 171.39062 61.365234 L 168.85156 61.339844 C 168.85156 61.339844 166.50977 62.875739 166.50977 63.292969 L 177.11914 63.175781 L 182.44727 57.896484 C 185.37725 54.992541 186.72656 53.196184 186.72656 52.929688 C 186.72656 52.663184 187.50661 50.140942 186.67773 49.65625 L 185.26367 48.828125 L 175.23828 48.871094 L 163.10938 48.402344 z M 219.875 48.447266 L 216.39648 52.488281 C 214.48322 54.710983 212.78009 56.886861 212.61133 57.324219 C 212.42384 57.810052 218.24023 57.474609 218.24023 57.474609 L 219.45312 56.179688 C 219.45312 56.179688 229.4668 55.821567 229.4668 56.261719 C 229.4668 56.68683 227.39414 58.373745 226.44531 59.232422 C 225.49649 60.091106 224.36879 61.447538 223.94141 62.246094 L 223.16602 63.699219 L 226.82812 63.699219 L 230.48828 63.699219 L 233.74219 59.783203 C 235.53178 57.629474 238.19015 53.849005 238.7168 52.845703 C 239.25283 51.86425 236.80335 53.255635 236.48633 52.230469 C 236.23418 51.415076 236.81055 48.509766 236.81055 48.509766 C 236.81055 48.509766 233.53313 48.594769 228.70898 48.542969 L 219.875 48.447266 z M 212.08008 48.449219 C 211.0429 48.471119 210.00586 48.542969 210.00586 48.542969 L 208.47266 49.898438 L 200.46094 60.560547 C 200.46094 60.560547 197.88891 60.980137 194.75977 60.910156 C 192.39481 60.857266 188.76953 61.064453 188.76953 61.064453 C 188.76953 61.064453 186.79037 63.128354 186.39258 63.380859 C 185.54562 63.918487 190.47658 63.699219 194.66797 63.699219 L 202.28906 63.699219 L 207.79688 59.107422 C 207.79688 59.107422 209.43831 56.519697 211.24414 53.830078 C 212.86113 51.421689 214.38215 48.813041 214.56445 48.453125 C 214.56445 48.453125 213.11726 48.427319 212.08008 48.449219 z M 253.60156 48.888672 L 253.60156 50.115234 L 253.60156 51.341797 L 259.63672 51.501953 C 262.88772 51.63517 266.29127 51.256006 266.44336 51.716797 C 266.49686 51.878893 267.63073 52.696584 266.66211 53.431641 C 264.87724 54.786143 259.99686 56.549144 256.61523 58.283203 C 251.39848 60.958302 247.13086 63.272443 247.13086 63.423828 C 247.13086 63.575214 248.82219 63.699219 250.88867 63.699219 C 252.04335 63.699219 254.07617 63.671875 254.07617 63.671875 C 254.07617 63.671875 256.40264 62.263809 257.65234 61.615234 L 262.67578 59.042969 C 262.6758 59.042969 265.77183 62.145006 267.71484 63.625 C 267.71484 63.625 269.59714 63.681635 270.99219 63.671875 L 274.74805 63.646484 L 273.46289 62.642578 C 272.75575 62.090226 270.98594 60.585904 269.41602 59.453125 L 266.16016 57.105469 C 268.56628 55.740033 270.64381 54.630714 273.16016 53.472656 C 273.16016 53.472656 273.97371 52.458085 273.87695 51.103516 C 274.02208 49.748946 273.63176 49.466197 273.09961 48.982422 C 266.5998 49.020212 260.10023 49.069842 253.60156 48.888672 z M 203.54297 49.009766 L 197.10938 49.064453 C 194.59866 49.003513 191.07227 49.015452 191.07227 49.205078 C 191.07227 49.394701 190.8475 50.136305 190.57227 50.853516 L 190.07031 52.15625 L 195.39062 52.15625 L 201.33789 52.107422 L 203.54297 49.009766 z M 223.25391 51.585938 C 223.25391 51.585938 226.18379 51.683594 228.01953 51.683594 C 230.31139 51.683594 230.69922 51.699342 230.69922 52.585938 L 231.04102 54.291016 L 226.64062 54.291016 L 221.06445 54.248047 L 223.25391 51.585938 z M 250.5 55.5 L 240.14648 55.552734 C 240.14648 55.552734 238.55273 58.395825 238.55273 58.652344 L 248.65234 58.751953 L 250.5 55.5 z "
         style="opacity:1;fill:#f4f4f4;fill-opacity:1;stroke:none;stroke-width:1.30000007;stroke-miterlimit:4;stroke-dasharray:none;stroke-opacity:1" /><path
         sodipodi:nodetypes="ccccscssccsscccccsccscccccscccccsccccccs"
         inkscape:connector-curvature="0"
         style="opacity:1;fill:#f4f4f4;fill-opacity:1;stroke:none;stroke-width:1.30000007;stroke-miterlimit:4;stroke-dasharray:none;stroke-opacity:1"
         d="m 376.02866,63.658578 c -1.03718,0.0219 -2.07421,0.09375 -2.07421,0.09375 l -1.53334,1.356085 -8.01278,10.66206 c 0,0 -2.57084,0.419024 -5.69998,0.349043 -2.36496,-0.05289 -5.99044,0.155005 -5.99044,0.155005 0,0 -1.97913,2.06353 -2.37692,2.316035 -0.84696,0.537628 4.08418,0.318019 8.27557,0.318019 l 7.62109,0 5.5066,-4.592194 c 0,0 1.64265,-2.587327 3.44848,-5.276946 1.61699,-2.408389 3.13835,-5.017208 3.32065,-5.377124 0,0 -1.44754,-0.0256 -2.48472,-0.0037 z m -48.9707,-0.04722 c 0,0 -0.24385,2.930931 0.18164,4.894872 l -0.0254,3.070313 c 1.49955,-0.146307 2.38264,3.8e-4 3.939,-0.152344 0.0846,-0.735615 0.39408,-0.357869 0.56718,-1.345776 0.24452,-1.395482 -0.12571,-4.085865 -0.12571,-4.085865 l 12.06875,0.0625 c 1.62066,1.510009 -0.64139,3.550928 -2.6543,5.681641 -2.01291,2.13072 -5.671,4.838288 -5.671,4.838288 l -2.53798,-0.02579 c 0,0 -2.34197,1.536065 -2.34197,1.953295 l 10.60955,-0.117357 5.32812,-5.279297 c 2.92998,-2.903943 4.2793,-4.7003 4.2793,-4.966797 0,-0.266504 0.78008,-2.788746 -0.0488,-3.273438 l -1.41406,-0.828125 -10.02539,0.04297 z m 33.99978,0.662615 c -2.51072,-0.06094 -6.03689,-0.04917 -6.03689,0.140456 0,0.189623 -0.22477,0.931226 -0.5,1.648437 l -0.50195,1.302734 5.32031,0 5.94727,-0.04838 2.20508,-3.098107 z"
         id="path4270" /><path
         style="color:#000000;font-style:normal;font-variant:normal;font-weight:normal;font-stretch:normal;font-size:medium;line-height:normal;font-family:sans-serif;text-indent:0;text-align:start;text-decoration:none;text-decoration-line:none;text-decoration-style:solid;text-decoration-color:#000000;letter-spacing:normal;word-spacing:normal;text-transform:none;direction:ltr;block-progression:tb;writing-mode:lr-tb;baseline-shift:baseline;text-anchor:start;white-space:normal;clip-rule:nonzero;display:inline;overflow:visible;visibility:visible;opacity:1;isolation:auto;mix-blend-mode:normal;color-interpolation:sRGB;color-interpolation-filters:linearRGB;solid-color:#000000;solid-opacity:1;fill:#000000;fill-opacity:1;fill-rule:evenodd;stroke:none;stroke-width:1;stroke-linecap:butt;stroke-linejoin:miter;stroke-miterlimit:4;stroke-dasharray:none;stroke-dashoffset:0;stroke-opacity:1;color-rendering:auto;image-rendering:auto;shape-rendering:auto;text-rendering:auto;enable-background:accumulate"
         d="m 285.57385,62.381996 -0.34187,0.249078 -0.7104,3.607109 0.008,1.060671 0.24334,0.345202 0.49618,0.159771 1.20416,-0.04816 0.74135,1.019589 0.3699,-1.141001 1.14732,-5.041323 z m 0.60742,0.972505 1.57903,0.0891 -0.86779,3.277796 -1.53711,-0.01683 z"
         id="path4291"
         inkscape:connector-curvature="0"
         sodipodi:nodetypes="cccccccccccccccc" /><path
         style="color:#000000;font-style:normal;font-variant:normal;font-weight:normal;font-stretch:normal;font-size:medium;line-height:normal;font-family:sans-serif;text-indent:0;text-align:start;text-decoration:none;text-decoration-line:none;text-decoration-style:solid;text-decoration-color:#000000;letter-spacing:normal;word-spacing:normal;text-transform:none;direction:ltr;block-progression:tb;writing-mode:lr-tb;baseline-shift:baseline;text-anchor:start;white-space:normal;clip-rule:nonzero;display:inline;overflow:visible;visibility:visible;opacity:1;isolation:auto;mix-blend-mode:normal;color-interpolation:sRGB;color-interpolation-filters:linearRGB;solid-color:#000000;solid-opacity:1;fill:#000000;fill-opacity:1;fill-rule:evenodd;stroke:none;stroke-width:1;stroke-linecap:butt;stroke-linejoin:miter;stroke-miterlimit:4;stroke-dasharray:none;stroke-dashoffset:0;stroke-opacity:1;color-rendering:auto;image-rendering:auto;shape-rendering:auto;text-rendering:auto;enable-background:accumulate"
         d="m 288.39844,62.574219 -0.0801,0.439453 -0.8457,4.714844 2.85742,0 1.22656,-4.94336 -3.1582,-0.210937 z m 0.52328,0.871543 1.59586,0.105924 -0.9351,3.277796 -1.53711,-0.05048 z"
         id="path4293"
         inkscape:connector-curvature="0"
         sodipodi:nodetypes="cccccccccccc" /><path
         style="color:#000000;font-style:normal;font-variant:normal;font-weight:normal;font-stretch:normal;font-size:medium;line-height:normal;font-family:sans-serif;text-indent:0;text-align:start;text-decoration:none;text-decoration-line:none;text-decoration-style:solid;text-decoration-color:#000000;letter-spacing:normal;word-spacing:normal;text-transform:none;direction:ltr;block-progression:tb;writing-mode:lr-tb;baseline-shift:baseline;text-anchor:start;white-space:normal;clip-rule:nonzero;display:inline;overflow:visible;visibility:visible;opacity:1;isolation:auto;mix-blend-mode:normal;color-interpolation:sRGB;color-interpolation-filters:linearRGB;solid-color:#000000;solid-opacity:1;fill:#000000;fill-opacity:1;fill-rule:nonzero;stroke:none;stroke-width:1.30000007;stroke-linecap:butt;stroke-linejoin:miter;stroke-miterlimit:4;stroke-dasharray:none;stroke-dashoffset:0;stroke-opacity:1;color-rendering:auto;image-rendering:auto;shape-rendering:auto;text-rendering:auto;enable-background:accumulate"
         d="m 210.73047,62.9375 -0.0527,0.619141 c 0,0 -0.26939,2.942931 0.19532,5.08789 L 210.85742,68.5 l -0.0312,3.792969 0.71875,-0.07031 c 1.43321,-0.139834 2.31905,0.0067 3.93946,-0.152344 l 0.52343,-0.05078 0.0586,-0.521484 c 0.0306,-0.265887 -0.0448,-0.06832 0.0879,-0.214844 0.13269,-0.146521 0.37426,-0.519106 0.47461,-1.091797 0.14414,-0.822622 0.10071,-1.85754 0.0371,-2.726562 -0.0334,-0.45572 -0.0515,-0.534328 -0.084,-0.81836 l 10.98828,0.05664 c 0.14758,0.18605 0.27081,0.354995 0.26367,0.554687 -0.009,0.261616 -0.14346,0.628521 -0.41601,1.056641 -0.5451,0.85624 -1.5945,1.898162 -2.61328,2.976563 -1.8792,1.989179 -5.2442,4.491504 -5.4336,4.632812 l -2.49414,-0.02734 -0.16601,0.109375 c 0,0 -0.59577,0.390797 -1.20117,0.841797 -0.3027,0.2255 -0.60919,0.464361 -0.85938,0.695313 -0.12509,0.115475 -0.23584,0.227403 -0.33594,0.355469 -0.10009,0.128065 -0.23828,0.247316 -0.23828,0.603515 l 0,0.658203 11.5293,-0.128906 5.51562,-5.462891 c 1.47716,-1.464025 2.55988,-2.652752 3.28125,-3.519531 0.36069,-0.433389 0.63018,-0.785205 0.82032,-1.0625 0.0951,-0.138648 0.16952,-0.256265 0.23046,-0.371094 0.0609,-0.114829 0.14063,-0.168995 0.14063,-0.476562 0,0.125237 -3.9e-4,0.02255 0.0176,-0.06445 0.018,-0.087 0.0454,-0.211567 0.0762,-0.355469 0.0615,-0.287805 0.13785,-0.659238 0.1875,-1.052734 0.0497,-0.393497 0.0767,-0.80639 0.0195,-1.212891 -0.0572,-0.406501 -0.21424,-0.880835 -0.67187,-1.148437 l -1.56641,-0.917969 -10.18945,0.04297 -12.73633,-0.492188 z m 50.2168,0.05664 -0.66407,0.01367 c -1.05803,0.02234 -2.10547,0.0957 -2.10547,0.0957 l -0.2207,0.01563 -1.74805,1.546875 -7.875,10.476562 c -0.20229,0.03189 -2.41128,0.391755 -5.34375,0.326172 -2.41787,-0.05407 -6.04101,0.15625 -6.04101,0.15625 l -0.25586,0.01563 -0.17578,0.183594 c 0,0 -0.49189,0.512413 -1.03125,1.054687 -0.26968,0.271137 -0.55169,0.550119 -0.78516,0.771485 -0.23347,0.221365 -0.4723,0.411477 -0.43945,0.390625 -0.10895,0.06915 -0.26282,0.142422 -0.36133,0.435546 -0.0493,0.146563 -0.0441,0.357311 0.0234,0.509766 0.0676,0.152455 0.16546,0.2406 0.24219,0.296875 0.30691,0.2251 0.46422,0.196355 0.70312,0.228516 0.4778,0.06432 1.14952,0.08362 1.98438,0.08984 1.66971,0.01244 3.9469,-0.04297 6.03125,-0.04297 l 7.85742,0 5.76367,-4.808594 0.0547,-0.08594 c 0,0 1.63947,-2.580812 3.43945,-5.261718 0.81645,-1.216046 1.60563,-2.477643 2.21484,-3.482422 0.60922,-1.00478 1.01205,-1.699419 1.14649,-1.964844 l 0.46875,-0.923828 -1.03711,-0.01953 c 0,0 -1.00908,-0.0034 -1.8457,-0.002 l 0,-0.01563 z m 6.84961,0.0098 -0.19727,0.228516 -3.47852,4.041016 c -0.96283,1.118557 -1.87217,2.224377 -2.5664,3.111328 -0.34712,0.443475 -0.64066,0.83118 -0.86328,1.144531 -0.22263,0.31335 -0.36149,0.486495 -0.47071,0.769531 -0.0555,0.143892 -0.0612,0.360468 0.004,0.521484 0.0651,0.161017 0.16692,0.255062 0.24609,0.314454 0.15834,0.118782 0.26774,0.144419 0.37891,0.173828 0.22235,0.05882 0.45358,0.08175 0.73242,0.101562 0.55769,0.03963 1.27555,0.04296 2,0.03125 1.4489,-0.02343 2.97735,-0.37035 2.97735,-0.37035 0.62629,-0.09869 0.97009,-0.579795 1.3996,-1.037851 0.24502,-0.0086 2.36545,-0.08486 4.72657,-0.117187 1.24689,-0.01707 2.49434,-0.02002 3.41406,0.0078 0.15689,0.0047 0.23121,0.01484 0.36719,0.02148 -0.12897,0.125517 -0.22527,0.23049 -0.37696,0.369141 -0.62182,0.568404 -1.37124,1.199241 -1.86328,1.644531 -1.01134,0.915266 -2.13328,2.241479 -2.64062,3.189454 l -0.002,0 -1.28515,2.410156 4.74609,0 3.96485,0 3.44921,-4.150391 c 0.9081,-1.092866 1.93389,-2.434088 2.80469,-3.634765 0.86789,-1.196649 1.56297,-2.21249 1.87695,-2.808594 l 0,-0.002 c 0.11308,-0.207515 0.22801,-0.520327 0.0703,-0.859375 -0.15805,-0.339814 -0.46794,-0.444679 -0.66211,-0.484375 -1.31143,0.15915 -1.17972,-0.125812 -1.47328,-0.452932 0.0461,-0.389913 0.1429,-1.183416 0.23853,-1.633434 0.19126,-0.900036 -0.16763,-1.616768 -0.16763,-1.616768 l 0.23438,-0.841797 -0.875,0.01953 c 0,0 -2.75629,0.05953 -7.57227,0.0078 l -9.13671,-0.09766 z m 34.67187,0.423828 -0.66992,0.02148 -0.61672,0.01433 -0.0141,0.634103 0,1.226563 0,1.859375 6.66797,0.177734 c 1.65653,0.06732 3.33194,0.0047 4.59375,-0.01563 0.63224,-0.01018 1.16413,-0.008 1.50781,0.01953 0.14074,0.01127 0.21881,0.02716 0.27344,0.03906 0.006,0.0054 0.0177,0.03244 0.0234,0.03906 0.0466,0.05348 0.0896,0.09981 0.13281,0.148438 0.0865,0.09726 0.17,0.202901 0.21289,0.283203 0.0429,0.0803 0.0388,0.111213 0.0391,0.109375 2.9e-4,-0.0018 0.0145,0.02691 -0.13281,0.138672 -0.77336,0.586884 -2.43629,1.383435 -4.29492,2.207031 -1.85863,0.823596 -3.93205,1.699834 -5.65625,2.583984 -2.61206,1.339437 -4.98543,2.588061 -6.71094,3.523438 -0.86276,0.467688 -1.56267,0.856482 -2.05469,1.142578 -0.24601,0.143048 -0.43888,0.260562 -0.58398,0.355469 -0.0725,0.04745 -0.13134,0.0873 -0.19336,0.136719 -0.031,0.02471 -0.0626,0.04905 -0.10938,0.09961 -0.0234,0.02528 -0.0515,0.05525 -0.0879,0.115234 -0.0182,0.02999 -0.0391,0.06869 -0.0586,0.123047 -0.01,0.02718 -0.0181,0.05869 -0.0254,0.0957 -0.007,0.03701 -0.0137,0.126362 -0.0137,0.126953 0,0.312045 0.19445,0.487553 0.29101,0.556641 0.0966,0.06909 0.16081,0.09073 0.21875,0.111328 0.11587,0.0412 0.2113,0.06027 0.32617,0.08008 0.22976,0.03962 0.51858,0.06987 0.8711,0.0957 0.70503,0.05168 1.65493,0.08203 2.70117,0.08203 1.16494,0 3.19531,-0.02734 3.19531,-0.02734 l 0.17774,-0.002 0.15039,-0.0918 c 0,0 2.33562,-1.411436 3.53711,-2.035156 l 4.62109,-2.365235 c 0.38098,0.380675 2.86504,2.876722 4.75,4.3125 l 0.16601,0.126953 0.20899,0.0059 c 0,0 1.88377,0.05874 3.30078,0.04883 l 5.62305,-0.03711 -2.75586,-2.154297 c -0.67058,-0.523792 -2.46303,-2.048157 -4.06641,-3.205078 l -2.39844,-1.730469 c 2.01476,-1.125541 3.86636,-2.133646 6.03321,-3.130859 l 0.14062,-0.06445 0.0957,-0.121093 c 0,0 0.9354,-1.168493 0.8457,-2.773438 0.0663,-0.700899 0.0201,-1.244098 -0.1875,-1.671875 -0.21583,-0.444778 -0.53485,-0.700533 -0.78906,-0.93164 l -0.1875,-0.169922 -0.25391,0 c -6.28939,0.03657 -12.57054,0.07275 -18.84375,-0.08789 l 0,-0.02539 z m -49.44141,0.13086 -7.70703,0.06445 0.0215,0.002 c -1.26376,-0.03067 -2.77779,-0.04463 -3.98633,-0.02539 -0.60427,0.0096 -1.13002,0.02811 -1.52344,0.05664 -0.19671,0.01427 -0.35603,0.02826 -0.50195,0.05469 -0.073,0.01321 -0.13886,0.02619 -0.24024,0.06641 -0.0507,0.02011 -0.113,0.04299 -0.20507,0.11914 -0.0921,0.07615 -0.2461,0.25984 -0.2461,0.517578 0,-0.08101 -7.7e-4,2.12e-4 -0.0215,0.08789 -0.0207,0.08768 -0.0551,0.209388 -0.0977,0.349609 -0.085,0.280444 -0.20592,0.634617 -0.33789,0.978516 l -0.8418,2.185547 6.26954,0 6.2832,-0.05078 3.13476,-4.40625 z m -41.03125,0.730468 11.44727,0.441407 9.86133,-0.04297 1.26172,0.738281 c -0.0432,-0.02526 0.0113,-0.0021 0.041,0.208985 0.0297,0.211067 0.0183,0.536224 -0.0234,0.867187 -0.0418,0.330964 -0.10913,0.670096 -0.16796,0.945313 -0.0294,0.137608 -0.0567,0.259442 -0.0781,0.363281 -0.0214,0.103839 -0.0449,0.136261 -0.0449,0.328125 0,-0.240943 0.036,-0.178575 0.0117,-0.132813 -0.0243,0.04576 -0.0771,0.133483 -0.1543,0.246094 -0.15443,0.225222 -0.40516,0.552839 -0.74805,0.964844 -0.68578,0.82401 -1.74248,1.987817 -3.19531,3.427734 l -5.14258,5.09375 -8.69726,0.0957 c 0.44604,-0.326945 0.78458,-0.556036 0.90039,-0.632812 l 2.55078,0.02539 0.17383,-0.128906 c 0,0 3.6637,-2.697395 5.75781,-4.914062 0.99413,-1.052312 2.08164,-2.097475 2.76562,-3.171875 0.342,-0.5372 0.59531,-1.096653 0.61719,-1.708985 0.0219,-0.612331 -0.24404,-1.243961 -0.75781,-1.722656 l -0.18555,-0.173828 -13.07226,-0.06836 0.10156,0.74414 c 0,0 0.09,0.653476 0.15039,1.478516 0.0604,0.82504 0.0789,1.83339 -0.0215,2.40625 -0.0728,0.415216 -0.0717,0.347873 -0.15821,0.443359 -0.0351,0.03871 -0.0984,0.262541 -0.16797,0.38086 -1.02305,0.07372 -1.88792,0.06511 -2.88281,0.111328 l 0.0195,-2.462891 -0.0156,-0.07031 c -0.3351,-1.546741 -0.1839,-3.470617 -0.14649,-4.080079 z m 48.31446,0.01953 c 0.55235,-0.01166 0.83472,-0.0024 1.33984,0.002 -0.19324,0.333141 -0.2472,0.441297 -0.54687,0.935547 -0.60129,0.991706 -1.38111,2.239297 -2.18164,3.43164 -1.78017,2.651392 -3.34262,5.111328 -3.39844,5.199219 l -5.25391,4.380859 -7.38476,0 c -2.10705,0 -4.38952,0.05513 -6.02149,0.04297 -0.41586,-0.0031 -0.61349,-0.02551 -0.92773,-0.03906 0.15873,-0.155485 0.31256,-0.30389 0.47265,-0.464844 0.45086,-0.453295 0.72439,-0.738698 0.85938,-0.878906 0.27787,-0.01547 3.47829,-0.198019 5.69531,-0.148438 3.19508,0.07146 5.81836,-0.357422 5.81836,-0.357422 l 0.25781,-0.04297 8.13086,-10.81836 1.31055,-1.160156 c 0.18159,-0.01206 0.91967,-0.06281 1.83008,-0.08203 z m 8.07617,0.002 8.53125,0.0918 c 4.29829,0.04615 7.47358,-0.125974 8.01281,-0.136176 -0.0852,0.332409 0.26082,0.647755 0.15278,1.156286 -0.10059,0.473373 0.0797,0.690003 0.0259,1.14552 0.076,1.049131 -0.20993,0.188051 -0.0699,0.674324 0.21693,0.133448 -0.0362,0.591934 0.44267,0.556464 0.57496,-0.0523 0.9578,-0.01418 1.03571,-0.02508 -0.32264,0.523317 -1.63025,2.305677 -2.30504,3.236089 -0.8558,1.179986 -1.87241,2.505543 -2.75391,3.566406 l -3.05859,3.68164 -3.35547,0 -2.57812,0 0.26562,-0.496093 -0.002,0 c 0.34741,-0.649138 1.48089,-2.035789 2.36719,-2.837891 0.45678,-0.413386 1.21763,-1.054858 1.86914,-1.65039 0.32575,-0.297767 0.62411,-0.583562 0.85937,-0.84375 0.11763,-0.130095 0.22037,-0.25139 0.3086,-0.384766 0.0882,-0.133376 0.19921,-0.255086 0.19921,-0.572266 0,-0.321822 -0.21687,-0.515367 -0.32617,-0.585937 -0.1093,-0.07057 -0.18359,-0.09066 -0.2539,-0.111328 -0.14063,-0.04134 -0.26828,-0.05974 -0.42383,-0.07813 -0.31111,-0.03677 -0.71253,-0.05973 -1.19141,-0.07422 -0.95776,-0.02899 -2.21428,-0.02502 -3.4707,-0.0078 -2.51284,0.03441 -5.02149,0.125 -5.02149,0.125 l -0.26757,0.0078 -1.27813,1.231631 c -0.22343,0.01243 -1.25144,0.140144 -2.53828,0.160944 -0.63022,0.01019 -1.21692,0.0015 -1.68555,-0.02344 0.19316,-0.266014 0.41352,-0.564138 0.70117,-0.931641 0.67784,-0.866003 1.57692,-1.960309 2.52735,-3.064453 l 3.28125,-3.810547 z m 34.08203,0.441406 c 6.19485,0.157921 12.38321,0.124114 18.56445,0.08789 0.13707,0.130368 0.28784,0.261973 0.33985,0.36914 0.0756,0.155882 0.13776,0.421906 0.0723,1.033204 l -0.006,0.05859 0.004,0.05859 c 0.0708,0.990539 -0.43998,1.712992 -0.52539,1.830078 -2.44646,1.133886 -4.51123,2.226901 -6.86133,3.560547 l -0.88086,0.5 4.07617,2.939453 c 1.46563,1.057525 3.04661,2.396287 3.8418,3.027344 l -1.88867,0.01367 c -1.27583,0.0089 -2.78709,-0.03603 -3.02344,-0.04297 -1.87274,-1.466106 -4.83008,-4.394531 -4.83008,-4.394531 l -0.33398,-0.333985 -5.44727,2.78711 0,0.002 c -1.24084,0.643977 -3.26336,1.869528 -3.45312,1.984375 -0.1939,0.0026 -1.92709,0.02539 -3.01172,0.02539 -0.69825,0 -1.22834,-0.02812 -1.7832,-0.05273 0.3646,-0.203445 0.64603,-0.367477 1.12109,-0.625 1.71248,-0.928315 4.08085,-2.174103 6.68555,-3.509766 1.65742,-0.849908 3.7147,-1.720736 5.58789,-2.550781 1.87318,-0.830044 3.54317,-1.59371 4.55468,-2.361328 0.33703,-0.255762 0.57242,-0.603748 0.63086,-0.970703 0.0584,-0.366955 -0.0496,-0.689516 -0.17578,-0.925781 -0.12619,-0.236265 -0.27781,-0.410536 -0.38867,-0.535157 -0.0554,-0.06231 -0.10116,-0.111588 -0.12305,-0.136718 -0.0219,-0.02513 -0.0124,-0.09416 0.0625,0.132812 -0.13625,-0.412804 -0.44165,-0.497093 -0.63476,-0.554687 -0.19311,-0.0576 -0.38214,-0.08204 -0.60156,-0.09961 -0.43886,-0.03514 -0.98879,-0.03185 -1.63282,-0.02148 -1.28805,0.02073 -2.93632,0.08082 -4.52734,0.01563 l -0.006,0 -5.40625,-0.144531 0,-0.59375 0,-0.572266 z m -51.97656,0.128906 -1.27539,1.789063 -5.61133,0.04492 -4.36914,0 0.16015,-0.417969 0,-0.002 c 0.14326,-0.373312 0.27104,-0.74934 0.36719,-1.066406 0.0299,-0.09847 0.0511,-0.179166 0.0742,-0.265625 0.0367,-0.0033 0.0462,-0.0067 0.0879,-0.0098 0.3462,-0.0251 0.86006,-0.04332 1.45117,-0.05273 1.18223,-0.01882 2.68663,-0.0068 3.9336,0.02344 l 0.01,0 0.0117,0 5.16016,-0.04297 z m 20.67773,1.253907 -3.25781,3.96289 6.94336,0.05273 5.19531,0 -0.49805,-2.482422 0.0137,0.126953 c 0,-0.269005 -0.0198,-0.549348 -0.1836,-0.835938 -0.1638,-0.286589 -0.47037,-0.48354 -0.75976,-0.570312 -0.5788,-0.173544 -1.23923,-0.146484 -2.38672,-0.146484 -1.81276,0 -4.7461,-0.0957 -4.7461,-0.0957 l -0.32031,-0.01172 z m 0.60156,1.316406 c 0.35272,0.0115 2.73196,0.0918 4.46485,0.0918 1.14437,0 1.82377,0.03544 2.01172,0.0918 0.094,0.02818 0.0273,0.0029 0.008,-0.03125 -0.0195,-0.03414 0.01,0.01711 0.01,0.191406 l 0,0.06445 0.19922,0.990234 -3.60546,0 -4.21094,-0.0332 1.12304,-1.365234 z m 28.06446,2.601562 -1.12305,0.0059 -10.73242,0.05469 -0.18359,0.330078 c 0,0 -0.40062,0.715141 -0.80274,1.464844 -0.20106,0.374852 -0.40313,0.757395 -0.55859,1.072266 -0.0777,0.157435 -0.14334,0.297917 -0.19532,0.419922 -0.026,0.061 -0.0478,0.116218 -0.0684,0.177734 -0.0206,0.06152 -0.0527,0.0989 -0.0527,0.283203 l 0,0.644531 11.12695,0.109375 2.58985,-4.5625 z m -2.23828,1.3125 -1.10547,1.941407 -8.7168,-0.08594 c 0.11655,-0.226834 0.23002,-0.448809 0.36328,-0.697265 0.3044,-0.567504 0.48555,-0.891085 0.60938,-1.113282 z"
         id="path4297"
         inkscape:connector-curvature="0"
         sodipodi:nodetypes="ccccccccccsccccsscccsccscccsccccccscccccccccccscccssccccssscccsscccccccccscccssssccscccsccccccscccccscccccccccccccccccccccssssccccccsccccsccccccccccccccccccccccccccccccccccccccccccccccccscccsccccccscccccccccccccccccssccsscscscccccccccsccccsccccccssscsssccccccscscccccccccccccccccccccscssssccccccsscccccccccccccccscccccccccccsssccccsccsccccccccccscccscccccccccc" /><path
         style="color:#000000;font-style:normal;font-variant:normal;font-weight:normal;font-stretch:normal;font-size:medium;line-height:normal;font-family:sans-serif;text-indent:0;text-align:start;text-decoration:none;text-decoration-line:none;text-decoration-style:solid;text-decoration-color:#000000;letter-spacing:normal;word-spacing:normal;text-transform:none;direction:ltr;block-progression:tb;writing-mode:lr-tb;baseline-shift:baseline;text-anchor:start;white-space:normal;clip-rule:nonzero;display:inline;overflow:visible;visibility:visible;opacity:1;isolation:auto;mix-blend-mode:normal;color-interpolation:sRGB;color-interpolation-filters:linearRGB;solid-color:#000000;solid-opacity:1;fill:#000000;fill-opacity:1;fill-rule:nonzero;stroke:none;stroke-width:1.30000007;stroke-linecap:butt;stroke-linejoin:miter;stroke-miterlimit:4;stroke-dasharray:none;stroke-dashoffset:0;stroke-opacity:1;color-rendering:auto;image-rendering:auto;shape-rendering:auto;text-rendering:auto;enable-background:accumulate"
         d="m 326.46094,62.9375 -0.0508,0.619141 c 0,0 -0.27135,2.942931 0.19336,5.08789 L 326.58984,68.5 l -0.0312,3.792969 0.71875,-0.07031 c 1.43322,-0.139834 2.31905,0.0067 3.93946,-0.152344 l 0.52148,-0.05078 0.0606,-0.521484 c 0.0306,-0.265887 -0.0468,-0.06832 0.0859,-0.214844 0.13269,-0.146521 0.37621,-0.519106 0.47656,-1.091797 0.14414,-0.822622 0.10071,-1.85754 0.0371,-2.726562 -0.0334,-0.45572 -0.0515,-0.534328 -0.084,-0.81836 l 10.98828,0.05664 c 0.14759,0.18605 0.27081,0.354995 0.26368,0.554687 -0.009,0.261616 -0.14347,0.628521 -0.41602,1.056641 -0.5451,0.85624 -1.5945,1.898162 -2.61328,2.976563 -1.8792,1.989179 -5.2442,4.491504 -5.43359,4.632812 l -2.49414,-0.02734 -0.16602,0.109375 c 0,0 -0.59773,0.390797 -1.20313,0.841797 -0.3027,0.2255 -0.60723,0.464361 -0.85742,0.695313 -0.12509,0.115475 -0.23584,0.227403 -0.33593,0.355469 -0.1001,0.128065 -0.23829,0.247316 -0.23829,0.603515 l 0,0.658203 11.5293,-0.128906 5.51563,-5.462891 c 1.47715,-1.464025 2.55987,-2.652752 3.28125,-3.519531 0.36068,-0.433389 0.63018,-0.785205 0.82031,-1.0625 0.0951,-0.138648 0.16952,-0.256265 0.23047,-0.371094 0.0609,-0.114829 0.13867,-0.168995 0.13867,-0.476562 0,0.125237 0.002,0.02255 0.0195,-0.06445 0.018,-0.087 0.0454,-0.211567 0.0762,-0.355469 0.0615,-0.287805 0.13785,-0.659238 0.1875,-1.052734 0.0496,-0.393497 0.0767,-0.80639 0.0195,-1.212891 -0.0572,-0.406501 -0.21424,-0.880835 -0.67187,-1.148437 l -1.56836,-0.917969 -10.18945,0.04297 -12.73633,-0.492188 z m 50.21679,0.05664 -0.66211,0.01367 c -1.05803,0.02234 -2.10546,0.0957 -2.10546,0.0957 l -0.22071,0.01563 -1.74804,1.546875 -7.875,10.476562 c -0.20229,0.03189 -2.41129,0.391755 -5.34375,0.326172 -2.41787,-0.05407 -6.04102,0.15625 -6.04102,0.15625 l -0.25586,0.01563 -0.17773,0.183594 c 0,0 -0.49189,0.512413 -1.03125,1.054687 -0.26968,0.271137 -0.54974,0.550119 -0.78321,0.771485 -0.23346,0.221365 -0.47425,0.411477 -0.4414,0.390625 -0.10895,0.06915 -0.26086,0.142422 -0.35938,0.435546 -0.0493,0.146563 -0.0441,0.357311 0.0234,0.509766 0.0676,0.152455 0.16351,0.2406 0.24023,0.296875 0.30692,0.2251 0.46618,0.196355 0.70508,0.228516 0.4778,0.06432 1.14757,0.08362 1.98242,0.08984 1.66971,0.01244 3.94886,-0.04297 6.03321,-0.04297 l 7.85547,0 5.76562,-4.808594 0.0547,-0.08594 c 0,0 1.63947,-2.580812 3.43945,-5.261718 0.81645,-1.216046 1.60563,-2.477643 2.21485,-3.482422 0.60921,-1.00478 1.01204,-1.699419 1.14648,-1.964844 l 0.46875,-0.923828 -1.03711,-0.01953 c 0,0 -1.01003,-0.0034 -1.84766,-0.002 l 0,-0.01563 z m -7.91796,0.564453 -7.70704,0.06445 0.0215,0.002 c -1.26376,-0.03067 -2.77779,-0.04463 -3.98633,-0.02539 -0.60427,0.0096 -1.13002,0.02811 -1.52344,0.05664 -0.19671,0.01427 -0.35798,0.02826 -0.5039,0.05469 -0.073,0.01321 -0.1369,0.02619 -0.23828,0.06641 -0.0507,0.02011 -0.11301,0.04299 -0.20508,0.11914 -0.0921,0.07615 -0.2461,0.25984 -0.2461,0.517578 0,-0.08101 -7.7e-4,2.12e-4 -0.0215,0.08789 -0.0207,0.08768 -0.0551,0.209388 -0.0977,0.349609 -0.085,0.280444 -0.20592,0.634617 -0.33789,0.978516 l -0.84179,2.185547 6.26953,0 6.28125,-0.05078 3.13672,-4.40625 z m -41.03125,0.730468 11.44726,0.441407 9.86133,-0.04297 1.26172,0.738281 c -0.0432,-0.02526 0.0113,-0.0021 0.041,0.208985 0.0297,0.211067 0.0183,0.536224 -0.0234,0.867187 -0.0418,0.330964 -0.10914,0.670096 -0.16797,0.945313 -0.0294,0.137608 -0.0567,0.259442 -0.0781,0.363281 -0.0215,0.103839 -0.0449,0.136261 -0.0449,0.328125 0,-0.240943 0.036,-0.178575 0.0117,-0.132813 -0.0243,0.04576 -0.0771,0.133483 -0.1543,0.246094 -0.15442,0.225222 -0.40515,0.552839 -0.74804,0.964844 -0.68578,0.82401 -1.74444,1.987817 -3.19727,3.427734 l -5.14062,5.09375 -8.69727,0.0957 c 0.44599,-0.32694 0.78454,-0.556031 0.90034,-0.632807 l 2.54883,0.02539 0.17578,-0.128906 c 0,0 3.66371,-2.697395 5.75781,-4.914062 0.99413,-1.052312 2.08164,-2.097475 2.76563,-3.171875 0.34199,-0.5372 0.59531,-1.096653 0.61718,-1.708985 0.0219,-0.612331 -0.24404,-1.243961 -0.75781,-1.722656 l -0.1875,-0.173828 -13.07226,-0.06836 0.10351,0.74414 c 0,0 0.09,0.653476 0.15039,1.478516 0.0604,0.82504 0.0789,1.83339 -0.0215,2.40625 -0.0728,0.415216 -0.0717,0.347873 -0.1582,0.443359 -0.0351,0.03871 -0.0985,0.262541 -0.16797,0.38086 -1.02327,0.07375 -1.88964,0.06507 -2.88477,0.111328 l 0.0215,-2.462891 -0.0156,-0.07031 c -0.3351,-1.546718 -0.1839,-3.470573 -0.14648,-4.080079 z m 48.31445,0.01953 c 0.55236,-0.01166 0.83472,-0.0024 1.33984,0.002 -0.19324,0.333141 -0.2472,0.441297 -0.54687,0.935547 -0.60129,0.991706 -1.38306,2.239297 -2.1836,3.43164 -1.78016,2.651384 -3.34064,5.111314 -3.39648,5.199219 l -5.25391,4.380859 -7.38476,0 c -2.10705,0 -4.39147,0.05513 -6.02344,0.04297 -0.41586,-0.0031 -0.61349,-0.02551 -0.92773,-0.03906 0.15891,-0.155655 0.31237,-0.303692 0.47265,-0.464844 0.45045,-0.452882 0.724,-0.738297 0.85938,-0.878906 0.27589,-0.01537 3.47756,-0.198035 5.69531,-0.148438 3.19508,0.07146 5.82031,-0.357422 5.82031,-0.357422 l 0.25781,-0.04297 8.12891,-10.81836 1.3125,-1.160156 c 0.1816,-0.01206 0.91967,-0.06281 1.83008,-0.08203 z m -9.81836,0.572265 -1.27539,1.789063 -5.61328,0.04492 -4.36914,0 0.16015,-0.417969 0,-0.002 c 0.14326,-0.373312 0.27299,-0.74934 0.36914,-1.066406 0.0298,-0.0984 0.0492,-0.179219 0.0723,-0.265625 0.0374,-0.0034 0.0472,-0.0067 0.0898,-0.0098 0.3462,-0.0251 0.85811,-0.04332 1.44922,-0.05273 1.18222,-0.01882 2.68663,-0.0068 3.9336,0.02344 l 0.0117,0 0.01,0 5.16211,-0.04297 z"
         id="path4299"
         inkscape:connector-curvature="0" /></g></g></svg>