<?xml version="1.0" encoding="UTF-8" standalone="no"?>
<!-- Generator: Adobe Illustrator 13.0.0, SVG Export Plug-In . SVG Version: 6.00 Build 14948)  -->

<svg
   xmlns:ns="&amp;ns_sfw;"
   xmlns:dc="http://purl.org/dc/elements/1.1/"
   xmlns:cc="http://creativecommons.org/ns#"
   xmlns:rdf="http://www.w3.org/1999/02/22-rdf-syntax-ns#"
   xmlns:svg="http://www.w3.org/2000/svg"
   xmlns="http://www.w3.org/2000/svg"
   xmlns:sodipodi="http://sodipodi.sourceforge.net/DTD/sodipodi-0.dtd"
   xmlns:inkscape="http://www.inkscape.org/namespaces/inkscape"
   version="1.2"
   id="Layer_2"
   x="0px"
   y="0px"
   width="439.60001"
   height="100.826"
   viewBox="15.349 117.018 439.60001 100.82601"
   xml:space="preserve"
   inkscape:version="0.91 r13725"
   sodipodi:docname="logo2.svg"><defs
     id="defs79" /><sodipodi:namedview
     pagecolor="#ffffff"
     bordercolor="#666666"
     borderopacity="1"
     objecttolerance="10"
     gridtolerance="10"
     guidetolerance="10"
     inkscape:pageopacity="0"
     inkscape:pageshadow="2"
     inkscape:window-width="1680"
     inkscape:window-height="975"
     id="namedview77"
     showgrid="false"
     inkscape:zoom="2.3551409"
     inkscape:cx="243.94164"
     inkscape:cy="57.443632"
     inkscape:window-x="1671"
     inkscape:window-y="-9"
     inkscape:window-maximized="1"
     inkscape:current-layer="layer1"
     fit-margin-top="0"
     fit-margin-left="0"
     fit-margin-right="0"
     fit-margin-bottom="0" /><metadata
     id="metadata3"><ns:sfw><ns:slices /><ns:sliceSourceBounds
         height="100.826"
         width="567.154"
         y="496.785"
         x="676.753"
         bottomLeftOrigin="true" /></ns:sfw><rdf:RDF><cc:Work
         rdf:about=""><dc:format>image/svg+xml</dc:format><dc:type
           rdf:resource="http://purl.org/dc/dcmitype/StillImage" /><dc:title></dc:title></cc:Work></rdf:RDF></metadata><g
     inkscape:groupmode="layer"
     id="layer2"
     inkscape:label="Layer 2" /><g
     inkscape:groupmode="layer"
     id="layer1"
     inkscape:label="Layer 1"><g
       id="g4354"><path
         sodipodi:nodetypes="ccscsscssccccccsccssccc"
         inkscape:connector-curvature="0"
         id="path4324"
         d="m 17.014196,184.13073 0,-31.95642 11.864289,-0.0561 c 18.359696,-0.0867 17.713633,-0.1019 18.970443,0.44443 2.206275,0.95898 4.214905,3.64547 4.813483,6.43788 0.164684,0.76826 0.223576,9.11899 0.181146,25.68528 l -0.06288,24.54692 -0.530363,1.27065 c -0.736896,1.76548 -3.088273,3.90434 -5.277172,4.80025 l -1.600412,0.65504 -14.179272,0.0642 -14.179272,0.0642 0,-31.95642 z m 21.193557,15.4218 c 0.144857,-0.47798 0.01616,-5.32954 0.0097,-15.87836 l -0.009,-14.69185 c -1.884121,-3.96451 -5.781315,-6.94533 -7.531941,-3.51076 l 0.576793,2.87729 c 0.563745,2.81221 -1.592313,11.91131 -0.908784,20.55763 l 1.062039,13.43431 1.753055,-0.0757 c 4.938849,-0.96189 3.701142,2.94727 5.048138,-2.71256 z"
         style="opacity:1;fill:#fdbc1c;fill-opacity:1;stroke:none;stroke-width:45;stroke-linecap:round;stroke-linejoin:round;stroke-miterlimit:4;stroke-dasharray:none;stroke-opacity:1" /><path
         inkscape:connector-curvature="0"
         id="path4326"
         d="m 61.097913,184.29131 0,-30.88987 7.165177,0 7.165176,0 0,30.88987 0,30.88987 -7.165176,0 -7.165177,0 0,-30.88987 z"
         style="opacity:1;fill:#fdbc1c;fill-opacity:1;stroke:none;stroke-width:45;stroke-linecap:round;stroke-linejoin:round;stroke-miterlimit:4;stroke-dasharray:none;stroke-opacity:1" /><path
         sodipodi:nodetypes="csscscscsccssscsssccsccscccscsccssccccccc"
         inkscape:connector-curvature="0"
         id="path4328"
         d="m 89.366494,215.34492 c -1.637317,-0.35675 -2.811882,-0.94269 -3.94943,-1.97023 -1.062013,-0.9593 -1.678978,-1.84823 -2.082825,-3.00095 l -0.316193,-0.90252 0.03355,-8.9573 c 0.01845,-4.9265 0.05301,-8.9761 0.07679,-8.9991 0.02379,-0.023 -0.581625,-2.08743 2.815821,-0.42132 l 7.01861,3.44193 3.078372,3.3355 c 1.498921,1.62413 0.708932,4.72411 1.716958,5.78186 10.181293,1.16366 6.468433,-9.7736 -0.813516,-15.20142 -4.715502,-3.44654 -9.360771,-5.90005 -9.792015,-6.23711 -1.980146,-1.54766 -3.680109,-3.97842 -3.957049,-5.65815 -0.07417,-0.44989 -0.118891,-3.85243 -0.119432,-9.08764 l -8.64e-4,-8.36849 0.292518,-0.97635 c 0.457987,-1.52863 0.983096,-2.39257 2.121233,-3.48998 0.721775,-0.69595 1.198133,-1.05164 1.748903,-1.30589 1.461621,-0.67471 1.2871,-0.66555 12.71965,-0.66766 9.972485,-0.002 10.457015,0.007 11.294765,0.21461 1.87129,0.46292 3.07792,1.0861 4.40076,2.27285 1.45426,1.30462 2.14626,2.39829 2.42857,3.83814 0.10208,0.52055 -0.0297,20.77812 -0.12184,20.86727 -0.0262,0.0254 -4.48895,-1.69432 -7.47886,-4.62364 l -6.05118,-3.8206 -0.0464,-1.63208 c -0.0396,-1.39548 -0.0857,-1.72628 -0.3177,-2.28183 -0.559,-1.33839 -1.24394,-1.79356 -2.9283,-2.12841 -0.78973,-0.157 -2.0391,0.79765 -2.948893,0.94836 -1.809428,0.29954 -1.46195,1.61432 -2.030017,2.83009 -0.271782,0.58166 2.287464,-0.16209 0.258308,3.5507 3.179612,7.60435 15.404962,11.16427 19.066832,15.50005 1.37448,1.30757 2.08236,2.24029 2.47961,3.26724 0.23283,0.60191 0.2359,0.74489 0.20127,9.3651 -0.0391,9.73016 -2.2e-4,9.22266 -0.83338,10.87358 -0.46184,0.91517 -1.6957,2.26051 -2.57196,2.80438 -0.31472,0.19533 -0.97083,0.48668 -1.45802,0.64745 l -0.8858,0.29229 -11.20987,0.0182 c -8.5574,0.0138 -11.358746,-0.0143 -11.839007,-0.11892 z"
         style="opacity:1;fill:#fdbc1c;fill-opacity:1;stroke:none;stroke-width:45;stroke-linecap:round;stroke-linejoin:round;stroke-miterlimit:4;stroke-dasharray:none;stroke-opacity:1" /><path
         sodipodi:nodetypes="cccsccccccccscscccccccscsccccccc"
         inkscape:connector-curvature="0"
         id="path4330"
         d="m 145.52554,206.91021 0,-8.80171 c -2.07202,-3.63565 -3.39986,-4.76666 -7.05798,-6.97983 0.5835,2.52712 -0.84026,3.52373 -0.84026,10.73059 l 0,13.10338 -5.88871,0 -5.88868,0 0,-31.47058 0,-31.47058 5.93313,0 5.93314,0 0.0704,2.50078 c 0.0388,1.37544 0.12229,6.5723 0.18561,11.54858 0.12696,9.979 0.20596,12.95274 0.34275,12.9026 0.0501,-0.0184 2.2441,-2.19985 4.87568,-4.84774 l 3.51086,-4.81437 0.0572,-8.44824 0.0573,-8.44824 7.19108,-0.0291 5.91728,-0.0291 0,10.72558 0,10.7256 -4.01808,4.58923 c -2.20995,2.52408 -4.09426,4.67583 -4.18736,4.78168 -0.1544,0.17554 0.18854,0.6015 3.90374,4.84873 l 4.07302,4.65629 0,11.19564 0,11.19564 -6.2889,0 -7.88115,0.6369 0,-8.80172 z"
         style="opacity:1;fill:#fdbc1c;fill-opacity:1;stroke:none;stroke-width:45;stroke-linecap:round;stroke-linejoin:round;stroke-miterlimit:4;stroke-dasharray:none;stroke-opacity:1" /><path
         style="opacity:1;fill:#fdbc1c;fill-opacity:1;stroke:none;stroke-width:45;stroke-linecap:round;stroke-linejoin:round;stroke-miterlimit:4;stroke-dasharray:none;stroke-opacity:1"
         d="m 200.83575,215.34492 c -1.63732,-0.35675 -2.81189,-0.94269 -3.94943,-1.97023 -1.06202,-0.9593 -1.67898,-1.84823 -2.08283,-3.00095 l -0.31619,-0.90252 0.0335,-8.9573 c 0.0185,-4.9265 0.053,-8.9761 0.0768,-8.9991 0.0238,-0.023 -0.58163,-2.08743 2.81582,-0.42132 l 7.01861,3.44193 3.07837,3.3355 c 1.49892,1.62413 0.70893,4.72411 1.71696,5.78186 10.18129,1.16366 6.46843,-9.7736 -0.81352,-15.20142 -4.7155,-3.44654 -9.36077,-5.90005 -9.79201,-6.23711 -1.98015,-1.54766 -3.68011,-3.97842 -3.95705,-5.65815 -0.0742,-0.44989 -0.11889,-3.85243 -0.11943,-9.08764 l -8.7e-4,-8.36849 0.29252,-0.97635 c 0.45799,-1.52863 0.9831,-2.39257 2.12123,-3.48998 0.72178,-0.69595 1.19814,-1.05164 1.74891,-1.30589 1.46162,-0.67471 1.2871,-0.66555 12.71965,-0.66766 9.97248,-0.002 10.45701,0.007 11.29476,0.21461 1.87129,0.46292 3.07792,1.0861 4.40076,2.27285 1.45426,1.30462 2.14626,2.39829 2.42857,3.83814 0.10208,0.52055 -0.0297,20.77812 -0.12184,20.86727 -0.0262,0.0254 -4.48895,-1.69432 -7.47886,-4.62364 l -6.05118,-3.8206 -0.0464,-1.63208 c -0.0396,-1.39548 -0.0857,-1.72628 -0.3177,-2.28183 -0.559,-1.33839 -1.24394,-1.79356 -2.9283,-2.12841 -0.78973,-0.157 -2.0391,0.79765 -2.94889,0.94836 -1.80943,0.29954 -1.46195,1.61432 -2.03002,2.83009 -0.27178,0.58166 2.28747,-0.16209 0.25831,3.5507 3.17961,7.60435 15.40496,11.16427 19.06683,15.50005 1.37448,1.30757 2.08236,2.24029 2.47961,3.26724 0.23283,0.60191 0.2359,0.74489 0.20127,9.3651 -0.0391,9.73016 -2.2e-4,9.22266 -0.83338,10.87358 -0.46184,0.91517 -1.6957,2.26051 -2.57196,2.80438 -0.31472,0.19533 -0.97083,0.48668 -1.45802,0.64745 l -0.8858,0.29229 -11.20987,0.0182 c -8.5574,0.0138 -11.35874,-0.0143 -11.83901,-0.11892 z"
         id="path4332"
         inkscape:connector-curvature="0"
         sodipodi:nodetypes="csscscscsccssscsssccsccscccscsccssccccccc" /><path
         sodipodi:nodetypes="csscscscsccssscsssccsccscccscsccssccccccc"
         inkscape:connector-curvature="0"
         id="path4334"
         d="m 286.83575,215.34492 c -1.63732,-0.35675 -2.81189,-0.94269 -3.94943,-1.97023 -1.06202,-0.9593 -1.67898,-1.84823 -2.08283,-3.00095 l -0.31619,-0.90252 0.0335,-8.9573 c 0.0185,-4.9265 0.053,-8.9761 0.0768,-8.9991 0.0238,-0.023 -0.58163,-2.08743 2.81582,-0.42132 l 7.01861,3.44193 3.07837,3.3355 c 1.49892,1.62413 0.70893,4.72411 1.71696,5.78186 10.18129,1.16366 6.46843,-9.7736 -0.81352,-15.20142 -4.7155,-3.44654 -9.36077,-5.90005 -9.79201,-6.23711 -1.98015,-1.54766 -3.68011,-3.97842 -3.95705,-5.65815 -0.0742,-0.44989 -0.11889,-3.85243 -0.11943,-9.08764 l -8.7e-4,-8.36849 0.29252,-0.97635 c 0.45799,-1.52863 0.9831,-2.39257 2.12123,-3.48998 0.72178,-0.69595 1.19814,-1.05164 1.74891,-1.30589 1.46162,-0.67471 1.2871,-0.66555 12.71965,-0.66766 9.97248,-0.002 10.45701,0.007 11.29476,0.21461 1.87129,0.46292 3.07792,1.0861 4.40076,2.27285 1.45426,1.30462 2.14626,2.39829 2.42857,3.83814 0.10208,0.52055 -0.0297,20.77812 -0.12184,20.86727 -0.0262,0.0254 -4.48895,-1.69432 -7.47886,-4.62364 l -6.05118,-3.8206 -0.0464,-1.63208 c -0.0396,-1.39548 -0.0857,-1.72628 -0.3177,-2.28183 -0.559,-1.33839 -1.24394,-1.79356 -2.9283,-2.12841 -0.78973,-0.157 -2.0391,0.79765 -2.94889,0.94836 -1.80943,0.29954 -1.46195,1.61432 -2.03002,2.83009 -0.27178,0.58166 2.28747,-0.16209 0.25831,3.5507 3.17961,7.60435 15.40496,11.16427 19.06683,15.50005 1.37448,1.30757 2.08236,2.24029 2.47961,3.26724 0.23283,0.60191 0.2359,0.74489 0.20127,9.3651 -0.0391,9.73016 -2.2e-4,9.22266 -0.83338,10.87358 -0.46184,0.91517 -1.6957,2.26051 -2.57196,2.80438 -0.31472,0.19533 -0.97083,0.48668 -1.45802,0.64745 l -0.8858,0.29229 -11.20987,0.0182 c -8.5574,0.0138 -11.35874,-0.0143 -11.83901,-0.11892 z"
         style="opacity:1;fill:#fdbc1c;fill-opacity:1;stroke:none;stroke-width:45;stroke-linecap:round;stroke-linejoin:round;stroke-miterlimit:4;stroke-dasharray:none;stroke-opacity:1" /><path
         sodipodi:nodetypes="cccsccccsscscccscscssscccccssccc"
         inkscape:connector-curvature="0"
         id="path4336"
         d="m 240.98683,210.6975 -0.10615,-7.03131 5.80841,-0.4266 c 8.14521,-0.002 7.52727,1.26211 8.84365,0.54167 0.91262,-0.49947 2.32908,-1.5587 2.6763,-2.26395 0.50613,-1.02797 1.1035,0.0661 1.10491,-2.70174 l 0.001,-2.61261 -7.09095,-0.14645 c -8.00921,-0.0387 -8.39859,-0.0499 -9.16076,-0.26479 -1.13576,-0.32022 -1.88333,-0.75538 -2.73824,-1.59389 -1.28789,-1.2632 -2.01085,-2.78037 -2.26297,-4.74895 -0.0769,-0.59996 -0.11727,-6.95387 -0.11727,-18.42849 l 0,-17.51282 5.91449,0 7.40058,-0.2123 -0.52985,12.96156 c -0.36737,8.98677 -0.171,13.73874 -0.0937,14.20926 0.25025,1.52408 0.44229,2.78162 1.77317,3.38383 0.66361,0.30027 0.74896,0.31095 2.43389,0.30461 1.51305,-0.005 1.8427,-0.0398 2.46912,-0.25555 1.25549,-0.43241 0.81919,-1.01575 1.39421,-2.12676 0.62274,-1.2032 0.61074,-0.89864 0.61291,-15.62569 l 0.002,-13.59432 7.46343,0.95536 6.08346,0 -0.004,27.98831 c -0.004,30.60671 0.0297,29.03686 -0.65956,30.40597 -0.64053,1.2722 -1.8085,2.39787 -3.1105,2.99786 -1.57279,0.72477 -1.16677,0.70605 -15.31657,0.70605 l -12.79129,0 0,-4.90828 z"
         style="opacity:1;fill:#fdbc1c;fill-opacity:1;stroke:none;stroke-width:45;stroke-linecap:round;stroke-linejoin:round;stroke-miterlimit:4;stroke-dasharray:none;stroke-opacity:1" /><path
         inkscape:connector-curvature="0"
         id="path4338"
         d="m 331.57245,190.28212 0,-25.53597 -4.35338,0 -4.35338,0 0,-5.19468 0,-5.19468 15.17956,0 15.17956,0 0,5.35872 0,5.35873 -4.58252,0 -4.5825,0 0,25.37193 0,25.37191 -6.24366,0 -6.24368,0 0,-25.53596 z"
         style="opacity:1;fill:#fdbc1c;fill-opacity:1;stroke:none;stroke-width:45;stroke-linecap:round;stroke-linejoin:round;stroke-miterlimit:4;stroke-dasharray:none;stroke-opacity:1" /><path
         sodipodi:nodetypes="ccccccccccccccccccccccccc"
         inkscape:connector-curvature="0"
         id="path4340"
         d="m 361.07997,184.66283 0,-31.57984 13.62646,0 13.62646,0 0,5.2633 0.31845,6.85557 -7.14339,0 -7.14338,0 -0.31845,6.2196 0,7.81186 7.26344,0 7.26345,0 0,5.31871 0,5.31872 -7.38351,0 -7.3835,0 0,7.64565 0.74306,5.94723 7.26345,0 7.26344,0 -0.74306,7.23873 0,5.54033 -13.62646,0 -13.62646,0 z"
         style="opacity:1;fill:#fdbc1c;fill-opacity:1;stroke:none;stroke-width:45;stroke-linecap:round;stroke-linejoin:round;stroke-miterlimit:4;stroke-dasharray:none;stroke-opacity:1" /><path
         sodipodi:nodetypes="ccsccccscccscccscccccccccccsccccc"
         inkscape:connector-curvature="0"
         id="path4342"
         d="m 397.59583,184.25385 0,-31.35192 9.53552,-0.083 c 5.24454,-0.0457 9.85471,-0.0548 10.24482,-0.0204 1.05788,0.0934 2.02143,0.44526 2.97984,1.08841 1.6865,1.13171 2.7858,2.41848 3.72831,4.36408 0.22421,0.46286 0.43364,0.84137 0.46536,0.84115 0.0317,-2.4e-4 0.15042,-0.23755 0.26376,-0.52739 0.9417,-2.4082 3.41658,-4.54394 5.88416,-5.07785 1.14275,-0.24724 14.91694,-0.2448 16.30757,0.003 1.979,0.35251 3.6278,1.58742 4.36753,3.27116 0.59803,1.36126 0.56838,-0.21876 0.57042,30.39392 l 0.002,28.3399 -5.92238,0 -6.45311,0.10615 -0.56076,-24.27275 c -0.53887,-23.32553 -0.35385,-20.25412 0.18529,-21.98789 -2.30497,-4.30494 -6.99915,-5.53349 -8.09915,-1.33149 -0.12402,0.47572 -0.14928,4.52073 -0.15035,24.08195 l -10e-4,23.51018 -6.71515,-0.10615 -5.75978,0 -0.0283,-23.78776 -0.0283,-23.78774 -1.31237,-0.70946 c -1.38623,-3.53604 -4.24877,-3.01156 -6.19632,-1.15317 -0.68754,0.64184 -1.20232,1.59179 -1.37513,2.53757 -0.0711,0.38886 -0.10927,8.84555 -0.10927,24.17635 l 0,23.57829 -6.44208,-0.74306 -5.38057,0 0,-31.35192 z"
         style="opacity:1;fill:#fdbc1c;fill-opacity:1;stroke:none;stroke-width:45;stroke-linecap:round;stroke-linejoin:round;stroke-miterlimit:4;stroke-dasharray:none;stroke-opacity:1" /><g
         transform="translate(-127.554,7.6688308e-7)"
         style="fill:#000000;fill-opacity:1"
         id="g5"><path
           inkscape:connector-curvature="0"
           style="fill:#000000;fill-opacity:1"
           id="path7"
           d="m 176.916,152.213 c 1.66,1.15 2.906,2.396 3.737,3.736 0.894,1.598 1.437,3.386 1.629,5.365 l 0,44.169 c 0,2.684 -0.495,4.775 -1.485,6.277 -0.99,1.5 -2.093,2.697 -3.306,3.592 -1.405,1.021 -3.002,1.725 -4.79,2.107 l -29.798,0 0,-67.165 26.923,0 c 3.067,0.131 5.43,0.769 7.09,1.919 z m 2.108,8.91 c -0.191,-1.404 -0.606,-2.682 -1.245,-3.832 -0.512,-0.958 -1.31,-1.836 -2.396,-2.635 -1.086,-0.799 -2.556,-1.134 -4.407,-1.007 l -25.008,0.096 0,60.649 25.391,0 c 1.341,-0.254 2.555,-0.701 3.641,-1.34 0.895,-0.512 1.757,-1.277 2.587,-2.301 0.83,-1.021 1.31,-2.426 1.438,-4.215 l 0,-45.415 z m -14.084,3.881 c 0.574,0.543 1.021,1.134 1.341,1.772 0.319,0.703 0.511,1.501 0.575,2.395 l 0,27.786 c 0.063,1.598 -0.08,2.828 -0.432,3.689 -0.352,0.863 -0.782,1.484 -1.293,1.867 -0.575,0.512 -1.214,0.799 -1.916,0.863 l -5.749,0 -0.191,-39.379 5.174,0 c 1.086,0.129 1.916,0.464 2.491,1.007 z m -1.15,4.167 c -0.128,-0.51 -0.319,-0.925 -0.574,-1.245 -0.575,-0.702 -1.565,-0.894 -2.971,-0.575 l 0,32.959 c 0.574,0.191 1.117,0.256 1.629,0.191 0.447,-0.063 0.846,-0.254 1.197,-0.574 0.352,-0.318 0.591,-0.926 0.719,-1.82 l 0,-28.936 z" /><path
           inkscape:connector-curvature="0"
           style="fill:#000000;fill-opacity:1"
           id="path9"
           d="m 205.086,150.584 0,66.685 -18.588,0 0,-66.685 18.588,0 z m -3.258,3.832 -12.264,0 0,59.212 12.264,0 0,-59.212 z" /><path
           inkscape:connector-curvature="0"
           style="fill:#000000;fill-opacity:1"
           id="path11"
           d="m 229.519,172.429 0,-2.778 c 0.063,-1.277 -0.224,-2.044 -0.862,-2.3 -0.256,-0.127 -0.607,-0.127 -1.054,0 -0.512,0 -0.879,0.112 -1.103,0.336 -0.224,0.224 -0.367,0.495 -0.431,0.814 -0.129,0.319 -0.129,0.702 0,1.149 l 0,3.641 14.755,9.582 c 1.852,1.021 3.273,2.107 4.264,3.258 0.991,1.151 1.677,2.236 2.06,3.258 0.447,1.15 0.671,2.363 0.671,3.641 l 0,14.658 c -0.128,2.109 -0.671,3.818 -1.629,5.127 -0.958,1.311 -2.044,2.316 -3.258,3.018 -1.405,0.83 -2.97,1.438 -4.694,1.82 l -19.354,0 c -2.428,-0.064 -4.328,-0.67 -5.701,-1.82 -1.373,-1.148 -2.379,-2.363 -3.018,-3.641 -0.767,-1.533 -1.246,-3.258 -1.438,-5.174 l 0,-21.846 17.438,10.637 0,3.736 c 0,0.574 0.079,1.006 0.239,1.293 0.159,0.287 0.367,0.496 0.623,0.623 0.255,0.191 0.574,0.287 0.958,0.287 0.958,-0.064 1.501,-0.447 1.629,-1.15 0.063,-0.254 0.031,-0.605 -0.096,-1.053 l 0,-4.408 -12.743,-7.664 c -2.236,-1.213 -3.913,-2.508 -5.03,-3.881 -1.118,-1.373 -1.933,-2.604 -2.443,-3.689 -0.575,-1.277 -0.862,-2.555 -0.862,-3.832 l 0,-15.713 c 0.127,-2.427 0.702,-4.311 1.725,-5.652 1.021,-1.342 2.172,-2.332 3.449,-2.971 1.469,-0.702 3.098,-1.117 4.887,-1.245 l 17.15,0 c 2.938,0.128 5.205,0.671 6.803,1.629 1.597,0.958 2.811,2.044 3.641,3.257 0.895,1.406 1.469,2.971 1.725,4.695 l 0,24.432 -18.301,-12.074 z m -1.534,-8.335 c 1.021,0.128 1.805,0.367 2.348,0.719 0.543,0.352 0.974,0.75 1.293,1.197 0.319,0.512 0.543,1.086 0.671,1.725 l 0,2.778 12.456,7.473 -0.192,-16.383 c 0.063,-1.66 -0.304,-3.018 -1.102,-4.072 -0.799,-1.054 -1.677,-1.868 -2.635,-2.443 -1.15,-0.702 -2.46,-1.149 -3.929,-1.342 l -18.587,0 c -1.47,0.129 -2.62,0.528 -3.45,1.198 -0.83,0.671 -1.469,1.357 -1.916,2.06 -0.512,0.895 -0.862,1.854 -1.054,2.875 l 0,15.521 c -0.064,1.278 0.191,2.395 0.767,3.354 0.574,0.957 1.213,1.787 1.916,2.49 0.767,0.83 1.693,1.564 2.779,2.203 l 15.713,10.156 0,6.229 c 0,1.213 -0.256,2.156 -0.767,2.826 -0.512,0.672 -1.086,1.166 -1.725,1.484 -0.703,0.385 -1.533,0.641 -2.491,0.768 -1.214,-0.127 -2.14,-0.398 -2.778,-0.814 -0.639,-0.414 -1.118,-0.877 -1.438,-1.389 -0.384,-0.574 -0.64,-1.246 -0.767,-2.014 l 0,-3.064 -11.21,-6.707 -0.191,15.713 c 0.063,1.852 0.463,3.273 1.197,4.264 0.734,0.991 1.549,1.74 2.443,2.252 1.021,0.574 2.203,0.926 3.545,1.053 l 18.684,0 c 1.852,-0.063 3.241,-0.479 4.168,-1.244 0.926,-0.768 1.612,-1.598 2.06,-2.492 0.511,-1.086 0.767,-2.299 0.767,-3.641 l 0,-14.277 c 0.063,-0.768 -0.128,-1.533 -0.575,-2.301 -0.447,-0.766 -0.958,-1.436 -1.532,-2.012 -0.703,-0.703 -1.47,-1.373 -2.3,-2.012 l -17.055,-11.019 0,-7.09 c 0.063,-1.086 0.367,-1.884 0.91,-2.395 0.543,-0.511 1.102,-0.895 1.677,-1.15 0.704,-0.254 1.47,-0.413 2.3,-0.477 z" /><path
           inkscape:connector-curvature="0"
           style="fill:#000000;fill-opacity:1"
           id="path13"
           d="m 288.923,175.687 -6.898,7.951 6.898,8.432 0,25.199 -17.726,0 0,-18.588 -2.491,-2.299 0,21.078 -17.917,0 0,-66.972 17.917,0 0,21.078 2.491,-2.97 0,-18.108 17.726,0 0,25.199 z m -3.067,-21.367 -11.114,0 -0.096,16.001 -9.007,9.198 -0.383,-25.582 -11.21,0 0,59.595 11.114,0 0,-24.721 8.719,8.24 0,16.576 11.785,0 0,-21.174 -7.569,-8.816 7.761,-9.005 0,-20.312 z" /><path
           inkscape:connector-curvature="0"
           style="fill:#000000;fill-opacity:1"
           id="path15"
           d="m 340.949,172.429 0,-2.778 c 0.064,-1.277 -0.223,-2.044 -0.861,-2.3 -0.256,-0.127 -0.607,-0.127 -1.055,0 -0.512,0 -0.879,0.112 -1.102,0.336 -0.225,0.224 -0.367,0.495 -0.432,0.814 -0.129,0.319 -0.129,0.702 0,1.149 l 0,3.641 14.756,9.582 c 1.852,1.021 3.273,2.107 4.264,3.258 0.991,1.151 1.676,2.236 2.059,3.258 0.447,1.15 0.672,2.363 0.672,3.641 l 0,14.658 c -0.129,2.109 -0.672,3.818 -1.629,5.127 -0.959,1.311 -2.045,2.316 -3.258,3.018 -1.406,0.83 -2.971,1.438 -4.695,1.82 l -19.354,0 c -2.428,-0.064 -4.328,-0.67 -5.701,-1.82 -1.373,-1.148 -2.379,-2.363 -3.018,-3.641 -0.768,-1.533 -1.246,-3.258 -1.438,-5.174 l 0,-21.846 17.438,10.637 0,3.736 c 0,0.574 0.08,1.006 0.24,1.293 0.158,0.287 0.367,0.496 0.623,0.623 0.254,0.191 0.574,0.287 0.957,0.287 0.959,-0.064 1.502,-0.447 1.629,-1.15 0.064,-0.254 0.031,-0.605 -0.096,-1.053 l 0,-4.408 -12.742,-7.664 c -2.236,-1.213 -3.914,-2.508 -5.031,-3.881 -1.117,-1.373 -1.932,-2.604 -2.443,-3.689 -0.574,-1.277 -0.861,-2.555 -0.861,-3.832 l 0,-15.713 c 0.127,-2.427 0.701,-4.311 1.725,-5.652 1.021,-1.342 2.172,-2.332 3.449,-2.971 1.469,-0.702 3.098,-1.117 4.887,-1.245 l 17.15,0 c 2.938,0.128 5.205,0.671 6.803,1.629 1.596,0.958 2.811,2.044 3.641,3.257 0.895,1.406 1.469,2.971 1.725,4.695 l 0,24.432 -18.302,-12.074 z m -1.533,-8.335 c 1.021,0.128 1.805,0.367 2.348,0.719 0.543,0.352 0.975,0.75 1.293,1.197 0.32,0.512 0.543,1.086 0.672,1.725 l 0,2.778 12.455,7.473 -0.191,-16.383 c 0.063,-1.66 -0.305,-3.018 -1.102,-4.072 -0.799,-1.054 -1.678,-1.868 -2.635,-2.443 -1.15,-0.702 -2.461,-1.149 -3.93,-1.342 l -18.586,0 c -1.471,0.129 -2.621,0.528 -3.451,1.198 -0.83,0.671 -1.469,1.357 -1.916,2.06 -0.512,0.895 -0.861,1.854 -1.053,2.875 l 0,15.521 c -0.064,1.278 0.191,2.395 0.766,3.354 0.574,0.957 1.213,1.787 1.916,2.49 0.768,0.83 1.693,1.564 2.779,2.203 l 15.713,10.156 0,6.229 c 0,1.213 -0.256,2.156 -0.766,2.826 -0.512,0.672 -1.086,1.166 -1.725,1.484 -0.703,0.385 -1.533,0.641 -2.492,0.768 -1.213,-0.127 -2.139,-0.398 -2.777,-0.814 -0.639,-0.414 -1.119,-0.877 -1.438,-1.389 -0.385,-0.574 -0.641,-1.246 -0.768,-2.014 l 0,-3.064 -11.209,-6.707 -0.191,15.713 c 0.063,1.852 0.463,3.273 1.197,4.264 0.734,0.991 1.549,1.74 2.443,2.252 1.021,0.574 2.203,0.926 3.545,1.053 l 18.684,0 c 1.852,-0.063 3.24,-0.479 4.168,-1.244 0.926,-0.768 1.611,-1.598 2.059,-2.492 0.512,-1.086 0.768,-2.299 0.768,-3.641 l 0,-14.277 c 0.063,-0.768 -0.129,-1.533 -0.576,-2.301 -0.447,-0.766 -0.957,-1.436 -1.531,-2.012 -0.703,-0.703 -1.471,-1.373 -2.301,-2.012 l -17.055,-11.019 0,-7.09 c 0.064,-1.086 0.367,-1.884 0.91,-2.395 0.543,-0.511 1.102,-0.895 1.678,-1.15 0.703,-0.254 1.469,-0.413 2.299,-0.477 z" /><path
           inkscape:connector-curvature="0"
           style="fill:#000000;fill-opacity:1"
           id="path17"
           d="m 402.461,150.68 0,56.912 c -0.064,2.236 -0.527,4.01 -1.389,5.318 -0.863,1.311 -1.836,2.316 -2.922,3.018 -1.215,0.768 -2.619,1.311 -4.217,1.629 l -28.263,0 0,-16.287 18.012,0 0,-3.162 -12.264,0 c -2.363,-0.127 -4.152,-0.703 -5.365,-1.725 -1.215,-1.021 -2.076,-2.172 -2.588,-3.449 -0.639,-1.469 -0.957,-3.098 -0.957,-4.887 l 0,-37.367 18.396,0 0,30.564 3.162,0 0,-30.564 18.395,0 z m -3.162,3.545 -11.592,0 0,26.158 c -0.064,0.83 -0.289,1.564 -0.672,2.203 -0.32,0.574 -0.814,1.086 -1.484,1.533 -0.672,0.447 -1.645,0.703 -2.922,0.766 -0.959,0.064 -1.789,-0.031 -2.492,-0.287 -0.639,-0.256 -1.213,-0.703 -1.725,-1.342 -0.512,-0.639 -0.799,-1.66 -0.861,-3.066 l 0,-25.964 -11.211,0 0,34.013 c 0.064,1.277 0.352,2.428 0.863,3.449 0.447,0.895 1.133,1.709 2.059,2.443 0.926,0.734 2.283,1.102 4.072,1.102 l 14.277,0 0,4.982 c -0.129,0.83 -0.416,1.564 -0.863,2.203 -0.383,0.512 -0.959,0.99 -1.725,1.438 -0.768,0.447 -1.789,0.672 -3.066,0.672 l -12.838,0 0,9.484 24.432,0 c 1.086,-0.127 2.045,-0.445 2.875,-0.957 0.701,-0.447 1.355,-1.117 1.963,-2.012 0.608,-0.895 0.91,-2.109 0.91,-3.643 l 0,-53.175 z" /><path
           inkscape:connector-curvature="0"
           style="fill:#000000;fill-opacity:1"
           id="path19"
           d="m 426.799,172.429 0,-2.778 c 0.063,-1.277 -0.225,-2.044 -0.863,-2.3 -0.256,-0.127 -0.607,-0.127 -1.053,0 -0.512,0 -0.879,0.112 -1.104,0.336 -0.223,0.224 -0.367,0.495 -0.43,0.814 -0.129,0.319 -0.129,0.702 0,1.149 l 0,3.641 14.754,9.582 c 1.852,1.021 3.273,2.107 4.264,3.258 0.991,1.151 1.678,2.236 2.061,3.258 0.447,1.15 0.67,2.363 0.67,3.641 l 0,14.658 c -0.127,2.109 -0.67,3.818 -1.629,5.127 -0.957,1.311 -2.043,2.316 -3.258,3.018 -1.404,0.83 -2.969,1.438 -4.693,1.82 l -19.355,0 c -2.428,-0.064 -4.328,-0.67 -5.701,-1.82 -1.373,-1.148 -2.379,-2.363 -3.018,-3.641 -0.766,-1.533 -1.246,-3.258 -1.438,-5.174 l 0,-21.846 17.439,10.637 0,3.736 c 0,0.574 0.078,1.006 0.238,1.293 0.16,0.287 0.367,0.496 0.623,0.623 0.256,0.191 0.574,0.287 0.959,0.287 0.957,-0.064 1.5,-0.447 1.629,-1.15 0.063,-0.254 0.031,-0.605 -0.096,-1.053 l 0,-4.408 -12.744,-7.664 c -2.236,-1.213 -3.912,-2.508 -5.029,-3.881 -1.119,-1.373 -1.934,-2.604 -2.443,-3.689 -0.576,-1.277 -0.863,-2.555 -0.863,-3.832 l 0,-15.713 c 0.127,-2.427 0.703,-4.311 1.725,-5.652 1.022,-1.341 2.172,-2.332 3.449,-2.971 1.469,-0.702 3.098,-1.117 4.887,-1.245 l 17.15,0 c 2.938,0.128 5.205,0.671 6.803,1.629 1.598,0.958 2.811,2.044 3.641,3.257 0.895,1.406 1.469,2.971 1.725,4.695 l 0,24.432 -18.3,-12.074 z m -1.533,-8.335 c 1.021,0.128 1.805,0.367 2.348,0.719 0.543,0.352 0.973,0.75 1.293,1.197 0.318,0.512 0.543,1.086 0.67,1.725 l 0,2.778 12.457,7.473 -0.193,-16.383 c 0.064,-1.66 -0.303,-3.018 -1.102,-4.072 -0.799,-1.054 -1.676,-1.868 -2.635,-2.443 -1.15,-0.702 -2.459,-1.149 -3.928,-1.342 l -18.588,0 c -1.469,0.129 -2.619,0.528 -3.449,1.198 -0.83,0.671 -1.469,1.357 -1.916,2.06 -0.512,0.895 -0.863,1.854 -1.055,2.875 l 0,15.521 c -0.064,1.278 0.191,2.395 0.768,3.354 0.574,0.957 1.213,1.787 1.916,2.49 0.766,0.83 1.693,1.564 2.779,2.203 l 15.713,10.156 0,6.229 c 0,1.213 -0.256,2.156 -0.768,2.826 -0.512,0.672 -1.086,1.166 -1.725,1.484 -0.703,0.385 -1.533,0.641 -2.49,0.768 -1.215,-0.127 -2.141,-0.398 -2.779,-0.814 -0.639,-0.414 -1.117,-0.877 -1.438,-1.389 -0.383,-0.574 -0.639,-1.246 -0.766,-2.014 l 0,-3.064 -11.211,-6.707 -0.191,15.713 c 0.064,1.852 0.463,3.273 1.197,4.264 0.734,0.991 1.549,1.74 2.443,2.252 1.021,0.574 2.203,0.926 3.545,1.053 l 18.684,0 c 1.852,-0.063 3.242,-0.479 4.168,-1.244 0.926,-0.768 1.613,-1.598 2.061,-2.492 0.51,-1.086 0.766,-2.299 0.766,-3.641 l 0,-14.277 c 0.064,-0.768 -0.127,-1.533 -0.574,-2.301 -0.447,-0.766 -0.959,-1.436 -1.533,-2.012 -0.703,-0.703 -1.469,-1.373 -2.299,-2.012 l -17.055,-11.019 0,-7.09 c 0.063,-1.086 0.367,-1.884 0.91,-2.395 0.543,-0.511 1.102,-0.895 1.676,-1.15 0.703,-0.254 1.471,-0.413 2.301,-0.477 z" /><path
           inkscape:connector-curvature="0"
           style="fill:#000000;fill-opacity:1"
           id="path21"
           d="m 483.424,150.871 0,17.438 -8.24,0 0,49.152 -19.354,0 0,-49.152 -7.857,0 0,-17.82 35.451,0.382 z m -3.736,3.449 -28.266,0 0,10.156 8.049,0 0,49.535 11.689,0 0,-49.248 8.527,0 0,-10.443 z" /><path
           inkscape:connector-curvature="0"
           style="fill:#000000;fill-opacity:1"
           id="path23"
           d="m 505.27,168.117 0,7.761 12.264,0 0,17.438 -12.646,0 0,7.377 12.646,0 0,17.055 -31.139,-0.191 0,-67.068 31.521,0 0,17.629 -12.646,0 z m -3.737,11.306 0,-14.851 12.646,0 0,-10.156 -24.24,0 0,60.554 24.24,0 0,-10.635 -12.838,0 0,-14.564 13.029,0 0,-10.348 -12.837,0 z" /><path
           inkscape:connector-curvature="0"
           style="fill:#000000;fill-opacity:1"
           id="path25"
           d="m 578.949,152.932 c 1.277,1.054 2.172,2.155 2.684,3.305 0.639,1.342 0.926,2.812 0.861,4.407 l 0,57.2 -18.205,0 0,-48.097 c -0.064,-0.702 -0.318,-1.149 -0.766,-1.341 -0.256,-0.064 -0.512,-0.097 -0.768,-0.097 -0.383,0 -0.686,0.097 -0.91,0.288 -0.223,0.191 -0.398,0.383 -0.525,0.574 -0.193,0.256 -0.289,0.512 -0.289,0.767 l 0,47.714 -18.011,0 0,-47.619 c 0,-0.702 -0.256,-1.245 -0.766,-1.628 -0.256,-0.191 -0.512,-0.319 -0.768,-0.384 -0.447,0 -0.799,0.097 -1.055,0.288 -0.256,0.191 -0.447,0.415 -0.574,0.67 -0.191,0.256 -0.287,0.575 -0.287,0.958 l 0,47.427 -17.438,0 0,-66.781 22.324,0 c 1.404,-0.128 2.635,-0.017 3.688,0.335 1.055,0.352 1.965,0.783 2.732,1.294 0.83,0.575 1.596,1.246 2.299,2.012 0.383,-0.702 0.861,-1.261 1.438,-1.677 0.574,-0.415 1.148,-0.75 1.725,-1.006 0.639,-0.256 1.309,-0.479 2.012,-0.671 l 15.043,0 c 2.425,0.321 4.279,1.008 5.556,2.062 z m 0.192,7.233 c -0.064,-1.086 -0.318,-2.044 -0.766,-2.874 -0.385,-0.703 -1.039,-1.357 -1.965,-1.965 -0.926,-0.606 -2.221,-0.91 -3.881,-0.91 l -13.125,0 c -1.023,0.064 -1.98,0.319 -2.875,0.767 -0.768,0.384 -1.549,0.959 -2.348,1.725 -0.799,0.767 -1.422,1.789 -1.869,3.066 -0.512,-1.213 -1.117,-2.268 -1.82,-3.162 -0.703,-0.766 -1.564,-1.469 -2.586,-2.107 -1.023,-0.639 -2.365,-0.927 -4.025,-0.862 l -17.916,0.191 0,59.978 10.635,0 0,-44.457 c -0.064,-0.895 0.096,-1.692 0.479,-2.396 0.32,-0.639 0.848,-1.213 1.582,-1.725 0.734,-0.511 1.836,-0.767 3.305,-0.767 0.768,0 1.502,0.192 2.205,0.575 0.51,0.319 1.006,0.878 1.484,1.677 0.478,0.799 0.719,1.964 0.719,3.497 l 0,43.594 11.307,0 0,-44.457 c 0,-0.766 0.191,-1.501 0.574,-2.204 0.318,-0.574 0.83,-1.102 1.533,-1.58 0.701,-0.479 1.756,-0.719 3.162,-0.719 0.766,-0.063 1.5,0.032 2.203,0.287 0.574,0.256 1.102,0.703 1.58,1.342 0.478,0.639 0.719,1.661 0.719,3.065 l 0,44.265 11.689,0 0,-53.844 z" /></g><polygon
         transform="translate(-127.554,7.6688308e-7)"
         style="fill:#000000"
         id="polygon27"
         points="147.211,121.107 147.211,126.067 154.833,126.067 154.833,130.288 147.211,130.288 147.211,139.104 143.1,139.104 143.1,117.018 154.833,117.018 154.833,121.107 " /><path
         inkscape:connector-curvature="0"
         style="fill:#000000"
         id="path29"
         d="m 40.622,139.104 -3.997,0 0,-3.439 -7.742,0 -2.294,3.439 -4.707,0 15.485,-22.086 3.255,0 0,22.086 z m -3.997,-7.612 0,-6.444 -4.729,6.444 4.729,0 z" /><polygon
         transform="translate(-127.554,7.6688308e-7)"
         style="fill:#000000"
         id="polygon31"
         points="187.499,117.018 192.182,117.018 192.182,139.104 188.055,139.104 188.055,127.969 182.956,139.104 178.783,139.104 173.869,127.969 173.869,139.104 169.743,139.104 169.743,117.018 174.379,117.018 180.916,131.864 " /><polygon
         transform="translate(-127.554,7.6688308e-7)"
         style="fill:#000000"
         id="polygon33"
         points="286.876,117.018 291.559,117.018 291.559,139.104 287.432,139.104 287.432,127.969 282.332,139.104 278.16,139.104 273.245,127.969 273.245,139.104 269.119,139.104 269.119,117.018 273.756,117.018 280.292,131.864 " /><rect
         style="fill:#000000"
         id="rect35"
         height="22.086"
         width="4.2709999"
         y="117.018"
         x="65.929001" /><polygon
         transform="translate(-127.554,7.6688308e-7)"
         style="fill:#000000"
         id="polygon37"
         points="208.765,135.077 208.765,139.104 198.93,139.104 198.93,117.018 203.2,117.018 203.2,135.077 " /><polygon
         transform="translate(-127.554,7.6688308e-7)"
         style="fill:#000000"
         id="polygon39"
         points="217.608,117.018 222.31,117.018 215.235,131.066 215.235,139.104 211.095,139.104 211.095,131.066 204.02,117.018 208.765,117.018 213.251,126.067 " /><path
         inkscape:connector-curvature="0"
         style="fill:#000000;stroke:#231f20;stroke-width:0.34509999"
         id="path41"
         d="M 118.028,133.402" /><path
         inkscape:connector-curvature="0"
         style="fill:#000000"
         id="path43"
         d="m 117.967,123.109 c -1.875,-3.573 -5.621,-6.011 -9.937,-6.011 -6.194,0 -11.216,5.021 -11.216,11.216 0,6.195 5.021,11.215 11.216,11.215 4.346,0 8.115,-2.472 9.977,-6.087 l -5.082,0.042 c -1.253,1.155 -2.927,1.861 -4.766,1.861 -3.884,0 -7.031,-3.148 -7.031,-7.032 0,-3.884 3.147,-7.031 7.031,-7.031 1.813,0 3.466,0.686 4.712,1.813 l 5.096,0.014 z" /><path
         inkscape:connector-curvature="0"
         style="fill:#000000"
         id="path45"
         d="m 129.065,139.588 c -6.226,0 -11.273,-5.048 -11.273,-11.274 0,-6.226 5.048,-11.274 11.273,-11.274 6.228,0 11.275,5.048 11.275,11.274 0.001,6.227 -5.047,11.274 -11.275,11.274 z m 7.178,-11.274 c 0,-3.939 -3.195,-7.133 -7.134,-7.133 -3.939,0 -7.133,3.194 -7.133,7.133 0,3.939 3.193,7.133 7.133,7.133 3.939,0 7.134,-3.194 7.134,-7.133 z" /><path
         inkscape:connector-curvature="0"
         style="fill:#000000"
         id="path47"
         d="m 172.8,117.021 c 3.737,0.3 6.677,3.429 6.677,7.244 0,3.814 -2.939,6.943 -6.677,7.243 l -3.229,-0.015 0,7.611 -4.141,0 0,-22.086 4.141,0 3.229,0.003 z m -3.228,4.248 0,5.991 3.229,-0.003 c 1.412,-0.264 2.481,-1.503 2.481,-2.992 0,-1.49 -1.069,-2.729 -2.481,-2.993 l -3.229,-0.003 z" /><path
         inkscape:connector-curvature="0"
         style="fill:#000000"
         id="path49"
         d="m 224.974,139.391 -4.099,0 0,-22.183 5.695,-0.008 3.228,0.002 c 3.737,0.3 6.677,3.429 6.677,7.244 0,3.116 -1.963,5.775 -4.719,6.807 l 4.778,8.137 -4.485,0 -6.697,-11.442 -0.378,0 0,11.443 z m -2.545,-0.105 m 4.142,0 m 3.229,-11.848 c 1.412,-0.264 2.481,-1.504 2.481,-2.992 0,-1.49 -1.069,-2.729 -2.481,-2.993 l -4.825,0 0,5.989 4.825,-0.004 z" /><path
         inkscape:connector-curvature="0"
         style="fill:#000000"
         id="path51"
         d="m 190.876,125.638 m 0,0 m -5.987,0 m -0.015,4.142 m 0,0 0.003,3.229 c 0.265,1.413 1.503,2.481 2.992,2.481 1.489,0 2.729,-1.069 2.993,-2.481 l 0.003,-3.229 0.011,-12.571 4.24,0 0,12.571 -0.004,3.229 c -0.3,3.738 -3.428,6.676 -7.243,6.676 -3.814,0 -6.942,-2.938 -7.243,-6.676 l 0.015,-3.229 -0.007,-12.571 4.256,0 -0.016,12.571 z" /><polygon
         transform="translate(-127.554,7.6688308e-7)"
         style="fill:#000000"
         id="polygon53"
         points="334.842,121.389 334.842,117.208 323.281,117.208 323.281,121.389 326.905,121.389 326.905,139.391 331.09,139.391 331.09,121.389 " /><polygon
         transform="translate(-127.554,7.6688308e-7)"
         style="fill:#000000"
         id="polygon55"
         points="347.352,117.208 347.352,121.269 339.976,121.269 339.976,126.536 347.352,126.536 347.352,130.678 339.976,130.678 339.976,135.293 347.352,135.293 347.352,139.391 335.855,139.391 335.855,117.208 " /><path
         inkscape:connector-curvature="0"
         style="fill:#000000;stroke:#231f20;stroke-width:0.34509999"
         id="path57"
         d="M 224.974,127.969" /></g></g></svg>