<?xml version="1.0" encoding="UTF-8" standalone="no"?>
<!-- Generator: Adobe Illustrator 13.0.0, SVG Export Plug-In . SVG Version: 6.00 Build 14948)  -->

<svg
   xmlns:ns="&amp;#38;ns_sfw;"
   xmlns:dc="http://purl.org/dc/elements/1.1/"
   xmlns:cc="http://creativecommons.org/ns#"
   xmlns:rdf="http://www.w3.org/1999/02/22-rdf-syntax-ns#"
   xmlns:svg="http://www.w3.org/2000/svg"
   xmlns="http://www.w3.org/2000/svg"
   xmlns:sodipodi="http://sodipodi.sourceforge.net/DTD/sodipodi-0.dtd"
   xmlns:inkscape="http://www.inkscape.org/namespaces/inkscape"
   version="1.2"
   id="Layer_2"
   x="0px"
   y="0px"
   width="402.90469"
   height="22.584986"
   viewBox="15.349 117.018 402.9047 22.584987"
   xml:space="preserve"
   inkscape:version="0.91 r13725"
   sodipodi:docname="logoconsoleREBUILD.svg"><defs
     id="defs79" /><sodipodi:namedview
     pagecolor="#ffffff"
     bordercolor="#666666"
     borderopacity="1"
     objecttolerance="10"
     gridtolerance="10"
     guidetolerance="10"
     inkscape:pageopacity="0"
     inkscape:pageshadow="2"
     inkscape:window-width="1680"
     inkscape:window-height="975"
     id="namedview77"
     showgrid="false"
     showguides="true"
     inkscape:guide-bbox="true"
     inkscape:zoom="4.4620417"
     inkscape:cx="293.10483"
     inkscape:cy="25.489402"
     inkscape:window-x="1671"
     inkscape:window-y="-9"
     inkscape:window-maximized="1"
     inkscape:current-layer="Layer_2"
     fit-margin-top="0"
     fit-margin-left="0"
     fit-margin-right="0"
     fit-margin-bottom="0" /><metadata
     id="metadata3"><ns:sfw><ns:slices /><ns:sliceSourceBounds
         height="100.826"
         width="567.154"
         y="496.785"
         x="676.753"
         bottomLeftOrigin="true" /></ns:sfw><rdf:RDF><cc:Work
         rdf:about=""><dc:format>image/svg+xml</dc:format><dc:type
           rdf:resource="http://purl.org/dc/dcmitype/StillImage" /><dc:title></dc:title></cc:Work></rdf:RDF></metadata><g
     id="g59"
     transform="translate(-0.00428124,0.01498413)"><g
       id="g61" /></g><polygon
     points="147.211,121.107 147.211,126.067 154.833,126.067 154.833,130.288 147.211,130.288 147.211,139.104 143.1,139.104 143.1,117.018 154.833,117.018 154.833,121.107 "
     id="polygon27"
     style="fill:#f4f4f4;fill-opacity:1"
     transform="translate(-127.75102,0.01498413)" /><path
     d="m 40.424985,139.11898 -3.997,0 0,-3.439 -7.742,0 -2.294,3.439 -4.707,0 15.485,-22.086 3.255,0 0,22.086 z m -3.997,-7.612 0,-6.444 -4.729,6.444 4.729,0 z"
     id="path29"
     style="fill:#f4f4f4;fill-opacity:1"
     inkscape:connector-curvature="0" /><polygon
     points="188.055,127.969 182.956,139.104 178.783,139.104 173.869,127.969 173.869,139.104 169.743,139.104 169.743,117.018 174.379,117.018 180.916,131.864 187.499,117.018 192.182,117.018 192.182,139.104 188.055,139.104 "
     id="polygon31"
     style="fill:#f4f4f4;fill-opacity:1"
     transform="translate(-127.75102,0.01498413)" /><polygon
     points="287.432,127.969 282.332,139.104 278.16,139.104 273.245,127.969 273.245,139.104 269.119,139.104 269.119,117.018 273.756,117.018 280.292,131.864 286.876,117.018 291.559,117.018 291.559,139.104 287.432,139.104 "
     id="polygon33"
     style="fill:#f4f4f4;fill-opacity:1"
     transform="translate(-127.75102,0.01498413)" /><rect
     x="65.62075"
     y="117.03298"
     width="4.2709999"
     height="22.086"
     id="rect35"
     style="fill:#f4f4f4;fill-opacity:1" /><polygon
     points="208.765,135.077 208.765,139.104 198.93,139.104 198.93,117.018 203.2,117.018 203.2,135.077 "
     id="polygon37"
     style="fill:#f4f4f4;fill-opacity:1"
     transform="translate(-127.75102,0.01498413)" /><polygon
     points="215.235,139.104 211.095,139.104 211.095,131.066 204.02,117.018 208.765,117.018 213.251,126.067 217.608,117.018 222.31,117.018 215.235,131.066 "
     id="polygon39"
     style="fill:#f4f4f4;fill-opacity:1"
     transform="translate(-127.75102,0.01498413)" /><path
     d="M 117.83098,133.41698"
     id="path41"
     style="fill:#f4f4f4;fill-opacity:1;stroke:#231f20;stroke-width:0.34509999"
     inkscape:connector-curvature="0" /><path
     d="m 117.76998,123.12398 c -1.875,-3.573 -5.621,-6.011 -9.937,-6.011 -6.194,0 -11.215995,5.021 -11.215995,11.216 0,6.195 5.020995,11.215 11.215995,11.215 4.346,0 8.115,-2.472 9.977,-6.087 l -5.082,0.042 c -1.253,1.155 -2.927,1.861 -4.766,1.861 -3.884,0 -7.031,-3.148 -7.031,-7.032 0,-3.884 3.147,-7.031 7.031,-7.031 1.813,0 3.466,0.686 4.712,1.813 l 5.096,0.014 z"
     id="path43"
     style="fill:#f4f4f4;fill-opacity:1"
     inkscape:connector-curvature="0" /><path
     d="m 128.86798,139.60298 c -6.226,0 -11.273,-5.048 -11.273,-11.274 0,-6.226 5.048,-11.274 11.273,-11.274 6.228,0 11.275,5.048 11.275,11.274 0.001,6.227 -5.047,11.274 -11.275,11.274 z m 7.178,-11.274 c 0,-3.939 -3.195,-7.133 -7.134,-7.133 -3.939,0 -7.133,3.194 -7.133,7.133 0,3.939 3.193,7.133 7.133,7.133 3.939,0 7.134,-3.194 7.134,-7.133 z"
     id="path45"
     style="fill:#f4f4f4;fill-opacity:1"
     inkscape:connector-curvature="0" /><path
     d="m 172.60298,117.03598 c 3.737,0.3 6.677,3.429 6.677,7.244 0,3.814 -2.939,6.943 -6.677,7.243 l -3.229,-0.015 0,7.611 -4.141,0 0,-22.086 4.141,0 3.229,0.003 z m -3.228,4.248 0,5.991 3.229,-0.003 c 1.412,-0.264 2.481,-1.503 2.481,-2.992 0,-1.49 -1.069,-2.729 -2.481,-2.993 l -3.229,-0.003 z"
     id="path47"
     style="fill:#f4f4f4;fill-opacity:1"
     inkscape:connector-curvature="0" /><path
     d="m 224.77698,139.23046 -4.099,0 0,-22.183 5.695,-0.008 3.228,0.002 c 3.737,0.3 6.677,3.429 6.677,7.244 0,3.116 -1.963,5.775 -4.719,6.807 l 4.778,8.137 -4.485,0 -6.697,-11.442 -0.378,0 0,11.443 z m -2.545,-0.105 m 4.142,0 m 3.229,-11.848 c 1.412,-0.264 2.481,-1.504 2.481,-2.992 0,-1.49 -1.069,-2.729 -2.481,-2.993 l -4.825,0 0,5.989 4.825,-0.004 z"
     id="path49"
     style="fill:#f4f4f4;fill-opacity:1"
     inkscape:connector-curvature="0" /><path
     sodipodi:nodetypes="ccsccccccsccccc"
     d="m 184.67698,129.62723 0.003,3.229 c 0.265,1.413 1.503,2.481 2.992,2.481 1.489,0 2.729,-1.069 2.993,-2.481 l 0.003,-3.229 0.011,-12.571 4.24,0 0,12.571 -0.004,3.229 c -0.3,3.738 -3.428,6.676 -7.243,6.676 -3.814,0 -6.942,-2.938 -7.243,-6.676 l 0.015,-3.229 -0.007,-12.571 4.256,0 z"
     id="path51"
     style="fill:#f4f4f4;fill-opacity:1"
     inkscape:connector-curvature="0" /><polygon
     points="323.281,117.208 323.281,121.389 326.905,121.389 326.905,139.391 331.09,139.391 331.09,121.389 334.842,121.389 334.842,117.208 "
     id="polygon53"
     style="fill:#f4f4f4;fill-opacity:1"
     transform="translate(-127.53162,-0.15276692)" /><polygon
     points="347.352,121.269 339.976,121.269 339.976,126.536 347.352,126.536 347.352,130.678 339.976,130.678 339.976,135.293 347.352,135.293 347.352,139.391 335.855,139.391 335.855,117.208 347.352,117.208 "
     id="polygon55"
     style="fill:#f4f4f4;fill-opacity:1"
     transform="translate(-127.66326,-0.15276692)" /><path
     d="M 224.77698,127.98398"
     id="path57"
     style="fill:#f4f4f4;fill-opacity:1;stroke:#231f20;stroke-width:0.34509999"
     inkscape:connector-curvature="0" /><polygon
     points="280.292,131.864 286.876,117.018 291.559,117.018 291.559,139.104 287.432,139.104 287.432,127.969 282.332,139.104 278.16,139.104 273.245,127.969 273.245,139.104 269.119,139.104 269.119,117.018 273.756,117.018 "
     id="polygon33-2"
     style="fill:#f4f4f4;fill-opacity:1"
     transform="translate(126.6947,0.0143907)" /><polygon
     points="347.352,117.208 347.352,121.269 339.976,121.269 339.976,126.536 347.352,126.536 347.352,130.678 339.976,130.678 339.976,135.293 347.352,135.293 347.352,139.391 335.855,139.391 335.855,117.208 "
     id="polygon55-8"
     style="fill:#f4f4f4;fill-opacity:1"
     transform="translate(47.120959,-0.17486229)" /><polygon
     points="334.842,117.208 323.281,117.208 323.281,121.389 326.905,121.389 326.905,139.391 331.09,139.391 331.09,121.389 334.842,121.389 "
     id="polygon53-8"
     style="fill:#f4f4f4;fill-opacity:1"
     transform="translate(46.878886,-0.16942629)" /><polygon
     points="217.608,117.018 222.31,117.018 215.235,131.066 215.235,139.104 211.095,139.104 211.095,131.066 204.02,117.018 208.765,117.018 213.251,126.067 "
     id="polygon39-8"
     style="fill:#f4f4f4;fill-opacity:1"
     transform="translate(134.39938,0.01966971)" /><rect
     x="273.42313"
     y="117.018"
     width="4.2710004"
     height="22.086002"
     id="rect35-7"
     style="fill:#f4f4f4;fill-opacity:1" /><path
     style="fill:#f4f4f4;fill-opacity:1"
     d="m 297.10359,139.24072 -4.0377,0.0458 -0.0837,-22.24504 4.15632,0 0.003,9.049 7.57184,-9.049 4.80372,0 -9.71811,11.55973 9.65922,10.66212 -4.4969,0.0963 -7.86024,-8.2041 z"
     id="polygon39-3"
     inkscape:connector-curvature="0"
     sodipodi:nodetypes="cccccccccccc" /><path
     style="fill:#f4f4f4;fill-opacity:1;stroke:none;stroke-width:0.97122413;stroke-opacity:1"
     d="m 253.6336,117.03363 0.0117,11.11523 -0.006,6.75781 0,4.32422 4.44727,0.008 c 2.25294,-7.7e-4 3.41444,0.008 5.11719,-0.18554 1.88272,-0.21447 2.15875,-0.50989 3.01953,-0.84961 4.12682,-1.6287 5.96226,-5.48427 6.00586,-10.66797 0.0286,-3.40215 -1.73595,-6.25633 -3.72071,-8.07031 -2.17369,-1.98663 -4.09766,-2.38777 -10.00781,-2.41407 l -4.86719,-0.0176 z m 6.07422,3.76171 c 1.34094,-0.0416 2.30048,0.0258 3,0.1836 1.34361,0.30318 1.69131,0.69204 2.15039,0.96484 2.68066,1.59292 3.62128,3.9993 3.26953,7.68164 -0.26587,2.78335 -1.73366,4.27532 -3.65429,5.16992 -0.57536,0.26799 -1.35902,0.5264 -2.08594,0.6211 l -1.40625,0.125 c -2.41498,-0.008 -3.11492,0.13703 -3.29102,-0.0391 -0.0669,-0.0668 -0.0456,-3.1553 -0.0273,-7.39844 l 0.0312,-7.2461 2.01367,-0.0625 z"
     id="path5401-8"
     inkscape:connector-curvature="0" /><path
     style="fill:#f4f4f4;fill-opacity:1;stroke:none;stroke-width:0.97122413;stroke-opacity:1"
     d="m 282.6047,138.60541 c -2.61439,-1.50824 -2.65836,-2.12103 -3.47182,-3.80766 -0.11782,-0.24428 -0.39715,-1.58099 -0.39715,-1.98124 0,-0.18072 0.005,-0.93334 0.005,-0.93334 l 3.91192,0.0115 0.005,0.79907 c 0.0198,0.32629 0.17047,0.88913 0.36474,1.28264 0.33596,0.68049 0.62421,1.07317 1.3703,1.28273 0.77731,0.22543 1.28425,0.26484 1.73045,0.21127 0.46033,-0.0553 1.18438,-0.5598 1.37336,-0.7328 0.41777,-0.39587 0.59282,-1.10327 0.65533,-1.39796 0.0812,-0.38321 0.0677,-0.34832 0.0677,-1.28752 0,-0.44279 -0.26452,-0.81411 -0.38692,-0.96788 -0.37191,-0.46723 -1.32654,-1.04 -2.76027,-1.59808 -3.30722,-1.28733 -4.4866,-2.1685 -5.18439,-3.7352 -0.60594,-1.36041 -0.80774,-3.59183 -0.18002,-4.93009 0.56256,-1.19959 1.40401,-2.40875 2.6183,-3.04027 0.80502,-0.41865 1.52268,-0.74073 2.98869,-0.74641 1.54136,-0.006 2.20048,0.0983 3.18804,0.61461 1.76633,0.92338 3.0531,2.49288 3.14435,4.24035 l 0.06,1.67538 c -1.3416,0 -2.25073,0.0465 -3.61901,0.0465 l -0.42589,-1.60079 c -0.14114,-0.53051 -0.74598,-1.36706 -2.24373,-1.30694 -1.157,0.0465 -1.7886,0.62857 -2.11015,1.74279 -0.11851,0.41067 -0.14329,0.81301 -0.0113,1.12764 0.38253,0.9118 1.34298,1.53477 3.58861,2.24515 1.29581,0.40992 2.86637,1.36243 3.57062,2.04397 1.29683,1.25499 1.69742,2.56767 1.69742,4.80938 0,2.27862 -1.31839,4.50483 -3.01252,5.55188 -1.41598,0.87511 -4.13224,1.18829 -5.8024,0.61121 z"
     id="path5401-6"
     inkscape:connector-curvature="0"
     sodipodi:nodetypes="csccccscscssssccccccccsssssssscc" /><path
     sodipodi:nodetypes="csccccscscssssccccccccsssssssscc"
     inkscape:connector-curvature="0"
     id="path4363"
     d="m 359.90786,138.60541 c -2.61439,-1.50824 -2.65836,-2.12103 -3.47182,-3.80766 -0.11782,-0.24428 -0.39715,-1.58099 -0.39715,-1.98124 0,-0.18072 0.005,-0.93334 0.005,-0.93334 l 3.91192,0.0115 0.005,0.79907 c 0.0198,0.32629 0.17047,0.88913 0.36474,1.28264 0.33596,0.68049 0.62421,1.07317 1.3703,1.28273 0.77731,0.22543 1.28425,0.26484 1.73045,0.21127 0.46033,-0.0553 1.18438,-0.5598 1.37336,-0.7328 0.41777,-0.39587 0.59282,-1.10327 0.65533,-1.39796 0.0812,-0.38321 0.0677,-0.34832 0.0677,-1.28752 0,-0.44279 -0.26452,-0.81411 -0.38692,-0.96788 -0.37191,-0.46723 -1.32654,-1.04 -2.76027,-1.59808 -3.30722,-1.28733 -4.4866,-2.1685 -5.18439,-3.7352 -0.60594,-1.36041 -0.80774,-3.59183 -0.18002,-4.93009 0.56256,-1.19959 1.40401,-2.40875 2.6183,-3.04027 0.80502,-0.41865 1.52268,-0.74073 2.98869,-0.74641 1.54136,-0.006 2.20048,0.0983 3.18804,0.61461 1.76633,0.92338 3.0531,2.49288 3.14435,4.24035 l 0.06,1.67538 c -1.3416,0 -2.25073,0.0465 -3.61901,0.0465 l -0.42589,-1.60079 c -0.14114,-0.53051 -0.74598,-1.36706 -2.24373,-1.30694 -1.157,0.0465 -1.7886,0.62857 -2.11015,1.74279 -0.11851,0.41067 -0.14329,0.81301 -0.0113,1.12764 0.38253,0.9118 1.34298,1.53477 3.58861,2.24515 1.29581,0.40992 2.86637,1.36243 3.57062,2.04397 1.29683,1.25499 1.69742,2.56767 1.69742,4.80938 0,2.27862 -1.31839,4.50483 -3.01252,5.55188 -1.41598,0.87511 -4.13224,1.18829 -5.8024,0.61121 z"
     style="fill:#f4f4f4;fill-opacity:1;stroke:none;stroke-width:0.97122413;stroke-opacity:1" /><path
     style="fill:#f4f4f4;fill-opacity:1;stroke:none;stroke-width:0.97122413;stroke-opacity:1"
     d="m 329.50148,138.60541 c -2.61439,-1.50824 -2.65836,-2.12103 -3.47182,-3.80766 -0.11782,-0.24428 -0.39715,-1.58099 -0.39715,-1.98124 0,-0.18072 0.005,-0.93334 0.005,-0.93334 l 3.91192,0.0115 0.005,0.79907 c 0.0198,0.32629 0.17047,0.88913 0.36474,1.28264 0.33596,0.68049 0.62421,1.07317 1.3703,1.28273 0.77731,0.22543 1.28425,0.26484 1.73045,0.21127 0.46033,-0.0553 1.18438,-0.5598 1.37336,-0.7328 0.41777,-0.39587 0.59282,-1.10327 0.65533,-1.39796 0.0812,-0.38321 0.0677,-0.34832 0.0677,-1.28752 0,-0.44279 -0.26452,-0.81411 -0.38692,-0.96788 -0.37191,-0.46723 -1.32654,-1.04 -2.76027,-1.59808 -3.30722,-1.28733 -4.4866,-2.1685 -5.18439,-3.7352 -0.60594,-1.36041 -0.80774,-3.59183 -0.18002,-4.93009 0.56256,-1.19959 1.40401,-2.40875 2.6183,-3.04027 0.80502,-0.41865 1.52268,-0.74073 2.98869,-0.74641 1.54136,-0.006 2.20048,0.0983 3.18804,0.61461 1.76633,0.92338 3.0531,2.49288 3.14435,4.24035 l 0.06,1.67538 c -1.3416,0 -2.25073,0.0465 -3.61901,0.0465 l -0.42589,-1.60079 c -0.14114,-0.53051 -0.74598,-1.36706 -2.24373,-1.30694 -1.157,0.0465 -1.7886,0.62857 -2.11015,1.74279 -0.11851,0.41067 -0.14329,0.81301 -0.0113,1.12764 0.38253,0.9118 1.34298,1.53477 3.58861,2.24515 1.29581,0.40992 2.86637,1.36243 3.57062,2.04397 1.29683,1.25499 1.69742,2.56767 1.69742,4.80938 0,2.27862 -1.31839,4.50483 -3.01252,5.55188 -1.41598,0.87511 -4.13224,1.18829 -5.8024,0.61121 z"
     id="path4365"
     inkscape:connector-curvature="0"
     sodipodi:nodetypes="csccccscscssssccccccccsssssssscc" /></svg>