<?xml version="1.0" encoding="UTF-8" standalone="no"?>
<!-- Generator: Adobe Illustrator 13.0.0, SVG Export Plug-In . SVG Version: 6.00 Build 14948)  -->

<svg
   xmlns:ns="&amp;ns_sfw;"
   xmlns:dc="http://purl.org/dc/elements/1.1/"
   xmlns:cc="http://creativecommons.org/ns#"
   xmlns:rdf="http://www.w3.org/1999/02/22-rdf-syntax-ns#"
   xmlns:svg="http://www.w3.org/2000/svg"
   xmlns="http://www.w3.org/2000/svg"
   xmlns:sodipodi="http://sodipodi.sourceforge.net/DTD/sodipodi-0.dtd"
   xmlns:inkscape="http://www.inkscape.org/namespaces/inkscape"
   version="1.1"
   id="Layer_1"
   x="0px"
   y="0px"
   width="134.32933"
   height="84.399445"
   viewBox="0 0 134.32933 84.399447"
   enable-background="new 0 0 566.929 102.84"
   xml:space="preserve"
   inkscape:version="0.91 r13725"
   sodipodi:docname="logoconsole.svg"><defs
     id="defs37" /><sodipodi:namedview
     pagecolor="#ffffff"
     bordercolor="#666666"
     borderopacity="1"
     objecttolerance="10"
     gridtolerance="10"
     guidetolerance="10"
     inkscape:pageopacity="0"
     inkscape:pageshadow="2"
     inkscape:window-width="1680"
     inkscape:window-height="975"
     id="namedview35"
     showgrid="false"
     inkscape:zoom="3.3825638"
     inkscape:cx="113.26817"
     inkscape:cy="54.335256"
     inkscape:window-x="1671"
     inkscape:window-y="-9"
     inkscape:window-maximized="1"
     inkscape:current-layer="Layer_1"
     fit-margin-top="0"
     fit-margin-left="0"
     fit-margin-right="0"
     fit-margin-bottom="0" /><metadata
     id="metadata3"><ns:sfw><ns:slices /><ns:sliceSourceBounds
         x="677.036"
         y="488.078"
         width="566.929"
         height="102.842"
         bottomLeftOrigin="true" /></ns:sfw><rdf:RDF><cc:Work
         rdf:about=""><dc:format>image/svg+xml</dc:format><dc:type
           rdf:resource="http://purl.org/dc/dcmitype/StillImage" /><dc:title></dc:title></cc:Work></rdf:RDF></metadata><g
     id="g4165"
     transform="matrix(0.54072786,0,0,0.54072786,38.912533,28.78991)"><polygon
       points="62.829,32.113 65.865,28.707 65.865,5.553 51.491,11.127 39.613,32.324 51.491,27.772 "
       id="polygon3542"
       style="fill:#1747ce" /><polygon
       points="88.391,25.369 102.98,19.742 102.98,81.161 88.391,87.288 66.938,59.29 66.938,96.307 51.491,102.842 51.491,39.606 66.938,33.69 88.391,64.354 "
       id="polygon3558"
       style="fill:#1747ce" /><polygon
       points="14.589,87.288 28.277,81.227 14.589,54.652 "
       id="polygon3560"
       style="fill:#1747ce" /><polygon
       points="39.613,32.324 51.491,11.127 37.117,5.535 29.178,19.742 36.044,33.689 "
       id="polygon3538"
       style="fill:#069330" /><polygon
       points="88.391,25.369 88.391,64.354 66.938,33.69 62.829,32.113 73.807,19.742 "
       id="polygon3540"
       style="fill:#069330" /><polygon
       points="51.491,39.606 36.044,33.689 36.044,65.792 14.589,25.369 0,19.742 0,81.161 14.589,87.288 14.589,54.652 36.044,96.307 51.491,102.842 "
       id="polygon3552"
       style="fill:#069330" /><polygon
       points="29.178,19.742 36.044,33.689 36.044,65.792 14.589,25.369 "
       id="polygon3554"
       style="fill:#cc130e" /><polygon
       points="71.321,80.73 88.391,87.288 66.938,59.29 66.938,74.586 "
       id="polygon3556"
       style="fill:#cc130e" /><polygon
       points="51.491,27.772 66.938,33.689 51.491,39.606 36.044,33.689 "
       id="polygon3544"
       style="fill:#ffc001" /><polygon
       points="88.391,25.369 73.802,19.742 88.391,14.129 102.98,19.742 "
       id="polygon3546"
       style="fill:#ffc001" /><polygon
       points="14.589,25.369 0,19.742 14.589,14.129 29.178,19.742 "
       id="polygon3548"
       style="fill:#ffc001" /><polygon
       points="51.491,11.127 65.865,5.553 51.491,0 37.117,5.535 "
       id="polygon3550"
       style="fill:#ffc001" /></g><polygon
     id="polygon3518"
     points="144.403,53.834 144.533,53.834 154.07,81.252 175.447,81.252 175.447,33.752 160.984,33.752 160.984,60.989 160.859,60.989 151.323,33.752 129.948,33.752 129.948,81.252 144.403,81.252 "
     style="fill:#b9bab9;fill-opacity:1"
     transform="matrix(0.30740314,0,0,0.30740314,-39.946423,-5.9419324)" /><polygon
     id="polygon3520"
     points="225.056,53.834 225.181,53.834 234.714,81.252 256.089,81.252 256.089,33.752 241.636,33.752 241.636,60.989 241.505,60.989 231.968,33.752 210.595,33.752 210.595,81.252 225.056,81.252 "
     style="fill:#b9bab9;fill-opacity:1"
     transform="matrix(0.30740314,0,0,0.30740314,-39.946423,-5.9419324)" /><polygon
     id="polygon3522"
     points="363.914,53.834 364.041,53.834 373.578,81.252 394.957,81.252 394.957,33.752 380.498,33.752 380.498,60.989 380.369,60.989 370.833,33.752 349.457,33.752 349.457,81.252 363.914,81.252 "
     style="fill:#b9bab9;fill-opacity:1"
     transform="matrix(0.30740314,0,0,0.30740314,-39.946423,-5.9419324)" /><polygon
     id="polygon3524"
     points="202.009,81.252 184.179,81.252 184.179,33.752 202.009,33.752 "
     style="fill:#b9bab9;fill-opacity:1"
     transform="matrix(0.30740314,0,0,0.30740314,-39.946423,-5.9419324)" /><polygon
     id="polygon3526"
     points="261.261,33.752 301.785,33.752 301.785,46.655 290.416,46.655 290.416,81.252 272.591,81.252 272.591,46.655 261.261,46.655 "
     style="fill:#b9bab9;fill-opacity:1"
     transform="matrix(0.30740314,0,0,0.30740314,-39.946423,-5.9419324)" /><polygon
     id="polygon3536"
     points="342.875,81.236 307.05,81.236 307.05,33.739 342.31,33.739 342.31,46.303 324.597,46.303 324.597,51.27 340.906,51.27 340.906,63.448 324.597,63.448 324.597,68.777 342.875,68.777 "
     style="fill:#b9bab9;fill-opacity:1"
     transform="matrix(0.30740314,0,0,0.30740314,-39.946423,-5.9419324)" /><path
     inkscape:connector-curvature="0"
     id="path3528"
     d="m 83.823303,4.4335386 6.493277,0 c 5.538175,0 7.300824,3.134589 7.300824,7.4622114 0,4.409083 -2.719903,7.139745 -6.973132,7.139745 l -6.820969,0 0,-14.6019564 0,0 z m 5.365107,11.2838474 0.534267,0 c 0.881325,0 1.472154,-0.270208 1.817367,-0.856733 0.363966,-0.607121 0.404543,-1.71285 0.404543,-3.126905 0,-1.415284 -0.0415,-2.5188614 -0.404543,-3.1269044 -0.345213,-0.58714 -0.936042,-0.857348 -1.817367,-0.857348 l -0.534267,0 0,7.9678904 0,0 z"
     style="fill:#b9bab9;fill-opacity:1" /><path
     inkscape:connector-curvature="0"
     id="path3530"
     d="m 106.20871,4.0505136 c 4.7712,0 7.14527,3.133361 7.14527,7.6835424 0,4.551411 -2.37468,7.685693 -7.14527,7.685693 -4.77182,0 -7.145899,-3.134282 -7.145899,-7.685693 0,-4.5501814 2.373159,-7.6835424 7.145899,-7.6835424 l 0,0 z m 0,11.6687164 c 0.84167,0 1.47584,-0.413764 1.47584,-3.985482 0,-3.4911774 -0.59606,-3.9842524 -1.47584,-3.9842524 -0.88071,0 -1.47585,0.493075 -1.47585,3.9842524 0,3.572025 0.63264,3.985482 1.47585,3.985482 l 0,0 z"
     style="fill:#b9bab9;fill-opacity:1" /><polygon
     id="polygon3566"
     points="144.403,53.834 144.533,53.834 154.07,81.252 175.447,81.252 175.447,33.752 160.984,33.752 160.984,60.989 160.859,60.989 151.323,33.752 129.948,33.752 129.948,81.252 144.403,81.252 "
     style="fill:#b9bab9;fill-opacity:1"
     transform="matrix(0.30740314,0,0,0.30740314,-39.946423,-5.9419324)" /><polygon
     id="polygon3568"
     points="225.056,53.834 225.181,53.834 234.714,81.252 256.089,81.252 256.089,33.752 241.636,33.752 241.636,60.989 241.505,60.989 231.968,33.752 210.595,33.752 210.595,81.252 225.056,81.252 "
     style="fill:#b9bab9;fill-opacity:1"
     transform="matrix(0.30740314,0,0,0.30740314,-39.946423,-5.9419324)" /><polygon
     id="polygon3570"
     points="363.914,53.834 364.041,53.834 373.578,81.252 394.957,81.252 394.957,33.752 380.498,33.752 380.498,60.989 380.369,60.989 370.833,33.752 349.457,33.752 349.457,81.252 363.914,81.252 "
     style="fill:#b9bab9;fill-opacity:1"
     transform="matrix(0.30740314,0,0,0.30740314,-39.946423,-5.9419324)" /><polygon
     id="polygon3572"
     points="202.009,81.252 184.179,81.252 184.179,33.752 202.009,33.752 "
     style="fill:#b9bab9;fill-opacity:1"
     transform="matrix(0.30740314,0,0,0.30740314,-39.946423,-5.9419324)" /><polygon
     id="polygon3574"
     points="261.261,33.752 301.785,33.752 301.785,46.655 290.416,46.655 290.416,81.252 272.591,81.252 272.591,46.655 261.261,46.655 "
     style="fill:#b9bab9;fill-opacity:1"
     transform="matrix(0.30740314,0,0,0.30740314,-39.946423,-5.9419324)" /><polygon
     id="polygon3576"
     points="342.875,81.236 307.05,81.236 307.05,33.739 342.31,33.739 342.31,46.303 324.597,46.303 324.597,51.27 340.906,51.27 340.906,63.448 324.597,63.448 324.597,68.777 342.875,68.777 "
     style="fill:#b9bab9;fill-opacity:1"
     transform="matrix(0.30740314,0,0,0.30740314,-39.946423,-5.9419324)" /><path
     inkscape:connector-curvature="0"
     id="path3532"
     d="m 123.15646,2.4919796 c -0.29173,-0.02551 -0.57516,-0.01353 -0.97078,0.0043 -2.31198,0.106977 -3.2471,1.092204 -3.56403,2.205311 l 0.0559,0 c 0.57577,-0.503219 1.28741,-0.738075 2.24066,-0.738075 1.83366,0 3.5087,1.333514 3.5087,3.835161 0,2.3937484 -1.84011,4.2581484 -4.30979,4.2581484 -3.25355,0 -4.66884,-2.4847394 -4.66884,-5.1490024 0,-2.164426 0.7679,-3.997471 2.02825,-5.179743 1.19949,-1.11126204 2.74634,-1.67258004 4.63933,-1.71592404 0.50137,-0.0289 0.79924,0 1.04056,0.02183 l 0,2.45799504 0,0 z m -3.08049,7.210449 c 0.74976,0 1.2044,-0.765742 1.2044,-1.743899 -0.006,-0.825684 -0.38425,-1.725453 -1.38946,-1.725453 -0.61419,0 -1.09282,0.389172 -1.27357,0.859191 -0.0704,0.144173 -0.0965,0.349518 -0.0965,0.697806 0.0642,0.932968 0.51397,1.912662 1.5364,1.912662 l 0.0188,-3.07e-4 0,0 z"
     style="fill:#dcdcdc;fill-opacity:1" /><path
     inkscape:connector-curvature="0"
     id="path3534"
     d="m 130.15971,11.860091 0,-2.6203044 -4.87111,0 0,-2.093723 3.91109,-6.96913704 3.89173,0 0,6.66234904 1.23791,0 0,2.400511 -1.23791,0 0,2.6203044 -2.93171,0 0,0 z m 0,-5.0208154 0,-2.00765 c 0,-0.742071 0.0446,-1.513038 0.0824,-2.325505 l -0.0636,0 c -0.36212,0.788489 -0.67721,1.539168 -1.08913,2.353786 l -0.95695,1.944632 -0.0101,0.03535 2.03746,-6.14e-4 0,0 z"
     style="fill:#dcdcdc;fill-opacity:1" /></svg>