<?xml version="1.0" encoding="UTF-8" standalone="no"?>
<!-- Generator: Adobe Illustrator 16.0.3, SVG Export Plug-In . SVG Version: 6.00 Build 0)  -->

<svg
   xmlns:dc="http://purl.org/dc/elements/1.1/"
   xmlns:cc="http://creativecommons.org/ns#"
   xmlns:rdf="http://www.w3.org/1999/02/22-rdf-syntax-ns#"
   xmlns:svg="http://www.w3.org/2000/svg"
   xmlns="http://www.w3.org/2000/svg"
   xmlns:sodipodi="http://sodipodi.sourceforge.net/DTD/sodipodi-0.dtd"
   xmlns:inkscape="http://www.inkscape.org/namespaces/inkscape"
   version="1.1"
   id="Ebene_1"
   x="0px"
   y="0px"
   width="702.11578"
   height="653.67645"
   viewBox="0 0 702.11577 653.67647"
   enable-background="new 0 0 566.929 226.773"
   xml:space="preserve"
   inkscape:version="0.91 r13725"
   sodipodi:docname="logoconsole.svg"><metadata
     id="metadata9"><rdf:RDF><cc:Work
         rdf:about=""><dc:format>image/svg+xml</dc:format><dc:type
           rdf:resource="http://purl.org/dc/dcmitype/StillImage" /><dc:title /></cc:Work></rdf:RDF></metadata><defs
     id="defs7" /><sodipodi:namedview
     pagecolor="#ffffff"
     bordercolor="#666666"
     borderopacity="1"
     objecttolerance="10"
     gridtolerance="10"
     guidetolerance="10"
     inkscape:pageopacity="0"
     inkscape:pageshadow="2"
     inkscape:window-width="1680"
     inkscape:window-height="975"
     id="namedview5"
     showgrid="false"
     inkscape:zoom="0.61310794"
     inkscape:cx="389.89692"
     inkscape:cy="264.75808"
     inkscape:window-x="1671"
     inkscape:window-y="-9"
     inkscape:window-maximized="1"
     inkscape:current-layer="layer3"
     fit-margin-top="0"
     fit-margin-left="0"
     fit-margin-right="0"
     fit-margin-bottom="0" /><g
     inkscape:groupmode="layer"
     id="layer1"
     inkscape:label="Layer 1"
     transform="translate(53.342242,49.860759)" /><g
     inkscape:groupmode="layer"
     id="layer3"
     inkscape:label="Layer 3"><rect
       ry="30.408842"
       y="0.44999239"
       x="0.45001221"
       height="652.77643"
       width="701.21576"
       id="rect6854"
       style="opacity:1;fill:#bfbfc1;fill-opacity:1;fill-rule:evenodd;stroke:none;stroke-width:0.89999998;stroke-linecap:round;stroke-linejoin:round;stroke-miterlimit:4;stroke-dasharray:none;stroke-dashoffset:0;stroke-opacity:1" /></g><g
     inkscape:groupmode="layer"
     id="layer2"
     inkscape:label="Layer 2"
     transform="translate(53.342242,49.860759)"><path
       style="fill:#060906;fill-opacity:1"
       d="M 3.605469,0 A 3.6059118,3.6059118 0 0 0 0,3.605469 l 0,15.517578 a 3.6059118,3.6059118 0 0 0 3.605469,3.605469 l 110.351561,0 a 3.6059118,3.6059118 0 0 0 3.60547,-3.605469 l 0,-15.517578 A 3.6059118,3.6059118 0 0 0 113.95703,0 L 3.605469,0 Z"
       id="path5510"
       inkscape:connector-curvature="0" /><path
       style="fill:#060906;fill-opacity:1"
       d="m 139.5918,0 a 3.6059118,3.6059118 0 0 0 -3.60547,3.605469 l 0,15.517578 a 3.6059118,3.6059118 0 0 0 3.60547,3.605469 l 157.25586,0 a 3.6059118,3.6059118 0 0 0 2.50586,-6.199219 C 299.35352,16.529297 282.53706,0 259.50977,0 L 139.5918,0 Z"
       id="path5508"
       inkscape:connector-curvature="0" /><path
       style="fill:#060906;fill-opacity:1"
       d="m 337.69727,0 a 3.6059118,3.6059118 0 0 0 -3.60547,3.605469 l 0,15.517578 a 3.6059118,3.6059118 0 0 0 3.60547,3.605469 l 95.13867,0 a 3.6059118,3.6059118 0 0 0 3.38867,-4.837891 L 430.57617,2.373047 A 3.6059118,3.6059118 0 0 0 427.1875,0 l -89.49023,0 z"
       id="path5506"
       inkscape:connector-curvature="0" /><path
       style="fill:#060906;fill-opacity:1"
       d="m 501.04492,0 a 3.6059118,3.6059118 0 0 0 -3.38867,2.373047 l -5.64648,15.517578 a 3.6059118,3.6059118 0 0 0 3.38867,4.837891 l 94.27344,0 a 3.6059118,3.6059118 0 0 0 3.60547,-3.605469 l 0,-15.517578 A 3.6059118,3.6059118 0 0 0 589.67188,0 l -88.62696,0 z"
       id="path5504"
       inkscape:connector-curvature="0" /><path
       style="fill:#060906;fill-opacity:1"
       d="M 3.605469,34.173828 A 3.6059118,3.6059118 0 0 0 0,37.779297 l 0,15.515625 a 3.6059118,3.6059118 0 0 0 3.605469,3.605469 l 110.351561,0 a 3.6059118,3.6059118 0 0 0 3.60547,-3.605469 l 0,-15.515625 a 3.6059118,3.6059118 0 0 0 -3.60547,-3.605469 l -110.351561,0 z"
       id="path5502"
       inkscape:connector-curvature="0" /><path
       style="fill:#060906;fill-opacity:1"
       d="m 139.5918,34.195308 a 3.6059118,3.6059118 0 0 0 -3.60547,3.605468 l 0,15.492188 a 3.6059118,3.6059118 0 0 0 3.60547,3.605469 l 175.50586,0 a 3.6059118,3.6059118 0 0 0 3.55273,-4.216797 c 0,0 -0.53663,-3.144534 -1.55273,-6.775391 -1.0161,-3.630857 -2.10968,-7.705279 -5.08399,-10.662109 a 3.6059118,3.6059118 0 0 0 -2.54101,-1.048828 l -169.88086,0 z"
       id="path5500"
       inkscape:connector-curvature="0" /><path
       style="fill:#060906;fill-opacity:1"
       d="m 337.69727,34.195308 a 3.6059118,3.6059118 0 0 0 -3.60547,3.605468 l 0,15.492188 a 3.6059118,3.6059118 0 0 0 3.60547,3.605469 l 105.56836,0 a 3.6059118,3.6059118 0 0 0 3.41601,-4.757813 l -5.22851,-15.492187 a 3.6059118,3.6059118 0 0 0 -3.41602,-2.453125 l -100.33984,0 z"
       id="path5498"
       inkscape:connector-curvature="0" /><path
       style="fill:#060906;fill-opacity:1"
       d="m 489.75,34.195308 a 3.6059118,3.6059118 0 0 0 -3.41601,2.453125 l -5.22657,15.492187 a 3.6059118,3.6059118 0 0 0 3.41602,4.757813 l 105.14453,0 a 3.6059118,3.6059118 0 0 0 3.60547,-3.605469 l 0,-15.492188 a 3.6059118,3.6059118 0 0 0 -3.60547,-3.605468 l -99.91797,0 z"
       id="path5496"
       inkscape:connector-curvature="0" /><path
       style="fill:#060906;fill-opacity:1"
       d="m 35.31836,68.345703 a 3.6059118,3.6059118 0 0 0 -3.605469,3.605469 l 0,15.535156 a 3.6059118,3.6059118 0 0 0 3.605469,3.605469 l 47.791015,0 a 3.6059118,3.6059118 0 0 0 3.605469,-3.605469 l 0,-15.535156 a 3.6059118,3.6059118 0 0 0 -3.605469,-3.605469 l -47.791015,0 z"
       id="path5494"
       inkscape:connector-curvature="0" /><path
       style="fill:#060906;fill-opacity:1"
       d="m 171.30469,68.345703 a 3.6059118,3.6059118 0 0 0 -3.60547,3.605469 l 0,15.535156 a 3.6059118,3.6059118 0 0 0 3.60547,3.605469 l 47.78906,0 a 3.6059118,3.6059118 0 0 0 3.60547,-3.605469 l 0,-15.535156 a 3.6059118,3.6059118 0 0 0 -3.60547,-3.605469 l -47.78906,0 z"
       id="path5492"
       inkscape:connector-curvature="0" /><path
       style="fill:#060906;fill-opacity:1"
       d="m 265.58008,68.345703 a 3.6059118,3.6059118 0 0 0 -3.60547,3.605469 l 0,15.535156 a 3.6059118,3.6059118 0 0 0 3.60547,3.605469 l 47.78906,0 A 3.6059118,3.6059118 0 0 0 316.75,88.736328 c 0,0 3.25977,-8.459847 3.25977,-16.785156 a 3.6059118,3.6059118 0 0 0 -3.60547,-3.605469 l -50.82422,0 z"
       id="path5490"
       inkscape:connector-curvature="0" /><path
       style="fill:#060906;fill-opacity:1"
       d="m 369.41016,68.345703 a 3.6059118,3.6059118 0 0 0 -3.60547,3.605469 l 0,15.535156 a 3.6059118,3.6059118 0 0 0 3.60547,3.605469 l 84.72851,0 a 3.6059118,3.6059118 0 0 0 3.38868,-4.83789 L 451.88086,70.71875 a 3.6059118,3.6059118 0 0 0 -3.38867,-2.373047 l -79.08203,0 z"
       id="path5488"
       inkscape:connector-curvature="0" /><path
       style="fill:#060906;fill-opacity:1"
       d="m 479.3418,68.345703 a 3.6059118,3.6059118 0 0 0 -3.38672,2.369141 L 470.28516,86.25 a 3.6059118,3.6059118 0 0 0 3.38672,4.841797 l 85.15039,0 a 3.6059118,3.6059118 0 0 0 3.60547,-3.605469 l 0,-15.535156 a 3.6059118,3.6059118 0 0 0 -3.60547,-3.605469 l -79.48047,0 z"
       id="path5486"
       inkscape:connector-curvature="0" /><path
       style="fill:#060906;fill-opacity:1"
       d="m 35.31836,102.54297 a 3.6059118,3.6059118 0 0 0 -3.605469,3.60547 l 0,15.51562 a 3.6059118,3.6059118 0 0 0 3.605469,3.60547 l 47.791015,0 a 3.6059118,3.6059118 0 0 0 3.605469,-3.60547 l 0,-15.51562 a 3.6059118,3.6059118 0 0 0 -3.605469,-3.60547 l -47.791015,0 z"
       id="path5484"
       inkscape:connector-curvature="0" /><path
       style="fill:#060906;fill-opacity:1"
       d="m 171.30469,102.54297 a 3.6059118,3.6059118 0 0 0 -3.60547,3.60547 l 0,15.51562 a 3.6059118,3.6059118 0 0 0 3.60547,3.60547 l 122.0664,0 a 3.6059118,3.6059118 0 0 0 2.2168,-0.76172 c 0,0 2.71713,-2.11656 5.83399,-5.20703 3.11685,-3.09047 6.73958,-7.11267 8.72656,-11.72656 a 3.6059118,3.6059118 0 0 0 -3.3125,-5.03125 l -135.53125,0 z"
       id="path5482"
       inkscape:connector-curvature="0" /><path
       style="fill:#060906;fill-opacity:1"
       d="m 369.41016,102.54297 c -1.99114,2.4e-4 -3.60523,1.61432 -3.60547,3.60547 l 0,15.51562 c 2.4e-4,1.99114 1.61432,3.60523 3.60547,3.60547 47.20768,0 94.41536,0 141.62304,0 l 47.78907,0 c 1.99115,-2.4e-4 3.60523,-1.61433 3.60547,-3.60547 l 0,-15.51562 c -2.4e-4,-1.99115 -1.61433,-3.60523 -3.60547,-3.60547 l -89.71094,0 c -1.51783,-2.6e-4 -2.87333,0.94999 -3.39063,2.37695 l -1.3789,3.80664 -1.38672,-3.81054 c -0.51836,-1.42475 -1.87256,-2.37308 -3.38867,-2.37305 z"
       id="path5480"
       inkscape:connector-curvature="0"
       sodipodi:nodetypes="ccccccccccccccc" /><path
       style="fill:#060906;fill-opacity:1"
       d="m 35.31836,136.71485 a 3.6059118,3.6059118 0 0 0 -3.605469,3.60546 l 0,15.51758 a 3.6059118,3.6059118 0 0 0 3.605469,3.60547 l 47.791015,0 a 3.6059118,3.6059118 0 0 0 3.605469,-3.60547 l 0,-15.51758 a 3.6059118,3.6059118 0 0 0 -3.605469,-3.60546 l -47.791015,0 z"
       id="path5478"
       inkscape:connector-curvature="0" /><path
       style="fill:#060906;fill-opacity:1"
       d="m 171.30469,136.71485 a 3.6059118,3.6059118 0 0 0 -3.60547,3.60546 l 0,15.51758 a 3.6059118,3.6059118 0 0 0 3.60547,3.60547 l 135.5332,0 a 3.6059118,3.6059118 0 0 0 3.3086,-5.03711 c -1.98853,-4.59816 -5.60563,-8.61595 -8.72071,-11.70898 -3.11507,-3.09303 -5.83008,-5.2168 -5.83008,-5.2168 a 3.6059118,3.6059118 0 0 0 -2.22265,-0.76562 l -122.06836,0 z"
       id="path5476"
       inkscape:connector-curvature="0" /><path
       style="fill:#060906;fill-opacity:1"
       d="m 369.41016,136.71485 a 3.6059118,3.6059118 0 0 0 -3.60547,3.60546 l 0,15.51758 a 3.6059118,3.6059118 0 0 0 3.60547,3.60547 l 47.79101,0 a 3.6059118,3.6059118 0 0 0 3.60547,-3.60547 l 0,-15.51758 a 3.6059118,3.6059118 0 0 0 -3.60547,-3.60546 l -47.79101,0 z"
       id="path5474"
       inkscape:connector-curvature="0" /><path
       style="fill:#060906;fill-opacity:1"
       d="m 425.88281,136.71485 a 3.6059118,3.6059118 0 0 0 -3.3789,4.86328 l 5.77929,15.51757 a 3.6059118,3.6059118 0 0 0 3.37891,2.34766 l 65.64063,0 a 3.6059118,3.6059118 0 0 0 3.39843,-2.40234 l 5.49219,-15.51758 a 3.6059118,3.6059118 0 0 0 -3.39844,-4.80859 l -76.91211,0 z"
       id="path5472"
       inkscape:connector-curvature="0" /><path
       style="fill:#060906;fill-opacity:1"
       d="m 511.0332,136.71485 a 3.6059118,3.6059118 0 0 0 -3.60546,3.60546 l 0,15.51758 a 3.6059118,3.6059118 0 0 0 3.60546,3.60547 l 47.78907,0 a 3.6059118,3.6059118 0 0 0 3.60547,-3.60547 l 0,-15.51758 a 3.6059118,3.6059118 0 0 0 -3.60547,-3.60546 l -47.78907,0 z"
       id="path5470"
       inkscape:connector-curvature="0" /><path
       style="fill:#060906;fill-opacity:1"
       d="m 35.31836,170.88867 a 3.6059118,3.6059118 0 0 0 -3.605469,3.60547 l 0,15.51367 a 3.6059118,3.6059118 0 0 0 3.605469,3.60547 l 47.791015,0 a 3.6059118,3.6059118 0 0 0 3.605469,-3.60547 l 0,-15.51367 a 3.6059118,3.6059118 0 0 0 -3.605469,-3.60547 l -47.791015,0 z"
       id="path5468"
       inkscape:connector-curvature="0" /><path
       style="fill:#060906;fill-opacity:1"
       d="m 171.30469,170.88867 a 3.6059118,3.6059118 0 0 0 -3.60547,3.60547 l 0,15.51367 a 3.6059118,3.6059118 0 0 0 3.60547,3.60547 l 47.78906,0 a 3.6059118,3.6059118 0 0 0 3.60547,-3.60547 l 0,-15.51367 a 3.6059118,3.6059118 0 0 0 -3.60547,-3.60547 l -47.78906,0 z"
       id="path5466"
       inkscape:connector-curvature="0" /><path
       style="fill:#060906;fill-opacity:1"
       d="m 265.58008,170.88867 a 3.6059118,3.6059118 0 0 0 -3.60547,3.60547 l 0,15.51367 a 3.6059118,3.6059118 0 0 0 3.60547,3.60547 l 50.82422,0 a 3.6059118,3.6059118 0 0 0 3.60547,-3.60547 c 0,-8.31839 -3.25977,-16.76562 -3.25977,-16.76562 a 3.6059118,3.6059118 0 0 0 -3.38086,-2.35352 l -47.78906,0 z"
       id="path5464"
       inkscape:connector-curvature="0" /><path
       style="fill:#060906;fill-opacity:1"
       d="m 369.41016,170.88867 a 3.6059118,3.6059118 0 0 0 -3.60547,3.60547 l 0,15.51367 a 3.6059118,3.6059118 0 0 0 3.60547,3.60547 l 47.79101,0 a 3.6059118,3.6059118 0 0 0 3.60547,-3.60547 l 0,-15.51367 a 3.6059118,3.6059118 0 0 0 -3.60547,-3.60547 l -47.79101,0 z"
       id="path5462"
       inkscape:connector-curvature="0" /><path
       style="fill:#060906;fill-opacity:1"
       d="m 436.73438,170.88867 a 3.6059118,3.6059118 0 0 0 -3.39063,4.83008 l 5.60156,15.51367 a 3.6059118,3.6059118 0 0 0 3.39063,2.38086 l 44.00586,0 a 3.6059118,3.6059118 0 0 0 3.38867,-2.37304 l 5.64453,-15.51368 a 3.6059118,3.6059118 0 0 0 -3.38867,-4.83789 l -55.25195,0 z"
       id="path5460"
       inkscape:connector-curvature="0" /><path
       style="fill:#060906;fill-opacity:1"
       d="m 511.0332,170.88867 a 3.6059118,3.6059118 0 0 0 -3.60546,3.60547 l 0,15.51367 a 3.6059118,3.6059118 0 0 0 3.60546,3.60547 l 47.78907,0 a 3.6059118,3.6059118 0 0 0 3.60547,-3.60547 l 0,-15.51367 a 3.6059118,3.6059118 0 0 0 -3.60547,-3.60547 l -47.78907,0 z"
       id="path5458"
       inkscape:connector-curvature="0" /><path
       style="fill:#060906;fill-opacity:1"
       d="m 4.4687503,205.0625 a 3.6059118,3.6059118 0 0 0 -3.6054693,3.60547 l 0,15.53711 a 3.6059118,3.6059118 0 0 0 3.6054693,3.60547 l 110.3535197,0 a 3.6059118,3.6059118 0 0 0 3.60547,-3.60547 l 0,-15.53711 a 3.6059118,3.6059118 0 0 0 -3.60547,-3.60547 l -110.3535197,0 z"
       id="path5456"
       inkscape:connector-curvature="0" /><path
       style="fill:#060906;fill-opacity:1"
       d="m 139.5918,205.0625 a 3.6059118,3.6059118 0 0 0 -3.60547,3.60547 l 0,15.53711 a 3.6059118,3.6059118 0 0 0 3.60547,3.60547 l 169.88086,0 a 3.6059118,3.6059118 0 0 0 2.54492,-1.05078 c 2.97351,-2.96352 4.06426,-7.04893 5.08008,-10.68946 1.01581,-3.64053 1.55469,-6.79296 1.55469,-6.79296 a 3.6059118,3.6059118 0 0 0 -3.55469,-4.21485 l -175.50586,0 z"
       id="path5454"
       inkscape:connector-curvature="0" /><path
       style="fill:#060906;fill-opacity:1"
       d="m 338.5625,205.0625 a 3.6059118,3.6059118 0 0 0 -3.60547,3.60547 l 0,15.53711 a 3.6059118,3.6059118 0 0 0 3.60547,3.60547 l 78.64063,0 a 3.6059118,3.6059118 0 0 0 3.60546,-3.60547 l 0,-15.53711 a 3.6059118,3.6059118 0 0 0 -3.60546,-3.60547 l -78.64063,0 z"
       id="path5452"
       inkscape:connector-curvature="0" /><path
       style="fill:#060906;fill-opacity:1"
       d="m 447.60742,205.0625 a 3.6059118,3.6059118 0 0 0 -3.38086,4.85742 l 5.75782,15.53711 a 3.6059118,3.6059118 0 0 0 3.38086,2.35352 l 22.38867,0 a 3.6059118,3.6059118 0 0 0 3.40625,-2.42188 l 5.40429,-15.53711 a 3.6059118,3.6059118 0 0 0 -3.40625,-4.78906 l -33.55078,0 z"
       id="path5450"
       inkscape:connector-curvature="0" /><path
       style="fill:#060906;fill-opacity:1"
       d="m 511.0332,205.0625 a 3.6059118,3.6059118 0 0 0 -3.60546,3.60547 l 0,15.53711 a 3.6059118,3.6059118 0 0 0 3.60546,3.60547 l 79.50196,0 a 3.6059118,3.6059118 0 0 0 3.60547,-3.60547 l 0,-15.53711 a 3.6059118,3.6059118 0 0 0 -3.60547,-3.60547 l -79.50196,0 z"
       id="path5448"
       inkscape:connector-curvature="0" /><path
       style="fill:#060906;fill-opacity:1"
       d="m 4.4687503,239.25781 a 3.6059118,3.6059118 0 0 0 -3.6054693,3.60547 l 0,15.51563 a 3.6059118,3.6059118 0 0 0 3.6054693,3.60547 l 110.3535197,0 a 3.6059118,3.6059118 0 0 0 3.60547,-3.60547 l 0,-15.51563 a 3.6059118,3.6059118 0 0 0 -3.60547,-3.60547 l -110.3535197,0 z"
       id="path5446"
       inkscape:connector-curvature="0" /><path
       style="fill:#060906;fill-opacity:1"
       d="m 139.5918,239.25781 a 3.6059118,3.6059118 0 0 0 -3.60547,3.60547 l 0,15.49219 a 3.6059118,3.6059118 0 0 0 3.60547,3.60547 l 119.91797,0 c 23.02534,0 39.84179,-16.50195 39.84179,-16.50195 a 3.6059118,3.6059118 0 0 0 -2.5039,-6.20118 l -157.25586,0 z"
       id="path5444"
       inkscape:connector-curvature="0" /><path
       style="fill:#060906;fill-opacity:1"
       d="m 338.5625,239.25781 a 3.6059118,3.6059118 0 0 0 -3.60547,3.60547 l 0,15.51563 a 3.6059118,3.6059118 0 0 0 3.60547,3.60547 l 78.64063,0 a 3.6059118,3.6059118 0 0 0 3.60546,-3.60547 l 0,-15.51563 a 3.6059118,3.6059118 0 0 0 -3.60546,-3.60547 l -78.64063,0 z"
       id="path5442"
       inkscape:connector-curvature="0" /><path
       style="fill:#060906;fill-opacity:1"
       d="m 458.52539,239.25781 a 3.6059118,3.6059118 0 0 0 -3.39453,4.82032 l 5.5332,15.47265 a 3.6059118,3.6059118 0 0 0 3.3125,2.39063 l 0.95313,0.0215 a 3.6059118,3.6059118 0 0 0 3.4707,-2.375 l 5.625,-15.49219 a 3.6059118,3.6059118 0 0 0 -3.38867,-4.83593 l -12.11133,-0.002 z"
       id="path5440"
       inkscape:connector-curvature="0" /><path
       style="fill:#060906;fill-opacity:1"
       d="m 511.0332,239.25781 a 3.6059118,3.6059118 0 0 0 -3.60546,3.60547 l 0,15.51563 a 3.6059118,3.6059118 0 0 0 3.60546,3.60547 l 79.50196,0 a 3.6059118,3.6059118 0 0 0 3.60547,-3.60547 l 0,-15.51563 a 3.6059118,3.6059118 0 0 0 -3.60547,-3.60547 l -79.50196,0 z"
       id="path5435"
       inkscape:connector-curvature="0" /><g
       style=""
       id="g6729"
       transform="matrix(1.1628399,0,0,1.1628399,5.988355,-65.074089)"><path
         sodipodi:nodetypes="sssssssssscscscsssscssscsscscssssscsssccsssscscccccssccsssssssccccsssccsccccssccsssscccscccsscccssscccccsssccsssssscssscsssssssssssssscssssssssssccsscsscccsscsscccsscsscccssscccsssssssssssscsssssssccsssscccssssssssssssccssscssssssssscsscc"
         inkscape:connector-curvature="0"
         id="path6665"
         d="m 66.841426,411.30756 c -3.715064,-1.38159 -6.314744,-5.51778 -6.947939,-11.05445 -0.449258,-3.92819 0.436866,-9.6256 2.25581,-14.50409 2.176841,-5.83837 7.662696,-14.01436 12.549838,-18.70401 3.997069,-3.83552 6.509168,-5.23778 10.34034,-5.77198 4.24516,-0.59192 7.881891,1.34958 9.826912,5.24621 0.640591,1.28336 0.777971,1.87417 0.869581,3.74004 0.13507,2.75091 -0.31838,4.72914 -1.674101,7.30361 -1.572511,2.98609 -2.882021,4.32042 -6.472683,6.5953 -3.570431,2.26207 -5.504814,2.96726 -12.283235,4.47793 -2.052929,0.45752 -3.850688,0.86228 -3.995043,0.89946 -0.387406,0.0998 -1.291587,3.80333 -1.585924,6.49601 -0.401043,3.6688 1.892941,8.61462 3.67695,7.75353 0.99454,-0.49321 2.655688,-1.14267 5.180339,-3.1167 5.761198,-4.50468 8.211633,-3.06414 7.306695,0.0873 -2.868563,5.23057 -7.039143,8.85546 -11.54289,10.33281 -2.289844,0.75113 -5.798565,0.85356 -7.50465,0.21908 z m 10.710397,-29.70441 c 2.640795,-1.24975 4.798992,-2.6636 6.048895,-3.96269 2.683696,-2.78934 4.054586,-5.46622 4.264076,-8.32624 0.14168,-1.93456 -0.17654,-2.76836 -1.16926,-3.06375 -1.299852,-0.38676 -4.579725,2.49361 -7.387817,6.48793 -1.50283,2.13768 -4.518263,7.41095 -5.474106,9.57289 l -0.373715,0.84527 1.270991,-0.40995 c 0.699038,-0.22547 1.968453,-0.74003 2.820936,-1.14346 z m 157.185157,29.84852 c -0.13525,-0.0515 -0.6606,-0.15875 -1.16744,-0.23821 -1.87792,-0.29444 -2.12005,-2.06879 -0.77629,-5.68807 0.80004,-2.15472 5.6679,-13.62173 6.98398,-16.45175 0.61498,-1.32241 5.65987,-14.81753 5.65987,-15.01168 0,-0.51486 -2.02442,0.82677 -3.93972,3.48769 -1.13688,1.57951 -1.26385,1.67904 -2.33361,1.82943 -1.81346,0.25495 -2.37754,0.0312 -3.14405,-1.24716 l -0.67843,-1.13145 1.12764,-1.78812 c 4.90413,-7.77657 13.30166,-14.6329 18.38075,-15.00739 1.31094,-0.0967 1.62349,-0.0408 2.20999,0.39489 1.07625,0.79954 1.65299,2.08885 1.65299,3.69521 0.0692,2.91636 0.44954,2.84559 -1.43441,7.98997 5.22254,-6.11396 8.26951,-7.19578 11.173,-9.1856 4.26583,-2.92348 8.58818,-3.71126 11.53214,-2.40975 2.24677,0.99331 3.11598,2.41601 3.10106,5.07585 -0.0197,3.50248 -1.88892,8.5453 -7.65722,20.65697 -3.15229,6.61879 -5.07118,11.53718 -5.00752,11.59278 0.12065,0.10544 1.71438,-1.03589 3.11794,-2.9499 l 1.44904,-1.97604 1.83569,0.067 1.83568,0.067 0.72777,1.18318 0.7277,1.18319 -1.68295,2.39009 c -5.16248,7.33164 -10.39331,12.00423 -14.783,13.20549 -2.90352,0.79457 -5.79047,0.24903 -7.01073,-1.32478 -0.97872,-1.26235 -0.40899,-4.81378 1.44476,-9.00556 0.45443,-1.02754 2.92541,-6.17349 5.49104,-11.43543 7.09099,-14.543 9.86343,-20.97861 9.03759,-20.97861 -0.10106,0 -0.97323,0.49199 -1.93814,1.0933 -3.33566,2.07867 -8.76697,7.67688 -15.1548,15.62043 -3.95041,4.91249 -8.60953,12.37498 -12.77914,20.46823 -1.44726,2.80916 -2.44288,4.4482 -3.00806,4.95209 -0.77627,0.69208 -1.00308,0.76198 -2.79601,0.86184 -1.07315,0.0598 -2.06186,0.0665 -2.19711,0.0149 z m 111.60862,-0.14618 c -0.41079,-0.112 -1.06767,-0.5175 -1.45971,-0.90111 -0.99122,-0.96996 -1.12117,-2.7252 -0.37661,-5.08724 0.81608,-2.58899 3.65875,-9.2414 8.17247,-19.12518 2.22928,-4.88156 5.24506,-11.83216 6.70177,-15.44579 4.81376,-11.94168 6.46387,-15.75878 9.96595,-23.05341 1.40208,-2.92056 2.1993,-8.31798 2.00087,-8.61902 -0.24906,-0.37779 -0.38567,-0.87038 -2.43357,-1.61596 l -2.15184,-0.54086 0.0467,-1.0094 c 0.0256,-0.55517 0.11535,-1.54413 0.19923,-2.19769 l 0.15239,-1.1883 1.64508,-0.14552 c 3.35355,-0.29663 8.85051,-0.58339 11.24698,-0.58668 l 2.47058,-0.003 0.91062,0.87423 c 0.50079,0.48082 0.91054,1.06824 0.91054,1.30537 0,0.75763 -1.93635,6.04367 -4.09284,11.17315 -1.15029,2.73609 -4.35584,10.52482 -7.12339,17.30829 -2.76758,6.78347 -6.45703,15.70514 -8.19882,19.82594 -1.74178,4.1208 -3.79578,9.04846 -4.56439,10.95037 -1.13806,4.37869 1.71057,2.89307 3.51065,0.88091 l 1.53718,-2.11603 1.30708,-0.1531 c 2.01842,-0.23643 2.33904,-0.12167 3.07307,1.09976 l 0.65786,1.09474 -0.85172,1.5452 c -1.34359,2.43766 -3.52321,5.03016 -6.74478,8.02256 -4.37342,4.06223 -9.11386,6.86857 -12.85918,7.61255 -1.87872,0.37319 -2.56798,0.39124 -3.65221,0.0956 z m -241.96768,-0.31481 c -0.50847,-0.1701 -1.09671,-0.44328 -1.30723,-0.60707 -1.23035,-0.95727 -1.43344,-3.34457 -0.48907,-5.74892 0.32371,-0.82416 1.52496,-3.8845 2.66946,-6.80075 2.38566,-6.07887 5.43862,-14.43176 8.11659,-22.20702 0.26622,-1.62976 -2.1037,-0.80447 -2.1037,-0.80447 -2.26503,2.49339 -1.88304,3.18882 -4.76218,3.76189 -1.15583,-0.14343 -1.56651,-0.1286 -2.55605,-1.15878 -0.74451,-1.35704 0.26556,-2.76632 0.4047,-3.02229 1.52686,-2.37532 4.73191,-6.13464 7.30654,-8.57006 3.45053,-3.26394 6.22174,-4.82374 9.14169,-5.14547 3.34731,-0.36882 5.85866,2.03914 5.39418,5.17208 -0.15644,1.05513 0.12702,2.49838 -0.1973,3.35429 2.84955,-3.16256 4.10442,-5.53337 8.21323,-7.44649 5.01934,-2.2254 10.22287,-1.15089 12.41809,2.56428 0.66019,1.1173 0.72516,1.42348 0.72516,3.41733 0,1.87638 -0.0912,2.37169 -0.63693,3.45802 -1.42898,2.84466 -2.93464,3.77705 -6.12544,3.79321 -1.7785,0.009 -2.22884,-0.0702 -3.01998,-0.53133 -1.19446,-0.69622 -1.88028,-1.97498 -2.06756,-3.85522 -0.082,-0.82298 -0.24772,-1.5535 -0.36833,-1.62338 -0.92656,-0.53685 -7.87657,9.56534 -15.00607,21.81211 -3.37963,5.80536 -4.491,7.95114 -6.26863,12.10305 -1.86665,4.3598 -3.13432,6.84491 -3.76423,7.37934 -1.13781,0.96535 -3.9157,1.30823 -5.71694,0.70565 z m 90.288,0.0779 c -0.60861,-0.1106 -1.89719,-0.56634 -2.86347,-1.01274 -3.08358,-1.42451 -5.30545,-4.20817 -6.35114,-7.957 -0.57439,-2.05916 -0.78617,-7.98554 -0.37816,-10.58187 0.9102,-5.79183 3.88729,-13.02842 7.07498,-17.1975 6.95127,-9.0913 13.20324,-13.30616 20.25902,-13.65788 1.95522,-0.0975 2.67003,-0.0334 4.06655,0.36423 3.00533,0.85577 5.40955,2.87229 6.86617,5.75887 1.37838,2.73148 2.02198,7.96702 1.57807,12.83707 -0.78841,8.64926 -3.90482,15.67679 -9.94437,22.42461 -6.21607,6.94502 -13.62511,10.23668 -20.30765,9.02221 z m 4.89716,-6.21414 c 1.48439,-0.63136 4.28918,-3.36729 6.14583,-5.99499 3.01115,-4.26164 7.34367,-13.18402 9.34142,-19.23769 0.9774,-2.96171 1.67667,-6.00011 1.88357,-8.18396 0.58885,-6.21659 -3.81309,-6.50343 -9.27652,-0.60449 -6.73255,7.26926 -13.2762,21.60495 -13.64004,29.88232 -0.1332,3.03053 0.0468,3.57546 1.38972,4.20689 1.1297,0.53119 2.81182,0.50364 4.15602,-0.0681 z m 93.99713,6.23751 c -2.15523,-0.43004 -4.16096,-2.28622 -4.87544,-4.51191 -0.50779,-1.5818 -0.44597,-5.53914 0.12404,-7.93921 0.85549,-3.60217 3.52174,-9.75626 5.61531,-12.96092 2.41869,-3.70239 7.58151,-9.13697 11.49081,-12.09572 6.07154,-4.59521 12.52921,-7.54053 18.42402,-8.40315 1.6239,-0.23763 4.3854,-0.51896 5.58681,-0.20305 0.44027,0.11577 0.6409,-0.0595 1.22953,-1.07418 1.06818,-1.84139 1.92501,-1.71583 4.65945,-1.76082 1.87366,-0.0308 2.50073,0.0493 3.29729,0.42112 0.86155,0.40221 1.01108,0.59238 1.20491,1.53242 0.20623,1.00003 0.1083,1.36166 -1.43582,5.30229 -0.91145,2.32598 -2.79183,7.13378 -4.17865,10.68401 -1.38683,3.55022 -3.31078,8.23351 -4.27553,10.4073 -1.67969,3.78488 -2.66159,8.1001 -2.49171,8.25937 0.10013,0.0939 3.06192,-1.75625 4.05835,-2.90119 0.60355,-0.6935 0.93216,-0.85777 1.96236,-0.98105 1.23239,-0.14747 1.24235,-0.1434 2.4429,0.99929 1.15732,1.10156 1.19169,1.17147 0.86068,1.75129 -0.47261,0.82791 -3.67703,4.42181 -6.01004,6.74056 -5.15639,5.12484 -10.10332,7.55111 -13.99903,6.86595 -1.23419,-0.21706 -2.53844,-1.34893 -2.86515,-2.4865 -0.80124,-3.72862 1.7043,-8.15006 -0.89809,-5.81991 -1.69908,1.46895 -3.65528,3.07115 -4.34711,3.56044 -1.83545,1.29806 -7.15729,3.82648 -8.97022,4.26174 -1.91007,0.4586 -5.1976,0.63359 -6.60967,0.35183 z m 8.55971,-8.32636 c 0.89755,-0.18047 2.10959,-0.78201 4.13102,-2.05028 2.39863,-1.50495 3.63536,-2.53434 7.65588,-6.37247 2.97551,-2.84048 5.42151,-5.40866 6.44568,-6.76765 3.26148,-4.32759 5.67524,-9.05245 6.45457,-12.63467 0.36902,-1.69608 0.37085,-1.9259 0.0207,-2.56091 -0.56429,-1.02306 -1.19419,-1.24564 -3.15329,-1.11423 -4.11496,0.27602 -10.37124,4.62742 -15.19569,10.56895 -5.70814,7.02983 -9.60239,14.46343 -9.66661,18.45231 -0.0425,2.64211 0.49449,3.04459 3.30784,2.47895 z m -152.94377,8.09625 c -5.20995,-0.68268 -8.60213,-3.59979 -8.91341,-7.66508 -0.16355,-2.13593 0.28419,-3.5016 1.53051,-4.66825 1.02955,-0.96374 2.39973,-1.50142 3.8261,-1.50142 2.53226,0 4.65743,1.57133 6.1948,4.58038 1.48204,2.90076 1.78948,3.25778 2.80536,3.25778 2.65047,0 5.01639,-2.57943 5.01639,-5.46912 0,-1.36229 -0.73693,-4.22343 -2.0946,-8.1324 -1.48563,-4.27736 -2.16897,-6.72179 -2.55793,-9.15026 -1.32246,-8.25632 2.29643,-16.68154 8.46405,-19.70543 2.59073,-1.27019 4.41199,-1.64955 7.99189,-1.66467 2.64436,-0.0112 3.26968,0.0603 4.47585,0.5119 1.84552,0.69089 3.69052,2.27173 4.53104,3.88231 0.89084,1.707 0.96095,4.30133 0.15527,5.74571 -1.18597,2.1262 -3.28396,3.10427 -5.68787,2.65167 -1.94144,-0.36553 -3.14204,-1.12489 -5.29721,-3.35038 -1.82394,-1.88346 -1.95958,-1.97426 -2.94932,-1.97426 -1.21738,0 -2.21442,0.79837 -2.60938,2.08945 -0.51069,1.66943 0.53434,6.69025 2.7059,13.00023 3.65693,10.62615 3.77195,15.40142 0.48574,20.16801 -2.92685,4.24535 -8.54153,7.15382 -14.42323,7.47139 -1.19114,0.0643 -2.83363,0.0294 -3.64995,-0.0776 z M 0.14467797,401.03424 c 0.291781,-0.9994 0.7633636,-2.95824 1.04796263,-4.35297 0.2846,-1.39474 1.107986,-5.07752 1.829728,-8.18397 0.7217576,-3.10644 1.8298206,-8.60468 2.4623852,-12.2183 0.632566,-3.61363 1.685646,-9.31934 2.3402036,-12.67938 0.654537,-3.36004 1.323378,-6.99095 1.486324,-8.0687 0.162926,-1.07774 1.8970316,-10.57765 2.4141196,-13.05012 1.146309,-6.55677 -2.1474046,-5.10435 -1.9575866,-8.08693 0.01332,-0.25856 0.148269,-1.74428 3.0841996,-1.58352 8.276967,0.45322 10.864032,0.45501 16.317346,0.005 7.747718,-0.63926 12.532546,0.21794 18.368193,3.29063 4.768773,2.51095 7.970193,5.61631 10.06591,9.76388 1.648127,3.26176 2.177157,5.6371 2.048462,9.19741 -0.08736,2.41683 -0.24559,3.35264 -0.976419,5.77496 -1.398644,4.63582 -3.151551,7.42464 -6.401245,10.18408 -2.723539,2.31267 -4.894184,3.67496 -8.411346,5.27897 -3.438552,1.56814 -5.588954,2.08754 -10.915538,2.63649 -3.525856,0.36337 -3.308683,0.24587 -6.639419,0.004 -3.305043,-0.23987 -8.487124,-0.57358 -9.465765,-0.92862 -0.6257,-0.22699 -0.676239,-0.34151 -0.676239,-1.53215 0,-0.70776 0.435777,-2.58849 0.591071,-3.16669 l 0.282378,-1.05129 4.530212,0.6546 c 7.525092,1.08735 11.427632,-0.20011 16.131762,-3.17031 1.984762,-1.25317 4.874984,-3.88844 6.08025,-5.54391 2.320277,-3.18694 3.217236,-6.03965 3.235554,-10.29039 0.01103,-2.55134 -0.06191,-3.07475 -0.63589,-4.56593 -1.565251,-4.06647 -4.586808,-7.51133 -7.936024,-9.04782 -2.979594,-1.36692 -4.362483,-1.63527 -9.118744,-1.76952 -3.654475,-0.10316 -4.245942,-0.0702 -4.594165,0.2563 -0.527138,0.49419 -0.664018,1.13306 -4.129875,19.27658 -1.63489,8.55858 -3.675601,18.67486 -4.534889,22.48064 -0.859288,3.80577 -1.961294,9.14839 -2.448892,11.8725 -0.487602,2.72411 -1.114558,6.00736 -1.393255,7.29611 -0.2787,1.28875 -0.470113,2.58454 -0.425377,2.87952 0.115555,0.76191 4.803106,5.96595 8.20003,6.36661 1.760564,0.98948 4.298466,3.09654 -3.234111,3.03705 -4.365418,-0.0345 -14.9572944,0.92188 -19.2845807,-0.50743 -0.9631769,-0.31814 1.3466197,-3.71945 0.750213,-4.23851 0.7174577,-1.23465 1.20354667,-3.81313 1.91305667,-6.21906 z"
         style="fill:#000000;stroke:none;stroke-width:0.90000004;stroke-miterlimit:4;stroke-dasharray:none;stroke-opacity:1" /><g
         transform="matrix(0.33310652,0,0,0.33310652,14.452205,155.441)"
         id="g6688"
         style="stroke:none;stroke-width:2.70183849;stroke-miterlimit:4;stroke-dasharray:none;stroke-opacity:1"><path
           inkscape:connector-curvature="0"
           id="path6682"
           d="m 586.75021,1149.4889 c -12.58658,-0.2881 -21.28129,-0.3417 -33.50052,-0.1192 l -22.21692,0.4047 -0.48067,-3.8506 c -0.34141,-2.7354 -0.12804,-4.8785 0.73686,-7.3999 1.07856,-3.1444 1.52048,-3.6238 3.87303,-4.2013 31.78469,-8.5454 40.55716,-48.7714 56.74262,-96.6523 0.9468,-2.8671 5.93808,-16.3163 11.09183,-29.8873 11.75047,-27.23411 18.24969,-47.54366 16.43968,-54.2067 -4.90639,-5.48893 -18.69751,-12.39587 -22.72398,-13.97991 -3.46158,-1.36174 -3.85336,-1.99332 -3.86376,-6.22853 -0.0124,-5.15819 -0.96409,-3.55934 5.48957,-6.46934 6.10587,-2.75314 14.34435,-6.48337 25.45596,-8.80419 l 7.50517,-4.32971 6.14401,-7.10265 c 4.06966,-5.92288 7.6112,-16.17276 7.6112,-16.17276 0,0 3.05371,-8.41157 5.5357,-10.96416 1.76552,-1.81565 8.145,-2.57575 14.9331,-1.77912 4.05942,0.47641 4.57948,0.74485 6.82849,3.52378 1.82103,2.24999 2.43452,3.71266 2.43452,5.80418 0,3.85304 -1.16184,12.51079 -5.88229,23.61327 14.24047,1.37242 23.84512,3.10462 34.11534,8.19138 14.68393,7.17166 23.46025,17.73473 27.40167,32.98062 2.05726,7.95737 2.20408,21.55991 0.32239,29.85925 -6.67541,29.44169 -30.20937,59.51099 -56.51447,72.20839 -10.31907,4.981 -31.09505,10.8353 -38.4902,10.8458 -4.06898,0.01 -14.09176,-1.7075 -18.44115,-3.1523 -1.70191,-0.5654 -3.23864,-0.8921 -3.41499,-0.7261 -0.70886,0.6673 -9.1635,21.1401 -14.80736,35.8559 -9.38634,27.6916 -6.00134,31.4835 7.23433,38.9058 1.88476,1.047 2.68138,2.1364 3.39231,4.6391 0.8548,3.0092 0.79255,3.5204 -0.77885,6.3953 -0.9393,1.7186 -2.03345,3.1692 -2.43144,3.2236 -0.39793,0.055 -7.15461,-0.1369 -19.74118,-0.425 z m 57.76099,-103.7696 c 2.12919,-0.5338 5.28503,-1.6203 7.01305,-2.4147 5.11028,-2.3492 18.33863,-11.9929 22.56004,-16.4467 9.3748,-9.8909 17.30761,-23.0657 21.82354,-36.24454 5.03227,-14.68548 5.91937,-25.65803 3.03849,-37.58369 -1.0472,-4.33501 -1.73427,-5.56842 -4.9448,-8.87584 -6.213,-6.40055 -12.23831,-8.77039 -24.57118,-9.66419 -10.36336,-0.75106 -8.98455,-2.45335 -17.72414,21.88201 -4.18279,11.64706 -11.81416,32.43632 -16.95858,46.19845 -5.14436,13.762 -9.83516,26.7422 -10.4239,28.8447 -1.39481,4.9819 -1.4857,10.9915 -0.18467,12.2164 3.04003,2.8623 13.14921,3.8985 20.37215,2.0881 z m -619.474004,21.1128 c -27.7024499,-2.1788 -44.25809,-8.4227 -64.1993,-24.2127 -11.24154,-8.9013 -19.26092,-20.3819 -24.40375,-34.9363 -4.30426,-12.18139 -5.2255,-17.6147 -5.16845,-30.48255 0.0819,-18.46913 2.32491,-27.29809 11.476,-45.17076 12.42842,-24.2735 27.627871,-42.66101 47.8995001,-57.94653 26.6201699,-20.07247 65.2735999,-37.97254 93.9611939,-43.51253 12.20117,-2.35628 22.44925,-2.91725 48.88351,-2.67612 24.70482,0.2254 25.22984,0.25996 33.40425,2.19481 6.69254,1.58422 6.64763,6.07331 6.64763,7.07133 0,4.00501 -3.8058,23.90806 -7.37528,35.43395 l -1.72205,5.56051 -4.03491,0.22126 c -2.21925,0.12174 -5.44679,0.0245 -7.17238,-0.21637 l -3.13741,-0.43762 -0.0189,-5.34406 c -0.0283,-7.93393 -2.92419,-14.64618 -4.14768,-17.40309 -0.92826,-2.09181 -7.17495,-6.44954 -10.77738,-7.43561 -3.54503,-0.97025 0.0832,-1.0983 -16.30943,-0.84616 -18.81552,0.28934 -19.53342,0.35279 -27.80368,2.45929 -10.23408,2.60664 -15.2109,4.47982 -27.31397,10.28014 -16.131784,7.73094 -24.851944,13.63765 -41.234714,27.9307 -10.75491,9.38305 -27.7782799,29.95171 -34.65975,41.87803 -4.68436,8.11857 -10.95116,23.89369 -12.70132,31.97252 -2.01403,9.2969 -2.74734,25.35589 -1.52504,33.39801 2.228,14.65905 5.02011,20.46495 14.18012,29.48625 18.7431101,18.4594 37.03816,25.5798 65.97479,25.6774 15.926794,0.054 22.222004,-1.0745 32.540014,-5.8317 11.0975,-5.1167 15.05538,-10.4128 27.64754,-23.1782 15.4064,-22.66178 23.78784,-17.0748 16.72577,3.8568 -3.21667,9.5339 -7.10276,26.2996 -7.96069,28.4795 l -1.55976,3.9636 -5.64427,1.74 c -17.59197,5.4233 -37.19289,7.9641 -64.701464,8.387 -9.74445,0.1498 -21.34033,-0.013 -25.76856,-0.3608 z m 376.420924,-0.2472 c -0.40602,-0.145 -2.689,-0.6419 -5.07325,-1.1043 l -4.33504,-0.8408 0.46236,-3.1764 c 0.60244,-4.1381 2.68994,-8.3252 9.43675,-18.9276 18.98572,-29.8359 51.47051,-87.67277 55.25248,-98.37302 2.28605,-6.46797 1.95161,-7.08938 -2.59179,-4.8152 -6.00854,3.00745 -13.11791,8.93695 -25.36904,21.15863 -20.91187,20.86185 -26.24297,26.63261 -36.61182,39.63119 -13.08573,16.4045 -20.86776,27.4942 -31.43546,44.7964 -9.09872,14.8972 -13.4044,19.9759 -17.60621,20.7672 -3.68109,0.6931 -11.88089,0.5578 -14.95784,-0.2468 -2.45506,-0.6421 -2.77876,-1.0213 -3.59032,-4.2064 -0.49053,-1.9254 -0.698,-4.4137 -0.46094,-5.5298 0.23705,-1.1159 7.70094,-15.0946 16.5864,-31.0638 8.88546,-15.969 20.73192,-37.4796 26.32541,-47.80117 5.59349,-10.32157 12.00238,-22.02653 14.24195,-26.01101 l 4.072,-7.24445 -2.50781,1.67593 c -4.22023,2.82018 -13.32101,11.36432 -18.3795,17.25531 -4.58189,5.33596 -4.93576,5.58914 -7.84351,5.61202 -6.30973,0.0499 -7.61726,-0.56012 -9.67617,-4.51278 l -1.89905,-3.64562 3.56948,-5.11827 c 5.06251,-7.25923 23.991,-24.87213 32.6772,-30.406 9.73511,-6.20217 17.04551,-9.24379 23.22266,-9.66212 11.53678,-0.78128 18.48858,5.77942 16.16539,15.25578 -0.8858,3.61304 1.59991,5.03234 -1.82594,11.34533 0,0 14.13329,-9.74637 23.97423,-16.54185 12.70404,-8.4981 30.20182,-12.52636 38.6734,-8.90324 3.68139,1.57443 6.65788,4.81011 7.83885,8.52135 -0.0924,15.11741 1.40205,12.37109 0.001,20.03757 17.06969,-14.66473 21.88537,-14.11755 39.711,-23.19528 15.77378,-7.63754 25.76762,-7.89147 32.36006,-0.82215 5.34941,5.73648 5.18641,14.7931 -0.51504,28.61765 -3.41646,8.28399 -24.00074,43.73341 -35.68309,61.4519 -6.88614,12.7501 -5.89499,13.7632 -0.24202,10.595 3.03407,-2.5699 5.60489,-4.2216 6.28488,-4.0379 0.63285,0.171 2.58204,0.6592 4.33155,1.085 2.78762,0.6786 3.35799,1.1634 4.61385,3.9218 0.78811,1.7312 1.43296,3.5564 1.43296,4.0561 0,1.5447 -6.63165,9.4859 -12.19715,14.6055 -14.61997,13.4486 -34.71692,23.7422 -49.92162,25.5698 -7.57031,0.9097 -11.08734,0.1907 -15.03697,-3.0744 -3.03643,-2.5101 -3.37749,-5.4566 -1.16308,-10.0475 0.75682,-1.5692 11.98809,-19.0845 24.9583,-38.9231 24.90781,-38.09779 33.00839,-50.91527 37.44578,-59.25029 3.47351,-6.52446 7.92312,-16.89612 7.4428,-17.34843 -0.90263,-0.84973 -11.82095,7.03241 -19.47861,14.062 -9.34427,8.57794 -31.24057,30.92186 -43.23392,44.11775 -15.41305,16.95847 -28.3998,34.23377 -39.97531,53.17657 -3.21608,5.2628 -7.50836,11.2942 -9.53845,13.4031 l -3.69108,3.8343 -7.75126,0.27 c -4.26317,0.1484 -8.08346,0.1514 -8.48948,0.01 z m -190.8287,-1.1759 c -1.82706,-0.3336 -5.69543,-1.7075 -8.59626,-3.0534 -9.25704,-4.2949 -15.92714,-12.6875 -19.06639,-23.9902 -1.72435,-6.2084 -2.36011,-24.0762 -1.13526,-31.9041 2.73246,-17.4622 11.66983,-39.28037 21.23941,-51.85004 20.86799,-27.41013 39.63668,-40.11782 60.81844,-41.17827 5.86964,-0.29386 8.01554,-0.10075 12.2079,1.0982 9.02211,2.58009 16.23979,8.65985 20.61263,17.36283 4.13784,8.23541 6.06996,24.02033 4.73733,38.70346 -2.36671,26.07729 -11.72233,47.26522 -29.85337,67.60972 -18.66091,20.939 -40.90316,30.8634 -60.96443,27.2018 z m 14.70147,-18.7356 c 4.45622,-1.9035 12.87631,-10.1522 18.45007,-18.0747 9.0396,-12.8487 22.04601,-39.74949 28.04339,-58.00122 2.93414,-8.92942 5.03345,-18.09017 5.65444,-24.67441 1.76781,-18.74284 -11.44701,-19.60773 -27.84845,-1.82253 -20.21139,21.91666 -39.85572,65.13846 -40.94798,90.09456 -0.39988,9.1369 0.14055,10.7799 4.17198,12.6837 3.39142,1.6014 8.44123,1.5184 12.47655,-0.2054 z m 540.59768,18.3845 c -1.33251,-0.6437 -3.15956,-2.1432 -4.06018,-3.332 -2.34989,-3.1016 -2.27843,-10.7351 0.16654,-17.8001 0.99222,-2.867 10.43146,-21.3207 20.97613,-41.0082 10.54461,-19.68747 15.38811,-25.96743 18.19041,-31.51053 5.9131,-11.69639 4.23335,-18.41934 -3.42734,-11.33707 l -9.70258,8.96999 -3.49518,-0.49346 c -5.09463,-0.71933 -5.41094,-0.91846 -7.43501,-4.67914 l -1.84542,-3.42897 3.27567,-4.30375 c 4.45539,-5.85352 16.8378,-18.69078 23.54783,-24.41267 11.62826,-9.91595 24.39976,-17.265 32.27316,-18.57072 6.0147,-0.99756 9.897,0.11647 13.8319,3.96922 3.6256,3.54978 4.5098,6.64516 3.3657,11.78114 -1.2991,5.8312 -10.5425,24.59428 -30.6421,62.2 -18.91689,35.39266 -4.54532,24.48406 -3.90774,24.48406 0.48669,0 7.41372,-5.7396 10.6213,-8.4123 7.9505,-7.0074 17.45544,-16.24349 27.38234,-26.84507 17.7189,-18.92305 25.6204,-30.21063 39.2581,-56.08145 3.7925,-7.19445 5.8273,-10.32063 6.8926,-10.59009 3.6519,-0.92365 14.0867,-0.35995 17.0873,0.92308 3.2938,1.40834 6.198,4.66219 5.6418,6.32118 -1.795,5.35431 -10.7205,26.8066 -26.1711,62.90248 -10.1452,23.70147 -13.2383,35.57407 -13.6253,36.51137 -3.82224,7.6223 9.20102,-7.2105 9.6253,-7.5921 0.7779,-0.6079 2.3119,-0.6893 5.3897,-0.2858 4.2378,0.5554 4.333,0.6177 6.3536,4.1653 l 2.0514,3.6017 -3.0723,4.7366 c -9.3443,14.4062 -29.6564,34.2527 -40.0892,39.1705 -6.7381,3.1763 -16.388,2.7556 -19.6763,-0.8575 -3.3387,-3.6685 -3.8517,-5.4029 -3.4452,-11.6452 0.4814,-7.3922 2.6741,-13.9863 9.9505,-29.9243 9.09764,-24.23467 -21.91374,9.8406 -38.9399,22.8756 -9.31653,6.9701 -24.95719,16.8168 -30.52204,19.2155 -5.33039,2.2977 -12.51807,2.8803 -15.82439,1.2827 z m 187.54863,-0.2251 c -8.6942,-2.0731 -11.2223,-9.3886 -7.1711,-20.7513 1.0397,-2.9162 4.9964,-11.8856 8.7927,-19.9316 20.69275,-47.10103 21.06088,-45.56836 35.33971,-82.23789 -2.41505,-2.00883 -2.01549,-2.3771 -8.06029,-2.30338 -6.11118,-0.13065 -8.63804,1.41624 -15.09892,-3.44127 -2.7278,-3.24274 -2.6522,-4.93081 0.5295,-11.83828 2.90553,-3.79867 2.92969,-4.12307 7.5916,-4.12307 3.1309,0 10.1466,-0.20168 15.5906,-0.44827 0,0 5.40589,-1.06187 9.8981,-3.21032 2.7344,-3.71095 4.9809,-8.08432 4.9809,-8.08432 2.7396,-5.96547 6.3235,-14.28694 7.9644,-18.49202 3.9667,-10.16536 4.9497,-12.02599 6.1567,-13.58206 6.3142,-10.24547 25.8495,-7.82785 26.8052,4.80465 -0.5045,3.50775 1.5395,1.29212 -2.2626,10.24263 -2.2689,5.33963 -6.0865,13.91908 -8.4835,19.06531 0.061,4.18854 4.2396,8.46936 8.6448,9.54735 5.6809,0.32018 11.164,-1.46752 15.4902,2.43264 2.3638,2.13116 2.4693,2.43424 2.1287,6.11536 -0.2821,3.05 -1.8895,9.48649 -3.8748,10.26112 -3.8311,1.49543 -7.9148,0.47943 -17.3214,0.78025 -12.9919,0.41559 -15.6711,4.09181 -16.3833,4.81906 -0.5157,0.5266 -8.7699,11.56137 -16.3172,28.57282 -7.5473,17.01155 -12.89448,30.26339 -16.77638,38.63929 -3.8818,8.376 -1.4034,8.7224 -1.2444,8.872 1.0708,1.0083 11.50508,-3.4742 19.67398,-13.106 7.133,-6.4087 22.3096,0.553 10.1937,14.2751 -8.5647,10.0024 -16.0407,17.2107 -19.8867,20.4729 -8.9472,7.5891 -27.594,19.73 -33.1243,21.5671 -3.7547,1.2473 -10.7717,1.7984 -13.7759,1.0822 z"
           style="fill:#000000;stroke:none;stroke-width:2.70183849;stroke-miterlimit:4;stroke-dasharray:none;stroke-opacity:1"
           sodipodi:nodetypes="scccsccccccsscccsscsccssscccccsccscsssssssscsccsssssssssscsccccsssssssssssccccssccccccssssssccccsssccscscssssccscccsscccccsscccsscssssccccccssssssssccsssssccccsssscscccssscsscsscccscccscsssscccccsccccccsccsccccccccscsccccssc" /><path
           sodipodi:nodetypes="cssscccccsssccsssssscsssc"
           inkscape:connector-curvature="0"
           id="path6684"
           d="m 1205.5446,1065.2429 c -1.5264,-0.5106 -3.2923,-1.3307 -3.9243,-1.8224 -3.6936,-2.8738 -4.3033,-10.0406 -1.4682,-17.2585 0.9717,-2.4742 4.578,-11.6615 8.0138,-20.4162 7.1619,-18.249 16.327,-43.32485 24.3664,-66.66651 0.7991,-4.89261 -6.3154,-2.41505 -6.3154,-2.41505 -6.7998,7.48526 -5.653,9.57298 -14.2963,11.29334 -3.4699,-0.43056 -4.7027,-0.38605 -7.6734,-3.47869 -2.235,-4.07391 0.7972,-8.30462 1.2149,-9.07305 4.5837,-7.13081 14.2054,-18.41644 21.9346,-25.72768 10.3586,-9.7985 18.6779,-14.48107 27.4437,-15.44693 10.0488,-1.10721 17.588,6.12159 16.1936,15.52682 -0.4696,3.16754 0.3813,7.50023 -0.5923,10.06972 8.5544,-9.49416 12.3216,-16.61141 24.6564,-22.3547 15.0683,-6.68074 30.6896,-3.45501 37.2797,7.69808 1.9819,3.3542 2.177,4.27334 2.177,10.25898 0,5.63296 -0.2739,7.11992 -1.9121,10.38111 -4.2899,8.53979 -8.81,11.33887 -18.3889,11.3874 -5.3391,0.0271 -6.691,-0.2108 -9.0661,-1.5951 -3.5858,-2.09006 -5.6447,-5.92896 -6.2069,-11.57351 -0.2461,-2.47062 -0.7436,-4.66369 -1.1057,-4.87346 -2.7816,-1.61166 -23.6458,28.71556 -45.0489,65.48103 -10.1458,17.4279 -13.4822,23.8696 -18.8187,36.3338 -5.6038,13.0883 -9.4093,20.5487 -11.3004,22.1531 -3.4157,2.8981 -11.7551,3.9274 -17.1625,2.1184 z"
           style="opacity:1;fill:#000000;stroke:none;stroke-width:2.70183849;stroke-miterlimit:4;stroke-dasharray:none;stroke-opacity:1" /><path
           sodipodi:nodetypes="sssssssssscscscsssscssscss"
           inkscape:connector-curvature="0"
           id="path6686"
           d="m 1084.6632,1065.2034 c -11.1528,-4.1476 -18.9571,-16.5646 -20.858,-33.1859 -1.3487,-11.7926 1.3115,-28.8965 6.772,-43.542 6.535,-17.527 23.0038,-42.0717 37.6752,-56.1502 11.9994,-11.5144 19.5408,-15.7241 31.0421,-17.3278 12.7442,-1.7769 23.6618,4.0515 29.5008,15.7494 1.9231,3.8527 2.3355,5.6263 2.6105,11.2277 0.4055,8.2584 -0.9557,14.1971 -5.0257,21.9258 -4.7207,8.9644 -8.6519,12.9701 -19.4312,19.7994 -10.7186,6.7908 -16.5257,8.9078 -36.8748,13.4429 -6.163,1.3735 -11.56,2.5887 -11.9933,2.7003 -1.163,0.2996 -3.8774,11.4178 -4.761,19.5013 -1.204,11.0139 5.6827,25.8614 11.0383,23.2764 2.9857,-1.4806 7.9725,-3.4303 15.5516,-9.3564 17.2954,-13.5233 24.6517,-9.1987 21.935,0.2619 -8.6115,15.7024 -21.1318,26.5845 -34.6522,31.0195 -6.8742,2.2549 -17.4076,2.5624 -22.5293,0.6577 z m 32.1531,-89.174 c 7.9278,-3.7518 14.4068,-7.9962 18.159,-11.8962 8.0566,-8.3737 12.1721,-16.4098 12.801,-24.9957 0.4253,-5.8076 -0.53,-8.3107 -3.5102,-9.1975 -3.9022,-1.1611 -13.7485,7.4859 -22.1786,19.4771 -4.5115,6.4174 -13.564,22.248 -16.4335,28.7382 l -1.1219,2.5375 3.8156,-1.2307 c 2.0985,-0.6768 5.9094,-2.2216 8.4686,-3.4327 z"
           style="fill:#000000;stroke:none;stroke-width:2.70183849;stroke-miterlimit:4;stroke-dasharray:none;stroke-opacity:1" /></g></g></g></svg>