<?xml version="1.0" encoding="UTF-8" standalone="no"?>
<!-- Created with Inkscape (http://www.inkscape.org/) -->

<svg
   xmlns:dc="http://purl.org/dc/elements/1.1/"
   xmlns:cc="http://creativecommons.org/ns#"
   xmlns:rdf="http://www.w3.org/1999/02/22-rdf-syntax-ns#"
   xmlns:svg="http://www.w3.org/2000/svg"
   xmlns="http://www.w3.org/2000/svg"
   xmlns:sodipodi="http://sodipodi.sourceforge.net/DTD/sodipodi-0.dtd"
   xmlns:inkscape="http://www.inkscape.org/namespaces/inkscape"
   width="500"
   height="155.77542"
   id="svg3616"
   version="1.1"
   inkscape:version="0.91 r13725"
   sodipodi:docname="logo.svg">
  <defs
     id="defs3618">
    <clipPath
       clipPathUnits="userSpaceOnUse"
       id="clipPath3067">
      <path
         inkscape:connector-curvature="0"
         d="m 17.04,212.501 148.881,0 0,-46.383 -148.881,0 0,46.383 z"
         id="path3069" />
    </clipPath>
  </defs>
  <sodipodi:namedview
     id="base"
     pagecolor="#ffffff"
     bordercolor="#666666"
     borderopacity="1.0"
     inkscape:pageopacity="0.0"
     inkscape:pageshadow="2"
     inkscape:zoom="1.979899"
     inkscape:cx="244.12673"
     inkscape:cy="42.506831"
     inkscape:document-units="px"
     inkscape:current-layer="layer1"
     showgrid="false"
     fit-margin-top="0"
     fit-margin-left="0"
     fit-margin-right="0"
     fit-margin-bottom="0"
     inkscape:window-width="1680"
     inkscape:window-height="975"
     inkscape:window-x="1671"
     inkscape:window-y="-9"
     inkscape:window-maximized="1" />
  <metadata
     id="metadata3621">
    <rdf:RDF>
      <cc:Work
         rdf:about="">
        <dc:format>image/svg+xml</dc:format>
        <dc:type
           rdf:resource="http://purl.org/dc/dcmitype/StillImage" />
        <dc:title></dc:title>
      </cc:Work>
    </rdf:RDF>
  </metadata>
  <g
     inkscape:label="Layer 1"
     inkscape:groupmode="layer"
     id="layer1"
     transform="translate(-169.80651,-362.71962)">
    <g
       id="g2997"
       transform="matrix(3.3583869,0,0,-3.3583869,261.07739,498.35815)">
      <path
         inkscape:connector-curvature="0"
         d="m 0,0 c 1.313,0 2.129,0.27 2.129,1.532 0,0.929 -0.598,1.425 -1.922,1.425 l -1.819,0 L -1.612,0 0,0 z m -2.316,-3.887 0,7.444 2.72,0 c 1.932,0 2.429,-0.961 2.429,-2.077 0,-1.665 -1.478,-2.078 -2.853,-2.078 l -1.592,0 0,-3.289 -0.704,0"
         style="fill:#231f20;fill-opacity:1;fill-rule:nonzero;stroke:none"
         id="path2999" />
    </g>
    <path
       inkscape:connector-curvature="0"
       d="m 273.75194,511.4122 2.0822,0 0,-24.99983 -2.0822,0 0,24.99983 z"
       style="fill:#231f20;fill-opacity:1;fill-rule:nonzero;stroke:none"
       id="path3001" />
    <g
       id="g3003"
       transform="matrix(3.3583869,0,0,-3.3583869,292.74362,501.96506)">
      <path
         inkscape:connector-curvature="0"
         d="m 0,0 c -0.527,-0.217 -1.065,-0.258 -1.602,-0.301 -0.942,-0.072 -1.51,-0.413 -1.51,-1.137 0,-0.651 0.568,-0.962 1.158,-0.962 C -0.972,-2.4 0,-1.923 0,-0.838 L 0,0 z m -1.044,0.31 c 0.228,0.021 0.61,0.083 0.817,0.176 C -0.021,0.579 0,0.857 0,1.044 c 0,0.631 -0.372,1.085 -1.334,1.085 -0.857,0 -1.447,-0.278 -1.561,-1.208 l -0.63,0 c 0.093,1.261 1.033,1.767 2.202,1.767 1.086,0 1.944,-0.424 1.944,-1.665 l 0,-2.915 c 0,-0.487 0.125,-0.6 0.651,-0.414 l 0,-0.486 c -0.093,-0.03 -0.31,-0.104 -0.485,-0.104 -0.104,0 -0.187,0.011 -0.28,0.031 -0.413,0.062 -0.486,0.424 -0.497,0.797 -0.517,-0.58 -1.22,-0.889 -1.995,-0.889 -0.941,0 -1.789,0.506 -1.789,1.541 0,0.898 0.621,1.446 1.872,1.611 l 0.858,0.115"
         style="fill:#231f20;fill-opacity:1;fill-rule:nonzero;stroke:none"
         id="path3005" />
    </g>
    <g
       id="g3007"
       transform="matrix(3.3583869,0,0,-3.3583869,299.96751,516.30873)">
      <path
         inkscape:connector-curvature="0"
         d="m 0,0 c 0.166,-0.03 0.341,-0.061 0.517,-0.061 0.703,0 0.806,1.014 1.044,1.478 l -2.079,5.397 0.693,0 1.717,-4.601 1.716,4.601 0.673,0 L 2.285,1.531 C 1.779,0.187 1.447,-0.651 0.59,-0.651 0.372,-0.651 0.166,-0.62 0,-0.579 L 0,0"
         style="fill:#231f20;fill-opacity:1;fill-rule:nonzero;stroke:none"
         id="path3009" />
    </g>
    <g
       id="g3011"
       transform="matrix(3.3583869,0,0,-3.3583869,319.27152,503.94651)">
      <path
         inkscape:connector-curvature="0"
         d="m 0,0 c 0.114,-1.333 1.003,-1.818 2.141,-1.818 1.333,0 1.892,0.722 1.892,1.539 0,2.306 -4.539,0.775 -4.539,3.702 0,1.034 0.859,1.995 2.523,1.995 1.675,0 2.513,-1.012 2.502,-2.222 l -0.673,0 c 0,1.136 -0.879,1.623 -1.829,1.623 -1.428,0 -1.945,-0.879 -1.82,-1.645 0.32,-1.923 4.54,-0.537 4.54,-3.422 0,-1.365 -1.004,-2.171 -2.72,-2.171 -1.551,0 -2.699,0.806 -2.699,2.419 L 0,0"
         style="fill:#231f20;fill-opacity:1;fill-rule:nonzero;stroke:none"
         id="path3013" />
    </g>
    <g
       id="g3015"
       transform="matrix(3.3583869,0,0,-3.3583869,346.04122,511.47937)">
      <path
         inkscape:connector-curvature="0"
         d="m 0,0 c -0.143,-0.03 -0.413,-0.124 -0.713,-0.124 -0.61,0 -0.951,0.269 -0.951,1.065 l 0,3.918 -0.755,0 0,0.517 0.755,0 0,1.488 0.62,0 0,-1.488 1.004,0 0,-0.517 -1.004,0 0,-3.671 c 0,-0.526 0.022,-0.755 0.538,-0.755 0.165,0 0.341,0.033 0.506,0.073 L 0,0"
         style="fill:#231f20;fill-opacity:1;fill-rule:nonzero;stroke:none"
         id="path3017" />
    </g>
    <g
       id="g3019"
       transform="matrix(3.3583869,0,0,-3.3583869,361.67115,501.96506)">
      <path
         inkscape:connector-curvature="0"
         d="m 0,0 c -0.528,-0.217 -1.065,-0.258 -1.603,-0.3 -0.941,-0.073 -1.509,-0.414 -1.509,-1.138 0,-0.651 0.568,-0.962 1.157,-0.962 C -0.972,-2.4 0,-1.923 0,-0.838 L 0,0 z m -1.044,0.31 c 0.226,0.021 0.609,0.083 0.817,0.176 C -0.022,0.579 0,0.857 0,1.044 c 0,0.631 -0.372,1.085 -1.334,1.085 -0.858,0 -1.448,-0.278 -1.562,-1.208 l -0.631,0 c 0.094,1.261 1.034,1.767 2.202,1.767 1.086,0 1.945,-0.424 1.945,-1.665 l 0,-2.915 c 0,-0.487 0.125,-0.6 0.651,-0.414 l 0,-0.486 c -0.094,-0.03 -0.309,-0.103 -0.485,-0.103 -0.104,0 -0.187,0.01 -0.28,0.032 -0.414,0.06 -0.485,0.422 -0.496,0.795 -0.517,-0.579 -1.219,-0.889 -1.996,-0.889 -0.94,0 -1.789,0.506 -1.789,1.541 0,0.898 0.62,1.446 1.872,1.611 l 0.859,0.115"
         style="fill:#231f20;fill-opacity:1;fill-rule:nonzero;stroke:none"
         id="path3021" />
    </g>
    <g
       id="g3023"
       transform="matrix(3.3583869,0,0,-3.3583869,376.04505,511.47937)">
      <path
         inkscape:connector-curvature="0"
         d="m 0,0 c -0.145,-0.03 -0.414,-0.124 -0.713,-0.124 -0.61,0 -0.952,0.269 -0.952,1.065 l 0,3.918 -0.754,0 0,0.517 0.754,0 0,1.488 0.62,0 0,-1.488 1.004,0 0,-0.517 -1.004,0 0,-3.671 c 0,-0.526 0.022,-0.755 0.538,-0.755 0.166,0 0.342,0.033 0.507,0.073 L 0,0"
         style="fill:#231f20;fill-opacity:1;fill-rule:nonzero;stroke:none"
         id="path3025" />
    </g>
    <path
       inkscape:connector-curvature="0"
       d="m 382.29837,511.4122 -2.08556,0 0,-17.98752 2.08556,0 0,17.98752 z m -2.08556,0 z m -0.10398,-21.91011 0,-3.08972 2.29378,0 0,3.08972 -2.29378,0"
       style="fill:#231f20;fill-opacity:1;fill-rule:nonzero;stroke:none"
       id="path3027" />
    <g
       id="g3029"
       transform="matrix(3.3583869,0,0,-3.3583869,394.58335,494.81505)">
      <path
         inkscape:connector-curvature="0"
         d="m 0,0 c -1.302,0 -1.818,-1.106 -1.818,-2.264 0,-1.334 0.631,-2.265 1.818,-2.265 1.303,0 1.821,1.117 1.821,2.265 C 1.809,-1.002 1.313,0 0,0 z m -2.48,-2.264 c 0,1.562 0.828,2.823 2.48,2.823 1.676,0 2.483,-1.251 2.483,-2.823 0,-1.695 -0.983,-2.822 -2.483,-2.822 -1.365,0.019 -2.48,0.951 -2.48,2.822"
         style="fill:#231f20;fill-opacity:1;fill-rule:nonzero;stroke:none"
         id="path3031" />
    </g>
    <g
       id="g3033"
       transform="matrix(3.3583869,0,0,-3.3583869,407.95308,511.4122)">
      <path
         inkscape:connector-curvature="0"
         d="m 0,0 -0.619,0 0,5.356 0.619,0 0,-0.743 C 0.496,5.139 0.983,5.501 1.727,5.501 2.379,5.501 2.979,5.294 3.362,4.736 3.619,4.353 3.629,3.95 3.629,3.505 L 3.629,0 3.01,0 l 0,3.496 C 3.01,4.457 2.615,4.942 1.625,4.942 0.859,4.942 0.332,4.446 0.135,3.899 0.01,3.557 0,3.258 0,2.886 L 0,0"
         style="fill:#231f20;fill-opacity:1;fill-rule:nonzero;stroke:none"
         id="path3035" />
    </g>
    <g
       id="g3037"
       transform="matrix(3.3583869,0,0,-3.3583869,444.43188,498.35815)">
      <path
         inkscape:connector-curvature="0"
         d="m 0,0 c 1.314,0 2.131,0.27 2.131,1.532 0,0.929 -0.6,1.425 -1.924,1.425 l -1.819,0 L -1.612,0 0,0 z m -2.315,-3.887 0,7.444 2.719,0 c 1.934,0 2.43,-0.961 2.43,-2.077 0,-1.665 -1.479,-2.078 -2.854,-2.078 l -1.592,0 0,-3.289 -0.703,0"
         style="fill:#231f20;fill-opacity:1;fill-rule:nonzero;stroke:none"
         id="path3039" />
    </g>
    <g
       id="g3041"
       transform="matrix(3.3583869,0,0,-3.3583869,463.25228,494.81505)">
      <path
         inkscape:connector-curvature="0"
         d="m 0,0 c -1.303,0 -1.819,-1.106 -1.819,-2.264 0,-1.334 0.629,-2.265 1.819,-2.265 1.304,0 1.82,1.117 1.82,2.265 C 1.81,-1.002 1.314,0 0,0 z m -2.481,-2.264 c 0,1.562 0.828,2.824 2.481,2.824 1.675,0 2.482,-1.252 2.482,-2.824 0,-1.695 -0.982,-2.822 -2.482,-2.822 -1.364,0.019 -2.481,0.951 -2.481,2.822"
         style="fill:#231f20;fill-opacity:1;fill-rule:nonzero;stroke:none"
         id="path3043" />
    </g>
    <g
       id="g3045"
       transform="matrix(3.3583869,0,0,-3.3583869,476.72277,511.4122)">
      <path
         inkscape:connector-curvature="0"
         d="m 0,0 -0.619,0 0,5.356 0.619,0 0,-1.003 0.022,0 C 0.364,5.212 0.87,5.502 1.768,5.502 l 0,-0.673 C 0.374,4.86 0,3.825 0,2.626 L 0,0"
         style="fill:#231f20;fill-opacity:1;fill-rule:nonzero;stroke:none"
         id="path3047" />
    </g>
    <g
       id="g3049"
       transform="matrix(3.3583869,0,0,-3.3583869,494.33079,511.47937)">
      <path
         inkscape:connector-curvature="0"
         d="m 0,0 c -0.147,-0.03 -0.414,-0.124 -0.713,-0.124 -0.609,0 -0.951,0.269 -0.951,1.065 l 0,3.918 -0.756,0 0,0.517 0.756,0 0,1.488 0.621,0 0,-1.488 1.002,0 0,-0.517 -1.002,0 0,-3.671 c 0,-0.526 0.019,-0.755 0.537,-0.755 0.164,0 0.342,0.033 0.506,0.073 L 0,0"
         style="fill:#231f20;fill-opacity:1;fill-rule:nonzero;stroke:none"
         id="path3051" />
    </g>
    <g
       id="g3053"
       transform="matrix(3.3583869,0,0,-3.3583869,509.26218,501.96506)">
      <path
         inkscape:connector-curvature="0"
         d="m 0,0 c -0.528,-0.217 -1.065,-0.258 -1.604,-0.3 -0.94,-0.073 -1.508,-0.414 -1.508,-1.138 0,-0.651 0.568,-0.962 1.158,-0.962 C -0.973,-2.4 0,-1.923 0,-0.838 L 0,0 z m -1.043,0.31 c 0.226,0.021 0.609,0.083 0.816,0.176 C -0.02,0.579 0,0.857 0,1.044 c 0,0.631 -0.371,1.085 -1.335,1.085 -0.857,0 -1.447,-0.278 -1.56,-1.208 l -0.631,0 c 0.092,1.261 1.033,1.768 2.203,1.768 1.084,0 1.944,-0.425 1.944,-1.666 l 0,-2.915 c 0,-0.487 0.123,-0.6 0.65,-0.414 l 0,-0.486 c -0.092,-0.03 -0.31,-0.103 -0.486,-0.103 -0.102,0 -0.186,0.01 -0.277,0.032 -0.415,0.06 -0.487,0.422 -0.499,0.795 -0.515,-0.579 -1.219,-0.889 -1.994,-0.889 -0.942,0 -1.789,0.506 -1.789,1.541 0,0.898 0.621,1.446 1.871,1.611 l 0.86,0.115"
         style="fill:#231f20;fill-opacity:1;fill-rule:nonzero;stroke:none"
         id="path3055" />
    </g>
    <g
       id="g3057"
       transform="matrix(3.3583869,0,0,-3.3583869,525.71828,510.02519)">
      <path
         inkscape:connector-curvature="0"
         d="M 0,0 C 1.045,0 1.82,0.755 1.83,2.1 1.883,3.444 1.283,4.529 0,4.529 -1.127,4.529 -1.808,3.496 -1.808,2.287 -1.808,0.994 -1.168,0 0,0 z m -1.808,-0.413 -0.62,0 0,7.444 0.62,0 0,-2.946 c 0.392,0.651 1.158,1.004 1.912,1.004 1.634,0 2.388,-1.335 2.388,-2.834 0,-1.582 -0.693,-2.812 -2.42,-2.812 -0.681,0 -1.498,0.381 -1.859,1.086 l -0.021,0 0,-0.942"
         style="fill:#231f20;fill-opacity:1;fill-rule:nonzero;stroke:none"
         id="path3059" />
    </g>
    <path
       inkscape:connector-curvature="0"
       d="m 538.67494,511.4122 2.07884,0 0,-24.99983 -2.07884,0 0,24.99983 z"
       style="fill:#231f20;fill-opacity:1;fill-rule:nonzero;stroke:none"
       id="path3061" />
    <g
       transform="matrix(3.3583869,0,0,-3.3583869,112.5796,1076.3802)"
       id="g3063">
      <g
         id="g3065"
         clip-path="url(#clipPath3067)">
        <g
           id="g3071"
           transform="translate(132.902,171.276)">
          <path
             inkscape:connector-curvature="0"
             d="M 0,0 C 0,1.045 -0.58,1.892 -1.695,1.892 -2.793,1.892 -3.371,1.013 -3.494,0 L 0,0 z m -3.494,-0.516 c -0.012,-1.159 0.609,-2.121 1.799,-2.121 0.804,10e-4 1.435,0.446 1.623,1.231 l 0.691,0 c -0.311,-1.013 -0.951,-1.788 -2.314,-1.788 -1.717,0 -2.461,1.221 -2.461,2.801 0,1.561 0.929,2.845 2.461,2.845 1.466,0 2.367,-1.045 2.357,-2.968 l -4.156,0"
             style="fill:#231f20;fill-opacity:1;fill-rule:nonzero;stroke:none"
             id="path3073" />
        </g>
        <g
           id="g3075"
           transform="translate(16.996,212.501)">
          <path
             inkscape:connector-curvature="0"
             d="m 0,0 44.256,0 0,-13.121 -42.506,0 0,-11.373 -1.75,0 0,13.122 42.505,0 0,9.622 L 0,-1.75 0,0"
             style="fill:#231f20;fill-opacity:1;fill-rule:nonzero;stroke:none"
             id="path3077" />
        </g>
      </g>
    </g>
    <g
       id="g3079"
       transform="matrix(3.3583869,0,0,-3.3583869,503.98616,406.78502)">
      <path
         inkscape:connector-curvature="0"
         d="m 0,0 0,-11.373 -1.75,0 0,13.122 42.507,0 0,9.622 -42.507,0 0,1.75 44.255,0 L 42.505,0 0,0"
         style="fill:#231f20;fill-opacity:1;fill-rule:nonzero;stroke:none"
         id="path3081" />
    </g>
    <g
       id="g3083"
       transform="matrix(3.3583869,0,0,-3.3583869,394.10645,362.71962)">
      <path
         inkscape:connector-curvature="0"
         d="m 0,0 0,-22.745 -22.576,0 0,-1.749 24.414,0 0,22.744 22.575,0 0,1.75 L 0,0"
         style="fill:#231f20;fill-opacity:1;fill-rule:nonzero;stroke:none"
         id="path3085" />
    </g>
    <g
       id="g3087"
       transform="matrix(3.3583869,0,0,-3.3583869,664.7387,445.7591)">
      <path
         inkscape:connector-curvature="0"
         d="M 0,0 C 0.404,0 0.783,0.154 1.068,0.441 1.351,0.727 1.509,1.106 1.509,1.51 1.509,1.911 1.351,2.291 1.068,2.574 0.783,2.86 0.404,3.019 0,3.019 c -0.83,0 -1.508,-0.681 -1.508,-1.509 0,-0.404 0.15,-0.783 0.441,-1.069 C -0.78,0.154 -0.405,0 0,0 m -1.258,1.51 c 0,0.334 0.133,0.648 0.371,0.887 0.238,0.236 0.551,0.366 0.887,0.366 0.336,0 0.652,-0.13 0.888,-0.366 C 1.125,2.158 1.258,1.844 1.258,1.51 1.258,0.816 0.695,0.252 0,0.252 c -0.336,0 -0.649,0.131 -0.887,0.367 -0.238,0.239 -0.371,0.553 -0.371,0.891"
         style="fill:#231f20;fill-opacity:1;fill-rule:nonzero;stroke:none"
         id="path3089" />
    </g>
    <g
       id="g3091"
       transform="matrix(3.3583869,0,0,-3.3583869,667.23063,443.04888)">
      <path
         inkscape:connector-curvature="0"
         d="m 0,0 c -0.02,0.009 -0.037,0.035 -0.047,0.074 -0.004,0.029 -0.014,0.068 -0.016,0.128 l -0.005,0.214 c -0.002,0.105 -0.026,0.177 -0.059,0.225 -0.025,0.033 -0.063,0.056 -0.104,0.081 0.051,0.034 0.096,0.076 0.131,0.125 0.039,0.065 0.063,0.151 0.063,0.256 0,0.198 -0.084,0.338 -0.248,0.41 -0.084,0.039 -0.192,0.061 -0.317,0.061 l -0.783,0 0,-1.68 0.291,0 0,0.686 0.459,0 c 0.084,0 0.147,-0.009 0.182,-0.025 0.058,-0.029 0.09,-0.087 0.095,-0.178 l 0.014,-0.269 c 0,-0.065 0.006,-0.108 0.012,-0.132 0.006,-0.027 0.01,-0.048 0.017,-0.061 l 0.014,-0.021 0.326,0 0,0.096 L 0,0 m -0.332,1.082 c 0,-0.093 -0.026,-0.157 -0.072,-0.194 -0.055,-0.033 -0.131,-0.05 -0.223,-0.05 l -0.467,0 0,0.472 0.498,0 c 0.061,0 0.119,-0.01 0.16,-0.029 0.069,-0.035 0.104,-0.1 0.104,-0.199"
         style="fill:#231f20;fill-opacity:1;fill-rule:nonzero;stroke:none"
         id="path3093" />
    </g>
    <g
       id="g3095"
       transform="matrix(3.3583869,0,0,-3.3583869,428.37208,511.39205)">
      <path
         inkscape:connector-curvature="0"
         d="M 0,0 C 0.405,0 0.782,0.155 1.069,0.442 1.352,0.727 1.51,1.106 1.51,1.51 1.51,1.911 1.352,2.291 1.069,2.575 0.782,2.86 0.405,3.019 0,3.019 c -0.828,0 -1.508,-0.681 -1.508,-1.509 0,-0.404 0.153,-0.783 0.442,-1.068 C -0.779,0.155 -0.402,0 0,0 m -1.256,1.51 c 0,0.334 0.133,0.649 0.37,0.887 0.238,0.236 0.55,0.366 0.886,0.366 0.336,0 0.653,-0.13 0.889,-0.366 C 1.123,2.159 1.258,1.844 1.258,1.51 1.258,0.817 0.696,0.252 0,0.252 c -0.336,0 -0.648,0.131 -0.886,0.367 -0.237,0.24 -0.37,0.553 -0.37,0.891"
         style="fill:#231f20;fill-opacity:1;fill-rule:nonzero;stroke:none"
         id="path3097" />
    </g>
    <g
       id="g3099"
       transform="matrix(3.3583869,0,0,-3.3583869,430.86736,508.68183)">
      <path
         inkscape:connector-curvature="0"
         d="m 0,0 c -0.02,0.01 -0.038,0.035 -0.047,0.074 -0.004,0.029 -0.014,0.068 -0.018,0.127 l -0.004,0.215 c -0.004,0.105 -0.025,0.178 -0.058,0.225 -0.026,0.033 -0.063,0.056 -0.104,0.082 0.053,0.033 0.098,0.074 0.129,0.125 0.041,0.064 0.064,0.15 0.064,0.255 0,0.199 -0.085,0.338 -0.246,0.411 -0.086,0.039 -0.193,0.06 -0.318,0.06 l -0.781,0 0,-1.68 0.289,0 0,0.686 0.459,0 c 0.084,0 0.146,-0.01 0.181,-0.024 0.059,-0.031 0.09,-0.087 0.098,-0.179 L -0.344,0.108 C -0.342,0.043 -0.338,0 -0.331,-0.024 c 0.006,-0.027 0.008,-0.047 0.018,-0.061 l 0.012,-0.021 0.326,0 0,0.096 L 0,0 M -0.331,1.082 C -0.331,0.989 -0.356,0.926 -0.405,0.889 -0.459,0.855 -0.534,0.838 -0.627,0.838 l -0.467,0 0,0.473 0.5,0 c 0.06,0 0.117,-0.011 0.158,-0.03 0.07,-0.035 0.105,-0.1 0.105,-0.199"
         style="fill:#231f20;fill-opacity:1;fill-rule:nonzero;stroke:none"
         id="path3101" />
    </g>
  </g>
</svg>
