<?xml version="1.0" encoding="UTF-8" standalone="no"?>
<!-- Generator: Adobe Illustrator 13.0.0, SVG Export Plug-In . SVG Version: 6.00 Build 14948)  -->

<svg
   xmlns:ns="&amp;#38;ns_sfw;"
   xmlns:dc="http://purl.org/dc/elements/1.1/"
   xmlns:cc="http://creativecommons.org/ns#"
   xmlns:rdf="http://www.w3.org/1999/02/22-rdf-syntax-ns#"
   xmlns:svg="http://www.w3.org/2000/svg"
   xmlns="http://www.w3.org/2000/svg"
   xmlns:sodipodi="http://sodipodi.sourceforge.net/DTD/sodipodi-0.dtd"
   xmlns:inkscape="http://www.inkscape.org/namespaces/inkscape"
   version="1.2"
   id="Ebene_2"
   x="0px"
   y="0px"
   width="566.928px"
   height="234.744px"
   viewBox="-0.463 -70.905 566.928 234.744"
   xml:space="preserve"
   inkscape:version="0.91 r13725"
   sodipodi:docname="logoconsole.svg"><defs
     id="defs9" /><sodipodi:namedview
     pagecolor="#ffffff"
     bordercolor="#666666"
     borderopacity="1"
     objecttolerance="10"
     gridtolerance="10"
     guidetolerance="10"
     inkscape:pageopacity="0"
     inkscape:pageshadow="2"
     inkscape:window-width="1680"
     inkscape:window-height="975"
     id="namedview7"
     showgrid="false"
     inkscape:zoom="0.84564251"
     inkscape:cx="178.1298"
     inkscape:cy="117.28202"
     inkscape:window-x="1671"
     inkscape:window-y="-9"
     inkscape:window-maximized="1"
     inkscape:current-layer="Ebene_2" /><metadata
     id="metadata3"><ns:sfw><ns:slices /><ns:sliceSourceBounds
         x="676.572"
         y="422.128"
         width="566.928"
         height="234.744"
         bottomLeftOrigin="true" /></ns:sfw><rdf:RDF><cc:Work
         rdf:about=""><dc:format>image/svg+xml</dc:format><dc:type
           rdf:resource="http://purl.org/dc/dcmitype/StillImage" /><dc:title></dc:title></cc:Work></rdf:RDF></metadata><rect
     id="rect3604"
     x="-0.463"
     y="-70.905"
     fill="#003E99"
     width="566.928"
     height="234.744"
     style="fill:#c8c8c8;fill-opacity:1" /><path
     id="path2830"
     sodipodi:nodetypes="cccccccccccccccccccccccccccccccccccc"
     fill="#FFFFFF"
     d="M36.727,130.562L79.791-38.949  h39.932l20.749,73.991l21.531-73.991h37.583l35.233,124.883l85.965-0.162c9.022-0.088,9.577-18.748-0.669-18.744l-50.063-0.668  c-21.497,0.207-44.167-23.05-43.063-54.023c0.229-28.412,25.004-50.786,56.698-50.778l127.689-0.114l32.494,44.238l31.709-44.629  l52.85,0.392l-57.938,81.428l62.637,88.292l-52.572-0.16L444.1,80.342l-34.681,50.662l-53.633-0.049l61.072-87.299L390.236,4.899  L279.237,5.061c-12.114,0.111-11.669,19.169,0.095,18.812l46.769,0.716c19.767,0.127,47.604,20.668,46.91,52.735  c0.301,37.279-33.274,54.313-49.44,53.401l-122.419,0.163l-20.357-76.271l-20.357,76.108h-38.644l-21.255-75.718l-18.677,75.833  L36.727,130.562z"
     style="fill:#393b3c;fill-opacity:1" /></svg>