<?xml version="1.0" encoding="UTF-8" standalone="no"?>
<!-- Generator: Adobe Illustrator 13.0.0, SVG Export Plug-In . SVG Version: 6.00 Build 14948)  -->

<svg
   xmlns:dc="http://purl.org/dc/elements/1.1/"
   xmlns:cc="http://creativecommons.org/ns#"
   xmlns:rdf="http://www.w3.org/1999/02/22-rdf-syntax-ns#"
   xmlns:svg="http://www.w3.org/2000/svg"
   xmlns="http://www.w3.org/2000/svg"
   xmlns:sodipodi="http://sodipodi.sourceforge.net/DTD/sodipodi-0.dtd"
   xmlns:inkscape="http://www.inkscape.org/namespaces/inkscape"
   version="1.2"
   id="Ebene_3"
   x="0px"
   y="0px"
   width="1041.7869"
   height="124.854"
   viewBox="0 0 1041.7868 124.854"
   xml:space="preserve"
   inkscape:version="0.91 r13725"
   sodipodi:docname="logoconsole.svg"><metadata
     id="metadata43"><rdf:RDF><cc:Work
         rdf:about=""><dc:format>image/svg+xml</dc:format><dc:type
           rdf:resource="http://purl.org/dc/dcmitype/StillImage" /><dc:title></dc:title></cc:Work></rdf:RDF></metadata><defs
     id="defs41" /><sodipodi:namedview
     pagecolor="#ffffff"
     bordercolor="#666666"
     borderopacity="1"
     objecttolerance="10"
     gridtolerance="10"
     guidetolerance="10"
     inkscape:pageopacity="0"
     inkscape:pageshadow="2"
     inkscape:window-width="1680"
     inkscape:window-height="975"
     id="namedview39"
     showgrid="false"
     inkscape:zoom="1.1679"
     inkscape:cx="469.29931"
     inkscape:cy="68.980116"
     inkscape:window-x="1671"
     inkscape:window-y="-9"
     inkscape:window-maximized="1"
     inkscape:current-layer="Ebene_3"
     fit-margin-top="0"
     fit-margin-left="0"
     fit-margin-right="0"
     fit-margin-bottom="0" /><g
     id="g3"><path
       style="fill:#5b5b59"
       inkscape:connector-curvature="0"
       d="m 33.98,108.929 -0.068,-41.587 5.384,0 0,49.797 -5.384,0 -28.663,-41.924 0.135,41.924 -5.384,0 0,-49.797 5.652,0 28.328,41.587 z"
       id="path5" /><path
       style="fill:#5b5b59"
       inkscape:connector-curvature="0"
       d="m 45.31,67.342 26.419,0 0,4.912 -20.902,0 0,17.294 20.767,0 0,4.912 -20.767,0 0,17.767 20.902,0 0,4.912 -26.419,0 0,-49.797 z"
       id="path7" /><path
       style="fill:#5b5b59"
       inkscape:connector-curvature="0"
       d="m 74.242,92.375 c 0,-15.341 11.911,-25.908 25.976,-25.908 14.602,0 25.975,11.171 25.975,25.773 0,14.604 -11.305,25.773 -25.975,25.773 -14.738,0 -25.976,-11.373 -25.976,-25.572 l 0,-0.066 z m 5.585,-0.135 c 0,11.709 8.815,20.86 20.458,20.86 11.776,0 20.39,-9.485 20.39,-20.86 0,-11.373 -8.613,-20.861 -20.457,-20.861 -11.709,0 -20.391,9.286 -20.391,20.792 l 0,0.069 z"
       id="path9" /><path
       style="fill:#5b5b59"
       inkscape:connector-curvature="0"
       d="m 172.16,80.262 c -1.548,-2.153 -3.433,-3.97 -5.586,-5.383 -3.23,-2.221 -7.133,-3.5 -11.574,-3.5 -10.902,0 -20.39,8.344 -20.39,20.792 0,12.652 9.556,20.996 20.457,20.996 5.249,0 9.892,-1.815 13.324,-4.508 3.5,-2.761 5.922,-6.527 6.73,-10.433 l -27.104,0 0,-4.576 33.564,0 c -0.067,2.896 -0.74,6.527 -2.221,9.624 -4.307,9.354 -14.267,14.805 -24.293,14.805 -14.535,0 -26.042,-11.17 -26.042,-25.908 0,-14.938 11.709,-25.706 26.109,-25.706 10.094,0 19.448,5.653 23.351,13.795 l -6.325,0 0,0.002 0,0 z"
       id="path11" /><path
       style="fill:#5b5b59"
       inkscape:connector-curvature="0"
       d="m 184.25,67.342 27.59,0 0,4.912 -22.071,0 0,17.294 21.937,0 0,4.912 -21.937,0 0,17.767 22.071,0 0,4.912 -27.59,0 0,-49.797 z"
       id="path13" /><path
       style="fill:#5b5b59"
       inkscape:connector-curvature="0"
       d="m 214.061,92.375 c 0,-15.341 11.911,-25.908 25.975,-25.908 14.603,0 25.975,11.171 25.975,25.773 0,14.604 -11.305,25.773 -25.975,25.773 -14.737,0 -25.975,-11.373 -25.975,-25.572 l 0,-0.066 z m 5.585,-0.135 c 0,11.709 8.815,20.86 20.457,20.86 11.777,0 20.39,-9.485 20.39,-20.86 0,-11.373 -8.613,-20.861 -20.457,-20.861 -11.709,0 -20.39,9.286 -20.39,20.792 l 0,0.069 0,0 z"
       id="path15" /></g><g
     id="g17"><path
       style="fill:#5b5b59"
       inkscape:connector-curvature="0"
       d="m 327.465,92.375 c 0,-15.341 11.91,-25.908 25.977,-25.908 14.604,0 25.977,11.171 25.977,25.773 0,14.604 -11.305,25.773 -25.977,25.773 -14.736,0 -25.977,-11.373 -25.977,-25.572 l 0,-0.066 z m 5.584,-0.135 c 0,11.709 8.816,20.86 20.459,20.86 11.777,0 20.393,-9.485 20.393,-20.86 0,-11.373 -8.613,-20.861 -20.459,-20.861 -11.707,0 -20.393,9.286 -20.393,20.792 l 0,0.069 0,0 z"
       id="path19" /><path
       style="fill:#5b5b59"
       inkscape:connector-curvature="0"
       d="m 435,103.748 c -3.229,7.672 -11.91,14.268 -22.879,14.268 -14.736,0 -25.975,-11.373 -25.975,-25.772 0,-14.2 10.969,-25.774 25.906,-25.774 12.314,0 20.053,8.21 22.947,14.535 l -5.99,0 c -1.684,-2.96 -7.334,-9.623 -16.957,-9.623 -11.641,0 -20.389,9.219 -20.389,20.793 0,11.777 8.813,20.929 20.389,20.929 10.432,0 15.746,-7.47 16.957,-9.354 l 5.991,-0.002 0,0 z"
       id="path21" /><path
       style="fill:#5b5b59"
       inkscape:connector-curvature="0"
       d="m 489.643,67.342 27.594,0 0,4.912 -22.072,0 0,17.294 21.935,0 0,4.912 -21.936,0 0,17.767 22.072,0 0,4.912 -27.594,0 0,-49.797 10e-4,0 z"
       id="path23" /><path
       style="fill:#5b5b59"
       inkscape:connector-curvature="0"
       d="m 545.229,72.254 -16.049,0 0,-4.912 37.746,0 0,4.912 -16.111,0 0,44.885 -5.586,0 0,-44.885 z"
       id="path25" /></g><path
     style="fill:#5b5b59"
     inkscape:connector-curvature="0"
     d="m 475.575,117.139 6.932,0 -25.871,-24.968 23.783,-24.83 -6.055,0 -26.105,26.998 0,-6.396 0,-20.601 -5.518,0 0,49.797 5.518,0 0,-16.228 5.08,-5.307 22.236,21.535 z"
     id="path27" /><path
     style="fill:none"
     inkscape:connector-curvature="0"
     d="m 302.793,120.945 c -10.838,-21.554 -21.646,-43.05 -32.46,-64.561 0.06,-0.042 0.108,-0.083 0.163,-0.11 2.697,-1.38 5.395,-2.76 8.091,-4.138 3.812,-1.946 7.625,-3.883 11.433,-5.839 4.003,-2.056 8.21,-3.293 12.751,-3.146 3.091,0.101 5.925,0.999 8.411,2.896 2.193,1.674 3.746,3.848 4.938,6.306 1.129,2.332 1.932,4.759 1.979,7.377 0.063,3.637 -1.035,6.924 -2.984,9.978 -1.307,2.042 -2.797,3.921 -4.545,5.584 -1.203,1.146 -2.49,2.204 -3.738,3.299 -4.57,-3.241 -9.041,-6.41 -13.531,-9.593 0.852,-3.113 1.693,-6.198 2.539,-9.291 4.361,0 8.662,0 12.939,0 0,-3.277 0,-6.527 0,-9.823 -6.682,0.063 -13.289,0.127 -19.896,0.193 -2.408,6.801 -4.803,13.564 -7.201,20.342 7.736,6.397 15.445,12.773 23.16,19.157 3.066,-1.17 5.975,-2.609 8.711,-4.388 4.365,-2.835 8,-6.396 10.672,-10.881 2.482,-4.169 3.727,-8.71 3.797,-13.559 0.041,-3.005 -0.414,-5.943 -1.299,-8.823 -1.172,-3.816 -2.986,-7.271 -5.754,-10.165 -5.189,-5.433 -11.553,-8.353 -19.082,-8.621 -4.45,-0.158 -8.66,0.847 -12.631,2.842 -1.789,0.9 -3.541,1.872 -5.342,2.744 -4.01,1.939 -8.04,3.837 -12.062,5.748 -3.547,1.687 -7.095,3.366 -10.642,5.047 -1.199,0.569 -2.399,1.141 -3.6,1.71 12.046,24.562 24.078,49.094 36.104,73.624 3.048,-1.313 6.035,-2.599 9.079,-3.909 z"
     id="path29" /><path
     style="fill:#f10000"
     inkscape:connector-curvature="0"
     d="m 302.793,120.945 c -3.047,1.312 -6.031,2.597 -9.086,3.909 -12.024,-24.529 -24.058,-49.063 -36.104,-73.624 1.201,-0.569 2.4,-1.141 3.6,-1.71 3.547,-1.682 7.095,-3.361 10.642,-5.047 4.022,-1.911 8.052,-3.809 12.062,-5.748 1.801,-0.872 3.553,-1.844 5.342,-2.744 3.971,-1.996 8.181,-3 12.631,-2.842 7.529,0.269 13.893,3.188 19.082,8.621 2.768,2.895 4.582,6.348 5.754,10.165 0.883,2.879 1.34,5.818 1.297,8.823 -0.068,4.849 -1.313,9.39 -3.795,13.559 -2.672,4.484 -6.307,8.045 -10.672,10.881 -2.736,1.776 -5.645,3.217 -8.711,4.387 -7.715,-6.383 -15.424,-12.759 -23.16,-19.156 2.398,-6.777 4.793,-13.541 7.201,-20.342 6.606,-0.065 13.217,-0.13 19.896,-0.193 0,3.296 0,6.546 0,9.823 -4.277,0 -8.579,0 -12.939,0 -0.846,3.093 -1.688,6.178 -2.539,9.291 4.49,3.183 8.961,6.352 13.531,9.593 1.248,-1.095 2.535,-2.153 3.738,-3.299 1.748,-1.663 3.238,-3.542 4.543,-5.584 1.949,-3.054 3.051,-6.341 2.986,-9.978 -0.049,-2.618 -0.852,-5.045 -1.979,-7.377 -1.189,-2.458 -2.742,-4.632 -4.938,-6.306 -2.486,-1.896 -5.32,-2.794 -8.411,-2.896 -4.541,-0.146 -8.748,1.09 -12.751,3.146 -3.807,1.956 -7.621,3.893 -11.433,5.839 -2.697,1.378 -5.395,2.758 -8.091,4.138 -0.055,0.028 -0.104,0.069 -0.163,0.11 10.823,21.511 21.632,43.007 32.467,64.561 z"
     id="path31" /><path
     style="fill:#f10000"
     inkscape:connector-curvature="0"
     d="m 310.44,26.526 c -2.162,-0.444 -4.266,-0.879 -6.424,-1.323 1.257,-8.396 2.514,-16.789 3.774,-25.203 3.936,0.574 7.832,1.145 11.791,1.724 -3.055,8.288 -6.092,16.529 -9.141,24.802 z"
     id="path33" /><path
     style="fill:#0099ff;fill-opacity:1"
     inkscape:connector-curvature="0"
     d="m 345.54,19.679 c 2.088,3.381 4.146,6.72 6.24,10.112 -6.818,4.222 -13.635,8.439 -20.473,12.671 -1.434,-2.141 -2.84,-4.241 -4.277,-6.392 6.166,-5.458 12.316,-10.907 18.51,-16.391 z"
     id="path35" /><path
     style="fill:#00ff00;fill-opacity:1"
     inkscape:connector-curvature="0"
     d="m 329.069,6.482 c 3.018,2.085 5.979,4.135 8.955,6.19 -5.377,6.412 -10.738,12.805 -16.137,19.239 -1.889,-1.165 -3.76,-2.319 -5.684,-3.508 4.272,-7.274 8.549,-14.566 12.866,-21.921 z"
     id="path37" /><g
     id="g4226"
     transform="translate(10.179393,-1.1310437)"><path
       inkscape:connector-curvature="0"
       id="path4200"
       d="m 611.7368,120.13252 c -15.25121,-4.09952 -18.79141,-17.99951 -8.78123,-34.478063 8.03057,-13.219715 19.30483,-18.316355 40.63227,-18.368238 6.08701,-0.01564 7.60719,0.263812 8.0738,1.479829 0.90068,2.347091 -1.07398,3.888948 -5.74831,4.488384 -12.88243,1.652118 -19.12665,4.444176 -23.61591,10.559762 -4.36676,5.948721 -6.15498,11.274998 -6.1493,18.316016 0.005,7.45838 1.87606,9.73381 9.24487,11.24875 9.0456,1.85966 11.28102,2.75097 10.96856,4.37345 -0.15894,0.8252 -1.32129,2.02265 -2.58305,2.66102 -3.0858,1.56125 -15.79085,1.39935 -22.0417,-0.28091 z"
       style="opacity:1;fill:#f10000;fill-opacity:1;stroke:none;stroke-width:45;stroke-linecap:round;stroke-linejoin:round;stroke-miterlimit:4;stroke-dasharray:none;stroke-opacity:1" /><path
       inkscape:connector-curvature="0"
       id="path4202"
       d="m 698.36493,120.25277 c -5.37648,-1.30069 -8.66062,-3.36714 -11.59268,-7.29427 -2.38582,-3.19555 -2.50483,-11.61105 -0.26848,-18.984325 2.229,-7.349184 7.89423,-16.361949 12.50331,-19.89152 13.66852,-10.467171 41.06768,-11.061249 48.38547,-1.049115 4.35953,5.964665 2.30933,21.653927 -4.09264,31.31915 -5.84457,8.82367 -13.54842,13.82887 -24.51442,15.92699 -8.26911,1.58216 -13.79952,1.57487 -20.42056,-0.0269 z m 20.1126,-8.77684 c 9.62813,-4.91189 16.93543,-23.418684 12.99905,-32.921922 -1.91497,-4.623236 -8.08894,-6.177805 -14.17075,-3.56817 -11.26098,4.831961 -19.1825,28.739392 -12.11148,36.552832 2.14908,2.37471 8.56479,2.3444 13.28318,-0.0626 z"
       style="opacity:1;fill:#f10000;fill-opacity:1;stroke:none;stroke-width:45;stroke-linecap:round;stroke-linejoin:round;stroke-miterlimit:4;stroke-dasharray:none;stroke-opacity:1" /><path
       inkscape:connector-curvature="0"
       id="path4204"
       d="m 803.61123,119.82679 c -8.40752,-1.34018 -12.39657,-4.77009 -12.39657,-10.65888 0,-2.76114 7.82948,-29.99467 10.06033,-34.993151 2.24039,-5.019859 4.78463,-7.041682 9.53495,-7.577124 4.37823,-0.493495 7.1109,1.172659 7.1109,4.335671 0,0.930579 -1.50246,6.806248 -3.33877,13.057076 -5.33408,18.156928 -6.78112,24.148498 -6.24733,25.867228 0.56095,1.80623 1.93697,2.22819 10.50701,3.2219 5.09843,0.59119 6.0266,0.97909 6.26054,2.61648 0.1511,1.0573 -0.35177,2.44227 -1.11741,3.07771 -1.71017,1.41931 -14.06878,2.05812 -20.37365,1.05309 z"
       style="opacity:1;fill:#f10000;fill-opacity:1;stroke:none;stroke-width:45;stroke-linecap:round;stroke-linejoin:round;stroke-miterlimit:4;stroke-dasharray:none;stroke-opacity:1" /><path
       inkscape:connector-curvature="0"
       id="path4206"
       d="m 883.8244,118.7297 c -10.99404,-2.57882 -15.37408,-11.15719 -12.14076,-23.777992 3.02685,-11.815104 9.70819,-21.129375 18.28878,-25.495884 13.00203,-6.616557 34.32714,-6.86432 41.52078,-0.482406 11.3365,10.057227 1.40391,38.618802 -16.22315,46.650592 -8.16072,3.71844 -22.70816,5.1552 -31.44565,3.10569 z m 22.64239,-9.94618 c 6.84875,-4.69292 11.93992,-15.236424 12.14287,-25.147547 0.11486,-5.607175 -0.11193,-6.433053 -2.39373,-8.715693 -2.12327,-2.124253 -3.30223,-2.521553 -7.48192,-2.521553 -4.03406,0 -5.6038,0.489815 -8.39698,2.620333 -7.01757,5.352527 -11.79771,16.032934 -11.91858,26.62982 -0.0642,5.63735 0.16702,6.48719 2.21943,8.15275 3.13125,2.54115 11.41175,2.00856 15.82891,-1.01811 z"
       style="opacity:1;fill:#f10000;fill-opacity:1;stroke:none;stroke-width:45;stroke-linecap:round;stroke-linejoin:round;stroke-miterlimit:4;stroke-dasharray:none;stroke-opacity:1" /><path
       inkscape:connector-curvature="0"
       id="path4208"
       d="m 968.96025,116.86614 c -2.38728,-2.53967 -2.23742,-4.53315 1.24273,-16.52981 6.73991,-23.233314 10.79315,-30.419727 19.00024,-33.687384 14.22668,-5.664361 37.75648,-4.346886 41.32098,2.313669 2.8997,5.418133 -0.3295,16.675708 -6.0308,21.02432 -2.228,1.699414 -3.0994,3.094709 -3.0994,4.963103 0,1.429481 0.4144,2.855157 0.9209,3.168201 1.219,0.753378 1.1798,8.864211 -0.058,12.142021 -2.5147,6.65578 -9.658,10.26771 -14.2961,7.2287 -2.3372,-1.53136 -2.3646,-1.67917 -1.7303,-9.29423 l 0.6445,-7.73814 -2.4695,-0.938965 c -1.3584,-0.516409 -5.27932,-0.938931 -8.71337,-0.938931 -7.43398,0 -8.43984,0.802963 -11.18393,8.928916 -2.18504,6.47001 -5.72874,10.2681 -10.26768,11.00468 -2.61884,0.42499 -3.62871,0.11013 -5.27955,-1.64615 z m 38.51585,-28.519031 c 4.8912,-1.705079 8.3633,-11.268209 5.6469,-15.553714 -1.1152,-1.759641 -9.6846,-1.686179 -13.43084,0.115085 -4.65857,2.239949 -8.99131,11.021666 -7.43668,15.072796 0.65235,1.700186 10.70012,1.941618 15.22062,0.365756 z"
       style="opacity:1;fill:#f10000;fill-opacity:1;stroke:none;stroke-width:45;stroke-linecap:round;stroke-linejoin:round;stroke-miterlimit:4;stroke-dasharray:none;stroke-opacity:1" /></g></svg>