<?xml version="1.0" encoding="UTF-8" standalone="no"?>
<!-- Created with Inkscape (http://www.inkscape.org/) -->

<svg
   xmlns:dc="http://purl.org/dc/elements/1.1/"
   xmlns:cc="http://creativecommons.org/ns#"
   xmlns:rdf="http://www.w3.org/1999/02/22-rdf-syntax-ns#"
   xmlns:svg="http://www.w3.org/2000/svg"
   xmlns="http://www.w3.org/2000/svg"
   xmlns:sodipodi="http://sodipodi.sourceforge.net/DTD/sodipodi-0.dtd"
   xmlns:inkscape="http://www.inkscape.org/namespaces/inkscape"
   id="svg4136"
   version="1.1"
   inkscape:version="0.91 r13725"
   width="2697.8152"
   height="727.85046"
   viewBox="0 0 2697.8152 727.85046"
   sodipodi:docname="logoconsole.svg">
  <metadata
     id="metadata4142">
    <rdf:RDF>
      <cc:Work
         rdf:about="">
        <dc:format>image/svg+xml</dc:format>
        <dc:type
           rdf:resource="http://purl.org/dc/dcmitype/StillImage" />
        <dc:title></dc:title>
      </cc:Work>
    </rdf:RDF>
  </metadata>
  <defs
     id="defs4140" />
  <sodipodi:namedview
     pagecolor="#ffffff"
     bordercolor="#666666"
     borderopacity="1"
     objecttolerance="10"
     gridtolerance="10"
     guidetolerance="10"
     inkscape:pageopacity="0"
     inkscape:pageshadow="2"
     inkscape:window-width="1680"
     inkscape:window-height="975"
     id="namedview4138"
     showgrid="false"
     inkscape:zoom="0.18093743"
     inkscape:cx="1273.2965"
     inkscape:cy="-458.62009"
     inkscape:window-x="1671"
     inkscape:window-y="-9"
     inkscape:window-maximized="1"
     inkscape:current-layer="layer1"
     showguides="true"
     inkscape:guide-bbox="true"
     fit-margin-top="0"
     fit-margin-left="0"
     fit-margin-right="0"
     fit-margin-bottom="0.2" />
  <path
     style="fill:#000000"
     d="m 6.1212014,685.3737 c -1.131538,-1.2375 -2.897479,-3.825 -3.924314,-5.75 -1.80183298,-3.37788 -1.87623998,-10.37355 -2.13255098,-200.5 -0.194373,-144.18193 0.03923,-198.47462 0.871297,-202.5 1.59402198,-7.71159 7.18796798,-13.29997 14.91731958,-14.90248 4.012909,-0.83199 38.054194,-1.07022 124.499997,-0.8713 109.63198,0.25228 119.26011,0.40753 122.58195,1.97662 5.36863,2.53589 9.52265,7.83365 10.79524,13.76755 0.77838,3.62945 1.09977,62.04668 1.09977,199.89733 0,212.71606 0.31501,201.03916 -5.61355,208.08486 l -2.56424,3.04742 -129.23679,0 -129.2367886,0 z M 169.32991,653.96133 c 5.17397,-2.79701 9.93452,-7.80665 12.19932,-12.83763 1.67427,-3.7192 0.73913,12.47546 2.30068,-65.14842 l 0.5,-24.85474 2.72198,-5.53727 c 3.6123,-7.34843 8.9963,-13.48751 15.44815,-17.61471 5.7172,-3.65725 17.96282,-7.89939 25.60968,-8.87173 l 4.77981,-0.60778 -0.27981,-141.18109 -0.27981,-60.18426 -2.70267,-5.12335 c -1.48646,-2.81784 -4.72637,-6.90469 -7.19979,-9.08188 -8.51546,-7.49561 -6.17259,-7.29477 -85.09754,-7.29477 -81.314914,0 -77.147808,-0.43146 -86.539635,8.96036 -9.779056,9.77906 -8.960362,-5.90375 -8.960362,171.64375 0,150.97383 0.05456,155.51803 1.926376,160.44425 3.760051,9.89565 10.617164,16.14151 20.347235,18.53347 3.946084,0.97008 16.984912,1.23991 53.226386,1.10149 47.12581,-0.17998 48.07285,-0.2227 52,-2.34569 z m 154.80385,31.42575 c -1.13845,-1.24486 -2.91004,-3.83838 -3.93688,-5.76338 -1.80183,-3.37788 -1.87624,-10.37355 -2.13255,-200.5 -0.19437,-144.18193 0.0392,-198.47462 0.8713,-202.5 1.60085,-7.74462 7.18317,-13.29897 14.99341,-14.91828 4.08062,-0.84604 30.5231,-1.07529 97.5,-0.84531 l 91.90087,0.31556 7.97012,2.29544 c 33.11847,9.5383 57.10921,33.67908 65.77277,66.1841 l 2.25711,8.46849 0,138 0,138 -2.27932,8.33663 c -7.44349,27.22457 -24.97313,48.04715 -50.87716,60.43441 l -8.84352,4.22896 -105.56312,0.26338 -105.56312,0.26337 z m 193.96596,-30.23266 c 17.59219,-3.72786 31.26219,-16.15761 37.18979,-33.81565 l 2.5404,-7.5677 0,-137.36359 c 0,-150.16461 0.27303,-142.86704 -5.76953,-154.20892 -4.08936,-7.67573 -14.5326,-17.68809 -22.23047,-21.31327 -11.06975,-5.2131 -13.6866,-5.43296 -60.5,-5.08302 l -43,0.32143 -4.8276,2.83763 c -5.20241,3.05794 -10.03487,9.58106 -11.71202,15.80952 -0.63964,2.37541 -0.89652,60.28235 -0.72537,163.51537 0.25479,153.6874 0.33663,159.97215 2.12694,163.33748 3.59829,6.76388 9.76086,11.97568 16.63158,14.06566 1.37856,0.41934 20.73147,0.7933 43.00647,0.83102 31.57713,0.0535 41.99151,-0.24746 47.26981,-1.36596 z m 204.72646,29.23117 c -1.94071,-3.18303 -1.98888,-5.17397 -1.99253,-82.35217 l -0.004,-79.09028 -2.96877,-5.94104 c -4.44498,-8.89519 -17.45465,-22.97275 -38.07089,-41.19593 -29.29639,-25.89577 -32.39813,-29.06389 -34.83712,-35.58269 -2.0998,-5.6122 -2.12298,-6.55419 -2.10126,-85.38729 0.0208,-75.43429 0.12138,-79.93139 1.87437,-83.79109 6.05187,-13.3249 24.21593,-13.59067 30.85367,-0.45144 l 2.25,4.45382 0,68.32135 0,68.32136 2.57259,5.07676 c 4.64271,9.16194 23.68138,27.39203 47.07913,45.07966 12.67152,9.57908 34.34524,24.77709 35.33437,24.77709 1.18481,0 35.36065,-24.5568 46.53067,-33.43428 14.60187,-11.60498 32.51748,-29.88046 35.79308,-36.51206 l 2.69016,-5.44635 0.006,-67.55365 c 0.004,-42.7784 0.37919,-68.8988 1.02429,-71.22139 1.95296,-7.0314 11.7473,-12.84706 19.26192,-11.43731 4.7315,0.88764 9.67575,4.38951 12.15414,8.60844 2.02654,3.45046 2.05365,4.57867 2.05365,85.4966 l 0,82 -3,5.64664 c -2.95219,5.55665 -8.16278,10.66012 -33.00488,32.32638 -20.91667,18.24266 -34.58192,33.26474 -39.14068,43.02698 l -2.3349,5 -0.0113,78.5 c -0.0105,72.7206 -0.14004,78.75768 -1.75976,82 l -1.74845,3.5 -38.25747,0.26189 -38.25747,0.26189 -1.98879,-3.26189 z m 208.19312,-0.19897 c -5.0832,-5.78944 -5.34937,-9.17518 -5.00388,-63.64943 l 0.31449,-49.5865 2.86306,-4.13039 c 1.78838,-2.58001 4.7711,-5.0812 7.94634,-6.66349 5.04528,-2.51417 5.27434,-2.53295 30.63694,-2.51115 22.55268,0.0194 26.02438,0.23583 29.56228,1.84302 5.04147,2.2903 10.06617,7.94198 11.43127,12.85769 0.6226,2.24202 1.0512,15.80864 1.0545,33.37811 0,19.79862 0.3893,30.72641 1.1642,33 2.0814,6.10663 6.4518,11.36746 11.9934,14.43695 l 5.348,2.96227 35,0 c 34.1049,0 35.1047,-0.056 39.0947,-2.19109 2.2521,-1.20509 5.5708,-3.87237 7.3751,-5.92727 6.8445,-7.79552 6.5302,-4.2633 6.5302,-73.38164 l 0,-62.5 -2.9744,-5.37025 c -1.6359,-2.95364 -4.3601,-6.42721 -6.0538,-7.71906 -7.3353,-5.59491 -4.5857,-5.41069 -80.756,-5.41069 -46.53908,0 -72.34598,-0.36926 -76.25041,-1.09103 -7.8963,-1.45971 -12.42493,-3.92005 -17.1995,-9.34425 -7.68812,-8.73417 -7.33835,-3.18692 -7.03547,-111.58111 l 0.26959,-96.48361 2.73587,-4.65395 c 1.96904,-3.34952 4.07117,-5.31151 7.5,-7 l 4.76413,-2.34605 100.97929,-0.27328 c 69.5251,-0.18816 102.602,0.0636 106.1884,0.80809 6.6893,1.3887 11.1251,4.44326 13.7453,9.46519 2.0397,3.90926 2.087,5.20589 2.087,57.15718 l 0,53.15718 -3.0928,3.84282 c -1.7011,2.11355 -4.5465,4.83269 -6.3233,6.04253 -6.8317,4.65195 -17.135,3.8284 -23.6481,-1.89023 -6.9443,-6.09715 -6.8817,-5.74129 -7.4358,-42.30948 l -0.5,-33 -2.9113,-5.25433 c -1.6012,-2.88988 -4.4065,-6.39481 -6.234,-7.78874 -7.1787,-5.47543 -6.9461,-5.45693 -68.6144,-5.45693 -40.8021,0 -58.12407,0.33432 -60.93345,1.17602 -5.13452,1.53834 -12.6173,8.19752 -14.92837,13.28527 -1.71233,3.76965 -1.83601,7.97786 -1.85651,63.16659 -0.0241,64.94704 -0.22526,62.65418 6.13123,69.89381 1.73659,1.97787 5.00006,4.58213 7.25213,5.78722 4.0905,2.18886 4.1752,2.1916 83.09467,2.69109 77.5172,0.49062 79.0845,0.53926 83.5,2.59184 6.4735,3.00921 10.7129,6.93814 13.7992,12.78842 l 2.7008,5.11974 0.2688,100.32346 c 0.1832,68.39508 -0.069,101.57727 -0.7921,104.26313 -0.5835,2.16682 -2.4385,5.50876 -4.1224,7.42654 l -3.0615,3.48687 -111.2928,0 -111.29281,0 z m 283.8742,1.28171 c -1.2724,-1.18546 -3.2698,-4.22296 -4.4386,-6.75 -2.078,-4.49295 -2.125,-5.71222 -2.125,-55.09463 l 0,-50.5 2.5,-4.4556 c 1.375,-2.45057 4.4509,-5.82557 6.8354,-7.5 l 4.3354,-3.0444 28.3275,0 28.3275,0 4.3371,3.0444 c 2.3854,1.67443 5.4621,5.04943 6.8371,7.5 2.4934,4.44378 2.5013,4.54316 3,37.4556 l 0.5,33 2.7723,4.71611 c 3.3795,5.74913 8.0976,9.48904 14.3415,11.36819 6.9143,2.08089 63.9433,2.03622 70.9547,-0.0556 6.5254,-1.9468 11.668,-6.35557 14.8413,-12.72349 l 2.5902,-5.19792 0,-61.43763 c 0,-44.19697 -0.33,-62.53913 -1.176,-65.36284 -1.4772,-4.9305 -7.5999,-11.97191 -12.5477,-14.43042 -3.5636,-1.77073 -8.0009,-1.90458 -78.7763,-2.37642 -74.5009,-0.49667 -75.0315,-0.51455 -79.7333,-2.6864 -11.2569,-5.1997 -16.0977,-11.97755 -17.8293,-24.96349 -1.5755,-11.81496 -0.7581,-186.62383 0.8957,-191.56905 1.7377,-5.19589 5.4245,-9.23955 10.4132,-11.42099 4.0404,-1.76678 9.3189,-1.87392 105.2537,-2.13627 68.9075,-0.18845 102.5887,0.0635 106,0.79278 6.7509,1.44333 11.0839,4.58602 13.7648,9.98342 2.2121,4.45341 2.2382,5.02286 2.5231,55 0.3243,56.89362 0.4122,56.10501 -6.9548,62.41083 -10.0348,8.58943 -24.8939,6.14682 -31.5565,-5.18741 l -2.7766,-4.7234 -0.5227,-33 c -0.3505,-22.12485 -0.9125,-33.88904 -1.7054,-35.69772 -2.058,-4.69456 -8.1116,-10.48704 -13.2862,-12.71308 -4.9529,-2.13069 -5.527,-2.1474 -64.2416,-1.86955 l -59.2441,0.28035 -4.6524,2.73498 c -5.9325,3.48744 -10.4638,9.65128 -11.8786,16.15802 -0.763,3.50938 -1.0101,22.78183 -0.7897,61.607 0.2999,52.8289 0.4417,56.72741 2.1827,60 2.5991,4.88565 7.4226,9.78853 12.138,12.33763 3.9803,2.15171 4.3895,2.16484 83,2.66237 77.8818,0.49292 79.065,0.53005 83.5894,2.62272 5.8566,2.70884 11.579,8.43132 14.2879,14.28789 2.1195,4.58252 2.1227,4.74134 2.1227,106.08939 0,97.17282 -0.08,101.64921 -1.867,105 -1.0268,1.925 -2.7927,4.5125 -3.9243,5.75 l -2.0573,2.25 -111.1372,0 -111.1371,0 z m 282.6873,0.17409 c -1.3853,-1.0897 -3.3585,-3.9022 -4.3848,-6.25 -1.7975,-4.1119 -1.8759,-11.4692 -2.1317,-200.26872 -0.1853,-136.72877 0.059,-197.56897 0.8081,-201.18832 1.4065,-6.79643 4.5072,-11.23579 9.9962,-14.31168 l 4.4613,-2.5 102.1627,-0.2771 102.1628,-0.2771 2.8372,2.44052 2.8373,2.44052 0,16.17316 0,16.17317 -2.8058,2.41341 -2.8057,2.41342 -76.2628,0 c -88.2318,0 -83.3374,-0.4672 -92.5952,8.8389 -9.3886,9.43757 -9.1453,7.47171 -8.8137,71.22076 l 0.2832,54.44034 2.6607,5 c 3.3899,6.37036 8.0134,10.78733 14.3393,13.69878 l 5,2.30122 78.2228,0.5 78.2228,0.5 2.2772,2.27549 c 2.0272,2.02571 2.3148,3.43276 2.6202,12.81839 0.3713,11.41345 -0.6377,15.63395 -4.2302,17.69434 -1.5519,0.89011 -16.4472,1.34451 -56.1128,1.71178 -52.9827,0.49058 -54.0762,0.5408 -58.0449,2.66571 -5.5838,2.98963 -11.7731,9.99109 -14.0493,15.89294 -1.7964,4.65761 -1.9058,8.30057 -1.9058,63.44135 l 0,58.5 2.7901,5.6816 c 3.161,6.43691 8.0059,11.13432 14.6591,14.21274 4.3712,2.02258 6.425,2.12539 52.0508,2.60566 46.7226,0.49182 47.5737,0.53674 52.0046,2.74476 5.8045,2.89259 9.8618,6.69117 11.6063,10.86643 1.6321,3.90618 1.8333,12.69035 0.3539,15.45455 -1.0136,1.8939 -3.2746,1.93426 -108.3651,1.93426 -105.4777,0 -107.3735,-0.0342 -109.8488,-1.98128 z m 342.8153,0.0544 c -0.9591,-1.05979 -2.1431,-3.64729 -2.6312,-5.75 -0.488,-2.10271 -0.898,-38.70835 -0.9111,-81.34586 l -0.024,-77.52276 -3.75,-6.43837 c -4.4751,-7.68327 -21.1279,-25.26606 -37.75,-39.85815 -26.2107,-23.00963 -30.6438,-27.41742 -33.126,-32.93649 l -2.374,-5.27852 0,-81.63363 0,-81.63362 2.4859,-4.24181 c 2.8424,-4.85029 9.0769,-8.43391 14.6725,-8.43391 4.8788,0 11.9142,3.96426 14.3286,8.07377 1.9519,3.32216 2.0282,5.55245 2.513,73.42623 l 0.5,70 2.2677,4.24493 c 7.1139,13.3163 32.6178,35.80207 70.4458,62.10908 6.4424,4.48029 11.9956,8.14599 12.3405,8.14599 0.345,0 6.5489,-4.14759 13.7866,-9.21686 37.0408,-25.9434 61.0879,-47.11183 68.2997,-60.12355 l 2.8597,-5.15959 0.5,-70 0.5,-70 2.2877,-3.67905 c 2.6238,-4.21958 9.1683,-7.82095 14.2123,-7.82095 4.8313,0 11.5904,3.60118 13.9623,7.43899 2.0077,3.24859 2.0377,4.52668 2.0377,86.90881 0,73.75567 -0.1856,84.0757 -1.5749,87.54775 -1.6191,4.04669 -9.8559,12.11379 -33.4251,32.73663 -15.2548,13.3478 -32.6613,31.66075 -37,38.92665 l -3.5,5.86141 -0.5,80.53988 c -0.4832,77.8282 -0.5662,80.6493 -2.4656,83.78988 l -1.9656,3.25 -37.6294,0 c -35.8835,0 -37.7103,-0.0894 -39.3732,-1.92689 z"
     id="path4146"
     inkscape:connector-curvature="0"
     sodipodi:nodetypes="sssssssssscccsssscssscccssssssssssssssscsscccsscccssscsssscssssssscscsssssscccssssscssscscssscsscccccsscsssssccscsscscsssssscsscscsscccsscssssssssssccscccccsscscsscccssscsssscsssssscssccssscsssscscssssscscccccsscscscccccccccssscsscccsscsscscssssssssccscsssccccscscssssscccsssscsscsscscc" />
  <g
     inkscape:groupmode="layer"
     id="layer1"
     inkscape:label="Layer 1"
     transform="translate(-15.202367,1216.7652)" />
  <g
     inkscape:groupmode="layer"
     id="layer2"
     inkscape:label="Layer 2"
     transform="translate(-15.202367,1216.7652)" />
  <path
     style="fill:#a70c15;fill-opacity:1"
     d="m 2607.0384,289.14276 c -135.3938,0.12127 -248.9074,0.35297 -394.1126,-0.19214 -1.504,-0.006 -2.6612,-0.44906 -3.7344,-1.24273 0,0 -1.0113,-0.48274 -1.2998,-4.82946 -0.5746,-8.65841 -1.4073,-27.78563 -1.2476,-64.73319 0.3485,-80.62293 18.4656,-104.02753 118.9838,-107.70423 25.4779,-0.9319 101.67,-0.545 101.67,-0.545 l 86.5245,0.1605 c 57.3027,0.1062 56.8326,-0.5581 61.9769,-3.5823 0.6957,-0.84921 3.1862,-2.68253 3.0582,-19.6988 -0.054,-7.12222 -3.0765,-7.76742 -3.0765,-7.76742 -12.0417,-0.20711 -264.0792,-0.21871 -264.0792,-0.21871 -37.9227,0 -72.2298,0.1797 -72.2298,0.1797 l 0.051,-23.41867 253.8218,0.2218 c 97.1393,0.085 103.15,1.8424 110.0933,5.7327 1.2794,0.71681 5.1167,3.16452 5.149,8.38984 0.099,16.07096 -0.1451,38.53966 -0.1451,38.53966 -0.012,13.4858 -1.7637,25.3329 -15.5315,25.2324 -95.5981,0.1007 -200.1343,0.1007 -281.0807,0.9637 -35.8952,-0.8632 -43.423,12.5876 -55.1992,31.5353 -1.046,2.9438 -1.7817,3.9312 -2.1428,5.8543 -6.6405,35.36054 -4.576,87.60591 0.1041,92.52646 3.1505,1.43681 5.391,1.19528 7.6984,1.20436 59.2063,0.23297 203.1828,0.23935 203.1828,0.23935 0,0 150.6027,-0.11394 178.2023,-0.5505 6.1425,-0.0972 8.8042,-3.01473 10.3517,-5.49068 1.0504,-2.276 0.8184,-14.13886 -0.057,-17.99054 -0.3026,-0.87689 -2.3192,-1.67803 -11.6452,-1.88723 l -339.9815,-0.27221 c -5.5603,-3.43653 -5.5581,-22.22188 -4.7942,-40.73134 0.5812,-14.08638 0.5253,-28.51027 4.6393,-35.00117 5.416,-8.545 38.6493,-10.2969 159.1483,-8.3899 184.5078,2.92 191.328,0.6924 191.328,-61.66226 0,-27.32322 1.8808,-48.50344 -13.6453,-58.40054 -11.4401,-7.2923 -35.8338,-6.2955 -74.9091,-6.3039 -35.0556,-0.01 -166.3847,-0.062 -166.3847,-0.062 l -158.1881,-0.2567 -0.036,-22.991397 c 0,0 331.2666,0 386.2689,0.3048 2.3084,0.014 12.3064,-0.308 25.5393,0.9524 15.6742,2.8439 20.1879,7.895098 25.146,12.669397 10.7408,10.3426 11.8586,14.7444 15.6819,24.5157 0.6074,1.3756 2.5148,5.5633 2.5828,15.7506 0.1597,23.9262 1.0716,62.0669 -0.2816,85.0254 -8.7234,33.81049 -48.3898,30.353 -193.7017,30.0726 -87.9027,0.4544 -130.1204,-0.5239 -149.9147,0.345 -11.3131,0.4966 -14.0957,1.83422 -16.5404,5.27839 0,0 -2.7525,15.09431 -0.3208,29.38015 1.6403,7.52983 11.3133,8.52051 109.6268,8.50059 38.3498,-0.008 89.7533,-0.0801 160.1186,-0.11178 l 85.0069,-0.0383 c 0,0 3.6828,0.40032 6.8343,3.02647 1.7507,2.9763 2.2674,8.24866 2.2674,8.24866 l -0.04,51.12248 c 0,0 0.081,4.74806 -2.3695,6.67391 -1.2256,1.40061 -6.1836,1.75599 -6.1836,1.75599 z"
     id="path4942"
     inkscape:connector-curvature="0"
     sodipodi:nodetypes="cscssscscscsccsssccccscscsccccsssssscccscscsccsscssccccccc" />
</svg>
