<?xml version="1.0" encoding="UTF-8" standalone="no"?>
<!-- Created with Inkscape (http://www.inkscape.org/) -->

<svg
   xmlns:dc="http://purl.org/dc/elements/1.1/"
   xmlns:cc="http://creativecommons.org/ns#"
   xmlns:rdf="http://www.w3.org/1999/02/22-rdf-syntax-ns#"
   xmlns:svg="http://www.w3.org/2000/svg"
   xmlns="http://www.w3.org/2000/svg"
   xmlns:sodipodi="http://sodipodi.sourceforge.net/DTD/sodipodi-0.dtd"
   xmlns:inkscape="http://www.inkscape.org/namespaces/inkscape"
   version="1.1"
   width="141.62891"
   height="119.05861"
   id="svg2"
   inkscape:version="0.91 r13725"
   sodipodi:docname="logo.svg">
  <metadata
     id="metadata20">
    <rdf:RDF>
      <cc:Work
         rdf:about="">
        <dc:format>image/svg+xml</dc:format>
        <dc:type
           rdf:resource="http://purl.org/dc/dcmitype/StillImage" />
        <dc:title></dc:title>
      </cc:Work>
    </rdf:RDF>
  </metadata>
  <sodipodi:namedview
     pagecolor="#ffffff"
     bordercolor="#666666"
     borderopacity="1"
     objecttolerance="10"
     gridtolerance="10"
     guidetolerance="10"
     inkscape:pageopacity="0"
     inkscape:pageshadow="2"
     inkscape:window-width="1680"
     inkscape:window-height="975"
     id="namedview18"
     showgrid="false"
     fit-margin-top="0"
     fit-margin-left="0"
     fit-margin-right="0"
     fit-margin-bottom="0"
     inkscape:zoom="3.9644343"
     inkscape:cx="88.726365"
     inkscape:cy="56.230947"
     inkscape:window-x="1671"
     inkscape:window-y="-9"
     inkscape:window-maximized="1"
     inkscape:current-layer="svg2" />
  <defs
     id="defs4" />
  <path
     inkscape:connector-curvature="0"
     style="fill:#000000;fill-opacity:1;fill-rule:nonzero;stroke:none"
     id="path68"
     d="m 35.623042,18.625803 c -2.0075,-2.84625 -5.31875,-4.7025 -9.065,-4.7025 -6.13125,0 -11.09625,4.9675 -11.09625,11.095 0,6.12625 4.965,11.09375 11.09625,11.09375 4.4475,0 8.285,-2.62125 10.05625,-6.40125 l -9.79375,0 0,-5.045 15.64125,0 c 0.005,0.11875 0.009,0.235 0.009,0.3525 0,1.63125 -0.24375,3.20875 -0.70125,4.6925 -2.0012,6.49875 -8.0537,11.22875 -15.2112,11.22875 -8.79125,0 -15.91875,-7.13125 -15.91875,-15.92125 0,-8.7925 7.1275,-15.9174998 15.91875,-15.9174998 6.515,0 12.1125,3.9187498 14.57625,9.5249998 l -5.51125,0 z" />
  <path
     inkscape:connector-curvature="0"
     style="fill:#000000;fill-opacity:1;fill-rule:nonzero;stroke:none"
     id="path70"
     d="m 59.356792,9.4158032 0,0.001 -20.1125,30.2874998 6.22625,0 4.29625,-6.46875 9.59,0 0,6.48125 5.1875,0 0,-30.3012498 -5.1875,0 z m -6.14625,18.6312498 6.14625,-9.2525 0,9.2525 -6.14625,0 z" />
  <path
     inkscape:connector-curvature="0"
     style="fill:#000000;fill-opacity:1;fill-rule:nonzero;stroke:none"
     id="path72"
     d="m 105.16554,9.4158032 0,0.001 -13.869998,20.8787498 0,-20.8799998 -5.1875,0 0,10e-4 -20.11375,30.2874998 6.2325,0 13.88125,-20.91 0,20.9225 5.1875,0 0,-0.0362 13.869998,-20.88625 0,20.9225 5.18625,0 0,-30.3012498 -5.18625,0 z" />
  <path
     inkscape:connector-curvature="0"
     style="fill:#000000;fill-opacity:1;fill-rule:nonzero;stroke:none"
     id="path74"
     d="m 130.30554,14.604553 0,-5.1887498 -15.7575,0 0,30.3087498 5.18625,-0.02 10.57125,0 0,-5.18875 -10.57125,0 0,-7.0625 10.57125,0 0,-5.18625 -10.57125,0 0,-7.6625 10.57125,0 z" />
  <path
     inkscape:connector-curvature="0"
     style="fill:#000000;fill-opacity:1;fill-rule:nonzero;stroke:none"
     id="path86"
     d="m 79.655302,64.651933 c 1.6625,-3.7425 4.16,-9.36875 4.16,-9.36875 l -5.08875,0 -2.67875,6.03875 -3.98875,-3.68375 c 1.82625,-1.4675 3.43,-3.32375 3.43,-6.42 0,-1.66125 -0.6575,-3.23125 -1.84125,-4.42125 -1.355,-1.35125 -3.26125,-2.12625 -5.2375,-2.12625 -3.42375,0 -6.96875,2.44875 -6.96875,6.5475 0,2.855 1.5725,4.7 3.13375,6.06625 -2.89125,2.0475 -5.40875,4.2275 -5.40875,8.72375 0,2.55125 0.92375,4.8725 2.59875,6.5475 1.68875,1.69125 4.0475,2.6225 6.645,2.6225 4.9175,0 7.3575,-2.38 9.22625,-6.06 l 6.0325,5.57625 3.16,-3.415 -7.17375,-6.6275 z m -13.07375,-14.61875 c 0.43875,-0.44 1.1425,-0.71 1.82875,-0.71 0.73125,0 1.475,0.2925 1.94625,0.7625 0.32625,0.325 0.485,0.69375 0.485,1.1325 0,1.30625 -0.62625,2.0175 -2.3375,3.2825 -1.49625,-1.1975 -2.41125,-2.0325 -2.41125,-3.2825 0,-0.465 0.16,-0.855 0.48875,-1.185 m 7.37875,15.9875 c -1.605,3.57625 -2.745,4.5025 -5.55,4.5025 -1.3775,0 -2.535,-0.43625 -3.3575,-1.2525 -0.80875,-0.81125 -1.23375,-1.93875 -1.23375,-3.2625 0,-2.445 1.25625,-3.41375 4.35,-5.5575 0.0163,-0.01 0.0338,-0.0238 0.045,-0.0338 l 5.83875,5.39375 -0.0925,0.21 z" />
  <path
     inkscape:connector-curvature="0"
     style="fill:#000000;fill-opacity:1;fill-rule:nonzero;stroke:none"
     id="path76"
     d="m 58.586992,78.907043 0,0 -20.11125,30.288747 6.22625,0 4.29625,-6.4675 9.58875,0 0,6.4825 5.19,0 0,-30.303747 -5.19,0 z m -6.14625,18.635 6.14625,-9.25125 0,9.25125 -6.14625,0 z" />
  <path
     inkscape:connector-curvature="0"
     style="fill:#000000;fill-opacity:1;fill-rule:nonzero;stroke:none"
     id="path78"
     d="m 16.149492,109.21079 0,-0.001 13.86375,-20.884997 0,20.886247 5.1875,0 0,-10e-4 0,0 20.11375,-30.288747 -6.22875,0 -13.885,20.90625 0,-20.92 -5.1875,0 0,0.04 -13.86375,20.88 0,-20.92 -5.19,0 0,30.303747 5.19,0 z" />
  <path
     inkscape:connector-curvature="0"
     style="fill:#000000;fill-opacity:1;fill-rule:nonzero;stroke:none"
     id="path80"
     d="m 127.32199,78.907043 0,12.2 -9.36625,0 0,-12.2 -5.18625,0 0,30.298747 5.18625,0 0,-12.907497 9.36625,0 0,12.907497 5.18875,0 0,-30.298747 -5.18875,0 z" />
  <path
     inkscape:connector-curvature="0"
     style="fill:#000000;fill-opacity:1;fill-rule:nonzero;stroke:none"
     id="path82"
     d="m 82.736992,78.907043 -16.9325,0 0,5.18625 5.87375,0 0,25.112497 5.18875,0 0,-25.112497 5.87,0 0,-5.18625 z" />
  <path
     inkscape:connector-curvature="0"
     style="fill:#000000;fill-opacity:1;fill-rule:nonzero;stroke:none"
     id="path84"
     d="m 105.43824,101.03954 c -1.9925,2.21375 -4.87375,3.6025 -8.086248,3.6025 -6.0125,0 -10.885,-4.871247 -10.885,-10.878747 0,-6.01 4.8725,-10.88125 10.885,-10.88125 3.161248,0 6.009998,1.42125 7.994998,3.605 l 6.0775,0 c -2.65625,-5.0525 -7.9625,-8.6225 -14.072498,-8.6225 -8.78,0 -15.8975,7.11875 -15.8975,15.89875 0,8.778747 7.1175,15.901247 15.8975,15.901247 6.153748,0 11.488748,-3.51 14.131248,-8.625 l -6.045,0 z" />
  <path
     style="color:#000000;font-style:normal;font-variant:normal;font-weight:normal;font-stretch:normal;font-size:medium;line-height:normal;font-family:sans-serif;text-indent:0;text-align:start;text-decoration:none;text-decoration-line:none;text-decoration-style:solid;text-decoration-color:#000000;letter-spacing:normal;word-spacing:normal;text-transform:none;direction:ltr;block-progression:tb;writing-mode:lr-tb;baseline-shift:baseline;text-anchor:start;white-space:normal;clip-rule:nonzero;display:inline;overflow:visible;visibility:visible;opacity:1;isolation:auto;mix-blend-mode:normal;color-interpolation:sRGB;color-interpolation-filters:linearRGB;solid-color:#000000;solid-opacity:1;fill:#000000;fill-opacity:1;fill-rule:nonzero;stroke:none;stroke-width:1.5;stroke-linecap:butt;stroke-linejoin:miter;stroke-miterlimit:4;stroke-dasharray:none;stroke-dashoffset:0;stroke-opacity:1;color-rendering:auto;image-rendering:auto;shape-rendering:auto;text-rendering:auto;enable-background:accumulate"
     d="m 9.2011719,0 c 0,0 -2.2709319,-0.01059205 -4.5625,1.1367188 C 2.3471038,2.2840295 0,4.7304652 0,9.2109375 L 0,110.79492 c 0,0 -0.00865683,2.06042 1.1523438,4.125 1.1610005,2.06458 3.6013688,4.13867 8.0488281,4.13867 l 124.1406281,0 c 0,0 2.04078,0.0107 4.10351,-1.01757 2.06274,-1.02826 4.1836,-3.23858 4.1836,-7.2461 l 0,-101.5839825 c 0,0 0.01,-2.2500118 -1.00782,-4.5351563 C 139.60347,2.3906368 137.39063,0 133.3418,0 L 9.2011719,0 Z m 0,1.5 124.1406281,0 c 3.48744,0 5.04371,1.8394957 5.91015,3.7851562 0.86645,1.9456606 0.87696,3.9257813 0.87696,3.9257813 l 0,101.5839825 c 0,3.506 -1.64812,5.05222 -3.35352,5.90235 -1.7054,0.85012 -3.43359,0.86132 -3.43359,0.86132 l -124.1406281,0 c -4.0028907,0 -5.7886475,-1.68281 -6.7402344,-3.375 C 1.5093506,112.49141 1.5,110.79492 1.5,110.79492 L 1.5,9.2109375 C 1.5,5.2297998 3.37694,3.4466073 5.3105469,2.4785156 7.2441538,1.5104239 9.2011719,1.5 9.2011719,1.5 Z"
     id="path2915"
     inkscape:connector-curvature="0" />
</svg>
