<?xml version="1.0" encoding="UTF-8" standalone="no"?>
<!-- Generator: Adobe Illustrator 13.0.0, SVG Export Plug-In . SVG Version: 6.00 Build 14948)  -->

<svg
   xmlns:dc="http://purl.org/dc/elements/1.1/"
   xmlns:cc="http://creativecommons.org/ns#"
   xmlns:rdf="http://www.w3.org/1999/02/22-rdf-syntax-ns#"
   xmlns:svg="http://www.w3.org/2000/svg"
   xmlns="http://www.w3.org/2000/svg"
   xmlns:sodipodi="http://sodipodi.sourceforge.net/DTD/sodipodi-0.dtd"
   xmlns:inkscape="http://www.inkscape.org/namespaces/inkscape"
   version="1.2"
   id="Ebene_1"
   x="0px"
   y="0px"
   width="1530.0205"
   height="95.23732"
   viewBox="0 0 1530.0206 95.237322"
   xml:space="preserve"
   inkscape:version="0.91 r13725"
   sodipodi:docname="logoconsole.svg"><metadata
     id="metadata4183"><rdf:RDF><cc:Work
         rdf:about=""><dc:format>image/svg+xml</dc:format><dc:type
           rdf:resource="http://purl.org/dc/dcmitype/StillImage" /><dc:title></dc:title></cc:Work></rdf:RDF></metadata><defs
     id="defs4181"><inkscape:perspective
       sodipodi:type="inkscape:persp3d"
       inkscape:vp_x="0 : 44.667001 : 1"
       inkscape:vp_y="0 : 1000 : 0"
       inkscape:vp_z="566.93003 : 44.667001 : 1"
       inkscape:persp3d-origin="283.46502 : 29.778001 : 1"
       id="perspective4790" /></defs><sodipodi:namedview
     pagecolor="#ffffff"
     bordercolor="#666666"
     borderopacity="1"
     objecttolerance="10"
     gridtolerance="10"
     guidetolerance="10"
     inkscape:pageopacity="0"
     inkscape:pageshadow="2"
     inkscape:window-width="1680"
     inkscape:window-height="975"
     id="namedview4179"
     showgrid="false"
     inkscape:zoom="0.62607999"
     inkscape:cx="936.09063"
     inkscape:cy="44.138308"
     inkscape:window-x="1671"
     inkscape:window-y="-9"
     inkscape:window-maximized="1"
     inkscape:current-layer="Ebene_1"
     showguides="true"
     inkscape:guide-bbox="true"
     fit-margin-top="0"
     fit-margin-left="0"
     fit-margin-right="0"
     fit-margin-bottom="0"><sodipodi:guide
       position="517.91837,274.0942"
       orientation="0,1"
       id="guide4768" /><sodipodi:guide
       position="1057.7091,336.52909"
       orientation="0,1"
       id="guide4802" /><sodipodi:guide
       position="1256.7816,337.22488"
       orientation="0,1"
       id="guide4814" /><inkscape:grid
       type="xygrid"
       id="grid4822"
       originx="547.7128"
       originy="11.728318" /><sodipodi:guide
       position="1206.9626,338.71842"
       orientation="0,1"
       id="guide4167" /></sodipodi:namedview><path
     d="m 162.53738,44.848295 c -1.57024,0 -2.46647,1.335698 -2.46647,2.992348 l -0.32589,32.306038 c 0,1.570235 1.33568,2.384989 2.99234,2.384989 l 14.84077,-0.12098 c 1.65912,0 2.99481,-0.893756 2.99481,-2.466468 l 0,-5.984694 c 0,-1.572712 -1.33569,-2.42449 -2.99481,-2.42449 l -9.58194,0.03951 c -1.65665,0 -3.03432,-0.814754 -3.03432,-2.387466 l 0,-21.34643 c 0,-1.65665 -0.84931,-2.992348 -2.42449,-2.992348 l 0,0 z m 72.57681,0 c -0.19505,0 -0.38762,0.042 -0.56539,0.08151 -1.22459,0.278992 -1.90355,1.459145 -1.90355,2.910877 l -0.36046,32.306039 c 0,0.98263 0.53823,1.64184 1.33322,2.01958 0.15554,0.07653 0.35059,0.150608 0.52589,0.202459 0.18023,0.05185 0.37033,0.09629 0.56538,0.12098 0.19258,0.02468 0.3975,0.042 0.60489,0.042 l 14.79633,-0.12098 c 1.65912,0 2.99234,-0.893756 2.99234,-2.466468 l 0,-5.984694 c 0,-1.570244 -1.33322,-2.42449 -2.99234,-2.42449 l -9.5844,0.03951 c -1.65666,0 -2.99236,-0.814754 -2.99236,-2.384989 l -0.042,-21.348907 c 0.005,-1.65665 -0.80734,-2.992348 -2.37759,-2.992348 l 0,0 z m -232.079873,0.042 C 1.372721,44.890291 0,45.823548 0,47.39626 L 0.160481,52.247716 0,79.3764 c 0,1.659118 0.854246,2.992347 2.422021,2.992347 0.195046,0 0.353058,0 0.528357,-0.03951 1.224591,-0.278993 1.940579,-1.501115 1.940579,-2.952847 l 0,-21.346439 c 0,-1.570244 1.333229,-2.466459 2.989879,-2.466459 l 2.064027,0 c 1.656659,0 2.992348,0.896215 2.992348,2.466459 l 2.017121,11.362066 c 0,1.659118 0.814754,2.992347 2.389934,2.992347 l 5.298334,0 c 0.192577,0 0.387622,-0.0053 0.565381,-0.03951 1.212249,-0.24196 1.901078,-1.301133 2.663981,-2.789898 0,0 6.09827,-14.569205 6.345166,-15.122253 0.550571,-1.192494 2.064027,-0.994981 2.064027,0.160481 l 0,21.70937 0.08151,3.194797 c 0,1.659127 0.809808,3.034326 2.38252,3.034326 l 6.110612,0.03951 c 0.19504,0 0.36047,-0.0027 0.52589,-0.03951 0.16048,-0.03702 0.31356,-0.09135 0.44688,-0.162949 0.79745,-0.414782 1.16286,-1.417168 1.94058,-2.789898 l 4.57246,-9.986841 c 0.74562,-1.444327 1.73814,-2.43684 2.98989,-2.466468 l 7.56234,0 c 1.65913,0 2.99235,0.893756 2.99235,2.466468 l 0.40491,10.636169 c -0.0222,1.07646 0.54069,1.673937 1.41469,2.01959 0.29134,0.116043 0.62217,0.219736 0.97276,0.283929 1.39496,0.259237 3.1874,0.16048 4.65148,0.20245 1.39,0.03702 3.55527,-0.883874 3.55527,-2.422022 l 0.079,-32.992399 c 0,-1.572711 -1.33322,-2.424498 -2.99235,-2.424498 l -16.00858,0 c -1.65665,0 -2.52078,0.839445 -2.99235,2.424498 0,0 -10.53494,26.605264 -10.79418,27.210154 -0.0345,0.07405 -0.0864,0.13579 -0.15801,0.20245 -0.15554,0.128385 -0.4049,0.227142 -0.6518,0.283929 -0.60242,0.13579 -1.33075,-0.0053 -1.33075,-0.770307 0,-1.224591 -0.0444,-26.037406 -0.0444,-26.037406 0,-1.659128 -0.68884,-3.194807 -2.264018,-3.194807 l -5.661265,0 c -1.57518,0 -2.150443,1.051769 -3.273808,2.992348 0,0 -6.676001,16.465355 -7.075964,17.225781 -0.09629,0.190109 -0.266651,0.360471 -0.446878,0.483911 -0.170363,0.125916 -0.33578,0.2148 -0.523412,0.241959 -0.380217,0.05434 -0.750561,-0.116043 -0.856723,-0.646859 -0.199982,-1.059174 -3.266403,-17.909683 -3.266403,-17.909683 0,-1.570234 -1.335689,-2.505968 -2.994816,-2.505968 l -10.5942,-0.0053 0,0 z m 292.279893,0 c -1.65913,0 -3.03432,0.851787 -3.03432,2.424499 l -0.15554,32.668969 c 0,0.587604 0.19998,1.066578 0.52341,1.456668 0.3259,0.387622 0.75797,0.683892 1.29125,0.846841 0.1753,0.05185 0.36788,0.09382 0.56539,0.12098 0.19258,0.02717 0.3975,0.042 0.60489,0.042 l 5.09341,0.03951 0,0.042 12.45331,0 c 0.20739,0 0.41478,-0.01483 0.60736,-0.042 0.19257,-0.02468 0.38515,-0.06916 0.56538,-0.12098 1.07893,-0.306152 1.81714,-1.044364 1.81714,-2.22204 0,-1.570243 -1.3357,-2.508436 -2.99482,-2.508436 l -12.45331,0 0,0.0815 c -1.59493,-0.042 -2.86643,-0.975226 -2.86643,-2.505968 l 0.20245,-17.225781 c 0,-1.570244 1.33076,-2.384989 2.99235,-2.384989 l 12.29283,0 c 1.65913,0 3.03432,-0.814754 3.03432,-2.384989 l 0,-5.742744 c 0,-1.572711 -1.37766,-2.466467 -3.03432,-2.466467 l -17.50475,-0.118512 0,0 z m 53.41047,0 c -0.2074,0 -0.40985,0.01483 -0.60489,0.042 -1.37027,0.177758 -2.42203,1.007322 -2.42203,2.384989 -0.005,0.819681 0.007,1.607276 0,2.424489 -0.0568,9.283194 -0.25677,18.615798 -0.12098,27.896524 0.007,0.567849 -0.0913,1.177676 -0.12591,1.780098 -0.0173,0.303675 -0.005,0.60489 0.0444,0.891288 0.0494,0.286397 0.1358,0.555507 0.28146,0.80734 0.39009,0.664137 0.95795,1.086333 1.58012,1.335688 0.62218,0.246897 1.32335,0.303684 2.01959,0.283929 1.09127,-0.02965 2.12822,0.0839 3.11332,0.03951 0.32837,-0.01483 0.66909,-0.06668 0.97276,-0.120971 1.22212,-0.217268 2.23686,-0.817222 2.91582,-2.424498 l 0.40244,-10.63617 c 0,-1.570243 1.33322,-2.466467 2.99234,-2.466467 l 8.08329,0 c 1.65913,0 2.99236,0.893756 2.99236,2.466467 l 0.12344,9.986842 c 0,1.659127 0.80981,2.992347 2.38499,2.992347 0.19505,0 0.39009,0 0.56538,-0.03951 1.22459,-0.278992 1.93812,-1.501114 1.93812,-2.952846 l 0,-8.732623 0,-4.972436 c 0,-2.357829 -2.06897,-3.120732 -3.59723,-3.883635 -0.46417,-0.227142 -0.87401,-0.461688 -1.17769,-0.725862 -0.29627,-0.264174 -0.44688,-0.57773 -0.44688,-0.970316 0,-2.078845 -0.042,-12.979188 -0.042,-12.979188 0,-1.572712 -1.33817,-2.424499 -2.99235,-2.424499 l -18.87995,-0.0027 0,0 z m 35.86867,0 c -0.20738,0 -0.41477,0.01483 -0.60735,0.042 -1.37026,0.177758 -2.4245,1.007322 -2.4245,2.384989 l -0.15801,32.668969 c 0,0.785117 0.35059,1.394944 0.88635,1.817131 0.14073,0.106161 0.28393,0.202449 0.44935,0.283928 0.47403,0.244428 1.03942,0.365399 1.65912,0.365399 l 20.82547,0 c 1.65418,0 2.98988,-0.896224 2.98988,-2.466458 l -0.15555,-32.668969 c 0,-1.572712 -1.33323,-2.424499 -2.99481,-2.424499 l -20.46995,-0.0027 0,0 z m 32.38256,0 c -0.2074,0 -0.41232,0.01234 -0.60489,0.042 -0.39009,0.05434 -0.73328,0.160481 -1.05671,0.320961 -0.795,0.402432 -1.33076,1.160399 -1.33076,2.143029 l 0.15801,4.851457 -0.15801,27.128684 c 0,1.451732 0.65181,2.673854 1.86158,2.952846 0.16789,0.03951 0.32837,0.03951 0.52589,0.03951 0.19504,0 0.39009,0 0.56538,-0.03951 1.22459,-0.278992 1.94058,-1.501114 1.94058,-2.952846 l 0,-21.34644 c 0,-1.570243 1.33816,-2.466458 2.99235,-2.466458 l 10.95713,0 c 1.65666,0 2.99235,0.896215 2.99235,2.466458 l 0.12345,21.267429 c 0,1.659127 0.81474,2.992347 2.38499,2.992347 0.19504,0 0.39009,0 0.56539,-0.03951 1.22459,-0.278993 1.94058,-1.501115 1.94058,-2.952847 l -0.0444,-23.652417 0.0444,-8.248713 c 0,-1.572711 -1.38014,-2.505968 -3.03432,-2.505968 l -20.82299,0 0,0 z m 51.43038,0 c -1.24681,0 -2.33314,0.476506 -2.79236,1.375198 -0.15555,0.298739 -0.20246,0.65921 -0.20246,1.051769 l -0.19998,32.668969 c 0,0.587604 0.19998,1.066578 0.52588,1.456668 0.54069,0.64686 1.43198,1.009791 2.46646,1.009791 l 17.54178,0.08151 c 1.65666,0 2.99236,-0.812277 2.99236,-2.384988 0,-1.570244 -1.3357,-2.505969 -2.99236,-2.505969 l -12.29282,0.08151 c -1.65666,0 -3.03432,-0.938194 -3.03432,-2.508437 l 0.20246,-17.225781 c 0,-1.570244 1.33322,-2.384989 2.99234,-2.384989 l 12.29282,0 c 1.6616,0 3.03433,-0.814754 3.03433,-2.384988 l 0,-5.742744 c 0,-1.572712 -1.3752,-2.466468 -3.03433,-2.466468 l -17.4998,-0.12098 0,0 z m -14.71733,0.042 c -0.97769,0 -1.6838,0.493784 -2.05909,1.293719 -0.15553,0.316025 -0.26911,0.701179 -0.32836,1.09127 -0.0247,0.195045 -0.0395,0.397495 -0.0395,0.60489 l 0.15554,21.551349 c 0,1.180153 -0.61723,1.957865 -1.61221,2.266486 -0.1679,0.04936 -0.34566,0.09382 -0.53083,0.120979 -0.18271,0.02717 -0.39503,0 -0.60243,0 l -1.13323,0 c -1.65913,0 -3.27381,0.812277 -3.27381,2.384989 l 0,5.740276 c 0,0.787585 0.40244,1.394944 1.00732,1.819599 0.15554,0.103693 0.31356,0.202459 0.48392,0.28146 0.52588,0.244428 1.1604,0.365399 1.78257,0.365399 l 9.8634,0 c 1.65666,0 2.99234,-0.896224 2.99234,-2.466458 l 0,-5.740276 c 0,-0.246896 -0.01,-0.454283 -0.0445,-0.649328 -0.21727,-1.360389 -1.16781,-1.530742 -2.10353,-1.69616 -0.39997,-0.07156 -0.78759,-0.153076 -1.13077,-0.323429 -0.5728,-0.286398 -0.9777,-0.829564 -0.9777,-2.103537 l 0,-21.551349 c 0.0148,-1.656659 -0.87648,-2.989879 -2.44919,-2.989879 z m -371.448743,0.07902 c -1.65913,0 -3.03432,0.891288 -3.03432,2.466468 l 0,5.742744 c 0,1.570235 1.37766,2.384989 3.03432,2.384989 l 3.75525,0 c 1.65665,0 2.99235,0.814745 2.99235,2.384988 l -0.15801,21.551358 c 0,1.65665 0.85672,2.992347 2.42448,2.992347 0.19506,0 0.35306,0 0.52343,-0.042 1.22705,-0.278992 1.94057,-1.498646 1.94057,-2.950378 l 0,-21.551357 c 0,-1.375199 1.01721,-2.165252 2.38746,-2.34302 0.19506,-0.02717 0.39997,-0.042 0.60489,-0.042 l 10.352253,0 c 1.65171,0 2.98988,0.814745 2.98988,2.384989 l 0,21.551358 c 0,1.65665 0.89128,2.992347 2.46646,2.992347 0.19752,0 0.39256,0 0.56539,-0.042 1.20978,-0.278992 1.81467,-1.498646 1.81467,-2.950378 l -0.15801,-21.551358 c 0,-1.375198 1.06411,-2.165252 2.42202,-2.343019 0.19504,-0.02717 0.39996,-0.042 0.60736,-0.042 l 3.75525,0 c 1.65911,0 2.99234,-0.814754 2.99234,-2.384989 l 0,-5.742743 c 0,-1.572712 -1.33075,-2.466468 -2.99234,-2.466468 l -39.285693,0 0,0 z m 238.911393,0 c -0.41477,0 -0.81228,0.05185 -1.17521,0.158013 -0.17777,0.05434 -0.36293,0.12098 -0.52589,0.20245 -0.79746,0.40244 -1.33322,1.120897 -1.33322,2.103537 l 0,5.742744 c 0,1.570234 1.37767,2.384988 3.03432,2.384988 l 3.75772,0 c 1.65666,0 2.99235,0.814746 2.99235,2.384989 l -0.15801,21.551358 c 0,0.827086 0.20245,1.599871 0.60736,2.143028 0.0988,0.135799 0.23948,0.25677 0.36046,0.360472 0.2543,0.217259 0.54564,0.365399 0.88634,0.444401 0.17284,0.042 0.36541,0.042 0.56539,0.042 0.19505,0 0.35306,0 0.52835,-0.042 1.22212,-0.278984 1.93565,-1.498638 1.93565,-2.95037 l 0,-21.551357 c 0,-1.375199 1.02214,-2.165252 2.38993,-2.34302 0.19258,-0.02717 0.39749,-0.042 0.60242,-0.042 l 3.76019,0 c 1.65418,0 2.98988,-0.814754 2.98988,-2.384997 l 0,-5.742735 c 0,-1.572712 -1.3357,-2.466468 -2.98988,-2.466468 l -18.23309,0 0,0.0053 0.005,0 z m 193.62867,0 -17.74669,0.12098 c -0.2074,0 -0.41479,0.01234 -0.60489,0.03702 -1.37273,0.197514 -2.38993,1.054237 -2.38993,2.426967 l 0.20245,16.494974 c 0,1.572712 1.33569,2.42449 2.99235,2.42449 l 8.69312,0.16048 c 1.65665,0 2.99235,0.935725 2.99235,2.505969 l -0.20245,6.024204 c 0,0.392559 -0.0889,0.753022 -0.24443,1.051769 -0.30121,0.597477 -0.86166,1.00979 -1.58012,1.21224 -0.1753,0.05185 -0.36787,0.05434 -0.56539,0.08151 -0.19504,0.02717 -0.39996,0.03951 -0.60736,0.03951 l -12.37183,0.042 c -0.20985,0 -0.41231,0.01731 -0.60735,0.03951 -1.36779,0.182695 -2.38499,1.009791 -2.38499,2.387457 0,0.785117 0.30614,1.394944 0.84931,1.817131 0.54563,0.424664 1.31347,0.649337 2.14303,0.649337 l 23.3265,0 c 0.82709,0 1.56284,-0.204927 2.106,-0.607359 0.54317,-0.402441 0.88881,-0.990044 0.88881,-1.777639 l 0.20246,-16.213487 c 0,-1.570243 -1.38013,-2.384997 -3.03432,-2.384997 l -14.39142,0 c -1.66159,0 -2.99482,-0.814746 -2.99482,-2.387484 l -0.20245,-6.834004 c 0,-1.570244 1.38014,-2.466468 3.03432,-2.466468 l 12.49528,0.042 c 1.66159,0 2.99481,-0.896224 2.99481,-2.466468 0,-1.565298 -1.33322,-2.422021 -2.99235,-2.419553 l 0,0 z m -379.04813,0.281461 c -1.65666,0 -2.99234,0.814745 -2.99234,2.387457 l 0,11.364508 c 0,1.654208 -0.81228,2.992374 -2.38746,2.992374 l -3.23678,0.0815 c -1.65666,0 -2.99234,0.814755 -2.99234,2.384998 l -0.20246,15.482689 c 0,1.182612 0.78266,1.975143 1.86157,2.30351 0.1753,0.05434 0.33085,0.09382 0.52589,0.12098 0.19505,0.02717 0.39997,0.042 0.60489,0.042 l 24.30172,0.08151 c 1.65666,0 2.99235,-0.814745 2.99235,-2.384989 0,-1.570243 -1.33569,-2.505968 -2.99235,-2.505968 l -19.04289,0.0815 c -1.65912,0 -2.99235,-0.938193 -2.99235,-2.508436 l 0.15555,-5.782245 c 0,-1.570244 1.33569,-2.384989 2.99481,-2.384989 l 18.87995,0.03951 c 0.20738,0 0.41231,-0.01483 0.60489,-0.03951 0.19504,-0.02717 0.34812,-0.07156 0.52588,-0.12098 1.08139,-0.306143 1.86157,-1.083864 1.86157,-2.264008 0,-1.375199 -1.01967,-2.231922 -2.38745,-2.424499 -0.19258,-0.02965 -0.39751,-0.042 -0.60489,-0.042 l -4.2046,-0.042 c -0.20739,0 -0.41231,-0.01234 -0.60736,-0.03951 -0.77771,-0.111098 -1.42457,-0.412314 -1.85911,-0.930789 -0.32343,-0.387649 -0.52588,-0.906124 -0.52588,-1.496196 l 0.15801,-7.075964 c 0,-1.570243 1.37767,-2.424498 3.03432,-2.424498 l 4.00215,0 c 1.65665,0 2.99235,-0.854246 2.99235,-2.42449 0,-1.572711 -1.3357,-2.466467 -2.99235,-2.466467 l -15.47529,-0.0053 0,0 z m 72.53978,0 c -1.03942,0 -1.92824,0.306143 -2.46893,0.930789 -0.10864,0.123448 -0.20986,0.293802 -0.28146,0.441941 -0.15554,0.298739 -0.24443,0.617232 -0.24443,1.012259 l 0,11.362039 c 0,1.654209 -0.80981,2.992374 -2.38499,2.992374 l -3.23924,0.08151 c -1.65665,0 -2.99235,0.814754 -2.99235,2.384989 l -0.20245,15.482689 c 0,0.587612 0.20245,1.066586 0.52588,1.456677 0.32343,0.387622 0.79253,0.683892 1.33323,0.846841 0.17776,0.05434 0.36787,0.09382 0.56538,0.12098 0.19505,0.02717 0.3975,0.042 0.60489,0.042 l 24.25728,0.08151 c 1.65913,0 2.99235,-0.814754 2.99235,-2.384988 0,-1.570244 -1.33322,-2.505969 -2.99235,-2.505969 l -19.04289,0.08151 c -1.65665,0 -2.99235,-0.938193 -2.99235,-2.508437 l 0.15801,-5.782245 c 0,-1.570243 1.38014,-2.384988 3.03432,-2.384988 l 18.83798,0.03951 c 0.20985,0 0.41231,-0.01483 0.60736,-0.03951 0.19751,-0.02717 0.38515,-0.07156 0.56538,-0.12098 1.07892,-0.306152 1.81467,-1.083865 1.81467,-2.264018 0,-1.375189 -1.01474,-2.231912 -2.38746,-2.424489 -0.19504,-0.02965 -0.3975,-0.042 -0.60736,-0.042 l -4.20213,-0.042 c -0.20739,0 -0.40984,-0.01234 -0.60735,-0.03951 -0.77525,-0.111098 -1.42458,-0.412313 -1.85911,-0.930815 -0.3259,-0.387622 -0.52588,-0.906097 -0.52588,-1.496169 l 0.20245,-7.075964 c 0,-1.570244 1.33569,-2.424499 2.98988,-2.424499 l 4.00461,0 c 1.65912,0 2.99235,-0.854255 2.99235,-2.424489 0,-1.572712 -1.33323,-2.466468 -2.99235,-2.466468 l -15.46294,0 0,0 z m 60.19755,0 c -1.03695,0 -1.96774,0.306143 -2.5109,0.930789 -0.10863,0.123448 -0.20492,0.293802 -0.27899,0.441941 -0.15554,0.298739 -0.24689,0.617232 -0.24689,1.012259 l 0.0444,11.362039 c 0,1.654209 -0.85918,2.992374 -2.42449,2.992374 l -3.1948,0.08151 c -1.65912,0 -2.99235,0.814754 -2.99235,2.384989 L 256.663,79.981353 c 0,0.587612 0.20245,1.066586 0.52835,1.456677 0.32589,0.387622 0.75549,0.683892 1.29126,0.846841 0.17529,0.05434 0.36786,0.09382 0.56538,0.12098 0.19011,0.02717 0.39502,0.042 0.60242,0.042 l 24.25975,0.08151 c 1.65666,0 3.03432,-0.814754 3.03432,-2.384988 0,-1.570244 -1.38013,-2.505969 -3.03432,-2.505969 l -19.00092,0.08151 c -1.65913,0 -3.03432,-0.938193 -3.03432,-2.508437 l 0.19998,-5.782245 c 0,-1.570243 1.33323,-2.384988 2.99235,-2.384988 l 18.84291,0.03951 c 0.20739,0 0.40984,-0.01483 0.60736,-0.03951 0.19257,-0.02717 0.38268,-0.07156 0.56539,-0.12098 1.08138,-0.306152 1.86157,-1.083865 1.86157,-2.264018 0,-1.375189 -1.06412,-2.231912 -2.42203,-2.424489 -0.19751,-0.02965 -0.39996,-0.042 -0.60736,-0.042 l -4.16755,-0.042 c -0.20493,0 -0.40985,-0.01234 -0.60489,-0.03951 -0.77772,-0.111098 -1.46902,-0.412313 -1.90356,-0.930815 -0.32343,-0.387622 -0.48144,-0.906097 -0.48144,-1.496169 l 0.15801,-7.075964 c 0,-1.570244 1.33323,-2.424499 2.99236,-2.424499 l 4.00214,0 c 1.65666,0 3.03432,-0.854255 3.03432,-2.424489 0,-1.572712 -1.38013,-2.466468 -3.03432,-2.466468 l -15.44072,0 0,0 z m -208.506473,4.974904 6.67107,0 c 1.65418,0 2.99234,0.814746 2.99234,2.384989 l 0.20245,7.033995 c 0,1.572738 -1.33815,2.466485 -2.99234,2.466485 l -9.9103,0 c -3.4022,-0.04688 -2.95285,-2.429452 -2.74546,-3.234324 l 2.78989,-6.268624 c 0.80488,-1.367794 1.33323,-2.382521 2.99235,-2.382521 l 0,0 z m 294.060003,0 8.25365,0 c 1.65665,0 2.99235,0.814746 2.99235,2.384989 l 0.20245,7.033995 c 0,1.572738 -1.38261,2.466485 -3.03432,2.466485 l -8.57214,0 c -1.65913,0 -2.99235,-0.893747 -2.99235,-2.466485 l 0.15801,-7.033995 c 0.003,-1.570243 1.33816,-2.384989 2.99235,-2.384989 z m 35.34033,0 10.87318,0 c 1.65666,0 2.99236,0.814746 2.99236,2.384989 l 0.15553,17.265282 c 0,1.570244 -1.33568,2.466468 -2.99234,2.466468 l -11.19415,0 c -1.65913,0 -2.99481,-0.893756 -2.99481,-2.466468 l 0.16048,-17.265282 c 0.007,-1.570243 1.34309,-2.384989 2.99975,-2.384989 l 0,0 z"
     id="path4733"
     inkscape:connector-curvature="0"
     style="fill:#4d423c;fill-opacity:1;stroke:none;stroke-opacity:1" /><path
     style="fill:#4d423c;fill-opacity:1"
     d="m 1211.0825,44.052202 0.021,19.987374 -0.034,19.940545 3.398,-0.0037 0.034,-19.936799 -0.03,-19.976136 -3.3887,-0.01124 z m 6.5657,0 0.019,19.987374 -0.032,19.940545 3.3962,-0.0037 0.034,-19.936799 -0.028,-19.976136 -3.3886,-0.01124 z m 7.6071,0.01124 0,5.934396 3.4599,0 0,-5.934396 -3.4618,0 z m 215.6876,0.0094 0,5.934396 3.4618,0 0,-5.934396 -3.4637,0 z m 30.7135,0 0,5.934396 3.4618,0 0,-5.934396 -3.4618,0 z m -131.9017,0.108647 c -3.1348,0.0086 -5.2581,0.02623 -5.2581,0.02623 l 0,3.324985 c 1.785,-0.0086 9.2494,-0.05958 13.8694,0.02435 l 0,18.307087 0,18.108525 1.8114,0 1.8114,0 0,-18.119765 0,-18.288354 c 4.6994,0 9.2618,-0.01499 13.9612,-0.01499 l 0.01,-3.321239 -14.8754,-0.0206 c -4.0487,-0.03481 -8.1944,-0.03481 -11.3293,-0.02623 z m 45.7293,0.149859 0.021,19.987375 -0.032,19.938671 3.3961,-0.0037 0.034,-19.934925 -0.028,-19.978009 -3.3906,-0.0094 z m -248.4485,0.0037 -0.1179,19.818785 -0.1181,19.818785 2.0475,0 2.0474,0 -0.118,-19.818785 -0.118,-19.818785 -1.8114,0 -1.8115,0 z m 36.9195,2.491398 0,4.302811 0,4.304685 -2.5194,0 -2.5214,0 0.011,3.18262 5.0296,0.03559 0,10.636206 c 0,12.964114 0.2311,13.854537 3.8102,14.710483 l 0,0 c 1.8887,0.451326 2.56,0.388314 4.2484,0.237901 0,0 0.6742,-0.09228 1.3675,-0.221042 l 0.049,-2.74241 c 0,0 -0.038,-0.01873 -2.2029,-0.01873 -3.6,0 -3.6491,-0.16978 -3.6491,-12.310874 l 0,-10.297151 5.9888,-0.02997 -0.043,-3.18262 -2.9728,0 -2.9729,0 0,-4.304685 0,-4.302811 -1.8113,0 -1.8134,0 z m 140.4755,0 0,4.302811 0,4.304685 -2.5195,0 -2.5213,0 0.011,3.18262 5.0296,0.03559 0,10.636206 c 0,12.964114 0.231,13.854537 3.8102,14.710483 l 0,0 c 1.8885,0.451326 2.5601,0.388314 4.2484,0.237901 0,0 0.6741,-0.09228 1.3675,-0.221042 l 0.049,-2.74241 c 0,0 -0.038,-0.01873 -2.203,-0.01873 -3.5998,0 -3.649,-0.16978 -3.649,-12.310874 l 0,-10.297151 5.9888,-0.02997 -0.043,-3.18262 -2.9729,0 -2.9728,0 0,-4.304685 0,-4.302811 -1.8133,0 -1.8114,0 z m 89.428,7.670881 c -7.6718,0.06254 -12.6111,5.938456 -12.6274,15.021439 -0.014,7.963656 3.2655,13.20364 9.1882,14.678638 2.6981,0.671927 6.9966,0.409626 9.3811,-0.573208 2.8132,-1.159516 5.7869,-4.79234 6.5226,-7.966851 0.2758,-1.190015 0.2136,-1.236333 0.2136,-1.236333 l -3.3774,0.0094 c 0,0 -0.2803,0.662987 -1.0022,2.236638 -1.4504,3.161723 -3.5692,4.663897 -6.916,4.905992 -3.588,0.259531 -5.7019,-0.342437 -8.0211,-2.480158 -2.0324,-1.873455 -2.3697,-4.551408 -2.3697,-7.028362 l 0,-1.277544 10.9322,0 10.7598,0 -0.045,-3.283775 c -0.2886,-4.36452 -1.6991,-7.536362 -4.449,-10.008672 -2.4579,-2.209994 -4.6853,-3.025751 -8.1898,-2.99717 z m -207.3048,0.0487 c -7.6717,0.06254 -12.6092,5.938455 -12.6256,15.021439 -0.014,7.963655 3.2656,13.20364 9.1883,14.678639 2.698,0.671926 6.9946,0.409624 9.3792,-0.573208 2.8132,-1.159518 5.7887,-4.792341 6.5245,-7.966852 0.2757,-1.190016 0.2116,-1.236333 0.2116,-1.236333 l -3.3755,0.0094 c 0,0 -0.2821,0.662986 -1.0041,2.236638 -1.4504,3.161722 -3.5672,4.663899 -6.9141,4.905993 -3.588,0.25953 -5.7021,-0.342438 -8.0212,-2.480159 -2.0325,-1.873455 -2.3714,-4.551408 -2.3714,-7.028363 l 0,-1.277543 10.9321,0 10.7599,0 -0.045,-3.283774 c -0.2886,-4.364521 -1.6972,-7.536362 -4.447,-10.008673 -2.4581,-2.209994 -4.6873,-3.025751 -8.1917,-2.99717 z m 74.8281,0.01311 c -7.6718,0.06254 -12.6111,5.936582 -12.6274,15.019566 -0.014,7.963654 3.2674,13.203639 9.19,14.678638 2.6981,0.671926 6.9948,0.409624 9.3793,-0.573209 2.8132,-1.159517 5.7869,-4.79234 6.5226,-7.966851 0.2757,-1.190015 0.2135,-1.236333 0.2135,-1.236333 l -3.3755,0.0094 c 0,0 -0.2822,0.662985 -1.0041,2.236637 -1.4504,3.161724 -3.5672,4.665772 -6.9141,4.907866 -3.588,0.25953 -5.7019,-0.342439 -8.0211,-2.480158 -2.0324,-1.873456 -2.3716,-4.551409 -2.3716,-7.028363 l 0,-1.279416 10.9322,0 10.7599,0 -0.045,-3.283775 c -0.2886,-4.36452 -1.6972,-7.53449 -4.4471,-10.0068 -2.4579,-2.209994 -4.6871,-3.02575 -8.1916,-2.997169 z m 99.5791,0 c -7.6717,0.06254 -12.6112,5.936582 -12.6275,15.019566 -0.014,7.963654 3.2674,13.203639 9.1901,14.678638 2.6981,0.671926 6.9947,0.409624 9.3793,-0.573209 2.8132,-1.159517 5.7868,-4.79234 6.5225,-7.966851 0.2759,-1.190015 0.2136,-1.236333 0.2136,-1.236333 l -3.3755,0.0094 c 0,0 -0.2821,0.662985 -1.0041,2.236637 -1.4504,3.161724 -3.5673,4.665772 -6.9141,4.907866 -3.5881,0.25953 -5.7039,-0.342439 -8.023,-2.480158 -2.0325,-1.873456 -2.3697,-4.551409 -2.3697,-7.028363 l 0,-1.279416 10.9322,0 10.7599,0 -0.045,-3.283775 c -0.2886,-4.36452 -1.6972,-7.53449 -4.447,-10.0068 -2.4581,-2.209994 -4.6873,-3.02575 -8.1917,-2.997169 z m -72.3386,0.02061 c -2.4013,-0.0423 -3.9856,0.374617 -5.9775,1.382444 -1.3954,0.706042 -2.4268,1.608734 -2.8959,2.275976 -0.7478,1.063189 -0.6875,1.689173 -0.6875,-0.79425 l 0,-2.066174 -3.3962,0.0056 -0.017,28.596745 c 0,0 0.9334,-0.0075 1.8133,-0.0075 l 1.5998,0 0,-8.751736 c 0,-9.344644 0.4487,-12.165424 2.3078,-14.52878 2.2621,-2.875769 7.6811,-3.943463 10.6924,-2.107385 2.9796,1.81682 3.0681,2.206857 3.2256,14.380795 l 0.1425,11.007106 1.8151,0 1.8171,0 -0.1462,-11.664611 c -0.1433,-11.362361 -0.176,-11.711057 -1.2231,-13.395475 -1.7387,-2.796717 -4.0442,-4.032873 -7.9876,-4.285953 -0.38,-0.02439 -0.7396,-0.04079 -1.0827,-0.04683 z m 220.9588,0 c -2.4013,-0.0423 -3.9855,0.374617 -5.9774,1.382444 -1.3954,0.706042 -2.4268,1.608734 -2.896,2.275976 -0.7478,1.063189 -0.6857,1.689173 -0.6857,-0.79425 l 0,-2.066174 -3.3979,0.0056 -0.017,28.596745 c 0,0 0.9353,-0.0075 1.8152,-0.0075 l 1.5996,0 0,-8.751736 c 0,-9.344644 0.447,-12.165424 2.306,-14.52878 2.2621,-2.875769 7.6813,-3.943463 10.6924,-2.107385 2.9798,1.81682 3.0683,2.206857 3.2258,14.380795 l 0.1423,11.007106 1.817,0 1.8152,0 -0.1461,-11.664611 c -0.1433,-11.362361 -0.1761,-11.711057 -1.2232,-13.395475 -1.7387,-2.796717 -4.0441,-4.032873 -7.9875,-4.285953 -0.38,-0.02439 -0.7397,-0.04079 -1.0828,-0.04683 z m -275.6309,0.0056 c -0.4329,-0.0021 -0.8812,0.01507 -1.3469,0.05245 -4.7292,0.37962 -8.2669,2.96721 -10.3777,7.590332 -1.1388,2.494408 -1.3256,9.852371 -0.3372,13.254983 1.9904,6.851999 11.5297,10.533272 17.3331,6.689308 1.1181,-0.740644 2.3079,-1.861678 2.645,-2.491397 1.1286,-2.10957 1.5118,-1.301317 1.2138,2.56258 -0.5415,7.022036 -3.1071,9.861038 -8.9259,9.875674 -3.8698,0.0097 -6.6546,-1.316063 -7.8339,-3.729603 -0.6061,-1.240294 -0.7886,-1.672795 -0.7886,-1.672795 l -3.6209,-0.02622 c 0,0 0.024,0.04897 0.2997,1.245698 0.707,3.065689 4.0115,6.072471 7.624,6.936575 2.3594,0.56434 6.805,0.458406 9.044,-0.215422 3.1051,-0.93451 5.1928,-2.733751 6.5619,-5.653412 0,0 0.7772,-1.962294 1.0246,-3.323111 0.2785,-1.082468 0.311,-14.732963 0.311,-14.732963 l 0.1443,-15.514099 -1.8433,0 -1.8433,0 0,2.038076 c 0,1.121205 -0.017,2.457679 -0.017,2.457679 -1.1599,-1.231904 -1.1659,-1.222726 -2.0531,-2.204793 -1.9254,-2.131168 -4.1838,-3.124717 -7.2138,-3.139536 z m -85.794,0.02623 c -2.4013,-0.04229 -3.9855,0.374617 -5.9774,1.382444 -1.3955,0.706042 -2.4269,1.608733 -2.8961,2.275976 -0.7477,1.063187 -0.6856,1.689173 -0.6856,-0.79425 l 0,-2.066173 -3.398,0.0056 -0.017,28.596745 c 0,0 0.9353,-0.0075 1.8152,-0.0075 l 1.5997,0 0,-8.751735 c 0,-9.344645 0.447,-12.165424 2.306,-14.52878 2.262,-2.875769 7.6811,-3.943462 10.6923,-2.107385 2.9797,1.816819 3.0683,2.206857 3.2258,14.380794 l 0.1423,11.007106 1.8171,0 1.8152,0 -0.1462,-11.66461 c -0.1433,-11.362361 -0.176,-11.709184 -1.2232,-13.393601 -1.7387,-2.796718 -4.0439,-4.034747 -7.9875,-4.287827 -0.3799,-0.02439 -0.7396,-0.04079 -1.0827,-0.04683 z m 332.8001,0.09179 c -7.5634,0 -13.6952,6.736394 -13.6952,15.045792 0,8.309398 6.0681,14.918417 13.6315,14.918412 7.5635,0 13.4442,-6.609019 13.4442,-14.918412 0,-8.309393 -5.817,-15.045792 -13.3805,-15.045792 z m -32.5829,0.0562 c -2.3651,-0.0276 -4.9741,0.365128 -6.6088,1.206361 -3.0356,1.562133 -4.2451,3.669486 -4.1904,6.852279 0.041,2.384077 0.4398,3.01644 1.8057,4.437684 1.7268,1.796639 3.3945,2.357905 9.3868,3.785801 4.4935,1.070744 6.4652,2.177899 7.2195,3.974996 0.5328,1.269662 0.195,2.783607 -0.2005,3.413027 -1.4753,2.348348 -3.8396,3.380686 -8.0605,3.188238 -4.0973,-0.186818 -6.362,-1.165047 -7.4536,-4.572556 -0.6721,-2.097444 -0.6969,-2.585059 -0.6969,-2.585059 l -3.0064,0 0.2191,2.088652 c 0.4562,4.046919 3.6444,7.051052 8.3565,7.871317 l 0,0 c 8.9487,1.55775 16.3819,-3.951109 14.2103,-10.531304 -1.0017,-3.035395 -3.7677,-4.817318 -9.2199,-5.938143 -4.2318,-0.869938 -7.5768,-2.386758 -8.5008,-3.246309 -0.8862,-0.824391 -0.6516,-3.21438 -0.2023,-4.300939 0.849,-2.053513 3.6083,-2.704946 6.4777,-2.704946 3.3243,0 5.5753,1.329489 6.8503,4.074278 0.5858,1.261191 0.489,1.749598 0.489,1.749598 l 3.2575,0.06556 0,-1.152037 c 0,-2.92661 -2.849,-6.037894 -6.4046,-7.178222 -0.979,-0.313984 -2.3106,-0.481721 -3.7295,-0.498279 z m -233.1218,0.674363 0,28.553661 3.4692,-0.0075 0,-28.546168 -3.4655,0 0,0 z m 215.6895,0.346548 0,28.216479 3.4673,-0.0075 0,-28.208987 -3.4636,0 0,0 z m 30.7116,0 0,28.216479 3.4673,-0.0075 0,-28.208987 -3.4636,0 0,0 z m -52.4842,0.01873 -3.7877,0.0037 10.8704,28.195873 3.7033,-0.0094 10.3983,-28.188381 -3.5946,0.0075 -8.705,24.138456 -8.8847,-24.147821 z m -16.0574,1.858245 c 1.6812,-0.05084 3.6367,0.265067 4.8686,0.893531 2.7351,1.395328 4.9902,5.01059 4.9902,7.998696 l 0,1.065869 -9.0589,0 c -6.6776,0 -9.1114,-0.02061 -9.1114,-0.02061 0.195,-2.074122 0.435,-2.332923 0.9554,-3.723984 0.885,-2.365545 2.8627,-4.701128 4.8404,-5.715228 0.5963,-0.305729 1.507,-0.467777 2.5157,-0.498279 z m -159.1253,0.04308 c 3.1968,0.002 4.9831,0.934733 6.929,3.620956 2.4604,3.396447 2.8384,10.425739 0.7737,14.41826 -0.9699,1.875521 -3.5941,4.030861 -5.5784,4.581923 -2.2028,0.611699 -3.1332,0.580524 -5.2657,-0.17983 -4.0237,-1.434659 -6.1702,-5.238799 -6.1798,-10.932177 0,-3.192192 0.1744,-4.026446 1.3899,-6.458901 1.82,-3.642019 4.037,-5.052532 7.9313,-5.050231 z m -48.1795,0.0056 c 1.6811,-0.05084 3.6366,0.265067 4.8685,0.89353 2.735,1.395328 4.9922,5.012464 4.9922,8.00057 l 0,1.063995 -9.0609,0 c -6.6775,0 -9.1114,-0.0206 -9.1114,-0.0206 0.195,-2.074122 0.4349,-2.33105 0.9554,-3.722109 0.885,-2.365545 2.8646,-4.701129 4.8424,-5.715229 0.5961,-0.305728 1.5051,-0.46965 2.5138,-0.500152 z m 74.8281,0.01311 c 1.6811,-0.05084 3.6367,0.265067 4.8685,0.893531 2.7352,1.395328 4.9921,5.010592 4.9921,7.998697 l 0,1.065868 -9.0607,0 c -6.6775,0 -9.1114,-0.02061 -9.1114,-0.02061 0.195,-2.074122 0.4349,-2.332923 0.9553,-3.723984 0.8851,-2.365544 2.8646,-4.701127 4.8423,-5.715227 0.5963,-0.305729 1.5052,-0.467777 2.5139,-0.49828 z m 99.5791,0 c 1.6811,-0.05084 3.6366,0.265067 4.8685,0.893531 2.735,1.395328 4.9903,5.010592 4.9903,7.998697 l 0,1.065868 -9.059,0 c -6.6775,0 -9.1114,-0.02061 -9.1114,-0.02061 0.195,-2.074122 0.4349,-2.332923 0.9554,-3.723984 0.885,-2.365544 2.8646,-4.701127 4.8423,-5.715227 0.5962,-0.305729 1.5051,-0.467777 2.5139,-0.49828 z m 120.7597,0.0487 c 5.768,0 10.2035,5.354998 10.2035,11.96058 0,6.605578 -4.4843,11.861299 -10.2523,11.861299 -5.7679,5e-6 -10.3963,-5.255716 -10.3963,-11.861299 0,-6.605582 4.6771,-11.96058 10.4451,-11.96058 z"
     id="path4762"
     inkscape:connector-curvature="0" /><path
     style="fill:#4d423c;fill-opacity:1"
     inkscape:connector-curvature="0"
     id="path4177"
     d="m 881.67201,-3.8146975e-6 c 0,0 -15.496,59.5289998146975 -15.91,60.8809998146975 -0.542,1.758 -2.217,2.334 -3.094,0.304 -1.082,-2.165 -12.816,-42.374 -12.816,-42.374 l -21.38,0 c 0,0 15.962,52.369 16.685,53.92 7.577,16.234 24.275,9.75 27.705,-2.154 3.527,-12.254 18.618,-70.5759998147 18.618,-70.5759998147 l -9.808,0 0,-9.999999975e-4 z M 660.91101,4.4469962 627.73601,25.605996 c -10e-4,-4.093 0,-6.685 0,-6.685 l -10.552,0 0,29.198 c 0,0.729 -1.371,2.065 -2.597,0.275 0,0 -14.051,-20.15 -19.144,-26.242 -4.228,-5.062 -18.975,-4.803 -19.031,7.182 -0.038,7.607 0.026,52.151 0.026,52.151 l 10.553,0 0,-36.819 c 0,-2.039 1.806,-1.322 2.928,-0.058 0.521,0.588 23.124,35.004 24.142,36.381 2.306,3.108 13.701,5.406 13.701,-6.354 0,-8.427 -0.021,-33.382 -0.028,-46.849 l 10.304,0 c 1.081,0 2.457,1.213 2.458,1.215 -0.01,1.021 -0.166,33.137 -0.166,37.375 0,9.528 7.895,15.966 16.436,15.966 l 19.032,0 0,-9.255 -8.756,0 c -3.138,0 -5.607,-2.306 -5.607,-5.44 l 0,-36.102 c 0,-1.942 1.559,-4.696 4.668,-4.696 3.111,0 9.75,-0.083 9.75,-0.083 l 0,-7.956 -13.093,0 c -1.218,0 -1.851,-0.958 -1.851,-1.851 l 0.002,-12.5119998 0,0 z m -113.032,0.359 c 0,0 -0.166,73.2999998 -0.166,77.6749998 l 20.468,-0.027 0,-77.6459998 -20.302,-0.002 0,0 z M 1026.553,18.064996 c -9.841,0 -18.67,4.102 -24.807,10.635 -0.359,0.385 -0.708,0.786 -1.05,1.188 -4.783,5.61 -7.679,12.791 -7.679,20.636 0,4.48 0.953,8.769 2.65,12.649 0.213,0.485 0.429,0.964 0.662,1.437 4.005,8.041 11.321,14.246 20.247,16.935 0.526,0.158 1.067,0.28 1.604,0.414 2.68,0.668 5.476,1.021 8.369,1.021 18.524,0 33.563,-14.529 33.563,-32.455 0,-17.931 -15.034,-32.46 -33.559,-32.46 l 0,0 z m -89.52499,0.469 c -12.309,0 -21.851,8.804 -21.851,21.326 0,12.896 14.228,16.998 21.739,17.789 4.72599,0.496 9.27999,3.765 9.27999,8.396 0,3.727 -3.219,6.74 -6.687,6.74 l -21.95999,-0.084 0,9.254 24.30999,0 c 0.384,0 0.752,-0.008 1.132,-0.027 11.773,-0.579 21.132,-10.041 21.132,-21.711 0,-1.926 -0.106,-3.633 -0.358,-5.166 -0.063,-0.383 -0.145,-0.743 -0.221,-1.104 -2.104,-9.762 -9.756,-11.649 -21.685,-14.807 0,0 -6.32599,-1.967 -6.32599,-5.773 0,-2.379 1.377,-4.012 3.26099,-4.889 0.188,-0.088 0.382,-0.175 0.579,-0.249 0.986,-0.364 2.065,-0.524 3.149,-0.524 l 14.888,0.055 0,-9.227 -20.38199,0 0,10e-4 z m -133.805,0.083 c 0,0 -0.166,6.508 -0.166,10.883 l 20.469,-0.056 0,-10.828 -20.303,0.001 0,0 z m 86.929,0 c 0,0 -0.14,6.508 -0.14,10.883 l 20.441,-0.056 0,-10.828 -20.301,0.001 0,0 z m 78.28199,0 c 0,0 -0.139,6.508 -0.139,10.883 l 20.439,-0.056 0,-10.828 -20.3,0.001 0,0 z m -274.59599,0.056 c -5.871,0 -10.142,3.04 -12.237,8.039 -0.189,0.455 -0.343,0.923 -0.497,1.41 -0.617,1.942 -0.938,4.135 -0.938,6.519 l 0,31.188 c 0,9.527 5.134,16.324 13.673,16.324 l 30.661,0 0,-9.228 -18.259,0 c -3.137,0 -5.578,-2.657 -5.552,-5.802 l 0,-12.209 20.966,0 0,-9.227 -20.993,-0.057 -0.056,-12.265 c 0,-3.137 2.498,-5.44 5.635,-5.44 l 18.259,0 0,-9.254 -30.662,0.002 0,0 z m 34.97,0.11 c 0,0 -0.166,43.219 -0.166,47.594 0,1.785 0.276,3.451 0.746,4.998 0.156,0.517 0.321,1.033 0.524,1.521 2.234,5.345 7.184,8.819 12.928,9.364 0.521,0.049 1.068,0.083 1.602,0.083 l 19.032,0 0,-9.254 -8.396,0 c -3.137,0 -5.607,-2.306 -5.607,-5.44 l 0,-48.866 -20.663,0 0,0 z m 36.241,0 c 0,0 -0.138,43.219 -0.138,47.594 0,8.934 6.365,15.141 14.197,15.883 0.522,0.049 1.041,0.083 1.575,0.083 l 19.031,0 0,-9.255 -8.729,0 c -3.137,0 -5.635,-2.305 -5.635,-5.439 l 0,-48.866 -20.301,0 0,0 z m 339.01299,0.138 0,29.198 c 0,0.729 -1.369,2.064 -2.598,0.275 0,0 -14.022,-20.15 -19.113,-26.242 -4.23,-5.062 -19.001,-4.803 -19.062,7.182 -0.035,7.607 0.027,52.151 0.027,52.151 l 10.553,0 0,-36.819 c 0,-2.039 1.805,-1.322 2.929,-0.058 0.521,0.588 23.151,35.004 24.17,36.381 0.433,0.582 1.164,1.136 2.101,1.573 0.313,0.146 0.646,0.298 0.994,0.414 4.171,1.403 10.58,0.479 10.58,-8.342 0,-11.761 -0.028,-55.715 -0.028,-55.715 l -10.553,0 0,0.002 z m -77.509,6.712 c 8.129,0 11.382,11.144 11.382,24.889 0,13.743 -3.822,24.871 -11.382,24.889 -2.065,0.005 -3.795,-0.676 -5.248,-1.935 -0.183,-0.157 -0.353,-0.323 -0.523,-0.497 -0.52,-0.523 -0.998,-1.125 -1.438,-1.796 -0.146,-0.224 -0.306,-0.452 -0.441,-0.69 -2.616,-4.539 -3.701,-11.812 -3.701,-19.971 0,-0.859 0.013,-1.705 0.027,-2.542 0.143,-7.528 0.985,-14.067 3.563,-18.093 0.146,-0.225 0.288,-0.428 0.442,-0.635 1.694,-2.286 4.047,-3.619 7.319,-3.619 l 0,0 z m -223.32999,7.846 c 0,0 -0.166,44.626 -0.166,49.001 l 20.469,-0.026 0,-48.975 -20.303,0 0,0 z m 86.929,0 c 0,0 -0.14,44.626 -0.14,49.001 l 20.441,-0.026 0,-48.975 -20.301,0 0,0 z m 78.28199,0 c 0,0 -0.139,44.626 -0.139,49.001 l 20.439,-0.026 0,-48.975 -20.3,0 0,0 z" /></svg>