<?xml version="1.0" encoding="UTF-8" standalone="no"?>
<!-- Created with Inkscape (http://www.inkscape.org/) -->

<svg
   xmlns:dc="http://purl.org/dc/elements/1.1/"
   xmlns:cc="http://creativecommons.org/ns#"
   xmlns:rdf="http://www.w3.org/1999/02/22-rdf-syntax-ns#"
   xmlns:svg="http://www.w3.org/2000/svg"
   xmlns="http://www.w3.org/2000/svg"
   xmlns:sodipodi="http://sodipodi.sourceforge.net/DTD/sodipodi-0.dtd"
   xmlns:inkscape="http://www.inkscape.org/namespaces/inkscape"
   version="1.1"
   width="743.67102"
   height="142.24001"
   viewBox="0 0 743.67102 142.24001"
   id="Layer_1"
   xml:space="preserve"
   inkscape:version="0.91 r13725"
   sodipodi:docname="logoconsole.svg"><metadata
     id="metadata6834"><rdf:RDF><cc:Work
         rdf:about=""><dc:format>image/svg+xml</dc:format><dc:type
           rdf:resource="http://purl.org/dc/dcmitype/StillImage" /><dc:title /></cc:Work></rdf:RDF></metadata><sodipodi:namedview
     pagecolor="#ffffff"
     bordercolor="#666666"
     borderopacity="1"
     objecttolerance="10"
     gridtolerance="10"
     guidetolerance="10"
     inkscape:pageopacity="0"
     inkscape:pageshadow="2"
     inkscape:window-width="1680"
     inkscape:window-height="975"
     id="namedview6832"
     showgrid="false"
     inkscape:zoom="1.3094842"
     inkscape:cx="279.37413"
     inkscape:cy="-4.4767554"
     inkscape:window-x="1671"
     inkscape:window-y="-9"
     inkscape:window-maximized="1"
     inkscape:current-layer="Layer_1" /><defs
     id="defs262" /><linearGradient
     x1="600.21881"
     y1="319.70309"
     x2="601.0108"
     y2="359.2879"
     id="SVGID_1_"
     gradientUnits="userSpaceOnUse"><stop
       id="stop6"
       style="stop-color:#9d949a;stop-opacity:1"
       offset="0" /><stop
       id="stop8"
       style="stop-color:#efefef;stop-opacity:1"
       offset="0.23" /><stop
       id="stop10"
       style="stop-color:#ffffff;stop-opacity:1"
       offset="0.46000001" /><stop
       id="stop12"
       style="stop-color:#3d160d;stop-opacity:1"
       offset="0.5" /><stop
       id="stop14"
       style="stop-color:#c57f3d;stop-opacity:1"
       offset="0.56" /><stop
       id="stop16"
       style="stop-color:#edd999;stop-opacity:1"
       offset="0.63" /><stop
       id="stop18"
       style="stop-color:#f1ece0;stop-opacity:1"
       offset="0.76999998" /><stop
       id="stop20"
       style="stop-color:#ffffff;stop-opacity:1"
       offset="0.99000001" /></linearGradient><polygon
     points="582.338,319.969 563.709,319.969 590.13,359.081 610.318,359.081 636.739,319.969 618.11,319.969 600.224,346.428 "
     transform="matrix(0.72730709,0,0,0.72730709,-70.844537,-118.89643)"
     id="polygon22"
     style="fill:#f4f4f4;fill-opacity:1" /><linearGradient
     x1="64.721703"
     y1="323.2861"
     x2="66.305199"
     y2="354.16061"
     id="SVGID_2_"
     gradientUnits="userSpaceOnUse"
     gradientTransform="translate(-25.475,-234.654)"><stop
       id="stop25"
       style="stop-color:#9d949a;stop-opacity:1"
       offset="0" /><stop
       id="stop27"
       style="stop-color:#efefef;stop-opacity:1"
       offset="0.23" /><stop
       id="stop29"
       style="stop-color:#ffffff;stop-opacity:1"
       offset="0.46000001" /><stop
       id="stop31"
       style="stop-color:#3d160d;stop-opacity:1"
       offset="0.5" /><stop
       id="stop33"
       style="stop-color:#c57f3d;stop-opacity:1"
       offset="0.56" /><stop
       id="stop35"
       style="stop-color:#edd999;stop-opacity:1"
       offset="0.63" /><stop
       id="stop37"
       style="stop-color:#f1ece0;stop-opacity:1"
       offset="0.76999998" /><stop
       id="stop39"
       style="stop-color:#ffffff;stop-opacity:1"
       offset="0.99000001" /></linearGradient><linearGradient
     x1="729.06842"
     y1="324.875"
     x2="729.06842"
     y2="351.79291"
     id="SVGID_3_"
     gradientUnits="userSpaceOnUse"
     gradientTransform="translate(-25.475,-234.654)"><stop
       id="stop44"
       style="stop-color:#9d949a;stop-opacity:1"
       offset="0" /><stop
       id="stop46"
       style="stop-color:#efefef;stop-opacity:1"
       offset="0.23" /><stop
       id="stop48"
       style="stop-color:#ffffff;stop-opacity:1"
       offset="0.46000001" /><stop
       id="stop50"
       style="stop-color:#3d160d;stop-opacity:1"
       offset="0.5" /><stop
       id="stop52"
       style="stop-color:#c57f3d;stop-opacity:1"
       offset="0.56" /><stop
       id="stop54"
       style="stop-color:#edd999;stop-opacity:1"
       offset="0.63" /><stop
       id="stop56"
       style="stop-color:#f1ece0;stop-opacity:1"
       offset="0.76999998" /><stop
       id="stop58"
       style="stop-color:#ffffff;stop-opacity:1"
       offset="0.99000001" /></linearGradient><linearGradient
     x1="397.31049"
     y1="234.6543"
     x2="397.31049"
     y2="294.69781"
     id="SVGID_5_"
     gradientUnits="userSpaceOnUse"
     gradientTransform="translate(-25.475,-234.654)"><stop
       id="stop88"
       style="stop-color:#9d949a;stop-opacity:1"
       offset="0" /><stop
       id="stop90"
       style="stop-color:#efefef;stop-opacity:1"
       offset="0.23" /><stop
       id="stop92"
       style="stop-color:#ffffff;stop-opacity:1"
       offset="0.46000001" /><stop
       id="stop94"
       style="stop-color:#3d160d;stop-opacity:1"
       offset="0.5" /><stop
       id="stop96"
       style="stop-color:#c57f3d;stop-opacity:1"
       offset="0.56" /><stop
       id="stop98"
       style="stop-color:#edd999;stop-opacity:1"
       offset="0.63" /><stop
       id="stop100"
       style="stop-color:#f1ece0;stop-opacity:1"
       offset="0.76999998" /><stop
       id="stop102"
       style="stop-color:#ffffff;stop-opacity:1"
       offset="0.99000001" /></linearGradient><linearGradient
     x1="142.64751"
     y1="317.75101"
     x2="142.64751"
     y2="358.12701"
     id="SVGID_6_"
     gradientUnits="userSpaceOnUse"
     gradientTransform="translate(-25.475,-234.654)"><stop
       id="stop107"
       style="stop-color:#9d949a;stop-opacity:1"
       offset="0" /><stop
       id="stop109"
       style="stop-color:#efefef;stop-opacity:1"
       offset="0.23" /><stop
       id="stop111"
       style="stop-color:#ffffff;stop-opacity:1"
       offset="0.46000001" /><stop
       id="stop113"
       style="stop-color:#3d160d;stop-opacity:1"
       offset="0.5" /><stop
       id="stop115"
       style="stop-color:#c57f3d;stop-opacity:1"
       offset="0.56" /><stop
       id="stop117"
       style="stop-color:#edd999;stop-opacity:1"
       offset="0.63" /><stop
       id="stop119"
       style="stop-color:#f1ece0;stop-opacity:1"
       offset="0.76999998" /><stop
       id="stop121"
       style="stop-color:#ffffff;stop-opacity:1"
       offset="0.99000001" /></linearGradient><path
     d="m 65.27753,121.26837 0,-0.56657 c 0,-4.10274 -3.291792,-7.39671 -7.339983,-7.39671 l -57.08487864,0 0,7.96328 64.42486164,0 z m -37.623596,2.7245 11.308898,0 0,18.21831 -11.308898,0 0,-18.21831 z m 25.991774,0 11.30817,0 0,18.21831 -11.30817,0 0,-18.21831 z m -53.11523668,0 11.30817068,0 0,18.21831 -11.30817068,0 0,-18.21831 z"
     id="path123"
     style="fill:#f4f4f4;fill-opacity:1"
     inkscape:connector-curvature="0" /><linearGradient
     x1="219.3149"
     y1="319.33401"
     x2="219.3149"
     y2="358.91629"
     id="SVGID_7_"
     gradientUnits="userSpaceOnUse"
     gradientTransform="translate(-25.475,-234.654)"><stop
       id="stop126"
       style="stop-color:#9d949a;stop-opacity:1"
       offset="0" /><stop
       id="stop128"
       style="stop-color:#efefef;stop-opacity:1"
       offset="0.23" /><stop
       id="stop130"
       style="stop-color:#ffffff;stop-opacity:1"
       offset="0.46000001" /><stop
       id="stop132"
       style="stop-color:#3d160d;stop-opacity:1"
       offset="0.5" /><stop
       id="stop134"
       style="stop-color:#c57f3d;stop-opacity:1"
       offset="0.56" /><stop
       id="stop136"
       style="stop-color:#edd999;stop-opacity:1"
       offset="0.63" /><stop
       id="stop138"
       style="stop-color:#f1ece0;stop-opacity:1"
       offset="0.76999998" /><stop
       id="stop140"
       style="stop-color:#ffffff;stop-opacity:1"
       offset="0.99000001" /></linearGradient><path
     d="m 67.599094,113.76547 41.834706,0 0,7.96111 -41.834706,0 0,-7.96111 z m 0.323652,21.10573 c 0,4.07437 3.293246,7.39453 7.342164,7.39453 l 34.46563,0 0,-7.9611 -27.53003,0 c -1.645896,0 -2.995778,-1.43207 -2.995778,-3.18561 l 0,-0.24219 29.391208,0 0,-5.66791 -29.391208,0 0,-1.16151 -11.282714,0 0,10.82379 z"
     id="path142"
     style="fill:#f4f4f4;fill-opacity:1"
     inkscape:connector-curvature="0" /><linearGradient
     x1="284.55811"
     y1="318.54099"
     x2="284.55811"
     y2="357.33301"
     id="SVGID_8_"
     gradientUnits="userSpaceOnUse"
     gradientTransform="translate(-25.475,-234.654)"><stop
       id="stop145"
       style="stop-color:#9d949a;stop-opacity:1"
       offset="0" /><stop
       id="stop147"
       style="stop-color:#efefef;stop-opacity:1"
       offset="0.23" /><stop
       id="stop149"
       style="stop-color:#ffffff;stop-opacity:1"
       offset="0.46000001" /><stop
       id="stop151"
       style="stop-color:#3d160d;stop-opacity:1"
       offset="0.5" /><stop
       id="stop153"
       style="stop-color:#c57f3d;stop-opacity:1"
       offset="0.56" /><stop
       id="stop155"
       style="stop-color:#edd999;stop-opacity:1"
       offset="0.63" /><stop
       id="stop157"
       style="stop-color:#f1ece0;stop-opacity:1"
       offset="0.76999998" /><stop
       id="stop159"
       style="stop-color:#ffffff;stop-opacity:1"
       offset="0.99000001" /></linearGradient><path
     d="m 112.37575,121.26837 0,-0.56657 c 0,-4.10274 3.2918,-7.39671 7.34071,-7.39671 l 39.00112,0 0,7.96328 -46.34183,0 z m 0,13.60283 c 0,4.07437 3.2918,7.39453 7.34071,7.39453 l 32.79283,0 c 4.04819,0 7.34143,-3.32016 7.34143,-7.39453 0,0 0.18838,-3.58999 -1.42915,-6.6134 -1.83645,-3.48162 -6.18211,-3.04888 -6.18211,-3.04888 l -19.51365,0 0,5.66791 15.81602,0 0,0.24219 c 0,1.75354 -1.32298,3.18561 -2.9696,3.18561 l -18.91944,0 c -1.64735,0 -2.96959,-1.43207 -2.96959,-3.18561 l 0,-0.24219 0,-6.82942 -11.30817,0 0,10.82379 z"
     id="path161"
     style="fill:#f4f4f4;fill-opacity:1"
     inkscape:connector-curvature="0" /><linearGradient
     x1="352.5864"
     y1="319.05371"
     x2="353.71951"
     y2="359.59521"
     id="SVGID_9_"
     gradientUnits="userSpaceOnUse"
     gradientTransform="translate(-25.475,-234.654)"><stop
       id="stop164"
       style="stop-color:#9d949a;stop-opacity:1"
       offset="0" /><stop
       id="stop166"
       style="stop-color:#efefef;stop-opacity:1"
       offset="0.23" /><stop
       id="stop168"
       style="stop-color:#ffffff;stop-opacity:1"
       offset="0.46000001" /><stop
       id="stop170"
       style="stop-color:#3d160d;stop-opacity:1"
       offset="0.5" /><stop
       id="stop172"
       style="stop-color:#c57f3d;stop-opacity:1"
       offset="0.56" /><stop
       id="stop174"
       style="stop-color:#edd999;stop-opacity:1"
       offset="0.63" /><stop
       id="stop176"
       style="stop-color:#f1ece0;stop-opacity:1"
       offset="0.76999998" /><stop
       id="stop178"
       style="stop-color:#ffffff;stop-opacity:1"
       offset="0.99000001" /></linearGradient><path
     d="m 209.97091,121.26837 0,-0.56657 c 0,-4.10274 -3.29252,-7.39671 -7.36835,-7.39671 l -32.76518,0 c -4.07583,0 -7.36762,3.29397 -7.36762,7.39671 l 0,0.56657 47.50115,0 z m -47.79935,2.7245 11.3089,0 0,18.21831 -11.3089,0 0,-18.21831 z m 37.6236,0.0545 0,5.69555 -21.48393,0 0,5.69481 21.48393,0 0,6.82796 10.33721,0 0,-18.21832 -10.33721,0 z"
     id="path180"
     style="fill:#f4f4f4;fill-opacity:1"
     inkscape:connector-curvature="0" /><linearGradient
     x1="441.2471"
     y1="318.54099"
     x2="441.2471"
     y2="358.1254"
     id="SVGID_10_"
     gradientUnits="userSpaceOnUse"
     gradientTransform="translate(-25.475,-234.654)"><stop
       id="stop183"
       style="stop-color:#9d949a;stop-opacity:1"
       offset="0" /><stop
       id="stop185"
       style="stop-color:#efefef;stop-opacity:1"
       offset="0.23" /><stop
       id="stop187"
       style="stop-color:#ffffff;stop-opacity:1"
       offset="0.46000001" /><stop
       id="stop189"
       style="stop-color:#3d160d;stop-opacity:1"
       offset="0.5" /><stop
       id="stop191"
       style="stop-color:#c57f3d;stop-opacity:1"
       offset="0.56" /><stop
       id="stop193"
       style="stop-color:#edd999;stop-opacity:1"
       offset="0.63" /><stop
       id="stop195"
       style="stop-color:#f1ece0;stop-opacity:1"
       offset="0.76999998" /><stop
       id="stop197"
       style="stop-color:#ffffff;stop-opacity:1"
       offset="0.99000001" /></linearGradient><path
     d="m 273.2619,121.26837 0,-0.56657 c 0,-4.10274 -3.29252,-7.39671 -7.36762,-7.39671 l -39.00112,0 0,7.96328 46.36874,0 z m -46.36874,2.77904 10.17503,0 0,18.21832 -10.17503,0 0,-18.21832 z m 46.36874,10.82379 c 0,4.07437 -3.29252,7.39453 -7.36762,7.39453 l -26.55835,0 0,-7.9611 19.62202,0 c 1.64517,0 2.99505,-1.43207 2.99505,-3.18561 l 0,-7.07161 11.30817,0 0,10.82379 z"
     id="path199"
     style="fill:#f4f4f4;fill-opacity:1"
     inkscape:connector-curvature="0" /><linearGradient
     x1="512.36621"
     y1="318.45609"
     x2="512.53497"
     y2="358.99841"
     id="SVGID_11_"
     gradientUnits="userSpaceOnUse"
     gradientTransform="translate(-25.475,-234.654)"><stop
       id="stop202"
       style="stop-color:#9d949a;stop-opacity:1"
       offset="0" /><stop
       id="stop204"
       style="stop-color:#efefef;stop-opacity:1"
       offset="0.23" /><stop
       id="stop206"
       style="stop-color:#ffffff;stop-opacity:1"
       offset="0.46000001" /><stop
       id="stop208"
       style="stop-color:#3d160d;stop-opacity:1"
       offset="0.5" /><stop
       id="stop210"
       style="stop-color:#c57f3d;stop-opacity:1"
       offset="0.56" /><stop
       id="stop212"
       style="stop-color:#edd999;stop-opacity:1"
       offset="0.63" /><stop
       id="stop214"
       style="stop-color:#f1ece0;stop-opacity:1"
       offset="0.76999998" /><stop
       id="stop216"
       style="stop-color:#ffffff;stop-opacity:1"
       offset="0.99000001" /></linearGradient><path
     d="m 323.35518,121.26837 0,-0.56657 c 0,-4.10274 -3.29252,-7.39671 -7.34144,-7.39671 l -31.65895,0 c -4.04819,0 -7.34071,3.29397 -7.34071,7.39671 l 0,0.56657 46.3411,0 z m -46.3411,2.77904 10.1743,0 0,18.21832 -10.1743,0 0,-18.21832 z m 46.50401,5.1297 0,-5.1297 -11.28271,0 0,1.40298 c 0,1.72881 -1.34916,3.15942 -2.99578,3.15942 l -19.62129,0 0,7.96111 19.86421,0 4.91223,5.58862 12.44277,0 -6.20829,-7.09924 c 1.75572,-1.34988 2.88886,-3.48235 2.88886,-5.88319 z"
     id="path218"
     style="fill:#f4f4f4;fill-opacity:1"
     inkscape:connector-curvature="0" /><linearGradient
     x1="554.23242"
     y1="320.11819"
     x2="555.02393"
     y2="358.11591"
     id="SVGID_12_"
     gradientUnits="userSpaceOnUse"
     gradientTransform="translate(-25.475,-234.654)"><stop
       id="stop221"
       style="stop-color:#9d949a;stop-opacity:1"
       offset="0" /><stop
       id="stop223"
       style="stop-color:#efefef;stop-opacity:1"
       offset="0.23" /><stop
       id="stop225"
       style="stop-color:#ffffff;stop-opacity:1"
       offset="0.46000001" /><stop
       id="stop227"
       style="stop-color:#3d160d;stop-opacity:1"
       offset="0.5" /><stop
       id="stop229"
       style="stop-color:#c57f3d;stop-opacity:1"
       offset="0.56" /><stop
       id="stop231"
       style="stop-color:#edd999;stop-opacity:1"
       offset="0.63" /><stop
       id="stop233"
       style="stop-color:#f1ece0;stop-opacity:1"
       offset="0.76999998" /><stop
       id="stop235"
       style="stop-color:#ffffff;stop-opacity:1"
       offset="0.99000001" /></linearGradient><path
     d="m 327.29645,124.04741 10.17503,0 0,18.21832 -10.17503,0 0,-18.21832 z m -0.32438,-10.28194 10.82379,0 0,7.96111 -10.82379,0 0,-7.96111 z"
     id="path237"
     style="fill:#f4f4f4;fill-opacity:1"
     inkscape:connector-curvature="0" /><linearGradient
     x1="665.7959"
     y1="319.33401"
     x2="665.7959"
     y2="358.12469"
     id="SVGID_13_"
     gradientUnits="userSpaceOnUse"
     gradientTransform="translate(-25.475,-234.654)"><stop
       id="stop240"
       style="stop-color:#9d949a;stop-opacity:1"
       offset="0" /><stop
       id="stop242"
       style="stop-color:#efefef;stop-opacity:1"
       offset="0.23" /><stop
       id="stop244"
       style="stop-color:#ffffff;stop-opacity:1"
       offset="0.46000001" /><stop
       id="stop246"
       style="stop-color:#3d160d;stop-opacity:1"
       offset="0.5" /><stop
       id="stop248"
       style="stop-color:#c57f3d;stop-opacity:1"
       offset="0.56" /><stop
       id="stop250"
       style="stop-color:#edd999;stop-opacity:1"
       offset="0.63" /><stop
       id="stop252"
       style="stop-color:#f1ece0;stop-opacity:1"
       offset="0.76999998" /><stop
       id="stop254"
       style="stop-color:#ffffff;stop-opacity:1"
       offset="0.99000001" /></linearGradient><path
     d="m 392.31407,113.76547 41.8347,0 0,7.96111 -41.8347,0 0,-7.96111 z m 0.32511,21.10573 c 0,4.07437 3.29324,7.39453 7.34216,7.39453 l 34.49181,0 0,-7.9611 -27.55694,0 c -1.64589,0 -2.96886,-1.43207 -2.96886,-3.18561 l 0,-0.24219 29.39193,0 0,-5.66791 -29.39193,0 0,-1.16151 -11.30817,0 0,10.82379 z"
     id="path256"
     style="fill:#f4f4f4;fill-opacity:1"
     inkscape:connector-curvature="0" /><path
     d="m 614.49841,91.53381 -16.69414,50.71346 8.24439,0 16.76508,-48.980943 c 0.55448,-2.219787 2.42515,-3.879493 4.574,-3.879493 2.14324,0 4.01391,1.659706 4.56839,3.879493 l 14.20365,41.431053 -22.23708,0 0,7.54989 33.04477,0 -16.69601,-50.71346 c -1.59436,-5.610143 -6.79004,-9.702466 -12.88372,-9.702466 -6.09928,0 -11.29497,4.092323 -12.88933,9.702466 z m 9.76781,31.45041 2.91055,-8.58791 3.04871,8.58791 -5.95926,0 z m -1.1743,-24.798516 -14.96723,44.061566 9.63152,0 6.16836,-18.29224 0,8.66071 19.3956,0 -11.50033,-34.428169 c -0.55448,-1.87067 -2.28699,-7.413604 -4.36303,-7.413604 -2.07976,-0.0019 -3.81415,5.541067 -4.36489,7.411737 z m -52.79509,-6.72097 28.89084,0 0,-8.24439 -29.58347,0 c -7.96622,0 -14.47809,6.444663 -14.47809,14.41088 l 0,30.205166 c 0,7.899 6.51374,14.41088 14.47809,14.41088 l 29.58347,0 0,-38.44955 -23.41698,0 0,7.54989 15.17259,0 0,22.65527 -20.64645,0 c -3.81041,0 -6.92633,-3.12152 -6.92633,-6.85913 l 0,-28.819893 c 0,-3.81415 3.11592,-6.859123 6.92633,-6.859123 z m 5.47386,21.960776 0,8.24439 4.85403,0 0,2.01255 -4.85403,0 c -1.10896,0 -2.07417,-0.90173 -2.07417,-2.01255 l 0,-17.87032 c 0,-1.10896 0.96708,-2.07976 2.07417,-2.07976 l 23.41698,0 0,-8.177186 -26.88015,0 c -3.73947,0 -6.85912,3.05244 -6.85912,6.860996 l 0,24.66409 c 0,3.81042 3.11965,6.85539 6.85912,6.85539 l 16.55973,0 0,-18.4976 -13.09656,0 z m -52.99858,-21.960776 28.95804,0 0,-8.24439 -29.58347,0 c -8.03529,0 -14.47995,6.444663 -14.47995,14.41088 l 0,29.859776 c 0,7.96622 6.44466,14.41088 14.47995,14.41088 l 29.58347,0 0,-8.24812 -28.95804,0 c -3.74134,0 -6.86099,-3.04497 -6.86099,-6.85539 l 0,-28.472646 c 0,-3.816017 3.11965,-6.86099 6.86099,-6.86099 z m 22.72434,19.882876 0,-7.54989 -19.25931,0 c 0,-1.10896 0.89986,-2.07977 2.07603,-2.07977 l 23.41698,0 0,-8.177183 -26.88014,0 c -3.80855,0 -6.85726,3.05244 -6.85726,6.860993 l 0,10.94585 27.5037,0 z m 0,2.77053 0,7.54989 -19.25931,0 c 0,1.10896 0.89986,2.01256 2.07603,2.01256 l 23.41698,0 0,8.24252 -26.88014,0 c -3.80855,0 -6.85726,-3.04497 -6.85726,-6.85539 l 0,-10.94771 27.5037,0 z m -70.66539,10.25508 -17.39051,0 0,7.54802 26.46568,0 0.34912,0 c 4.98658,-0.20536 8.93702,-4.22301 8.93702,-9.28054 0,-5.05939 -4.15767,-9.21706 -9.28427,-9.21706 l -10.39137,0 c -4.22487,-1.59436 -7.82806,-5.75203 -7.82806,-10.66954 0,-6.233703 5.75016,-11.291233 12.05667,-11.291233 l 25.77119,0 0,-8.24439 -26.8148,0 c -10.67141,0 -19.26305,8.587906 -19.26305,19.190243 0,10.59673 9.28427,19.25744 19.95381,19.25744 l 0,-0.13815 0.0709,0.13815 6.09554,0 c 0.76171,0 1.38713,0.55448 1.38713,1.31619 0,0.76545 -0.62542,1.389 -1.38713,1.389 l -8.72792,0 z m 11.35843,-23.27696 17.31957,0 0,-7.555493 -26.46569,0 -0.34351,0 c -4.99032,0.14002 -8.94076,4.22861 -8.94076,9.215203 0,5.12847 4.1558,9.28614 9.28241,9.28614 l 10.46231,0 c 4.22861,1.59436 7.76085,5.74643 7.76085,10.59859 0,6.30465 -5.75203,11.36218 -12.05481,11.36218 l -25.77492,0 0,8.24439 26.81294,0 c 10.66767,0 19.25745,-8.66072 19.25745,-19.26305 0,-10.5986 -9.28241,-19.1865 -19.95382,-19.1865 l 0,0.13442 0,-0.13442 -6.16649,0 c -0.76171,0 -1.3834,-0.62729 -1.3834,-1.38714 0,-0.76171 0.62169,-1.31619 1.3834,-1.31619 l 8.80447,0 z"
     id="path258"
     style="fill:#f4f4f4;fill-opacity:1;stroke:#ffffff;stroke-width:0;stroke-linecap:round;stroke-linejoin:round;stroke-miterlimit:4;stroke-dasharray:none"
     inkscape:connector-curvature="0" /></svg>