<?xml version="1.0" encoding="UTF-8" standalone="no"?>
<!-- Created with Inkscape (http://www.inkscape.org/) -->

<svg
   xmlns:dc="http://purl.org/dc/elements/1.1/"
   xmlns:cc="http://creativecommons.org/ns#"
   xmlns:rdf="http://www.w3.org/1999/02/22-rdf-syntax-ns#"
   xmlns:svg="http://www.w3.org/2000/svg"
   xmlns="http://www.w3.org/2000/svg"
   xmlns:sodipodi="http://sodipodi.sourceforge.net/DTD/sodipodi-0.dtd"
   xmlns:inkscape="http://www.inkscape.org/namespaces/inkscape"
   version="1.0"
   width="623.88617"
   height="281.82666"
   id="svg8071"
   sodipodi:version="0.32"
   inkscape:version="0.91 r13725"
   sodipodi:docname="logo_megadriveJP.svg"
   inkscape:output_extension="org.inkscape.output.svg.inkscape">
  <metadata
     id="metadata7044">
    <rdf:RDF>
      <cc:Work
         rdf:about="">
        <dc:format>image/svg+xml</dc:format>
        <dc:type
           rdf:resource="http://purl.org/dc/dcmitype/StillImage" />
        <dc:title></dc:title>
      </cc:Work>
    </rdf:RDF>
  </metadata>
  <sodipodi:namedview
     inkscape:window-height="975"
     inkscape:window-width="1680"
     inkscape:pageshadow="2"
     inkscape:pageopacity="0.0"
     guidetolerance="10.0"
     gridtolerance="10.0"
     objecttolerance="10.0"
     borderopacity="1.0"
     bordercolor="#666666"
     pagecolor="#ffffff"
     id="base"
     showgrid="false"
     inkscape:zoom="0.87195393"
     inkscape:cx="184.06935"
     inkscape:cy="140.91333"
     inkscape:window-x="1671"
     inkscape:window-y="-9"
     inkscape:current-layer="svg8071"
     inkscape:window-maximized="1" />
  <defs
     id="defs8342">
    <inkscape:perspective
       sodipodi:type="inkscape:persp3d"
       inkscape:vp_x="0 : 140.91333 : 1"
       inkscape:vp_y="0 : 1000 : 0"
       inkscape:vp_z="623.88617 : 140.91333 : 1"
       inkscape:persp3d-origin="311.94308 : 93.94222 : 1"
       id="perspective7046" />
  </defs>
  <path
     d="M 55.55755,-3.8191672e-14 C 55.55755,-3.8191672e-14 55.55755,281.80805 55.55755,281.80805 C 55.55755,281.80805 565.10471,281.80805 565.10471,281.80805 C 565.10471,281.80805 565.10471,-3.8191672e-14 565.10471,-3.8191672e-14 C 565.10471,-3.8191672e-14 55.55755,-3.8191672e-14 55.55755,-3.8191672e-14"
     id="path8073"
     style="fill:#000000;fill-opacity:1;stroke:none" />
  <path
     d=""
     id="path8075"
     style="fill:#000000;fill-opacity:1;fill-rule:nonzero;stroke:none" />
  <path
     d=""
     id="path8079"
     style="fill:#ff0101;fill-opacity:1;fill-rule:nonzero;stroke:none" />
  <path
     d=""
     id="path8097"
     style="fill:#00be00;fill-opacity:1;fill-rule:nonzero;stroke:none" />
  <path
     d=""
     id="path8101"
     style="fill:#ffffff;fill-opacity:1;fill-rule:nonzero;stroke:none" />
  <path
     d=""
     id="path8105"
     style="fill:#ffffff;fill-opacity:1;fill-rule:nonzero;stroke:none" />
  <path
     d=""
     id="path8109"
     style="fill:#ffffff;fill-opacity:1;fill-rule:nonzero;stroke:none" />
  <path
     d=""
     id="path8113"
     style="fill:#ffffff;fill-opacity:1;fill-rule:nonzero;stroke:none" />
  <path
     d=""
     id="path8117"
     style="fill:#ffffff;fill-opacity:1;fill-rule:nonzero;stroke:none" />
  <path
     d=""
     id="path8123"
     style="fill:#ffffff;fill-opacity:1;fill-rule:nonzero;stroke:none" />
  <path
     d=""
     id="path8129"
     style="fill:#ffffff;fill-opacity:1;fill-rule:nonzero;stroke:none" />
  <path
     d=""
     id="path8135"
     style="fill:#ffffff;fill-opacity:1;fill-rule:nonzero;stroke:none" />
  <path
     d=""
     id="path8139"
     style="fill:#ffffff;fill-opacity:1;fill-rule:nonzero;stroke:none" />
  <path
     d=""
     id="path8145"
     style="fill:#ffffff;fill-opacity:1;fill-rule:nonzero;stroke:none" />
  <path
     d=""
     id="path8149"
     style="fill:#ffffff;fill-opacity:1;fill-rule:nonzero;stroke:none" />
  <path
     d=""
     id="path8153"
     style="fill:#ffffff;fill-opacity:1;fill-rule:nonzero;stroke:none" />
  <path
     d=""
     id="path8157"
     style="fill:#ffffff;fill-opacity:1;fill-rule:nonzero;stroke:none" />
  <path
     d=""
     id="path8161"
     style="fill:#ffffff;fill-opacity:1;fill-rule:nonzero;stroke:none" />
  <path
     d=""
     id="path8165"
     style="fill:#ffffff;fill-opacity:1;fill-rule:nonzero;stroke:none" />
  <path
     d=""
     id="path8169"
     style="fill:#ffffff;fill-opacity:1;fill-rule:nonzero;stroke:none" />
  <path
     d=""
     id="path8175"
     style="fill:#ffffff;fill-opacity:1;fill-rule:nonzero;stroke:none" />
  <path
     d=""
     id="path8183"
     style="fill:#ffffff;fill-opacity:1;fill-rule:nonzero;stroke:none" />
  <path
     d=""
     id="path8187"
     style="fill:#ffffff;fill-opacity:1;fill-rule:nonzero;stroke:none" />
  <path
     d=""
     id="path8191"
     style="fill:#ffffff;fill-opacity:1;fill-rule:nonzero;stroke:none" />
  <path
     d=""
     id="path8195"
     style="fill:#ffffff;fill-opacity:1;fill-rule:nonzero;stroke:none" />
  <path
     d=""
     id="path8199"
     style="fill:#ffffff;fill-opacity:1;fill-rule:nonzero;stroke:none" />
  <path
     d=""
     id="path8203"
     style="fill:#ffffff;fill-opacity:1;fill-rule:nonzero;stroke:none" />
  <path
     d=""
     id="path8207"
     style="fill:#ffffff;fill-opacity:1;fill-rule:nonzero;stroke:none" />
  <path
     d=""
     id="path8213"
     style="fill:#ffffff;fill-opacity:1;fill-rule:nonzero;stroke:none" />
  <path
     d=""
     id="path8217"
     style="fill:#ffffff;fill-opacity:1;fill-rule:nonzero;stroke:none" />
  <path
     d=""
     id="path8221"
     style="fill:#ffffff;fill-opacity:1;fill-rule:nonzero;stroke:none" />
  <path
     d=""
     id="path8227"
     style="fill:#ffffff;fill-opacity:1;fill-rule:nonzero;stroke:none" />
  <path
     d=""
     id="path8231"
     style="fill:#ffffff;fill-opacity:1;fill-rule:nonzero;stroke:none" />
  <path
     d=""
     id="path8235"
     style="fill:#ffffff;fill-opacity:1;fill-rule:nonzero;stroke:none" />
  <path
     d=""
     id="path8239"
     style="fill:#ffffff;fill-opacity:1;fill-rule:nonzero;stroke:none" />
  <path
     d=""
     id="path8243"
     style="fill:#ffffff;fill-opacity:1;fill-rule:nonzero;stroke:none" />
  <path
     d=""
     id="path8247"
     style="fill:#ffffff;fill-opacity:1;fill-rule:nonzero;stroke:none" />
  <path
     d=""
     id="path8251"
     style="fill:#ffffff;fill-opacity:1;fill-rule:nonzero;stroke:none" />
  <path
     d=""
     id="path8255"
     style="fill:#ffffff;fill-opacity:1;fill-rule:nonzero;stroke:none" />
  <path
     d=""
     id="path8259"
     style="fill:#ffffff;fill-opacity:1;fill-rule:nonzero;stroke:none" />
  <path
     d=""
     id="path8263"
     style="fill:#ffffff;fill-opacity:1;fill-rule:nonzero;stroke:none" />
  <path
     d=""
     id="path8267"
     style="fill:#ffffff;fill-opacity:1;fill-rule:nonzero;stroke:none" />
  <path
     d=""
     id="path8271"
     style="fill:#ffffff;fill-opacity:1;fill-rule:nonzero;stroke:none" />
  <path
     d=""
     id="path8275"
     style="fill:#ffffff;fill-opacity:1;fill-rule:nonzero;stroke:none" />
  <path
     d=""
     id="path8279"
     style="fill:#ffffff;fill-opacity:1;fill-rule:nonzero;stroke:none" />
  <path
     d=""
     id="path8283"
     style="fill:#ffffff;fill-opacity:1;fill-rule:nonzero;stroke:none" />
  <path
     d=""
     id="path8289"
     style="fill:#ffffff;fill-opacity:1;fill-rule:nonzero;stroke:none" />
  <path
     d=""
     id="path8293"
     style="fill:#ffffff;fill-opacity:1;fill-rule:nonzero;stroke:none" />
  <path
     d=""
     id="path8297"
     style="fill:#ffffff;fill-opacity:1;fill-rule:nonzero;stroke:none" />
  <path
     d=""
     id="path8301"
     style="fill:#ffffff;fill-opacity:1;fill-rule:nonzero;stroke:none" />
  <path
     d=""
     id="path8307"
     style="fill:#ffffff;fill-opacity:1;fill-rule:nonzero;stroke:none" />
  <path
     d=""
     id="path8311"
     style="fill:#ffffff;fill-opacity:1;fill-rule:nonzero;stroke:none" />
  <path
     d=""
     id="path8319"
     style="fill:#ffffff;fill-opacity:1;fill-rule:nonzero;stroke:none" />
  <path
     d=""
     id="path8323"
     style="fill:#ffffff;fill-opacity:1;fill-rule:nonzero;stroke:none" />
  <path
     d=""
     id="path8329"
     style="fill:#ffffff;fill-opacity:1;fill-rule:nonzero;stroke:none" />
  <path
     d=""
     id="path8333"
     style="fill:#ffffff;fill-opacity:1;fill-rule:nonzero;stroke:none" />
  <path
     transform="matrix(0,-1.0016644,0.9983384,0,0,0)"
     style="font-size:69.46884918px;font-style:normal;font-weight:normal;fill:#000000;fill-opacity:1;font-family:NiseMegaDrive"
     d="M -281.13895,51.558914 L -252.64586,4.0704431 C -251.28908,1.3568663 -249.93227,5.4241121e-05 -248.57542,2.682209e-06 L -228.22322,2.682209e-06 L -228.22322,6.3091853 L -226.86641,4.0704431 C -225.50965,1.3568663 -224.15284,5.4241121e-05 -222.79597,2.682209e-06 L -198.37333,2.682209e-06 L -198.37333,51.558914 L -214.65509,51.558914 L -214.65509,10.85451 L -239.07773,51.558914 L -255.35949,51.558914 L -230.93685,10.85451 L -239.07773,10.85451 C -239.98231,10.854551 -240.88685,11.306822 -241.79136,12.211324 L -264.85719,51.558914 L -281.13895,51.558914 z M -176.66431,31.206712 L -176.66431,40.704406 L -138.67353,40.704406 L -138.67353,51.558914 L -192.94607,51.558914 L -192.94607,17.638578 C -192.94607,16.73407 -192.71993,15.829529 -192.26766,14.924951 L -184.80519,1.3568161 C -184.35292,0.45232494 -183.44838,5.4241121e-05 -182.09156,2.682209e-06 L -138.67353,2.682209e-06 L -138.67353,10.85451 L -171.23705,10.85451 C -172.14162,10.854551 -172.82002,11.306822 -173.27227,12.211324 L -176.66431,20.352205 L -138.67353,20.352205 L -144.10078,31.206712 L -176.66431,31.206712 z M -116.96452,40.704406 L -89.828246,40.704406 L -89.828246,31.206712 L -100.68275,31.206712 L -95.2555,20.352205 L -73.546485,20.352205 L -73.546485,48.845287 C -73.546544,50.654373 -74.451086,51.558914 -76.260112,51.558914 L -130.53265,51.558914 C -132.34174,51.558914 -133.24628,50.654373 -133.24628,48.845287 L -133.24628,17.638578 C -133.24628,16.73407 -133.02014,15.829529 -132.56787,14.924951 L -125.1054,1.3568161 C -124.65313,0.45232494 -123.74859,5.4241121e-05 -122.39177,2.682209e-06 L -76.260112,2.682209e-06 L -76.260112,10.85451 L -111.53726,10.85451 C -112.44182,10.854551 -113.12023,11.306822 -113.57248,12.211324 L -116.96452,20.352205 L -116.96452,40.704406 z M -0.27855915,51.558914 L -19.273948,51.558914 L -26.736422,40.704406 L -46.410217,40.704406 L -51.837471,30.867509 L -51.837471,51.558914 L -68.119232,51.558914 L -68.119232,2.682209e-06 L -36.912523,2.682209e-06 C -35.555742,5.4241121e-05 -34.19893,1.3568663 -32.842082,4.0704431 L -0.27855915,51.558914 z M -34.266736,29.849899 L -46.410217,12.211324 C -47.31478,11.306822 -48.219321,10.854551 -49.123844,10.85451 L -51.837471,10.85451 L -51.837471,29.849899 L -34.266736,29.849899 z"
     id="text8337" />
  <path
     transform="matrix(0,0.9983384,-1.0016644,0,0,0)"
     style="font-size:72.2677002px;font-style:normal;font-weight:normal;fill:#000000;fill-opacity:1;font-family:NiseMegaDrive"
     d="M 16.937753,-580.50515 L 36.698452,-580.50515 C 37.6394,-580.50513 38.345139,-580.92858 38.81567,-581.77548 L 44.814454,-594.61993 L 45.167323,-596.03141 L 44.814454,-597.44289 L 38.81567,-610.14619 C 38.345139,-611.08714 37.6394,-611.55763 36.698452,-611.55767 L 16.937753,-611.55767 L 16.937753,-580.50515 z M 1.0751142e-05,-622.8495 L 47.284541,-622.8495 C 48.695971,-622.84945 49.872202,-621.90846 50.813237,-620.02654 L 61.752196,-597.44289 L 62.105066,-596.03141 L 61.752196,-594.61993 L 50.813237,-572.03627 C 49.872202,-570.1543 48.695971,-569.21332 47.284541,-569.21332 L 1.0751142e-05,-569.21332 L 1.0751142e-05,-622.8495 z M 67.75098,-622.8495 L 112.91829,-622.8495 C 114.32972,-622.84945 115.50596,-621.90846 116.44699,-620.02654 L 123.85725,-604.50028 L 124.21012,-603.0888 L 123.85725,-601.67732 L 112.91829,-588.97402 L 124.21012,-569.21332 L 107.27238,-569.21332 L 91.040375,-596.03141 L 99.509246,-596.03141 C 100.4502,-596.03138 101.15594,-596.26663 101.62646,-596.73715 L 107.27238,-603.0888 L 104.44942,-610.14619 C 103.97889,-611.08714 103.27315,-611.55763 102.3322,-611.55767 L 84.688722,-611.55767 L 84.688722,-569.21332 L 67.75098,-569.21332 L 67.75098,-622.8495 z M 146.79377,-569.21332 L 129.85603,-569.21332 L 129.85603,-622.8495 L 146.79377,-622.8495 L 146.79377,-569.21332 z M 169.37743,-605.20602 L 186.31518,-580.50515 L 203.25292,-605.20602 L 203.25292,-622.8495 L 220.19066,-622.8495 L 220.19066,-603.0888 C 220.19059,-601.2068 219.95535,-599.79532 219.48492,-598.85437 L 200.42996,-569.21332 L 172.20039,-569.21332 L 153.14543,-598.85437 C 152.67494,-599.79532 152.43969,-601.2068 152.43969,-603.0888 L 152.43969,-622.8495 L 169.37743,-622.8495 L 169.37743,-605.20602 z M 242.77432,-590.3855 L 242.77432,-580.50515 L 282.29571,-580.50515 L 282.29571,-569.21332 L 225.83657,-569.21332 L 225.83657,-604.50028 C 225.83657,-605.44123 226.07182,-606.38222 226.54231,-607.32324 L 234.30544,-621.43802 C 234.77593,-622.37896 235.71691,-622.84945 237.1284,-622.8495 L 282.29571,-622.8495 L 282.29571,-611.55767 L 248.42023,-611.55767 C 247.47922,-611.55763 246.77348,-611.08714 246.30301,-610.14619 L 242.77432,-601.67732 L 282.29571,-601.67732 L 276.6498,-590.3855 L 242.77432,-590.3855 z"
     id="text8339" />
  <g
     transform="matrix(1.0365518,0,0,1.0365518,-80.535407,-221.01735)"
     id="g8899">
    <path
       d="M 143.99026,416.2351 C 143.99026,416.2351 280.79891,235.62401 280.79891,235.62401 C 280.79891,235.62401 280.79891,372.88845 280.79891,372.88845 C 280.79891,372.88845 381.60527,235.62401 381.60527,235.62401 C 381.60527,235.62401 381.60527,416.2351 381.60527,416.2351 C 381.60527,416.2351 143.99026,416.2351 143.99026,416.2351"
       id="path8077"
       style="fill:#ff0000;fill-opacity:1;stroke:none" />
    <path
       d="M 410.4071,418.64325 C 410.4071,418.64325 410.4071,235.62401 410.4071,235.62401 C 410.4071,235.62401 472.81103,235.62401 472.81103,235.62401 C 472.81103,235.62401 472.81103,418.64325 472.81103,418.64325 C 472.81103,418.64325 410.4071,418.64325 410.4071,418.64325"
       id="path8081"
       style="fill:#00be00;fill-opacity:1;stroke:none" />
    <path
       d="M 477.61136,418.64325 C 477.61136,418.64325 477.61136,356.03141 477.61136,356.03141 C 501.61286,356.03141 511.21347,346.39881 511.21347,329.54178 C 511.21347,329.54178 580.81785,329.54178 580.81785,329.54178 C 580.81785,387.33733 544.81559,418.64325 477.61136,418.64325"
       id="path8083"
       style="fill:#00be00;fill-opacity:1;stroke:none" />
    <path
       d="M 477.61136,235.89792 C 477.61136,235.89792 477.61136,298.50976 477.61136,298.50976 C 501.61288,298.50976 511.2135,308.14235 511.2135,324.99938 C 511.2135,324.99938 580.81788,324.99938 580.81788,324.99938 C 580.81788,267.20383 544.81562,235.89792 477.61136,235.89792"
       id="path8858"
       style="fill:#00be00;fill-opacity:1;stroke:none" />
    <path
       d="M 504.12141,224.66321 C 485.74136,290.39016 485.74136,290.39016 485.74136,290.39016 L 481.9818,303.83431"
       id="path8868"
       style="fill:none;fill-rule:evenodd;stroke:#000000;stroke-width:3.85894871;stroke-linecap:butt;stroke-linejoin:miter;stroke-miterlimit:4;stroke-dasharray:none;stroke-opacity:1" />
    <path
       d="M 531.67478,234.45161 C 496.96611,293.16601 496.96611,293.16601 496.96611,293.16601 L 489.86659,305.17578"
       id="path8870"
       style="fill:none;fill-rule:evenodd;stroke:#000000;stroke-width:3.85894871;stroke-linecap:butt;stroke-linejoin:miter;stroke-miterlimit:4;stroke-dasharray:none;stroke-opacity:1" />
    <path
       d="M 552.59264,254.4613 C 503.92071,302.16186 503.92071,302.16186 503.92071,302.16186 L 493.96506,311.9188"
       id="path8872"
       style="fill:none;fill-rule:evenodd;stroke:#000000;stroke-width:3.85894871;stroke-linecap:butt;stroke-linejoin:miter;stroke-miterlimit:4;stroke-dasharray:none;stroke-opacity:1" />
    <path
       d="M 573.97829,273.63061 C 514.65999,307.06662 514.65999,307.06662 514.65999,307.06662 L 502.52669,313.9058"
       id="path8874"
       style="fill:none;fill-rule:evenodd;stroke:#000000;stroke-width:3.85894871;stroke-linecap:butt;stroke-linejoin:miter;stroke-miterlimit:4;stroke-dasharray:none;stroke-opacity:1" />
    <path
       d="M 586.1792,300.33321 C 520.25697,317.22606 520.25697,317.22606 520.25697,317.22606 L 506.77286,320.6814"
       id="path8876"
       style="fill:none;fill-rule:evenodd;stroke:#000000;stroke-width:3.85894871;stroke-linecap:butt;stroke-linejoin:miter;stroke-miterlimit:4;stroke-dasharray:none;stroke-opacity:1" />
  </g>
  <path
     style="font-size:21.73495483px;font-style:normal;font-weight:normal;fill:#ffffff;fill-opacity:1;stroke:none;stroke-width:1px;stroke-linecap:butt;stroke-linejoin:miter;stroke-opacity:1;font-family:Bitstream Vera Sans"
     d="M 79.164973,243.91869 L 85.139963,228.36036 L 87.358032,228.36036 L 93.725695,243.91869 L 91.380273,243.91869 L 89.565489,239.20662 L 83.05986,239.20662 L 81.351204,243.91869 L 79.164973,243.91869 z M 83.654175,237.5298 L 88.928722,237.5298 L 87.304969,233.22101 C 86.809698,231.91212 86.441789,230.83669 86.20124,229.99473 C 86.003128,230.99234 85.723659,231.98287 85.362831,232.96631 L 83.654175,237.5298 z M 105.60139,228.36036 L 107.66026,228.36036 L 107.66026,237.34938 C 107.66025,238.913 107.48337,240.15469 107.12962,241.07446 C 106.77585,241.99424 106.13732,242.74244 105.21402,243.31906 C 104.2907,243.89569 103.07907,244.184 101.57915,244.18401 C 100.12165,244.184 98.929485,243.93284 98.002641,243.4305 C 97.075789,242.92816 96.414261,242.20119 96.018053,241.24957 C 95.621841,240.29797 95.423736,238.9979 95.423738,237.34938 L 95.423738,228.36036 L 97.482616,228.36036 L 97.482616,237.33877 C 97.482612,238.69013 97.608196,239.68596 97.859369,240.32626 C 98.110534,240.96657 98.542119,241.46006 99.154127,241.80674 C 99.766124,242.15343 100.51432,242.32677 101.39873,242.32677 C 102.91281,242.32677 103.99177,241.98363 104.63562,241.29733 C 105.27945,240.61104 105.60137,239.29152 105.60139,237.33877 L 105.60139,228.36036 z M 111.0988,243.91869 L 111.0988,228.36036 L 116.45825,228.36036 C 117.6681,228.36038 118.59141,228.43467 119.22818,228.58323 C 120.11964,228.78843 120.88023,229.15987 121.50993,229.69757 C 122.33064,230.39095 122.94441,231.27712 123.35124,232.35607 C 123.75805,233.43505 123.96146,234.6679 123.96148,236.05462 C 123.96146,237.23618 123.8235,238.28331 123.54758,239.196 C 123.27163,240.1087 122.91788,240.86398 122.4863,241.46183 C 122.0547,242.05968 121.58244,242.53018 121.0695,242.87333 C 120.55654,243.21647 119.93746,243.47649 119.21226,243.65337 C 118.48705,243.83025 117.65395,243.91869 116.71296,243.91869 L 111.0988,243.91869 z M 113.15768,242.08268 L 116.47947,242.08268 C 117.50537,242.08268 118.31017,241.98716 118.89388,241.79613 C 119.47757,241.6051 119.94276,241.33625 120.28946,240.98956 C 120.77764,240.50138 121.15793,239.84515 121.43033,239.02089 C 121.70271,238.19664 121.83891,237.19727 121.83892,236.02278 C 121.83891,234.3955 121.57182,233.14497 121.03766,232.27117 C 120.50347,231.3974 119.85433,230.81193 119.09022,230.51476 C 118.53834,230.30251 117.65041,230.19639 116.42641,230.19637 L 113.15768,230.19637 L 113.15768,242.08268 z M 127.15592,243.91869 L 127.15592,228.36036 L 129.2148,228.36036 L 129.2148,243.91869 L 127.15592,243.91869 z M 132.2076,236.34117 C 132.2076,233.75874 132.90097,231.73701 134.2877,230.27597 C 135.67443,228.81496 137.46445,228.08445 139.65777,228.08443 C 141.09402,228.08445 142.38877,228.42759 143.54204,229.11387 C 144.69528,229.80018 145.57437,230.75709 146.17931,231.98463 C 146.78423,233.21218 147.08669,234.60422 147.08671,236.16075 C 147.08669,237.73852 146.76831,239.15002 146.13156,240.39525 C 145.49478,241.64048 144.59269,242.58325 143.4253,243.22355 C 142.25788,243.86385 140.9985,244.184 139.64715,244.18401 C 138.18258,244.184 136.87368,243.83025 135.72043,243.12273 C 134.56717,242.41521 133.69339,241.44945 133.09907,240.22544 C 132.50476,239.00144 132.2076,237.70668 132.2076,236.34117 L 132.2076,236.34117 z M 134.33016,236.37301 C 134.33015,238.24793 134.83426,239.72488 135.84247,240.80384 C 136.85068,241.8828 138.11537,242.42229 139.63654,242.42229 C 141.186,242.42229 142.4613,241.8775 143.46244,240.78792 C 144.46357,239.69834 144.96414,238.15242 144.96415,236.15014 C 144.96414,234.88369 144.75011,233.77819 144.32208,232.83365 C 143.89402,231.88912 143.26786,231.15684 142.44362,230.6368 C 141.61935,230.11679 140.69427,229.85678 139.66838,229.85676 C 138.21088,229.85678 136.95681,230.35735 135.90615,231.35847 C 134.85548,232.35962 134.33015,234.03113 134.33016,236.37301 L 134.33016,236.37301 z M 154.04869,243.91869 L 160.02368,228.36036 L 162.24175,228.36036 L 168.60941,243.91869 L 166.26399,243.91869 L 164.4492,239.20662 L 157.94357,239.20662 L 156.23492,243.91869 L 154.04869,243.91869 z M 158.53789,237.5298 L 163.81244,237.5298 L 162.18868,233.22101 C 161.69341,231.91212 161.3255,230.83669 161.08495,229.99473 C 160.88684,230.99234 160.60737,231.98287 160.24654,232.96631 L 158.53789,237.5298 z M 170.25438,243.91869 L 170.25438,228.36036 L 172.36632,228.36036 L 180.53816,240.57566 L 180.53816,228.36036 L 182.51213,228.36036 L 182.51213,243.91869 L 180.40019,243.91869 L 172.22836,231.69277 L 172.22836,243.91869 L 170.25438,243.91869 z M 185.98251,243.91869 L 185.98251,228.36036 L 191.34196,228.36036 C 192.55181,228.36038 193.47512,228.43467 194.11189,228.58323 C 195.00335,228.78843 195.76393,229.15987 196.39364,229.69757 C 197.21434,230.39095 197.82812,231.27712 198.23495,232.35607 C 198.64176,233.43505 198.84517,234.6679 198.84519,236.05462 C 198.84517,237.23618 198.70721,238.28331 198.43129,239.196 C 198.15534,240.1087 197.80158,240.86398 197.37001,241.46183 C 196.93841,242.05968 196.46615,242.53018 195.95321,242.87333 C 195.44024,243.21647 194.82117,243.47649 194.09597,243.65337 C 193.37076,243.83025 192.53766,243.91869 191.59666,243.91869 L 185.98251,243.91869 z M 188.04139,242.08268 L 191.36318,242.08268 C 192.38908,242.08268 193.19388,241.98716 193.77759,241.79613 C 194.36128,241.6051 194.82647,241.33625 195.17317,240.98956 C 195.66134,240.50138 196.04163,239.84515 196.31404,239.02089 C 196.58642,238.19664 196.72262,237.19727 196.72263,236.02278 C 196.72262,234.3955 196.45553,233.14497 195.92137,232.27117 C 195.38718,231.3974 194.73803,230.81193 193.97392,230.51476 C 193.42205,230.30251 192.53412,230.19639 191.31012,230.19637 L 188.04139,230.19637 L 188.04139,242.08268 z M 212.16421,243.91869 L 206.13616,228.36036 L 208.36484,228.36036 L 212.40831,239.66296 C 212.73376,240.56859 213.00615,241.41761 213.22549,242.21003 C 213.46604,241.36101 213.74551,240.51199 214.0639,239.66296 L 218.26656,228.36036 L 220.36789,228.36036 L 214.27616,243.91869 L 212.16421,243.91869 z M 222.58596,243.91869 L 222.58596,228.36036 L 224.64483,228.36036 L 224.64483,243.91869 L 222.58596,243.91869 z M 227.56335,238.92007 L 229.50549,238.75027 C 229.59747,239.52854 229.81149,240.16708 230.14756,240.66587 C 230.48363,241.16467 231.00542,241.56796 231.71295,241.87573 C 232.42046,242.1835 233.21642,242.33738 234.10082,242.33738 C 234.88616,242.33738 235.57952,242.22064 236.18092,241.98716 C 236.7823,241.75368 237.22981,241.43353 237.52344,241.02671 C 237.81705,240.61989 237.96386,240.17592 237.96387,239.6948 C 237.96386,239.20662 237.82235,238.78034 237.53936,238.41596 C 237.25634,238.0516 236.78938,237.7456 236.13847,237.49796 C 235.72103,237.33524 234.79772,237.0823 233.36854,236.73915 C 231.93935,236.39601 230.93821,236.07232 230.36513,235.76808 C 229.62223,235.37895 229.0686,234.89607 228.70423,234.31943 C 228.33985,233.74282 228.15767,233.09721 228.15767,232.3826 C 228.15767,231.59727 228.38054,230.86322 228.82627,230.18045 C 229.27201,229.49771 229.92292,228.97946 230.77902,228.62568 C 231.63512,228.27194 232.58673,228.09506 233.63386,228.09504 C 234.7871,228.09506 235.80416,228.28078 236.68503,228.65221 C 237.56588,229.02368 238.24333,229.57023 238.71738,230.29189 C 239.1914,231.01357 239.44611,231.83075 239.4815,232.74344 L 237.50752,232.89202 C 237.40138,231.90858 237.04232,231.16569 236.43032,230.66334 C 235.81831,230.16101 234.91446,229.90984 233.71876,229.90983 C 232.47352,229.90984 231.56613,230.13802 230.99659,230.59435 C 230.42703,231.05071 230.14225,231.60081 230.14226,232.24464 C 230.14225,232.80359 230.3439,233.26347 230.74718,233.6243 C 231.14339,233.98514 232.17813,234.35482 233.85142,234.73333 C 235.52469,235.11186 236.67264,235.44263 237.29526,235.72563 C 238.20088,236.14307 238.86948,236.67194 239.30108,237.31224 C 239.73265,237.95255 239.94844,238.69013 239.94846,239.525 C 239.94844,240.3528 239.71143,241.13284 239.2374,241.86511 C 238.76335,242.5974 238.08237,243.16695 237.19444,243.57377 C 236.3065,243.98059 235.30713,244.184 234.19634,244.18401 C 232.78837,244.184 231.60858,243.97882 230.65698,243.56846 C 229.70536,243.1581 228.95893,242.5408 228.41768,241.71654 C 227.87643,240.89228 227.59165,239.96013 227.56335,238.92007 L 227.56335,238.92007 z M 252.99155,228.36036 L 255.05042,228.36036 L 255.05042,237.34938 C 255.05041,238.913 254.87353,240.15469 254.51979,241.07446 C 254.16601,241.99424 253.52748,242.74244 252.60418,243.31906 C 251.68086,243.89569 250.46924,244.184 248.96931,244.18401 C 247.51181,244.184 246.31965,243.93284 245.3928,243.4305 C 244.46595,242.92816 243.80442,242.20119 243.40821,241.24957 C 243.012,240.29797 242.8139,238.9979 242.8139,237.34938 L 242.8139,228.36036 L 244.87278,228.36036 L 244.87278,237.33877 C 244.87277,238.69013 244.99836,239.68596 245.24953,240.32626 C 245.5007,240.96657 245.93228,241.46006 246.54429,241.80674 C 247.15629,242.15343 247.90449,242.32677 248.78889,242.32677 C 250.30297,242.32677 251.38193,241.98363 252.02578,241.29733 C 252.66961,240.61104 252.99154,239.29152 252.99155,237.33877 L 252.99155,228.36036 z M 256.7803,243.91869 L 262.75529,228.36036 L 264.97336,228.36036 L 271.34102,243.91869 L 268.9956,243.91869 L 267.18081,239.20662 L 260.67519,239.20662 L 258.96653,243.91869 L 256.7803,243.91869 z M 261.2695,237.5298 L 266.54405,237.5298 L 264.92029,233.22101 C 264.42502,231.91212 264.05712,230.83669 263.81657,229.99473 C 263.61845,230.99234 263.33899,231.98287 262.97816,232.96631 L 261.2695,237.5298 z M 272.92233,243.91869 L 272.92233,228.36036 L 274.98121,228.36036 L 274.98121,242.08268 L 282.64363,242.08268 L 282.64363,243.91869 L 272.92233,243.91869 z M 291.48406,243.91869 L 291.48406,228.36036 L 293.54294,228.36036 L 293.54294,243.91869 L 291.48406,243.91869 z M 297.14067,243.91869 L 297.14067,228.36036 L 299.25261,228.36036 L 307.42445,240.57566 L 307.42445,228.36036 L 309.39842,228.36036 L 309.39842,243.91869 L 307.28648,243.91869 L 299.11465,231.69277 L 299.11465,243.91869 L 297.14067,243.91869 z M 316.82736,243.91869 L 316.82736,230.19637 L 311.70139,230.19637 L 311.70139,228.36036 L 324.03343,228.36036 L 324.03343,230.19637 L 318.88623,230.19637 L 318.88623,243.91869 L 316.82736,243.91869 z M 326.19844,243.91869 L 326.19844,228.36036 L 337.44798,228.36036 L 337.44798,230.19637 L 328.25732,230.19637 L 328.25732,234.96151 L 336.86428,234.96151 L 336.86428,236.7869 L 328.25732,236.7869 L 328.25732,242.08268 L 337.80882,242.08268 L 337.80882,243.91869 L 326.19844,243.91869 z M 340.58936,243.91869 L 340.58936,228.36036 L 342.64823,228.36036 L 342.64823,242.08268 L 350.31065,242.08268 L 350.31065,243.91869 L 340.58936,243.91869 z M 352.68793,243.91869 L 352.68793,228.36036 L 354.74681,228.36036 L 354.74681,242.08268 L 362.40923,242.08268 L 362.40923,243.91869 L 352.68793,243.91869 z M 365.22159,243.91869 L 365.22159,228.36036 L 367.28047,228.36036 L 367.28047,243.91869 L 365.22159,243.91869 z M 378.17978,237.81634 L 378.17978,235.99095 L 384.77031,235.98033 L 384.77031,241.75368 C 383.75854,242.56025 382.71495,243.16695 381.63954,243.57377 C 380.5641,243.98059 379.46038,244.184 378.32836,244.18401 C 376.80011,244.184 375.41161,243.85678 374.16284,243.20232 C 372.91407,242.54787 371.9713,241.60157 371.33454,240.36341 C 370.69777,239.12526 370.37939,237.74206 370.37939,236.21381 C 370.37939,234.69973 370.696,233.28647 371.32923,231.97401 C 371.96246,230.66158 372.87339,229.68697 374.06202,229.05019 C 375.25065,228.41344 376.61969,228.09506 378.16916,228.09504 C 379.29411,228.09506 380.31116,228.27725 381.22034,228.6416 C 382.12948,229.00599 382.84231,229.51363 383.35881,230.16453 C 383.87528,230.81546 384.26796,231.66449 384.53683,232.7116 L 382.67959,233.22101 C 382.4461,232.4286 382.15602,231.80599 381.80935,231.35317 C 381.46265,230.90037 380.96739,230.53776 380.32356,230.26536 C 379.67971,229.99298 378.96511,229.85678 378.17978,229.85676 C 377.23877,229.85678 376.42513,230.00005 375.73884,230.28658 C 375.05254,230.57314 374.49891,230.94989 374.07794,231.41684 C 373.65696,231.88382 373.32974,232.39677 373.09626,232.95569 C 372.70005,233.91793 372.50194,234.96152 372.50195,236.08646 C 372.50194,237.4732 372.74073,238.63353 373.21831,239.56745 C 373.69588,240.50138 374.39101,241.19474 375.30372,241.64755 C 376.21641,242.10037 377.18571,242.32677 378.21162,242.32677 C 379.10308,242.32677 379.97333,242.1552 380.82236,241.81205 C 381.67137,241.46891 382.31521,241.10277 382.75388,240.71363 L 382.75388,237.81634 L 378.17978,237.81634 z M 387.83741,243.91869 L 387.83741,228.36036 L 399.08694,228.36036 L 399.08694,230.19637 L 389.89628,230.19637 L 389.89628,234.96151 L 398.50324,234.96151 L 398.50324,236.7869 L 389.89628,236.7869 L 389.89628,242.08268 L 399.44778,242.08268 L 399.44778,243.91869 L 387.83741,243.91869 z M 402.29201,243.91869 L 402.29201,228.36036 L 404.40395,228.36036 L 412.57578,240.57566 L 412.57578,228.36036 L 414.54976,228.36036 L 414.54976,243.91869 L 412.43782,243.91869 L 404.26598,231.69277 L 404.26598,243.91869 L 402.29201,243.91869 z M 421.97871,243.91869 L 421.97871,230.19637 L 416.85274,230.19637 L 416.85274,228.36036 L 429.18478,228.36036 L 429.18478,230.19637 L 424.03759,230.19637 L 424.03759,243.91869 L 421.97871,243.91869 z M 441.29392,243.91869 L 441.29392,230.19637 L 436.16796,230.19637 L 436.16796,228.36036 L 448.5,228.36036 L 448.5,230.19637 L 443.3528,230.19637 L 443.3528,243.91869 L 441.29392,243.91869 z M 450.66501,243.91869 L 450.66501,228.36036 L 461.91455,228.36036 L 461.91455,230.19637 L 452.72389,230.19637 L 452.72389,234.96151 L 461.33085,234.96151 L 461.33085,236.7869 L 452.72389,236.7869 L 452.72389,242.08268 L 462.27538,242.08268 L 462.27538,243.91869 L 450.66501,243.91869 z M 465.17268,243.91869 L 465.17268,228.36036 L 472.07098,228.36036 C 473.45771,228.36038 474.51191,228.50011 475.23359,228.77957 C 475.95524,229.05905 476.53187,229.55255 476.96347,230.26005 C 477.39504,230.96758 477.61083,231.74939 477.61085,232.60547 C 477.61083,233.70921 477.25354,234.6396 476.53896,235.39663 C 475.82435,236.15368 474.72062,236.63479 473.22777,236.83997 C 473.77255,237.10176 474.18645,237.36 474.46947,237.6147 C 475.07085,238.16657 475.6404,238.8564 476.17812,239.68419 L 478.88438,243.91869 L 476.29486,243.91869 L 474.23599,240.68179 C 473.63459,239.74787 473.13932,239.03328 472.7502,238.53801 C 472.36105,238.04275 472.0126,237.69607 471.70484,237.49796 C 471.39706,237.29986 471.08399,237.1619 470.76561,237.08406 C 470.53212,237.03454 470.15006,237.00978 469.61943,237.00977 L 467.23156,237.00977 L 467.23156,243.91869 L 465.17268,243.91869 z M 467.23156,235.22683 L 471.65708,235.22683 C 472.59807,235.22684 473.33389,235.12955 473.86454,234.93498 C 474.39517,234.74042 474.79845,234.42911 475.07439,234.00105 C 475.35032,233.57301 475.48828,233.10782 475.48829,232.60547 C 475.48828,231.86967 475.22119,231.26474 474.68703,230.79069 C 474.15284,230.31666 473.30913,230.07965 472.15588,230.07963 L 467.23156,230.07963 L 467.23156,235.22683 z M 480.78404,243.91869 L 480.78404,228.36036 L 483.88297,228.36036 L 487.5656,239.37642 C 487.9052,240.40232 488.15283,241.16998 488.3085,241.67939 C 488.48537,241.11338 488.7613,240.28205 489.13629,239.18539 L 492.86138,228.36036 L 495.63131,228.36036 L 495.63131,243.91869 L 493.64672,243.91869 L 493.64672,230.89682 L 489.12568,243.91869 L 487.26845,243.91869 L 482.76863,230.67395 L 482.76863,243.91869 L 480.78404,243.91869 z M 499.32456,243.91869 L 499.32456,228.36036 L 501.38344,228.36036 L 501.38344,243.91869 L 499.32456,243.91869 z M 504.98119,243.91869 L 504.98119,228.36036 L 507.09313,228.36036 L 515.26496,240.57566 L 515.26496,228.36036 L 517.23894,228.36036 L 517.23894,243.91869 L 515.127,243.91869 L 506.95516,231.69277 L 506.95516,243.91869 L 504.98119,243.91869 z M 519.00064,243.91869 L 524.97563,228.36036 L 527.1937,228.36036 L 533.56136,243.91869 L 531.21594,243.91869 L 529.40115,239.20662 L 522.89552,239.20662 L 521.18687,243.91869 L 519.00064,243.91869 z M 523.48984,237.5298 L 528.76439,237.5298 L 527.14063,233.22101 C 526.64536,231.91212 526.27745,230.83669 526.0369,229.99473 C 525.83879,230.99234 525.55932,231.98287 525.19849,232.96631 L 523.48984,237.5298 z M 535.14267,243.91869 L 535.14267,228.36036 L 537.20155,228.36036 L 537.20155,242.08268 L 544.86397,242.08268 L 544.86397,243.91869 L 535.14267,243.91869 z M 131.09326,271.08737 L 131.09326,255.52905 L 133.15214,255.52905 L 133.15214,261.91794 L 141.23907,261.91794 L 141.23907,255.52905 L 143.29795,255.52905 L 143.29795,271.08737 L 141.23907,271.08737 L 141.23907,263.75395 L 133.15214,263.75395 L 133.15214,271.08737 L 131.09326,271.08737 z M 147.08671,271.08737 L 147.08671,255.52905 L 149.14558,255.52905 L 149.14558,271.08737 L 147.08671,271.08737 z M 160.0449,264.98503 L 160.0449,263.15963 L 166.63543,263.14902 L 166.63543,268.92237 C 165.62367,269.72894 164.58008,270.33563 163.50466,270.74246 C 162.42922,271.14928 161.3255,271.35269 160.19348,271.35269 C 158.66523,271.35269 157.27673,271.02546 156.02797,270.37101 C 154.77919,269.71656 153.83643,268.77025 153.19966,267.53209 C 152.5629,266.29394 152.24451,264.91075 152.24451,263.3825 C 152.24451,261.86842 152.56113,260.45515 153.19436,259.1427 C 153.82758,257.83027 154.73851,256.85566 155.92715,256.21888 C 157.11577,255.58213 158.48482,255.26375 160.03429,255.26373 C 161.15923,255.26375 162.17629,255.44593 163.08546,255.81029 C 163.99461,256.17467 164.70743,256.68232 165.22393,257.33322 C 165.74041,257.98415 166.13308,258.83317 166.40195,259.88029 L 164.54472,260.3897 C 164.31122,259.59729 164.02114,258.97467 163.67447,258.52185 C 163.32777,258.06905 162.83251,257.70645 162.18868,257.43404 C 161.54483,257.16166 160.83024,257.02546 160.0449,257.02545 C 159.10389,257.02546 158.29025,257.16874 157.60396,257.45527 C 156.91766,257.74183 156.36403,258.11858 155.94306,258.58553 C 155.52209,259.0525 155.19486,259.56545 154.96138,260.12438 C 154.56517,261.08661 154.36706,262.1302 154.36707,263.25515 C 154.36706,264.64189 154.60585,265.80222 155.08343,266.73614 C 155.561,267.67006 156.25614,268.36343 157.16884,268.81624 C 158.08153,269.26905 159.05083,269.49546 160.07674,269.49546 C 160.9682,269.49546 161.83845,269.32388 162.68748,268.98074 C 163.53649,268.63759 164.18033,268.27145 164.619,267.88232 L 164.619,264.98503 L 160.0449,264.98503 z M 169.72375,271.08737 L 169.72375,255.52905 L 171.78262,255.52905 L 171.78262,261.91794 L 179.86956,261.91794 L 179.86956,255.52905 L 181.92843,255.52905 L 181.92843,271.08737 L 179.86956,271.08737 L 179.86956,263.75395 L 171.78262,263.75395 L 171.78262,271.08737 L 169.72375,271.08737 z M 198.67539,264.98503 L 198.67539,263.15963 L 205.26592,263.14902 L 205.26592,268.92237 C 204.25415,269.72894 203.21056,270.33563 202.13515,270.74246 C 201.05971,271.14928 199.95598,271.35269 198.82396,271.35269 C 197.29572,271.35269 195.90722,271.02546 194.65845,270.37101 C 193.40968,269.71656 192.46691,268.77025 191.83015,267.53209 C 191.19338,266.29394 190.875,264.91075 190.875,263.3825 C 190.875,261.86842 191.19161,260.45515 191.82484,259.1427 C 192.45807,257.83027 193.369,256.85566 194.55763,256.21888 C 195.74626,255.58213 197.1153,255.26375 198.66477,255.26373 C 199.78972,255.26375 200.80677,255.44593 201.71594,255.81029 C 202.62509,256.17467 203.33792,256.68232 203.85442,257.33322 C 204.37089,257.98415 204.76356,258.83317 205.03244,259.88029 L 203.1752,260.3897 C 202.94171,259.59729 202.65162,258.97467 202.30495,258.52185 C 201.95826,258.06905 201.463,257.70645 200.81917,257.43404 C 200.17531,257.16166 199.46072,257.02546 198.67539,257.02545 C 197.73438,257.02546 196.92073,257.16874 196.23445,257.45527 C 195.54815,257.74183 194.99452,258.11858 194.57355,258.58553 C 194.15257,259.0525 193.82535,259.56545 193.59187,260.12438 C 193.19566,261.08661 192.99755,262.1302 192.99755,263.25515 C 192.99755,264.64189 193.23634,265.80222 193.71392,266.73614 C 194.19149,267.67006 194.88662,268.36343 195.79933,268.81624 C 196.71202,269.26905 197.68132,269.49546 198.70722,269.49546 C 199.59869,269.49546 200.46893,269.32388 201.31797,268.98074 C 202.16698,268.63759 202.81082,268.27145 203.24949,267.88232 L 203.24949,264.98503 L 198.67539,264.98503 z M 208.32239,271.08737 L 208.32239,255.52905 L 215.2207,255.52905 C 216.60742,255.52907 217.66162,255.6688 218.3833,255.94825 C 219.10496,256.22774 219.68158,256.72123 220.11318,257.42874 C 220.54475,258.13627 220.76055,258.91807 220.76056,259.77416 C 220.76055,260.8779 220.40325,261.80828 219.68867,262.56532 C 218.97407,263.32237 217.87034,263.80348 216.37749,264.00865 C 216.92227,264.27044 217.33616,264.52869 217.61918,264.78339 C 218.22056,265.33526 218.79011,266.02509 219.32784,266.85288 L 222.03409,271.08737 L 219.44458,271.08737 L 217.3857,267.85048 C 216.7843,266.91656 216.28904,266.20196 215.89991,265.7067 C 215.51077,265.21144 215.16232,264.86476 214.85455,264.66665 C 214.54678,264.46855 214.2337,264.33058 213.91532,264.25275 C 213.68184,264.20323 213.29978,264.17846 212.76915,264.17846 L 210.38127,264.17846 L 210.38127,271.08737 L 208.32239,271.08737 z M 210.38127,262.39551 L 214.8068,262.39551 C 215.74779,262.39552 216.48361,262.29824 217.01425,262.10366 C 217.54488,261.9091 217.94817,261.5978 218.22411,261.16974 C 218.50003,260.7417 218.638,260.27651 218.63801,259.77416 C 218.638,259.03835 218.37091,258.43342 217.83674,257.95937 C 217.30256,257.48535 216.45884,257.24833 215.3056,257.24832 L 210.38127,257.24832 L 210.38127,262.39551 z M 222.2888,271.08737 L 228.26379,255.52905 L 230.48186,255.52905 L 236.84952,271.08737 L 234.5041,271.08737 L 232.68932,266.3753 L 226.18369,266.3753 L 224.47503,271.08737 L 222.2888,271.08737 z M 226.778,264.69848 L 232.05255,264.69848 L 230.4288,260.3897 C 229.93353,259.0808 229.56562,258.00538 229.32507,257.16342 C 229.12696,258.16103 228.84749,259.15155 228.48666,260.13499 L 226.778,264.69848 z M 238.51573,271.08737 L 238.51573,255.52905 L 243.87518,255.52905 C 245.08503,255.52907 246.00834,255.60335 246.64511,255.75192 C 247.53657,255.95711 248.29716,256.32856 248.92686,256.86626 C 249.74757,257.55964 250.36134,258.44581 250.76817,259.52476 C 251.17498,260.60373 251.37839,261.83658 251.37841,263.22331 C 251.37839,264.40487 251.24043,265.452 250.96451,266.36469 C 250.68856,267.27739 250.33481,268.03267 249.90323,268.63052 C 249.47163,269.22837 248.99937,269.69887 248.48643,270.04201 C 247.97347,270.38516 247.35439,270.64517 246.62919,270.82205 C 245.90398,270.99893 245.07088,271.08737 244.12989,271.08737 L 238.51573,271.08737 z M 240.57461,269.25136 L 243.8964,269.25136 C 244.9223,269.25136 245.7271,269.15585 246.31081,268.96482 C 246.8945,268.77379 247.35969,268.50493 247.70639,268.15825 C 248.19457,267.67006 248.57486,267.01384 248.84726,266.18958 C 249.11964,265.36533 249.25584,264.36596 249.25585,263.19147 C 249.25584,261.56419 248.98875,260.31365 248.45459,259.43986 C 247.9204,258.56608 247.27126,257.98061 246.50715,257.68344 C 245.95527,257.4712 245.06734,257.36507 243.84334,257.36506 L 240.57461,257.36506 L 240.57461,269.25136 z M 254.26507,271.08737 L 254.26507,255.52905 L 265.51461,255.52905 L 265.51461,257.36506 L 256.32395,257.36506 L 256.32395,262.13019 L 264.93091,262.13019 L 264.93091,263.95559 L 256.32395,263.95559 L 256.32395,269.25136 L 265.87545,269.25136 L 265.87545,271.08737 L 254.26507,271.08737 z M 274.70527,271.08737 L 274.70527,255.52905 L 277.8042,255.52905 L 281.48683,266.54511 C 281.82643,267.57101 282.07406,268.33867 282.22973,268.84808 C 282.4066,268.28207 282.68253,267.45073 283.05752,266.35408 L 286.78261,255.52905 L 289.55254,255.52905 L 289.55254,271.08737 L 287.56795,271.08737 L 287.56795,258.0655 L 283.04691,271.08737 L 281.18968,271.08737 L 276.68986,257.84263 L 276.68986,271.08737 L 274.70527,271.08737 z M 303.10505,255.52905 L 305.16393,255.52905 L 305.16393,264.51807 C 305.16392,266.08169 304.98704,267.32338 304.63329,268.24315 C 304.27952,269.16292 303.64098,269.91112 302.71769,270.48775 C 301.79436,271.06438 300.58274,271.35269 299.08281,271.35269 C 297.62532,271.35269 296.43315,271.10152 295.50631,270.59918 C 294.57946,270.09685 293.91793,269.36987 293.52172,268.41826 C 293.12551,267.46665 292.9274,266.16659 292.92741,264.51807 L 292.92741,255.52905 L 294.98628,255.52905 L 294.98628,264.50745 C 294.98628,265.85882 295.11186,266.85465 295.36304,267.49495 C 295.6142,268.13526 296.04579,268.62875 296.65779,268.97543 C 297.26979,269.32212 298.01799,269.49546 298.9024,269.49546 C 300.41647,269.49546 301.49544,269.15231 302.13929,268.46602 C 302.78312,267.77973 303.10504,266.46021 303.10505,264.50745 L 303.10505,255.52905 z M 308.51756,271.08737 L 308.51756,255.52905 L 310.57644,255.52905 L 310.57644,269.25136 L 318.23886,269.25136 L 318.23886,271.08737 L 308.51756,271.08737 z M 324.65958,271.08737 L 324.65958,257.36506 L 319.53361,257.36506 L 319.53361,255.52905 L 331.86565,255.52905 L 331.86565,257.36506 L 326.71846,257.36506 L 326.71846,271.08737 L 324.65958,271.08737 z M 334.33844,271.08737 L 334.33844,255.52905 L 336.39732,255.52905 L 336.39732,271.08737 L 334.33844,271.08737 z M 340.01626,271.08737 L 340.01626,255.52905 L 345.88513,255.52905 C 346.91809,255.52907 347.70698,255.57859 348.25177,255.67763 C 349.01588,255.805 349.65619,256.04732 350.17269,256.4046 C 350.68916,256.76191 351.10483,257.26248 351.41969,257.90631 C 351.73452,258.55016 351.89194,259.25768 351.89195,260.02886 C 351.89194,261.35193 351.47097,262.47158 350.62903,263.38781 C 349.78708,264.30405 348.26591,264.76217 346.06554,264.76216 L 342.07514,264.76216 L 342.07514,271.08737 L 340.01626,271.08737 z M 342.07514,262.92615 L 346.09738,262.92615 C 347.42751,262.92616 348.37204,262.67853 348.93099,262.18326 C 349.48992,261.688 349.76939,260.9911 349.7694,260.09254 C 349.76939,259.44164 349.60489,258.88447 349.27591,258.42103 C 348.9469,257.95762 348.51355,257.65162 347.97584,257.50303 C 347.62915,257.41106 346.98885,257.36507 346.05493,257.36506 L 342.07514,257.36506 L 342.07514,262.92615 z M 364.74403,255.52905 L 366.80291,255.52905 L 366.80291,264.51807 C 366.80289,266.08169 366.62601,267.32338 366.27227,268.24315 C 365.9185,269.16292 365.27996,269.91112 364.35666,270.48775 C 363.43334,271.06438 362.22172,271.35269 360.72179,271.35269 C 359.2643,271.35269 358.07213,271.10152 357.14529,270.59918 C 356.21843,270.09685 355.5569,269.36987 355.1607,268.41826 C 354.76449,267.46665 354.56638,266.16659 354.56638,264.51807 L 354.56638,255.52905 L 356.62526,255.52905 L 356.62526,264.50745 C 356.62526,265.85882 356.75084,266.85465 357.00201,267.49495 C 357.25318,268.13526 357.68476,268.62875 358.29677,268.97543 C 358.90877,269.32212 359.65697,269.49546 360.54137,269.49546 C 362.05545,269.49546 363.13442,269.15231 363.77827,268.46602 C 364.4221,267.77973 364.74402,266.46021 364.74403,264.50745 L 364.74403,255.52905 z M 370.27328,271.08737 L 370.27328,255.52905 L 377.17158,255.52905 C 378.5583,255.52907 379.6125,255.6688 380.33418,255.94825 C 381.05584,256.22774 381.63247,256.72123 382.06406,257.42874 C 382.49564,258.13627 382.71143,258.91807 382.71144,259.77416 C 382.71143,260.8779 382.35413,261.80828 381.63955,262.56532 C 380.92495,263.32237 379.82122,263.80348 378.32837,264.00865 C 378.87315,264.27044 379.28705,264.52869 379.57006,264.78339 C 380.17144,265.33526 380.74099,266.02509 381.27872,266.85288 L 383.98498,271.08737 L 381.39546,271.08737 L 379.33658,267.85048 C 378.73518,266.91656 378.23992,266.20196 377.85079,265.7067 C 377.46165,265.21144 377.1132,264.86476 376.80544,264.66665 C 376.49766,264.46855 376.18458,264.33058 375.86621,264.25275 C 375.63272,264.20323 375.25066,264.17846 374.72003,264.17846 L 372.33215,264.17846 L 372.33215,271.08737 L 370.27328,271.08737 z M 372.33215,262.39551 L 376.75768,262.39551 C 377.69867,262.39552 378.43449,262.29824 378.96514,262.10366 C 379.49576,261.9091 379.89905,261.5978 380.17499,261.16974 C 380.45091,260.7417 380.58888,260.27651 380.58889,259.77416 C 380.58888,259.03835 380.32179,258.43342 379.78763,257.95937 C 379.25344,257.48535 378.40972,257.24833 377.25648,257.24832 L 372.33215,257.24832 L 372.33215,262.39551 z M 385.94833,271.08737 L 385.94833,255.52905 L 391.81719,255.52905 C 392.85016,255.52907 393.63904,255.57859 394.18384,255.67763 C 394.94795,255.805 395.58825,256.04732 396.10475,256.4046 C 396.62123,256.76191 397.0369,257.26248 397.35175,257.90631 C 397.66659,258.55016 397.82401,259.25768 397.82402,260.02886 C 397.82401,261.35193 397.40304,262.47158 396.5611,263.38781 C 395.71914,264.30405 394.19798,264.76217 391.99761,264.76216 L 388.00721,264.76216 L 388.00721,271.08737 L 385.94833,271.08737 z M 388.00721,262.92615 L 392.02945,262.92615 C 393.35957,262.92616 394.30411,262.67853 394.86306,262.18326 C 395.42199,261.688 395.70146,260.9911 395.70147,260.09254 C 395.70146,259.44164 395.53696,258.88447 395.20797,258.42103 C 394.87897,257.95762 394.44561,257.65162 393.90791,257.50303 C 393.56122,257.41106 392.92091,257.36507 391.987,257.36506 L 388.00721,257.36506 L 388.00721,262.92615 z M 399.84044,263.50985 C 399.84044,260.92742 400.53381,258.90569 401.92055,257.44465 C 403.30728,255.98365 405.0973,255.25313 407.29061,255.25312 C 408.72686,255.25313 410.02162,255.59628 411.17488,256.28256 C 412.32812,256.96886 413.20721,257.92578 413.81216,259.15331 C 414.41707,260.38087 414.71953,261.77291 414.71955,263.32944 C 414.71953,264.90721 414.40115,266.3187 413.7644,267.56393 C 413.12762,268.80917 412.22553,269.75193 411.05814,270.39224 C 409.89073,271.03254 408.63135,271.35269 407.28,271.35269 C 405.81543,271.35269 404.50652,270.99893 403.35327,270.29141 C 402.20001,269.5839 401.32623,268.61814 400.73192,267.39413 C 400.1376,266.17013 399.84044,264.87537 399.84044,263.50985 L 399.84044,263.50985 z M 401.963,263.54169 C 401.96299,265.41662 402.4671,266.89356 403.47532,267.97252 C 404.48352,269.05149 405.74821,269.59097 407.26938,269.59097 C 408.81884,269.59097 410.09414,269.04618 411.09529,267.9566 C 412.09641,266.86703 412.59698,265.32111 412.59699,263.31882 C 412.59698,262.05238 412.38296,260.94688 411.95492,260.00233 C 411.52686,259.05781 410.90071,258.32553 410.07646,257.80549 C 409.25219,257.28548 408.32711,257.02546 407.30122,257.02545 C 405.84373,257.02546 404.58965,257.52603 403.53899,258.52716 C 402.48833,259.52831 401.96299,261.19982 401.963,263.54169 L 401.963,263.54169 z M 416.66169,266.08876 L 418.60383,265.91895 C 418.6958,266.69723 418.90983,267.33576 419.2459,267.83456 C 419.58197,268.33336 420.10376,268.73665 420.81129,269.04441 C 421.5188,269.35219 422.31475,269.50607 423.19916,269.50607 C 423.9845,269.50607 424.67786,269.38933 425.27926,269.15585 C 425.88064,268.92237 426.32815,268.60222 426.62178,268.19539 C 426.91539,267.78857 427.0622,267.34461 427.06221,266.86349 C 427.0622,266.37531 426.92069,265.94903 426.6377,265.58465 C 426.35468,265.22028 425.88772,264.91428 425.23681,264.66665 C 424.81937,264.50392 423.89606,264.25099 422.46688,263.90783 C 421.03769,263.56469 420.03655,263.241 419.46346,262.93676 C 418.72057,262.54764 418.16693,262.06476 417.80256,261.48812 C 417.43819,260.9115 417.25601,260.26589 417.25601,259.55129 C 417.25601,258.76596 417.47887,258.03191 417.92461,257.34914 C 418.37035,256.6664 419.02126,256.14814 419.87736,255.79437 C 420.73345,255.44063 421.68506,255.26375 422.7322,255.26373 C 423.88544,255.26375 424.9025,255.44947 425.78337,255.8209 C 426.66422,256.19236 427.34167,256.73892 427.81571,257.46057 C 428.28974,258.18226 428.54444,258.99944 428.57983,259.91212 L 426.60586,260.0607 C 426.49972,259.07726 426.14065,258.33437 425.52866,257.83202 C 424.91665,257.3297 424.0128,257.07853 422.8171,257.07851 C 421.57186,257.07853 420.66447,257.3067 420.09492,257.76304 C 419.52537,258.2194 419.24059,258.76949 419.2406,259.41332 C 419.24059,259.97227 419.44223,260.43216 419.84552,260.79298 C 420.24173,261.15383 421.27647,261.52351 422.94976,261.90202 C 424.62303,262.28055 425.77098,262.61131 426.3936,262.89431 C 427.29921,263.31176 427.96782,263.84063 428.39942,264.48092 C 428.83099,265.12123 429.04678,265.85882 429.0468,266.69368 C 429.04678,267.52148 428.80976,268.30152 428.33574,269.0338 C 427.86169,269.76608 427.18071,270.33563 426.29278,270.74246 C 425.40484,271.14928 424.40547,271.35269 423.29467,271.35269 C 421.88671,271.35269 420.70692,271.14751 419.75531,270.73715 C 418.8037,270.32679 418.05727,269.70948 417.51602,268.88522 C 416.97477,268.06097 416.68999,267.12881 416.66169,266.08876 L 416.66169,266.08876 z M 431.92287,271.08737 L 431.92287,255.52905 L 443.1724,255.52905 L 443.1724,257.36506 L 433.98174,257.36506 L 433.98174,262.13019 L 442.5887,262.13019 L 442.5887,263.95559 L 433.98174,263.95559 L 433.98174,269.25136 L 443.53324,269.25136 L 443.53324,271.08737 L 431.92287,271.08737 z M 462.63623,255.52905 L 464.6951,255.52905 L 464.6951,264.51807 C 464.69509,266.08169 464.51821,267.32338 464.16447,268.24315 C 463.81069,269.16292 463.17216,269.91112 462.24886,270.48775 C 461.32554,271.06438 460.11391,271.35269 458.61399,271.35269 C 457.15649,271.35269 455.96433,271.10152 455.03748,270.59918 C 454.11063,270.09685 453.4491,269.36987 453.05289,268.41826 C 452.65668,267.46665 452.45858,266.16659 452.45858,264.51807 L 452.45858,255.52905 L 454.51746,255.52905 L 454.51746,264.50745 C 454.51745,265.85882 454.64304,266.85465 454.89421,267.49495 C 455.14537,268.13526 455.57696,268.62875 456.18897,268.97543 C 456.80096,269.32212 457.54916,269.49546 458.43357,269.49546 C 459.94765,269.49546 461.02661,269.15231 461.67046,268.46602 C 462.31429,267.77973 462.63621,266.46021 462.63623,264.50745 L 462.63623,255.52905 z M 467.43321,266.08876 L 469.37534,265.91895 C 469.46732,266.69723 469.68134,267.33576 470.01742,267.83456 C 470.35348,268.33336 470.87528,268.73665 471.5828,269.04441 C 472.29031,269.35219 473.08627,269.50607 473.97067,269.50607 C 474.75601,269.50607 475.44938,269.38933 476.05078,269.15585 C 476.65216,268.92237 477.09966,268.60222 477.39329,268.19539 C 477.6869,267.78857 477.83371,267.34461 477.83372,266.86349 C 477.83371,266.37531 477.69221,265.94903 477.40921,265.58465 C 477.12619,265.22028 476.65923,264.91428 476.00833,264.66665 C 475.59088,264.50392 474.66757,264.25099 473.23839,263.90783 C 471.8092,263.56469 470.80806,263.241 470.23498,262.93676 C 469.49208,262.54764 468.93845,262.06476 468.57408,261.48812 C 468.20971,260.9115 468.02752,260.26589 468.02752,259.55129 C 468.02752,258.76596 468.25039,258.03191 468.69613,257.34914 C 469.14186,256.6664 469.79278,256.14814 470.64888,255.79437 C 471.50497,255.44063 472.45658,255.26375 473.50371,255.26373 C 474.65696,255.26375 475.67401,255.44947 476.55488,255.8209 C 477.43573,256.19236 478.11318,256.73892 478.58723,257.46057 C 479.06125,258.18226 479.31596,258.99944 479.35135,259.91212 L 477.37737,260.0607 C 477.27123,259.07726 476.91217,258.33437 476.30018,257.83202 C 475.68816,257.3297 474.78431,257.07853 473.58861,257.07851 C 472.34338,257.07853 471.43599,257.3067 470.86644,257.76304 C 470.29688,258.2194 470.01211,258.76949 470.01211,259.41332 C 470.01211,259.97227 470.21375,260.43216 470.61704,260.79298 C 471.01324,261.15383 472.04799,261.52351 473.72127,261.90202 C 475.39454,262.28055 476.54249,262.61131 477.16512,262.89431 C 478.07073,263.31176 478.73933,263.84063 479.17093,264.48092 C 479.6025,265.12123 479.8183,265.85882 479.81831,266.69368 C 479.8183,267.52148 479.58128,268.30152 479.10725,269.0338 C 478.63321,269.76608 477.95222,270.33563 477.0643,270.74246 C 476.17635,271.14928 475.17698,271.35269 474.06619,271.35269 C 472.65822,271.35269 471.47844,271.14751 470.52683,270.73715 C 469.57521,270.32679 468.82878,269.70948 468.28753,268.88522 C 467.74628,268.06097 467.46151,267.12881 467.43321,266.08876 L 467.43321,266.08876 z M 482.69435,271.08737 L 482.69435,255.52905 L 493.94389,255.52905 L 493.94389,257.36506 L 484.75323,257.36506 L 484.75323,262.13019 L 493.36019,262.13019 L 493.36019,263.95559 L 484.75323,263.95559 L 484.75323,269.25136 L 494.30472,269.25136 L 494.30472,271.08737 L 482.69435,271.08737 z"
     id="text8886" />
</svg>
